%TF.GenerationSoftware,KiCad,Pcbnew,10.0.5*%
%TF.CreationDate,2026-08-11T15:36:02+03:00*%
%TF.ProjectId,skysweep32_rev_c,736b7973-7765-4657-9033-325f7265765f,rev?*%
%TF.SameCoordinates,Original*%
%TF.FileFunction,Legend,Top*%
%TF.FilePolarity,Positive*%
%FSLAX46Y46*%
G04 Gerber Fmt 4.6, Leading zero omitted, Abs format (unit mm)*
G04 Created by KiCad (PCBNEW 10.0.5) date 2026-08-11 15:36:02*
%MOMM*%
%LPD*%
G01*
G04 APERTURE LIST*
G04 Aperture macros list*
%AMRoundRect*
0 Rectangle with rounded corners*
0 $1 Rounding radius*
0 $2 $3 $4 $5 $6 $7 $8 $9 X,Y pos of 4 corners*
0 Add a 4 corners polygon primitive as box body*
4,1,4,$2,$3,$4,$5,$6,$7,$8,$9,$2,$3,0*
0 Add four circle primitives for the rounded corners*
1,1,$1+$1,$2,$3*
1,1,$1+$1,$4,$5*
1,1,$1+$1,$6,$7*
1,1,$1+$1,$8,$9*
0 Add four rect primitives between the rounded corners*
20,1,$1+$1,$2,$3,$4,$5,0*
20,1,$1+$1,$4,$5,$6,$7,0*
20,1,$1+$1,$6,$7,$8,$9,0*
20,1,$1+$1,$8,$9,$2,$3,0*%
G04 Aperture macros list end*
%ADD10C,0.150000*%
%ADD11C,0.120000*%
%ADD12C,0.250000*%
%ADD13RoundRect,0.200000X-0.200000X-0.275000X0.200000X-0.275000X0.200000X0.275000X-0.200000X0.275000X0*%
%ADD14R,1.100000X0.850000*%
%ADD15R,1.100000X0.750000*%
%ADD16R,1.000000X1.200000*%
%ADD17R,1.350000X1.550000*%
%ADD18R,1.350000X1.900000*%
%ADD19R,1.800000X1.170000*%
%ADD20R,2.750000X1.600000*%
%ADD21RoundRect,0.240000X-1.135000X-0.560000X1.135000X-0.560000X1.135000X0.560000X-1.135000X0.560000X0*%
%ADD22RoundRect,0.240000X0.560000X-1.135000X0.560000X1.135000X-0.560000X1.135000X-0.560000X-1.135000X0*%
%ADD23RoundRect,0.250000X0.650000X-1.000000X0.650000X1.000000X-0.650000X1.000000X-0.650000X-1.000000X0*%
%ADD24R,2.200000X3.000000*%
%ADD25RoundRect,0.440000X-0.660000X-1.060000X0.660000X-1.060000X0.660000X1.060000X-0.660000X1.060000X0*%
%ADD26R,5.080000X1.500000*%
%ADD27RoundRect,0.225000X-0.225000X-0.250000X0.225000X-0.250000X0.225000X0.250000X-0.225000X0.250000X0*%
%ADD28C,1.000000*%
%ADD29RoundRect,0.250000X-0.250000X-0.475000X0.250000X-0.475000X0.250000X0.475000X-0.250000X0.475000X0*%
%ADD30C,3.200000*%
%ADD31RoundRect,0.218750X-0.218750X-0.256250X0.218750X-0.256250X0.218750X0.256250X-0.218750X0.256250X0*%
%ADD32C,0.650000*%
%ADD33RoundRect,0.150000X-0.150000X-0.425000X0.150000X-0.425000X0.150000X0.425000X-0.150000X0.425000X0*%
%ADD34RoundRect,0.075000X-0.075000X-0.500000X0.075000X-0.500000X0.075000X0.500000X-0.075000X0.500000X0*%
%ADD35O,1.000000X2.100000*%
%ADD36O,1.000000X1.800000*%
%ADD37R,1.600000X5.700000*%
%ADD38RoundRect,0.250000X1.450000X-0.312500X1.450000X0.312500X-1.450000X0.312500X-1.450000X-0.312500X0*%
%ADD39R,1.800000X1.100000*%
%ADD40RoundRect,0.150000X-0.587500X-0.150000X0.587500X-0.150000X0.587500X0.150000X-0.587500X0.150000X0*%
%ADD41RoundRect,0.250000X-0.350000X-0.625000X0.350000X-0.625000X0.350000X0.625000X-0.350000X0.625000X0*%
%ADD42O,1.200000X1.750000*%
%ADD43RoundRect,0.150000X-0.150000X-0.625000X0.150000X-0.625000X0.150000X0.625000X-0.150000X0.625000X0*%
%ADD44RoundRect,0.250000X-0.350000X-0.650000X0.350000X-0.650000X0.350000X0.650000X-0.350000X0.650000X0*%
%ADD45R,1.500000X0.900000*%
%ADD46R,0.900000X1.500000*%
%ADD47C,0.600000*%
%ADD48R,3.900000X3.900000*%
%ADD49RoundRect,0.250000X-0.325000X-0.650000X0.325000X-0.650000X0.325000X0.650000X-0.325000X0.650000X0*%
%ADD50RoundRect,0.250000X-0.450000X-0.800000X0.450000X-0.800000X0.450000X0.800000X-0.450000X0.800000X0*%
%ADD51RoundRect,0.150000X-0.512500X-0.150000X0.512500X-0.150000X0.512500X0.150000X-0.512500X0.150000X0*%
%ADD52R,1.800000X1.800000*%
%ADD53C,1.800000*%
%ADD54RoundRect,0.250000X0.800000X-0.450000X0.800000X0.450000X-0.800000X0.450000X-0.800000X-0.450000X0*%
%ADD55RoundRect,0.160000X-0.740000X-0.240000X0.740000X-0.240000X0.740000X0.240000X-0.740000X0.240000X0*%
G04 APERTURE END LIST*
D10*
X3123810Y-65362295D02*
X2857143Y-64981342D01*
X2666667Y-65362295D02*
X2666667Y-64562295D01*
X2666667Y-64562295D02*
X2971429Y-64562295D01*
X2971429Y-64562295D02*
X3047619Y-64600390D01*
X3047619Y-64600390D02*
X3085714Y-64638485D01*
X3085714Y-64638485D02*
X3123810Y-64714676D01*
X3123810Y-64714676D02*
X3123810Y-64828961D01*
X3123810Y-64828961D02*
X3085714Y-64905152D01*
X3085714Y-64905152D02*
X3047619Y-64943247D01*
X3047619Y-64943247D02*
X2971429Y-64981342D01*
X2971429Y-64981342D02*
X2666667Y-64981342D01*
X3733333Y-64943247D02*
X3466667Y-64943247D01*
X3466667Y-65362295D02*
X3466667Y-64562295D01*
X3466667Y-64562295D02*
X3847619Y-64562295D01*
X4114285Y-64638485D02*
X4152381Y-64600390D01*
X4152381Y-64600390D02*
X4228571Y-64562295D01*
X4228571Y-64562295D02*
X4419047Y-64562295D01*
X4419047Y-64562295D02*
X4495238Y-64600390D01*
X4495238Y-64600390D02*
X4533333Y-64638485D01*
X4533333Y-64638485D02*
X4571428Y-64714676D01*
X4571428Y-64714676D02*
X4571428Y-64790866D01*
X4571428Y-64790866D02*
X4533333Y-64905152D01*
X4533333Y-64905152D02*
X4076190Y-65362295D01*
X4076190Y-65362295D02*
X4571428Y-65362295D01*
X5485714Y-65324200D02*
X5600000Y-65362295D01*
X5600000Y-65362295D02*
X5790476Y-65362295D01*
X5790476Y-65362295D02*
X5866667Y-65324200D01*
X5866667Y-65324200D02*
X5904762Y-65286104D01*
X5904762Y-65286104D02*
X5942857Y-65209914D01*
X5942857Y-65209914D02*
X5942857Y-65133723D01*
X5942857Y-65133723D02*
X5904762Y-65057533D01*
X5904762Y-65057533D02*
X5866667Y-65019438D01*
X5866667Y-65019438D02*
X5790476Y-64981342D01*
X5790476Y-64981342D02*
X5638095Y-64943247D01*
X5638095Y-64943247D02*
X5561905Y-64905152D01*
X5561905Y-64905152D02*
X5523810Y-64867057D01*
X5523810Y-64867057D02*
X5485714Y-64790866D01*
X5485714Y-64790866D02*
X5485714Y-64714676D01*
X5485714Y-64714676D02*
X5523810Y-64638485D01*
X5523810Y-64638485D02*
X5561905Y-64600390D01*
X5561905Y-64600390D02*
X5638095Y-64562295D01*
X5638095Y-64562295D02*
X5828572Y-64562295D01*
X5828572Y-64562295D02*
X5942857Y-64600390D01*
X6285715Y-64562295D02*
X6285715Y-65209914D01*
X6285715Y-65209914D02*
X6323810Y-65286104D01*
X6323810Y-65286104D02*
X6361905Y-65324200D01*
X6361905Y-65324200D02*
X6438096Y-65362295D01*
X6438096Y-65362295D02*
X6590477Y-65362295D01*
X6590477Y-65362295D02*
X6666667Y-65324200D01*
X6666667Y-65324200D02*
X6704762Y-65286104D01*
X6704762Y-65286104D02*
X6742858Y-65209914D01*
X6742858Y-65209914D02*
X6742858Y-64562295D01*
X7390476Y-64943247D02*
X7504762Y-64981342D01*
X7504762Y-64981342D02*
X7542857Y-65019438D01*
X7542857Y-65019438D02*
X7580953Y-65095628D01*
X7580953Y-65095628D02*
X7580953Y-65209914D01*
X7580953Y-65209914D02*
X7542857Y-65286104D01*
X7542857Y-65286104D02*
X7504762Y-65324200D01*
X7504762Y-65324200D02*
X7428572Y-65362295D01*
X7428572Y-65362295D02*
X7123810Y-65362295D01*
X7123810Y-65362295D02*
X7123810Y-64562295D01*
X7123810Y-64562295D02*
X7390476Y-64562295D01*
X7390476Y-64562295D02*
X7466667Y-64600390D01*
X7466667Y-64600390D02*
X7504762Y-64638485D01*
X7504762Y-64638485D02*
X7542857Y-64714676D01*
X7542857Y-64714676D02*
X7542857Y-64790866D01*
X7542857Y-64790866D02*
X7504762Y-64867057D01*
X7504762Y-64867057D02*
X7466667Y-64905152D01*
X7466667Y-64905152D02*
X7390476Y-64943247D01*
X7390476Y-64943247D02*
X7123810Y-64943247D01*
X7923810Y-65057533D02*
X8533334Y-65057533D01*
X9333333Y-64600390D02*
X9257143Y-64562295D01*
X9257143Y-64562295D02*
X9142857Y-64562295D01*
X9142857Y-64562295D02*
X9028571Y-64600390D01*
X9028571Y-64600390D02*
X8952381Y-64676580D01*
X8952381Y-64676580D02*
X8914286Y-64752771D01*
X8914286Y-64752771D02*
X8876190Y-64905152D01*
X8876190Y-64905152D02*
X8876190Y-65019438D01*
X8876190Y-65019438D02*
X8914286Y-65171819D01*
X8914286Y-65171819D02*
X8952381Y-65248009D01*
X8952381Y-65248009D02*
X9028571Y-65324200D01*
X9028571Y-65324200D02*
X9142857Y-65362295D01*
X9142857Y-65362295D02*
X9219048Y-65362295D01*
X9219048Y-65362295D02*
X9333333Y-65324200D01*
X9333333Y-65324200D02*
X9371429Y-65286104D01*
X9371429Y-65286104D02*
X9371429Y-65019438D01*
X9371429Y-65019438D02*
X9219048Y-65019438D01*
X2847618Y-37562295D02*
X2847618Y-38133723D01*
X2847618Y-38133723D02*
X2809523Y-38248009D01*
X2809523Y-38248009D02*
X2733332Y-38324200D01*
X2733332Y-38324200D02*
X2619047Y-38362295D01*
X2619047Y-38362295D02*
X2542856Y-38362295D01*
X3609523Y-37562295D02*
X3228571Y-37562295D01*
X3228571Y-37562295D02*
X3190475Y-37943247D01*
X3190475Y-37943247D02*
X3228571Y-37905152D01*
X3228571Y-37905152D02*
X3304761Y-37867057D01*
X3304761Y-37867057D02*
X3495237Y-37867057D01*
X3495237Y-37867057D02*
X3571428Y-37905152D01*
X3571428Y-37905152D02*
X3609523Y-37943247D01*
X3609523Y-37943247D02*
X3647618Y-38019438D01*
X3647618Y-38019438D02*
X3647618Y-38209914D01*
X3647618Y-38209914D02*
X3609523Y-38286104D01*
X3609523Y-38286104D02*
X3571428Y-38324200D01*
X3571428Y-38324200D02*
X3495237Y-38362295D01*
X3495237Y-38362295D02*
X3304761Y-38362295D01*
X3304761Y-38362295D02*
X3228571Y-38324200D01*
X3228571Y-38324200D02*
X3190475Y-38286104D01*
X4561904Y-38324200D02*
X4676190Y-38362295D01*
X4676190Y-38362295D02*
X4866666Y-38362295D01*
X4866666Y-38362295D02*
X4942857Y-38324200D01*
X4942857Y-38324200D02*
X4980952Y-38286104D01*
X4980952Y-38286104D02*
X5019047Y-38209914D01*
X5019047Y-38209914D02*
X5019047Y-38133723D01*
X5019047Y-38133723D02*
X4980952Y-38057533D01*
X4980952Y-38057533D02*
X4942857Y-38019438D01*
X4942857Y-38019438D02*
X4866666Y-37981342D01*
X4866666Y-37981342D02*
X4714285Y-37943247D01*
X4714285Y-37943247D02*
X4638095Y-37905152D01*
X4638095Y-37905152D02*
X4600000Y-37867057D01*
X4600000Y-37867057D02*
X4561904Y-37790866D01*
X4561904Y-37790866D02*
X4561904Y-37714676D01*
X4561904Y-37714676D02*
X4600000Y-37638485D01*
X4600000Y-37638485D02*
X4638095Y-37600390D01*
X4638095Y-37600390D02*
X4714285Y-37562295D01*
X4714285Y-37562295D02*
X4904762Y-37562295D01*
X4904762Y-37562295D02*
X5019047Y-37600390D01*
X5361905Y-37562295D02*
X5361905Y-38209914D01*
X5361905Y-38209914D02*
X5400000Y-38286104D01*
X5400000Y-38286104D02*
X5438095Y-38324200D01*
X5438095Y-38324200D02*
X5514286Y-38362295D01*
X5514286Y-38362295D02*
X5666667Y-38362295D01*
X5666667Y-38362295D02*
X5742857Y-38324200D01*
X5742857Y-38324200D02*
X5780952Y-38286104D01*
X5780952Y-38286104D02*
X5819048Y-38209914D01*
X5819048Y-38209914D02*
X5819048Y-37562295D01*
X6466666Y-37943247D02*
X6580952Y-37981342D01*
X6580952Y-37981342D02*
X6619047Y-38019438D01*
X6619047Y-38019438D02*
X6657143Y-38095628D01*
X6657143Y-38095628D02*
X6657143Y-38209914D01*
X6657143Y-38209914D02*
X6619047Y-38286104D01*
X6619047Y-38286104D02*
X6580952Y-38324200D01*
X6580952Y-38324200D02*
X6504762Y-38362295D01*
X6504762Y-38362295D02*
X6200000Y-38362295D01*
X6200000Y-38362295D02*
X6200000Y-37562295D01*
X6200000Y-37562295D02*
X6466666Y-37562295D01*
X6466666Y-37562295D02*
X6542857Y-37600390D01*
X6542857Y-37600390D02*
X6580952Y-37638485D01*
X6580952Y-37638485D02*
X6619047Y-37714676D01*
X6619047Y-37714676D02*
X6619047Y-37790866D01*
X6619047Y-37790866D02*
X6580952Y-37867057D01*
X6580952Y-37867057D02*
X6542857Y-37905152D01*
X6542857Y-37905152D02*
X6466666Y-37943247D01*
X6466666Y-37943247D02*
X6200000Y-37943247D01*
X7000000Y-38057533D02*
X7609524Y-38057533D01*
X8409523Y-37600390D02*
X8333333Y-37562295D01*
X8333333Y-37562295D02*
X8219047Y-37562295D01*
X8219047Y-37562295D02*
X8104761Y-37600390D01*
X8104761Y-37600390D02*
X8028571Y-37676580D01*
X8028571Y-37676580D02*
X7990476Y-37752771D01*
X7990476Y-37752771D02*
X7952380Y-37905152D01*
X7952380Y-37905152D02*
X7952380Y-38019438D01*
X7952380Y-38019438D02*
X7990476Y-38171819D01*
X7990476Y-38171819D02*
X8028571Y-38248009D01*
X8028571Y-38248009D02*
X8104761Y-38324200D01*
X8104761Y-38324200D02*
X8219047Y-38362295D01*
X8219047Y-38362295D02*
X8295238Y-38362295D01*
X8295238Y-38362295D02*
X8409523Y-38324200D01*
X8409523Y-38324200D02*
X8447619Y-38286104D01*
X8447619Y-38286104D02*
X8447619Y-38019438D01*
X8447619Y-38019438D02*
X8295238Y-38019438D01*
X9361904Y-38324200D02*
X9476190Y-38362295D01*
X9476190Y-38362295D02*
X9666666Y-38362295D01*
X9666666Y-38362295D02*
X9742857Y-38324200D01*
X9742857Y-38324200D02*
X9780952Y-38286104D01*
X9780952Y-38286104D02*
X9819047Y-38209914D01*
X9819047Y-38209914D02*
X9819047Y-38133723D01*
X9819047Y-38133723D02*
X9780952Y-38057533D01*
X9780952Y-38057533D02*
X9742857Y-38019438D01*
X9742857Y-38019438D02*
X9666666Y-37981342D01*
X9666666Y-37981342D02*
X9514285Y-37943247D01*
X9514285Y-37943247D02*
X9438095Y-37905152D01*
X9438095Y-37905152D02*
X9400000Y-37867057D01*
X9400000Y-37867057D02*
X9361904Y-37790866D01*
X9361904Y-37790866D02*
X9361904Y-37714676D01*
X9361904Y-37714676D02*
X9400000Y-37638485D01*
X9400000Y-37638485D02*
X9438095Y-37600390D01*
X9438095Y-37600390D02*
X9514285Y-37562295D01*
X9514285Y-37562295D02*
X9704762Y-37562295D01*
X9704762Y-37562295D02*
X9819047Y-37600390D01*
X10161905Y-38362295D02*
X10161905Y-37562295D01*
X10161905Y-37562295D02*
X10428571Y-38133723D01*
X10428571Y-38133723D02*
X10695238Y-37562295D01*
X10695238Y-37562295D02*
X10695238Y-38362295D01*
X11038095Y-38133723D02*
X11419048Y-38133723D01*
X10961905Y-38362295D02*
X11228572Y-37562295D01*
X11228572Y-37562295D02*
X11495238Y-38362295D01*
X16047618Y-7100390D02*
X15971428Y-7062295D01*
X15971428Y-7062295D02*
X15857142Y-7062295D01*
X15857142Y-7062295D02*
X15742856Y-7100390D01*
X15742856Y-7100390D02*
X15666666Y-7176580D01*
X15666666Y-7176580D02*
X15628571Y-7252771D01*
X15628571Y-7252771D02*
X15590475Y-7405152D01*
X15590475Y-7405152D02*
X15590475Y-7519438D01*
X15590475Y-7519438D02*
X15628571Y-7671819D01*
X15628571Y-7671819D02*
X15666666Y-7748009D01*
X15666666Y-7748009D02*
X15742856Y-7824200D01*
X15742856Y-7824200D02*
X15857142Y-7862295D01*
X15857142Y-7862295D02*
X15933333Y-7862295D01*
X15933333Y-7862295D02*
X16047618Y-7824200D01*
X16047618Y-7824200D02*
X16085714Y-7786104D01*
X16085714Y-7786104D02*
X16085714Y-7519438D01*
X16085714Y-7519438D02*
X15933333Y-7519438D01*
X16428571Y-7862295D02*
X16428571Y-7062295D01*
X16428571Y-7062295D02*
X16733333Y-7062295D01*
X16733333Y-7062295D02*
X16809523Y-7100390D01*
X16809523Y-7100390D02*
X16847618Y-7138485D01*
X16847618Y-7138485D02*
X16885714Y-7214676D01*
X16885714Y-7214676D02*
X16885714Y-7328961D01*
X16885714Y-7328961D02*
X16847618Y-7405152D01*
X16847618Y-7405152D02*
X16809523Y-7443247D01*
X16809523Y-7443247D02*
X16733333Y-7481342D01*
X16733333Y-7481342D02*
X16428571Y-7481342D01*
X17190475Y-7824200D02*
X17304761Y-7862295D01*
X17304761Y-7862295D02*
X17495237Y-7862295D01*
X17495237Y-7862295D02*
X17571428Y-7824200D01*
X17571428Y-7824200D02*
X17609523Y-7786104D01*
X17609523Y-7786104D02*
X17647618Y-7709914D01*
X17647618Y-7709914D02*
X17647618Y-7633723D01*
X17647618Y-7633723D02*
X17609523Y-7557533D01*
X17609523Y-7557533D02*
X17571428Y-7519438D01*
X17571428Y-7519438D02*
X17495237Y-7481342D01*
X17495237Y-7481342D02*
X17342856Y-7443247D01*
X17342856Y-7443247D02*
X17266666Y-7405152D01*
X17266666Y-7405152D02*
X17228571Y-7367057D01*
X17228571Y-7367057D02*
X17190475Y-7290866D01*
X17190475Y-7290866D02*
X17190475Y-7214676D01*
X17190475Y-7214676D02*
X17228571Y-7138485D01*
X17228571Y-7138485D02*
X17266666Y-7100390D01*
X17266666Y-7100390D02*
X17342856Y-7062295D01*
X17342856Y-7062295D02*
X17533333Y-7062295D01*
X17533333Y-7062295D02*
X17647618Y-7100390D01*
X18409523Y-7862295D02*
X17952380Y-7862295D01*
X18180952Y-7862295D02*
X18180952Y-7062295D01*
X18180952Y-7062295D02*
X18104761Y-7176580D01*
X18104761Y-7176580D02*
X18028571Y-7252771D01*
X18028571Y-7252771D02*
X17952380Y-7290866D01*
X18228571Y-74762295D02*
X18228571Y-75333723D01*
X18228571Y-75333723D02*
X18190476Y-75448009D01*
X18190476Y-75448009D02*
X18114285Y-75524200D01*
X18114285Y-75524200D02*
X18000000Y-75562295D01*
X18000000Y-75562295D02*
X17923809Y-75562295D01*
X19028571Y-75562295D02*
X18571428Y-75562295D01*
X18800000Y-75562295D02*
X18800000Y-74762295D01*
X18800000Y-74762295D02*
X18723809Y-74876580D01*
X18723809Y-74876580D02*
X18647619Y-74952771D01*
X18647619Y-74952771D02*
X18571428Y-74990866D01*
X19980953Y-74762295D02*
X19980953Y-75409914D01*
X19980953Y-75409914D02*
X20019048Y-75486104D01*
X20019048Y-75486104D02*
X20057143Y-75524200D01*
X20057143Y-75524200D02*
X20133334Y-75562295D01*
X20133334Y-75562295D02*
X20285715Y-75562295D01*
X20285715Y-75562295D02*
X20361905Y-75524200D01*
X20361905Y-75524200D02*
X20400000Y-75486104D01*
X20400000Y-75486104D02*
X20438096Y-75409914D01*
X20438096Y-75409914D02*
X20438096Y-74762295D01*
X20780952Y-75524200D02*
X20895238Y-75562295D01*
X20895238Y-75562295D02*
X21085714Y-75562295D01*
X21085714Y-75562295D02*
X21161905Y-75524200D01*
X21161905Y-75524200D02*
X21200000Y-75486104D01*
X21200000Y-75486104D02*
X21238095Y-75409914D01*
X21238095Y-75409914D02*
X21238095Y-75333723D01*
X21238095Y-75333723D02*
X21200000Y-75257533D01*
X21200000Y-75257533D02*
X21161905Y-75219438D01*
X21161905Y-75219438D02*
X21085714Y-75181342D01*
X21085714Y-75181342D02*
X20933333Y-75143247D01*
X20933333Y-75143247D02*
X20857143Y-75105152D01*
X20857143Y-75105152D02*
X20819048Y-75067057D01*
X20819048Y-75067057D02*
X20780952Y-74990866D01*
X20780952Y-74990866D02*
X20780952Y-74914676D01*
X20780952Y-74914676D02*
X20819048Y-74838485D01*
X20819048Y-74838485D02*
X20857143Y-74800390D01*
X20857143Y-74800390D02*
X20933333Y-74762295D01*
X20933333Y-74762295D02*
X21123810Y-74762295D01*
X21123810Y-74762295D02*
X21238095Y-74800390D01*
X21847619Y-75143247D02*
X21961905Y-75181342D01*
X21961905Y-75181342D02*
X22000000Y-75219438D01*
X22000000Y-75219438D02*
X22038096Y-75295628D01*
X22038096Y-75295628D02*
X22038096Y-75409914D01*
X22038096Y-75409914D02*
X22000000Y-75486104D01*
X22000000Y-75486104D02*
X21961905Y-75524200D01*
X21961905Y-75524200D02*
X21885715Y-75562295D01*
X21885715Y-75562295D02*
X21580953Y-75562295D01*
X21580953Y-75562295D02*
X21580953Y-74762295D01*
X21580953Y-74762295D02*
X21847619Y-74762295D01*
X21847619Y-74762295D02*
X21923810Y-74800390D01*
X21923810Y-74800390D02*
X21961905Y-74838485D01*
X21961905Y-74838485D02*
X22000000Y-74914676D01*
X22000000Y-74914676D02*
X22000000Y-74990866D01*
X22000000Y-74990866D02*
X21961905Y-75067057D01*
X21961905Y-75067057D02*
X21923810Y-75105152D01*
X21923810Y-75105152D02*
X21847619Y-75143247D01*
X21847619Y-75143247D02*
X21580953Y-75143247D01*
X80838095Y-76662295D02*
X80571428Y-76281342D01*
X80380952Y-76662295D02*
X80380952Y-75862295D01*
X80380952Y-75862295D02*
X80685714Y-75862295D01*
X80685714Y-75862295D02*
X80761904Y-75900390D01*
X80761904Y-75900390D02*
X80799999Y-75938485D01*
X80799999Y-75938485D02*
X80838095Y-76014676D01*
X80838095Y-76014676D02*
X80838095Y-76128961D01*
X80838095Y-76128961D02*
X80799999Y-76205152D01*
X80799999Y-76205152D02*
X80761904Y-76243247D01*
X80761904Y-76243247D02*
X80685714Y-76281342D01*
X80685714Y-76281342D02*
X80380952Y-76281342D01*
X81180952Y-76243247D02*
X81447618Y-76243247D01*
X81561904Y-76662295D02*
X81180952Y-76662295D01*
X81180952Y-76662295D02*
X81180952Y-75862295D01*
X81180952Y-75862295D02*
X81561904Y-75862295D01*
X81866666Y-76624200D02*
X81980952Y-76662295D01*
X81980952Y-76662295D02*
X82171428Y-76662295D01*
X82171428Y-76662295D02*
X82247619Y-76624200D01*
X82247619Y-76624200D02*
X82285714Y-76586104D01*
X82285714Y-76586104D02*
X82323809Y-76509914D01*
X82323809Y-76509914D02*
X82323809Y-76433723D01*
X82323809Y-76433723D02*
X82285714Y-76357533D01*
X82285714Y-76357533D02*
X82247619Y-76319438D01*
X82247619Y-76319438D02*
X82171428Y-76281342D01*
X82171428Y-76281342D02*
X82019047Y-76243247D01*
X82019047Y-76243247D02*
X81942857Y-76205152D01*
X81942857Y-76205152D02*
X81904762Y-76167057D01*
X81904762Y-76167057D02*
X81866666Y-76090866D01*
X81866666Y-76090866D02*
X81866666Y-76014676D01*
X81866666Y-76014676D02*
X81904762Y-75938485D01*
X81904762Y-75938485D02*
X81942857Y-75900390D01*
X81942857Y-75900390D02*
X82019047Y-75862295D01*
X82019047Y-75862295D02*
X82209524Y-75862295D01*
X82209524Y-75862295D02*
X82323809Y-75900390D01*
X82666667Y-76243247D02*
X82933333Y-76243247D01*
X83047619Y-76662295D02*
X82666667Y-76662295D01*
X82666667Y-76662295D02*
X82666667Y-75862295D01*
X82666667Y-75862295D02*
X83047619Y-75862295D01*
X83276191Y-75862295D02*
X83733334Y-75862295D01*
X83504762Y-76662295D02*
X83504762Y-75862295D01*
X91914285Y-76243247D02*
X92028571Y-76281342D01*
X92028571Y-76281342D02*
X92066666Y-76319438D01*
X92066666Y-76319438D02*
X92104762Y-76395628D01*
X92104762Y-76395628D02*
X92104762Y-76509914D01*
X92104762Y-76509914D02*
X92066666Y-76586104D01*
X92066666Y-76586104D02*
X92028571Y-76624200D01*
X92028571Y-76624200D02*
X91952381Y-76662295D01*
X91952381Y-76662295D02*
X91647619Y-76662295D01*
X91647619Y-76662295D02*
X91647619Y-75862295D01*
X91647619Y-75862295D02*
X91914285Y-75862295D01*
X91914285Y-75862295D02*
X91990476Y-75900390D01*
X91990476Y-75900390D02*
X92028571Y-75938485D01*
X92028571Y-75938485D02*
X92066666Y-76014676D01*
X92066666Y-76014676D02*
X92066666Y-76090866D01*
X92066666Y-76090866D02*
X92028571Y-76167057D01*
X92028571Y-76167057D02*
X91990476Y-76205152D01*
X91990476Y-76205152D02*
X91914285Y-76243247D01*
X91914285Y-76243247D02*
X91647619Y-76243247D01*
X92600000Y-75862295D02*
X92752381Y-75862295D01*
X92752381Y-75862295D02*
X92828571Y-75900390D01*
X92828571Y-75900390D02*
X92904762Y-75976580D01*
X92904762Y-75976580D02*
X92942857Y-76128961D01*
X92942857Y-76128961D02*
X92942857Y-76395628D01*
X92942857Y-76395628D02*
X92904762Y-76548009D01*
X92904762Y-76548009D02*
X92828571Y-76624200D01*
X92828571Y-76624200D02*
X92752381Y-76662295D01*
X92752381Y-76662295D02*
X92600000Y-76662295D01*
X92600000Y-76662295D02*
X92523809Y-76624200D01*
X92523809Y-76624200D02*
X92447619Y-76548009D01*
X92447619Y-76548009D02*
X92409523Y-76395628D01*
X92409523Y-76395628D02*
X92409523Y-76128961D01*
X92409523Y-76128961D02*
X92447619Y-75976580D01*
X92447619Y-75976580D02*
X92523809Y-75900390D01*
X92523809Y-75900390D02*
X92600000Y-75862295D01*
X93438095Y-75862295D02*
X93590476Y-75862295D01*
X93590476Y-75862295D02*
X93666666Y-75900390D01*
X93666666Y-75900390D02*
X93742857Y-75976580D01*
X93742857Y-75976580D02*
X93780952Y-76128961D01*
X93780952Y-76128961D02*
X93780952Y-76395628D01*
X93780952Y-76395628D02*
X93742857Y-76548009D01*
X93742857Y-76548009D02*
X93666666Y-76624200D01*
X93666666Y-76624200D02*
X93590476Y-76662295D01*
X93590476Y-76662295D02*
X93438095Y-76662295D01*
X93438095Y-76662295D02*
X93361904Y-76624200D01*
X93361904Y-76624200D02*
X93285714Y-76548009D01*
X93285714Y-76548009D02*
X93247618Y-76395628D01*
X93247618Y-76395628D02*
X93247618Y-76128961D01*
X93247618Y-76128961D02*
X93285714Y-75976580D01*
X93285714Y-75976580D02*
X93361904Y-75900390D01*
X93361904Y-75900390D02*
X93438095Y-75862295D01*
X94009523Y-75862295D02*
X94466666Y-75862295D01*
X94238094Y-76662295D02*
X94238094Y-75862295D01*
X102628571Y-75862295D02*
X102628571Y-76509914D01*
X102628571Y-76509914D02*
X102666666Y-76586104D01*
X102666666Y-76586104D02*
X102704761Y-76624200D01*
X102704761Y-76624200D02*
X102780952Y-76662295D01*
X102780952Y-76662295D02*
X102933333Y-76662295D01*
X102933333Y-76662295D02*
X103009523Y-76624200D01*
X103009523Y-76624200D02*
X103047618Y-76586104D01*
X103047618Y-76586104D02*
X103085714Y-76509914D01*
X103085714Y-76509914D02*
X103085714Y-75862295D01*
X103428570Y-76624200D02*
X103542856Y-76662295D01*
X103542856Y-76662295D02*
X103733332Y-76662295D01*
X103733332Y-76662295D02*
X103809523Y-76624200D01*
X103809523Y-76624200D02*
X103847618Y-76586104D01*
X103847618Y-76586104D02*
X103885713Y-76509914D01*
X103885713Y-76509914D02*
X103885713Y-76433723D01*
X103885713Y-76433723D02*
X103847618Y-76357533D01*
X103847618Y-76357533D02*
X103809523Y-76319438D01*
X103809523Y-76319438D02*
X103733332Y-76281342D01*
X103733332Y-76281342D02*
X103580951Y-76243247D01*
X103580951Y-76243247D02*
X103504761Y-76205152D01*
X103504761Y-76205152D02*
X103466666Y-76167057D01*
X103466666Y-76167057D02*
X103428570Y-76090866D01*
X103428570Y-76090866D02*
X103428570Y-76014676D01*
X103428570Y-76014676D02*
X103466666Y-75938485D01*
X103466666Y-75938485D02*
X103504761Y-75900390D01*
X103504761Y-75900390D02*
X103580951Y-75862295D01*
X103580951Y-75862295D02*
X103771428Y-75862295D01*
X103771428Y-75862295D02*
X103885713Y-75900390D01*
X104228571Y-76243247D02*
X104495237Y-76243247D01*
X104609523Y-76662295D02*
X104228571Y-76662295D01*
X104228571Y-76662295D02*
X104228571Y-75862295D01*
X104228571Y-75862295D02*
X104609523Y-75862295D01*
X105409524Y-76662295D02*
X105142857Y-76281342D01*
X104952381Y-76662295D02*
X104952381Y-75862295D01*
X104952381Y-75862295D02*
X105257143Y-75862295D01*
X105257143Y-75862295D02*
X105333333Y-75900390D01*
X105333333Y-75900390D02*
X105371428Y-75938485D01*
X105371428Y-75938485D02*
X105409524Y-76014676D01*
X105409524Y-76014676D02*
X105409524Y-76128961D01*
X105409524Y-76128961D02*
X105371428Y-76205152D01*
X105371428Y-76205152D02*
X105333333Y-76243247D01*
X105333333Y-76243247D02*
X105257143Y-76281342D01*
X105257143Y-76281342D02*
X104952381Y-76281342D01*
X103866667Y-47362295D02*
X103600000Y-46981342D01*
X103409524Y-47362295D02*
X103409524Y-46562295D01*
X103409524Y-46562295D02*
X103714286Y-46562295D01*
X103714286Y-46562295D02*
X103790476Y-46600390D01*
X103790476Y-46600390D02*
X103828571Y-46638485D01*
X103828571Y-46638485D02*
X103866667Y-46714676D01*
X103866667Y-46714676D02*
X103866667Y-46828961D01*
X103866667Y-46828961D02*
X103828571Y-46905152D01*
X103828571Y-46905152D02*
X103790476Y-46943247D01*
X103790476Y-46943247D02*
X103714286Y-46981342D01*
X103714286Y-46981342D02*
X103409524Y-46981342D01*
X104476190Y-46943247D02*
X104209524Y-46943247D01*
X104209524Y-47362295D02*
X104209524Y-46562295D01*
X104209524Y-46562295D02*
X104590476Y-46562295D01*
X105314285Y-47362295D02*
X104857142Y-47362295D01*
X105085714Y-47362295D02*
X105085714Y-46562295D01*
X105085714Y-46562295D02*
X105009523Y-46676580D01*
X105009523Y-46676580D02*
X104933333Y-46752771D01*
X104933333Y-46752771D02*
X104857142Y-46790866D01*
X106228571Y-46638485D02*
X106266667Y-46600390D01*
X106266667Y-46600390D02*
X106342857Y-46562295D01*
X106342857Y-46562295D02*
X106533333Y-46562295D01*
X106533333Y-46562295D02*
X106609524Y-46600390D01*
X106609524Y-46600390D02*
X106647619Y-46638485D01*
X106647619Y-46638485D02*
X106685714Y-46714676D01*
X106685714Y-46714676D02*
X106685714Y-46790866D01*
X106685714Y-46790866D02*
X106647619Y-46905152D01*
X106647619Y-46905152D02*
X106190476Y-47362295D01*
X106190476Y-47362295D02*
X106685714Y-47362295D01*
X107028572Y-47286104D02*
X107066667Y-47324200D01*
X107066667Y-47324200D02*
X107028572Y-47362295D01*
X107028572Y-47362295D02*
X106990476Y-47324200D01*
X106990476Y-47324200D02*
X107028572Y-47286104D01*
X107028572Y-47286104D02*
X107028572Y-47362295D01*
X107752381Y-46828961D02*
X107752381Y-47362295D01*
X107561905Y-46524200D02*
X107371428Y-47095628D01*
X107371428Y-47095628D02*
X107866667Y-47095628D01*
X108590476Y-46600390D02*
X108514286Y-46562295D01*
X108514286Y-46562295D02*
X108400000Y-46562295D01*
X108400000Y-46562295D02*
X108285714Y-46600390D01*
X108285714Y-46600390D02*
X108209524Y-46676580D01*
X108209524Y-46676580D02*
X108171429Y-46752771D01*
X108171429Y-46752771D02*
X108133333Y-46905152D01*
X108133333Y-46905152D02*
X108133333Y-47019438D01*
X108133333Y-47019438D02*
X108171429Y-47171819D01*
X108171429Y-47171819D02*
X108209524Y-47248009D01*
X108209524Y-47248009D02*
X108285714Y-47324200D01*
X108285714Y-47324200D02*
X108400000Y-47362295D01*
X108400000Y-47362295D02*
X108476191Y-47362295D01*
X108476191Y-47362295D02*
X108590476Y-47324200D01*
X108590476Y-47324200D02*
X108628572Y-47286104D01*
X108628572Y-47286104D02*
X108628572Y-47019438D01*
X108628572Y-47019438D02*
X108476191Y-47019438D01*
X114647618Y-58562295D02*
X114647618Y-59133723D01*
X114647618Y-59133723D02*
X114609523Y-59248009D01*
X114609523Y-59248009D02*
X114533332Y-59324200D01*
X114533332Y-59324200D02*
X114419047Y-59362295D01*
X114419047Y-59362295D02*
X114342856Y-59362295D01*
X114990475Y-58638485D02*
X115028571Y-58600390D01*
X115028571Y-58600390D02*
X115104761Y-58562295D01*
X115104761Y-58562295D02*
X115295237Y-58562295D01*
X115295237Y-58562295D02*
X115371428Y-58600390D01*
X115371428Y-58600390D02*
X115409523Y-58638485D01*
X115409523Y-58638485D02*
X115447618Y-58714676D01*
X115447618Y-58714676D02*
X115447618Y-58790866D01*
X115447618Y-58790866D02*
X115409523Y-58905152D01*
X115409523Y-58905152D02*
X114952380Y-59362295D01*
X114952380Y-59362295D02*
X115447618Y-59362295D01*
X116361904Y-59324200D02*
X116476190Y-59362295D01*
X116476190Y-59362295D02*
X116666666Y-59362295D01*
X116666666Y-59362295D02*
X116742857Y-59324200D01*
X116742857Y-59324200D02*
X116780952Y-59286104D01*
X116780952Y-59286104D02*
X116819047Y-59209914D01*
X116819047Y-59209914D02*
X116819047Y-59133723D01*
X116819047Y-59133723D02*
X116780952Y-59057533D01*
X116780952Y-59057533D02*
X116742857Y-59019438D01*
X116742857Y-59019438D02*
X116666666Y-58981342D01*
X116666666Y-58981342D02*
X116514285Y-58943247D01*
X116514285Y-58943247D02*
X116438095Y-58905152D01*
X116438095Y-58905152D02*
X116400000Y-58867057D01*
X116400000Y-58867057D02*
X116361904Y-58790866D01*
X116361904Y-58790866D02*
X116361904Y-58714676D01*
X116361904Y-58714676D02*
X116400000Y-58638485D01*
X116400000Y-58638485D02*
X116438095Y-58600390D01*
X116438095Y-58600390D02*
X116514285Y-58562295D01*
X116514285Y-58562295D02*
X116704762Y-58562295D01*
X116704762Y-58562295D02*
X116819047Y-58600390D01*
X117161905Y-59362295D02*
X117161905Y-58562295D01*
X117161905Y-58562295D02*
X117352381Y-58562295D01*
X117352381Y-58562295D02*
X117466667Y-58600390D01*
X117466667Y-58600390D02*
X117542857Y-58676580D01*
X117542857Y-58676580D02*
X117580952Y-58752771D01*
X117580952Y-58752771D02*
X117619048Y-58905152D01*
X117619048Y-58905152D02*
X117619048Y-59019438D01*
X117619048Y-59019438D02*
X117580952Y-59171819D01*
X117580952Y-59171819D02*
X117542857Y-59248009D01*
X117542857Y-59248009D02*
X117466667Y-59324200D01*
X117466667Y-59324200D02*
X117352381Y-59362295D01*
X117352381Y-59362295D02*
X117161905Y-59362295D01*
X54235714Y-5408557D02*
X54235714Y-4508557D01*
X54235714Y-4508557D02*
X54578571Y-4508557D01*
X54578571Y-4508557D02*
X54664286Y-4551414D01*
X54664286Y-4551414D02*
X54707143Y-4594271D01*
X54707143Y-4594271D02*
X54750000Y-4679985D01*
X54750000Y-4679985D02*
X54750000Y-4808557D01*
X54750000Y-4808557D02*
X54707143Y-4894271D01*
X54707143Y-4894271D02*
X54664286Y-4937128D01*
X54664286Y-4937128D02*
X54578571Y-4979985D01*
X54578571Y-4979985D02*
X54235714Y-4979985D01*
X55092857Y-5151414D02*
X55521429Y-5151414D01*
X55007143Y-5408557D02*
X55307143Y-4508557D01*
X55307143Y-4508557D02*
X55607143Y-5408557D01*
X55864286Y-5365700D02*
X55992858Y-5408557D01*
X55992858Y-5408557D02*
X56207143Y-5408557D01*
X56207143Y-5408557D02*
X56292858Y-5365700D01*
X56292858Y-5365700D02*
X56335715Y-5322842D01*
X56335715Y-5322842D02*
X56378572Y-5237128D01*
X56378572Y-5237128D02*
X56378572Y-5151414D01*
X56378572Y-5151414D02*
X56335715Y-5065700D01*
X56335715Y-5065700D02*
X56292858Y-5022842D01*
X56292858Y-5022842D02*
X56207143Y-4979985D01*
X56207143Y-4979985D02*
X56035715Y-4937128D01*
X56035715Y-4937128D02*
X55950000Y-4894271D01*
X55950000Y-4894271D02*
X55907143Y-4851414D01*
X55907143Y-4851414D02*
X55864286Y-4765700D01*
X55864286Y-4765700D02*
X55864286Y-4679985D01*
X55864286Y-4679985D02*
X55907143Y-4594271D01*
X55907143Y-4594271D02*
X55950000Y-4551414D01*
X55950000Y-4551414D02*
X56035715Y-4508557D01*
X56035715Y-4508557D02*
X56250000Y-4508557D01*
X56250000Y-4508557D02*
X56378572Y-4551414D01*
X56721429Y-5365700D02*
X56850001Y-5408557D01*
X56850001Y-5408557D02*
X57064286Y-5408557D01*
X57064286Y-5408557D02*
X57150001Y-5365700D01*
X57150001Y-5365700D02*
X57192858Y-5322842D01*
X57192858Y-5322842D02*
X57235715Y-5237128D01*
X57235715Y-5237128D02*
X57235715Y-5151414D01*
X57235715Y-5151414D02*
X57192858Y-5065700D01*
X57192858Y-5065700D02*
X57150001Y-5022842D01*
X57150001Y-5022842D02*
X57064286Y-4979985D01*
X57064286Y-4979985D02*
X56892858Y-4937128D01*
X56892858Y-4937128D02*
X56807143Y-4894271D01*
X56807143Y-4894271D02*
X56764286Y-4851414D01*
X56764286Y-4851414D02*
X56721429Y-4765700D01*
X56721429Y-4765700D02*
X56721429Y-4679985D01*
X56721429Y-4679985D02*
X56764286Y-4594271D01*
X56764286Y-4594271D02*
X56807143Y-4551414D01*
X56807143Y-4551414D02*
X56892858Y-4508557D01*
X56892858Y-4508557D02*
X57107143Y-4508557D01*
X57107143Y-4508557D02*
X57235715Y-4551414D01*
X57621429Y-5408557D02*
X57621429Y-4508557D01*
X57921429Y-4508557D02*
X58221429Y-5408557D01*
X58221429Y-5408557D02*
X58521429Y-4508557D01*
X58821429Y-4937128D02*
X59121429Y-4937128D01*
X59250001Y-5408557D02*
X58821429Y-5408557D01*
X58821429Y-5408557D02*
X58821429Y-4508557D01*
X58821429Y-4508557D02*
X59250001Y-4508557D01*
X60321429Y-5408557D02*
X60321429Y-4508557D01*
X60321429Y-4508557D02*
X60621429Y-5151414D01*
X60621429Y-5151414D02*
X60921429Y-4508557D01*
X60921429Y-4508557D02*
X60921429Y-5408557D01*
X61521429Y-4508557D02*
X61692857Y-4508557D01*
X61692857Y-4508557D02*
X61778572Y-4551414D01*
X61778572Y-4551414D02*
X61864286Y-4637128D01*
X61864286Y-4637128D02*
X61907143Y-4808557D01*
X61907143Y-4808557D02*
X61907143Y-5108557D01*
X61907143Y-5108557D02*
X61864286Y-5279985D01*
X61864286Y-5279985D02*
X61778572Y-5365700D01*
X61778572Y-5365700D02*
X61692857Y-5408557D01*
X61692857Y-5408557D02*
X61521429Y-5408557D01*
X61521429Y-5408557D02*
X61435715Y-5365700D01*
X61435715Y-5365700D02*
X61350000Y-5279985D01*
X61350000Y-5279985D02*
X61307143Y-5108557D01*
X61307143Y-5108557D02*
X61307143Y-4808557D01*
X61307143Y-4808557D02*
X61350000Y-4637128D01*
X61350000Y-4637128D02*
X61435715Y-4551414D01*
X61435715Y-4551414D02*
X61521429Y-4508557D01*
X62292857Y-5408557D02*
X62292857Y-4508557D01*
X62292857Y-4508557D02*
X62807143Y-5408557D01*
X62807143Y-5408557D02*
X62807143Y-4508557D01*
X63235714Y-5408557D02*
X63235714Y-4508557D01*
X63535714Y-4508557D02*
X64050000Y-4508557D01*
X63792857Y-5408557D02*
X63792857Y-4508557D01*
X64521428Y-4508557D02*
X64692856Y-4508557D01*
X64692856Y-4508557D02*
X64778571Y-4551414D01*
X64778571Y-4551414D02*
X64864285Y-4637128D01*
X64864285Y-4637128D02*
X64907142Y-4808557D01*
X64907142Y-4808557D02*
X64907142Y-5108557D01*
X64907142Y-5108557D02*
X64864285Y-5279985D01*
X64864285Y-5279985D02*
X64778571Y-5365700D01*
X64778571Y-5365700D02*
X64692856Y-5408557D01*
X64692856Y-5408557D02*
X64521428Y-5408557D01*
X64521428Y-5408557D02*
X64435714Y-5365700D01*
X64435714Y-5365700D02*
X64349999Y-5279985D01*
X64349999Y-5279985D02*
X64307142Y-5108557D01*
X64307142Y-5108557D02*
X64307142Y-4808557D01*
X64307142Y-4808557D02*
X64349999Y-4637128D01*
X64349999Y-4637128D02*
X64435714Y-4551414D01*
X64435714Y-4551414D02*
X64521428Y-4508557D01*
X65807142Y-5408557D02*
X65507142Y-4979985D01*
X65292856Y-5408557D02*
X65292856Y-4508557D01*
X65292856Y-4508557D02*
X65635713Y-4508557D01*
X65635713Y-4508557D02*
X65721428Y-4551414D01*
X65721428Y-4551414D02*
X65764285Y-4594271D01*
X65764285Y-4594271D02*
X65807142Y-4679985D01*
X65807142Y-4679985D02*
X65807142Y-4808557D01*
X65807142Y-4808557D02*
X65764285Y-4894271D01*
X65764285Y-4894271D02*
X65721428Y-4937128D01*
X65721428Y-4937128D02*
X65635713Y-4979985D01*
X65635713Y-4979985D02*
X65292856Y-4979985D01*
X47357142Y-3454819D02*
X47357142Y-2454819D01*
X47357142Y-2454819D02*
X47738094Y-2454819D01*
X47738094Y-2454819D02*
X47833332Y-2502438D01*
X47833332Y-2502438D02*
X47880951Y-2550057D01*
X47880951Y-2550057D02*
X47928570Y-2645295D01*
X47928570Y-2645295D02*
X47928570Y-2788152D01*
X47928570Y-2788152D02*
X47880951Y-2883390D01*
X47880951Y-2883390D02*
X47833332Y-2931009D01*
X47833332Y-2931009D02*
X47738094Y-2978628D01*
X47738094Y-2978628D02*
X47357142Y-2978628D01*
X48928570Y-3454819D02*
X48595237Y-2978628D01*
X48357142Y-3454819D02*
X48357142Y-2454819D01*
X48357142Y-2454819D02*
X48738094Y-2454819D01*
X48738094Y-2454819D02*
X48833332Y-2502438D01*
X48833332Y-2502438D02*
X48880951Y-2550057D01*
X48880951Y-2550057D02*
X48928570Y-2645295D01*
X48928570Y-2645295D02*
X48928570Y-2788152D01*
X48928570Y-2788152D02*
X48880951Y-2883390D01*
X48880951Y-2883390D02*
X48833332Y-2931009D01*
X48833332Y-2931009D02*
X48738094Y-2978628D01*
X48738094Y-2978628D02*
X48357142Y-2978628D01*
X49547618Y-2454819D02*
X49738094Y-2454819D01*
X49738094Y-2454819D02*
X49833332Y-2502438D01*
X49833332Y-2502438D02*
X49928570Y-2597676D01*
X49928570Y-2597676D02*
X49976189Y-2788152D01*
X49976189Y-2788152D02*
X49976189Y-3121485D01*
X49976189Y-3121485D02*
X49928570Y-3311961D01*
X49928570Y-3311961D02*
X49833332Y-3407200D01*
X49833332Y-3407200D02*
X49738094Y-3454819D01*
X49738094Y-3454819D02*
X49547618Y-3454819D01*
X49547618Y-3454819D02*
X49452380Y-3407200D01*
X49452380Y-3407200D02*
X49357142Y-3311961D01*
X49357142Y-3311961D02*
X49309523Y-3121485D01*
X49309523Y-3121485D02*
X49309523Y-2788152D01*
X49309523Y-2788152D02*
X49357142Y-2597676D01*
X49357142Y-2597676D02*
X49452380Y-2502438D01*
X49452380Y-2502438D02*
X49547618Y-2454819D01*
X50261904Y-2454819D02*
X50833332Y-2454819D01*
X50547618Y-3454819D02*
X50547618Y-2454819D01*
X51357142Y-2454819D02*
X51547618Y-2454819D01*
X51547618Y-2454819D02*
X51642856Y-2502438D01*
X51642856Y-2502438D02*
X51738094Y-2597676D01*
X51738094Y-2597676D02*
X51785713Y-2788152D01*
X51785713Y-2788152D02*
X51785713Y-3121485D01*
X51785713Y-3121485D02*
X51738094Y-3311961D01*
X51738094Y-3311961D02*
X51642856Y-3407200D01*
X51642856Y-3407200D02*
X51547618Y-3454819D01*
X51547618Y-3454819D02*
X51357142Y-3454819D01*
X51357142Y-3454819D02*
X51261904Y-3407200D01*
X51261904Y-3407200D02*
X51166666Y-3311961D01*
X51166666Y-3311961D02*
X51119047Y-3121485D01*
X51119047Y-3121485D02*
X51119047Y-2788152D01*
X51119047Y-2788152D02*
X51166666Y-2597676D01*
X51166666Y-2597676D02*
X51261904Y-2502438D01*
X51261904Y-2502438D02*
X51357142Y-2454819D01*
X52071428Y-2454819D02*
X52642856Y-2454819D01*
X52357142Y-3454819D02*
X52357142Y-2454819D01*
X53166666Y-2978628D02*
X53166666Y-3454819D01*
X52833333Y-2454819D02*
X53166666Y-2978628D01*
X53166666Y-2978628D02*
X53499999Y-2454819D01*
X53833333Y-3454819D02*
X53833333Y-2454819D01*
X53833333Y-2454819D02*
X54214285Y-2454819D01*
X54214285Y-2454819D02*
X54309523Y-2502438D01*
X54309523Y-2502438D02*
X54357142Y-2550057D01*
X54357142Y-2550057D02*
X54404761Y-2645295D01*
X54404761Y-2645295D02*
X54404761Y-2788152D01*
X54404761Y-2788152D02*
X54357142Y-2883390D01*
X54357142Y-2883390D02*
X54309523Y-2931009D01*
X54309523Y-2931009D02*
X54214285Y-2978628D01*
X54214285Y-2978628D02*
X53833333Y-2978628D01*
X54833333Y-2931009D02*
X55166666Y-2931009D01*
X55309523Y-3454819D02*
X54833333Y-3454819D01*
X54833333Y-3454819D02*
X54833333Y-2454819D01*
X54833333Y-2454819D02*
X55309523Y-2454819D01*
X57071428Y-3359580D02*
X57023809Y-3407200D01*
X57023809Y-3407200D02*
X56880952Y-3454819D01*
X56880952Y-3454819D02*
X56785714Y-3454819D01*
X56785714Y-3454819D02*
X56642857Y-3407200D01*
X56642857Y-3407200D02*
X56547619Y-3311961D01*
X56547619Y-3311961D02*
X56500000Y-3216723D01*
X56500000Y-3216723D02*
X56452381Y-3026247D01*
X56452381Y-3026247D02*
X56452381Y-2883390D01*
X56452381Y-2883390D02*
X56500000Y-2692914D01*
X56500000Y-2692914D02*
X56547619Y-2597676D01*
X56547619Y-2597676D02*
X56642857Y-2502438D01*
X56642857Y-2502438D02*
X56785714Y-2454819D01*
X56785714Y-2454819D02*
X56880952Y-2454819D01*
X56880952Y-2454819D02*
X57023809Y-2502438D01*
X57023809Y-2502438D02*
X57071428Y-2550057D01*
X58976190Y-2407200D02*
X58119048Y-3692914D01*
X60071429Y-3454819D02*
X60071429Y-2454819D01*
X60071429Y-2454819D02*
X60642857Y-3454819D01*
X60642857Y-3454819D02*
X60642857Y-2454819D01*
X61309524Y-2454819D02*
X61500000Y-2454819D01*
X61500000Y-2454819D02*
X61595238Y-2502438D01*
X61595238Y-2502438D02*
X61690476Y-2597676D01*
X61690476Y-2597676D02*
X61738095Y-2788152D01*
X61738095Y-2788152D02*
X61738095Y-3121485D01*
X61738095Y-3121485D02*
X61690476Y-3311961D01*
X61690476Y-3311961D02*
X61595238Y-3407200D01*
X61595238Y-3407200D02*
X61500000Y-3454819D01*
X61500000Y-3454819D02*
X61309524Y-3454819D01*
X61309524Y-3454819D02*
X61214286Y-3407200D01*
X61214286Y-3407200D02*
X61119048Y-3311961D01*
X61119048Y-3311961D02*
X61071429Y-3121485D01*
X61071429Y-3121485D02*
X61071429Y-2788152D01*
X61071429Y-2788152D02*
X61119048Y-2597676D01*
X61119048Y-2597676D02*
X61214286Y-2502438D01*
X61214286Y-2502438D02*
X61309524Y-2454819D01*
X62023810Y-2454819D02*
X62595238Y-2454819D01*
X62309524Y-3454819D02*
X62309524Y-2454819D01*
X63690477Y-3454819D02*
X63690477Y-2454819D01*
X63690477Y-2454819D02*
X64071429Y-2454819D01*
X64071429Y-2454819D02*
X64166667Y-2502438D01*
X64166667Y-2502438D02*
X64214286Y-2550057D01*
X64214286Y-2550057D02*
X64261905Y-2645295D01*
X64261905Y-2645295D02*
X64261905Y-2788152D01*
X64261905Y-2788152D02*
X64214286Y-2883390D01*
X64214286Y-2883390D02*
X64166667Y-2931009D01*
X64166667Y-2931009D02*
X64071429Y-2978628D01*
X64071429Y-2978628D02*
X63690477Y-2978628D01*
X65261905Y-3454819D02*
X64928572Y-2978628D01*
X64690477Y-3454819D02*
X64690477Y-2454819D01*
X64690477Y-2454819D02*
X65071429Y-2454819D01*
X65071429Y-2454819D02*
X65166667Y-2502438D01*
X65166667Y-2502438D02*
X65214286Y-2550057D01*
X65214286Y-2550057D02*
X65261905Y-2645295D01*
X65261905Y-2645295D02*
X65261905Y-2788152D01*
X65261905Y-2788152D02*
X65214286Y-2883390D01*
X65214286Y-2883390D02*
X65166667Y-2931009D01*
X65166667Y-2931009D02*
X65071429Y-2978628D01*
X65071429Y-2978628D02*
X64690477Y-2978628D01*
X65880953Y-2454819D02*
X66071429Y-2454819D01*
X66071429Y-2454819D02*
X66166667Y-2502438D01*
X66166667Y-2502438D02*
X66261905Y-2597676D01*
X66261905Y-2597676D02*
X66309524Y-2788152D01*
X66309524Y-2788152D02*
X66309524Y-3121485D01*
X66309524Y-3121485D02*
X66261905Y-3311961D01*
X66261905Y-3311961D02*
X66166667Y-3407200D01*
X66166667Y-3407200D02*
X66071429Y-3454819D01*
X66071429Y-3454819D02*
X65880953Y-3454819D01*
X65880953Y-3454819D02*
X65785715Y-3407200D01*
X65785715Y-3407200D02*
X65690477Y-3311961D01*
X65690477Y-3311961D02*
X65642858Y-3121485D01*
X65642858Y-3121485D02*
X65642858Y-2788152D01*
X65642858Y-2788152D02*
X65690477Y-2597676D01*
X65690477Y-2597676D02*
X65785715Y-2502438D01*
X65785715Y-2502438D02*
X65880953Y-2454819D01*
X66738096Y-3454819D02*
X66738096Y-2454819D01*
X66738096Y-2454819D02*
X66976191Y-2454819D01*
X66976191Y-2454819D02*
X67119048Y-2502438D01*
X67119048Y-2502438D02*
X67214286Y-2597676D01*
X67214286Y-2597676D02*
X67261905Y-2692914D01*
X67261905Y-2692914D02*
X67309524Y-2883390D01*
X67309524Y-2883390D02*
X67309524Y-3026247D01*
X67309524Y-3026247D02*
X67261905Y-3216723D01*
X67261905Y-3216723D02*
X67214286Y-3311961D01*
X67214286Y-3311961D02*
X67119048Y-3407200D01*
X67119048Y-3407200D02*
X66976191Y-3454819D01*
X66976191Y-3454819D02*
X66738096Y-3454819D01*
X67738096Y-2454819D02*
X67738096Y-3264342D01*
X67738096Y-3264342D02*
X67785715Y-3359580D01*
X67785715Y-3359580D02*
X67833334Y-3407200D01*
X67833334Y-3407200D02*
X67928572Y-3454819D01*
X67928572Y-3454819D02*
X68119048Y-3454819D01*
X68119048Y-3454819D02*
X68214286Y-3407200D01*
X68214286Y-3407200D02*
X68261905Y-3359580D01*
X68261905Y-3359580D02*
X68309524Y-3264342D01*
X68309524Y-3264342D02*
X68309524Y-2454819D01*
X69357143Y-3359580D02*
X69309524Y-3407200D01*
X69309524Y-3407200D02*
X69166667Y-3454819D01*
X69166667Y-3454819D02*
X69071429Y-3454819D01*
X69071429Y-3454819D02*
X68928572Y-3407200D01*
X68928572Y-3407200D02*
X68833334Y-3311961D01*
X68833334Y-3311961D02*
X68785715Y-3216723D01*
X68785715Y-3216723D02*
X68738096Y-3026247D01*
X68738096Y-3026247D02*
X68738096Y-2883390D01*
X68738096Y-2883390D02*
X68785715Y-2692914D01*
X68785715Y-2692914D02*
X68833334Y-2597676D01*
X68833334Y-2597676D02*
X68928572Y-2502438D01*
X68928572Y-2502438D02*
X69071429Y-2454819D01*
X69071429Y-2454819D02*
X69166667Y-2454819D01*
X69166667Y-2454819D02*
X69309524Y-2502438D01*
X69309524Y-2502438D02*
X69357143Y-2550057D01*
X69642858Y-2454819D02*
X70214286Y-2454819D01*
X69928572Y-3454819D02*
X69928572Y-2454819D01*
X70547620Y-3454819D02*
X70547620Y-2454819D01*
X71214286Y-2454819D02*
X71404762Y-2454819D01*
X71404762Y-2454819D02*
X71500000Y-2502438D01*
X71500000Y-2502438D02*
X71595238Y-2597676D01*
X71595238Y-2597676D02*
X71642857Y-2788152D01*
X71642857Y-2788152D02*
X71642857Y-3121485D01*
X71642857Y-3121485D02*
X71595238Y-3311961D01*
X71595238Y-3311961D02*
X71500000Y-3407200D01*
X71500000Y-3407200D02*
X71404762Y-3454819D01*
X71404762Y-3454819D02*
X71214286Y-3454819D01*
X71214286Y-3454819D02*
X71119048Y-3407200D01*
X71119048Y-3407200D02*
X71023810Y-3311961D01*
X71023810Y-3311961D02*
X70976191Y-3121485D01*
X70976191Y-3121485D02*
X70976191Y-2788152D01*
X70976191Y-2788152D02*
X71023810Y-2597676D01*
X71023810Y-2597676D02*
X71119048Y-2502438D01*
X71119048Y-2502438D02*
X71214286Y-2454819D01*
X72071429Y-3454819D02*
X72071429Y-2454819D01*
X72071429Y-2454819D02*
X72642857Y-3454819D01*
X72642857Y-3454819D02*
X72642857Y-2454819D01*
X50922620Y-83510950D02*
X51101191Y-83570473D01*
X51101191Y-83570473D02*
X51398810Y-83570473D01*
X51398810Y-83570473D02*
X51517858Y-83510950D01*
X51517858Y-83510950D02*
X51577382Y-83451426D01*
X51577382Y-83451426D02*
X51636905Y-83332378D01*
X51636905Y-83332378D02*
X51636905Y-83213330D01*
X51636905Y-83213330D02*
X51577382Y-83094283D01*
X51577382Y-83094283D02*
X51517858Y-83034759D01*
X51517858Y-83034759D02*
X51398810Y-82975235D01*
X51398810Y-82975235D02*
X51160715Y-82915711D01*
X51160715Y-82915711D02*
X51041667Y-82856188D01*
X51041667Y-82856188D02*
X50982144Y-82796664D01*
X50982144Y-82796664D02*
X50922620Y-82677616D01*
X50922620Y-82677616D02*
X50922620Y-82558569D01*
X50922620Y-82558569D02*
X50982144Y-82439521D01*
X50982144Y-82439521D02*
X51041667Y-82379997D01*
X51041667Y-82379997D02*
X51160715Y-82320473D01*
X51160715Y-82320473D02*
X51458334Y-82320473D01*
X51458334Y-82320473D02*
X51636905Y-82379997D01*
X52172620Y-83570473D02*
X52172620Y-82320473D01*
X52886905Y-83570473D02*
X52351191Y-82856188D01*
X52886905Y-82320473D02*
X52172620Y-83034759D01*
X53660715Y-82975235D02*
X53660715Y-83570473D01*
X53244048Y-82320473D02*
X53660715Y-82975235D01*
X53660715Y-82975235D02*
X54077381Y-82320473D01*
X54434525Y-83510950D02*
X54613096Y-83570473D01*
X54613096Y-83570473D02*
X54910715Y-83570473D01*
X54910715Y-83570473D02*
X55029763Y-83510950D01*
X55029763Y-83510950D02*
X55089287Y-83451426D01*
X55089287Y-83451426D02*
X55148810Y-83332378D01*
X55148810Y-83332378D02*
X55148810Y-83213330D01*
X55148810Y-83213330D02*
X55089287Y-83094283D01*
X55089287Y-83094283D02*
X55029763Y-83034759D01*
X55029763Y-83034759D02*
X54910715Y-82975235D01*
X54910715Y-82975235D02*
X54672620Y-82915711D01*
X54672620Y-82915711D02*
X54553572Y-82856188D01*
X54553572Y-82856188D02*
X54494049Y-82796664D01*
X54494049Y-82796664D02*
X54434525Y-82677616D01*
X54434525Y-82677616D02*
X54434525Y-82558569D01*
X54434525Y-82558569D02*
X54494049Y-82439521D01*
X54494049Y-82439521D02*
X54553572Y-82379997D01*
X54553572Y-82379997D02*
X54672620Y-82320473D01*
X54672620Y-82320473D02*
X54970239Y-82320473D01*
X54970239Y-82320473D02*
X55148810Y-82379997D01*
X55565477Y-82320473D02*
X55863096Y-83570473D01*
X55863096Y-83570473D02*
X56101191Y-82677616D01*
X56101191Y-82677616D02*
X56339286Y-83570473D01*
X56339286Y-83570473D02*
X56636906Y-82320473D01*
X57113096Y-82915711D02*
X57529762Y-82915711D01*
X57708334Y-83570473D02*
X57113096Y-83570473D01*
X57113096Y-83570473D02*
X57113096Y-82320473D01*
X57113096Y-82320473D02*
X57708334Y-82320473D01*
X58244048Y-82915711D02*
X58660714Y-82915711D01*
X58839286Y-83570473D02*
X58244048Y-83570473D01*
X58244048Y-83570473D02*
X58244048Y-82320473D01*
X58244048Y-82320473D02*
X58839286Y-82320473D01*
X59375000Y-83570473D02*
X59375000Y-82320473D01*
X59375000Y-82320473D02*
X59851190Y-82320473D01*
X59851190Y-82320473D02*
X59970238Y-82379997D01*
X59970238Y-82379997D02*
X60029761Y-82439521D01*
X60029761Y-82439521D02*
X60089285Y-82558569D01*
X60089285Y-82558569D02*
X60089285Y-82737140D01*
X60089285Y-82737140D02*
X60029761Y-82856188D01*
X60029761Y-82856188D02*
X59970238Y-82915711D01*
X59970238Y-82915711D02*
X59851190Y-82975235D01*
X59851190Y-82975235D02*
X59375000Y-82975235D01*
X60505952Y-82320473D02*
X61279761Y-82320473D01*
X61279761Y-82320473D02*
X60863095Y-82796664D01*
X60863095Y-82796664D02*
X61041666Y-82796664D01*
X61041666Y-82796664D02*
X61160714Y-82856188D01*
X61160714Y-82856188D02*
X61220238Y-82915711D01*
X61220238Y-82915711D02*
X61279761Y-83034759D01*
X61279761Y-83034759D02*
X61279761Y-83332378D01*
X61279761Y-83332378D02*
X61220238Y-83451426D01*
X61220238Y-83451426D02*
X61160714Y-83510950D01*
X61160714Y-83510950D02*
X61041666Y-83570473D01*
X61041666Y-83570473D02*
X60684523Y-83570473D01*
X60684523Y-83570473D02*
X60565476Y-83510950D01*
X60565476Y-83510950D02*
X60505952Y-83451426D01*
X61755952Y-82439521D02*
X61815476Y-82379997D01*
X61815476Y-82379997D02*
X61934523Y-82320473D01*
X61934523Y-82320473D02*
X62232142Y-82320473D01*
X62232142Y-82320473D02*
X62351190Y-82379997D01*
X62351190Y-82379997D02*
X62410714Y-82439521D01*
X62410714Y-82439521D02*
X62470237Y-82558569D01*
X62470237Y-82558569D02*
X62470237Y-82677616D01*
X62470237Y-82677616D02*
X62410714Y-82856188D01*
X62410714Y-82856188D02*
X61696428Y-83570473D01*
X61696428Y-83570473D02*
X62470237Y-83570473D01*
X64672618Y-83570473D02*
X64255952Y-82975235D01*
X63958333Y-83570473D02*
X63958333Y-82320473D01*
X63958333Y-82320473D02*
X64434523Y-82320473D01*
X64434523Y-82320473D02*
X64553571Y-82379997D01*
X64553571Y-82379997D02*
X64613094Y-82439521D01*
X64613094Y-82439521D02*
X64672618Y-82558569D01*
X64672618Y-82558569D02*
X64672618Y-82737140D01*
X64672618Y-82737140D02*
X64613094Y-82856188D01*
X64613094Y-82856188D02*
X64553571Y-82915711D01*
X64553571Y-82915711D02*
X64434523Y-82975235D01*
X64434523Y-82975235D02*
X63958333Y-82975235D01*
X65208333Y-82915711D02*
X65624999Y-82915711D01*
X65803571Y-83570473D02*
X65208333Y-83570473D01*
X65208333Y-83570473D02*
X65208333Y-82320473D01*
X65208333Y-82320473D02*
X65803571Y-82320473D01*
X66160713Y-82320473D02*
X66577380Y-83570473D01*
X66577380Y-83570473D02*
X66994046Y-82320473D01*
X69077380Y-83451426D02*
X69017856Y-83510950D01*
X69017856Y-83510950D02*
X68839285Y-83570473D01*
X68839285Y-83570473D02*
X68720237Y-83570473D01*
X68720237Y-83570473D02*
X68541666Y-83510950D01*
X68541666Y-83510950D02*
X68422618Y-83391902D01*
X68422618Y-83391902D02*
X68363095Y-83272854D01*
X68363095Y-83272854D02*
X68303571Y-83034759D01*
X68303571Y-83034759D02*
X68303571Y-82856188D01*
X68303571Y-82856188D02*
X68363095Y-82618092D01*
X68363095Y-82618092D02*
X68422618Y-82499045D01*
X68422618Y-82499045D02*
X68541666Y-82379997D01*
X68541666Y-82379997D02*
X68720237Y-82320473D01*
X68720237Y-82320473D02*
X68839285Y-82320473D01*
X68839285Y-82320473D02*
X69017856Y-82379997D01*
X69017856Y-82379997D02*
X69077380Y-82439521D01*
X4238095Y-77454819D02*
X4238095Y-76454819D01*
X4238095Y-76931009D02*
X4809523Y-76931009D01*
X4809523Y-77454819D02*
X4809523Y-76454819D01*
X5714285Y-76788152D02*
X5714285Y-77454819D01*
X5476190Y-76407200D02*
X5238095Y-77121485D01*
X5238095Y-77121485D02*
X5857142Y-77121485D01*
X114238095Y-77454819D02*
X114238095Y-76454819D01*
X114238095Y-76931009D02*
X114809523Y-76931009D01*
X114809523Y-77454819D02*
X114809523Y-76454819D01*
X115190476Y-76454819D02*
X115809523Y-76454819D01*
X115809523Y-76454819D02*
X115476190Y-76835771D01*
X115476190Y-76835771D02*
X115619047Y-76835771D01*
X115619047Y-76835771D02*
X115714285Y-76883390D01*
X115714285Y-76883390D02*
X115761904Y-76931009D01*
X115761904Y-76931009D02*
X115809523Y-77026247D01*
X115809523Y-77026247D02*
X115809523Y-77264342D01*
X115809523Y-77264342D02*
X115761904Y-77359580D01*
X115761904Y-77359580D02*
X115714285Y-77407200D01*
X115714285Y-77407200D02*
X115619047Y-77454819D01*
X115619047Y-77454819D02*
X115333333Y-77454819D01*
X115333333Y-77454819D02*
X115238095Y-77407200D01*
X115238095Y-77407200D02*
X115190476Y-77359580D01*
X114238095Y-2454819D02*
X114238095Y-1454819D01*
X114238095Y-1931009D02*
X114809523Y-1931009D01*
X114809523Y-2454819D02*
X114809523Y-1454819D01*
X115238095Y-1550057D02*
X115285714Y-1502438D01*
X115285714Y-1502438D02*
X115380952Y-1454819D01*
X115380952Y-1454819D02*
X115619047Y-1454819D01*
X115619047Y-1454819D02*
X115714285Y-1502438D01*
X115714285Y-1502438D02*
X115761904Y-1550057D01*
X115761904Y-1550057D02*
X115809523Y-1645295D01*
X115809523Y-1645295D02*
X115809523Y-1740533D01*
X115809523Y-1740533D02*
X115761904Y-1883390D01*
X115761904Y-1883390D02*
X115190476Y-2454819D01*
X115190476Y-2454819D02*
X115809523Y-2454819D01*
X4238095Y-2454819D02*
X4238095Y-1454819D01*
X4238095Y-1931009D02*
X4809523Y-1931009D01*
X4809523Y-2454819D02*
X4809523Y-1454819D01*
X5809523Y-2454819D02*
X5238095Y-2454819D01*
X5523809Y-2454819D02*
X5523809Y-1454819D01*
X5523809Y-1454819D02*
X5428571Y-1597676D01*
X5428571Y-1597676D02*
X5333333Y-1692914D01*
X5333333Y-1692914D02*
X5238095Y-1740533D01*
%TO.C,R9*%
D11*
X27762742Y-19477500D02*
X28237258Y-19477500D01*
X27762742Y-20522500D02*
X28237258Y-20522500D01*
%TO.C,J2*%
X107180000Y-63590000D02*
X107180000Y-62730000D01*
X108550000Y-65070000D02*
X113000000Y-65070000D01*
X114400000Y-65070000D02*
X116700000Y-65070000D01*
X118100000Y-65070000D02*
X118820000Y-65070000D01*
X118820000Y-52890000D02*
X109000000Y-52890000D01*
X118820000Y-54120000D02*
X118820000Y-52890000D01*
X118820000Y-60090000D02*
X118820000Y-56420000D01*
X118820000Y-65070000D02*
X118820000Y-62390000D01*
%TO.C,D1*%
X37350000Y-79510000D02*
X37350000Y-74000000D01*
X37350000Y-79510000D02*
X40650000Y-79510000D01*
X40650000Y-79510000D02*
X40650000Y-74000000D01*
%TO.C,BZ1*%
D12*
X85000000Y-58000000D02*
G75*
G02*
X73000000Y-58000000I-6000000J0D01*
G01*
X73000000Y-58000000D02*
G75*
G02*
X85000000Y-58000000I6000000J0D01*
G01*
%TO.C,J5*%
D11*
X5760000Y-44270000D02*
X6260000Y-44520000D01*
X6260000Y-44020000D02*
X5760000Y-44270000D01*
X6260000Y-44520000D02*
X6260000Y-44020000D01*
%TO.C,C15*%
X108859420Y-67490000D02*
X109140580Y-67490000D01*
X108859420Y-68510000D02*
X109140580Y-68510000D01*
%TO.C,C6*%
X57859420Y-43490000D02*
X58140580Y-43490000D01*
X57859420Y-44510000D02*
X58140580Y-44510000D01*
%TO.C,R3*%
X37762742Y-60477500D02*
X38237258Y-60477500D01*
X37762742Y-61522500D02*
X38237258Y-61522500D01*
%TO.C,TP1*%
X68700000Y-48000000D02*
G75*
G02*
X67300000Y-48000000I-700000J0D01*
G01*
X67300000Y-48000000D02*
G75*
G02*
X68700000Y-48000000I700000J0D01*
G01*
%TO.C,TP4*%
X83700000Y-48000000D02*
G75*
G02*
X82300000Y-48000000I-700000J0D01*
G01*
X82300000Y-48000000D02*
G75*
G02*
X83700000Y-48000000I700000J0D01*
G01*
%TO.C,C8*%
X93738748Y-24265000D02*
X94261252Y-24265000D01*
X93738748Y-25735000D02*
X94261252Y-25735000D01*
%TO.C,H4*%
D12*
X7200000Y-80000000D02*
G75*
G02*
X2800000Y-80000000I-2200000J0D01*
G01*
X2800000Y-80000000D02*
G75*
G02*
X7200000Y-80000000I2200000J0D01*
G01*
%TO.C,R17*%
D11*
X66762742Y-75477500D02*
X67237258Y-75477500D01*
X66762742Y-76522500D02*
X67237258Y-76522500D01*
%TO.C,C16*%
X67738748Y-71265000D02*
X68261252Y-71265000D01*
X67738748Y-72735000D02*
X68261252Y-72735000D01*
%TO.C,H3*%
D12*
X117200000Y-80000000D02*
G75*
G02*
X112800000Y-80000000I-2200000J0D01*
G01*
X112800000Y-80000000D02*
G75*
G02*
X117200000Y-80000000I2200000J0D01*
G01*
%TO.C,R8*%
D11*
X27762742Y-14477500D02*
X28237258Y-14477500D01*
X27762742Y-15522500D02*
X28237258Y-15522500D01*
%TO.C,TP5*%
X88700000Y-48000000D02*
G75*
G02*
X87300000Y-48000000I-700000J0D01*
G01*
X87300000Y-48000000D02*
G75*
G02*
X88700000Y-48000000I700000J0D01*
G01*
%TO.C,TP3*%
X78700000Y-48000000D02*
G75*
G02*
X77300000Y-48000000I-700000J0D01*
G01*
X77300000Y-48000000D02*
G75*
G02*
X78700000Y-48000000I700000J0D01*
G01*
%TO.C,C7*%
X49859420Y-46490000D02*
X50140580Y-46490000D01*
X49859420Y-47510000D02*
X50140580Y-47510000D01*
%TO.C,D3*%
X69515000Y-75265000D02*
X69515000Y-76735000D01*
X69515000Y-76735000D02*
X71800000Y-76735000D01*
X71800000Y-75265000D02*
X69515000Y-75265000D01*
%TO.C,J1*%
X15330000Y-81225000D02*
X15330000Y-79525000D01*
X24670000Y-81225000D02*
X24670000Y-79525000D01*
%TO.C,L1*%
X53600000Y-65800000D02*
X53600000Y-67000000D01*
X53600000Y-65800000D02*
X55000000Y-65800000D01*
X53600000Y-72200000D02*
X53600000Y-71000000D01*
X53600000Y-72200000D02*
X55000000Y-72200000D01*
X60400000Y-65800000D02*
X59000000Y-65800000D01*
X60400000Y-65800000D02*
X60400000Y-67000000D01*
X60400000Y-72200000D02*
X59000000Y-72200000D01*
X60400000Y-72200000D02*
X60400000Y-71000000D01*
%TO.C,R18*%
X96762742Y-65477500D02*
X97237258Y-65477500D01*
X96762742Y-66522500D02*
X97237258Y-66522500D01*
%TO.C,C11*%
X25859420Y-52490000D02*
X26140580Y-52490000D01*
X25859420Y-53510000D02*
X26140580Y-53510000D01*
%TO.C,R4*%
X37762742Y-63477500D02*
X38237258Y-63477500D01*
X37762742Y-64522500D02*
X38237258Y-64522500D01*
%TO.C,R6*%
X92762742Y-74477500D02*
X93237258Y-74477500D01*
X92762742Y-75522500D02*
X93237258Y-75522500D01*
%TO.C,H2*%
D12*
X117200000Y-5000000D02*
G75*
G02*
X112800000Y-5000000I-2200000J0D01*
G01*
X112800000Y-5000000D02*
G75*
G02*
X117200000Y-5000000I2200000J0D01*
G01*
%TO.C,TP2*%
D11*
X73700000Y-48000000D02*
G75*
G02*
X72300000Y-48000000I-700000J0D01*
G01*
X72300000Y-48000000D02*
G75*
G02*
X73700000Y-48000000I700000J0D01*
G01*
%TO.C,F1*%
X31290000Y-73386252D02*
X31290000Y-70613748D01*
X34710000Y-73386252D02*
X34710000Y-70613748D01*
%TO.C,SW3*%
X101280000Y-81040000D02*
X101280000Y-78960000D01*
X102550000Y-77280000D02*
X102060000Y-77770000D01*
X102550000Y-77280000D02*
X105450000Y-77280000D01*
X102550000Y-82720000D02*
X102060000Y-82230000D01*
X102550000Y-82720000D02*
X105450000Y-82720000D01*
X105450000Y-77280000D02*
X105940000Y-77770000D01*
X105450000Y-82720000D02*
X105940000Y-82230000D01*
X106720000Y-81040000D02*
X106720000Y-78960000D01*
%TO.C,Q2*%
X93240000Y-68440000D02*
X94760000Y-68440000D01*
X93240000Y-68490000D02*
X93240000Y-68440000D01*
X93240000Y-70390000D02*
X93240000Y-69610000D01*
X93240000Y-71560000D02*
X93240000Y-71510000D01*
X94760000Y-68440000D02*
X94760000Y-69440000D01*
X94760000Y-70560000D02*
X94760000Y-71560000D01*
X94760000Y-71560000D02*
X93240000Y-71560000D01*
X92700000Y-69620000D02*
X92940000Y-69950000D01*
X92460000Y-69950000D01*
X92700000Y-69620000D01*
G36*
X92940000Y-69950000D02*
G01*
X92460000Y-69950000D01*
X92700000Y-69620000D01*
X92940000Y-69950000D01*
G37*
%TO.C,C14*%
X103738748Y-67265000D02*
X104261252Y-67265000D01*
X103738748Y-68735000D02*
X104261252Y-68735000D01*
%TO.C,R16*%
X89762742Y-61477500D02*
X90237258Y-61477500D01*
X89762742Y-62522500D02*
X90237258Y-62522500D01*
%TO.C,J4*%
X77640000Y-66890000D02*
X77640000Y-68140000D01*
X77940000Y-68500000D02*
X78550000Y-68500000D01*
X77940000Y-69800000D02*
X78550000Y-69800000D01*
X78550000Y-67800000D02*
X78550000Y-71300000D01*
X78550000Y-71300000D02*
X83450000Y-71300000D01*
X78890000Y-66890000D02*
X77640000Y-66890000D01*
X79400000Y-66990000D02*
X79400000Y-67190000D01*
X79700000Y-66990000D02*
X79400000Y-66990000D01*
X79700000Y-67090000D02*
X79400000Y-67090000D01*
X79700000Y-67190000D02*
X79700000Y-66990000D01*
X80500000Y-67190000D02*
X80500000Y-67800000D01*
X80500000Y-67800000D02*
X78550000Y-67800000D01*
X80900000Y-70800000D02*
X81100000Y-70800000D01*
X80900000Y-71300000D02*
X80900000Y-70800000D01*
X81000000Y-71300000D02*
X81000000Y-70800000D01*
X81100000Y-70800000D02*
X81100000Y-71300000D01*
X81500000Y-67800000D02*
X81500000Y-67190000D01*
X83450000Y-67800000D02*
X81500000Y-67800000D01*
X83450000Y-71300000D02*
X83450000Y-67800000D01*
X84060000Y-68500000D02*
X83450000Y-68500000D01*
X84060000Y-69800000D02*
X83450000Y-69800000D01*
X77940000Y-67190000D02*
X84060000Y-67190000D01*
X84060000Y-71910000D01*
X77940000Y-71910000D01*
X77940000Y-67190000D01*
%TO.C,C10*%
X25738748Y-47265000D02*
X26261252Y-47265000D01*
X25738748Y-48735000D02*
X26261252Y-48735000D01*
%TO.C,J3*%
X59890000Y-77215000D02*
X60940000Y-77215000D01*
X59890000Y-79715000D02*
X59890000Y-77215000D01*
X60940000Y-77215000D02*
X60940000Y-76225000D01*
X61060000Y-81685000D02*
X64940000Y-81685000D01*
X66110000Y-77215000D02*
X65060000Y-77215000D01*
X66110000Y-79715000D02*
X66110000Y-77215000D01*
%TO.C,R14*%
X95762742Y-62477500D02*
X96237258Y-62477500D01*
X95762742Y-63522500D02*
X96237258Y-63522500D01*
%TO.C,U1*%
X50800000Y-15100000D02*
X50800000Y-21300000D01*
X50800000Y-15100000D02*
X69200000Y-15100000D01*
X50800000Y-39950000D02*
X50800000Y-40950000D01*
X50800000Y-40950000D02*
X52300000Y-40950000D01*
X69200000Y-15100000D02*
X69200000Y-21300000D01*
X69200000Y-40950000D02*
X67700000Y-40950000D01*
X69200000Y-40950000D02*
X69200000Y-39950000D01*
X50800000Y-21975000D02*
X50300000Y-21975000D01*
X50800000Y-21475000D01*
X50800000Y-21975000D01*
G36*
X50800000Y-21975000D02*
G01*
X50300000Y-21975000D01*
X50800000Y-21475000D01*
X50800000Y-21975000D01*
G37*
%TO.C,C4*%
X63288748Y-71090000D02*
X64711252Y-71090000D01*
X63288748Y-72910000D02*
X64711252Y-72910000D01*
%TO.C,H1*%
D12*
X7200000Y-5000000D02*
G75*
G02*
X2800000Y-5000000I-2200000J0D01*
G01*
X2800000Y-5000000D02*
G75*
G02*
X7200000Y-5000000I2200000J0D01*
G01*
%TO.C,R5*%
D11*
X45762742Y-46477500D02*
X46237258Y-46477500D01*
X45762742Y-47522500D02*
X46237258Y-47522500D01*
%TO.C,R10*%
X27762742Y-24477500D02*
X28237258Y-24477500D01*
X27762742Y-25522500D02*
X28237258Y-25522500D01*
%TO.C,D2*%
X65340000Y-56640000D02*
X65340000Y-59360000D01*
X65340000Y-56640000D02*
X70400000Y-56640000D01*
X65340000Y-59360000D02*
X70400000Y-59360000D01*
%TO.C,C1*%
X44288748Y-75090000D02*
X45711252Y-75090000D01*
X44288748Y-76910000D02*
X45711252Y-76910000D01*
%TO.C,C5*%
X53738748Y-43265000D02*
X54261252Y-43265000D01*
X53738748Y-44735000D02*
X54261252Y-44735000D01*
%TO.C,U3*%
X46090000Y-67440000D02*
X47910000Y-67440000D01*
X46090000Y-67490000D02*
X46090000Y-67440000D01*
X46090000Y-70560000D02*
X46090000Y-70510000D01*
X47910000Y-67440000D02*
X47910000Y-67490000D01*
X47910000Y-70510000D02*
X47910000Y-70560000D01*
X47910000Y-70560000D02*
X46090000Y-70560000D01*
X45550000Y-67490000D02*
X45310000Y-67160000D01*
X45790000Y-67160000D01*
X45550000Y-67490000D01*
G36*
X45550000Y-67490000D02*
G01*
X45310000Y-67160000D01*
X45790000Y-67160000D01*
X45550000Y-67490000D01*
G37*
%TO.C,RF1*%
D12*
X97000000Y-11300000D02*
X115000000Y-11300000D01*
X115000000Y-44700000D01*
X97000000Y-44700000D01*
X97000000Y-11300000D01*
%TO.C,SW1*%
D11*
X79280000Y-81040000D02*
X79280000Y-78960000D01*
X80550000Y-77280000D02*
X80060000Y-77770000D01*
X80550000Y-77280000D02*
X83450000Y-77280000D01*
X80550000Y-82720000D02*
X80060000Y-82230000D01*
X80550000Y-82720000D02*
X83450000Y-82720000D01*
X83450000Y-77280000D02*
X83940000Y-77770000D01*
X83450000Y-82720000D02*
X83940000Y-82230000D01*
X84720000Y-81040000D02*
X84720000Y-78960000D01*
%TO.C,D4*%
X72640000Y-73160000D02*
X72640000Y-68100000D01*
X72640000Y-73160000D02*
X75360000Y-73160000D01*
X75360000Y-73160000D02*
X75360000Y-68100000D01*
%TO.C,C3*%
X63288748Y-65090000D02*
X64711252Y-65090000D01*
X63288748Y-66910000D02*
X64711252Y-66910000D01*
%TO.C,C2*%
X50859420Y-63490000D02*
X51140580Y-63490000D01*
X50859420Y-64510000D02*
X51140580Y-64510000D01*
%TO.C,R13*%
X95762742Y-58477500D02*
X96237258Y-58477500D01*
X95762742Y-59522500D02*
X96237258Y-59522500D01*
%TO.C,Q1*%
X88240000Y-56440000D02*
X89760000Y-56440000D01*
X88240000Y-56490000D02*
X88240000Y-56440000D01*
X88240000Y-58390000D02*
X88240000Y-57610000D01*
X88240000Y-59560000D02*
X88240000Y-59510000D01*
X89760000Y-56440000D02*
X89760000Y-57440000D01*
X89760000Y-58560000D02*
X89760000Y-59560000D01*
X89760000Y-59560000D02*
X88240000Y-59560000D01*
X87700000Y-57620000D02*
X87940000Y-57950000D01*
X87460000Y-57950000D01*
X87700000Y-57620000D01*
G36*
X87940000Y-57950000D02*
G01*
X87460000Y-57950000D01*
X87700000Y-57620000D01*
X87940000Y-57950000D01*
G37*
%TO.C,R1*%
X28762742Y-77477500D02*
X29237258Y-77477500D01*
X28762742Y-78522500D02*
X29237258Y-78522500D01*
%TO.C,R19*%
X97762742Y-69477500D02*
X98237258Y-69477500D01*
X97762742Y-70522500D02*
X98237258Y-70522500D01*
%TO.C,U2*%
X31090000Y-61440000D02*
X32910000Y-61440000D01*
X31090000Y-61490000D02*
X31090000Y-61440000D01*
X31090000Y-64560000D02*
X31090000Y-64510000D01*
X32910000Y-61440000D02*
X32910000Y-61490000D01*
X32910000Y-64510000D02*
X32910000Y-64560000D01*
X32910000Y-64560000D02*
X31090000Y-64560000D01*
X30550000Y-61490000D02*
X30310000Y-61160000D01*
X30790000Y-61160000D01*
X30550000Y-61490000D01*
G36*
X30550000Y-61490000D02*
G01*
X30310000Y-61160000D01*
X30790000Y-61160000D01*
X30550000Y-61490000D01*
G37*
%TO.C,R11*%
X95762742Y-50477500D02*
X96237258Y-50477500D01*
X95762742Y-51522500D02*
X96237258Y-51522500D01*
%TO.C,C12*%
X16738748Y-29265000D02*
X17261252Y-29265000D01*
X16738748Y-30735000D02*
X17261252Y-30735000D01*
%TO.C,R15*%
X88762742Y-52477500D02*
X89237258Y-52477500D01*
X88762742Y-53522500D02*
X89237258Y-53522500D01*
%TO.C,R7*%
X100762742Y-74477500D02*
X101237258Y-74477500D01*
X100762742Y-75522500D02*
X101237258Y-75522500D01*
%TO.C,R12*%
X95762742Y-54477500D02*
X96237258Y-54477500D01*
X95762742Y-55522500D02*
X96237258Y-55522500D01*
%TO.C,R2*%
X31762742Y-77477500D02*
X32237258Y-77477500D01*
X31762742Y-78522500D02*
X32237258Y-78522500D01*
%TO.C,SW2*%
X90280000Y-81040000D02*
X90280000Y-78960000D01*
X91550000Y-77280000D02*
X91060000Y-77770000D01*
X91550000Y-77280000D02*
X94450000Y-77280000D01*
X91550000Y-82720000D02*
X91060000Y-82230000D01*
X91550000Y-82720000D02*
X94450000Y-82720000D01*
X94450000Y-77280000D02*
X94940000Y-77770000D01*
X94450000Y-82720000D02*
X94940000Y-82230000D01*
X95720000Y-81040000D02*
X95720000Y-78960000D01*
%TO.C,C13*%
X21859420Y-29490000D02*
X22140580Y-29490000D01*
X21859420Y-30510000D02*
X22140580Y-30510000D01*
%TO.C,C9*%
X93859420Y-28490000D02*
X94140580Y-28490000D01*
X93859420Y-29510000D02*
X94140580Y-29510000D01*
%TD*%
%LPC*%
D13*
%TO.C,R9*%
X27175000Y-20000000D03*
X28825000Y-20000000D03*
%TD*%
D14*
%TO.C,J2*%
X107550000Y-62105000D03*
X107550000Y-61005000D03*
X107550000Y-59905000D03*
X107550000Y-58805000D03*
X107550000Y-57705000D03*
X107550000Y-56605000D03*
X107550000Y-55505000D03*
D15*
X107550000Y-54455000D03*
D16*
X113700000Y-64740000D03*
X117400000Y-64740000D03*
D17*
X107675000Y-64565000D03*
D18*
X118375000Y-61240000D03*
X118375000Y-55270000D03*
D19*
X107900000Y-53245000D03*
%TD*%
D20*
%TO.C,GPS1*%
X9875000Y-22800000D03*
D21*
X9875000Y-20900000D03*
X9875000Y-19000000D03*
X9875000Y-17100000D03*
X9875000Y-15200000D03*
D22*
X13200000Y-11875000D03*
X15100000Y-11875000D03*
X17000000Y-11875000D03*
X18900000Y-11875000D03*
X20800000Y-11875000D03*
D21*
X24125000Y-15200000D03*
X24125000Y-17100000D03*
X24125000Y-19000000D03*
X24125000Y-20900000D03*
X24125000Y-22800000D03*
D22*
X20800000Y-26125000D03*
X18900000Y-26125000D03*
X17000000Y-26125000D03*
X15100000Y-26125000D03*
X13200000Y-26125000D03*
%TD*%
D23*
%TO.C,D1*%
X39000000Y-78000000D03*
X39000000Y-74000000D03*
%TD*%
D24*
%TO.C,BZ1*%
X74500000Y-58000000D03*
D25*
X83500000Y-58000000D03*
%TD*%
D26*
%TO.C,J5*%
X2550000Y-44270000D03*
X2550000Y-48520000D03*
X2550000Y-40020000D03*
%TD*%
D27*
%TO.C,C15*%
X108225000Y-68000000D03*
X109775000Y-68000000D03*
%TD*%
%TO.C,C6*%
X57225000Y-44000000D03*
X58775000Y-44000000D03*
%TD*%
D13*
%TO.C,R3*%
X37175000Y-61000000D03*
X38825000Y-61000000D03*
%TD*%
D28*
%TO.C,TP1*%
X68000000Y-48000000D03*
%TD*%
%TO.C,TP4*%
X83000000Y-48000000D03*
%TD*%
D29*
%TO.C,C8*%
X93050000Y-25000000D03*
X94950000Y-25000000D03*
%TD*%
D30*
%TO.C,H4*%
X5000000Y-80000000D03*
%TD*%
D13*
%TO.C,R17*%
X66175000Y-76000000D03*
X67825000Y-76000000D03*
%TD*%
D29*
%TO.C,C16*%
X67050000Y-72000000D03*
X68950000Y-72000000D03*
%TD*%
D30*
%TO.C,H3*%
X115000000Y-80000000D03*
%TD*%
D13*
%TO.C,R8*%
X27175000Y-15000000D03*
X28825000Y-15000000D03*
%TD*%
D28*
%TO.C,TP5*%
X88000000Y-48000000D03*
%TD*%
%TO.C,TP3*%
X78000000Y-48000000D03*
%TD*%
D27*
%TO.C,C7*%
X49225000Y-47000000D03*
X50775000Y-47000000D03*
%TD*%
D31*
%TO.C,D3*%
X70212500Y-76000000D03*
X71787500Y-76000000D03*
%TD*%
D32*
%TO.C,J1*%
X17110000Y-78720000D03*
X22890000Y-78720000D03*
D33*
X16800000Y-77645000D03*
X17600000Y-77645000D03*
D34*
X18750000Y-77645000D03*
X19750000Y-77645000D03*
X20250000Y-77645000D03*
X21250000Y-77645000D03*
D33*
X22400000Y-77645000D03*
X23200000Y-77645000D03*
X23200000Y-77645000D03*
X22400000Y-77645000D03*
D34*
X21750000Y-77645000D03*
X20750000Y-77645000D03*
X19250000Y-77645000D03*
X18250000Y-77645000D03*
D33*
X17600000Y-77645000D03*
X16800000Y-77645000D03*
D35*
X15680000Y-78220000D03*
D36*
X15680000Y-82400000D03*
D35*
X24320000Y-78220000D03*
D36*
X24320000Y-82400000D03*
%TD*%
D37*
%TO.C,L1*%
X54650000Y-69000000D03*
X59350000Y-69000000D03*
%TD*%
D13*
%TO.C,R18*%
X96175000Y-66000000D03*
X97825000Y-66000000D03*
%TD*%
D27*
%TO.C,C11*%
X25225000Y-53000000D03*
X26775000Y-53000000D03*
%TD*%
D13*
%TO.C,R4*%
X37175000Y-64000000D03*
X38825000Y-64000000D03*
%TD*%
%TO.C,R6*%
X92175000Y-75000000D03*
X93825000Y-75000000D03*
%TD*%
D30*
%TO.C,H2*%
X115000000Y-5000000D03*
%TD*%
D28*
%TO.C,TP2*%
X73000000Y-48000000D03*
%TD*%
D38*
%TO.C,F1*%
X33000000Y-74137500D03*
X33000000Y-69862500D03*
%TD*%
D39*
%TO.C,SW3*%
X100900000Y-78150000D03*
X107100000Y-78150000D03*
X100900000Y-81850000D03*
X107100000Y-81850000D03*
%TD*%
D40*
%TO.C,Q2*%
X93062500Y-69050000D03*
X93062500Y-70950000D03*
X94937500Y-70000000D03*
%TD*%
D29*
%TO.C,C14*%
X103050000Y-68000000D03*
X104950000Y-68000000D03*
%TD*%
D13*
%TO.C,R16*%
X89175000Y-62000000D03*
X90825000Y-62000000D03*
%TD*%
D41*
%TO.C,J4*%
X80000000Y-69000000D03*
D42*
X82000000Y-69000000D03*
%TD*%
D29*
%TO.C,C10*%
X25050000Y-48000000D03*
X26950000Y-48000000D03*
%TD*%
D43*
%TO.C,J3*%
X61500000Y-77000000D03*
X62500000Y-77000000D03*
X63500000Y-77000000D03*
X64500000Y-77000000D03*
D44*
X60200000Y-80875000D03*
X65800000Y-80875000D03*
%TD*%
D13*
%TO.C,R14*%
X95175000Y-63000000D03*
X96825000Y-63000000D03*
%TD*%
D45*
%TO.C,U1*%
X51250000Y-22740000D03*
X51250000Y-24010000D03*
X51250000Y-25280000D03*
X51250000Y-26550000D03*
X51250000Y-27820000D03*
X51250000Y-29090000D03*
X51250000Y-30360000D03*
X51250000Y-31630000D03*
X51250000Y-32900000D03*
X51250000Y-34170000D03*
X51250000Y-35440000D03*
X51250000Y-36710000D03*
X51250000Y-37980000D03*
X51250000Y-39250000D03*
D46*
X53015000Y-40500000D03*
X54285000Y-40500000D03*
X55555000Y-40500000D03*
X56825000Y-40500000D03*
X58095000Y-40500000D03*
X59365000Y-40500000D03*
X60635000Y-40500000D03*
X61905000Y-40500000D03*
X63175000Y-40500000D03*
X64445000Y-40500000D03*
X65715000Y-40500000D03*
X66985000Y-40500000D03*
D45*
X68750000Y-39250000D03*
X68750000Y-37980000D03*
X68750000Y-36710000D03*
X68750000Y-35440000D03*
X68750000Y-34170000D03*
X68750000Y-32900000D03*
X68750000Y-31630000D03*
X68750000Y-30360000D03*
X68750000Y-29090000D03*
X68750000Y-27820000D03*
X68750000Y-26550000D03*
X68750000Y-25280000D03*
X68750000Y-24010000D03*
X68750000Y-22740000D03*
D47*
X57100000Y-29760000D03*
X57100000Y-31160000D03*
X57800000Y-29060000D03*
X57800000Y-30460000D03*
X57800000Y-31860000D03*
X58500000Y-29760000D03*
D48*
X58500000Y-30460000D03*
D47*
X58500000Y-31160000D03*
X59200000Y-29060000D03*
X59200000Y-30460000D03*
X59200000Y-31860000D03*
X59900000Y-29760000D03*
X59900000Y-31160000D03*
%TD*%
D49*
%TO.C,C4*%
X62525000Y-72000000D03*
X65475000Y-72000000D03*
%TD*%
D30*
%TO.C,H1*%
X5000000Y-5000000D03*
%TD*%
D13*
%TO.C,R5*%
X45175000Y-47000000D03*
X46825000Y-47000000D03*
%TD*%
%TO.C,R10*%
X27175000Y-25000000D03*
X28825000Y-25000000D03*
%TD*%
D50*
%TO.C,D2*%
X66300000Y-58000000D03*
X70700000Y-58000000D03*
%TD*%
D49*
%TO.C,C1*%
X43525000Y-76000000D03*
X46475000Y-76000000D03*
%TD*%
D29*
%TO.C,C5*%
X53050000Y-44000000D03*
X54950000Y-44000000D03*
%TD*%
D51*
%TO.C,U3*%
X45862500Y-68050000D03*
X45862500Y-69000000D03*
X45862500Y-69950000D03*
X48137500Y-69950000D03*
X48137500Y-69000000D03*
X48137500Y-68050000D03*
%TD*%
D52*
%TO.C,RF1*%
X98750000Y-19110000D03*
D53*
X98750000Y-21650000D03*
X98750000Y-24190000D03*
X98750000Y-26730000D03*
X98750000Y-29270000D03*
X98750000Y-31810000D03*
X98750000Y-34350000D03*
X98750000Y-36890000D03*
%TD*%
D39*
%TO.C,SW1*%
X78900000Y-78150000D03*
X85100000Y-78150000D03*
X78900000Y-81850000D03*
X85100000Y-81850000D03*
%TD*%
D54*
%TO.C,D4*%
X74000000Y-72200000D03*
X74000000Y-67800000D03*
%TD*%
D49*
%TO.C,C3*%
X62525000Y-66000000D03*
X65475000Y-66000000D03*
%TD*%
D27*
%TO.C,C2*%
X50225000Y-64000000D03*
X51775000Y-64000000D03*
%TD*%
D13*
%TO.C,R13*%
X95175000Y-59000000D03*
X96825000Y-59000000D03*
%TD*%
D40*
%TO.C,Q1*%
X88062500Y-57050000D03*
X88062500Y-58950000D03*
X89937500Y-58000000D03*
%TD*%
D55*
%TO.C,RF2*%
X21750000Y-43000000D03*
X21750000Y-44270000D03*
X21750000Y-45540000D03*
X21750000Y-51910000D03*
X21750000Y-53180000D03*
X21750000Y-54450000D03*
X21750000Y-55720000D03*
X21750000Y-56990000D03*
X21750000Y-58260000D03*
X21750000Y-59530000D03*
X21750000Y-60800000D03*
X8250000Y-60800000D03*
X8250000Y-59530000D03*
X8250000Y-58260000D03*
X8250000Y-56990000D03*
X8250000Y-55720000D03*
X8250000Y-54450000D03*
X8250000Y-53180000D03*
X8250000Y-51910000D03*
X8250000Y-45540000D03*
X8250000Y-44270000D03*
X8250000Y-43000000D03*
%TD*%
D13*
%TO.C,R1*%
X28175000Y-78000000D03*
X29825000Y-78000000D03*
%TD*%
%TO.C,R19*%
X97175000Y-70000000D03*
X98825000Y-70000000D03*
%TD*%
D51*
%TO.C,U2*%
X30862500Y-62050000D03*
X30862500Y-63000000D03*
X30862500Y-63950000D03*
X33137500Y-63950000D03*
X33137500Y-63000000D03*
X33137500Y-62050000D03*
%TD*%
D13*
%TO.C,R11*%
X95175000Y-51000000D03*
X96825000Y-51000000D03*
%TD*%
D29*
%TO.C,C12*%
X16050000Y-30000000D03*
X17950000Y-30000000D03*
%TD*%
D13*
%TO.C,R15*%
X88175000Y-53000000D03*
X89825000Y-53000000D03*
%TD*%
%TO.C,R7*%
X100175000Y-75000000D03*
X101825000Y-75000000D03*
%TD*%
%TO.C,R12*%
X95175000Y-55000000D03*
X96825000Y-55000000D03*
%TD*%
%TO.C,R2*%
X31175000Y-78000000D03*
X32825000Y-78000000D03*
%TD*%
D39*
%TO.C,SW2*%
X89900000Y-78150000D03*
X96100000Y-78150000D03*
X89900000Y-81850000D03*
X96100000Y-81850000D03*
%TD*%
D27*
%TO.C,C13*%
X21225000Y-30000000D03*
X22775000Y-30000000D03*
%TD*%
%TO.C,C9*%
X93225000Y-29000000D03*
X94775000Y-29000000D03*
%TD*%
%LPD*%
M02*
