%TF.GenerationSoftware,KiCad,Pcbnew,10.0.5*%
%TF.CreationDate,2026-08-12T20:20:52+03:00*%
%TF.ProjectId,skysweep32_rev_c,736b7973-7765-4657-9033-325f7265765f,rev?*%
%TF.SameCoordinates,Original*%
%TF.FileFunction,Legend,Bot*%
%TF.FilePolarity,Positive*%
%FSLAX46Y46*%
G04 Gerber Fmt 4.6, Leading zero omitted, Abs format (unit mm)*
G04 Created by KiCad (PCBNEW 10.0.5) date 2026-08-12 20:20:52*
%MOMM*%
%LPD*%
G01*
G04 APERTURE LIST*
G04 Aperture macros list*
%AMRoundRect*
0 Rectangle with rounded corners*
0 $1 Rounding radius*
0 $2 $3 $4 $5 $6 $7 $8 $9 X,Y pos of 4 corners*
0 Add a 4 corners polygon primitive as box body*
4,1,4,$2,$3,$4,$5,$6,$7,$8,$9,$2,$3,0*
0 Add four circle primitives for the rounded corners*
1,1,$1+$1,$2,$3*
1,1,$1+$1,$4,$5*
1,1,$1+$1,$6,$7*
1,1,$1+$1,$8,$9*
0 Add four rect primitives between the rounded corners*
20,1,$1+$1,$2,$3,$4,$5,0*
20,1,$1+$1,$4,$5,$6,$7,0*
20,1,$1+$1,$6,$7,$8,$9,0*
20,1,$1+$1,$8,$9,$2,$3,0*%
G04 Aperture macros list end*
%ADD10C,0.150000*%
%ADD11C,3.200000*%
%ADD12R,5.080000X1.500000*%
%ADD13RoundRect,0.250000X-0.350000X-0.625000X0.350000X-0.625000X0.350000X0.625000X-0.350000X0.625000X0*%
%ADD14O,1.200000X1.750000*%
%ADD15O,2.200000X3.500000*%
%ADD16R,1.500000X2.500000*%
%ADD17O,1.500000X2.500000*%
%ADD18C,0.650000*%
%ADD19O,1.000000X2.100000*%
%ADD20O,1.000000X1.800000*%
%ADD21C,0.600000*%
G04 APERTURE END LIST*
D10*
X91342860Y-800390D02*
X91419050Y-762295D01*
X91419050Y-762295D02*
X91533336Y-762295D01*
X91533336Y-762295D02*
X91647622Y-800390D01*
X91647622Y-800390D02*
X91723812Y-876580D01*
X91723812Y-876580D02*
X91761907Y-952771D01*
X91761907Y-952771D02*
X91800003Y-1105152D01*
X91800003Y-1105152D02*
X91800003Y-1219438D01*
X91800003Y-1219438D02*
X91761907Y-1371819D01*
X91761907Y-1371819D02*
X91723812Y-1448009D01*
X91723812Y-1448009D02*
X91647622Y-1524200D01*
X91647622Y-1524200D02*
X91533336Y-1562295D01*
X91533336Y-1562295D02*
X91457145Y-1562295D01*
X91457145Y-1562295D02*
X91342860Y-1524200D01*
X91342860Y-1524200D02*
X91304764Y-1486104D01*
X91304764Y-1486104D02*
X91304764Y-1219438D01*
X91304764Y-1219438D02*
X91457145Y-1219438D01*
X90961907Y-1562295D02*
X90961907Y-762295D01*
X90961907Y-762295D02*
X90657145Y-762295D01*
X90657145Y-762295D02*
X90580955Y-800390D01*
X90580955Y-800390D02*
X90542860Y-838485D01*
X90542860Y-838485D02*
X90504764Y-914676D01*
X90504764Y-914676D02*
X90504764Y-1028961D01*
X90504764Y-1028961D02*
X90542860Y-1105152D01*
X90542860Y-1105152D02*
X90580955Y-1143247D01*
X90580955Y-1143247D02*
X90657145Y-1181342D01*
X90657145Y-1181342D02*
X90961907Y-1181342D01*
X89780955Y-1562295D02*
X90161907Y-1562295D01*
X90161907Y-1562295D02*
X90161907Y-762295D01*
X89514288Y-1257533D02*
X88904765Y-1257533D01*
X88600003Y-762295D02*
X88104765Y-762295D01*
X88104765Y-762295D02*
X88371431Y-1067057D01*
X88371431Y-1067057D02*
X88257146Y-1067057D01*
X88257146Y-1067057D02*
X88180955Y-1105152D01*
X88180955Y-1105152D02*
X88142860Y-1143247D01*
X88142860Y-1143247D02*
X88104765Y-1219438D01*
X88104765Y-1219438D02*
X88104765Y-1409914D01*
X88104765Y-1409914D02*
X88142860Y-1486104D01*
X88142860Y-1486104D02*
X88180955Y-1524200D01*
X88180955Y-1524200D02*
X88257146Y-1562295D01*
X88257146Y-1562295D02*
X88485717Y-1562295D01*
X88485717Y-1562295D02*
X88561908Y-1524200D01*
X88561908Y-1524200D02*
X88600003Y-1486104D01*
X87761907Y-1486104D02*
X87723812Y-1524200D01*
X87723812Y-1524200D02*
X87761907Y-1562295D01*
X87761907Y-1562295D02*
X87800003Y-1524200D01*
X87800003Y-1524200D02*
X87761907Y-1486104D01*
X87761907Y-1486104D02*
X87761907Y-1562295D01*
X87228574Y-762295D02*
X87152384Y-762295D01*
X87152384Y-762295D02*
X87076193Y-800390D01*
X87076193Y-800390D02*
X87038098Y-838485D01*
X87038098Y-838485D02*
X87000003Y-914676D01*
X87000003Y-914676D02*
X86961908Y-1067057D01*
X86961908Y-1067057D02*
X86961908Y-1257533D01*
X86961908Y-1257533D02*
X87000003Y-1409914D01*
X87000003Y-1409914D02*
X87038098Y-1486104D01*
X87038098Y-1486104D02*
X87076193Y-1524200D01*
X87076193Y-1524200D02*
X87152384Y-1562295D01*
X87152384Y-1562295D02*
X87228574Y-1562295D01*
X87228574Y-1562295D02*
X87304765Y-1524200D01*
X87304765Y-1524200D02*
X87342860Y-1486104D01*
X87342860Y-1486104D02*
X87380955Y-1409914D01*
X87380955Y-1409914D02*
X87419051Y-1257533D01*
X87419051Y-1257533D02*
X87419051Y-1067057D01*
X87419051Y-1067057D02*
X87380955Y-914676D01*
X87380955Y-914676D02*
X87342860Y-838485D01*
X87342860Y-838485D02*
X87304765Y-800390D01*
X87304765Y-800390D02*
X87228574Y-762295D01*
X86619050Y-1257533D02*
X86009527Y-1257533D01*
X85514289Y-1562295D02*
X85590479Y-1524200D01*
X85590479Y-1524200D02*
X85628574Y-1486104D01*
X85628574Y-1486104D02*
X85666670Y-1409914D01*
X85666670Y-1409914D02*
X85666670Y-1181342D01*
X85666670Y-1181342D02*
X85628574Y-1105152D01*
X85628574Y-1105152D02*
X85590479Y-1067057D01*
X85590479Y-1067057D02*
X85514289Y-1028961D01*
X85514289Y-1028961D02*
X85400003Y-1028961D01*
X85400003Y-1028961D02*
X85323812Y-1067057D01*
X85323812Y-1067057D02*
X85285717Y-1105152D01*
X85285717Y-1105152D02*
X85247622Y-1181342D01*
X85247622Y-1181342D02*
X85247622Y-1409914D01*
X85247622Y-1409914D02*
X85285717Y-1486104D01*
X85285717Y-1486104D02*
X85323812Y-1524200D01*
X85323812Y-1524200D02*
X85400003Y-1562295D01*
X85400003Y-1562295D02*
X85514289Y-1562295D01*
X84904764Y-1028961D02*
X84904764Y-1562295D01*
X84904764Y-1105152D02*
X84866669Y-1067057D01*
X84866669Y-1067057D02*
X84790479Y-1028961D01*
X84790479Y-1028961D02*
X84676193Y-1028961D01*
X84676193Y-1028961D02*
X84600002Y-1067057D01*
X84600002Y-1067057D02*
X84561907Y-1143247D01*
X84561907Y-1143247D02*
X84561907Y-1562295D01*
X84066669Y-1562295D02*
X84142859Y-1524200D01*
X84142859Y-1524200D02*
X84180954Y-1448009D01*
X84180954Y-1448009D02*
X84180954Y-762295D01*
X83838097Y-1028961D02*
X83647621Y-1562295D01*
X83457144Y-1028961D02*
X83647621Y-1562295D01*
X83647621Y-1562295D02*
X83723811Y-1752771D01*
X83723811Y-1752771D02*
X83761906Y-1790866D01*
X83761906Y-1790866D02*
X83838097Y-1828961D01*
X82352382Y-1828961D02*
X82352382Y-686104D01*
X80828572Y-1028961D02*
X80828572Y-1676580D01*
X80828572Y-1676580D02*
X80866667Y-1752771D01*
X80866667Y-1752771D02*
X80904763Y-1790866D01*
X80904763Y-1790866D02*
X80980953Y-1828961D01*
X80980953Y-1828961D02*
X81095239Y-1828961D01*
X81095239Y-1828961D02*
X81171429Y-1790866D01*
X80828572Y-1524200D02*
X80904763Y-1562295D01*
X80904763Y-1562295D02*
X81057144Y-1562295D01*
X81057144Y-1562295D02*
X81133334Y-1524200D01*
X81133334Y-1524200D02*
X81171429Y-1486104D01*
X81171429Y-1486104D02*
X81209525Y-1409914D01*
X81209525Y-1409914D02*
X81209525Y-1181342D01*
X81209525Y-1181342D02*
X81171429Y-1105152D01*
X81171429Y-1105152D02*
X81133334Y-1067057D01*
X81133334Y-1067057D02*
X81057144Y-1028961D01*
X81057144Y-1028961D02*
X80904763Y-1028961D01*
X80904763Y-1028961D02*
X80828572Y-1067057D01*
X80447619Y-1562295D02*
X80447619Y-1028961D01*
X80447619Y-762295D02*
X80485715Y-800390D01*
X80485715Y-800390D02*
X80447619Y-838485D01*
X80447619Y-838485D02*
X80409524Y-800390D01*
X80409524Y-800390D02*
X80447619Y-762295D01*
X80447619Y-762295D02*
X80447619Y-838485D01*
X80180953Y-1028961D02*
X79876191Y-1028961D01*
X80066667Y-762295D02*
X80066667Y-1448009D01*
X80066667Y-1448009D02*
X80028572Y-1524200D01*
X80028572Y-1524200D02*
X79952382Y-1562295D01*
X79952382Y-1562295D02*
X79876191Y-1562295D01*
X79609524Y-1562295D02*
X79609524Y-762295D01*
X79266667Y-1562295D02*
X79266667Y-1143247D01*
X79266667Y-1143247D02*
X79304762Y-1067057D01*
X79304762Y-1067057D02*
X79380953Y-1028961D01*
X79380953Y-1028961D02*
X79495239Y-1028961D01*
X79495239Y-1028961D02*
X79571429Y-1067057D01*
X79571429Y-1067057D02*
X79609524Y-1105152D01*
X78542857Y-1028961D02*
X78542857Y-1562295D01*
X78885714Y-1028961D02*
X78885714Y-1448009D01*
X78885714Y-1448009D02*
X78847619Y-1524200D01*
X78847619Y-1524200D02*
X78771429Y-1562295D01*
X78771429Y-1562295D02*
X78657143Y-1562295D01*
X78657143Y-1562295D02*
X78580952Y-1524200D01*
X78580952Y-1524200D02*
X78542857Y-1486104D01*
X78161904Y-1562295D02*
X78161904Y-762295D01*
X78161904Y-1067057D02*
X78085714Y-1028961D01*
X78085714Y-1028961D02*
X77933333Y-1028961D01*
X77933333Y-1028961D02*
X77857142Y-1067057D01*
X77857142Y-1067057D02*
X77819047Y-1105152D01*
X77819047Y-1105152D02*
X77780952Y-1181342D01*
X77780952Y-1181342D02*
X77780952Y-1409914D01*
X77780952Y-1409914D02*
X77819047Y-1486104D01*
X77819047Y-1486104D02*
X77857142Y-1524200D01*
X77857142Y-1524200D02*
X77933333Y-1562295D01*
X77933333Y-1562295D02*
X78085714Y-1562295D01*
X78085714Y-1562295D02*
X78161904Y-1524200D01*
X77438094Y-1486104D02*
X77399999Y-1524200D01*
X77399999Y-1524200D02*
X77438094Y-1562295D01*
X77438094Y-1562295D02*
X77476190Y-1524200D01*
X77476190Y-1524200D02*
X77438094Y-1486104D01*
X77438094Y-1486104D02*
X77438094Y-1562295D01*
X76714285Y-1524200D02*
X76790476Y-1562295D01*
X76790476Y-1562295D02*
X76942857Y-1562295D01*
X76942857Y-1562295D02*
X77019047Y-1524200D01*
X77019047Y-1524200D02*
X77057142Y-1486104D01*
X77057142Y-1486104D02*
X77095238Y-1409914D01*
X77095238Y-1409914D02*
X77095238Y-1181342D01*
X77095238Y-1181342D02*
X77057142Y-1105152D01*
X77057142Y-1105152D02*
X77019047Y-1067057D01*
X77019047Y-1067057D02*
X76942857Y-1028961D01*
X76942857Y-1028961D02*
X76790476Y-1028961D01*
X76790476Y-1028961D02*
X76714285Y-1067057D01*
X76257143Y-1562295D02*
X76333333Y-1524200D01*
X76333333Y-1524200D02*
X76371428Y-1486104D01*
X76371428Y-1486104D02*
X76409524Y-1409914D01*
X76409524Y-1409914D02*
X76409524Y-1181342D01*
X76409524Y-1181342D02*
X76371428Y-1105152D01*
X76371428Y-1105152D02*
X76333333Y-1067057D01*
X76333333Y-1067057D02*
X76257143Y-1028961D01*
X76257143Y-1028961D02*
X76142857Y-1028961D01*
X76142857Y-1028961D02*
X76066666Y-1067057D01*
X76066666Y-1067057D02*
X76028571Y-1105152D01*
X76028571Y-1105152D02*
X75990476Y-1181342D01*
X75990476Y-1181342D02*
X75990476Y-1409914D01*
X75990476Y-1409914D02*
X76028571Y-1486104D01*
X76028571Y-1486104D02*
X76066666Y-1524200D01*
X76066666Y-1524200D02*
X76142857Y-1562295D01*
X76142857Y-1562295D02*
X76257143Y-1562295D01*
X75647618Y-1562295D02*
X75647618Y-1028961D01*
X75647618Y-1105152D02*
X75609523Y-1067057D01*
X75609523Y-1067057D02*
X75533333Y-1028961D01*
X75533333Y-1028961D02*
X75419047Y-1028961D01*
X75419047Y-1028961D02*
X75342856Y-1067057D01*
X75342856Y-1067057D02*
X75304761Y-1143247D01*
X75304761Y-1143247D02*
X75304761Y-1562295D01*
X75304761Y-1143247D02*
X75266666Y-1067057D01*
X75266666Y-1067057D02*
X75190475Y-1028961D01*
X75190475Y-1028961D02*
X75076190Y-1028961D01*
X75076190Y-1028961D02*
X74999999Y-1067057D01*
X74999999Y-1067057D02*
X74961904Y-1143247D01*
X74961904Y-1143247D02*
X74961904Y-1562295D01*
X74009523Y-724200D02*
X74695237Y-1752771D01*
X73742856Y-1562295D02*
X73742856Y-762295D01*
X73742856Y-1067057D02*
X73666666Y-1028961D01*
X73666666Y-1028961D02*
X73514285Y-1028961D01*
X73514285Y-1028961D02*
X73438094Y-1067057D01*
X73438094Y-1067057D02*
X73399999Y-1105152D01*
X73399999Y-1105152D02*
X73361904Y-1181342D01*
X73361904Y-1181342D02*
X73361904Y-1409914D01*
X73361904Y-1409914D02*
X73399999Y-1486104D01*
X73399999Y-1486104D02*
X73438094Y-1524200D01*
X73438094Y-1524200D02*
X73514285Y-1562295D01*
X73514285Y-1562295D02*
X73666666Y-1562295D01*
X73666666Y-1562295D02*
X73742856Y-1524200D01*
X72904761Y-1562295D02*
X72980951Y-1524200D01*
X72980951Y-1524200D02*
X73019046Y-1486104D01*
X73019046Y-1486104D02*
X73057142Y-1409914D01*
X73057142Y-1409914D02*
X73057142Y-1181342D01*
X73057142Y-1181342D02*
X73019046Y-1105152D01*
X73019046Y-1105152D02*
X72980951Y-1067057D01*
X72980951Y-1067057D02*
X72904761Y-1028961D01*
X72904761Y-1028961D02*
X72790475Y-1028961D01*
X72790475Y-1028961D02*
X72714284Y-1067057D01*
X72714284Y-1067057D02*
X72676189Y-1105152D01*
X72676189Y-1105152D02*
X72638094Y-1181342D01*
X72638094Y-1181342D02*
X72638094Y-1409914D01*
X72638094Y-1409914D02*
X72676189Y-1486104D01*
X72676189Y-1486104D02*
X72714284Y-1524200D01*
X72714284Y-1524200D02*
X72790475Y-1562295D01*
X72790475Y-1562295D02*
X72904761Y-1562295D01*
X72295236Y-1562295D02*
X72295236Y-762295D01*
X72295236Y-1067057D02*
X72219046Y-1028961D01*
X72219046Y-1028961D02*
X72066665Y-1028961D01*
X72066665Y-1028961D02*
X71990474Y-1067057D01*
X71990474Y-1067057D02*
X71952379Y-1105152D01*
X71952379Y-1105152D02*
X71914284Y-1181342D01*
X71914284Y-1181342D02*
X71914284Y-1409914D01*
X71914284Y-1409914D02*
X71952379Y-1486104D01*
X71952379Y-1486104D02*
X71990474Y-1524200D01*
X71990474Y-1524200D02*
X72066665Y-1562295D01*
X72066665Y-1562295D02*
X72219046Y-1562295D01*
X72219046Y-1562295D02*
X72295236Y-1524200D01*
X71571426Y-1562295D02*
X71571426Y-762295D01*
X71571426Y-1067057D02*
X71495236Y-1028961D01*
X71495236Y-1028961D02*
X71342855Y-1028961D01*
X71342855Y-1028961D02*
X71266664Y-1067057D01*
X71266664Y-1067057D02*
X71228569Y-1105152D01*
X71228569Y-1105152D02*
X71190474Y-1181342D01*
X71190474Y-1181342D02*
X71190474Y-1409914D01*
X71190474Y-1409914D02*
X71228569Y-1486104D01*
X71228569Y-1486104D02*
X71266664Y-1524200D01*
X71266664Y-1524200D02*
X71342855Y-1562295D01*
X71342855Y-1562295D02*
X71495236Y-1562295D01*
X71495236Y-1562295D02*
X71571426Y-1524200D01*
X70542854Y-1524200D02*
X70619045Y-1562295D01*
X70619045Y-1562295D02*
X70771426Y-1562295D01*
X70771426Y-1562295D02*
X70847616Y-1524200D01*
X70847616Y-1524200D02*
X70885712Y-1448009D01*
X70885712Y-1448009D02*
X70885712Y-1143247D01*
X70885712Y-1143247D02*
X70847616Y-1067057D01*
X70847616Y-1067057D02*
X70771426Y-1028961D01*
X70771426Y-1028961D02*
X70619045Y-1028961D01*
X70619045Y-1028961D02*
X70542854Y-1067057D01*
X70542854Y-1067057D02*
X70504759Y-1143247D01*
X70504759Y-1143247D02*
X70504759Y-1219438D01*
X70504759Y-1219438D02*
X70885712Y-1295628D01*
X70161902Y-1562295D02*
X70161902Y-1028961D01*
X70161902Y-1181342D02*
X70123807Y-1105152D01*
X70123807Y-1105152D02*
X70085712Y-1067057D01*
X70085712Y-1067057D02*
X70009521Y-1028961D01*
X70009521Y-1028961D02*
X69933331Y-1028961D01*
X69323807Y-1562295D02*
X69323807Y-762295D01*
X69323807Y-1524200D02*
X69399998Y-1562295D01*
X69399998Y-1562295D02*
X69552379Y-1562295D01*
X69552379Y-1562295D02*
X69628569Y-1524200D01*
X69628569Y-1524200D02*
X69666664Y-1486104D01*
X69666664Y-1486104D02*
X69704760Y-1409914D01*
X69704760Y-1409914D02*
X69704760Y-1181342D01*
X69704760Y-1181342D02*
X69666664Y-1105152D01*
X69666664Y-1105152D02*
X69628569Y-1067057D01*
X69628569Y-1067057D02*
X69552379Y-1028961D01*
X69552379Y-1028961D02*
X69399998Y-1028961D01*
X69399998Y-1028961D02*
X69323807Y-1067057D01*
X68828569Y-1562295D02*
X68904759Y-1524200D01*
X68904759Y-1524200D02*
X68942854Y-1486104D01*
X68942854Y-1486104D02*
X68980950Y-1409914D01*
X68980950Y-1409914D02*
X68980950Y-1181342D01*
X68980950Y-1181342D02*
X68942854Y-1105152D01*
X68942854Y-1105152D02*
X68904759Y-1067057D01*
X68904759Y-1067057D02*
X68828569Y-1028961D01*
X68828569Y-1028961D02*
X68714283Y-1028961D01*
X68714283Y-1028961D02*
X68638092Y-1067057D01*
X68638092Y-1067057D02*
X68599997Y-1105152D01*
X68599997Y-1105152D02*
X68561902Y-1181342D01*
X68561902Y-1181342D02*
X68561902Y-1409914D01*
X68561902Y-1409914D02*
X68599997Y-1486104D01*
X68599997Y-1486104D02*
X68638092Y-1524200D01*
X68638092Y-1524200D02*
X68714283Y-1562295D01*
X68714283Y-1562295D02*
X68828569Y-1562295D01*
X68104759Y-1562295D02*
X68180949Y-1524200D01*
X68180949Y-1524200D02*
X68219044Y-1448009D01*
X68219044Y-1448009D02*
X68219044Y-762295D01*
X67685711Y-1562295D02*
X67761901Y-1524200D01*
X67761901Y-1524200D02*
X67799996Y-1448009D01*
X67799996Y-1448009D02*
X67799996Y-762295D01*
X67076186Y-1524200D02*
X67152377Y-1562295D01*
X67152377Y-1562295D02*
X67304758Y-1562295D01*
X67304758Y-1562295D02*
X67380948Y-1524200D01*
X67380948Y-1524200D02*
X67419044Y-1448009D01*
X67419044Y-1448009D02*
X67419044Y-1143247D01*
X67419044Y-1143247D02*
X67380948Y-1067057D01*
X67380948Y-1067057D02*
X67304758Y-1028961D01*
X67304758Y-1028961D02*
X67152377Y-1028961D01*
X67152377Y-1028961D02*
X67076186Y-1067057D01*
X67076186Y-1067057D02*
X67038091Y-1143247D01*
X67038091Y-1143247D02*
X67038091Y-1219438D01*
X67038091Y-1219438D02*
X67419044Y-1295628D01*
X66276187Y-1562295D02*
X66733330Y-1562295D01*
X66504758Y-1562295D02*
X66504758Y-762295D01*
X66504758Y-762295D02*
X66580949Y-876580D01*
X66580949Y-876580D02*
X66657139Y-952771D01*
X66657139Y-952771D02*
X66733330Y-990866D01*
X65361901Y-724200D02*
X66047615Y-1752771D01*
X65133330Y-1524200D02*
X65019044Y-1562295D01*
X65019044Y-1562295D02*
X64828568Y-1562295D01*
X64828568Y-1562295D02*
X64752377Y-1524200D01*
X64752377Y-1524200D02*
X64714282Y-1486104D01*
X64714282Y-1486104D02*
X64676187Y-1409914D01*
X64676187Y-1409914D02*
X64676187Y-1333723D01*
X64676187Y-1333723D02*
X64714282Y-1257533D01*
X64714282Y-1257533D02*
X64752377Y-1219438D01*
X64752377Y-1219438D02*
X64828568Y-1181342D01*
X64828568Y-1181342D02*
X64980949Y-1143247D01*
X64980949Y-1143247D02*
X65057139Y-1105152D01*
X65057139Y-1105152D02*
X65095234Y-1067057D01*
X65095234Y-1067057D02*
X65133330Y-990866D01*
X65133330Y-990866D02*
X65133330Y-914676D01*
X65133330Y-914676D02*
X65095234Y-838485D01*
X65095234Y-838485D02*
X65057139Y-800390D01*
X65057139Y-800390D02*
X64980949Y-762295D01*
X64980949Y-762295D02*
X64790472Y-762295D01*
X64790472Y-762295D02*
X64676187Y-800390D01*
X64333329Y-1562295D02*
X64333329Y-762295D01*
X64257139Y-1257533D02*
X64028567Y-1562295D01*
X64028567Y-1028961D02*
X64333329Y-1333723D01*
X63761901Y-1028961D02*
X63571425Y-1562295D01*
X63380948Y-1028961D02*
X63571425Y-1562295D01*
X63571425Y-1562295D02*
X63647615Y-1752771D01*
X63647615Y-1752771D02*
X63685710Y-1790866D01*
X63685710Y-1790866D02*
X63761901Y-1828961D01*
X63114282Y-1524200D02*
X62999996Y-1562295D01*
X62999996Y-1562295D02*
X62809520Y-1562295D01*
X62809520Y-1562295D02*
X62733329Y-1524200D01*
X62733329Y-1524200D02*
X62695234Y-1486104D01*
X62695234Y-1486104D02*
X62657139Y-1409914D01*
X62657139Y-1409914D02*
X62657139Y-1333723D01*
X62657139Y-1333723D02*
X62695234Y-1257533D01*
X62695234Y-1257533D02*
X62733329Y-1219438D01*
X62733329Y-1219438D02*
X62809520Y-1181342D01*
X62809520Y-1181342D02*
X62961901Y-1143247D01*
X62961901Y-1143247D02*
X63038091Y-1105152D01*
X63038091Y-1105152D02*
X63076186Y-1067057D01*
X63076186Y-1067057D02*
X63114282Y-990866D01*
X63114282Y-990866D02*
X63114282Y-914676D01*
X63114282Y-914676D02*
X63076186Y-838485D01*
X63076186Y-838485D02*
X63038091Y-800390D01*
X63038091Y-800390D02*
X62961901Y-762295D01*
X62961901Y-762295D02*
X62771424Y-762295D01*
X62771424Y-762295D02*
X62657139Y-800390D01*
X62390472Y-1028961D02*
X62238091Y-1562295D01*
X62238091Y-1562295D02*
X62085710Y-1181342D01*
X62085710Y-1181342D02*
X61933329Y-1562295D01*
X61933329Y-1562295D02*
X61780948Y-1028961D01*
X61171424Y-1524200D02*
X61247615Y-1562295D01*
X61247615Y-1562295D02*
X61399996Y-1562295D01*
X61399996Y-1562295D02*
X61476186Y-1524200D01*
X61476186Y-1524200D02*
X61514282Y-1448009D01*
X61514282Y-1448009D02*
X61514282Y-1143247D01*
X61514282Y-1143247D02*
X61476186Y-1067057D01*
X61476186Y-1067057D02*
X61399996Y-1028961D01*
X61399996Y-1028961D02*
X61247615Y-1028961D01*
X61247615Y-1028961D02*
X61171424Y-1067057D01*
X61171424Y-1067057D02*
X61133329Y-1143247D01*
X61133329Y-1143247D02*
X61133329Y-1219438D01*
X61133329Y-1219438D02*
X61514282Y-1295628D01*
X60485710Y-1524200D02*
X60561901Y-1562295D01*
X60561901Y-1562295D02*
X60714282Y-1562295D01*
X60714282Y-1562295D02*
X60790472Y-1524200D01*
X60790472Y-1524200D02*
X60828568Y-1448009D01*
X60828568Y-1448009D02*
X60828568Y-1143247D01*
X60828568Y-1143247D02*
X60790472Y-1067057D01*
X60790472Y-1067057D02*
X60714282Y-1028961D01*
X60714282Y-1028961D02*
X60561901Y-1028961D01*
X60561901Y-1028961D02*
X60485710Y-1067057D01*
X60485710Y-1067057D02*
X60447615Y-1143247D01*
X60447615Y-1143247D02*
X60447615Y-1219438D01*
X60447615Y-1219438D02*
X60828568Y-1295628D01*
X60104758Y-1028961D02*
X60104758Y-1828961D01*
X60104758Y-1067057D02*
X60028568Y-1028961D01*
X60028568Y-1028961D02*
X59876187Y-1028961D01*
X59876187Y-1028961D02*
X59799996Y-1067057D01*
X59799996Y-1067057D02*
X59761901Y-1105152D01*
X59761901Y-1105152D02*
X59723806Y-1181342D01*
X59723806Y-1181342D02*
X59723806Y-1409914D01*
X59723806Y-1409914D02*
X59761901Y-1486104D01*
X59761901Y-1486104D02*
X59799996Y-1524200D01*
X59799996Y-1524200D02*
X59876187Y-1562295D01*
X59876187Y-1562295D02*
X60028568Y-1562295D01*
X60028568Y-1562295D02*
X60104758Y-1524200D01*
X59457139Y-762295D02*
X58961901Y-762295D01*
X58961901Y-762295D02*
X59228567Y-1067057D01*
X59228567Y-1067057D02*
X59114282Y-1067057D01*
X59114282Y-1067057D02*
X59038091Y-1105152D01*
X59038091Y-1105152D02*
X58999996Y-1143247D01*
X58999996Y-1143247D02*
X58961901Y-1219438D01*
X58961901Y-1219438D02*
X58961901Y-1409914D01*
X58961901Y-1409914D02*
X58999996Y-1486104D01*
X58999996Y-1486104D02*
X59038091Y-1524200D01*
X59038091Y-1524200D02*
X59114282Y-1562295D01*
X59114282Y-1562295D02*
X59342853Y-1562295D01*
X59342853Y-1562295D02*
X59419044Y-1524200D01*
X59419044Y-1524200D02*
X59457139Y-1486104D01*
X58657139Y-838485D02*
X58619043Y-800390D01*
X58619043Y-800390D02*
X58542853Y-762295D01*
X58542853Y-762295D02*
X58352377Y-762295D01*
X58352377Y-762295D02*
X58276186Y-800390D01*
X58276186Y-800390D02*
X58238091Y-838485D01*
X58238091Y-838485D02*
X58199996Y-914676D01*
X58199996Y-914676D02*
X58199996Y-990866D01*
X58199996Y-990866D02*
X58238091Y-1105152D01*
X58238091Y-1105152D02*
X58695234Y-1562295D01*
X58695234Y-1562295D02*
X58199996Y-1562295D01*
%LPC*%
D11*
%TO.C,H3*%
X145000000Y-90000000D03*
%TD*%
D12*
%TO.C,J7*%
X147450000Y-36390000D03*
X147450000Y-44890000D03*
%TD*%
%TO.C,J5*%
X2550000Y-54250000D03*
X2550000Y-45750000D03*
%TD*%
D13*
%TO.C,J4*%
X92000000Y-88000000D03*
D14*
X94000000Y-88000000D03*
%TD*%
D15*
%TO.C,SW4*%
X55900000Y-89000000D03*
X64100000Y-89000000D03*
D16*
X58000000Y-89000000D03*
D17*
X60000000Y-89000000D03*
X62000000Y-89000000D03*
%TD*%
D11*
%TO.C,H1*%
X5000000Y-5000000D03*
%TD*%
D18*
%TO.C,J1*%
X32110000Y-88720000D03*
X37890000Y-88720000D03*
D19*
X30680000Y-88220000D03*
D20*
X30680000Y-92400000D03*
D19*
X39320000Y-88220000D03*
D20*
X39320000Y-92400000D03*
%TD*%
D11*
%TO.C,H2*%
X145000000Y-5000000D03*
%TD*%
D21*
%TO.C,U5*%
X51500000Y-68250000D03*
X51500000Y-69750000D03*
X52000000Y-69000000D03*
X52500000Y-68250000D03*
X52500000Y-69750000D03*
%TD*%
D11*
%TO.C,H4*%
X5000000Y-90000000D03*
%TD*%
%LPD*%
M02*
