%TF.GenerationSoftware,KiCad,Pcbnew,10.0.5*%
%TF.CreationDate,2026-08-11T15:36:02+03:00*%
%TF.ProjectId,skysweep32_rev_c,736b7973-7765-4657-9033-325f7265765f,rev?*%
%TF.SameCoordinates,Original*%
%TF.FileFunction,Copper,L3,Inr*%
%TF.FilePolarity,Positive*%
%FSLAX46Y46*%
G04 Gerber Fmt 4.6, Leading zero omitted, Abs format (unit mm)*
G04 Created by KiCad (PCBNEW 10.0.5) date 2026-08-11 15:36:02*
%MOMM*%
%LPD*%
G01*
G04 APERTURE LIST*
G04 Aperture macros list*
%AMRoundRect*
0 Rectangle with rounded corners*
0 $1 Rounding radius*
0 $2 $3 $4 $5 $6 $7 $8 $9 X,Y pos of 4 corners*
0 Add a 4 corners polygon primitive as box body*
4,1,4,$2,$3,$4,$5,$6,$7,$8,$9,$2,$3,0*
0 Add four circle primitives for the rounded corners*
1,1,$1+$1,$2,$3*
1,1,$1+$1,$4,$5*
1,1,$1+$1,$6,$7*
1,1,$1+$1,$8,$9*
0 Add four rect primitives between the rounded corners*
20,1,$1+$1,$2,$3,$4,$5,0*
20,1,$1+$1,$4,$5,$6,$7,0*
20,1,$1+$1,$6,$7,$8,$9,0*
20,1,$1+$1,$8,$9,$2,$3,0*%
G04 Aperture macros list end*
%TA.AperFunction,ComponentPad*%
%ADD10O,1.000000X2.100000*%
%TD*%
%TA.AperFunction,ComponentPad*%
%ADD11O,1.000000X1.800000*%
%TD*%
%TA.AperFunction,ComponentPad*%
%ADD12RoundRect,0.250000X-0.350000X-0.625000X0.350000X-0.625000X0.350000X0.625000X-0.350000X0.625000X0*%
%TD*%
%TA.AperFunction,ComponentPad*%
%ADD13O,1.200000X1.750000*%
%TD*%
%TA.AperFunction,HeatsinkPad*%
%ADD14C,0.600000*%
%TD*%
%TA.AperFunction,ComponentPad*%
%ADD15R,1.800000X1.800000*%
%TD*%
%TA.AperFunction,ComponentPad*%
%ADD16C,1.800000*%
%TD*%
%TA.AperFunction,ViaPad*%
%ADD17C,0.700000*%
%TD*%
%TA.AperFunction,ViaPad*%
%ADD18C,0.600000*%
%TD*%
%TA.AperFunction,ViaPad*%
%ADD19C,0.900000*%
%TD*%
%TA.AperFunction,ViaPad*%
%ADD20C,1.000000*%
%TD*%
%TA.AperFunction,Conductor*%
%ADD21C,0.250000*%
%TD*%
G04 APERTURE END LIST*
D10*
%TO.N,GND*%
%TO.C,J1*%
X15680000Y-78220000D03*
D11*
X15680000Y-82400000D03*
D10*
X24320000Y-78220000D03*
D11*
X24320000Y-82400000D03*
%TD*%
D12*
%TO.N,VBUS_PROTECTED*%
%TO.C,J4*%
X80000000Y-69000000D03*
D13*
%TO.N,VIBRATION_DRAIN*%
X82000000Y-69000000D03*
%TD*%
D14*
%TO.N,GND*%
%TO.C,U1*%
X57100000Y-29760000D03*
X57100000Y-31160000D03*
X57800000Y-29060000D03*
X57800000Y-30460000D03*
X57800000Y-31860000D03*
X58500000Y-29760000D03*
X58500000Y-31160000D03*
X59200000Y-29060000D03*
X59200000Y-30460000D03*
X59200000Y-31860000D03*
X59900000Y-29760000D03*
X59900000Y-31160000D03*
%TD*%
D15*
%TO.N,GND*%
%TO.C,RF1*%
X98750000Y-19110000D03*
D16*
%TO.N,3V3*%
X98750000Y-21650000D03*
%TO.N,NRF24_CE*%
X98750000Y-24190000D03*
%TO.N,NRF24_CSN*%
X98750000Y-26730000D03*
%TO.N,RF_SPI_SCK*%
X98750000Y-29270000D03*
%TO.N,RF_SPI_MOSI*%
X98750000Y-31810000D03*
%TO.N,RF_SPI_MISO*%
X98750000Y-34350000D03*
%TO.N,unconnected-(RF1-Pin_8-Pad8)*%
X98750000Y-36890000D03*
%TD*%
D17*
%TO.N,I2C_SDA*%
X69769000Y-77070000D03*
X27175000Y-21031300D03*
X66789600Y-24010000D03*
%TO.N,GPS_I2C_SDA*%
X26698100Y-17250100D03*
X22186200Y-10172400D03*
%TO.N,SD_DAT2*%
X98203800Y-55009400D03*
X104646200Y-62948000D03*
%TO.N,SD_CSN*%
X93975900Y-57986300D03*
X78622300Y-35193400D03*
%TO.N,SD_SPI_MOSI*%
X94375600Y-56537300D03*
X85419700Y-37980000D03*
D18*
%TO.N,3V3*%
X18900000Y-27100000D03*
D19*
X45862500Y-66000000D03*
D17*
%TO.N,SD_SPI_SCK*%
X105649500Y-57705000D03*
X92343800Y-36710000D03*
%TO.N,GND*%
X93313100Y-81850000D03*
X107463800Y-63234600D03*
D18*
X9000000Y-45540000D03*
D17*
X55823700Y-45539300D03*
X47207000Y-78497100D03*
X93863900Y-72682800D03*
X62432400Y-67480500D03*
X21968800Y-32163500D03*
X49697400Y-76006700D03*
X11826500Y-25502500D03*
X114781200Y-66532100D03*
D18*
X9000000Y-43000000D03*
D17*
X21968800Y-41356300D03*
X59545400Y-44839500D03*
X52856600Y-35372400D03*
X7633900Y-17420400D03*
X20874900Y-28060500D03*
%TO.N,SD_SPI_MISO*%
X97481200Y-53248200D03*
X89961600Y-35913700D03*
%TO.N,SD_DETECT*%
X114949100Y-62692000D03*
X66833400Y-33914300D03*
X91375700Y-59705900D03*
%TO.N,GPS_PPS*%
X55391900Y-35006400D03*
X24025500Y-8420100D03*
%TO.N,GPS_RX*%
X26068700Y-20900000D03*
X63828000Y-37855700D03*
%TO.N,GPS_TX*%
X26818300Y-26275800D03*
X65591700Y-42727000D03*
%TO.N,GPS_RESET_N*%
X16556200Y-28058000D03*
X29781300Y-15179100D03*
%TO.N,BUZZER_DRAIN*%
X69160200Y-58118000D03*
X85179600Y-58000000D03*
%TO.N,USB_D_P*%
X49922100Y-39250000D03*
X39358100Y-59990700D03*
%TO.N,UART0_TX*%
X81922100Y-48000000D03*
X74335300Y-32405800D03*
%TO.N,ALERT_LED*%
X66465900Y-74924600D03*
X67215700Y-31630000D03*
%TO.N,UART0_RX*%
X70525100Y-28445500D03*
X80047300Y-46453600D03*
%TO.N,MCU_EN*%
X48593300Y-31117100D03*
X49183000Y-45938200D03*
X72745400Y-77551500D03*
D19*
%TO.N,VBUS_RAW*%
X17600000Y-75700000D03*
D20*
X31000000Y-73300000D03*
D18*
X22400000Y-76600000D03*
%TO.N,USB_CC2*%
X31175000Y-77200000D03*
X21750000Y-79000000D03*
D17*
%TO.N,VIBRATION_GATE*%
X94485900Y-66683600D03*
X76444100Y-32586900D03*
%TO.N,USB_D_N*%
X40168700Y-63873000D03*
X50619900Y-41131300D03*
%TO.N,BOOT_N*%
X88416600Y-78150000D03*
X71008800Y-39250000D03*
%TO.N,USER_BUTTON_N*%
X99461900Y-77294500D03*
X71642700Y-29333800D03*
%TO.N,I2C_SCL*%
X66809100Y-28970200D03*
X31333500Y-24437900D03*
X64675600Y-75669700D03*
%TO.N,CC1101_GDO0*%
X11254800Y-56840500D03*
X23556700Y-32132100D03*
%TO.N,CC1101_GDO2*%
X47569200Y-32900000D03*
X19798400Y-58260000D03*
%TO.N,NRF24_CE*%
X55920800Y-36710000D03*
%TO.N,NRF24_CSN*%
X56393300Y-38872600D03*
%TO.N,CC1101_CSN*%
X14399300Y-51773900D03*
X57669600Y-42718400D03*
%TO.N,RF_SPI_MOSI*%
X58271900Y-38932900D03*
X14803500Y-54450000D03*
%TO.N,RF_SPI_SCK*%
X59105700Y-42258600D03*
X10666400Y-51334400D03*
%TO.N,RF_SPI_MISO*%
X19784300Y-55720000D03*
X53247300Y-38081900D03*
%TO.N,ALERT_BUZZER_GATE*%
X70235200Y-32900000D03*
X86080000Y-53000000D03*
%TD*%
%TO.N,I2C_SDA*%
D21*
X50719900Y-31311900D02*
X50719900Y-31001100D01*
X66789600Y-24010000D02*
X66789600Y-25200500D01*
X55091200Y-35683200D02*
X50719900Y-31311900D01*
X63272300Y-47536500D02*
X58407200Y-42671400D01*
X58407200Y-40123800D02*
X58948700Y-39582300D01*
X56652900Y-39594000D02*
X56131600Y-39594000D01*
X69679800Y-77159200D02*
X65189500Y-77159200D01*
X50719900Y-31001100D02*
X49228000Y-29509200D01*
X57994700Y-38252200D02*
X56652900Y-39594000D01*
X66789600Y-25200500D02*
X56306900Y-35683200D01*
X69769000Y-77070000D02*
X69679800Y-77159200D01*
X49228000Y-29509200D02*
X35447900Y-29509200D01*
X58407200Y-42671400D02*
X58407200Y-40123800D01*
X55190000Y-38652400D02*
X55190000Y-35683200D01*
X55190000Y-35683200D02*
X55091200Y-35683200D01*
X63272300Y-75242000D02*
X63272300Y-47536500D01*
X65189500Y-77159200D02*
X63272300Y-75242000D01*
X58948700Y-38650700D02*
X58550200Y-38252200D01*
X58550200Y-38252200D02*
X57994700Y-38252200D01*
X58948700Y-39582300D02*
X58948700Y-38650700D01*
X35447900Y-29509200D02*
X27175000Y-21236300D01*
X56131600Y-39594000D02*
X55190000Y-38652400D01*
X27175000Y-21236300D02*
X27175000Y-21031300D01*
X56306900Y-35683200D02*
X55190000Y-35683200D01*
%TO.N,GPS_I2C_SDA*%
X26698100Y-17250100D02*
X26698100Y-14684300D01*
X26698100Y-14684300D02*
X22186200Y-10172400D01*
%TO.N,SD_DAT2*%
X104646200Y-61451800D02*
X98203800Y-55009400D01*
X104646200Y-62948000D02*
X104646200Y-61451800D01*
%TO.N,SD_CSN*%
X93524300Y-50095400D02*
X78622300Y-35193400D01*
X93524300Y-57534700D02*
X93524300Y-50095400D01*
X93975900Y-57986300D02*
X93524300Y-57534700D01*
%TO.N,SD_SPI_MOSI*%
X94375600Y-56537300D02*
X94375600Y-46935900D01*
X94375600Y-46935900D02*
X85419700Y-37980000D01*
%TO.N,SD_SPI_SCK*%
X105649500Y-57705000D02*
X105649500Y-50015700D01*
X105649500Y-50015700D02*
X92343800Y-36710000D01*
%TO.N,GND*%
X56523500Y-44839500D02*
X59545400Y-44839500D01*
X21968800Y-32163500D02*
X21968800Y-29154400D01*
X57450000Y-31510000D02*
X57100000Y-31160000D01*
X59900000Y-31160000D02*
X59200000Y-30460000D01*
X54047000Y-42363000D02*
X54047000Y-36562800D01*
X58500000Y-29760000D02*
X58150000Y-29410000D01*
X59200000Y-29060000D02*
X59900000Y-29760000D01*
X114781200Y-66532100D02*
X110761300Y-66532100D01*
X57800000Y-31510000D02*
X57800000Y-31860000D01*
X24320000Y-82400000D02*
X24320000Y-80932600D01*
X7633900Y-21309900D02*
X7633900Y-17420400D01*
X24320000Y-80932600D02*
X24320000Y-78220000D01*
X93863900Y-81299200D02*
X93863900Y-72682800D01*
X57800000Y-29410000D02*
X57800000Y-29060000D01*
X55823700Y-45539300D02*
X56523500Y-44839500D01*
X11826500Y-25502500D02*
X7633900Y-21309900D01*
X15680000Y-80932600D02*
X15680000Y-78220000D01*
X21968800Y-29154400D02*
X20874900Y-28060500D01*
X54047000Y-36562800D02*
X52856600Y-35372400D01*
X59545400Y-64593500D02*
X62432400Y-67480500D01*
X93313100Y-81850000D02*
X93863900Y-81299200D01*
X59200000Y-30460000D02*
X58500000Y-29760000D01*
X15680000Y-80932600D02*
X24320000Y-80932600D01*
X59900000Y-31160000D02*
X59200000Y-31860000D01*
X58500000Y-31160000D02*
X58150000Y-31510000D01*
X110761300Y-66532100D02*
X107463800Y-63234600D01*
X57450000Y-29410000D02*
X57100000Y-29760000D01*
X59900000Y-29760000D02*
X59200000Y-30460000D01*
X57800000Y-31510000D02*
X57450000Y-31510000D01*
X58150000Y-29410000D02*
X57800000Y-29410000D01*
X58500000Y-31160000D02*
X59200000Y-31860000D01*
X57800000Y-29410000D02*
X57450000Y-29410000D01*
X21968800Y-41356300D02*
X21968800Y-32163500D01*
X59545400Y-44839500D02*
X59545400Y-64593500D01*
X58150000Y-31510000D02*
X57800000Y-31510000D01*
X56523500Y-44839500D02*
X54047000Y-42363000D01*
X15680000Y-82400000D02*
X15680000Y-80932600D01*
%TO.N,SD_SPI_MISO*%
X97481200Y-53248200D02*
X97481200Y-43433300D01*
X97481200Y-43433300D02*
X89961600Y-35913700D01*
%TO.N,SD_DETECT*%
X79697000Y-47582000D02*
X91375700Y-59260700D01*
X79580000Y-47582000D02*
X79697000Y-47582000D01*
X78918900Y-46803900D02*
X78918900Y-46920900D01*
X73240800Y-41125800D02*
X78918900Y-46803900D01*
X78918900Y-46920900D02*
X79580000Y-47582000D01*
X66833400Y-33914300D02*
X73240800Y-40321700D01*
X91375700Y-59260700D02*
X91375700Y-59705900D01*
X73240800Y-40321700D02*
X73240800Y-41125800D01*
%TO.N,GPS_PPS*%
X32020200Y-16414800D02*
X24025500Y-8420100D01*
X32020200Y-17735800D02*
X32020200Y-16414800D01*
X42752300Y-22366800D02*
X36651200Y-22366800D01*
X55391900Y-35006400D02*
X42752300Y-22366800D01*
X36651200Y-22366800D02*
X32020200Y-17735800D01*
%TO.N,GPS_RESET_N*%
X24430300Y-23045300D02*
X19417600Y-28058000D01*
X29781300Y-15179100D02*
X24430300Y-20530100D01*
X19417600Y-28058000D02*
X16556200Y-28058000D01*
X24430300Y-20530100D02*
X24430300Y-23045300D01*
%TO.N,USB_D_P*%
X49922100Y-39250000D02*
X49922100Y-49426700D01*
X49922100Y-49426700D02*
X39358100Y-59990700D01*
%TO.N,UART0_TX*%
X81922100Y-48000000D02*
X81922100Y-47361300D01*
X74953700Y-33024200D02*
X74335300Y-32405800D01*
X74953700Y-40392900D02*
X74953700Y-33024200D01*
X81922100Y-47361300D02*
X74953700Y-40392900D01*
%TO.N,ALERT_LED*%
X66156600Y-32689100D02*
X67215700Y-31630000D01*
X66156600Y-42334900D02*
X66156600Y-32689100D01*
X66465900Y-42644200D02*
X66156600Y-42334900D01*
X66465900Y-74924600D02*
X66465900Y-42644200D01*
%TO.N,UART0_RX*%
X80047300Y-46443400D02*
X80047300Y-46453600D01*
X70525100Y-28445500D02*
X70525100Y-29552500D01*
X70525100Y-29552500D02*
X74482400Y-33509800D01*
X74482400Y-40878500D02*
X80047300Y-46443400D01*
X74482400Y-33509800D02*
X74482400Y-40878500D01*
%TO.N,MCU_EN*%
X50223000Y-38541000D02*
X53303000Y-41621000D01*
X49183000Y-39006900D02*
X49183000Y-45938200D01*
X53303000Y-41621000D02*
X53303000Y-65911500D01*
X49648900Y-38541000D02*
X50223000Y-38541000D01*
X49648900Y-38541000D02*
X49183000Y-39006900D01*
X53303000Y-65911500D02*
X65138200Y-77746700D01*
X72550200Y-77746700D02*
X72745400Y-77551500D01*
X49648900Y-38541000D02*
X48593300Y-37485400D01*
X65138200Y-77746700D02*
X72550200Y-77746700D01*
X48593300Y-37485400D02*
X48593300Y-31117100D01*
%TO.N,VIBRATION_GATE*%
X77945400Y-34088200D02*
X76444100Y-32586900D01*
X94485900Y-66683600D02*
X93072500Y-65270200D01*
X93072500Y-50600900D02*
X77945400Y-35473800D01*
X93072500Y-65270200D02*
X93072500Y-50600900D01*
X77945400Y-35473800D02*
X77945400Y-34088200D01*
%TO.N,USB_D_N*%
X50619900Y-53421800D02*
X50619900Y-41131300D01*
X40168700Y-63873000D02*
X50619900Y-53421800D01*
%TO.N,BOOT_N*%
X71008800Y-39649600D02*
X88416600Y-57057400D01*
X71008800Y-39250000D02*
X71008800Y-39649600D01*
X88416600Y-57057400D02*
X88416600Y-78150000D01*
%TO.N,USER_BUTTON_N*%
X77493700Y-34606900D02*
X77493700Y-35660900D01*
X92620800Y-50788000D02*
X92620800Y-70453400D01*
X72220600Y-29333800D02*
X77493700Y-34606900D01*
X71642700Y-29333800D02*
X72220600Y-29333800D01*
X77493700Y-35660900D02*
X92620800Y-50788000D01*
X92620800Y-70453400D02*
X99461900Y-77294500D01*
%TO.N,I2C_SCL*%
X64675600Y-31103700D02*
X66809100Y-28970200D01*
X64675600Y-75669700D02*
X64675600Y-31103700D01*
%TO.N,CC1101_GDO0*%
X23556700Y-44538600D02*
X23556700Y-32132100D01*
X11254800Y-56840500D02*
X23556700Y-44538600D01*
%TO.N,CC1101_GDO2*%
X22209200Y-58260000D02*
X19798400Y-58260000D01*
X47569200Y-32900000D02*
X22209200Y-58260000D01*
%TO.N,NRF24_CE*%
X68440800Y-24190000D02*
X55920800Y-36710000D01*
X98750000Y-24190000D02*
X68440800Y-24190000D01*
%TO.N,NRF24_CSN*%
X56393300Y-38872600D02*
X56393300Y-37783800D01*
X67447100Y-26730000D02*
X98750000Y-26730000D01*
X56393300Y-37783800D02*
X67447100Y-26730000D01*
%TO.N,RF_SPI_MOSI*%
X49040900Y-29960900D02*
X39292600Y-29960900D01*
X50268200Y-31824800D02*
X50268200Y-31188200D01*
X39292600Y-29960900D02*
X14803500Y-54450000D01*
X55940300Y-40087000D02*
X54498700Y-38645400D01*
X57117800Y-40087000D02*
X55940300Y-40087000D01*
X54498700Y-38645400D02*
X54498700Y-36055300D01*
X50268200Y-31188200D02*
X49040900Y-29960900D01*
X54498700Y-36055300D02*
X50268200Y-31824800D01*
X58271900Y-38932900D02*
X57117800Y-40087000D01*
%TO.N,RF_SPI_SCK*%
X59105700Y-41621100D02*
X59105700Y-42258600D01*
X63615300Y-37111500D02*
X59105700Y-41621100D01*
X98750000Y-29270000D02*
X97237600Y-27757600D01*
X63615300Y-31200600D02*
X63615300Y-37111500D01*
X97237600Y-27757600D02*
X67058300Y-27757600D01*
X67058300Y-27757600D02*
X63615300Y-31200600D01*
%TO.N,RF_SPI_MISO*%
X45091700Y-30412600D02*
X19784300Y-55720000D01*
X49816500Y-34651100D02*
X49816500Y-31375300D01*
X48853800Y-30412600D02*
X45091700Y-30412600D01*
X53247300Y-38081900D02*
X49816500Y-34651100D01*
X49816500Y-31375300D02*
X48853800Y-30412600D01*
%TO.N,ALERT_BUZZER_GATE*%
X79370600Y-46408900D02*
X79370600Y-46733800D01*
X73692500Y-36357300D02*
X73692500Y-40730800D01*
X79370600Y-46733800D02*
X79767100Y-47130300D01*
X73692500Y-40730800D02*
X79370600Y-46408900D01*
X80092000Y-47130300D02*
X85961700Y-53000000D01*
X85961700Y-53000000D02*
X86080000Y-53000000D01*
X70235200Y-32900000D02*
X73692500Y-36357300D01*
X79767100Y-47130300D02*
X80092000Y-47130300D01*
%TD*%
%TA.AperFunction,Conductor*%
%TO.N,3V3*%
G36*
X35959191Y-618907D02*
G01*
X35995155Y-668407D01*
X36000000Y-699000D01*
X36000000Y-20874844D01*
X35981093Y-20933035D01*
X35931593Y-20968999D01*
X35870407Y-20968999D01*
X35830996Y-20944848D01*
X32474696Y-17588548D01*
X32446919Y-17534031D01*
X32445700Y-17518544D01*
X32445700Y-16358783D01*
X32445700Y-16358782D01*
X32416703Y-16250563D01*
X32416701Y-16250560D01*
X32416701Y-16250558D01*
X32360685Y-16153537D01*
X32281463Y-16074314D01*
X32281463Y-16074315D01*
X24704996Y-8497848D01*
X24677219Y-8443331D01*
X24676000Y-8427844D01*
X24676000Y-8356032D01*
X24676000Y-8356031D01*
X24651001Y-8230356D01*
X24601965Y-8111973D01*
X24601963Y-8111970D01*
X24601961Y-8111966D01*
X24573217Y-8068948D01*
X24530776Y-8005431D01*
X24440169Y-7914824D01*
X24397726Y-7886465D01*
X24333633Y-7843638D01*
X24333625Y-7843634D01*
X24215247Y-7794600D01*
X24215245Y-7794599D01*
X24215244Y-7794599D01*
X24089569Y-7769600D01*
X23961431Y-7769600D01*
X23961430Y-7769600D01*
X23898593Y-7782099D01*
X23835756Y-7794599D01*
X23835755Y-7794599D01*
X23835752Y-7794600D01*
X23717374Y-7843634D01*
X23717366Y-7843638D01*
X23610831Y-7914824D01*
X23610827Y-7914827D01*
X23520227Y-8005427D01*
X23520224Y-8005431D01*
X23449038Y-8111966D01*
X23449034Y-8111974D01*
X23400000Y-8230352D01*
X23399999Y-8230357D01*
X23375000Y-8356030D01*
X23375000Y-8484169D01*
X23399999Y-8609842D01*
X23400000Y-8609847D01*
X23449034Y-8728225D01*
X23449038Y-8728233D01*
X23491865Y-8792326D01*
X23520224Y-8834769D01*
X23610831Y-8925376D01*
X23674348Y-8967817D01*
X23717366Y-8996561D01*
X23717370Y-8996563D01*
X23717373Y-8996565D01*
X23835756Y-9045601D01*
X23961431Y-9070600D01*
X24033244Y-9070600D01*
X24091435Y-9089507D01*
X24103248Y-9099596D01*
X29467669Y-14464017D01*
X29495446Y-14518534D01*
X29485875Y-14578966D01*
X29452667Y-14616336D01*
X29366631Y-14673824D01*
X29366627Y-14673827D01*
X29276027Y-14764427D01*
X29276024Y-14764431D01*
X29204838Y-14870966D01*
X29204834Y-14870974D01*
X29155800Y-14989352D01*
X29155799Y-14989357D01*
X29130800Y-15115030D01*
X29130800Y-15186843D01*
X29111893Y-15245034D01*
X29101804Y-15256847D01*
X27416787Y-16941863D01*
X27362270Y-16969640D01*
X27301838Y-16960069D01*
X27264468Y-16926861D01*
X27244021Y-16896261D01*
X27203376Y-16835431D01*
X27152596Y-16784651D01*
X27124819Y-16730134D01*
X27123600Y-16714647D01*
X27123600Y-14628283D01*
X27116728Y-14602635D01*
X27094603Y-14520063D01*
X27094601Y-14520060D01*
X27094601Y-14520058D01*
X27038585Y-14423037D01*
X26959363Y-14343814D01*
X26959363Y-14343815D01*
X22865696Y-10250148D01*
X22837919Y-10195631D01*
X22836700Y-10180144D01*
X22836700Y-10108332D01*
X22836700Y-10108331D01*
X22811701Y-9982656D01*
X22762665Y-9864273D01*
X22762663Y-9864270D01*
X22762661Y-9864266D01*
X22733917Y-9821248D01*
X22691476Y-9757731D01*
X22600869Y-9667124D01*
X22558426Y-9638765D01*
X22494333Y-9595938D01*
X22494325Y-9595934D01*
X22375947Y-9546900D01*
X22375945Y-9546899D01*
X22375944Y-9546899D01*
X22250269Y-9521900D01*
X22122131Y-9521900D01*
X22122130Y-9521900D01*
X22059293Y-9534399D01*
X21996456Y-9546899D01*
X21996455Y-9546899D01*
X21996452Y-9546900D01*
X21878074Y-9595934D01*
X21878066Y-9595938D01*
X21771531Y-9667124D01*
X21771527Y-9667127D01*
X21680927Y-9757727D01*
X21680924Y-9757731D01*
X21609738Y-9864266D01*
X21609734Y-9864274D01*
X21560700Y-9982652D01*
X21560699Y-9982657D01*
X21535700Y-10108330D01*
X21535700Y-10236469D01*
X21560699Y-10362142D01*
X21560700Y-10362147D01*
X21609734Y-10480525D01*
X21609738Y-10480533D01*
X21652565Y-10544626D01*
X21680924Y-10587069D01*
X21771531Y-10677676D01*
X21835048Y-10720117D01*
X21878066Y-10748861D01*
X21878070Y-10748863D01*
X21878073Y-10748865D01*
X21996456Y-10797901D01*
X22122131Y-10822900D01*
X22193944Y-10822900D01*
X22252135Y-10841807D01*
X22263948Y-10851896D01*
X26243604Y-14831552D01*
X26271381Y-14886069D01*
X26272600Y-14901556D01*
X26272600Y-16714647D01*
X26253693Y-16772838D01*
X26243604Y-16784651D01*
X26192827Y-16835427D01*
X26192824Y-16835431D01*
X26121638Y-16941966D01*
X26121634Y-16941974D01*
X26072600Y-17060352D01*
X26072599Y-17060357D01*
X26047600Y-17186030D01*
X26047600Y-17314169D01*
X26072599Y-17439842D01*
X26072600Y-17439847D01*
X26121634Y-17558225D01*
X26121638Y-17558233D01*
X26156323Y-17610142D01*
X26192824Y-17664769D01*
X26283431Y-17755376D01*
X26344261Y-17796021D01*
X26374861Y-17816468D01*
X26412740Y-17864518D01*
X26415142Y-17925656D01*
X26389863Y-17968787D01*
X24169037Y-20189615D01*
X24169036Y-20189614D01*
X24089814Y-20268837D01*
X24033798Y-20365858D01*
X24026064Y-20394724D01*
X24009957Y-20454838D01*
X24004800Y-20474083D01*
X24004800Y-22828044D01*
X23985893Y-22886235D01*
X23975804Y-22898048D01*
X22669004Y-24204848D01*
X22614487Y-24232625D01*
X22554055Y-24223054D01*
X22510790Y-24179789D01*
X22500000Y-24134844D01*
X22500000Y-13500001D01*
X22500000Y-13500000D01*
X11500000Y-13500000D01*
X11500000Y-13500001D01*
X11500000Y-24335244D01*
X11481093Y-24393435D01*
X11431593Y-24429399D01*
X11370407Y-24429399D01*
X11330996Y-24405248D01*
X8088396Y-21162648D01*
X8060619Y-21108131D01*
X8059400Y-21092644D01*
X8059400Y-17955853D01*
X8078307Y-17897662D01*
X8088396Y-17885849D01*
X8109727Y-17864518D01*
X8139176Y-17835069D01*
X8210365Y-17728527D01*
X8259401Y-17610144D01*
X8284400Y-17484469D01*
X8284400Y-17356331D01*
X8259401Y-17230656D01*
X8210365Y-17112273D01*
X8210363Y-17112270D01*
X8210361Y-17112266D01*
X8175675Y-17060356D01*
X8139176Y-17005731D01*
X8048569Y-16915124D01*
X8006126Y-16886765D01*
X7942033Y-16843938D01*
X7942025Y-16843934D01*
X7823647Y-16794900D01*
X7823645Y-16794899D01*
X7823644Y-16794899D01*
X7697969Y-16769900D01*
X7569831Y-16769900D01*
X7569830Y-16769900D01*
X7506993Y-16782399D01*
X7444156Y-16794899D01*
X7444155Y-16794899D01*
X7444152Y-16794900D01*
X7325774Y-16843934D01*
X7325766Y-16843938D01*
X7219231Y-16915124D01*
X7219227Y-16915127D01*
X7128627Y-17005727D01*
X7128624Y-17005731D01*
X7057438Y-17112266D01*
X7057434Y-17112274D01*
X7008400Y-17230652D01*
X7008399Y-17230655D01*
X7008399Y-17230656D01*
X6983400Y-17356331D01*
X6983400Y-17484469D01*
X6998335Y-17559552D01*
X7008399Y-17610142D01*
X7008400Y-17610147D01*
X7057434Y-17728525D01*
X7057438Y-17728533D01*
X7099723Y-17791816D01*
X7128624Y-17835069D01*
X7128627Y-17835072D01*
X7179404Y-17885849D01*
X7207181Y-17940366D01*
X7208400Y-17955853D01*
X7208400Y-21253882D01*
X7208400Y-21365918D01*
X7229850Y-21445972D01*
X7237398Y-21474141D01*
X7281485Y-21550500D01*
X7293415Y-21571163D01*
X11147005Y-25424753D01*
X11174781Y-25479268D01*
X11176000Y-25494755D01*
X11176000Y-25566569D01*
X11192655Y-25650299D01*
X11200999Y-25692242D01*
X11201000Y-25692247D01*
X11250034Y-25810625D01*
X11250038Y-25810633D01*
X11292865Y-25874726D01*
X11321224Y-25917169D01*
X11411831Y-26007776D01*
X11475348Y-26050217D01*
X11518366Y-26078961D01*
X11518370Y-26078963D01*
X11518373Y-26078965D01*
X11636756Y-26128001D01*
X11762431Y-26153000D01*
X11762432Y-26153000D01*
X11890568Y-26153000D01*
X11890569Y-26153000D01*
X12016244Y-26128001D01*
X12134627Y-26078965D01*
X12241169Y-26007776D01*
X12331776Y-25917169D01*
X12402965Y-25810627D01*
X12452001Y-25692244D01*
X12477000Y-25566569D01*
X12477000Y-25438431D01*
X12452001Y-25312756D01*
X12402965Y-25194373D01*
X12402963Y-25194370D01*
X12402961Y-25194366D01*
X12362917Y-25134437D01*
X12331776Y-25087831D01*
X12241169Y-24997224D01*
X12198726Y-24968865D01*
X12134633Y-24926038D01*
X12134625Y-24926034D01*
X12016247Y-24877000D01*
X12016245Y-24876999D01*
X12016244Y-24876999D01*
X11890569Y-24852000D01*
X11818756Y-24852000D01*
X11760565Y-24833093D01*
X11748752Y-24823004D01*
X11594752Y-24669004D01*
X11566975Y-24614487D01*
X11576546Y-24554055D01*
X11619811Y-24510790D01*
X11664756Y-24500000D01*
X22134844Y-24500000D01*
X22193035Y-24518907D01*
X22228999Y-24568407D01*
X22228999Y-24629593D01*
X22204848Y-24669004D01*
X19270348Y-27603504D01*
X19215831Y-27631281D01*
X19200344Y-27632500D01*
X17091653Y-27632500D01*
X17033462Y-27613593D01*
X17021649Y-27603504D01*
X16970872Y-27552727D01*
X16970869Y-27552724D01*
X16928426Y-27524365D01*
X16864333Y-27481538D01*
X16864325Y-27481534D01*
X16745947Y-27432500D01*
X16745945Y-27432499D01*
X16745944Y-27432499D01*
X16620269Y-27407500D01*
X16492131Y-27407500D01*
X16492130Y-27407500D01*
X16443794Y-27417115D01*
X16366456Y-27432499D01*
X16366455Y-27432499D01*
X16366452Y-27432500D01*
X16248074Y-27481534D01*
X16248066Y-27481538D01*
X16141531Y-27552724D01*
X16141527Y-27552727D01*
X16050927Y-27643327D01*
X16050924Y-27643331D01*
X15979738Y-27749866D01*
X15979734Y-27749874D01*
X15930700Y-27868252D01*
X15930699Y-27868257D01*
X15905700Y-27993930D01*
X15905700Y-28122069D01*
X15930699Y-28247742D01*
X15930700Y-28247747D01*
X15979734Y-28366125D01*
X15979738Y-28366133D01*
X16017988Y-28423377D01*
X16050924Y-28472669D01*
X16141531Y-28563276D01*
X16205048Y-28605717D01*
X16248066Y-28634461D01*
X16248070Y-28634463D01*
X16248073Y-28634465D01*
X16366456Y-28683501D01*
X16492131Y-28708500D01*
X16492132Y-28708500D01*
X16620268Y-28708500D01*
X16620269Y-28708500D01*
X16745944Y-28683501D01*
X16864327Y-28634465D01*
X16970869Y-28563276D01*
X17021649Y-28512496D01*
X17076166Y-28484719D01*
X17091653Y-28483500D01*
X19473616Y-28483500D01*
X19473618Y-28483500D01*
X19581837Y-28454503D01*
X19581839Y-28454501D01*
X19581841Y-28454501D01*
X19610664Y-28437859D01*
X19678863Y-28398485D01*
X20055396Y-28021950D01*
X20109913Y-27994174D01*
X20170345Y-28003745D01*
X20213610Y-28047010D01*
X20224400Y-28091955D01*
X20224400Y-28124569D01*
X20248902Y-28247747D01*
X20249399Y-28250242D01*
X20249400Y-28250247D01*
X20298434Y-28368625D01*
X20298438Y-28368633D01*
X20318385Y-28398485D01*
X20369624Y-28475169D01*
X20460231Y-28565776D01*
X20523748Y-28608217D01*
X20566766Y-28636961D01*
X20566770Y-28636963D01*
X20566773Y-28636965D01*
X20685156Y-28686001D01*
X20810831Y-28711000D01*
X20882644Y-28711000D01*
X20940835Y-28729907D01*
X20952648Y-28739996D01*
X21514304Y-29301651D01*
X21542081Y-29356168D01*
X21543300Y-29371655D01*
X21543300Y-31628047D01*
X21524393Y-31686238D01*
X21514304Y-31698051D01*
X21463527Y-31748827D01*
X21463524Y-31748831D01*
X21392338Y-31855366D01*
X21392334Y-31855374D01*
X21343300Y-31973752D01*
X21343299Y-31973757D01*
X21319954Y-32091118D01*
X21318300Y-32099431D01*
X21318300Y-32227569D01*
X21342378Y-32348615D01*
X21343299Y-32353242D01*
X21343300Y-32353247D01*
X21392334Y-32471625D01*
X21392338Y-32471633D01*
X21426548Y-32522830D01*
X21463524Y-32578169D01*
X21463527Y-32578172D01*
X21514304Y-32628949D01*
X21542081Y-32683466D01*
X21543300Y-32698953D01*
X21543300Y-40820847D01*
X21524393Y-40879038D01*
X21514304Y-40890851D01*
X21463527Y-40941627D01*
X21463524Y-40941631D01*
X21392338Y-41048166D01*
X21392334Y-41048174D01*
X21343300Y-41166552D01*
X21343299Y-41166557D01*
X21318300Y-41292230D01*
X21318300Y-41420369D01*
X21343299Y-41546042D01*
X21343300Y-41546047D01*
X21392334Y-41664425D01*
X21392338Y-41664433D01*
X21423507Y-41711080D01*
X21463524Y-41770969D01*
X21554131Y-41861576D01*
X21617648Y-41904017D01*
X21660666Y-41932761D01*
X21660670Y-41932763D01*
X21660673Y-41932765D01*
X21779056Y-41981801D01*
X21904731Y-42006800D01*
X21904732Y-42006800D01*
X22032868Y-42006800D01*
X22032869Y-42006800D01*
X22158544Y-41981801D01*
X22276927Y-41932765D01*
X22383469Y-41861576D01*
X22474076Y-41770969D01*
X22545265Y-41664427D01*
X22594301Y-41546044D01*
X22619300Y-41420369D01*
X22619300Y-41292231D01*
X22594301Y-41166556D01*
X22545265Y-41048173D01*
X22545263Y-41048170D01*
X22545261Y-41048166D01*
X22516517Y-41005148D01*
X22474076Y-40941631D01*
X22423296Y-40890851D01*
X22395519Y-40836334D01*
X22394300Y-40820847D01*
X22394300Y-32698953D01*
X22413207Y-32640762D01*
X22423296Y-32628949D01*
X22442883Y-32609362D01*
X22474076Y-32578169D01*
X22545265Y-32471627D01*
X22594301Y-32353244D01*
X22619300Y-32227569D01*
X22619300Y-32099431D01*
X22594301Y-31973756D01*
X22545265Y-31855373D01*
X22545263Y-31855370D01*
X22545261Y-31855366D01*
X22494506Y-31779407D01*
X22474076Y-31748831D01*
X22423296Y-31698051D01*
X22395519Y-31643534D01*
X22394300Y-31628047D01*
X22394300Y-29098382D01*
X22391718Y-29088748D01*
X22386963Y-29071001D01*
X22365303Y-28990163D01*
X22355573Y-28973311D01*
X22309285Y-28893137D01*
X22230063Y-28813915D01*
X22230060Y-28813913D01*
X21891315Y-28475168D01*
X21554396Y-28138248D01*
X21526619Y-28083731D01*
X21525400Y-28068244D01*
X21525400Y-27996432D01*
X21525400Y-27996431D01*
X21500401Y-27870756D01*
X21451365Y-27752373D01*
X21451363Y-27752370D01*
X21451361Y-27752366D01*
X21422617Y-27709348D01*
X21380176Y-27645831D01*
X21289569Y-27555224D01*
X21224986Y-27512071D01*
X21183033Y-27484038D01*
X21183025Y-27484034D01*
X21064647Y-27435000D01*
X21064645Y-27434999D01*
X21064644Y-27434999D01*
X20938969Y-27410000D01*
X20906355Y-27410000D01*
X20848164Y-27391093D01*
X20812200Y-27341593D01*
X20812200Y-27280407D01*
X20836351Y-27240996D01*
X21386879Y-26690468D01*
X21865616Y-26211731D01*
X26167800Y-26211731D01*
X26167800Y-26339869D01*
X26189485Y-26448886D01*
X26192799Y-26465542D01*
X26192800Y-26465547D01*
X26241834Y-26583925D01*
X26241838Y-26583933D01*
X26284665Y-26648026D01*
X26313024Y-26690469D01*
X26403631Y-26781076D01*
X26467148Y-26823517D01*
X26510166Y-26852261D01*
X26510170Y-26852263D01*
X26510173Y-26852265D01*
X26628556Y-26901301D01*
X26754231Y-26926300D01*
X26754232Y-26926300D01*
X26882368Y-26926300D01*
X26882369Y-26926300D01*
X27008044Y-26901301D01*
X27126427Y-26852265D01*
X27232969Y-26781076D01*
X27323576Y-26690469D01*
X27394765Y-26583927D01*
X27443801Y-26465544D01*
X27468800Y-26339869D01*
X27468800Y-26211731D01*
X27443801Y-26086056D01*
X27394765Y-25967673D01*
X27394763Y-25967670D01*
X27394761Y-25967666D01*
X27361019Y-25917168D01*
X27323576Y-25861131D01*
X27232969Y-25770524D01*
X27190526Y-25742165D01*
X27126433Y-25699338D01*
X27126425Y-25699334D01*
X27008047Y-25650300D01*
X27008045Y-25650299D01*
X27008044Y-25650299D01*
X26882369Y-25625300D01*
X26754231Y-25625300D01*
X26754230Y-25625300D01*
X26691393Y-25637799D01*
X26628556Y-25650299D01*
X26628555Y-25650299D01*
X26628552Y-25650300D01*
X26510174Y-25699334D01*
X26510166Y-25699338D01*
X26403631Y-25770524D01*
X26403627Y-25770527D01*
X26313027Y-25861127D01*
X26313024Y-25861131D01*
X26241838Y-25967666D01*
X26241834Y-25967674D01*
X26192800Y-26086052D01*
X26192799Y-26086055D01*
X26192799Y-26086056D01*
X26167800Y-26211731D01*
X21865616Y-26211731D01*
X24691560Y-23385786D01*
X24691563Y-23385785D01*
X24770785Y-23306563D01*
X24826803Y-23209537D01*
X24855800Y-23101318D01*
X24855800Y-20747356D01*
X24874707Y-20689165D01*
X24884796Y-20677352D01*
X29703552Y-15858596D01*
X29758069Y-15830819D01*
X29773556Y-15829600D01*
X29845368Y-15829600D01*
X29845369Y-15829600D01*
X29971044Y-15804601D01*
X30089427Y-15755565D01*
X30195969Y-15684376D01*
X30286576Y-15593769D01*
X30344064Y-15507730D01*
X30392112Y-15469853D01*
X30453250Y-15467451D01*
X30496382Y-15492730D01*
X31565704Y-16562052D01*
X31593481Y-16616569D01*
X31594700Y-16632056D01*
X31594700Y-17679782D01*
X31594700Y-17791818D01*
X31619895Y-17885849D01*
X31623698Y-17900041D01*
X31679713Y-17997060D01*
X31679715Y-17997063D01*
X36389937Y-22707285D01*
X36389939Y-22707286D01*
X36486959Y-22763301D01*
X36486957Y-22763301D01*
X36486961Y-22763302D01*
X36486963Y-22763303D01*
X36595182Y-22792300D01*
X36707218Y-22792300D01*
X42535044Y-22792300D01*
X42593235Y-22811207D01*
X42605048Y-22821296D01*
X48698448Y-28914696D01*
X48726225Y-28969213D01*
X48716654Y-29029645D01*
X48673389Y-29072910D01*
X48628444Y-29083700D01*
X35665155Y-29083700D01*
X35606964Y-29064793D01*
X35595151Y-29054704D01*
X31674884Y-25134437D01*
X31647107Y-25079920D01*
X31656678Y-25019488D01*
X31689883Y-24982121D01*
X31748169Y-24943176D01*
X31838776Y-24852569D01*
X31909965Y-24746027D01*
X31959001Y-24627644D01*
X31984000Y-24501969D01*
X31984000Y-24373831D01*
X31959001Y-24248156D01*
X31909965Y-24129773D01*
X31909963Y-24129770D01*
X31909961Y-24129766D01*
X31872743Y-24074067D01*
X31838776Y-24023231D01*
X31748169Y-23932624D01*
X31705726Y-23904265D01*
X31641633Y-23861438D01*
X31641625Y-23861434D01*
X31523247Y-23812400D01*
X31523245Y-23812399D01*
X31523244Y-23812399D01*
X31397569Y-23787400D01*
X31269431Y-23787400D01*
X31269430Y-23787400D01*
X31238780Y-23793497D01*
X31143756Y-23812399D01*
X31143755Y-23812399D01*
X31143752Y-23812400D01*
X31025374Y-23861434D01*
X31025366Y-23861438D01*
X30918831Y-23932624D01*
X30918827Y-23932627D01*
X30828227Y-24023227D01*
X30789281Y-24081513D01*
X30741230Y-24119391D01*
X30680092Y-24121793D01*
X30636962Y-24096514D01*
X27831446Y-21290998D01*
X27803669Y-21236481D01*
X27804353Y-21201679D01*
X27825498Y-21095379D01*
X27825500Y-21095367D01*
X27825500Y-20967232D01*
X27825500Y-20967231D01*
X27800501Y-20841556D01*
X27751465Y-20723173D01*
X27751463Y-20723170D01*
X27751461Y-20723166D01*
X27720848Y-20677352D01*
X27680276Y-20616631D01*
X27589669Y-20526024D01*
X27528762Y-20485327D01*
X27483133Y-20454838D01*
X27483125Y-20454834D01*
X27364747Y-20405800D01*
X27364745Y-20405799D01*
X27364744Y-20405799D01*
X27239069Y-20380800D01*
X27110931Y-20380800D01*
X27110930Y-20380800D01*
X27048093Y-20393299D01*
X26985256Y-20405799D01*
X26985255Y-20405799D01*
X26985252Y-20405800D01*
X26866874Y-20454834D01*
X26866866Y-20454838D01*
X26760331Y-20526024D01*
X26760320Y-20526033D01*
X26750215Y-20536138D01*
X26695697Y-20563914D01*
X26635266Y-20554340D01*
X26597899Y-20521135D01*
X26573976Y-20485331D01*
X26483369Y-20394724D01*
X26440168Y-20365858D01*
X26376833Y-20323538D01*
X26376825Y-20323534D01*
X26258447Y-20274500D01*
X26258445Y-20274499D01*
X26258444Y-20274499D01*
X26132769Y-20249500D01*
X26004631Y-20249500D01*
X26004630Y-20249500D01*
X25941793Y-20261999D01*
X25878956Y-20274499D01*
X25878955Y-20274499D01*
X25878952Y-20274500D01*
X25760574Y-20323534D01*
X25760566Y-20323538D01*
X25654031Y-20394724D01*
X25654027Y-20394727D01*
X25563427Y-20485327D01*
X25563424Y-20485331D01*
X25492238Y-20591866D01*
X25492234Y-20591874D01*
X25443200Y-20710252D01*
X25443199Y-20710255D01*
X25443199Y-20710256D01*
X25435819Y-20747356D01*
X25418200Y-20835930D01*
X25418200Y-20964069D01*
X25443199Y-21089742D01*
X25443200Y-21089747D01*
X25492234Y-21208125D01*
X25492238Y-21208133D01*
X25522807Y-21253882D01*
X25563424Y-21314669D01*
X25654031Y-21405276D01*
X25714937Y-21445972D01*
X25760566Y-21476461D01*
X25760570Y-21476463D01*
X25760573Y-21476465D01*
X25878956Y-21525501D01*
X26004631Y-21550500D01*
X26004632Y-21550500D01*
X26132768Y-21550500D01*
X26132769Y-21550500D01*
X26258444Y-21525501D01*
X26376827Y-21476465D01*
X26483369Y-21405276D01*
X26493478Y-21395166D01*
X26547991Y-21367386D01*
X26608424Y-21376953D01*
X26645799Y-21410163D01*
X26669724Y-21445969D01*
X26760331Y-21536576D01*
X26812090Y-21571160D01*
X26866866Y-21607761D01*
X26866870Y-21607763D01*
X26866873Y-21607765D01*
X26968835Y-21649999D01*
X26981567Y-21655273D01*
X27013685Y-21676733D01*
X35107413Y-29770460D01*
X35107415Y-29770463D01*
X35186637Y-29849685D01*
X35208042Y-29862043D01*
X35261632Y-29892984D01*
X35261637Y-29892986D01*
X35283659Y-29905701D01*
X35283660Y-29905701D01*
X35283663Y-29905703D01*
X35391881Y-29934700D01*
X35391882Y-29934700D01*
X38478045Y-29934700D01*
X38536236Y-29953607D01*
X38572200Y-30003107D01*
X38572200Y-30064293D01*
X38548049Y-30103704D01*
X24151204Y-44500548D01*
X24096687Y-44528325D01*
X24036255Y-44518754D01*
X23992990Y-44475489D01*
X23982200Y-44430544D01*
X23982200Y-32667553D01*
X24001107Y-32609362D01*
X24011196Y-32597549D01*
X24030577Y-32578168D01*
X24061976Y-32546769D01*
X24133165Y-32440227D01*
X24182201Y-32321844D01*
X24207200Y-32196169D01*
X24207200Y-32068031D01*
X24182201Y-31942356D01*
X24133165Y-31823973D01*
X24133163Y-31823970D01*
X24133161Y-31823966D01*
X24092838Y-31763619D01*
X24061976Y-31717431D01*
X23971369Y-31626824D01*
X23924901Y-31595775D01*
X23864833Y-31555638D01*
X23864825Y-31555634D01*
X23746447Y-31506600D01*
X23746445Y-31506599D01*
X23746444Y-31506599D01*
X23620769Y-31481600D01*
X23492631Y-31481600D01*
X23492630Y-31481600D01*
X23429793Y-31494099D01*
X23366956Y-31506599D01*
X23366955Y-31506599D01*
X23366952Y-31506600D01*
X23248574Y-31555634D01*
X23248566Y-31555638D01*
X23142031Y-31626824D01*
X23142027Y-31626827D01*
X23051427Y-31717427D01*
X23051424Y-31717431D01*
X22980238Y-31823966D01*
X22980234Y-31823974D01*
X22931200Y-31942352D01*
X22931199Y-31942357D01*
X22910847Y-32044672D01*
X22906200Y-32068031D01*
X22906200Y-32196169D01*
X22923217Y-32281719D01*
X22931199Y-32321842D01*
X22931200Y-32321847D01*
X22980234Y-32440225D01*
X22980238Y-32440233D01*
X23010370Y-32485327D01*
X23051424Y-32546769D01*
X23051427Y-32546772D01*
X23102204Y-32597549D01*
X23129981Y-32652066D01*
X23131200Y-32667553D01*
X23131200Y-44321344D01*
X23112293Y-44379535D01*
X23102204Y-44391348D01*
X11332548Y-56161004D01*
X11278031Y-56188781D01*
X11262544Y-56190000D01*
X11190730Y-56190000D01*
X11127893Y-56202499D01*
X11065056Y-56214999D01*
X11065055Y-56214999D01*
X11065052Y-56215000D01*
X10946674Y-56264034D01*
X10946666Y-56264038D01*
X10840131Y-56335224D01*
X10840127Y-56335227D01*
X10749527Y-56425827D01*
X10749524Y-56425831D01*
X10678338Y-56532366D01*
X10678334Y-56532374D01*
X10629300Y-56650752D01*
X10629299Y-56650757D01*
X10604300Y-56776430D01*
X10604300Y-56904569D01*
X10629299Y-57030242D01*
X10629300Y-57030247D01*
X10678334Y-57148625D01*
X10678338Y-57148633D01*
X10715769Y-57204651D01*
X10749524Y-57255169D01*
X10840131Y-57345776D01*
X10883120Y-57374500D01*
X10946666Y-57416961D01*
X10946670Y-57416963D01*
X10946673Y-57416965D01*
X11065056Y-57466001D01*
X11190731Y-57491000D01*
X11190732Y-57491000D01*
X11318868Y-57491000D01*
X11318869Y-57491000D01*
X11444544Y-57466001D01*
X11562927Y-57416965D01*
X11669469Y-57345776D01*
X11760076Y-57255169D01*
X11831265Y-57148627D01*
X11880301Y-57030244D01*
X11905300Y-56904569D01*
X11905300Y-56832755D01*
X11924207Y-56774564D01*
X11934290Y-56762757D01*
X14037882Y-54659164D01*
X14092397Y-54631389D01*
X14152829Y-54640960D01*
X14196094Y-54684225D01*
X14199348Y-54691285D01*
X14227032Y-54758122D01*
X14227038Y-54758133D01*
X14268145Y-54819652D01*
X14298224Y-54864669D01*
X14388831Y-54955276D01*
X14452348Y-54997717D01*
X14495366Y-55026461D01*
X14495370Y-55026463D01*
X14495373Y-55026465D01*
X14613756Y-55075501D01*
X14739431Y-55100500D01*
X14739432Y-55100500D01*
X14867568Y-55100500D01*
X14867569Y-55100500D01*
X14993244Y-55075501D01*
X15111627Y-55026465D01*
X15218169Y-54955276D01*
X15308776Y-54864669D01*
X15379965Y-54758127D01*
X15429001Y-54639744D01*
X15454000Y-54514069D01*
X15454000Y-54442255D01*
X15472907Y-54384064D01*
X15482996Y-54372251D01*
X39439851Y-30415396D01*
X39494368Y-30387619D01*
X39509855Y-30386400D01*
X44277145Y-30386400D01*
X44335336Y-30405307D01*
X44371300Y-30454807D01*
X44371300Y-30515993D01*
X44347149Y-30555403D01*
X32087300Y-42815252D01*
X19862048Y-55040504D01*
X19807531Y-55068281D01*
X19792044Y-55069500D01*
X19720230Y-55069500D01*
X19657393Y-55081999D01*
X19594556Y-55094499D01*
X19594555Y-55094499D01*
X19594552Y-55094500D01*
X19476174Y-55143534D01*
X19476166Y-55143538D01*
X19369631Y-55214724D01*
X19369627Y-55214727D01*
X19279027Y-55305327D01*
X19279024Y-55305331D01*
X19207838Y-55411866D01*
X19207834Y-55411874D01*
X19158800Y-55530252D01*
X19158799Y-55530257D01*
X19133800Y-55655930D01*
X19133800Y-55784069D01*
X19158799Y-55909742D01*
X19158800Y-55909747D01*
X19207834Y-56028125D01*
X19207838Y-56028133D01*
X19217876Y-56043155D01*
X19279024Y-56134669D01*
X19369631Y-56225276D01*
X19427637Y-56264034D01*
X19476166Y-56296461D01*
X19476170Y-56296463D01*
X19476173Y-56296465D01*
X19594556Y-56345501D01*
X19720231Y-56370500D01*
X19720232Y-56370500D01*
X19848368Y-56370500D01*
X19848369Y-56370500D01*
X19974044Y-56345501D01*
X20092427Y-56296465D01*
X20198969Y-56225276D01*
X20289576Y-56134669D01*
X20360765Y-56028127D01*
X20409801Y-55909744D01*
X20434800Y-55784069D01*
X20434800Y-55712255D01*
X20453707Y-55654064D01*
X20463796Y-55642251D01*
X45238951Y-30867096D01*
X45293468Y-30839319D01*
X45308955Y-30838100D01*
X47864921Y-30838100D01*
X47923112Y-30857007D01*
X47959076Y-30906507D01*
X47962018Y-30956413D01*
X47942800Y-31053031D01*
X47942800Y-31181169D01*
X47949595Y-31215331D01*
X47967799Y-31306842D01*
X47967800Y-31306847D01*
X48016834Y-31425225D01*
X48016838Y-31425233D01*
X48045837Y-31468632D01*
X48088024Y-31531769D01*
X48088026Y-31531771D01*
X48088027Y-31531772D01*
X48138804Y-31582549D01*
X48166581Y-31637066D01*
X48167800Y-31652553D01*
X48167800Y-32339647D01*
X48148893Y-32397838D01*
X48099393Y-32433802D01*
X48038207Y-32433802D01*
X47998796Y-32409651D01*
X47983872Y-32394727D01*
X47983869Y-32394724D01*
X47941426Y-32366365D01*
X47877333Y-32323538D01*
X47877325Y-32323534D01*
X47758947Y-32274500D01*
X47758945Y-32274499D01*
X47758944Y-32274499D01*
X47633269Y-32249500D01*
X47505131Y-32249500D01*
X47505130Y-32249500D01*
X47442293Y-32261999D01*
X47379456Y-32274499D01*
X47379455Y-32274499D01*
X47379452Y-32274500D01*
X47261074Y-32323534D01*
X47261066Y-32323538D01*
X47154531Y-32394724D01*
X47154527Y-32394727D01*
X47063927Y-32485327D01*
X47063924Y-32485331D01*
X46992738Y-32591866D01*
X46992734Y-32591874D01*
X46943700Y-32710252D01*
X46943699Y-32710257D01*
X46918700Y-32835930D01*
X46918700Y-32907744D01*
X46899793Y-32965935D01*
X46889704Y-32977748D01*
X22061948Y-57805504D01*
X22007431Y-57833281D01*
X21991944Y-57834500D01*
X20333853Y-57834500D01*
X20275662Y-57815593D01*
X20263849Y-57805504D01*
X20213072Y-57754727D01*
X20213069Y-57754724D01*
X20170626Y-57726365D01*
X20106533Y-57683538D01*
X20106525Y-57683534D01*
X19988147Y-57634500D01*
X19988145Y-57634499D01*
X19988144Y-57634499D01*
X19862469Y-57609500D01*
X19734331Y-57609500D01*
X19734330Y-57609500D01*
X19671493Y-57621999D01*
X19608656Y-57634499D01*
X19608655Y-57634499D01*
X19608652Y-57634500D01*
X19490274Y-57683534D01*
X19490266Y-57683538D01*
X19383731Y-57754724D01*
X19383727Y-57754727D01*
X19293127Y-57845327D01*
X19293124Y-57845331D01*
X19221938Y-57951866D01*
X19221934Y-57951874D01*
X19172900Y-58070252D01*
X19172899Y-58070255D01*
X19172899Y-58070256D01*
X19147900Y-58195931D01*
X19147900Y-58324069D01*
X19168642Y-58428345D01*
X19172899Y-58449742D01*
X19172900Y-58449747D01*
X19221934Y-58568125D01*
X19221938Y-58568133D01*
X19251116Y-58611800D01*
X19293124Y-58674669D01*
X19383731Y-58765276D01*
X19447248Y-58807717D01*
X19490266Y-58836461D01*
X19490270Y-58836463D01*
X19490273Y-58836465D01*
X19608656Y-58885501D01*
X19734331Y-58910500D01*
X19734332Y-58910500D01*
X19862468Y-58910500D01*
X19862469Y-58910500D01*
X19988144Y-58885501D01*
X20106527Y-58836465D01*
X20213069Y-58765276D01*
X20263849Y-58714496D01*
X20318366Y-58686719D01*
X20333853Y-58685500D01*
X22265216Y-58685500D01*
X22265218Y-58685500D01*
X22373437Y-58656503D01*
X22373439Y-58656501D01*
X22373441Y-58656501D01*
X22402264Y-58639859D01*
X22470463Y-58600485D01*
X47491452Y-33579496D01*
X47545969Y-33551719D01*
X47561456Y-33550500D01*
X47633268Y-33550500D01*
X47633269Y-33550500D01*
X47758944Y-33525501D01*
X47877327Y-33476465D01*
X47983869Y-33405276D01*
X47998796Y-33390349D01*
X48053313Y-33362572D01*
X48113745Y-33372143D01*
X48157010Y-33415408D01*
X48167800Y-33460353D01*
X48167800Y-37429382D01*
X48167800Y-37541418D01*
X48188739Y-37619563D01*
X48196798Y-37649641D01*
X48252813Y-37746660D01*
X48252815Y-37746663D01*
X48977149Y-38470997D01*
X49004925Y-38525512D01*
X48995354Y-38585944D01*
X48977148Y-38611002D01*
X48921737Y-38666414D01*
X48842514Y-38745637D01*
X48786498Y-38842658D01*
X48757500Y-38950883D01*
X48757500Y-45402747D01*
X48738593Y-45460938D01*
X48728504Y-45472751D01*
X48677727Y-45523527D01*
X48677724Y-45523531D01*
X48606538Y-45630066D01*
X48606534Y-45630074D01*
X48557500Y-45748452D01*
X48557499Y-45748455D01*
X48557499Y-45748456D01*
X48532500Y-45874131D01*
X48532500Y-46002269D01*
X48555076Y-46115765D01*
X48557499Y-46127942D01*
X48557500Y-46127947D01*
X48606534Y-46246325D01*
X48606538Y-46246333D01*
X48649365Y-46310426D01*
X48677724Y-46352869D01*
X48768331Y-46443476D01*
X48831848Y-46485917D01*
X48874866Y-46514661D01*
X48874870Y-46514663D01*
X48874873Y-46514665D01*
X48993256Y-46563701D01*
X49118931Y-46588700D01*
X49118932Y-46588700D01*
X49247068Y-46588700D01*
X49247069Y-46588700D01*
X49372744Y-46563701D01*
X49372745Y-46563700D01*
X49377513Y-46562752D01*
X49377975Y-46565077D01*
X49429945Y-46566048D01*
X49478765Y-46602929D01*
X49496600Y-46659615D01*
X49496600Y-49209444D01*
X49477693Y-49267635D01*
X49467604Y-49279448D01*
X39435848Y-59311204D01*
X39381331Y-59338981D01*
X39365844Y-59340200D01*
X39294030Y-59340200D01*
X39231193Y-59352699D01*
X39168356Y-59365199D01*
X39168355Y-59365199D01*
X39168352Y-59365200D01*
X39049974Y-59414234D01*
X39049966Y-59414238D01*
X38943431Y-59485424D01*
X38943427Y-59485427D01*
X38852827Y-59576027D01*
X38852824Y-59576031D01*
X38781638Y-59682566D01*
X38781634Y-59682574D01*
X38732600Y-59800952D01*
X38732599Y-59800957D01*
X38708285Y-59923189D01*
X38707600Y-59926631D01*
X38707600Y-60054769D01*
X38720689Y-60120572D01*
X38732599Y-60180442D01*
X38732600Y-60180447D01*
X38781634Y-60298825D01*
X38781638Y-60298833D01*
X38803400Y-60331401D01*
X38852824Y-60405369D01*
X38943431Y-60495976D01*
X39006948Y-60538417D01*
X39049966Y-60567161D01*
X39049970Y-60567163D01*
X39049973Y-60567165D01*
X39168356Y-60616201D01*
X39294031Y-60641200D01*
X39294032Y-60641200D01*
X39422168Y-60641200D01*
X39422169Y-60641200D01*
X39547844Y-60616201D01*
X39666227Y-60567165D01*
X39772769Y-60495976D01*
X39863376Y-60405369D01*
X39934565Y-60298827D01*
X39983601Y-60180444D01*
X40008600Y-60054769D01*
X40008600Y-59982956D01*
X40027507Y-59924765D01*
X40037596Y-59912952D01*
X50025396Y-49925152D01*
X50079913Y-49897375D01*
X50140345Y-49906946D01*
X50183610Y-49950211D01*
X50194400Y-49995156D01*
X50194400Y-53204544D01*
X50175493Y-53262735D01*
X50165404Y-53274548D01*
X40246448Y-63193504D01*
X40191931Y-63221281D01*
X40176444Y-63222500D01*
X40104630Y-63222500D01*
X40041793Y-63234999D01*
X39978956Y-63247499D01*
X39978955Y-63247499D01*
X39978952Y-63247500D01*
X39860574Y-63296534D01*
X39860566Y-63296538D01*
X39754031Y-63367724D01*
X39754027Y-63367727D01*
X39663427Y-63458327D01*
X39663424Y-63458331D01*
X39592238Y-63564866D01*
X39592234Y-63564874D01*
X39543200Y-63683252D01*
X39543199Y-63683257D01*
X39518200Y-63808930D01*
X39518200Y-63937069D01*
X39543199Y-64062742D01*
X39543200Y-64062747D01*
X39592234Y-64181125D01*
X39592238Y-64181133D01*
X39635065Y-64245226D01*
X39663424Y-64287669D01*
X39754031Y-64378276D01*
X39812363Y-64417252D01*
X39860566Y-64449461D01*
X39860570Y-64449463D01*
X39860573Y-64449465D01*
X39978956Y-64498501D01*
X40104631Y-64523500D01*
X40104632Y-64523500D01*
X40232768Y-64523500D01*
X40232769Y-64523500D01*
X40358444Y-64498501D01*
X40476827Y-64449465D01*
X40583369Y-64378276D01*
X40673976Y-64287669D01*
X40745165Y-64181127D01*
X40794201Y-64062744D01*
X40819200Y-63937069D01*
X40819200Y-63865255D01*
X40838107Y-63807064D01*
X40848190Y-63795257D01*
X50960385Y-53683063D01*
X51016403Y-53586037D01*
X51045400Y-53477818D01*
X51045400Y-53365781D01*
X51045400Y-41666753D01*
X51064307Y-41608562D01*
X51074396Y-41596749D01*
X51125176Y-41545969D01*
X51196365Y-41439427D01*
X51245401Y-41321044D01*
X51270400Y-41195369D01*
X51270400Y-41067231D01*
X51245401Y-40941556D01*
X51196365Y-40823173D01*
X51196363Y-40823170D01*
X51196361Y-40823166D01*
X51167617Y-40780148D01*
X51125176Y-40716631D01*
X51034569Y-40626024D01*
X50992126Y-40597665D01*
X50928033Y-40554838D01*
X50928025Y-40554834D01*
X50809647Y-40505800D01*
X50809645Y-40505799D01*
X50809644Y-40505799D01*
X50683969Y-40480800D01*
X50555831Y-40480800D01*
X50555830Y-40480800D01*
X50542242Y-40483503D01*
X50465914Y-40498685D01*
X50405153Y-40491494D01*
X50360223Y-40449962D01*
X50347600Y-40401588D01*
X50347600Y-39785453D01*
X50366507Y-39727262D01*
X50376596Y-39715449D01*
X50427376Y-39664669D01*
X50461970Y-39612894D01*
X50487547Y-39574617D01*
X50535596Y-39536737D01*
X50596735Y-39534335D01*
X50639866Y-39559614D01*
X52848504Y-41768252D01*
X52876281Y-41822769D01*
X52877500Y-41838256D01*
X52877500Y-65855482D01*
X52877500Y-65967518D01*
X52893391Y-66026824D01*
X52906498Y-66075741D01*
X52962513Y-66172760D01*
X52962515Y-66172763D01*
X64797713Y-78007960D01*
X64797715Y-78007963D01*
X64876937Y-78087185D01*
X64876939Y-78087186D01*
X64973959Y-78143201D01*
X64973957Y-78143201D01*
X64973961Y-78143202D01*
X64973963Y-78143203D01*
X65082181Y-78172200D01*
X65082182Y-78172200D01*
X72494182Y-78172200D01*
X72525145Y-78172200D01*
X72553888Y-78176465D01*
X72555648Y-78176999D01*
X72555654Y-78177000D01*
X72555656Y-78177001D01*
X72681331Y-78202000D01*
X72681332Y-78202000D01*
X72809468Y-78202000D01*
X72809469Y-78202000D01*
X72935144Y-78177001D01*
X73053527Y-78127965D01*
X73160069Y-78056776D01*
X73250676Y-77966169D01*
X73321865Y-77859627D01*
X73370901Y-77741244D01*
X73395900Y-77615569D01*
X73395900Y-77487431D01*
X73370901Y-77361756D01*
X73321865Y-77243373D01*
X73321863Y-77243370D01*
X73321861Y-77243366D01*
X73272475Y-77169456D01*
X73250676Y-77136831D01*
X73160069Y-77046224D01*
X73099768Y-77005932D01*
X73053533Y-76975038D01*
X73053525Y-76975034D01*
X72935147Y-76926000D01*
X72935145Y-76925999D01*
X72935144Y-76925999D01*
X72809469Y-76901000D01*
X72681331Y-76901000D01*
X72681330Y-76901000D01*
X72618493Y-76913499D01*
X72555656Y-76925999D01*
X72555655Y-76925999D01*
X72555652Y-76926000D01*
X72437274Y-76975034D01*
X72437266Y-76975038D01*
X72330731Y-77046224D01*
X72330727Y-77046227D01*
X72240127Y-77136827D01*
X72240124Y-77136831D01*
X72168938Y-77243366D01*
X72168934Y-77243374D01*
X72162012Y-77260086D01*
X72122275Y-77306612D01*
X72070548Y-77321200D01*
X70502909Y-77321200D01*
X70444718Y-77302293D01*
X70408754Y-77252793D01*
X70405811Y-77202885D01*
X70419500Y-77134069D01*
X70419500Y-77005931D01*
X70394501Y-76880256D01*
X70345465Y-76761873D01*
X70345463Y-76761870D01*
X70345461Y-76761866D01*
X70290129Y-76679057D01*
X70274276Y-76655331D01*
X70183669Y-76564724D01*
X70118148Y-76520944D01*
X70077133Y-76493538D01*
X70077125Y-76493534D01*
X69958747Y-76444500D01*
X69958745Y-76444499D01*
X69958744Y-76444499D01*
X69833069Y-76419500D01*
X69704931Y-76419500D01*
X69704930Y-76419500D01*
X69642093Y-76431999D01*
X69579256Y-76444499D01*
X69579255Y-76444499D01*
X69579252Y-76444500D01*
X69460874Y-76493534D01*
X69460866Y-76493538D01*
X69354331Y-76564724D01*
X69354322Y-76564731D01*
X69263723Y-76655331D01*
X69240759Y-76689701D01*
X69192709Y-76727581D01*
X69158443Y-76733700D01*
X65406755Y-76733700D01*
X65348564Y-76714793D01*
X65336751Y-76704704D01*
X65005774Y-76373727D01*
X64977997Y-76319210D01*
X64987568Y-76258778D01*
X65020772Y-76221411D01*
X65090269Y-76174976D01*
X65180876Y-76084369D01*
X65252065Y-75977827D01*
X65301101Y-75859444D01*
X65326100Y-75733769D01*
X65326100Y-75605631D01*
X65301101Y-75479956D01*
X65252065Y-75361573D01*
X65252063Y-75361570D01*
X65252061Y-75361566D01*
X65223317Y-75318548D01*
X65180876Y-75255031D01*
X65130096Y-75204251D01*
X65102319Y-75149734D01*
X65101100Y-75134247D01*
X65101100Y-43366756D01*
X65120007Y-43308565D01*
X65169507Y-43272601D01*
X65230693Y-43272601D01*
X65255100Y-43284440D01*
X65283573Y-43303465D01*
X65401956Y-43352501D01*
X65527631Y-43377500D01*
X65527632Y-43377500D01*
X65655768Y-43377500D01*
X65655769Y-43377500D01*
X65781444Y-43352501D01*
X65899827Y-43303465D01*
X65899830Y-43303462D01*
X65903514Y-43301937D01*
X65964511Y-43297136D01*
X66016680Y-43329105D01*
X66040095Y-43385633D01*
X66040400Y-43393401D01*
X66040400Y-74389147D01*
X66021493Y-74447338D01*
X66011404Y-74459151D01*
X65960627Y-74509927D01*
X65960624Y-74509931D01*
X65889438Y-74616466D01*
X65889434Y-74616474D01*
X65840400Y-74734852D01*
X65840399Y-74734857D01*
X65815400Y-74860530D01*
X65815400Y-74988669D01*
X65840399Y-75114342D01*
X65840400Y-75114347D01*
X65889434Y-75232725D01*
X65889438Y-75232733D01*
X65932265Y-75296826D01*
X65960624Y-75339269D01*
X66051231Y-75429876D01*
X66114748Y-75472317D01*
X66157766Y-75501061D01*
X66157770Y-75501063D01*
X66157773Y-75501065D01*
X66276156Y-75550101D01*
X66401831Y-75575100D01*
X66401832Y-75575100D01*
X66529968Y-75575100D01*
X66529969Y-75575100D01*
X66655644Y-75550101D01*
X66774027Y-75501065D01*
X66880569Y-75429876D01*
X66971176Y-75339269D01*
X67042365Y-75232727D01*
X67091401Y-75114344D01*
X67116400Y-74988669D01*
X67116400Y-74860531D01*
X67091401Y-74734856D01*
X67042365Y-74616473D01*
X67042363Y-74616470D01*
X67042361Y-74616466D01*
X67013617Y-74573448D01*
X66971176Y-74509931D01*
X66920396Y-74459151D01*
X66892619Y-74404634D01*
X66891400Y-74389147D01*
X66891400Y-68331893D01*
X79099500Y-68331893D01*
X79099500Y-69668106D01*
X79110123Y-69756565D01*
X79165637Y-69897339D01*
X79165638Y-69897341D01*
X79165639Y-69897342D01*
X79257078Y-70017922D01*
X79377658Y-70109361D01*
X79377659Y-70109361D01*
X79377660Y-70109362D01*
X79448047Y-70137119D01*
X79518436Y-70164877D01*
X79606898Y-70175500D01*
X79606900Y-70175500D01*
X80393100Y-70175500D01*
X80393102Y-70175500D01*
X80481564Y-70164877D01*
X80622342Y-70109361D01*
X80742922Y-70017922D01*
X80834361Y-69897342D01*
X80889877Y-69756564D01*
X80900500Y-69668102D01*
X80900500Y-68636306D01*
X81099500Y-68636306D01*
X81099500Y-69363693D01*
X81134106Y-69537665D01*
X81134106Y-69537667D01*
X81201985Y-69701544D01*
X81201985Y-69701545D01*
X81238748Y-69756564D01*
X81300536Y-69849035D01*
X81425965Y-69974464D01*
X81573453Y-70073013D01*
X81737334Y-70140894D01*
X81911309Y-70175500D01*
X81911310Y-70175500D01*
X82088690Y-70175500D01*
X82088691Y-70175500D01*
X82262666Y-70140894D01*
X82426547Y-70073013D01*
X82574035Y-69974464D01*
X82699464Y-69849035D01*
X82798013Y-69701547D01*
X82865894Y-69537666D01*
X82900500Y-69363691D01*
X82900500Y-68636309D01*
X82865894Y-68462334D01*
X82798014Y-68298455D01*
X82798014Y-68298454D01*
X82699464Y-68150965D01*
X82574034Y-68025535D01*
X82426544Y-67926985D01*
X82262666Y-67859106D01*
X82088693Y-67824500D01*
X82088691Y-67824500D01*
X81911309Y-67824500D01*
X81911306Y-67824500D01*
X81737334Y-67859106D01*
X81737332Y-67859106D01*
X81573455Y-67926985D01*
X81573454Y-67926985D01*
X81425965Y-68025535D01*
X81300535Y-68150965D01*
X81201985Y-68298454D01*
X81201985Y-68298455D01*
X81134106Y-68462332D01*
X81134106Y-68462334D01*
X81099500Y-68636306D01*
X80900500Y-68636306D01*
X80900500Y-68331898D01*
X80889877Y-68243436D01*
X80845537Y-68130999D01*
X80834362Y-68102660D01*
X80834361Y-68102659D01*
X80834361Y-68102658D01*
X80742922Y-67982078D01*
X80622342Y-67890639D01*
X80622341Y-67890638D01*
X80622339Y-67890637D01*
X80481565Y-67835123D01*
X80393106Y-67824500D01*
X80393102Y-67824500D01*
X79606898Y-67824500D01*
X79606893Y-67824500D01*
X79518434Y-67835123D01*
X79377660Y-67890637D01*
X79377656Y-67890640D01*
X79257081Y-67982075D01*
X79257075Y-67982081D01*
X79165640Y-68102656D01*
X79165637Y-68102660D01*
X79110123Y-68243434D01*
X79099500Y-68331893D01*
X66891400Y-68331893D01*
X66891400Y-58053931D01*
X68509700Y-58053931D01*
X68509700Y-58182069D01*
X68532051Y-58294433D01*
X68534699Y-58307742D01*
X68534700Y-58307747D01*
X68583734Y-58426125D01*
X68583738Y-58426133D01*
X68599515Y-58449744D01*
X68654924Y-58532669D01*
X68745531Y-58623276D01*
X68786275Y-58650500D01*
X68852066Y-58694461D01*
X68852070Y-58694463D01*
X68852073Y-58694465D01*
X68970456Y-58743501D01*
X69096131Y-58768500D01*
X69096132Y-58768500D01*
X69224268Y-58768500D01*
X69224269Y-58768500D01*
X69349944Y-58743501D01*
X69468327Y-58694465D01*
X69574869Y-58623276D01*
X69665476Y-58532669D01*
X69736665Y-58426127D01*
X69785701Y-58307744D01*
X69810700Y-58182069D01*
X69810700Y-58053931D01*
X69787228Y-57935931D01*
X84529100Y-57935931D01*
X84529100Y-58064069D01*
X84552572Y-58182069D01*
X84554099Y-58189742D01*
X84554100Y-58189747D01*
X84603134Y-58308125D01*
X84603138Y-58308133D01*
X84645965Y-58372226D01*
X84674324Y-58414669D01*
X84764931Y-58505276D01*
X84828448Y-58547717D01*
X84871466Y-58576461D01*
X84871470Y-58576463D01*
X84871473Y-58576465D01*
X84989856Y-58625501D01*
X85115531Y-58650500D01*
X85115532Y-58650500D01*
X85243668Y-58650500D01*
X85243669Y-58650500D01*
X85369344Y-58625501D01*
X85487727Y-58576465D01*
X85594269Y-58505276D01*
X85684876Y-58414669D01*
X85756065Y-58308127D01*
X85805101Y-58189744D01*
X85830100Y-58064069D01*
X85830100Y-57935931D01*
X85805101Y-57810256D01*
X85756065Y-57691873D01*
X85756063Y-57691870D01*
X85756061Y-57691866D01*
X85722026Y-57640930D01*
X85684876Y-57585331D01*
X85594269Y-57494724D01*
X85551279Y-57465999D01*
X85487733Y-57423538D01*
X85487725Y-57423534D01*
X85369347Y-57374500D01*
X85369345Y-57374499D01*
X85369344Y-57374499D01*
X85243669Y-57349500D01*
X85115531Y-57349500D01*
X85115530Y-57349500D01*
X85058729Y-57360799D01*
X84989856Y-57374499D01*
X84989855Y-57374499D01*
X84989852Y-57374500D01*
X84871474Y-57423534D01*
X84871466Y-57423538D01*
X84764931Y-57494724D01*
X84764927Y-57494727D01*
X84674327Y-57585327D01*
X84674324Y-57585331D01*
X84603138Y-57691866D01*
X84603134Y-57691874D01*
X84554100Y-57810252D01*
X84554099Y-57810255D01*
X84554099Y-57810256D01*
X84529100Y-57935931D01*
X69787228Y-57935931D01*
X69785701Y-57928256D01*
X69736665Y-57809873D01*
X69736663Y-57809870D01*
X69736661Y-57809866D01*
X69707917Y-57766848D01*
X69665476Y-57703331D01*
X69574869Y-57612724D01*
X69513363Y-57571627D01*
X69468333Y-57541538D01*
X69468325Y-57541534D01*
X69349947Y-57492500D01*
X69349945Y-57492499D01*
X69349944Y-57492499D01*
X69224269Y-57467500D01*
X69096131Y-57467500D01*
X69096130Y-57467500D01*
X69064957Y-57473701D01*
X68970456Y-57492499D01*
X68970455Y-57492499D01*
X68970452Y-57492500D01*
X68852074Y-57541534D01*
X68852066Y-57541538D01*
X68745531Y-57612724D01*
X68745527Y-57612727D01*
X68654927Y-57703327D01*
X68654924Y-57703331D01*
X68583738Y-57809866D01*
X68583734Y-57809874D01*
X68534700Y-57928252D01*
X68534699Y-57928257D01*
X68510409Y-58050369D01*
X68509700Y-58053931D01*
X66891400Y-58053931D01*
X66891400Y-42588182D01*
X66872991Y-42519479D01*
X66872990Y-42519476D01*
X66862405Y-42479969D01*
X66862402Y-42479961D01*
X66845327Y-42450387D01*
X66845327Y-42450386D01*
X66806385Y-42382937D01*
X66727163Y-42303714D01*
X66727163Y-42303715D01*
X66611096Y-42187648D01*
X66583319Y-42133131D01*
X66582100Y-42117644D01*
X66582100Y-34648189D01*
X66601007Y-34589998D01*
X66650507Y-34554034D01*
X66700413Y-34551091D01*
X66769331Y-34564800D01*
X66841144Y-34564800D01*
X66899335Y-34583707D01*
X66911148Y-34593796D01*
X70801117Y-38483765D01*
X70828894Y-38538282D01*
X70819323Y-38598714D01*
X70776058Y-38641979D01*
X70768999Y-38645233D01*
X70700674Y-38673534D01*
X70700666Y-38673538D01*
X70594131Y-38744724D01*
X70594127Y-38744727D01*
X70503527Y-38835327D01*
X70503524Y-38835331D01*
X70432338Y-38941866D01*
X70432334Y-38941874D01*
X70383300Y-39060252D01*
X70383299Y-39060255D01*
X70383299Y-39060256D01*
X70358300Y-39185931D01*
X70358300Y-39314069D01*
X70373394Y-39389951D01*
X70383299Y-39439742D01*
X70383300Y-39439747D01*
X70432334Y-39558125D01*
X70432338Y-39558133D01*
X70475165Y-39622226D01*
X70503524Y-39664669D01*
X70503527Y-39664672D01*
X70578753Y-39739898D01*
X70604375Y-39784275D01*
X70612298Y-39813840D01*
X70668313Y-39910860D01*
X70668315Y-39910863D01*
X87962105Y-57204653D01*
X87989881Y-57259168D01*
X87991100Y-57274655D01*
X87991100Y-77614547D01*
X87972193Y-77672738D01*
X87962104Y-77684551D01*
X87911327Y-77735327D01*
X87911324Y-77735331D01*
X87840138Y-77841866D01*
X87840134Y-77841874D01*
X87791100Y-77960252D01*
X87791099Y-77960255D01*
X87791099Y-77960256D01*
X87766100Y-78085931D01*
X87766100Y-78214069D01*
X87791051Y-78339505D01*
X87791099Y-78339742D01*
X87791100Y-78339747D01*
X87840134Y-78458125D01*
X87840138Y-78458133D01*
X87861334Y-78489854D01*
X87911324Y-78564669D01*
X88001931Y-78655276D01*
X88065448Y-78697717D01*
X88108466Y-78726461D01*
X88108470Y-78726463D01*
X88108473Y-78726465D01*
X88226856Y-78775501D01*
X88352531Y-78800500D01*
X88352532Y-78800500D01*
X88480668Y-78800500D01*
X88480669Y-78800500D01*
X88606344Y-78775501D01*
X88724727Y-78726465D01*
X88831269Y-78655276D01*
X88921876Y-78564669D01*
X88993065Y-78458127D01*
X89042101Y-78339744D01*
X89067100Y-78214069D01*
X89067100Y-78085931D01*
X89042101Y-77960256D01*
X88993065Y-77841873D01*
X88993063Y-77841870D01*
X88993061Y-77841866D01*
X88964317Y-77798848D01*
X88921876Y-77735331D01*
X88871096Y-77684551D01*
X88843319Y-77630034D01*
X88842100Y-77614547D01*
X88842100Y-57567856D01*
X88861007Y-57509665D01*
X88910507Y-57473701D01*
X88971693Y-57473701D01*
X89011104Y-57497852D01*
X90786561Y-59273309D01*
X90814338Y-59327826D01*
X90804767Y-59388258D01*
X90799693Y-59396914D01*
X90799236Y-59397769D01*
X90750200Y-59516152D01*
X90750200Y-59516154D01*
X90750199Y-59516156D01*
X90725200Y-59641831D01*
X90725200Y-59769969D01*
X90750199Y-59895644D01*
X90750199Y-59895645D01*
X90750200Y-59895647D01*
X90799234Y-60014025D01*
X90799238Y-60014033D01*
X90826458Y-60054769D01*
X90870424Y-60120569D01*
X90961031Y-60211176D01*
X91024548Y-60253617D01*
X91067566Y-60282361D01*
X91067570Y-60282363D01*
X91067573Y-60282365D01*
X91185956Y-60331401D01*
X91311631Y-60356400D01*
X91311632Y-60356400D01*
X91439768Y-60356400D01*
X91439769Y-60356400D01*
X91565444Y-60331401D01*
X91683827Y-60282365D01*
X91790369Y-60211176D01*
X91880976Y-60120569D01*
X91952165Y-60014027D01*
X92001201Y-59895644D01*
X92001202Y-59895637D01*
X92001563Y-59894450D01*
X92001889Y-59893981D01*
X92003062Y-59891151D01*
X92003683Y-59891408D01*
X92036548Y-59844254D01*
X92094357Y-59824208D01*
X92152907Y-59841970D01*
X92189836Y-59890754D01*
X92195300Y-59923189D01*
X92195300Y-70397382D01*
X92195300Y-70509418D01*
X92220872Y-70604855D01*
X92224298Y-70617641D01*
X92280313Y-70714660D01*
X92280315Y-70714663D01*
X93540138Y-71974486D01*
X93567915Y-72029003D01*
X93558344Y-72089435D01*
X93525136Y-72126805D01*
X93449231Y-72177523D01*
X93358627Y-72268127D01*
X93358624Y-72268131D01*
X93287438Y-72374666D01*
X93287434Y-72374674D01*
X93238400Y-72493052D01*
X93238399Y-72493057D01*
X93213400Y-72618730D01*
X93213400Y-72746869D01*
X93238399Y-72872542D01*
X93238400Y-72872547D01*
X93287434Y-72990925D01*
X93287438Y-72990933D01*
X93330265Y-73055026D01*
X93358624Y-73097469D01*
X93358625Y-73097470D01*
X93358627Y-73097472D01*
X93409404Y-73148249D01*
X93437181Y-73202766D01*
X93438400Y-73218253D01*
X93438400Y-81081944D01*
X93419493Y-81140135D01*
X93409404Y-81151948D01*
X93390848Y-81170504D01*
X93336331Y-81198281D01*
X93320844Y-81199500D01*
X93249030Y-81199500D01*
X93186193Y-81211999D01*
X93123356Y-81224499D01*
X93123355Y-81224499D01*
X93123352Y-81224500D01*
X93004974Y-81273534D01*
X93004966Y-81273538D01*
X92898431Y-81344724D01*
X92898427Y-81344727D01*
X92807827Y-81435327D01*
X92807824Y-81435331D01*
X92736638Y-81541866D01*
X92736634Y-81541874D01*
X92687600Y-81660252D01*
X92687599Y-81660257D01*
X92662600Y-81785930D01*
X92662600Y-81914069D01*
X92687599Y-82039742D01*
X92687600Y-82039747D01*
X92736634Y-82158125D01*
X92736638Y-82158133D01*
X92779465Y-82222226D01*
X92807824Y-82264669D01*
X92898431Y-82355276D01*
X92961948Y-82397717D01*
X93004966Y-82426461D01*
X93004970Y-82426463D01*
X93004973Y-82426465D01*
X93123356Y-82475501D01*
X93249031Y-82500500D01*
X93249032Y-82500500D01*
X93377168Y-82500500D01*
X93377169Y-82500500D01*
X93502844Y-82475501D01*
X93621227Y-82426465D01*
X93727769Y-82355276D01*
X93818376Y-82264669D01*
X93889565Y-82158127D01*
X93938601Y-82039744D01*
X93963600Y-81914069D01*
X93963600Y-81842255D01*
X93982507Y-81784064D01*
X93992590Y-81772257D01*
X94204385Y-81560463D01*
X94260403Y-81463437D01*
X94289400Y-81355218D01*
X94289400Y-81243181D01*
X94289400Y-79885265D01*
X113249500Y-79885265D01*
X113249500Y-80114734D01*
X113279452Y-80342238D01*
X113338841Y-80563885D01*
X113426653Y-80775883D01*
X113484791Y-80876582D01*
X113541389Y-80974612D01*
X113681081Y-81156661D01*
X113843339Y-81318919D01*
X114025388Y-81458611D01*
X114224112Y-81573344D01*
X114224113Y-81573344D01*
X114224116Y-81573346D01*
X114320167Y-81613131D01*
X114436113Y-81661158D01*
X114657762Y-81720548D01*
X114885266Y-81750500D01*
X114885267Y-81750500D01*
X115114733Y-81750500D01*
X115114734Y-81750500D01*
X115342238Y-81720548D01*
X115563887Y-81661158D01*
X115775888Y-81573344D01*
X115974612Y-81458611D01*
X116156661Y-81318919D01*
X116318919Y-81156661D01*
X116458611Y-80974612D01*
X116573344Y-80775888D01*
X116661158Y-80563887D01*
X116720548Y-80342238D01*
X116750500Y-80114734D01*
X116750500Y-79885266D01*
X116720548Y-79657762D01*
X116661158Y-79436113D01*
X116596617Y-79280297D01*
X116573346Y-79224116D01*
X116530081Y-79149179D01*
X116458611Y-79025388D01*
X116318919Y-78843339D01*
X116156661Y-78681081D01*
X116085337Y-78626352D01*
X115974611Y-78541388D01*
X115775883Y-78426653D01*
X115563885Y-78338841D01*
X115342238Y-78279452D01*
X115114734Y-78249500D01*
X114885266Y-78249500D01*
X114885265Y-78249500D01*
X114657761Y-78279452D01*
X114436114Y-78338841D01*
X114224116Y-78426653D01*
X114025388Y-78541388D01*
X113843342Y-78681078D01*
X113681078Y-78843342D01*
X113541388Y-79025388D01*
X113426653Y-79224116D01*
X113338841Y-79436114D01*
X113279452Y-79657761D01*
X113249500Y-79885265D01*
X94289400Y-79885265D01*
X94289400Y-73218253D01*
X94308307Y-73160062D01*
X94318396Y-73148249D01*
X94369176Y-73097469D01*
X94419895Y-73021562D01*
X94467943Y-72983684D01*
X94529081Y-72981282D01*
X94572213Y-73006561D01*
X98782404Y-77216752D01*
X98810181Y-77271269D01*
X98811400Y-77286756D01*
X98811400Y-77358569D01*
X98826902Y-77436503D01*
X98836399Y-77484242D01*
X98836400Y-77484247D01*
X98885434Y-77602625D01*
X98885438Y-77602633D01*
X98920800Y-77655555D01*
X98956624Y-77709169D01*
X99047231Y-77799776D01*
X99110223Y-77841866D01*
X99153766Y-77870961D01*
X99153770Y-77870963D01*
X99153773Y-77870965D01*
X99272156Y-77920001D01*
X99397831Y-77945000D01*
X99397832Y-77945000D01*
X99525968Y-77945000D01*
X99525969Y-77945000D01*
X99651644Y-77920001D01*
X99770027Y-77870965D01*
X99876569Y-77799776D01*
X99967176Y-77709169D01*
X100038365Y-77602627D01*
X100087401Y-77484244D01*
X100112400Y-77358569D01*
X100112400Y-77230431D01*
X100087401Y-77104756D01*
X100038365Y-76986373D01*
X100038363Y-76986370D01*
X100038361Y-76986366D01*
X99998024Y-76925999D01*
X99967176Y-76879831D01*
X99876569Y-76789224D01*
X99834126Y-76760865D01*
X99770033Y-76718038D01*
X99770025Y-76718034D01*
X99651647Y-76669000D01*
X99651645Y-76668999D01*
X99651644Y-76668999D01*
X99525969Y-76644000D01*
X99454156Y-76644000D01*
X99395965Y-76625093D01*
X99384152Y-76615004D01*
X93075296Y-70306148D01*
X93047519Y-70251631D01*
X93046300Y-70236144D01*
X93046300Y-66084756D01*
X93065207Y-66026565D01*
X93114707Y-65990601D01*
X93175893Y-65990601D01*
X93215304Y-66014752D01*
X93806404Y-66605852D01*
X93834181Y-66660369D01*
X93835400Y-66675856D01*
X93835400Y-66747669D01*
X93860248Y-66872586D01*
X93860399Y-66873342D01*
X93860400Y-66873347D01*
X93909434Y-66991725D01*
X93909438Y-66991733D01*
X93952265Y-67055826D01*
X93980624Y-67098269D01*
X94071231Y-67188876D01*
X94134748Y-67231317D01*
X94177766Y-67260061D01*
X94177770Y-67260063D01*
X94177773Y-67260065D01*
X94296156Y-67309101D01*
X94421831Y-67334100D01*
X94421832Y-67334100D01*
X94549968Y-67334100D01*
X94549969Y-67334100D01*
X94675644Y-67309101D01*
X94794027Y-67260065D01*
X94900569Y-67188876D01*
X94991176Y-67098269D01*
X95062365Y-66991727D01*
X95111401Y-66873344D01*
X95136400Y-66747669D01*
X95136400Y-66619531D01*
X95111401Y-66493856D01*
X95062365Y-66375473D01*
X95062363Y-66375470D01*
X95062361Y-66375466D01*
X95033617Y-66332448D01*
X94991176Y-66268931D01*
X94900569Y-66178324D01*
X94858126Y-66149965D01*
X94794033Y-66107138D01*
X94794025Y-66107134D01*
X94675647Y-66058100D01*
X94675645Y-66058099D01*
X94675644Y-66058099D01*
X94549969Y-66033100D01*
X94478156Y-66033100D01*
X94419965Y-66014193D01*
X94408152Y-66004104D01*
X93526996Y-65122948D01*
X93499219Y-65068431D01*
X93498000Y-65052944D01*
X93498000Y-58634542D01*
X93516907Y-58576351D01*
X93566407Y-58540387D01*
X93627593Y-58540387D01*
X93652004Y-58552229D01*
X93667762Y-58562759D01*
X93667770Y-58562763D01*
X93667773Y-58562765D01*
X93786156Y-58611801D01*
X93911831Y-58636800D01*
X93911832Y-58636800D01*
X94039968Y-58636800D01*
X94039969Y-58636800D01*
X94165644Y-58611801D01*
X94284027Y-58562765D01*
X94390569Y-58491576D01*
X94481176Y-58400969D01*
X94552365Y-58294427D01*
X94601401Y-58176044D01*
X94626400Y-58050369D01*
X94626400Y-57922231D01*
X94601401Y-57796556D01*
X94552365Y-57678173D01*
X94552363Y-57678170D01*
X94552361Y-57678166D01*
X94506479Y-57609500D01*
X94481176Y-57571631D01*
X94390569Y-57481024D01*
X94348126Y-57452665D01*
X94284033Y-57409838D01*
X94284025Y-57409834D01*
X94165647Y-57360800D01*
X94165645Y-57360799D01*
X94165644Y-57360799D01*
X94039969Y-57335800D01*
X94039968Y-57335800D01*
X94039963Y-57335799D01*
X94039091Y-57335713D01*
X94038723Y-57335552D01*
X94035198Y-57334851D01*
X94035351Y-57334077D01*
X93983035Y-57311190D01*
X93952099Y-57258401D01*
X93949800Y-57237190D01*
X93949800Y-57213187D01*
X93968707Y-57154996D01*
X94018207Y-57119032D01*
X94079393Y-57119032D01*
X94086679Y-57121720D01*
X94185856Y-57162801D01*
X94311531Y-57187800D01*
X94311532Y-57187800D01*
X94439668Y-57187800D01*
X94439669Y-57187800D01*
X94565344Y-57162801D01*
X94683727Y-57113765D01*
X94790269Y-57042576D01*
X94880876Y-56951969D01*
X94952065Y-56845427D01*
X95001101Y-56727044D01*
X95026100Y-56601369D01*
X95026100Y-56473231D01*
X95001101Y-56347556D01*
X94952065Y-56229173D01*
X94952063Y-56229170D01*
X94952061Y-56229166D01*
X94906516Y-56161004D01*
X94880876Y-56122631D01*
X94830096Y-56071851D01*
X94802319Y-56017334D01*
X94801100Y-56001847D01*
X94801100Y-54945331D01*
X97553300Y-54945331D01*
X97553300Y-55073469D01*
X97567237Y-55143535D01*
X97578299Y-55199142D01*
X97578300Y-55199147D01*
X97627334Y-55317525D01*
X97627338Y-55317533D01*
X97670165Y-55381626D01*
X97698524Y-55424069D01*
X97789131Y-55514676D01*
X97852648Y-55557117D01*
X97895666Y-55585861D01*
X97895670Y-55585863D01*
X97895673Y-55585865D01*
X98014056Y-55634901D01*
X98139731Y-55659900D01*
X98211544Y-55659900D01*
X98269735Y-55678807D01*
X98281548Y-55688896D01*
X104191704Y-61599052D01*
X104219481Y-61653569D01*
X104220700Y-61669056D01*
X104220700Y-62412547D01*
X104201793Y-62470738D01*
X104191704Y-62482551D01*
X104140927Y-62533327D01*
X104140924Y-62533331D01*
X104069738Y-62639866D01*
X104069734Y-62639874D01*
X104020700Y-62758252D01*
X104020699Y-62758255D01*
X104020699Y-62758256D01*
X103995700Y-62883931D01*
X103995700Y-63012069D01*
X104020698Y-63137740D01*
X104020699Y-63137742D01*
X104020700Y-63137747D01*
X104069734Y-63256125D01*
X104069738Y-63256133D01*
X104107301Y-63312348D01*
X104140924Y-63362669D01*
X104231531Y-63453276D01*
X104295048Y-63495717D01*
X104338066Y-63524461D01*
X104338070Y-63524463D01*
X104338073Y-63524465D01*
X104456456Y-63573501D01*
X104582131Y-63598500D01*
X104582132Y-63598500D01*
X104710268Y-63598500D01*
X104710269Y-63598500D01*
X104835944Y-63573501D01*
X104954327Y-63524465D01*
X105060869Y-63453276D01*
X105151476Y-63362669D01*
X105222665Y-63256127D01*
X105258120Y-63170531D01*
X106813300Y-63170531D01*
X106813300Y-63298669D01*
X106826031Y-63362672D01*
X106838299Y-63424342D01*
X106838300Y-63424347D01*
X106887334Y-63542725D01*
X106887338Y-63542733D01*
X106924601Y-63598500D01*
X106958524Y-63649269D01*
X107049131Y-63739876D01*
X107112648Y-63782317D01*
X107155666Y-63811061D01*
X107155670Y-63811063D01*
X107155673Y-63811065D01*
X107274056Y-63860101D01*
X107399731Y-63885100D01*
X107471544Y-63885100D01*
X107529735Y-63904007D01*
X107541548Y-63914096D01*
X110420813Y-66793360D01*
X110420815Y-66793363D01*
X110500037Y-66872585D01*
X110500039Y-66872586D01*
X110597059Y-66928601D01*
X110597057Y-66928601D01*
X110597061Y-66928602D01*
X110597063Y-66928603D01*
X110705281Y-66957600D01*
X110705282Y-66957600D01*
X114245747Y-66957600D01*
X114303938Y-66976507D01*
X114315751Y-66986596D01*
X114366531Y-67037376D01*
X114430048Y-67079817D01*
X114473066Y-67108561D01*
X114473070Y-67108563D01*
X114473073Y-67108565D01*
X114591456Y-67157601D01*
X114717131Y-67182600D01*
X114717132Y-67182600D01*
X114845268Y-67182600D01*
X114845269Y-67182600D01*
X114970944Y-67157601D01*
X115089327Y-67108565D01*
X115195869Y-67037376D01*
X115286476Y-66946769D01*
X115357665Y-66840227D01*
X115406701Y-66721844D01*
X115431700Y-66596169D01*
X115431700Y-66468031D01*
X115406701Y-66342356D01*
X115357665Y-66223973D01*
X115357663Y-66223970D01*
X115357661Y-66223966D01*
X115327163Y-66178324D01*
X115286476Y-66117431D01*
X115195869Y-66026824D01*
X115153426Y-65998465D01*
X115089333Y-65955638D01*
X115089325Y-65955634D01*
X114970947Y-65906600D01*
X114970945Y-65906599D01*
X114970944Y-65906599D01*
X114845269Y-65881600D01*
X114717131Y-65881600D01*
X114717130Y-65881600D01*
X114654293Y-65894099D01*
X114591456Y-65906599D01*
X114591455Y-65906599D01*
X114591452Y-65906600D01*
X114473074Y-65955634D01*
X114473066Y-65955638D01*
X114366531Y-66026824D01*
X114366527Y-66026827D01*
X114315751Y-66077604D01*
X114261234Y-66105381D01*
X114245747Y-66106600D01*
X110978555Y-66106600D01*
X110920364Y-66087693D01*
X110908551Y-66077604D01*
X108143296Y-63312348D01*
X108115519Y-63257831D01*
X108114300Y-63242344D01*
X108114300Y-63170532D01*
X108114300Y-63170531D01*
X108089301Y-63044856D01*
X108040265Y-62926473D01*
X108040263Y-62926470D01*
X108040261Y-62926466D01*
X108010377Y-62881742D01*
X107969076Y-62819931D01*
X107878469Y-62729324D01*
X107833635Y-62699367D01*
X107771933Y-62658138D01*
X107771925Y-62658134D01*
X107699009Y-62627931D01*
X114298600Y-62627931D01*
X114298600Y-62756069D01*
X114311302Y-62819927D01*
X114323599Y-62881742D01*
X114323600Y-62881747D01*
X114372634Y-63000125D01*
X114372638Y-63000133D01*
X114415465Y-63064226D01*
X114443824Y-63106669D01*
X114534431Y-63197276D01*
X114597948Y-63239717D01*
X114640966Y-63268461D01*
X114640970Y-63268463D01*
X114640973Y-63268465D01*
X114759356Y-63317501D01*
X114885031Y-63342500D01*
X114885032Y-63342500D01*
X115013168Y-63342500D01*
X115013169Y-63342500D01*
X115138844Y-63317501D01*
X115257227Y-63268465D01*
X115363769Y-63197276D01*
X115454376Y-63106669D01*
X115525565Y-63000127D01*
X115574601Y-62881744D01*
X115599600Y-62756069D01*
X115599600Y-62627931D01*
X115574601Y-62502256D01*
X115525565Y-62383873D01*
X115525563Y-62383870D01*
X115525561Y-62383866D01*
X115496817Y-62340848D01*
X115454376Y-62277331D01*
X115363769Y-62186724D01*
X115321326Y-62158365D01*
X115257233Y-62115538D01*
X115257225Y-62115534D01*
X115138847Y-62066500D01*
X115138845Y-62066499D01*
X115138844Y-62066499D01*
X115013169Y-62041500D01*
X114885031Y-62041500D01*
X114885030Y-62041500D01*
X114822193Y-62053999D01*
X114759356Y-62066499D01*
X114759355Y-62066499D01*
X114759352Y-62066500D01*
X114640974Y-62115534D01*
X114640966Y-62115538D01*
X114534431Y-62186724D01*
X114534427Y-62186727D01*
X114443827Y-62277327D01*
X114443824Y-62277331D01*
X114372638Y-62383866D01*
X114372634Y-62383874D01*
X114323600Y-62502252D01*
X114323599Y-62502255D01*
X114323599Y-62502256D01*
X114298600Y-62627931D01*
X107699009Y-62627931D01*
X107653547Y-62609100D01*
X107653545Y-62609099D01*
X107653544Y-62609099D01*
X107527869Y-62584100D01*
X107399731Y-62584100D01*
X107399730Y-62584100D01*
X107336893Y-62596599D01*
X107274056Y-62609099D01*
X107274055Y-62609099D01*
X107274052Y-62609100D01*
X107155674Y-62658134D01*
X107155666Y-62658138D01*
X107049131Y-62729324D01*
X107049127Y-62729327D01*
X106958527Y-62819927D01*
X106958524Y-62819931D01*
X106887338Y-62926466D01*
X106887334Y-62926474D01*
X106838300Y-63044852D01*
X106838299Y-63044855D01*
X106838299Y-63044856D01*
X106813300Y-63170531D01*
X105258120Y-63170531D01*
X105271701Y-63137744D01*
X105296700Y-63012069D01*
X105296700Y-62883931D01*
X105271701Y-62758256D01*
X105222665Y-62639873D01*
X105222663Y-62639870D01*
X105222661Y-62639866D01*
X105185399Y-62584100D01*
X105151476Y-62533331D01*
X105100696Y-62482551D01*
X105072919Y-62428034D01*
X105071700Y-62412547D01*
X105071700Y-61395783D01*
X105071700Y-61395782D01*
X105042703Y-61287563D01*
X105042701Y-61287560D01*
X105042701Y-61287558D01*
X104986685Y-61190537D01*
X104907463Y-61111314D01*
X104907463Y-61111315D01*
X98883296Y-55087148D01*
X98855519Y-55032631D01*
X98854300Y-55017144D01*
X98854300Y-54945332D01*
X98854300Y-54945331D01*
X98829301Y-54819656D01*
X98780265Y-54701273D01*
X98780263Y-54701270D01*
X98780261Y-54701266D01*
X98739965Y-54640960D01*
X98709076Y-54594731D01*
X98618469Y-54504124D01*
X98576026Y-54475765D01*
X98511933Y-54432938D01*
X98511925Y-54432934D01*
X98393547Y-54383900D01*
X98393545Y-54383899D01*
X98393544Y-54383899D01*
X98267869Y-54358900D01*
X98139731Y-54358900D01*
X98139730Y-54358900D01*
X98076893Y-54371399D01*
X98014056Y-54383899D01*
X98014055Y-54383899D01*
X98014052Y-54383900D01*
X97895674Y-54432934D01*
X97895666Y-54432938D01*
X97789131Y-54504124D01*
X97789127Y-54504127D01*
X97698527Y-54594727D01*
X97698524Y-54594731D01*
X97627338Y-54701266D01*
X97627334Y-54701274D01*
X97578300Y-54819652D01*
X97578299Y-54819655D01*
X97578299Y-54819656D01*
X97553300Y-54945331D01*
X94801100Y-54945331D01*
X94801100Y-46879885D01*
X94801100Y-46879882D01*
X94800906Y-46879160D01*
X94800909Y-46879094D01*
X94800890Y-46879100D01*
X94772103Y-46771663D01*
X94750241Y-46733797D01*
X94716085Y-46674637D01*
X94636863Y-46595415D01*
X94636860Y-46595413D01*
X90424384Y-42382937D01*
X86099196Y-38057748D01*
X86071419Y-38003231D01*
X86070200Y-37987744D01*
X86070200Y-37915932D01*
X86070200Y-37915931D01*
X86045201Y-37790256D01*
X85996165Y-37671873D01*
X85996163Y-37671870D01*
X85996161Y-37671866D01*
X85967417Y-37628848D01*
X85924976Y-37565331D01*
X85834369Y-37474724D01*
X85766510Y-37429382D01*
X85727833Y-37403538D01*
X85727825Y-37403534D01*
X85609447Y-37354500D01*
X85609445Y-37354499D01*
X85609444Y-37354499D01*
X85483769Y-37329500D01*
X85355631Y-37329500D01*
X85355630Y-37329500D01*
X85307913Y-37338992D01*
X85229956Y-37354499D01*
X85229955Y-37354499D01*
X85229952Y-37354500D01*
X85111574Y-37403534D01*
X85111566Y-37403538D01*
X85005031Y-37474724D01*
X85005027Y-37474727D01*
X84914427Y-37565327D01*
X84914424Y-37565331D01*
X84843238Y-37671866D01*
X84843234Y-37671874D01*
X84794200Y-37790252D01*
X84794199Y-37790257D01*
X84769200Y-37915930D01*
X84769200Y-38044069D01*
X84794199Y-38169742D01*
X84794200Y-38169747D01*
X84843234Y-38288125D01*
X84843238Y-38288133D01*
X84875989Y-38337147D01*
X84914424Y-38394669D01*
X85005031Y-38485276D01*
X85065008Y-38525351D01*
X85111566Y-38556461D01*
X85111570Y-38556463D01*
X85111573Y-38556465D01*
X85229956Y-38605501D01*
X85355631Y-38630500D01*
X85427444Y-38630500D01*
X85485635Y-38649407D01*
X85497448Y-38659496D01*
X93921104Y-47083151D01*
X93948881Y-47137668D01*
X93950100Y-47153155D01*
X93950100Y-49680444D01*
X93931193Y-49738635D01*
X93881693Y-49774599D01*
X93820507Y-49774599D01*
X93781096Y-49750448D01*
X79880279Y-35849631D01*
X89311100Y-35849631D01*
X89311100Y-35977769D01*
X89323838Y-36041807D01*
X89336099Y-36103442D01*
X89336100Y-36103447D01*
X89385134Y-36221825D01*
X89385138Y-36221833D01*
X89411178Y-36260803D01*
X89456324Y-36328369D01*
X89546931Y-36418976D01*
X89610448Y-36461417D01*
X89653466Y-36490161D01*
X89653470Y-36490163D01*
X89653473Y-36490165D01*
X89771856Y-36539201D01*
X89897531Y-36564200D01*
X89969344Y-36564200D01*
X90027535Y-36583107D01*
X90039348Y-36593196D01*
X97026704Y-43580551D01*
X97054481Y-43635068D01*
X97055700Y-43650555D01*
X97055700Y-52712747D01*
X97036793Y-52770938D01*
X97026704Y-52782751D01*
X96975927Y-52833527D01*
X96975924Y-52833531D01*
X96904738Y-52940066D01*
X96904734Y-52940074D01*
X96855700Y-53058452D01*
X96855699Y-53058455D01*
X96855699Y-53058456D01*
X96830700Y-53184131D01*
X96830700Y-53312269D01*
X96851069Y-53414669D01*
X96855699Y-53437942D01*
X96855700Y-53437947D01*
X96904734Y-53556325D01*
X96904738Y-53556333D01*
X96924589Y-53586041D01*
X96975924Y-53662869D01*
X97066531Y-53753476D01*
X97130048Y-53795917D01*
X97173066Y-53824661D01*
X97173070Y-53824663D01*
X97173073Y-53824665D01*
X97291456Y-53873701D01*
X97417131Y-53898700D01*
X97417132Y-53898700D01*
X97545268Y-53898700D01*
X97545269Y-53898700D01*
X97670944Y-53873701D01*
X97789327Y-53824665D01*
X97895869Y-53753476D01*
X97986476Y-53662869D01*
X98057665Y-53556327D01*
X98106701Y-53437944D01*
X98131700Y-53312269D01*
X98131700Y-53184131D01*
X98106701Y-53058456D01*
X98057665Y-52940073D01*
X98057663Y-52940070D01*
X98057661Y-52940066D01*
X98028917Y-52897048D01*
X97986476Y-52833531D01*
X97935696Y-52782751D01*
X97907919Y-52728234D01*
X97906700Y-52712747D01*
X97906700Y-43377281D01*
X97902200Y-43360490D01*
X97902199Y-43360487D01*
X97877703Y-43269063D01*
X97870879Y-43257243D01*
X97856180Y-43231783D01*
X97856180Y-43231782D01*
X97821688Y-43172041D01*
X97821686Y-43172039D01*
X97821685Y-43172037D01*
X97742463Y-43092815D01*
X97742460Y-43092813D01*
X94990702Y-40341055D01*
X92173981Y-37524333D01*
X92146204Y-37469816D01*
X92155775Y-37409384D01*
X92199040Y-37366119D01*
X92259472Y-37356548D01*
X92263302Y-37357232D01*
X92279725Y-37360499D01*
X92279728Y-37360499D01*
X92279731Y-37360500D01*
X92351544Y-37360500D01*
X92409735Y-37379407D01*
X92421548Y-37389496D01*
X105195004Y-50162952D01*
X105222781Y-50217469D01*
X105224000Y-50232956D01*
X105224000Y-57169547D01*
X105205093Y-57227738D01*
X105195004Y-57239551D01*
X105144227Y-57290327D01*
X105144224Y-57290331D01*
X105073038Y-57396866D01*
X105073034Y-57396874D01*
X105024000Y-57515252D01*
X105023999Y-57515255D01*
X105023999Y-57515256D01*
X104999000Y-57640931D01*
X104999000Y-57769069D01*
X105012015Y-57834500D01*
X105023999Y-57894742D01*
X105024000Y-57894747D01*
X105073034Y-58013125D01*
X105073038Y-58013133D01*
X105100299Y-58053931D01*
X105144224Y-58119669D01*
X105234831Y-58210276D01*
X105298348Y-58252717D01*
X105341366Y-58281461D01*
X105341370Y-58281463D01*
X105341373Y-58281465D01*
X105459756Y-58330501D01*
X105585431Y-58355500D01*
X105585432Y-58355500D01*
X105713568Y-58355500D01*
X105713569Y-58355500D01*
X105839244Y-58330501D01*
X105957627Y-58281465D01*
X106064169Y-58210276D01*
X106154776Y-58119669D01*
X106225965Y-58013127D01*
X106275001Y-57894744D01*
X106300000Y-57769069D01*
X106300000Y-57640931D01*
X106275001Y-57515256D01*
X106225965Y-57396873D01*
X106225963Y-57396870D01*
X106225961Y-57396866D01*
X106185157Y-57335800D01*
X106154776Y-57290331D01*
X106103996Y-57239551D01*
X106076219Y-57185034D01*
X106075000Y-57169547D01*
X106075000Y-49959681D01*
X106067358Y-49931164D01*
X106067358Y-49931163D01*
X106046003Y-49851463D01*
X106036000Y-49834137D01*
X105989987Y-49754440D01*
X105989986Y-49754439D01*
X105989985Y-49754438D01*
X105989984Y-49754436D01*
X93023296Y-36787748D01*
X92995519Y-36733231D01*
X92994300Y-36717744D01*
X92994300Y-36645932D01*
X92994300Y-36645931D01*
X92969301Y-36520256D01*
X92920265Y-36401873D01*
X92920263Y-36401870D01*
X92920261Y-36401866D01*
X92871151Y-36328369D01*
X92849076Y-36295331D01*
X92758469Y-36204724D01*
X92716026Y-36176365D01*
X92651933Y-36133538D01*
X92651925Y-36133534D01*
X92533547Y-36084500D01*
X92533545Y-36084499D01*
X92533544Y-36084499D01*
X92407869Y-36059500D01*
X92279731Y-36059500D01*
X92279730Y-36059500D01*
X92216893Y-36071999D01*
X92154056Y-36084499D01*
X92154055Y-36084499D01*
X92154052Y-36084500D01*
X92035674Y-36133534D01*
X92035666Y-36133538D01*
X91929131Y-36204724D01*
X91929127Y-36204727D01*
X91838527Y-36295327D01*
X91838524Y-36295331D01*
X91767338Y-36401866D01*
X91767334Y-36401874D01*
X91718300Y-36520252D01*
X91718299Y-36520257D01*
X91693300Y-36645930D01*
X91693300Y-36774074D01*
X91696568Y-36790501D01*
X91689376Y-36851262D01*
X91647843Y-36896191D01*
X91587833Y-36908128D01*
X91532268Y-36882511D01*
X91529466Y-36879818D01*
X90641096Y-35991448D01*
X90613319Y-35936931D01*
X90612100Y-35921444D01*
X90612100Y-35849632D01*
X90612100Y-35849631D01*
X90587101Y-35723956D01*
X90538065Y-35605573D01*
X90538063Y-35605570D01*
X90538061Y-35605566D01*
X90501266Y-35550500D01*
X90466876Y-35499031D01*
X90376269Y-35408424D01*
X90328882Y-35376761D01*
X90269733Y-35337238D01*
X90269725Y-35337234D01*
X90151347Y-35288200D01*
X90151345Y-35288199D01*
X90151344Y-35288199D01*
X90025669Y-35263200D01*
X89897531Y-35263200D01*
X89897530Y-35263200D01*
X89834693Y-35275699D01*
X89771856Y-35288199D01*
X89771855Y-35288199D01*
X89771852Y-35288200D01*
X89653474Y-35337234D01*
X89653466Y-35337238D01*
X89546931Y-35408424D01*
X89546927Y-35408427D01*
X89456327Y-35499027D01*
X89456324Y-35499031D01*
X89385138Y-35605566D01*
X89385134Y-35605574D01*
X89336100Y-35723952D01*
X89336099Y-35723955D01*
X89336099Y-35723956D01*
X89311100Y-35849631D01*
X79880279Y-35849631D01*
X79301796Y-35271148D01*
X79274019Y-35216631D01*
X79272800Y-35201144D01*
X79272800Y-35129332D01*
X79272800Y-35129331D01*
X79247801Y-35003656D01*
X79198765Y-34885273D01*
X79198763Y-34885270D01*
X79198761Y-34885266D01*
X79152917Y-34816657D01*
X79127576Y-34778731D01*
X79036969Y-34688124D01*
X78977202Y-34648189D01*
X78930433Y-34616938D01*
X78930425Y-34616934D01*
X78812047Y-34567900D01*
X78812045Y-34567899D01*
X78812044Y-34567899D01*
X78686369Y-34542900D01*
X78558231Y-34542900D01*
X78558227Y-34542900D01*
X78489214Y-34556628D01*
X78428453Y-34549436D01*
X78383523Y-34507903D01*
X78370900Y-34459530D01*
X78370900Y-34032183D01*
X78360146Y-33992048D01*
X78341903Y-33923963D01*
X78341901Y-33923960D01*
X78341901Y-33923958D01*
X78285885Y-33826937D01*
X78206663Y-33747714D01*
X78206663Y-33747715D01*
X77123596Y-32664648D01*
X77095819Y-32610131D01*
X77094600Y-32594644D01*
X77094600Y-32522832D01*
X77094600Y-32522831D01*
X77069601Y-32397156D01*
X77020565Y-32278773D01*
X77020563Y-32278770D01*
X77020561Y-32278766D01*
X76987117Y-32228715D01*
X76949376Y-32172231D01*
X76858769Y-32081624D01*
X76810562Y-32049413D01*
X76752233Y-32010438D01*
X76752225Y-32010434D01*
X76633847Y-31961400D01*
X76633845Y-31961399D01*
X76633844Y-31961399D01*
X76508169Y-31936400D01*
X76380031Y-31936400D01*
X76380030Y-31936400D01*
X76317193Y-31948899D01*
X76254356Y-31961399D01*
X76254355Y-31961399D01*
X76254352Y-31961400D01*
X76135974Y-32010434D01*
X76135966Y-32010438D01*
X76029431Y-32081624D01*
X76029427Y-32081627D01*
X75938827Y-32172227D01*
X75938824Y-32172231D01*
X75894474Y-32238605D01*
X75846424Y-32276484D01*
X75785286Y-32278886D01*
X75742155Y-32253607D01*
X74116758Y-30628210D01*
X72481863Y-28993315D01*
X72481860Y-28993313D01*
X72384840Y-28937298D01*
X72384842Y-28937298D01*
X72342851Y-28926047D01*
X72276618Y-28908300D01*
X72276616Y-28908300D01*
X72178153Y-28908300D01*
X72119962Y-28889393D01*
X72108149Y-28879304D01*
X72057372Y-28828527D01*
X72057369Y-28828524D01*
X72003768Y-28792709D01*
X71950833Y-28757338D01*
X71950825Y-28757334D01*
X71832447Y-28708300D01*
X71832445Y-28708299D01*
X71832444Y-28708299D01*
X71706769Y-28683300D01*
X71578631Y-28683300D01*
X71578630Y-28683300D01*
X71515793Y-28695799D01*
X71452956Y-28708299D01*
X71452955Y-28708299D01*
X71452952Y-28708300D01*
X71334574Y-28757334D01*
X71334565Y-28757338D01*
X71281631Y-28792709D01*
X71222742Y-28809318D01*
X71165339Y-28788141D01*
X71131346Y-28737267D01*
X71133748Y-28676129D01*
X71135146Y-28672555D01*
X71150601Y-28635244D01*
X71175600Y-28509569D01*
X71175600Y-28381431D01*
X71159683Y-28301413D01*
X71166874Y-28240654D01*
X71208407Y-28195723D01*
X71256781Y-28183100D01*
X97020344Y-28183100D01*
X97078535Y-28202007D01*
X97090348Y-28212096D01*
X97606808Y-28728556D01*
X97634585Y-28783073D01*
X97630959Y-28829153D01*
X97579058Y-28988886D01*
X97549500Y-29175515D01*
X97549500Y-29364484D01*
X97579058Y-29551113D01*
X97637453Y-29730832D01*
X97720073Y-29892985D01*
X97723240Y-29899199D01*
X97834310Y-30052073D01*
X97967927Y-30185690D01*
X98120801Y-30296760D01*
X98289168Y-30382547D01*
X98468882Y-30440940D01*
X98468883Y-30440940D01*
X98468886Y-30440941D01*
X98476954Y-30442219D01*
X98531471Y-30469996D01*
X98559248Y-30524513D01*
X98549677Y-30584945D01*
X98506412Y-30628210D01*
X98476954Y-30637781D01*
X98468886Y-30639058D01*
X98289167Y-30697453D01*
X98120803Y-30783238D01*
X97967928Y-30894309D01*
X97834309Y-31027928D01*
X97723238Y-31180803D01*
X97637453Y-31349167D01*
X97579058Y-31528886D01*
X97549500Y-31715515D01*
X97549500Y-31904484D01*
X97579058Y-32091113D01*
X97637453Y-32270832D01*
X97717450Y-32427837D01*
X97723240Y-32439199D01*
X97834310Y-32592073D01*
X97967927Y-32725690D01*
X98120801Y-32836760D01*
X98289168Y-32922547D01*
X98468882Y-32980940D01*
X98468883Y-32980940D01*
X98468886Y-32980941D01*
X98476954Y-32982219D01*
X98531471Y-33009996D01*
X98559248Y-33064513D01*
X98549677Y-33124945D01*
X98506412Y-33168210D01*
X98476954Y-33177781D01*
X98468886Y-33179058D01*
X98289167Y-33237453D01*
X98120803Y-33323238D01*
X97967928Y-33434309D01*
X97834309Y-33567928D01*
X97723238Y-33720803D01*
X97637453Y-33889167D01*
X97579058Y-34068886D01*
X97549500Y-34255515D01*
X97549500Y-34444484D01*
X97579058Y-34631113D01*
X97637453Y-34810832D01*
X97712301Y-34957731D01*
X97723240Y-34979199D01*
X97834310Y-35132073D01*
X97967927Y-35265690D01*
X98120801Y-35376760D01*
X98289168Y-35462547D01*
X98468882Y-35520940D01*
X98468883Y-35520940D01*
X98468886Y-35520941D01*
X98476954Y-35522219D01*
X98531471Y-35549996D01*
X98559248Y-35604513D01*
X98549677Y-35664945D01*
X98506412Y-35708210D01*
X98476954Y-35717781D01*
X98468886Y-35719058D01*
X98289167Y-35777453D01*
X98120803Y-35863238D01*
X97967928Y-35974309D01*
X97834309Y-36107928D01*
X97723238Y-36260803D01*
X97637453Y-36429167D01*
X97579058Y-36608886D01*
X97549500Y-36795515D01*
X97549500Y-36984484D01*
X97579058Y-37171113D01*
X97637453Y-37350832D01*
X97716226Y-37505435D01*
X97723240Y-37519199D01*
X97834310Y-37672073D01*
X97967927Y-37805690D01*
X98120801Y-37916760D01*
X98289168Y-38002547D01*
X98468882Y-38060940D01*
X98468883Y-38060940D01*
X98468886Y-38060941D01*
X98655516Y-38090500D01*
X98655519Y-38090500D01*
X98844484Y-38090500D01*
X99031113Y-38060941D01*
X99031114Y-38060940D01*
X99031118Y-38060940D01*
X99210832Y-38002547D01*
X99379199Y-37916760D01*
X99532073Y-37805690D01*
X99665690Y-37672073D01*
X99776760Y-37519199D01*
X99862547Y-37350832D01*
X99920940Y-37171118D01*
X99950500Y-36984481D01*
X99950500Y-36795519D01*
X99950500Y-36795515D01*
X99920941Y-36608886D01*
X99912565Y-36583107D01*
X99862547Y-36429168D01*
X99776760Y-36260801D01*
X99665690Y-36107927D01*
X99532073Y-35974310D01*
X99379199Y-35863240D01*
X99379198Y-35863239D01*
X99379196Y-35863238D01*
X99210832Y-35777453D01*
X99031113Y-35719058D01*
X99023046Y-35717781D01*
X98968529Y-35690004D01*
X98940751Y-35635488D01*
X98950322Y-35575056D01*
X98993586Y-35531791D01*
X99023046Y-35522219D01*
X99031113Y-35520941D01*
X99031114Y-35520940D01*
X99031118Y-35520940D01*
X99210832Y-35462547D01*
X99379199Y-35376760D01*
X99532073Y-35265690D01*
X99665690Y-35132073D01*
X99776760Y-34979199D01*
X99862547Y-34810832D01*
X99920940Y-34631118D01*
X99923186Y-34616938D01*
X99950500Y-34444484D01*
X99950500Y-34255515D01*
X99920941Y-34068886D01*
X99920940Y-34068882D01*
X99862547Y-33889168D01*
X99776760Y-33720801D01*
X99665690Y-33567927D01*
X99532073Y-33434310D01*
X99379199Y-33323240D01*
X99379198Y-33323239D01*
X99379196Y-33323238D01*
X99210832Y-33237453D01*
X99031113Y-33179058D01*
X99023046Y-33177781D01*
X98968529Y-33150004D01*
X98940751Y-33095488D01*
X98950322Y-33035056D01*
X98993586Y-32991791D01*
X99023046Y-32982219D01*
X99031113Y-32980941D01*
X99031114Y-32980940D01*
X99031118Y-32980940D01*
X99210832Y-32922547D01*
X99379199Y-32836760D01*
X99532073Y-32725690D01*
X99665690Y-32592073D01*
X99776760Y-32439199D01*
X99862547Y-32270832D01*
X99920940Y-32091118D01*
X99922444Y-32081624D01*
X99950500Y-31904484D01*
X99950500Y-31715515D01*
X99920941Y-31528886D01*
X99920886Y-31528716D01*
X99862547Y-31349168D01*
X99776760Y-31180801D01*
X99665690Y-31027927D01*
X99532073Y-30894310D01*
X99379199Y-30783240D01*
X99379198Y-30783239D01*
X99379196Y-30783238D01*
X99210832Y-30697453D01*
X99031113Y-30639058D01*
X99023046Y-30637781D01*
X98968529Y-30610004D01*
X98940751Y-30555488D01*
X98950322Y-30495056D01*
X98993586Y-30451791D01*
X99023046Y-30442219D01*
X99031113Y-30440941D01*
X99031114Y-30440940D01*
X99031118Y-30440940D01*
X99210832Y-30382547D01*
X99379199Y-30296760D01*
X99532073Y-30185690D01*
X99665690Y-30052073D01*
X99776760Y-29899199D01*
X99862547Y-29730832D01*
X99920940Y-29551118D01*
X99921646Y-29546661D01*
X99950500Y-29364484D01*
X99950500Y-29175515D01*
X99920941Y-28988886D01*
X99920940Y-28988882D01*
X99862547Y-28809168D01*
X99776760Y-28640801D01*
X99665690Y-28487927D01*
X99532073Y-28354310D01*
X99379199Y-28243240D01*
X99379198Y-28243239D01*
X99379196Y-28243238D01*
X99210832Y-28157453D01*
X99031113Y-28099058D01*
X99023046Y-28097781D01*
X98968529Y-28070004D01*
X98940751Y-28015488D01*
X98950322Y-27955056D01*
X98993586Y-27911791D01*
X99023046Y-27902219D01*
X99031113Y-27900941D01*
X99031114Y-27900940D01*
X99031118Y-27900940D01*
X99210832Y-27842547D01*
X99379199Y-27756760D01*
X99532073Y-27645690D01*
X99665690Y-27512073D01*
X99776760Y-27359199D01*
X99862547Y-27190832D01*
X99920940Y-27011118D01*
X99938333Y-26901301D01*
X99950500Y-26824484D01*
X99950500Y-26635515D01*
X99920941Y-26448886D01*
X99901650Y-26389515D01*
X99862547Y-26269168D01*
X99776760Y-26100801D01*
X99665690Y-25947927D01*
X99532073Y-25814310D01*
X99379199Y-25703240D01*
X99379198Y-25703239D01*
X99379196Y-25703238D01*
X99210832Y-25617453D01*
X99031113Y-25559058D01*
X99023046Y-25557781D01*
X98968529Y-25530004D01*
X98940751Y-25475488D01*
X98950322Y-25415056D01*
X98993586Y-25371791D01*
X99023046Y-25362219D01*
X99031113Y-25360941D01*
X99031114Y-25360940D01*
X99031118Y-25360940D01*
X99210832Y-25302547D01*
X99379199Y-25216760D01*
X99532073Y-25105690D01*
X99665690Y-24972073D01*
X99776760Y-24819199D01*
X99862547Y-24650832D01*
X99920940Y-24471118D01*
X99933244Y-24393435D01*
X99950500Y-24284484D01*
X99950500Y-24095515D01*
X99920941Y-23908886D01*
X99901650Y-23849515D01*
X99862547Y-23729168D01*
X99776760Y-23560801D01*
X99665690Y-23407927D01*
X99532073Y-23274310D01*
X99379199Y-23163240D01*
X99379195Y-23163237D01*
X99379193Y-23163236D01*
X99294652Y-23120160D01*
X99251388Y-23076896D01*
X99241817Y-23016463D01*
X99269595Y-22961947D01*
X99294653Y-22943741D01*
X99483757Y-22847388D01*
X99547513Y-22801067D01*
X98879408Y-22132962D01*
X98942993Y-22115925D01*
X99057007Y-22050099D01*
X99150099Y-21957007D01*
X99215925Y-21842993D01*
X99232962Y-21779408D01*
X99901067Y-22447513D01*
X99947388Y-22383757D01*
X100047430Y-22187413D01*
X100115528Y-21977829D01*
X100150000Y-21760185D01*
X100150000Y-21539814D01*
X100115528Y-21322170D01*
X100047430Y-21112586D01*
X99947387Y-20916241D01*
X99901067Y-20852485D01*
X99232962Y-21520589D01*
X99215925Y-21457007D01*
X99150099Y-21342993D01*
X99057007Y-21249901D01*
X98942993Y-21184075D01*
X98879407Y-21167036D01*
X99547513Y-20498931D01*
X99534659Y-20489593D01*
X99498694Y-20440093D01*
X99498693Y-20378908D01*
X99534656Y-20329407D01*
X99592845Y-20310499D01*
X99694864Y-20310499D01*
X99719991Y-20307585D01*
X99822765Y-20262206D01*
X99902206Y-20182765D01*
X99947585Y-20079991D01*
X99950500Y-20054865D01*
X99950499Y-18165136D01*
X99947585Y-18140009D01*
X99902206Y-18037235D01*
X99822765Y-17957794D01*
X99719991Y-17912415D01*
X99719990Y-17912414D01*
X99719988Y-17912414D01*
X99694868Y-17909500D01*
X97805139Y-17909500D01*
X97805136Y-17909501D01*
X97780009Y-17912414D01*
X97677235Y-17957794D01*
X97597794Y-18037235D01*
X97552414Y-18140011D01*
X97549500Y-18165130D01*
X97549500Y-20054860D01*
X97549501Y-20054863D01*
X97552414Y-20079990D01*
X97577756Y-20137385D01*
X97597794Y-20182765D01*
X97677235Y-20262206D01*
X97780009Y-20307585D01*
X97805135Y-20310500D01*
X97907150Y-20310499D01*
X97965339Y-20329406D01*
X98001303Y-20378905D01*
X98001304Y-20440091D01*
X97965341Y-20489591D01*
X97965340Y-20489592D01*
X97952485Y-20498931D01*
X98620591Y-21167037D01*
X98557007Y-21184075D01*
X98442993Y-21249901D01*
X98349901Y-21342993D01*
X98284075Y-21457007D01*
X98267037Y-21520591D01*
X97598931Y-20852485D01*
X97552613Y-20916239D01*
X97452569Y-21112586D01*
X97384471Y-21322170D01*
X97350000Y-21539814D01*
X97350000Y-21760185D01*
X97384471Y-21977829D01*
X97452569Y-22187413D01*
X97552609Y-22383753D01*
X97598932Y-22447512D01*
X98267036Y-21779407D01*
X98284075Y-21842993D01*
X98349901Y-21957007D01*
X98442993Y-22050099D01*
X98557007Y-22115925D01*
X98620589Y-22132962D01*
X97952485Y-22801067D01*
X98016241Y-22847387D01*
X98205346Y-22943741D01*
X98248611Y-22987006D01*
X98258182Y-23047438D01*
X98230405Y-23101954D01*
X98205347Y-23120160D01*
X98120806Y-23163236D01*
X98120804Y-23163237D01*
X97967928Y-23274309D01*
X97834309Y-23407928D01*
X97723238Y-23560803D01*
X97659100Y-23686681D01*
X97651361Y-23701873D01*
X97646993Y-23710445D01*
X97603728Y-23753710D01*
X97558783Y-23764500D01*
X68496819Y-23764500D01*
X68384782Y-23764500D01*
X68318548Y-23782247D01*
X68276558Y-23793498D01*
X68179539Y-23849513D01*
X67384104Y-24644948D01*
X67329587Y-24672725D01*
X67269155Y-24663154D01*
X67225890Y-24619889D01*
X67215100Y-24574944D01*
X67215100Y-24545453D01*
X67234007Y-24487262D01*
X67244096Y-24475449D01*
X67248432Y-24471113D01*
X67294876Y-24424669D01*
X67366065Y-24318127D01*
X67415101Y-24199744D01*
X67440100Y-24074069D01*
X67440100Y-23945931D01*
X67415101Y-23820256D01*
X67366065Y-23701873D01*
X67366063Y-23701870D01*
X67366061Y-23701866D01*
X67337317Y-23658848D01*
X67294876Y-23595331D01*
X67204269Y-23504724D01*
X67161826Y-23476365D01*
X67097733Y-23433538D01*
X67097725Y-23433534D01*
X66979347Y-23384500D01*
X66979345Y-23384499D01*
X66979344Y-23384499D01*
X66853669Y-23359500D01*
X66725531Y-23359500D01*
X66725530Y-23359500D01*
X66662693Y-23371999D01*
X66599856Y-23384499D01*
X66599855Y-23384499D01*
X66599852Y-23384500D01*
X66481474Y-23433534D01*
X66481466Y-23433538D01*
X66374931Y-23504724D01*
X66374927Y-23504727D01*
X66284327Y-23595327D01*
X66284324Y-23595331D01*
X66213138Y-23701866D01*
X66213134Y-23701874D01*
X66164100Y-23820252D01*
X66164099Y-23820255D01*
X66164099Y-23820256D01*
X66139100Y-23945931D01*
X66139100Y-24074069D01*
X66162391Y-24191159D01*
X66164099Y-24199742D01*
X66164100Y-24199747D01*
X66213134Y-24318125D01*
X66213138Y-24318133D01*
X66250355Y-24373831D01*
X66284324Y-24424669D01*
X66284327Y-24424672D01*
X66335104Y-24475449D01*
X66362881Y-24529966D01*
X66364100Y-24545453D01*
X66364100Y-24983243D01*
X66345193Y-25041434D01*
X66335104Y-25053247D01*
X60551011Y-30837339D01*
X60496494Y-30865116D01*
X60436062Y-30855545D01*
X60395272Y-30816836D01*
X60380520Y-30791284D01*
X60268716Y-30679480D01*
X60131784Y-30600423D01*
X59979057Y-30559500D01*
X59979055Y-30559500D01*
X59942256Y-30559500D01*
X59884065Y-30540593D01*
X59872252Y-30530504D01*
X59871752Y-30530004D01*
X59843975Y-30475487D01*
X59853546Y-30415055D01*
X59871752Y-30389996D01*
X59872252Y-30389496D01*
X59926769Y-30361719D01*
X59942256Y-30360500D01*
X59979055Y-30360500D01*
X59979057Y-30360500D01*
X60131784Y-30319577D01*
X60268716Y-30240520D01*
X60380520Y-30128716D01*
X60459577Y-29991784D01*
X60500500Y-29839057D01*
X60500500Y-29680943D01*
X60459577Y-29528216D01*
X60380520Y-29391284D01*
X60268716Y-29279480D01*
X60131784Y-29200423D01*
X59979057Y-29159500D01*
X59979055Y-29159500D01*
X59942256Y-29159500D01*
X59884065Y-29140593D01*
X59872252Y-29130504D01*
X59829496Y-29087748D01*
X59801719Y-29033231D01*
X59800500Y-29017744D01*
X59800500Y-28980944D01*
X59796353Y-28965466D01*
X59759577Y-28828216D01*
X59680520Y-28691284D01*
X59568716Y-28579480D01*
X59431784Y-28500423D01*
X59279057Y-28459500D01*
X59120943Y-28459500D01*
X58968216Y-28500423D01*
X58831284Y-28579480D01*
X58719480Y-28691284D01*
X58640423Y-28828216D01*
X58610486Y-28939945D01*
X58599500Y-28980944D01*
X58599500Y-29018744D01*
X58580593Y-29076935D01*
X58531093Y-29112899D01*
X58469907Y-29112899D01*
X58430496Y-29088748D01*
X58429496Y-29087748D01*
X58401719Y-29033231D01*
X58400500Y-29017744D01*
X58400500Y-28980944D01*
X58396353Y-28965466D01*
X58359577Y-28828216D01*
X58280520Y-28691284D01*
X58168716Y-28579480D01*
X58031784Y-28500423D01*
X57879057Y-28459500D01*
X57720943Y-28459500D01*
X57568216Y-28500423D01*
X57431284Y-28579480D01*
X57319480Y-28691284D01*
X57240423Y-28828216D01*
X57210486Y-28939945D01*
X57199500Y-28980944D01*
X57199500Y-29017744D01*
X57180593Y-29075935D01*
X57170504Y-29087748D01*
X57127748Y-29130504D01*
X57073231Y-29158281D01*
X57057744Y-29159500D01*
X57020943Y-29159500D01*
X56868216Y-29200423D01*
X56731284Y-29279480D01*
X56619480Y-29391284D01*
X56540423Y-29528216D01*
X56499500Y-29680943D01*
X56499500Y-29839057D01*
X56540423Y-29991784D01*
X56619480Y-30128716D01*
X56731284Y-30240520D01*
X56868216Y-30319577D01*
X57020943Y-30360500D01*
X57020945Y-30360500D01*
X57100500Y-30360500D01*
X57158691Y-30379407D01*
X57194655Y-30428907D01*
X57199500Y-30459500D01*
X57199500Y-30460500D01*
X57180593Y-30518691D01*
X57131093Y-30554655D01*
X57100500Y-30559500D01*
X57020943Y-30559500D01*
X56868216Y-30600423D01*
X56731284Y-30679480D01*
X56619480Y-30791284D01*
X56540423Y-30928216D01*
X56499500Y-31080943D01*
X56499500Y-31239057D01*
X56540423Y-31391784D01*
X56619480Y-31528716D01*
X56731284Y-31640520D01*
X56868216Y-31719577D01*
X57020943Y-31760500D01*
X57057744Y-31760500D01*
X57115935Y-31779407D01*
X57127747Y-31789496D01*
X57170503Y-31832251D01*
X57198281Y-31886767D01*
X57199500Y-31902255D01*
X57199500Y-31939057D01*
X57240423Y-32091784D01*
X57319480Y-32228716D01*
X57431284Y-32340520D01*
X57568216Y-32419577D01*
X57720943Y-32460500D01*
X57720945Y-32460500D01*
X57879055Y-32460500D01*
X57879057Y-32460500D01*
X58031784Y-32419577D01*
X58168716Y-32340520D01*
X58280520Y-32228716D01*
X58359577Y-32091784D01*
X58400500Y-31939057D01*
X58400500Y-31902255D01*
X58419407Y-31844064D01*
X58429426Y-31832322D01*
X58429497Y-31832251D01*
X58429927Y-31831820D01*
X58484414Y-31803989D01*
X58544856Y-31813500D01*
X58570003Y-31831751D01*
X58570504Y-31832252D01*
X58598281Y-31886769D01*
X58599500Y-31902255D01*
X58599500Y-31939057D01*
X58640423Y-32091784D01*
X58719480Y-32228716D01*
X58831284Y-32340520D01*
X58856835Y-32355272D01*
X58897775Y-32400738D01*
X58904172Y-32461588D01*
X58877339Y-32511011D01*
X56204768Y-35183583D01*
X56150251Y-35211360D01*
X56089819Y-35201789D01*
X56046554Y-35158524D01*
X56036983Y-35098092D01*
X56037667Y-35094262D01*
X56042399Y-35070474D01*
X56042400Y-35070467D01*
X56042400Y-34942332D01*
X56042400Y-34942331D01*
X56017401Y-34816656D01*
X55968365Y-34698273D01*
X55968363Y-34698270D01*
X55968361Y-34698266D01*
X55934900Y-34648189D01*
X55897176Y-34591731D01*
X55806569Y-34501124D01*
X55764126Y-34472765D01*
X55700033Y-34429938D01*
X55700025Y-34429934D01*
X55581647Y-34380900D01*
X55581645Y-34380899D01*
X55581644Y-34380899D01*
X55455969Y-34355900D01*
X55384156Y-34355900D01*
X55325965Y-34336993D01*
X55314152Y-34326904D01*
X49170348Y-28183100D01*
X43013563Y-22026315D01*
X43013560Y-22026313D01*
X42916540Y-21970298D01*
X42916542Y-21970298D01*
X42874551Y-21959047D01*
X42808318Y-21941300D01*
X42808316Y-21941300D01*
X36868456Y-21941300D01*
X36810265Y-21922393D01*
X36798452Y-21912304D01*
X36305152Y-21419004D01*
X36277375Y-21364487D01*
X36286946Y-21304055D01*
X36330211Y-21260790D01*
X36375156Y-21250000D01*
X83999999Y-21250000D01*
X84000000Y-21250000D01*
X84000000Y-4885265D01*
X113249500Y-4885265D01*
X113249500Y-5114734D01*
X113279452Y-5342238D01*
X113338841Y-5563885D01*
X113426653Y-5775883D01*
X113426656Y-5775888D01*
X113541389Y-5974612D01*
X113681081Y-6156661D01*
X113843339Y-6318919D01*
X114025388Y-6458611D01*
X114224112Y-6573344D01*
X114224113Y-6573344D01*
X114224116Y-6573346D01*
X114320167Y-6613131D01*
X114436113Y-6661158D01*
X114657762Y-6720548D01*
X114885266Y-6750500D01*
X114885267Y-6750500D01*
X115114733Y-6750500D01*
X115114734Y-6750500D01*
X115342238Y-6720548D01*
X115563887Y-6661158D01*
X115775888Y-6573344D01*
X115974612Y-6458611D01*
X116156661Y-6318919D01*
X116318919Y-6156661D01*
X116458611Y-5974612D01*
X116573344Y-5775888D01*
X116661158Y-5563887D01*
X116720548Y-5342238D01*
X116750500Y-5114734D01*
X116750500Y-4885266D01*
X116720548Y-4657762D01*
X116661158Y-4436113D01*
X116573344Y-4224112D01*
X116458611Y-4025388D01*
X116318919Y-3843339D01*
X116156661Y-3681081D01*
X115974612Y-3541389D01*
X115974613Y-3541389D01*
X115974611Y-3541388D01*
X115775883Y-3426653D01*
X115563885Y-3338841D01*
X115342238Y-3279452D01*
X115114734Y-3249500D01*
X114885266Y-3249500D01*
X114885265Y-3249500D01*
X114657761Y-3279452D01*
X114436114Y-3338841D01*
X114224116Y-3426653D01*
X114025388Y-3541388D01*
X113843342Y-3681078D01*
X113681078Y-3843342D01*
X113541388Y-4025388D01*
X113426653Y-4224116D01*
X113338841Y-4436114D01*
X113279452Y-4657761D01*
X113249500Y-4885265D01*
X84000000Y-4885265D01*
X84000000Y-699000D01*
X84018907Y-640809D01*
X84068407Y-604845D01*
X84099000Y-600000D01*
X117668441Y-600000D01*
X117697915Y-604489D01*
X117880377Y-661391D01*
X117891549Y-665631D01*
X118155837Y-784631D01*
X118166415Y-790184D01*
X118414466Y-940174D01*
X118424278Y-946947D01*
X118652451Y-1125730D01*
X118661387Y-1133647D01*
X118866352Y-1338612D01*
X118874270Y-1347550D01*
X119053049Y-1575718D01*
X119059830Y-1585540D01*
X119209814Y-1833582D01*
X119215368Y-1844162D01*
X119334368Y-2108450D01*
X119338608Y-2119622D01*
X119395511Y-2302083D01*
X119400000Y-2331557D01*
X119400000Y-82668441D01*
X119395511Y-82697915D01*
X119338608Y-82880377D01*
X119334368Y-82891549D01*
X119215368Y-83155837D01*
X119209814Y-83166417D01*
X119059830Y-83414459D01*
X119053041Y-83424293D01*
X118874276Y-83652443D01*
X118866352Y-83661387D01*
X118661387Y-83866352D01*
X118652443Y-83874276D01*
X118424293Y-84053041D01*
X118414459Y-84059830D01*
X118166417Y-84209814D01*
X118155837Y-84215368D01*
X117891549Y-84334368D01*
X117880377Y-84338608D01*
X117697915Y-84395511D01*
X117668441Y-84400000D01*
X2331559Y-84400000D01*
X2302085Y-84395511D01*
X2119622Y-84338608D01*
X2108450Y-84334368D01*
X1844162Y-84215368D01*
X1833582Y-84209814D01*
X1585540Y-84059830D01*
X1575718Y-84053049D01*
X1347550Y-83874270D01*
X1338612Y-83866352D01*
X1133647Y-83661387D01*
X1125730Y-83652451D01*
X946947Y-83424278D01*
X940174Y-83414466D01*
X790184Y-83166415D01*
X784631Y-83155837D01*
X665631Y-82891549D01*
X661391Y-82880377D01*
X604489Y-82697915D01*
X600000Y-82668441D01*
X600000Y-79885265D01*
X3249500Y-79885265D01*
X3249500Y-80114734D01*
X3279452Y-80342238D01*
X3338841Y-80563885D01*
X3426653Y-80775883D01*
X3484791Y-80876582D01*
X3541389Y-80974612D01*
X3681081Y-81156661D01*
X3843339Y-81318919D01*
X4025388Y-81458611D01*
X4224112Y-81573344D01*
X4224113Y-81573344D01*
X4224116Y-81573346D01*
X4320167Y-81613131D01*
X4436113Y-81661158D01*
X4657762Y-81720548D01*
X4885266Y-81750500D01*
X4885267Y-81750500D01*
X5114733Y-81750500D01*
X5114734Y-81750500D01*
X5342238Y-81720548D01*
X5563887Y-81661158D01*
X5775888Y-81573344D01*
X5974612Y-81458611D01*
X6156661Y-81318919D01*
X6318919Y-81156661D01*
X6458611Y-80974612D01*
X6573344Y-80775888D01*
X6661158Y-80563887D01*
X6720548Y-80342238D01*
X6750500Y-80114734D01*
X6750500Y-79885266D01*
X6720548Y-79657762D01*
X6661158Y-79436113D01*
X6596617Y-79280297D01*
X6573346Y-79224116D01*
X6530081Y-79149179D01*
X6458611Y-79025388D01*
X6318919Y-78843339D01*
X6156661Y-78681081D01*
X6085337Y-78626352D01*
X5974611Y-78541388D01*
X5775883Y-78426653D01*
X5563885Y-78338841D01*
X5342238Y-78279452D01*
X5114734Y-78249500D01*
X4885266Y-78249500D01*
X4885265Y-78249500D01*
X4657761Y-78279452D01*
X4436114Y-78338841D01*
X4224116Y-78426653D01*
X4025388Y-78541388D01*
X3843342Y-78681078D01*
X3681078Y-78843342D01*
X3541388Y-79025388D01*
X3426653Y-79224116D01*
X3338841Y-79436114D01*
X3279452Y-79657761D01*
X3249500Y-79885265D01*
X600000Y-79885265D01*
X600000Y-77591155D01*
X14879500Y-77591155D01*
X14879500Y-78848844D01*
X14893842Y-78920943D01*
X14908349Y-78993877D01*
X14910263Y-79003496D01*
X14910263Y-79003498D01*
X14970603Y-79149174D01*
X14970609Y-79149185D01*
X15020675Y-79224112D01*
X15058211Y-79280289D01*
X15058214Y-79280292D01*
X15058218Y-79280297D01*
X15169712Y-79391790D01*
X15210500Y-79419043D01*
X15248380Y-79467092D01*
X15254500Y-79501359D01*
X15254500Y-81268639D01*
X15235593Y-81326830D01*
X15210503Y-81350953D01*
X15169712Y-81378209D01*
X15058214Y-81489707D01*
X15058211Y-81489711D01*
X14970609Y-81620814D01*
X14970603Y-81620825D01*
X14910263Y-81766501D01*
X14910263Y-81766503D01*
X14879500Y-81921155D01*
X14879500Y-82878844D01*
X14910263Y-83033496D01*
X14910263Y-83033498D01*
X14970603Y-83179174D01*
X14970609Y-83179185D01*
X15023312Y-83258059D01*
X15058211Y-83310289D01*
X15169711Y-83421789D01*
X15247876Y-83474017D01*
X15300814Y-83509390D01*
X15300825Y-83509396D01*
X15354638Y-83531685D01*
X15446503Y-83569737D01*
X15601158Y-83600500D01*
X15601159Y-83600500D01*
X15758841Y-83600500D01*
X15758842Y-83600500D01*
X15913497Y-83569737D01*
X16059179Y-83509394D01*
X16190289Y-83421789D01*
X16301789Y-83310289D01*
X16389394Y-83179179D01*
X16449737Y-83033497D01*
X16480500Y-82878842D01*
X16480500Y-81921158D01*
X16449737Y-81766503D01*
X16405729Y-81660257D01*
X16389396Y-81620825D01*
X16389390Y-81620813D01*
X16316750Y-81512102D01*
X16300141Y-81453214D01*
X16321318Y-81395810D01*
X16372192Y-81361817D01*
X16399065Y-81358100D01*
X23600935Y-81358100D01*
X23659126Y-81377007D01*
X23695090Y-81426507D01*
X23695090Y-81487693D01*
X23683250Y-81512102D01*
X23610609Y-81620813D01*
X23610603Y-81620825D01*
X23550263Y-81766501D01*
X23550263Y-81766503D01*
X23519500Y-81921155D01*
X23519500Y-82878844D01*
X23550263Y-83033496D01*
X23550263Y-83033498D01*
X23610603Y-83179174D01*
X23610609Y-83179185D01*
X23663312Y-83258059D01*
X23698211Y-83310289D01*
X23809711Y-83421789D01*
X23887876Y-83474017D01*
X23940814Y-83509390D01*
X23940825Y-83509396D01*
X23994638Y-83531685D01*
X24086503Y-83569737D01*
X24241158Y-83600500D01*
X24241159Y-83600500D01*
X24398841Y-83600500D01*
X24398842Y-83600500D01*
X24553497Y-83569737D01*
X24699179Y-83509394D01*
X24830289Y-83421789D01*
X24941789Y-83310289D01*
X25029394Y-83179179D01*
X25089737Y-83033497D01*
X25120500Y-82878842D01*
X25120500Y-81921158D01*
X25089737Y-81766503D01*
X25045729Y-81660257D01*
X25029396Y-81620825D01*
X25029390Y-81620814D01*
X24976643Y-81541874D01*
X24941789Y-81489711D01*
X24830289Y-81378211D01*
X24830287Y-81378209D01*
X24789497Y-81350953D01*
X24751618Y-81302903D01*
X24745500Y-81268639D01*
X24745500Y-79501359D01*
X24764407Y-79443168D01*
X24789500Y-79419043D01*
X24830289Y-79391789D01*
X24941789Y-79280289D01*
X25029394Y-79149179D01*
X25089737Y-79003497D01*
X25120500Y-78848842D01*
X25120500Y-78433031D01*
X46556500Y-78433031D01*
X46556500Y-78561169D01*
X46579673Y-78677665D01*
X46581499Y-78686842D01*
X46581500Y-78686847D01*
X46630534Y-78805225D01*
X46630538Y-78805233D01*
X46659679Y-78848844D01*
X46701724Y-78911769D01*
X46792331Y-79002376D01*
X46855848Y-79044817D01*
X46898866Y-79073561D01*
X46898870Y-79073563D01*
X46898873Y-79073565D01*
X47017256Y-79122601D01*
X47142931Y-79147600D01*
X47142932Y-79147600D01*
X47271068Y-79147600D01*
X47271069Y-79147600D01*
X47396744Y-79122601D01*
X47515127Y-79073565D01*
X47621669Y-79002376D01*
X47712276Y-78911769D01*
X47783465Y-78805227D01*
X47832501Y-78686844D01*
X47857500Y-78561169D01*
X47857500Y-78433031D01*
X47832501Y-78307356D01*
X47783465Y-78188973D01*
X47783463Y-78188970D01*
X47783461Y-78188966D01*
X47754717Y-78145948D01*
X47712276Y-78082431D01*
X47621669Y-77991824D01*
X47551592Y-77945000D01*
X47515133Y-77920638D01*
X47515125Y-77920634D01*
X47396747Y-77871600D01*
X47396745Y-77871599D01*
X47396744Y-77871599D01*
X47271069Y-77846600D01*
X47142931Y-77846600D01*
X47142930Y-77846600D01*
X47080093Y-77859099D01*
X47017256Y-77871599D01*
X47017255Y-77871599D01*
X47017252Y-77871600D01*
X46898874Y-77920634D01*
X46898866Y-77920638D01*
X46792331Y-77991824D01*
X46792327Y-77991827D01*
X46701727Y-78082427D01*
X46701724Y-78082431D01*
X46630538Y-78188966D01*
X46630534Y-78188974D01*
X46581500Y-78307352D01*
X46581499Y-78307355D01*
X46581499Y-78307356D01*
X46575056Y-78339747D01*
X46557494Y-78428036D01*
X46556500Y-78433031D01*
X25120500Y-78433031D01*
X25120500Y-77591158D01*
X25089737Y-77436503D01*
X25069622Y-77387942D01*
X25029396Y-77290825D01*
X25029390Y-77290814D01*
X24948300Y-77169456D01*
X24941789Y-77159711D01*
X24903021Y-77120943D01*
X30574500Y-77120943D01*
X30574500Y-77279057D01*
X30615423Y-77431784D01*
X30694480Y-77568716D01*
X30806284Y-77680520D01*
X30943216Y-77759577D01*
X31095943Y-77800500D01*
X31095945Y-77800500D01*
X31254055Y-77800500D01*
X31254057Y-77800500D01*
X31406784Y-77759577D01*
X31543716Y-77680520D01*
X31655520Y-77568716D01*
X31734577Y-77431784D01*
X31775500Y-77279057D01*
X31775500Y-77120943D01*
X31734577Y-76968216D01*
X31655520Y-76831284D01*
X31543716Y-76719480D01*
X31406784Y-76640423D01*
X31254057Y-76599500D01*
X31095943Y-76599500D01*
X30943216Y-76640423D01*
X30806284Y-76719480D01*
X30694480Y-76831284D01*
X30615423Y-76968216D01*
X30574500Y-77120943D01*
X24903021Y-77120943D01*
X24830289Y-77048211D01*
X24767011Y-77005930D01*
X24699185Y-76960609D01*
X24699174Y-76960603D01*
X24553497Y-76900263D01*
X24398844Y-76869500D01*
X24398842Y-76869500D01*
X24241158Y-76869500D01*
X24241155Y-76869500D01*
X24086503Y-76900263D01*
X24086501Y-76900263D01*
X23940825Y-76960603D01*
X23940814Y-76960609D01*
X23809711Y-77048211D01*
X23809707Y-77048214D01*
X23698214Y-77159707D01*
X23698211Y-77159711D01*
X23610609Y-77290814D01*
X23610603Y-77290825D01*
X23550263Y-77436501D01*
X23550263Y-77436503D01*
X23519500Y-77591155D01*
X23519500Y-78489854D01*
X23500593Y-78548045D01*
X23451093Y-78584009D01*
X23389907Y-78584009D01*
X23340407Y-78548045D01*
X23334763Y-78539354D01*
X23333095Y-78536465D01*
X23333095Y-78536464D01*
X23270495Y-78428036D01*
X23181964Y-78339505D01*
X23073536Y-78276905D01*
X22952601Y-78244500D01*
X22827399Y-78244500D01*
X22746775Y-78266103D01*
X22706463Y-78276905D01*
X22598036Y-78339505D01*
X22509505Y-78428036D01*
X22446904Y-78536466D01*
X22422818Y-78626352D01*
X22389494Y-78677665D01*
X22332372Y-78699591D01*
X22273271Y-78683755D01*
X22241457Y-78650229D01*
X22230520Y-78631284D01*
X22118716Y-78519480D01*
X21981784Y-78440423D01*
X21829057Y-78399500D01*
X21670943Y-78399500D01*
X21518216Y-78440423D01*
X21381284Y-78519480D01*
X21269480Y-78631284D01*
X21190423Y-78768216D01*
X21149500Y-78920943D01*
X21149500Y-79079057D01*
X21190423Y-79231784D01*
X21269480Y-79368716D01*
X21381284Y-79480520D01*
X21518216Y-79559577D01*
X21670943Y-79600500D01*
X21670945Y-79600500D01*
X21829055Y-79600500D01*
X21829057Y-79600500D01*
X21981784Y-79559577D01*
X22118716Y-79480520D01*
X22230520Y-79368716D01*
X22309577Y-79231784D01*
X22350500Y-79079057D01*
X22350500Y-79079053D01*
X22350600Y-79078297D01*
X22350835Y-79077803D01*
X22352179Y-79072789D01*
X22353108Y-79073038D01*
X22376941Y-79023072D01*
X22430712Y-78993877D01*
X22491374Y-79001863D01*
X22518753Y-79021212D01*
X22598036Y-79100495D01*
X22706464Y-79163095D01*
X22827399Y-79195500D01*
X22827401Y-79195500D01*
X22952599Y-79195500D01*
X22952601Y-79195500D01*
X23073536Y-79163095D01*
X23181964Y-79100495D01*
X23270495Y-79011964D01*
X23333095Y-78903536D01*
X23336433Y-78891080D01*
X23369752Y-78839769D01*
X23426873Y-78817840D01*
X23485974Y-78833673D01*
X23524481Y-78881222D01*
X23529156Y-78897389D01*
X23550263Y-79003498D01*
X23610603Y-79149174D01*
X23610609Y-79149185D01*
X23660675Y-79224112D01*
X23698211Y-79280289D01*
X23698214Y-79280292D01*
X23698218Y-79280297D01*
X23809712Y-79391790D01*
X23850500Y-79419043D01*
X23888380Y-79467092D01*
X23894500Y-79501359D01*
X23894500Y-80408100D01*
X23875593Y-80466291D01*
X23826093Y-80502255D01*
X23795500Y-80507100D01*
X16204500Y-80507100D01*
X16146309Y-80488193D01*
X16110345Y-80438693D01*
X16105500Y-80408100D01*
X16105500Y-79501359D01*
X16124407Y-79443168D01*
X16149500Y-79419043D01*
X16190289Y-79391789D01*
X16301789Y-79280289D01*
X16389394Y-79149179D01*
X16449737Y-79003497D01*
X16470843Y-78897389D01*
X16500740Y-78844006D01*
X16556305Y-78818390D01*
X16616315Y-78830327D01*
X16657847Y-78875257D01*
X16663567Y-78891080D01*
X16666903Y-78903532D01*
X16666904Y-78903533D01*
X16666905Y-78903536D01*
X16729505Y-79011964D01*
X16818036Y-79100495D01*
X16926464Y-79163095D01*
X17047399Y-79195500D01*
X17047401Y-79195500D01*
X17172599Y-79195500D01*
X17172601Y-79195500D01*
X17293536Y-79163095D01*
X17401964Y-79100495D01*
X17490495Y-79011964D01*
X17553095Y-78903536D01*
X17585500Y-78782601D01*
X17585500Y-78657399D01*
X17553095Y-78536464D01*
X17490495Y-78428036D01*
X17401964Y-78339505D01*
X17293536Y-78276905D01*
X17172601Y-78244500D01*
X17047399Y-78244500D01*
X16966775Y-78266103D01*
X16926463Y-78276905D01*
X16819186Y-78338841D01*
X16818036Y-78339505D01*
X16729505Y-78428036D01*
X16666905Y-78536464D01*
X16666904Y-78536465D01*
X16665237Y-78539354D01*
X16619767Y-78580295D01*
X16558917Y-78586691D01*
X16505929Y-78556098D01*
X16481042Y-78500203D01*
X16480500Y-78489854D01*
X16480500Y-77591159D01*
X16480499Y-77591155D01*
X16449737Y-77436503D01*
X16429622Y-77387942D01*
X16389396Y-77290825D01*
X16389390Y-77290814D01*
X16349042Y-77230430D01*
X16301789Y-77159711D01*
X16190289Y-77048211D01*
X16127011Y-77005930D01*
X16059185Y-76960609D01*
X16059174Y-76960603D01*
X15913497Y-76900263D01*
X15758844Y-76869500D01*
X15758842Y-76869500D01*
X15601158Y-76869500D01*
X15601155Y-76869500D01*
X15446503Y-76900263D01*
X15446501Y-76900263D01*
X15300825Y-76960603D01*
X15300814Y-76960609D01*
X15169711Y-77048211D01*
X15169707Y-77048214D01*
X15058214Y-77159707D01*
X15058211Y-77159711D01*
X14970609Y-77290814D01*
X14970603Y-77290825D01*
X14910263Y-77436501D01*
X14910263Y-77436503D01*
X14879500Y-77591155D01*
X600000Y-77591155D01*
X600000Y-76520943D01*
X21799500Y-76520943D01*
X21799500Y-76679057D01*
X21840423Y-76831784D01*
X21919480Y-76968716D01*
X22031284Y-77080520D01*
X22168216Y-77159577D01*
X22320943Y-77200500D01*
X22320945Y-77200500D01*
X22479055Y-77200500D01*
X22479057Y-77200500D01*
X22631784Y-77159577D01*
X22768716Y-77080520D01*
X22880520Y-76968716D01*
X22959577Y-76831784D01*
X23000500Y-76679057D01*
X23000500Y-76520943D01*
X22959577Y-76368216D01*
X22880520Y-76231284D01*
X22768716Y-76119480D01*
X22631784Y-76040423D01*
X22479057Y-75999500D01*
X22320943Y-75999500D01*
X22168216Y-76040423D01*
X22031284Y-76119480D01*
X21919480Y-76231284D01*
X21840423Y-76368216D01*
X21799500Y-76520943D01*
X600000Y-76520943D01*
X600000Y-75626081D01*
X16849500Y-75626081D01*
X16849500Y-75773918D01*
X16878342Y-75918914D01*
X16902744Y-75977825D01*
X16934916Y-76055495D01*
X17017049Y-76178416D01*
X17121584Y-76282951D01*
X17244505Y-76365084D01*
X17381087Y-76421658D01*
X17526082Y-76450500D01*
X17526083Y-76450500D01*
X17673917Y-76450500D01*
X17673918Y-76450500D01*
X17818913Y-76421658D01*
X17955495Y-76365084D01*
X18078416Y-76282951D01*
X18182951Y-76178416D01*
X18265084Y-76055495D01*
X18311834Y-75942631D01*
X49046900Y-75942631D01*
X49046900Y-76070769D01*
X49056589Y-76119480D01*
X49071899Y-76196442D01*
X49071900Y-76196447D01*
X49120934Y-76314825D01*
X49120938Y-76314833D01*
X49156608Y-76368216D01*
X49192124Y-76421369D01*
X49282731Y-76511976D01*
X49346248Y-76554417D01*
X49389266Y-76583161D01*
X49389270Y-76583163D01*
X49389273Y-76583165D01*
X49507656Y-76632201D01*
X49633331Y-76657200D01*
X49633332Y-76657200D01*
X49761468Y-76657200D01*
X49761469Y-76657200D01*
X49887144Y-76632201D01*
X50005527Y-76583165D01*
X50112069Y-76511976D01*
X50202676Y-76421369D01*
X50273865Y-76314827D01*
X50322901Y-76196444D01*
X50347900Y-76070769D01*
X50347900Y-75942631D01*
X50322901Y-75816956D01*
X50273865Y-75698573D01*
X50273863Y-75698570D01*
X50273861Y-75698566D01*
X50245117Y-75655548D01*
X50202676Y-75592031D01*
X50112069Y-75501424D01*
X50069626Y-75473065D01*
X50005533Y-75430238D01*
X50005525Y-75430234D01*
X49887147Y-75381200D01*
X49887145Y-75381199D01*
X49887144Y-75381199D01*
X49761469Y-75356200D01*
X49633331Y-75356200D01*
X49633330Y-75356200D01*
X49602157Y-75362401D01*
X49507656Y-75381199D01*
X49507655Y-75381199D01*
X49507652Y-75381200D01*
X49389274Y-75430234D01*
X49389266Y-75430238D01*
X49282731Y-75501424D01*
X49282727Y-75501427D01*
X49192127Y-75592027D01*
X49192124Y-75592031D01*
X49120938Y-75698566D01*
X49120934Y-75698574D01*
X49071900Y-75816952D01*
X49071899Y-75816955D01*
X49071899Y-75816956D01*
X49046900Y-75942631D01*
X18311834Y-75942631D01*
X18321658Y-75918913D01*
X18350500Y-75773918D01*
X18350500Y-75626082D01*
X18321658Y-75481087D01*
X18265084Y-75344505D01*
X18182951Y-75221584D01*
X18078416Y-75117049D01*
X17955495Y-75034916D01*
X17930938Y-75024744D01*
X17818914Y-74978342D01*
X17673918Y-74949500D01*
X17526082Y-74949500D01*
X17526081Y-74949500D01*
X17381085Y-74978342D01*
X17244506Y-75034915D01*
X17121585Y-75117048D01*
X17017048Y-75221585D01*
X16934915Y-75344506D01*
X16878342Y-75481085D01*
X16849500Y-75626081D01*
X600000Y-75626081D01*
X600000Y-73221155D01*
X30199500Y-73221155D01*
X30199500Y-73378844D01*
X30230263Y-73533496D01*
X30230263Y-73533498D01*
X30290603Y-73679174D01*
X30290609Y-73679185D01*
X30343312Y-73758059D01*
X30378211Y-73810289D01*
X30489711Y-73921789D01*
X30567876Y-73974017D01*
X30620814Y-74009390D01*
X30620825Y-74009396D01*
X30674638Y-74031685D01*
X30766503Y-74069737D01*
X30921158Y-74100500D01*
X30921159Y-74100500D01*
X31078841Y-74100500D01*
X31078842Y-74100500D01*
X31233497Y-74069737D01*
X31379179Y-74009394D01*
X31510289Y-73921789D01*
X31621789Y-73810289D01*
X31709394Y-73679179D01*
X31769737Y-73533497D01*
X31800500Y-73378842D01*
X31800500Y-73221158D01*
X31769737Y-73066503D01*
X31709394Y-72920821D01*
X31709393Y-72920819D01*
X31709390Y-72920814D01*
X31674017Y-72867876D01*
X31621789Y-72789711D01*
X31510289Y-72678211D01*
X31458059Y-72643312D01*
X31379185Y-72590609D01*
X31379174Y-72590603D01*
X31233497Y-72530263D01*
X31078844Y-72499500D01*
X31078842Y-72499500D01*
X30921158Y-72499500D01*
X30921155Y-72499500D01*
X30766503Y-72530263D01*
X30766501Y-72530263D01*
X30620825Y-72590603D01*
X30620814Y-72590609D01*
X30489711Y-72678211D01*
X30489707Y-72678214D01*
X30378214Y-72789707D01*
X30378211Y-72789711D01*
X30290609Y-72920814D01*
X30290603Y-72920825D01*
X30230263Y-73066501D01*
X30230263Y-73066503D01*
X30199500Y-73221155D01*
X600000Y-73221155D01*
X600000Y-51270330D01*
X10015900Y-51270330D01*
X10015900Y-51398469D01*
X10040899Y-51524142D01*
X10040900Y-51524147D01*
X10089934Y-51642525D01*
X10089938Y-51642533D01*
X10132765Y-51706626D01*
X10161124Y-51749069D01*
X10251731Y-51839676D01*
X10315248Y-51882117D01*
X10358266Y-51910861D01*
X10358270Y-51910863D01*
X10358273Y-51910865D01*
X10476656Y-51959901D01*
X10602331Y-51984900D01*
X10602332Y-51984900D01*
X10730468Y-51984900D01*
X10730469Y-51984900D01*
X10856144Y-51959901D01*
X10974527Y-51910865D01*
X11081069Y-51839676D01*
X11171676Y-51749069D01*
X11197893Y-51709831D01*
X13748800Y-51709831D01*
X13748800Y-51837969D01*
X13773054Y-51959901D01*
X13773799Y-51963642D01*
X13773800Y-51963647D01*
X13822834Y-52082025D01*
X13822838Y-52082033D01*
X13865665Y-52146126D01*
X13894024Y-52188569D01*
X13984631Y-52279176D01*
X14048148Y-52321617D01*
X14091166Y-52350361D01*
X14091170Y-52350363D01*
X14091173Y-52350365D01*
X14209556Y-52399401D01*
X14335231Y-52424400D01*
X14335232Y-52424400D01*
X14463368Y-52424400D01*
X14463369Y-52424400D01*
X14589044Y-52399401D01*
X14707427Y-52350365D01*
X14813969Y-52279176D01*
X14904576Y-52188569D01*
X14975765Y-52082027D01*
X15024801Y-51963644D01*
X15049800Y-51837969D01*
X15049800Y-51709831D01*
X15024801Y-51584156D01*
X14975765Y-51465773D01*
X14975763Y-51465770D01*
X14975761Y-51465766D01*
X14930794Y-51398469D01*
X14904576Y-51359231D01*
X14813969Y-51268624D01*
X14771526Y-51240265D01*
X14707433Y-51197438D01*
X14707425Y-51197434D01*
X14589047Y-51148400D01*
X14589045Y-51148399D01*
X14589044Y-51148399D01*
X14463369Y-51123400D01*
X14335231Y-51123400D01*
X14335230Y-51123400D01*
X14272393Y-51135899D01*
X14209556Y-51148399D01*
X14209555Y-51148399D01*
X14209552Y-51148400D01*
X14091174Y-51197434D01*
X14091166Y-51197438D01*
X13984631Y-51268624D01*
X13984627Y-51268627D01*
X13894027Y-51359227D01*
X13894024Y-51359231D01*
X13822838Y-51465766D01*
X13822834Y-51465774D01*
X13773800Y-51584152D01*
X13773799Y-51584155D01*
X13773799Y-51584156D01*
X13748800Y-51709831D01*
X11197893Y-51709831D01*
X11199774Y-51707016D01*
X11237896Y-51649965D01*
X11242862Y-51642531D01*
X11242865Y-51642527D01*
X11291901Y-51524144D01*
X11316900Y-51398469D01*
X11316900Y-51270331D01*
X11291901Y-51144656D01*
X11242865Y-51026273D01*
X11242863Y-51026270D01*
X11242861Y-51026266D01*
X11201421Y-50964248D01*
X11171676Y-50919731D01*
X11081069Y-50829124D01*
X11038626Y-50800765D01*
X10974533Y-50757938D01*
X10974525Y-50757934D01*
X10856147Y-50708900D01*
X10856145Y-50708899D01*
X10856144Y-50708899D01*
X10730469Y-50683900D01*
X10602331Y-50683900D01*
X10602330Y-50683900D01*
X10539493Y-50696399D01*
X10476656Y-50708899D01*
X10476655Y-50708899D01*
X10476652Y-50708900D01*
X10358274Y-50757934D01*
X10358266Y-50757938D01*
X10251731Y-50829124D01*
X10251727Y-50829127D01*
X10161127Y-50919727D01*
X10161124Y-50919731D01*
X10089938Y-51026266D01*
X10089934Y-51026274D01*
X10040900Y-51144652D01*
X10040899Y-51144655D01*
X10040899Y-51144656D01*
X10040154Y-51148400D01*
X10015900Y-51270330D01*
X600000Y-51270330D01*
X600000Y-45460943D01*
X8399500Y-45460943D01*
X8399500Y-45619057D01*
X8440423Y-45771784D01*
X8519480Y-45908716D01*
X8631284Y-46020520D01*
X8768216Y-46099577D01*
X8920943Y-46140500D01*
X8920945Y-46140500D01*
X9079055Y-46140500D01*
X9079057Y-46140500D01*
X9231784Y-46099577D01*
X9368716Y-46020520D01*
X9480520Y-45908716D01*
X9559577Y-45771784D01*
X9600500Y-45619057D01*
X9600500Y-45460943D01*
X9559577Y-45308216D01*
X9480520Y-45171284D01*
X9368716Y-45059480D01*
X9231784Y-44980423D01*
X9079057Y-44939500D01*
X8920943Y-44939500D01*
X8768216Y-44980423D01*
X8631284Y-45059480D01*
X8519480Y-45171284D01*
X8440423Y-45308216D01*
X8399500Y-45460943D01*
X600000Y-45460943D01*
X600000Y-42920943D01*
X8399500Y-42920943D01*
X8399500Y-43079057D01*
X8440423Y-43231784D01*
X8519480Y-43368716D01*
X8631284Y-43480520D01*
X8768216Y-43559577D01*
X8920943Y-43600500D01*
X8920945Y-43600500D01*
X9079055Y-43600500D01*
X9079057Y-43600500D01*
X9231784Y-43559577D01*
X9368716Y-43480520D01*
X9480520Y-43368716D01*
X9559577Y-43231784D01*
X9600500Y-43079057D01*
X9600500Y-42920943D01*
X9559577Y-42768216D01*
X9480520Y-42631284D01*
X9368716Y-42519480D01*
X9231784Y-42440423D01*
X9079057Y-42399500D01*
X8920943Y-42399500D01*
X8768216Y-42440423D01*
X8631284Y-42519480D01*
X8519480Y-42631284D01*
X8440423Y-42768216D01*
X8399500Y-42920943D01*
X600000Y-42920943D01*
X600000Y-4885265D01*
X3249500Y-4885265D01*
X3249500Y-5114734D01*
X3279452Y-5342238D01*
X3338841Y-5563885D01*
X3426653Y-5775883D01*
X3426656Y-5775888D01*
X3541389Y-5974612D01*
X3681081Y-6156661D01*
X3843339Y-6318919D01*
X4025388Y-6458611D01*
X4224112Y-6573344D01*
X4224113Y-6573344D01*
X4224116Y-6573346D01*
X4320167Y-6613131D01*
X4436113Y-6661158D01*
X4657762Y-6720548D01*
X4885266Y-6750500D01*
X4885267Y-6750500D01*
X5114733Y-6750500D01*
X5114734Y-6750500D01*
X5342238Y-6720548D01*
X5563887Y-6661158D01*
X5775888Y-6573344D01*
X5974612Y-6458611D01*
X6156661Y-6318919D01*
X6318919Y-6156661D01*
X6458611Y-5974612D01*
X6573344Y-5775888D01*
X6661158Y-5563887D01*
X6720548Y-5342238D01*
X6750500Y-5114734D01*
X6750500Y-4885266D01*
X6720548Y-4657762D01*
X6661158Y-4436113D01*
X6573344Y-4224112D01*
X6458611Y-4025388D01*
X6318919Y-3843339D01*
X6156661Y-3681081D01*
X5974612Y-3541389D01*
X5974613Y-3541389D01*
X5974611Y-3541388D01*
X5775883Y-3426653D01*
X5563885Y-3338841D01*
X5342238Y-3279452D01*
X5114734Y-3249500D01*
X4885266Y-3249500D01*
X4885265Y-3249500D01*
X4657761Y-3279452D01*
X4436114Y-3338841D01*
X4224116Y-3426653D01*
X4025388Y-3541388D01*
X3843342Y-3681078D01*
X3681078Y-3843342D01*
X3541388Y-4025388D01*
X3426653Y-4224116D01*
X3338841Y-4436114D01*
X3279452Y-4657761D01*
X3249500Y-4885265D01*
X600000Y-4885265D01*
X600000Y-2331557D01*
X604489Y-2302083D01*
X661391Y-2119622D01*
X665631Y-2108450D01*
X784635Y-1844153D01*
X790180Y-1833591D01*
X940179Y-1585525D01*
X946941Y-1575729D01*
X1125736Y-1347540D01*
X1133639Y-1338620D01*
X1338620Y-1133639D01*
X1347540Y-1125736D01*
X1575729Y-946941D01*
X1585525Y-940179D01*
X1833591Y-790180D01*
X1844153Y-784635D01*
X2108455Y-665629D01*
X2119617Y-661392D01*
X2300943Y-604845D01*
X2302085Y-604489D01*
X2331559Y-600000D01*
X35901000Y-600000D01*
X35959191Y-618907D01*
G37*
%TD.AperFunction*%
%TD*%
M02*
