%TF.GenerationSoftware,KiCad,Pcbnew,10.0.5*%
%TF.CreationDate,2026-08-11T15:36:02+03:00*%
%TF.ProjectId,skysweep32_rev_c,736b7973-7765-4657-9033-325f7265765f,rev?*%
%TF.SameCoordinates,Original*%
%TF.FileFunction,Drillmap*%
%TF.FilePolarity,Positive*%
%FSLAX45Y45*%
G04 Gerber Fmt 4.5, Leading zero omitted, Abs format (unit mm)*
G04 Created by KiCad (PCBNEW 10.0.5) date 2026-08-11 15:36:02*
%MOMM*%
%LPD*%
G01*
G04 APERTURE LIST*
%ADD10C,0.100000*%
%ADD11C,0.200000*%
%ADD12C,0.320000*%
G04 APERTURE END LIST*
D10*
X0Y-300000D02*
G75*
G02*
X300000Y0I300109J-109D01*
G01*
X0Y-8200000D02*
X0Y-300000D01*
X300000Y0D02*
X11700000Y0D01*
X300000Y-8500000D02*
G75*
G02*
X0Y-8200000I109J300109D01*
G01*
X11700000Y0D02*
G75*
G02*
X12000000Y-300000I-110J-300110D01*
G01*
X11700000Y-8500000D02*
X300000Y-8500000D01*
X12000000Y-300000D02*
X12000000Y-8200000D01*
X12000000Y-8200000D02*
G75*
G02*
X11700000Y-8500000I-300110J110D01*
G01*
D11*
D10*
X1678500Y-7839500D02*
X1743500Y-7904500D01*
X1743500Y-7839500D02*
X1678500Y-7904500D01*
X2256500Y-7839500D02*
X2321500Y-7904500D01*
X2321500Y-7839500D02*
X2256500Y-7904500D01*
D12*
X660000Y-500000D02*
G75*
G02*
X340000Y-500000I-160000J0D01*
G01*
X340000Y-500000D02*
G75*
G02*
X660000Y-500000I160000J0D01*
G01*
X660000Y-8000000D02*
G75*
G02*
X340000Y-8000000I-160000J0D01*
G01*
X340000Y-8000000D02*
G75*
G02*
X660000Y-8000000I160000J0D01*
G01*
X11660000Y-500000D02*
G75*
G02*
X11340000Y-500000I-160000J0D01*
G01*
X11340000Y-500000D02*
G75*
G02*
X11660000Y-500000I160000J0D01*
G01*
X11660000Y-8000000D02*
G75*
G02*
X11340000Y-8000000I-160000J0D01*
G01*
X11340000Y-8000000D02*
G75*
G02*
X11660000Y-8000000I160000J0D01*
G01*
D11*
X255777Y-8816484D02*
X255777Y-8616484D01*
X255777Y-8616484D02*
X303396Y-8616484D01*
X303396Y-8616484D02*
X331967Y-8626008D01*
X331967Y-8626008D02*
X351015Y-8645055D01*
X351015Y-8645055D02*
X360539Y-8664103D01*
X360539Y-8664103D02*
X370062Y-8702198D01*
X370062Y-8702198D02*
X370062Y-8730770D01*
X370062Y-8730770D02*
X360539Y-8768865D01*
X360539Y-8768865D02*
X351015Y-8787912D01*
X351015Y-8787912D02*
X331967Y-8806960D01*
X331967Y-8806960D02*
X303396Y-8816484D01*
X303396Y-8816484D02*
X255777Y-8816484D01*
X455777Y-8816484D02*
X455777Y-8683150D01*
X455777Y-8721246D02*
X465301Y-8702198D01*
X465301Y-8702198D02*
X474824Y-8692674D01*
X474824Y-8692674D02*
X493872Y-8683150D01*
X493872Y-8683150D02*
X512920Y-8683150D01*
X579586Y-8816484D02*
X579586Y-8683150D01*
X579586Y-8616484D02*
X570063Y-8626008D01*
X570063Y-8626008D02*
X579586Y-8635531D01*
X579586Y-8635531D02*
X589110Y-8626008D01*
X589110Y-8626008D02*
X579586Y-8616484D01*
X579586Y-8616484D02*
X579586Y-8635531D01*
X703396Y-8816484D02*
X684348Y-8806960D01*
X684348Y-8806960D02*
X674824Y-8787912D01*
X674824Y-8787912D02*
X674824Y-8616484D01*
X808158Y-8816484D02*
X789110Y-8806960D01*
X789110Y-8806960D02*
X779586Y-8787912D01*
X779586Y-8787912D02*
X779586Y-8616484D01*
X1036729Y-8816484D02*
X1036729Y-8616484D01*
X1036729Y-8616484D02*
X1103396Y-8759341D01*
X1103396Y-8759341D02*
X1170063Y-8616484D01*
X1170063Y-8616484D02*
X1170063Y-8816484D01*
X1351015Y-8816484D02*
X1351015Y-8711722D01*
X1351015Y-8711722D02*
X1341491Y-8692674D01*
X1341491Y-8692674D02*
X1322444Y-8683150D01*
X1322444Y-8683150D02*
X1284348Y-8683150D01*
X1284348Y-8683150D02*
X1265301Y-8692674D01*
X1351015Y-8806960D02*
X1331967Y-8816484D01*
X1331967Y-8816484D02*
X1284348Y-8816484D01*
X1284348Y-8816484D02*
X1265301Y-8806960D01*
X1265301Y-8806960D02*
X1255777Y-8787912D01*
X1255777Y-8787912D02*
X1255777Y-8768865D01*
X1255777Y-8768865D02*
X1265301Y-8749817D01*
X1265301Y-8749817D02*
X1284348Y-8740293D01*
X1284348Y-8740293D02*
X1331967Y-8740293D01*
X1331967Y-8740293D02*
X1351015Y-8730770D01*
X1446253Y-8683150D02*
X1446253Y-8883150D01*
X1446253Y-8692674D02*
X1465301Y-8683150D01*
X1465301Y-8683150D02*
X1503396Y-8683150D01*
X1503396Y-8683150D02*
X1522443Y-8692674D01*
X1522443Y-8692674D02*
X1531967Y-8702198D01*
X1531967Y-8702198D02*
X1541491Y-8721246D01*
X1541491Y-8721246D02*
X1541491Y-8778389D01*
X1541491Y-8778389D02*
X1531967Y-8797436D01*
X1531967Y-8797436D02*
X1522443Y-8806960D01*
X1522443Y-8806960D02*
X1503396Y-8816484D01*
X1503396Y-8816484D02*
X1465301Y-8816484D01*
X1465301Y-8816484D02*
X1446253Y-8806960D01*
X1627205Y-8797436D02*
X1636729Y-8806960D01*
X1636729Y-8806960D02*
X1627205Y-8816484D01*
X1627205Y-8816484D02*
X1617682Y-8806960D01*
X1617682Y-8806960D02*
X1627205Y-8797436D01*
X1627205Y-8797436D02*
X1627205Y-8816484D01*
X1627205Y-8692674D02*
X1636729Y-8702198D01*
X1636729Y-8702198D02*
X1627205Y-8711722D01*
X1627205Y-8711722D02*
X1617682Y-8702198D01*
X1617682Y-8702198D02*
X1627205Y-8692674D01*
X1627205Y-8692674D02*
X1627205Y-8711722D01*
D10*
X-70000Y-9112500D02*
X-5000Y-9177500D01*
X-5000Y-9112500D02*
X-70000Y-9177500D01*
D11*
X293872Y-9036484D02*
X312920Y-9036484D01*
X312920Y-9036484D02*
X331967Y-9046008D01*
X331967Y-9046008D02*
X341491Y-9055531D01*
X341491Y-9055531D02*
X351015Y-9074579D01*
X351015Y-9074579D02*
X360539Y-9112674D01*
X360539Y-9112674D02*
X360539Y-9160293D01*
X360539Y-9160293D02*
X351015Y-9198389D01*
X351015Y-9198389D02*
X341491Y-9217436D01*
X341491Y-9217436D02*
X331967Y-9226960D01*
X331967Y-9226960D02*
X312920Y-9236484D01*
X312920Y-9236484D02*
X293872Y-9236484D01*
X293872Y-9236484D02*
X274824Y-9226960D01*
X274824Y-9226960D02*
X265301Y-9217436D01*
X265301Y-9217436D02*
X255777Y-9198389D01*
X255777Y-9198389D02*
X246253Y-9160293D01*
X246253Y-9160293D02*
X246253Y-9112674D01*
X246253Y-9112674D02*
X255777Y-9074579D01*
X255777Y-9074579D02*
X265301Y-9055531D01*
X265301Y-9055531D02*
X274824Y-9046008D01*
X274824Y-9046008D02*
X293872Y-9036484D01*
X446253Y-9217436D02*
X455777Y-9226960D01*
X455777Y-9226960D02*
X446253Y-9236484D01*
X446253Y-9236484D02*
X436729Y-9226960D01*
X436729Y-9226960D02*
X446253Y-9217436D01*
X446253Y-9217436D02*
X446253Y-9236484D01*
X627205Y-9036484D02*
X589110Y-9036484D01*
X589110Y-9036484D02*
X570063Y-9046008D01*
X570063Y-9046008D02*
X560539Y-9055531D01*
X560539Y-9055531D02*
X541491Y-9084103D01*
X541491Y-9084103D02*
X531967Y-9122198D01*
X531967Y-9122198D02*
X531967Y-9198389D01*
X531967Y-9198389D02*
X541491Y-9217436D01*
X541491Y-9217436D02*
X551015Y-9226960D01*
X551015Y-9226960D02*
X570063Y-9236484D01*
X570063Y-9236484D02*
X608158Y-9236484D01*
X608158Y-9236484D02*
X627205Y-9226960D01*
X627205Y-9226960D02*
X636729Y-9217436D01*
X636729Y-9217436D02*
X646253Y-9198389D01*
X646253Y-9198389D02*
X646253Y-9150770D01*
X646253Y-9150770D02*
X636729Y-9131722D01*
X636729Y-9131722D02*
X627205Y-9122198D01*
X627205Y-9122198D02*
X608158Y-9112674D01*
X608158Y-9112674D02*
X570063Y-9112674D01*
X570063Y-9112674D02*
X551015Y-9122198D01*
X551015Y-9122198D02*
X541491Y-9131722D01*
X541491Y-9131722D02*
X531967Y-9150770D01*
X827205Y-9036484D02*
X731967Y-9036484D01*
X731967Y-9036484D02*
X722443Y-9131722D01*
X722443Y-9131722D02*
X731967Y-9122198D01*
X731967Y-9122198D02*
X751015Y-9112674D01*
X751015Y-9112674D02*
X798634Y-9112674D01*
X798634Y-9112674D02*
X817682Y-9122198D01*
X817682Y-9122198D02*
X827205Y-9131722D01*
X827205Y-9131722D02*
X836729Y-9150770D01*
X836729Y-9150770D02*
X836729Y-9198389D01*
X836729Y-9198389D02*
X827205Y-9217436D01*
X827205Y-9217436D02*
X817682Y-9226960D01*
X817682Y-9226960D02*
X798634Y-9236484D01*
X798634Y-9236484D02*
X751015Y-9236484D01*
X751015Y-9236484D02*
X731967Y-9226960D01*
X731967Y-9226960D02*
X722443Y-9217436D01*
X960539Y-9036484D02*
X979586Y-9036484D01*
X979586Y-9036484D02*
X998634Y-9046008D01*
X998634Y-9046008D02*
X1008158Y-9055531D01*
X1008158Y-9055531D02*
X1017682Y-9074579D01*
X1017682Y-9074579D02*
X1027205Y-9112674D01*
X1027205Y-9112674D02*
X1027205Y-9160293D01*
X1027205Y-9160293D02*
X1017682Y-9198389D01*
X1017682Y-9198389D02*
X1008158Y-9217436D01*
X1008158Y-9217436D02*
X998634Y-9226960D01*
X998634Y-9226960D02*
X979586Y-9236484D01*
X979586Y-9236484D02*
X960539Y-9236484D01*
X960539Y-9236484D02*
X941491Y-9226960D01*
X941491Y-9226960D02*
X931967Y-9217436D01*
X931967Y-9217436D02*
X922443Y-9198389D01*
X922443Y-9198389D02*
X912920Y-9160293D01*
X912920Y-9160293D02*
X912920Y-9112674D01*
X912920Y-9112674D02*
X922443Y-9074579D01*
X922443Y-9074579D02*
X931967Y-9055531D01*
X931967Y-9055531D02*
X941491Y-9046008D01*
X941491Y-9046008D02*
X960539Y-9036484D01*
X1112920Y-9236484D02*
X1112920Y-9103150D01*
X1112920Y-9122198D02*
X1122444Y-9112674D01*
X1122444Y-9112674D02*
X1141491Y-9103150D01*
X1141491Y-9103150D02*
X1170063Y-9103150D01*
X1170063Y-9103150D02*
X1189110Y-9112674D01*
X1189110Y-9112674D02*
X1198634Y-9131722D01*
X1198634Y-9131722D02*
X1198634Y-9236484D01*
X1198634Y-9131722D02*
X1208158Y-9112674D01*
X1208158Y-9112674D02*
X1227205Y-9103150D01*
X1227205Y-9103150D02*
X1255777Y-9103150D01*
X1255777Y-9103150D02*
X1274825Y-9112674D01*
X1274825Y-9112674D02*
X1284348Y-9131722D01*
X1284348Y-9131722D02*
X1284348Y-9236484D01*
X1379586Y-9236484D02*
X1379586Y-9103150D01*
X1379586Y-9122198D02*
X1389110Y-9112674D01*
X1389110Y-9112674D02*
X1408158Y-9103150D01*
X1408158Y-9103150D02*
X1436729Y-9103150D01*
X1436729Y-9103150D02*
X1455777Y-9112674D01*
X1455777Y-9112674D02*
X1465301Y-9131722D01*
X1465301Y-9131722D02*
X1465301Y-9236484D01*
X1465301Y-9131722D02*
X1474824Y-9112674D01*
X1474824Y-9112674D02*
X1493872Y-9103150D01*
X1493872Y-9103150D02*
X1522443Y-9103150D01*
X1522443Y-9103150D02*
X1541491Y-9112674D01*
X1541491Y-9112674D02*
X1551015Y-9131722D01*
X1551015Y-9131722D02*
X1551015Y-9236484D01*
X1941491Y-9026960D02*
X1770063Y-9284103D01*
X2198634Y-9036484D02*
X2217682Y-9036484D01*
X2217682Y-9036484D02*
X2236729Y-9046008D01*
X2236729Y-9046008D02*
X2246253Y-9055531D01*
X2246253Y-9055531D02*
X2255777Y-9074579D01*
X2255777Y-9074579D02*
X2265301Y-9112674D01*
X2265301Y-9112674D02*
X2265301Y-9160293D01*
X2265301Y-9160293D02*
X2255777Y-9198389D01*
X2255777Y-9198389D02*
X2246253Y-9217436D01*
X2246253Y-9217436D02*
X2236729Y-9226960D01*
X2236729Y-9226960D02*
X2217682Y-9236484D01*
X2217682Y-9236484D02*
X2198634Y-9236484D01*
X2198634Y-9236484D02*
X2179587Y-9226960D01*
X2179587Y-9226960D02*
X2170063Y-9217436D01*
X2170063Y-9217436D02*
X2160539Y-9198389D01*
X2160539Y-9198389D02*
X2151015Y-9160293D01*
X2151015Y-9160293D02*
X2151015Y-9112674D01*
X2151015Y-9112674D02*
X2160539Y-9074579D01*
X2160539Y-9074579D02*
X2170063Y-9055531D01*
X2170063Y-9055531D02*
X2179587Y-9046008D01*
X2179587Y-9046008D02*
X2198634Y-9036484D01*
X2351015Y-9217436D02*
X2360539Y-9226960D01*
X2360539Y-9226960D02*
X2351015Y-9236484D01*
X2351015Y-9236484D02*
X2341491Y-9226960D01*
X2341491Y-9226960D02*
X2351015Y-9217436D01*
X2351015Y-9217436D02*
X2351015Y-9236484D01*
X2484348Y-9036484D02*
X2503396Y-9036484D01*
X2503396Y-9036484D02*
X2522444Y-9046008D01*
X2522444Y-9046008D02*
X2531968Y-9055531D01*
X2531968Y-9055531D02*
X2541491Y-9074579D01*
X2541491Y-9074579D02*
X2551015Y-9112674D01*
X2551015Y-9112674D02*
X2551015Y-9160293D01*
X2551015Y-9160293D02*
X2541491Y-9198389D01*
X2541491Y-9198389D02*
X2531968Y-9217436D01*
X2531968Y-9217436D02*
X2522444Y-9226960D01*
X2522444Y-9226960D02*
X2503396Y-9236484D01*
X2503396Y-9236484D02*
X2484348Y-9236484D01*
X2484348Y-9236484D02*
X2465301Y-9226960D01*
X2465301Y-9226960D02*
X2455777Y-9217436D01*
X2455777Y-9217436D02*
X2446253Y-9198389D01*
X2446253Y-9198389D02*
X2436729Y-9160293D01*
X2436729Y-9160293D02*
X2436729Y-9112674D01*
X2436729Y-9112674D02*
X2446253Y-9074579D01*
X2446253Y-9074579D02*
X2455777Y-9055531D01*
X2455777Y-9055531D02*
X2465301Y-9046008D01*
X2465301Y-9046008D02*
X2484348Y-9036484D01*
X2627206Y-9055531D02*
X2636729Y-9046008D01*
X2636729Y-9046008D02*
X2655777Y-9036484D01*
X2655777Y-9036484D02*
X2703396Y-9036484D01*
X2703396Y-9036484D02*
X2722444Y-9046008D01*
X2722444Y-9046008D02*
X2731968Y-9055531D01*
X2731968Y-9055531D02*
X2741491Y-9074579D01*
X2741491Y-9074579D02*
X2741491Y-9093627D01*
X2741491Y-9093627D02*
X2731968Y-9122198D01*
X2731968Y-9122198D02*
X2617682Y-9236484D01*
X2617682Y-9236484D02*
X2741491Y-9236484D01*
X2922444Y-9036484D02*
X2827206Y-9036484D01*
X2827206Y-9036484D02*
X2817682Y-9131722D01*
X2817682Y-9131722D02*
X2827206Y-9122198D01*
X2827206Y-9122198D02*
X2846253Y-9112674D01*
X2846253Y-9112674D02*
X2893872Y-9112674D01*
X2893872Y-9112674D02*
X2912920Y-9122198D01*
X2912920Y-9122198D02*
X2922444Y-9131722D01*
X2922444Y-9131722D02*
X2931967Y-9150770D01*
X2931967Y-9150770D02*
X2931967Y-9198389D01*
X2931967Y-9198389D02*
X2922444Y-9217436D01*
X2922444Y-9217436D02*
X2912920Y-9226960D01*
X2912920Y-9226960D02*
X2893872Y-9236484D01*
X2893872Y-9236484D02*
X2846253Y-9236484D01*
X2846253Y-9236484D02*
X2827206Y-9226960D01*
X2827206Y-9226960D02*
X2817682Y-9217436D01*
X3103396Y-9036484D02*
X3065301Y-9036484D01*
X3065301Y-9036484D02*
X3046253Y-9046008D01*
X3046253Y-9046008D02*
X3036729Y-9055531D01*
X3036729Y-9055531D02*
X3017682Y-9084103D01*
X3017682Y-9084103D02*
X3008158Y-9122198D01*
X3008158Y-9122198D02*
X3008158Y-9198389D01*
X3008158Y-9198389D02*
X3017682Y-9217436D01*
X3017682Y-9217436D02*
X3027206Y-9226960D01*
X3027206Y-9226960D02*
X3046253Y-9236484D01*
X3046253Y-9236484D02*
X3084348Y-9236484D01*
X3084348Y-9236484D02*
X3103396Y-9226960D01*
X3103396Y-9226960D02*
X3112920Y-9217436D01*
X3112920Y-9217436D02*
X3122444Y-9198389D01*
X3122444Y-9198389D02*
X3122444Y-9150770D01*
X3122444Y-9150770D02*
X3112920Y-9131722D01*
X3112920Y-9131722D02*
X3103396Y-9122198D01*
X3103396Y-9122198D02*
X3084348Y-9112674D01*
X3084348Y-9112674D02*
X3046253Y-9112674D01*
X3046253Y-9112674D02*
X3027206Y-9122198D01*
X3027206Y-9122198D02*
X3017682Y-9131722D01*
X3017682Y-9131722D02*
X3008158Y-9150770D01*
X3198634Y-9036484D02*
X3198634Y-9074579D01*
X3274825Y-9036484D02*
X3274825Y-9074579D01*
X3570063Y-9312674D02*
X3560539Y-9303150D01*
X3560539Y-9303150D02*
X3541491Y-9274579D01*
X3541491Y-9274579D02*
X3531968Y-9255531D01*
X3531968Y-9255531D02*
X3522444Y-9226960D01*
X3522444Y-9226960D02*
X3512920Y-9179341D01*
X3512920Y-9179341D02*
X3512920Y-9141246D01*
X3512920Y-9141246D02*
X3522444Y-9093627D01*
X3522444Y-9093627D02*
X3531968Y-9065055D01*
X3531968Y-9065055D02*
X3541491Y-9046008D01*
X3541491Y-9046008D02*
X3560539Y-9017436D01*
X3560539Y-9017436D02*
X3570063Y-9007912D01*
X3636729Y-9055531D02*
X3646253Y-9046008D01*
X3646253Y-9046008D02*
X3665301Y-9036484D01*
X3665301Y-9036484D02*
X3712920Y-9036484D01*
X3712920Y-9036484D02*
X3731968Y-9046008D01*
X3731968Y-9046008D02*
X3741491Y-9055531D01*
X3741491Y-9055531D02*
X3751015Y-9074579D01*
X3751015Y-9074579D02*
X3751015Y-9093627D01*
X3751015Y-9093627D02*
X3741491Y-9122198D01*
X3741491Y-9122198D02*
X3627206Y-9236484D01*
X3627206Y-9236484D02*
X3751015Y-9236484D01*
X3989110Y-9236484D02*
X3989110Y-9036484D01*
X4074825Y-9236484D02*
X4074825Y-9131722D01*
X4074825Y-9131722D02*
X4065301Y-9112674D01*
X4065301Y-9112674D02*
X4046253Y-9103150D01*
X4046253Y-9103150D02*
X4017682Y-9103150D01*
X4017682Y-9103150D02*
X3998634Y-9112674D01*
X3998634Y-9112674D02*
X3989110Y-9122198D01*
X4198634Y-9236484D02*
X4179587Y-9226960D01*
X4179587Y-9226960D02*
X4170063Y-9217436D01*
X4170063Y-9217436D02*
X4160539Y-9198389D01*
X4160539Y-9198389D02*
X4160539Y-9141246D01*
X4160539Y-9141246D02*
X4170063Y-9122198D01*
X4170063Y-9122198D02*
X4179587Y-9112674D01*
X4179587Y-9112674D02*
X4198634Y-9103150D01*
X4198634Y-9103150D02*
X4227206Y-9103150D01*
X4227206Y-9103150D02*
X4246253Y-9112674D01*
X4246253Y-9112674D02*
X4255777Y-9122198D01*
X4255777Y-9122198D02*
X4265301Y-9141246D01*
X4265301Y-9141246D02*
X4265301Y-9198389D01*
X4265301Y-9198389D02*
X4255777Y-9217436D01*
X4255777Y-9217436D02*
X4246253Y-9226960D01*
X4246253Y-9226960D02*
X4227206Y-9236484D01*
X4227206Y-9236484D02*
X4198634Y-9236484D01*
X4379587Y-9236484D02*
X4360539Y-9226960D01*
X4360539Y-9226960D02*
X4351015Y-9207912D01*
X4351015Y-9207912D02*
X4351015Y-9036484D01*
X4531968Y-9226960D02*
X4512920Y-9236484D01*
X4512920Y-9236484D02*
X4474825Y-9236484D01*
X4474825Y-9236484D02*
X4455777Y-9226960D01*
X4455777Y-9226960D02*
X4446253Y-9207912D01*
X4446253Y-9207912D02*
X4446253Y-9131722D01*
X4446253Y-9131722D02*
X4455777Y-9112674D01*
X4455777Y-9112674D02*
X4474825Y-9103150D01*
X4474825Y-9103150D02*
X4512920Y-9103150D01*
X4512920Y-9103150D02*
X4531968Y-9112674D01*
X4531968Y-9112674D02*
X4541492Y-9131722D01*
X4541492Y-9131722D02*
X4541492Y-9150770D01*
X4541492Y-9150770D02*
X4446253Y-9169817D01*
X4617682Y-9226960D02*
X4636730Y-9236484D01*
X4636730Y-9236484D02*
X4674825Y-9236484D01*
X4674825Y-9236484D02*
X4693873Y-9226960D01*
X4693873Y-9226960D02*
X4703396Y-9207912D01*
X4703396Y-9207912D02*
X4703396Y-9198389D01*
X4703396Y-9198389D02*
X4693873Y-9179341D01*
X4693873Y-9179341D02*
X4674825Y-9169817D01*
X4674825Y-9169817D02*
X4646253Y-9169817D01*
X4646253Y-9169817D02*
X4627206Y-9160293D01*
X4627206Y-9160293D02*
X4617682Y-9141246D01*
X4617682Y-9141246D02*
X4617682Y-9131722D01*
X4617682Y-9131722D02*
X4627206Y-9112674D01*
X4627206Y-9112674D02*
X4646253Y-9103150D01*
X4646253Y-9103150D02*
X4674825Y-9103150D01*
X4674825Y-9103150D02*
X4693873Y-9112674D01*
X4770063Y-9312674D02*
X4779587Y-9303150D01*
X4779587Y-9303150D02*
X4798634Y-9274579D01*
X4798634Y-9274579D02*
X4808158Y-9255531D01*
X4808158Y-9255531D02*
X4817682Y-9226960D01*
X4817682Y-9226960D02*
X4827206Y-9179341D01*
X4827206Y-9179341D02*
X4827206Y-9141246D01*
X4827206Y-9141246D02*
X4817682Y-9093627D01*
X4817682Y-9093627D02*
X4808158Y-9065055D01*
X4808158Y-9065055D02*
X4798634Y-9046008D01*
X4798634Y-9046008D02*
X4779587Y-9017436D01*
X4779587Y-9017436D02*
X4770063Y-9007912D01*
X5131968Y-9312674D02*
X5122444Y-9303150D01*
X5122444Y-9303150D02*
X5103396Y-9274579D01*
X5103396Y-9274579D02*
X5093873Y-9255531D01*
X5093873Y-9255531D02*
X5084349Y-9226960D01*
X5084349Y-9226960D02*
X5074825Y-9179341D01*
X5074825Y-9179341D02*
X5074825Y-9141246D01*
X5074825Y-9141246D02*
X5084349Y-9093627D01*
X5084349Y-9093627D02*
X5093873Y-9065055D01*
X5093873Y-9065055D02*
X5103396Y-9046008D01*
X5103396Y-9046008D02*
X5122444Y-9017436D01*
X5122444Y-9017436D02*
X5131968Y-9007912D01*
X5208158Y-9103150D02*
X5208158Y-9236484D01*
X5208158Y-9122198D02*
X5217682Y-9112674D01*
X5217682Y-9112674D02*
X5236730Y-9103150D01*
X5236730Y-9103150D02*
X5265301Y-9103150D01*
X5265301Y-9103150D02*
X5284349Y-9112674D01*
X5284349Y-9112674D02*
X5293873Y-9131722D01*
X5293873Y-9131722D02*
X5293873Y-9236484D01*
X5417682Y-9236484D02*
X5398634Y-9226960D01*
X5398634Y-9226960D02*
X5389111Y-9217436D01*
X5389111Y-9217436D02*
X5379587Y-9198389D01*
X5379587Y-9198389D02*
X5379587Y-9141246D01*
X5379587Y-9141246D02*
X5389111Y-9122198D01*
X5389111Y-9122198D02*
X5398634Y-9112674D01*
X5398634Y-9112674D02*
X5417682Y-9103150D01*
X5417682Y-9103150D02*
X5446254Y-9103150D01*
X5446254Y-9103150D02*
X5465301Y-9112674D01*
X5465301Y-9112674D02*
X5474825Y-9122198D01*
X5474825Y-9122198D02*
X5484349Y-9141246D01*
X5484349Y-9141246D02*
X5484349Y-9198389D01*
X5484349Y-9198389D02*
X5474825Y-9217436D01*
X5474825Y-9217436D02*
X5465301Y-9226960D01*
X5465301Y-9226960D02*
X5446254Y-9236484D01*
X5446254Y-9236484D02*
X5417682Y-9236484D01*
X5541492Y-9103150D02*
X5617682Y-9103150D01*
X5570063Y-9036484D02*
X5570063Y-9207912D01*
X5570063Y-9207912D02*
X5579587Y-9226960D01*
X5579587Y-9226960D02*
X5598634Y-9236484D01*
X5598634Y-9236484D02*
X5617682Y-9236484D01*
X5836730Y-9103150D02*
X5836730Y-9303150D01*
X5836730Y-9112674D02*
X5855777Y-9103150D01*
X5855777Y-9103150D02*
X5893873Y-9103150D01*
X5893873Y-9103150D02*
X5912920Y-9112674D01*
X5912920Y-9112674D02*
X5922444Y-9122198D01*
X5922444Y-9122198D02*
X5931968Y-9141246D01*
X5931968Y-9141246D02*
X5931968Y-9198389D01*
X5931968Y-9198389D02*
X5922444Y-9217436D01*
X5922444Y-9217436D02*
X5912920Y-9226960D01*
X5912920Y-9226960D02*
X5893873Y-9236484D01*
X5893873Y-9236484D02*
X5855777Y-9236484D01*
X5855777Y-9236484D02*
X5836730Y-9226960D01*
X6046253Y-9236484D02*
X6027206Y-9226960D01*
X6027206Y-9226960D02*
X6017682Y-9207912D01*
X6017682Y-9207912D02*
X6017682Y-9036484D01*
X6208158Y-9236484D02*
X6208158Y-9131722D01*
X6208158Y-9131722D02*
X6198634Y-9112674D01*
X6198634Y-9112674D02*
X6179587Y-9103150D01*
X6179587Y-9103150D02*
X6141492Y-9103150D01*
X6141492Y-9103150D02*
X6122444Y-9112674D01*
X6208158Y-9226960D02*
X6189111Y-9236484D01*
X6189111Y-9236484D02*
X6141492Y-9236484D01*
X6141492Y-9236484D02*
X6122444Y-9226960D01*
X6122444Y-9226960D02*
X6112920Y-9207912D01*
X6112920Y-9207912D02*
X6112920Y-9188865D01*
X6112920Y-9188865D02*
X6122444Y-9169817D01*
X6122444Y-9169817D02*
X6141492Y-9160293D01*
X6141492Y-9160293D02*
X6189111Y-9160293D01*
X6189111Y-9160293D02*
X6208158Y-9150770D01*
X6274825Y-9103150D02*
X6351015Y-9103150D01*
X6303396Y-9036484D02*
X6303396Y-9207912D01*
X6303396Y-9207912D02*
X6312920Y-9226960D01*
X6312920Y-9226960D02*
X6331968Y-9236484D01*
X6331968Y-9236484D02*
X6351015Y-9236484D01*
X6493873Y-9226960D02*
X6474825Y-9236484D01*
X6474825Y-9236484D02*
X6436730Y-9236484D01*
X6436730Y-9236484D02*
X6417682Y-9226960D01*
X6417682Y-9226960D02*
X6408158Y-9207912D01*
X6408158Y-9207912D02*
X6408158Y-9131722D01*
X6408158Y-9131722D02*
X6417682Y-9112674D01*
X6417682Y-9112674D02*
X6436730Y-9103150D01*
X6436730Y-9103150D02*
X6474825Y-9103150D01*
X6474825Y-9103150D02*
X6493873Y-9112674D01*
X6493873Y-9112674D02*
X6503396Y-9131722D01*
X6503396Y-9131722D02*
X6503396Y-9150770D01*
X6503396Y-9150770D02*
X6408158Y-9169817D01*
X6674825Y-9236484D02*
X6674825Y-9036484D01*
X6674825Y-9226960D02*
X6655777Y-9236484D01*
X6655777Y-9236484D02*
X6617682Y-9236484D01*
X6617682Y-9236484D02*
X6598634Y-9226960D01*
X6598634Y-9226960D02*
X6589111Y-9217436D01*
X6589111Y-9217436D02*
X6579587Y-9198389D01*
X6579587Y-9198389D02*
X6579587Y-9141246D01*
X6579587Y-9141246D02*
X6589111Y-9122198D01*
X6589111Y-9122198D02*
X6598634Y-9112674D01*
X6598634Y-9112674D02*
X6617682Y-9103150D01*
X6617682Y-9103150D02*
X6655777Y-9103150D01*
X6655777Y-9103150D02*
X6674825Y-9112674D01*
X6751015Y-9312674D02*
X6760539Y-9303150D01*
X6760539Y-9303150D02*
X6779587Y-9274579D01*
X6779587Y-9274579D02*
X6789111Y-9255531D01*
X6789111Y-9255531D02*
X6798634Y-9226960D01*
X6798634Y-9226960D02*
X6808158Y-9179341D01*
X6808158Y-9179341D02*
X6808158Y-9141246D01*
X6808158Y-9141246D02*
X6798634Y-9093627D01*
X6798634Y-9093627D02*
X6789111Y-9065055D01*
X6789111Y-9065055D02*
X6779587Y-9046008D01*
X6779587Y-9046008D02*
X6760539Y-9017436D01*
X6760539Y-9017436D02*
X6751015Y-9007912D01*
X-5000Y-9409000D02*
G75*
G02*
X-205000Y-9409000I-100000J0D01*
G01*
X-205000Y-9409000D02*
G75*
G02*
X-5000Y-9409000I100000J0D01*
G01*
X236729Y-9300484D02*
X360539Y-9300484D01*
X360539Y-9300484D02*
X293872Y-9376674D01*
X293872Y-9376674D02*
X322444Y-9376674D01*
X322444Y-9376674D02*
X341491Y-9386198D01*
X341491Y-9386198D02*
X351015Y-9395722D01*
X351015Y-9395722D02*
X360539Y-9414770D01*
X360539Y-9414770D02*
X360539Y-9462389D01*
X360539Y-9462389D02*
X351015Y-9481436D01*
X351015Y-9481436D02*
X341491Y-9490960D01*
X341491Y-9490960D02*
X322444Y-9500484D01*
X322444Y-9500484D02*
X265301Y-9500484D01*
X265301Y-9500484D02*
X246253Y-9490960D01*
X246253Y-9490960D02*
X236729Y-9481436D01*
X446253Y-9481436D02*
X455777Y-9490960D01*
X455777Y-9490960D02*
X446253Y-9500484D01*
X446253Y-9500484D02*
X436729Y-9490960D01*
X436729Y-9490960D02*
X446253Y-9481436D01*
X446253Y-9481436D02*
X446253Y-9500484D01*
X531967Y-9319531D02*
X541491Y-9310008D01*
X541491Y-9310008D02*
X560539Y-9300484D01*
X560539Y-9300484D02*
X608158Y-9300484D01*
X608158Y-9300484D02*
X627205Y-9310008D01*
X627205Y-9310008D02*
X636729Y-9319531D01*
X636729Y-9319531D02*
X646253Y-9338579D01*
X646253Y-9338579D02*
X646253Y-9357627D01*
X646253Y-9357627D02*
X636729Y-9386198D01*
X636729Y-9386198D02*
X522443Y-9500484D01*
X522443Y-9500484D02*
X646253Y-9500484D01*
X770062Y-9300484D02*
X789110Y-9300484D01*
X789110Y-9300484D02*
X808158Y-9310008D01*
X808158Y-9310008D02*
X817682Y-9319531D01*
X817682Y-9319531D02*
X827205Y-9338579D01*
X827205Y-9338579D02*
X836729Y-9376674D01*
X836729Y-9376674D02*
X836729Y-9424293D01*
X836729Y-9424293D02*
X827205Y-9462389D01*
X827205Y-9462389D02*
X817682Y-9481436D01*
X817682Y-9481436D02*
X808158Y-9490960D01*
X808158Y-9490960D02*
X789110Y-9500484D01*
X789110Y-9500484D02*
X770062Y-9500484D01*
X770062Y-9500484D02*
X751015Y-9490960D01*
X751015Y-9490960D02*
X741491Y-9481436D01*
X741491Y-9481436D02*
X731967Y-9462389D01*
X731967Y-9462389D02*
X722443Y-9424293D01*
X722443Y-9424293D02*
X722443Y-9376674D01*
X722443Y-9376674D02*
X731967Y-9338579D01*
X731967Y-9338579D02*
X741491Y-9319531D01*
X741491Y-9319531D02*
X751015Y-9310008D01*
X751015Y-9310008D02*
X770062Y-9300484D01*
X960539Y-9300484D02*
X979586Y-9300484D01*
X979586Y-9300484D02*
X998634Y-9310008D01*
X998634Y-9310008D02*
X1008158Y-9319531D01*
X1008158Y-9319531D02*
X1017682Y-9338579D01*
X1017682Y-9338579D02*
X1027205Y-9376674D01*
X1027205Y-9376674D02*
X1027205Y-9424293D01*
X1027205Y-9424293D02*
X1017682Y-9462389D01*
X1017682Y-9462389D02*
X1008158Y-9481436D01*
X1008158Y-9481436D02*
X998634Y-9490960D01*
X998634Y-9490960D02*
X979586Y-9500484D01*
X979586Y-9500484D02*
X960539Y-9500484D01*
X960539Y-9500484D02*
X941491Y-9490960D01*
X941491Y-9490960D02*
X931967Y-9481436D01*
X931967Y-9481436D02*
X922443Y-9462389D01*
X922443Y-9462389D02*
X912920Y-9424293D01*
X912920Y-9424293D02*
X912920Y-9376674D01*
X912920Y-9376674D02*
X922443Y-9338579D01*
X922443Y-9338579D02*
X931967Y-9319531D01*
X931967Y-9319531D02*
X941491Y-9310008D01*
X941491Y-9310008D02*
X960539Y-9300484D01*
X1112920Y-9500484D02*
X1112920Y-9367150D01*
X1112920Y-9386198D02*
X1122444Y-9376674D01*
X1122444Y-9376674D02*
X1141491Y-9367150D01*
X1141491Y-9367150D02*
X1170063Y-9367150D01*
X1170063Y-9367150D02*
X1189110Y-9376674D01*
X1189110Y-9376674D02*
X1198634Y-9395722D01*
X1198634Y-9395722D02*
X1198634Y-9500484D01*
X1198634Y-9395722D02*
X1208158Y-9376674D01*
X1208158Y-9376674D02*
X1227205Y-9367150D01*
X1227205Y-9367150D02*
X1255777Y-9367150D01*
X1255777Y-9367150D02*
X1274825Y-9376674D01*
X1274825Y-9376674D02*
X1284348Y-9395722D01*
X1284348Y-9395722D02*
X1284348Y-9500484D01*
X1379586Y-9500484D02*
X1379586Y-9367150D01*
X1379586Y-9386198D02*
X1389110Y-9376674D01*
X1389110Y-9376674D02*
X1408158Y-9367150D01*
X1408158Y-9367150D02*
X1436729Y-9367150D01*
X1436729Y-9367150D02*
X1455777Y-9376674D01*
X1455777Y-9376674D02*
X1465301Y-9395722D01*
X1465301Y-9395722D02*
X1465301Y-9500484D01*
X1465301Y-9395722D02*
X1474824Y-9376674D01*
X1474824Y-9376674D02*
X1493872Y-9367150D01*
X1493872Y-9367150D02*
X1522443Y-9367150D01*
X1522443Y-9367150D02*
X1541491Y-9376674D01*
X1541491Y-9376674D02*
X1551015Y-9395722D01*
X1551015Y-9395722D02*
X1551015Y-9500484D01*
X1941491Y-9290960D02*
X1770063Y-9548103D01*
X2198634Y-9300484D02*
X2217682Y-9300484D01*
X2217682Y-9300484D02*
X2236729Y-9310008D01*
X2236729Y-9310008D02*
X2246253Y-9319531D01*
X2246253Y-9319531D02*
X2255777Y-9338579D01*
X2255777Y-9338579D02*
X2265301Y-9376674D01*
X2265301Y-9376674D02*
X2265301Y-9424293D01*
X2265301Y-9424293D02*
X2255777Y-9462389D01*
X2255777Y-9462389D02*
X2246253Y-9481436D01*
X2246253Y-9481436D02*
X2236729Y-9490960D01*
X2236729Y-9490960D02*
X2217682Y-9500484D01*
X2217682Y-9500484D02*
X2198634Y-9500484D01*
X2198634Y-9500484D02*
X2179587Y-9490960D01*
X2179587Y-9490960D02*
X2170063Y-9481436D01*
X2170063Y-9481436D02*
X2160539Y-9462389D01*
X2160539Y-9462389D02*
X2151015Y-9424293D01*
X2151015Y-9424293D02*
X2151015Y-9376674D01*
X2151015Y-9376674D02*
X2160539Y-9338579D01*
X2160539Y-9338579D02*
X2170063Y-9319531D01*
X2170063Y-9319531D02*
X2179587Y-9310008D01*
X2179587Y-9310008D02*
X2198634Y-9300484D01*
X2351015Y-9481436D02*
X2360539Y-9490960D01*
X2360539Y-9490960D02*
X2351015Y-9500484D01*
X2351015Y-9500484D02*
X2341491Y-9490960D01*
X2341491Y-9490960D02*
X2351015Y-9481436D01*
X2351015Y-9481436D02*
X2351015Y-9500484D01*
X2551015Y-9500484D02*
X2436729Y-9500484D01*
X2493872Y-9500484D02*
X2493872Y-9300484D01*
X2493872Y-9300484D02*
X2474825Y-9329055D01*
X2474825Y-9329055D02*
X2455777Y-9348103D01*
X2455777Y-9348103D02*
X2436729Y-9357627D01*
X2627206Y-9319531D02*
X2636729Y-9310008D01*
X2636729Y-9310008D02*
X2655777Y-9300484D01*
X2655777Y-9300484D02*
X2703396Y-9300484D01*
X2703396Y-9300484D02*
X2722444Y-9310008D01*
X2722444Y-9310008D02*
X2731968Y-9319531D01*
X2731968Y-9319531D02*
X2741491Y-9338579D01*
X2741491Y-9338579D02*
X2741491Y-9357627D01*
X2741491Y-9357627D02*
X2731968Y-9386198D01*
X2731968Y-9386198D02*
X2617682Y-9500484D01*
X2617682Y-9500484D02*
X2741491Y-9500484D01*
X2912920Y-9300484D02*
X2874825Y-9300484D01*
X2874825Y-9300484D02*
X2855777Y-9310008D01*
X2855777Y-9310008D02*
X2846253Y-9319531D01*
X2846253Y-9319531D02*
X2827206Y-9348103D01*
X2827206Y-9348103D02*
X2817682Y-9386198D01*
X2817682Y-9386198D02*
X2817682Y-9462389D01*
X2817682Y-9462389D02*
X2827206Y-9481436D01*
X2827206Y-9481436D02*
X2836729Y-9490960D01*
X2836729Y-9490960D02*
X2855777Y-9500484D01*
X2855777Y-9500484D02*
X2893872Y-9500484D01*
X2893872Y-9500484D02*
X2912920Y-9490960D01*
X2912920Y-9490960D02*
X2922444Y-9481436D01*
X2922444Y-9481436D02*
X2931967Y-9462389D01*
X2931967Y-9462389D02*
X2931967Y-9414770D01*
X2931967Y-9414770D02*
X2922444Y-9395722D01*
X2922444Y-9395722D02*
X2912920Y-9386198D01*
X2912920Y-9386198D02*
X2893872Y-9376674D01*
X2893872Y-9376674D02*
X2855777Y-9376674D01*
X2855777Y-9376674D02*
X2836729Y-9386198D01*
X2836729Y-9386198D02*
X2827206Y-9395722D01*
X2827206Y-9395722D02*
X2817682Y-9414770D01*
X3055777Y-9300484D02*
X3074825Y-9300484D01*
X3074825Y-9300484D02*
X3093872Y-9310008D01*
X3093872Y-9310008D02*
X3103396Y-9319531D01*
X3103396Y-9319531D02*
X3112920Y-9338579D01*
X3112920Y-9338579D02*
X3122444Y-9376674D01*
X3122444Y-9376674D02*
X3122444Y-9424293D01*
X3122444Y-9424293D02*
X3112920Y-9462389D01*
X3112920Y-9462389D02*
X3103396Y-9481436D01*
X3103396Y-9481436D02*
X3093872Y-9490960D01*
X3093872Y-9490960D02*
X3074825Y-9500484D01*
X3074825Y-9500484D02*
X3055777Y-9500484D01*
X3055777Y-9500484D02*
X3036729Y-9490960D01*
X3036729Y-9490960D02*
X3027206Y-9481436D01*
X3027206Y-9481436D02*
X3017682Y-9462389D01*
X3017682Y-9462389D02*
X3008158Y-9424293D01*
X3008158Y-9424293D02*
X3008158Y-9376674D01*
X3008158Y-9376674D02*
X3017682Y-9338579D01*
X3017682Y-9338579D02*
X3027206Y-9319531D01*
X3027206Y-9319531D02*
X3036729Y-9310008D01*
X3036729Y-9310008D02*
X3055777Y-9300484D01*
X3198634Y-9300484D02*
X3198634Y-9338579D01*
X3274825Y-9300484D02*
X3274825Y-9338579D01*
X3570063Y-9576674D02*
X3560539Y-9567150D01*
X3560539Y-9567150D02*
X3541491Y-9538579D01*
X3541491Y-9538579D02*
X3531968Y-9519531D01*
X3531968Y-9519531D02*
X3522444Y-9490960D01*
X3522444Y-9490960D02*
X3512920Y-9443341D01*
X3512920Y-9443341D02*
X3512920Y-9405246D01*
X3512920Y-9405246D02*
X3522444Y-9357627D01*
X3522444Y-9357627D02*
X3531968Y-9329055D01*
X3531968Y-9329055D02*
X3541491Y-9310008D01*
X3541491Y-9310008D02*
X3560539Y-9281436D01*
X3560539Y-9281436D02*
X3570063Y-9271912D01*
X3731968Y-9367150D02*
X3731968Y-9500484D01*
X3684348Y-9290960D02*
X3636729Y-9433817D01*
X3636729Y-9433817D02*
X3760539Y-9433817D01*
X3989110Y-9500484D02*
X3989110Y-9300484D01*
X4074825Y-9500484D02*
X4074825Y-9395722D01*
X4074825Y-9395722D02*
X4065301Y-9376674D01*
X4065301Y-9376674D02*
X4046253Y-9367150D01*
X4046253Y-9367150D02*
X4017682Y-9367150D01*
X4017682Y-9367150D02*
X3998634Y-9376674D01*
X3998634Y-9376674D02*
X3989110Y-9386198D01*
X4198634Y-9500484D02*
X4179587Y-9490960D01*
X4179587Y-9490960D02*
X4170063Y-9481436D01*
X4170063Y-9481436D02*
X4160539Y-9462389D01*
X4160539Y-9462389D02*
X4160539Y-9405246D01*
X4160539Y-9405246D02*
X4170063Y-9386198D01*
X4170063Y-9386198D02*
X4179587Y-9376674D01*
X4179587Y-9376674D02*
X4198634Y-9367150D01*
X4198634Y-9367150D02*
X4227206Y-9367150D01*
X4227206Y-9367150D02*
X4246253Y-9376674D01*
X4246253Y-9376674D02*
X4255777Y-9386198D01*
X4255777Y-9386198D02*
X4265301Y-9405246D01*
X4265301Y-9405246D02*
X4265301Y-9462389D01*
X4265301Y-9462389D02*
X4255777Y-9481436D01*
X4255777Y-9481436D02*
X4246253Y-9490960D01*
X4246253Y-9490960D02*
X4227206Y-9500484D01*
X4227206Y-9500484D02*
X4198634Y-9500484D01*
X4379587Y-9500484D02*
X4360539Y-9490960D01*
X4360539Y-9490960D02*
X4351015Y-9471912D01*
X4351015Y-9471912D02*
X4351015Y-9300484D01*
X4531968Y-9490960D02*
X4512920Y-9500484D01*
X4512920Y-9500484D02*
X4474825Y-9500484D01*
X4474825Y-9500484D02*
X4455777Y-9490960D01*
X4455777Y-9490960D02*
X4446253Y-9471912D01*
X4446253Y-9471912D02*
X4446253Y-9395722D01*
X4446253Y-9395722D02*
X4455777Y-9376674D01*
X4455777Y-9376674D02*
X4474825Y-9367150D01*
X4474825Y-9367150D02*
X4512920Y-9367150D01*
X4512920Y-9367150D02*
X4531968Y-9376674D01*
X4531968Y-9376674D02*
X4541492Y-9395722D01*
X4541492Y-9395722D02*
X4541492Y-9414770D01*
X4541492Y-9414770D02*
X4446253Y-9433817D01*
X4617682Y-9490960D02*
X4636730Y-9500484D01*
X4636730Y-9500484D02*
X4674825Y-9500484D01*
X4674825Y-9500484D02*
X4693873Y-9490960D01*
X4693873Y-9490960D02*
X4703396Y-9471912D01*
X4703396Y-9471912D02*
X4703396Y-9462389D01*
X4703396Y-9462389D02*
X4693873Y-9443341D01*
X4693873Y-9443341D02*
X4674825Y-9433817D01*
X4674825Y-9433817D02*
X4646253Y-9433817D01*
X4646253Y-9433817D02*
X4627206Y-9424293D01*
X4627206Y-9424293D02*
X4617682Y-9405246D01*
X4617682Y-9405246D02*
X4617682Y-9395722D01*
X4617682Y-9395722D02*
X4627206Y-9376674D01*
X4627206Y-9376674D02*
X4646253Y-9367150D01*
X4646253Y-9367150D02*
X4674825Y-9367150D01*
X4674825Y-9367150D02*
X4693873Y-9376674D01*
X4770063Y-9576674D02*
X4779587Y-9567150D01*
X4779587Y-9567150D02*
X4798634Y-9538579D01*
X4798634Y-9538579D02*
X4808158Y-9519531D01*
X4808158Y-9519531D02*
X4817682Y-9490960D01*
X4817682Y-9490960D02*
X4827206Y-9443341D01*
X4827206Y-9443341D02*
X4827206Y-9405246D01*
X4827206Y-9405246D02*
X4817682Y-9357627D01*
X4817682Y-9357627D02*
X4808158Y-9329055D01*
X4808158Y-9329055D02*
X4798634Y-9310008D01*
X4798634Y-9310008D02*
X4779587Y-9281436D01*
X4779587Y-9281436D02*
X4770063Y-9271912D01*
X5131968Y-9576674D02*
X5122444Y-9567150D01*
X5122444Y-9567150D02*
X5103396Y-9538579D01*
X5103396Y-9538579D02*
X5093873Y-9519531D01*
X5093873Y-9519531D02*
X5084349Y-9490960D01*
X5084349Y-9490960D02*
X5074825Y-9443341D01*
X5074825Y-9443341D02*
X5074825Y-9405246D01*
X5074825Y-9405246D02*
X5084349Y-9357627D01*
X5084349Y-9357627D02*
X5093873Y-9329055D01*
X5093873Y-9329055D02*
X5103396Y-9310008D01*
X5103396Y-9310008D02*
X5122444Y-9281436D01*
X5122444Y-9281436D02*
X5131968Y-9271912D01*
X5208158Y-9367150D02*
X5208158Y-9500484D01*
X5208158Y-9386198D02*
X5217682Y-9376674D01*
X5217682Y-9376674D02*
X5236730Y-9367150D01*
X5236730Y-9367150D02*
X5265301Y-9367150D01*
X5265301Y-9367150D02*
X5284349Y-9376674D01*
X5284349Y-9376674D02*
X5293873Y-9395722D01*
X5293873Y-9395722D02*
X5293873Y-9500484D01*
X5417682Y-9500484D02*
X5398634Y-9490960D01*
X5398634Y-9490960D02*
X5389111Y-9481436D01*
X5389111Y-9481436D02*
X5379587Y-9462389D01*
X5379587Y-9462389D02*
X5379587Y-9405246D01*
X5379587Y-9405246D02*
X5389111Y-9386198D01*
X5389111Y-9386198D02*
X5398634Y-9376674D01*
X5398634Y-9376674D02*
X5417682Y-9367150D01*
X5417682Y-9367150D02*
X5446254Y-9367150D01*
X5446254Y-9367150D02*
X5465301Y-9376674D01*
X5465301Y-9376674D02*
X5474825Y-9386198D01*
X5474825Y-9386198D02*
X5484349Y-9405246D01*
X5484349Y-9405246D02*
X5484349Y-9462389D01*
X5484349Y-9462389D02*
X5474825Y-9481436D01*
X5474825Y-9481436D02*
X5465301Y-9490960D01*
X5465301Y-9490960D02*
X5446254Y-9500484D01*
X5446254Y-9500484D02*
X5417682Y-9500484D01*
X5541492Y-9367150D02*
X5617682Y-9367150D01*
X5570063Y-9300484D02*
X5570063Y-9471912D01*
X5570063Y-9471912D02*
X5579587Y-9490960D01*
X5579587Y-9490960D02*
X5598634Y-9500484D01*
X5598634Y-9500484D02*
X5617682Y-9500484D01*
X5836730Y-9367150D02*
X5836730Y-9567150D01*
X5836730Y-9376674D02*
X5855777Y-9367150D01*
X5855777Y-9367150D02*
X5893873Y-9367150D01*
X5893873Y-9367150D02*
X5912920Y-9376674D01*
X5912920Y-9376674D02*
X5922444Y-9386198D01*
X5922444Y-9386198D02*
X5931968Y-9405246D01*
X5931968Y-9405246D02*
X5931968Y-9462389D01*
X5931968Y-9462389D02*
X5922444Y-9481436D01*
X5922444Y-9481436D02*
X5912920Y-9490960D01*
X5912920Y-9490960D02*
X5893873Y-9500484D01*
X5893873Y-9500484D02*
X5855777Y-9500484D01*
X5855777Y-9500484D02*
X5836730Y-9490960D01*
X6046253Y-9500484D02*
X6027206Y-9490960D01*
X6027206Y-9490960D02*
X6017682Y-9471912D01*
X6017682Y-9471912D02*
X6017682Y-9300484D01*
X6208158Y-9500484D02*
X6208158Y-9395722D01*
X6208158Y-9395722D02*
X6198634Y-9376674D01*
X6198634Y-9376674D02*
X6179587Y-9367150D01*
X6179587Y-9367150D02*
X6141492Y-9367150D01*
X6141492Y-9367150D02*
X6122444Y-9376674D01*
X6208158Y-9490960D02*
X6189111Y-9500484D01*
X6189111Y-9500484D02*
X6141492Y-9500484D01*
X6141492Y-9500484D02*
X6122444Y-9490960D01*
X6122444Y-9490960D02*
X6112920Y-9471912D01*
X6112920Y-9471912D02*
X6112920Y-9452865D01*
X6112920Y-9452865D02*
X6122444Y-9433817D01*
X6122444Y-9433817D02*
X6141492Y-9424293D01*
X6141492Y-9424293D02*
X6189111Y-9424293D01*
X6189111Y-9424293D02*
X6208158Y-9414770D01*
X6274825Y-9367150D02*
X6351015Y-9367150D01*
X6303396Y-9300484D02*
X6303396Y-9471912D01*
X6303396Y-9471912D02*
X6312920Y-9490960D01*
X6312920Y-9490960D02*
X6331968Y-9500484D01*
X6331968Y-9500484D02*
X6351015Y-9500484D01*
X6493873Y-9490960D02*
X6474825Y-9500484D01*
X6474825Y-9500484D02*
X6436730Y-9500484D01*
X6436730Y-9500484D02*
X6417682Y-9490960D01*
X6417682Y-9490960D02*
X6408158Y-9471912D01*
X6408158Y-9471912D02*
X6408158Y-9395722D01*
X6408158Y-9395722D02*
X6417682Y-9376674D01*
X6417682Y-9376674D02*
X6436730Y-9367150D01*
X6436730Y-9367150D02*
X6474825Y-9367150D01*
X6474825Y-9367150D02*
X6493873Y-9376674D01*
X6493873Y-9376674D02*
X6503396Y-9395722D01*
X6503396Y-9395722D02*
X6503396Y-9414770D01*
X6503396Y-9414770D02*
X6408158Y-9433817D01*
X6674825Y-9500484D02*
X6674825Y-9300484D01*
X6674825Y-9490960D02*
X6655777Y-9500484D01*
X6655777Y-9500484D02*
X6617682Y-9500484D01*
X6617682Y-9500484D02*
X6598634Y-9490960D01*
X6598634Y-9490960D02*
X6589111Y-9481436D01*
X6589111Y-9481436D02*
X6579587Y-9462389D01*
X6579587Y-9462389D02*
X6579587Y-9405246D01*
X6579587Y-9405246D02*
X6589111Y-9386198D01*
X6589111Y-9386198D02*
X6598634Y-9376674D01*
X6598634Y-9376674D02*
X6617682Y-9367150D01*
X6617682Y-9367150D02*
X6655777Y-9367150D01*
X6655777Y-9367150D02*
X6674825Y-9376674D01*
X6751015Y-9576674D02*
X6760539Y-9567150D01*
X6760539Y-9567150D02*
X6779587Y-9538579D01*
X6779587Y-9538579D02*
X6789111Y-9519531D01*
X6789111Y-9519531D02*
X6798634Y-9490960D01*
X6798634Y-9490960D02*
X6808158Y-9443341D01*
X6808158Y-9443341D02*
X6808158Y-9405246D01*
X6808158Y-9405246D02*
X6798634Y-9357627D01*
X6798634Y-9357627D02*
X6789111Y-9329055D01*
X6789111Y-9329055D02*
X6779587Y-9310008D01*
X6779587Y-9310008D02*
X6760539Y-9281436D01*
X6760539Y-9281436D02*
X6751015Y-9271912D01*
M02*
