%TF.GenerationSoftware,KiCad,Pcbnew,10.0.5*%
%TF.CreationDate,2026-08-11T15:36:02+03:00*%
%TF.ProjectId,skysweep32_rev_c,736b7973-7765-4657-9033-325f7265765f,rev?*%
%TF.SameCoordinates,Original*%
%TF.FileFunction,Copper,L4,Bot*%
%TF.FilePolarity,Positive*%
%FSLAX46Y46*%
G04 Gerber Fmt 4.6, Leading zero omitted, Abs format (unit mm)*
G04 Created by KiCad (PCBNEW 10.0.5) date 2026-08-11 15:36:02*
%MOMM*%
%LPD*%
G01*
G04 APERTURE LIST*
G04 Aperture macros list*
%AMRoundRect*
0 Rectangle with rounded corners*
0 $1 Rounding radius*
0 $2 $3 $4 $5 $6 $7 $8 $9 X,Y pos of 4 corners*
0 Add a 4 corners polygon primitive as box body*
4,1,4,$2,$3,$4,$5,$6,$7,$8,$9,$2,$3,0*
0 Add four circle primitives for the rounded corners*
1,1,$1+$1,$2,$3*
1,1,$1+$1,$4,$5*
1,1,$1+$1,$6,$7*
1,1,$1+$1,$8,$9*
0 Add four rect primitives between the rounded corners*
20,1,$1+$1,$2,$3,$4,$5,0*
20,1,$1+$1,$4,$5,$6,$7,0*
20,1,$1+$1,$6,$7,$8,$9,0*
20,1,$1+$1,$8,$9,$2,$3,0*%
G04 Aperture macros list end*
%TA.AperFunction,SMDPad,CuDef*%
%ADD10R,5.080000X1.500000*%
%TD*%
%TA.AperFunction,ComponentPad*%
%ADD11O,1.000000X2.100000*%
%TD*%
%TA.AperFunction,ComponentPad*%
%ADD12O,1.000000X1.800000*%
%TD*%
%TA.AperFunction,ComponentPad*%
%ADD13RoundRect,0.250000X-0.350000X-0.625000X0.350000X-0.625000X0.350000X0.625000X-0.350000X0.625000X0*%
%TD*%
%TA.AperFunction,ComponentPad*%
%ADD14O,1.200000X1.750000*%
%TD*%
%TA.AperFunction,HeatsinkPad*%
%ADD15C,0.600000*%
%TD*%
%TA.AperFunction,ComponentPad*%
%ADD16R,1.800000X1.800000*%
%TD*%
%TA.AperFunction,ComponentPad*%
%ADD17C,1.800000*%
%TD*%
%TA.AperFunction,ViaPad*%
%ADD18C,0.700000*%
%TD*%
%TA.AperFunction,ViaPad*%
%ADD19C,0.600000*%
%TD*%
%TA.AperFunction,ViaPad*%
%ADD20C,0.900000*%
%TD*%
%TA.AperFunction,ViaPad*%
%ADD21C,1.000000*%
%TD*%
%TA.AperFunction,Conductor*%
%ADD22C,0.250000*%
%TD*%
%TA.AperFunction,Conductor*%
%ADD23C,0.800000*%
%TD*%
G04 APERTURE END LIST*
D10*
%TO.P,J5,2*%
%TO.N,GND*%
X2550000Y-48520000D03*
X2550000Y-40020000D03*
%TD*%
D11*
%TO.P,J1,SH*%
%TO.N,GND*%
X15680000Y-78220000D03*
D12*
X15680000Y-82400000D03*
D11*
X24320000Y-78220000D03*
D12*
X24320000Y-82400000D03*
%TD*%
D13*
%TO.P,J4,1*%
%TO.N,VBUS_PROTECTED*%
X80000000Y-69000000D03*
D14*
%TO.P,J4,2*%
%TO.N,VIBRATION_DRAIN*%
X82000000Y-69000000D03*
%TD*%
D15*
%TO.P,U1,41*%
%TO.N,GND*%
X57100000Y-29760000D03*
X57100000Y-31160000D03*
X57800000Y-29060000D03*
X57800000Y-30460000D03*
X57800000Y-31860000D03*
X58500000Y-29760000D03*
X58500000Y-31160000D03*
X59200000Y-29060000D03*
X59200000Y-30460000D03*
X59200000Y-31860000D03*
X59900000Y-29760000D03*
X59900000Y-31160000D03*
%TD*%
D16*
%TO.P,RF1,1*%
%TO.N,GND*%
X98750000Y-19110000D03*
D17*
%TO.P,RF1,2*%
%TO.N,3V3*%
X98750000Y-21650000D03*
%TO.P,RF1,3*%
%TO.N,NRF24_CE*%
X98750000Y-24190000D03*
%TO.P,RF1,4*%
%TO.N,NRF24_CSN*%
X98750000Y-26730000D03*
%TO.P,RF1,5*%
%TO.N,RF_SPI_SCK*%
X98750000Y-29270000D03*
%TO.P,RF1,6*%
%TO.N,RF_SPI_MOSI*%
X98750000Y-31810000D03*
%TO.P,RF1,7*%
%TO.N,RF_SPI_MISO*%
X98750000Y-34350000D03*
%TO.P,RF1,8*%
%TO.N,unconnected-(RF1-Pin_8-Pad8)*%
X98750000Y-36890000D03*
%TD*%
D18*
%TO.N,I2C_SDA*%
X69769000Y-77070000D03*
X27175000Y-21031300D03*
X66789600Y-24010000D03*
%TO.N,GPS_I2C_SDA*%
X26698100Y-17250100D03*
X22186200Y-10172400D03*
%TO.N,SD_DAT2*%
X98203800Y-55009400D03*
X104646200Y-62948000D03*
%TO.N,SD_CSN*%
X93975900Y-57986300D03*
X78622300Y-35193400D03*
%TO.N,SD_SPI_MOSI*%
X94375600Y-56537300D03*
X85419700Y-37980000D03*
D19*
%TO.N,3V3*%
X18900000Y-27100000D03*
D20*
X45862500Y-66000000D03*
D18*
%TO.N,SD_SPI_SCK*%
X105649500Y-57705000D03*
X92343800Y-36710000D03*
%TO.N,GND*%
X93313100Y-81850000D03*
X107463800Y-63234600D03*
D19*
X9000000Y-45540000D03*
D18*
X55823700Y-45539300D03*
X47207000Y-78497100D03*
X93863900Y-72682800D03*
X62432400Y-67480500D03*
X21968800Y-32163500D03*
X49697400Y-76006700D03*
X11826500Y-25502500D03*
X114781200Y-66532100D03*
D19*
X9000000Y-43000000D03*
D18*
X21968800Y-41356300D03*
X59545400Y-44839500D03*
X52856600Y-35372400D03*
X7633900Y-17420400D03*
X20874900Y-28060500D03*
%TO.N,SD_SPI_MISO*%
X97481200Y-53248200D03*
X89961600Y-35913700D03*
%TO.N,SD_DETECT*%
X114949100Y-62692000D03*
X66833400Y-33914300D03*
X91375700Y-59705900D03*
%TO.N,GPS_PPS*%
X55391900Y-35006400D03*
X24025500Y-8420100D03*
%TO.N,GPS_RX*%
X26068700Y-20900000D03*
X63828000Y-37855700D03*
%TO.N,GPS_TX*%
X26818300Y-26275800D03*
X65591700Y-42727000D03*
%TO.N,GPS_RESET_N*%
X16556200Y-28058000D03*
X29781300Y-15179100D03*
%TO.N,BUZZER_DRAIN*%
X69160200Y-58118000D03*
X85179600Y-58000000D03*
%TO.N,USB_D_P*%
X49922100Y-39250000D03*
X39358100Y-59990700D03*
%TO.N,UART0_TX*%
X81922100Y-48000000D03*
X74335300Y-32405800D03*
%TO.N,ALERT_LED*%
X66465900Y-74924600D03*
X67215700Y-31630000D03*
%TO.N,UART0_RX*%
X70525100Y-28445500D03*
X80047300Y-46453600D03*
%TO.N,MCU_EN*%
X48593300Y-31117100D03*
X49183000Y-45938200D03*
X72745400Y-77551500D03*
D20*
%TO.N,VBUS_RAW*%
X17600000Y-75700000D03*
D21*
X31000000Y-73300000D03*
D19*
X22400000Y-76600000D03*
%TO.N,USB_CC2*%
X31175000Y-77200000D03*
X21750000Y-79000000D03*
D18*
%TO.N,VIBRATION_GATE*%
X94485900Y-66683600D03*
X76444100Y-32586900D03*
%TO.N,USB_D_N*%
X40168700Y-63873000D03*
X50619900Y-41131300D03*
%TO.N,BOOT_N*%
X88416600Y-78150000D03*
X71008800Y-39250000D03*
%TO.N,USER_BUTTON_N*%
X99461900Y-77294500D03*
X71642700Y-29333800D03*
%TO.N,I2C_SCL*%
X66809100Y-28970200D03*
X31333500Y-24437900D03*
X64675600Y-75669700D03*
%TO.N,CC1101_GDO0*%
X11254800Y-56840500D03*
X23556700Y-32132100D03*
%TO.N,CC1101_GDO2*%
X47569200Y-32900000D03*
X19798400Y-58260000D03*
%TO.N,NRF24_CE*%
X55920800Y-36710000D03*
%TO.N,NRF24_CSN*%
X56393300Y-38872600D03*
%TO.N,CC1101_CSN*%
X14399300Y-51773900D03*
X57669600Y-42718400D03*
%TO.N,RF_SPI_MOSI*%
X58271900Y-38932900D03*
X14803500Y-54450000D03*
%TO.N,RF_SPI_SCK*%
X59105700Y-42258600D03*
X10666400Y-51334400D03*
%TO.N,RF_SPI_MISO*%
X19784300Y-55720000D03*
X53247300Y-38081900D03*
%TO.N,ALERT_BUZZER_GATE*%
X70235200Y-32900000D03*
X86080000Y-53000000D03*
%TD*%
%TO.N,GND*%
D22*
X18316900Y-25502500D02*
X11826500Y-25502500D01*
X49697400Y-76006700D02*
X47207000Y-78497100D01*
X52856600Y-35372400D02*
X56369000Y-31860000D01*
X56369000Y-31860000D02*
X57800000Y-31860000D01*
X20874900Y-28060500D02*
X18316900Y-25502500D01*
%TO.N,SD_DETECT*%
X111963000Y-59705900D02*
X91375700Y-59705900D01*
X114949100Y-62692000D02*
X111963000Y-59705900D01*
%TO.N,GPS_RX*%
X63828000Y-37855700D02*
X63377500Y-37405200D01*
X63377500Y-37405200D02*
X42573900Y-37405200D01*
X42573900Y-37405200D02*
X26068700Y-20900000D01*
%TO.N,GPS_TX*%
X26818300Y-26275800D02*
X40929400Y-40386900D01*
X40929400Y-40386900D02*
X63251600Y-40386900D01*
X63251600Y-40386900D02*
X65591700Y-42727000D01*
%TO.N,BUZZER_DRAIN*%
X69160200Y-58118000D02*
X85061600Y-58118000D01*
X85061600Y-58118000D02*
X85179600Y-58000000D01*
%TO.N,VBUS_RAW*%
D23*
X22400000Y-76600000D02*
X20000000Y-73300000D01*
X20000000Y-73300000D02*
X31000000Y-73300000D01*
X17600000Y-75700000D02*
X20000000Y-73300000D01*
%TO.N,USB_CC2*%
D22*
X21750000Y-79000000D02*
X23000000Y-80500000D01*
X25600000Y-80500000D02*
X31175000Y-77200000D01*
X23000000Y-80500000D02*
X25600000Y-80500000D01*
%TO.N,I2C_SCL*%
X66809100Y-28970200D02*
X62276800Y-24437900D01*
X62276800Y-24437900D02*
X31333500Y-24437900D01*
%TO.N,CC1101_CSN*%
X14399300Y-51773900D02*
X48614100Y-51773900D01*
X48614100Y-51773900D02*
X57669600Y-42718400D01*
%TO.N,RF_SPI_MOSI*%
X58271900Y-38932900D02*
X63707800Y-38932900D01*
X63707800Y-38932900D02*
X68800700Y-33840000D01*
X68800700Y-33840000D02*
X96720000Y-33840000D01*
X96720000Y-33840000D02*
X98750000Y-31810000D01*
%TO.N,RF_SPI_SCK*%
X58888700Y-42041600D02*
X59105700Y-42258600D01*
X19959200Y-42041600D02*
X58888700Y-42041600D01*
X10666400Y-51334400D02*
X19959200Y-42041600D01*
%TO.N,RF_SPI_MISO*%
X93164800Y-39935200D02*
X55100600Y-39935200D01*
X55100600Y-39935200D02*
X53247300Y-38081900D01*
X98750000Y-34350000D02*
X93164800Y-39935200D01*
%TD*%
%TA.AperFunction,Conductor*%
%TO.N,GND*%
G36*
X35959191Y-618907D02*
G01*
X35995155Y-668407D01*
X36000000Y-699000D01*
X36000000Y-21250000D01*
X36000001Y-21250000D01*
X83999999Y-21250000D01*
X84000000Y-21250000D01*
X84000000Y-4885265D01*
X113249500Y-4885265D01*
X113249500Y-5114734D01*
X113279452Y-5342238D01*
X113338841Y-5563885D01*
X113426653Y-5775883D01*
X113426656Y-5775888D01*
X113541389Y-5974612D01*
X113681081Y-6156661D01*
X113843339Y-6318919D01*
X114025388Y-6458611D01*
X114224112Y-6573344D01*
X114224113Y-6573344D01*
X114224116Y-6573346D01*
X114320167Y-6613131D01*
X114436113Y-6661158D01*
X114657762Y-6720548D01*
X114885266Y-6750500D01*
X114885267Y-6750500D01*
X115114733Y-6750500D01*
X115114734Y-6750500D01*
X115342238Y-6720548D01*
X115563887Y-6661158D01*
X115775888Y-6573344D01*
X115974612Y-6458611D01*
X116156661Y-6318919D01*
X116318919Y-6156661D01*
X116458611Y-5974612D01*
X116573344Y-5775888D01*
X116661158Y-5563887D01*
X116720548Y-5342238D01*
X116750500Y-5114734D01*
X116750500Y-4885266D01*
X116720548Y-4657762D01*
X116661158Y-4436113D01*
X116573344Y-4224112D01*
X116458611Y-4025388D01*
X116318919Y-3843339D01*
X116156661Y-3681081D01*
X115974612Y-3541389D01*
X115974613Y-3541389D01*
X115974611Y-3541388D01*
X115775883Y-3426653D01*
X115563885Y-3338841D01*
X115342238Y-3279452D01*
X115114734Y-3249500D01*
X114885266Y-3249500D01*
X114885265Y-3249500D01*
X114657761Y-3279452D01*
X114436114Y-3338841D01*
X114224116Y-3426653D01*
X114025388Y-3541388D01*
X113843342Y-3681078D01*
X113681078Y-3843342D01*
X113541388Y-4025388D01*
X113426653Y-4224116D01*
X113338841Y-4436114D01*
X113279452Y-4657761D01*
X113249500Y-4885265D01*
X84000000Y-4885265D01*
X84000000Y-699000D01*
X84018907Y-640809D01*
X84068407Y-604845D01*
X84099000Y-600000D01*
X117668441Y-600000D01*
X117697915Y-604489D01*
X117880377Y-661391D01*
X117891549Y-665631D01*
X118155837Y-784631D01*
X118166415Y-790184D01*
X118414466Y-940174D01*
X118424278Y-946947D01*
X118652451Y-1125730D01*
X118661387Y-1133647D01*
X118866352Y-1338612D01*
X118874270Y-1347550D01*
X119053049Y-1575718D01*
X119059830Y-1585540D01*
X119209814Y-1833582D01*
X119215368Y-1844162D01*
X119334368Y-2108450D01*
X119338608Y-2119622D01*
X119395511Y-2302083D01*
X119400000Y-2331557D01*
X119400000Y-82668441D01*
X119395511Y-82697915D01*
X119338608Y-82880377D01*
X119334368Y-82891549D01*
X119215368Y-83155837D01*
X119209814Y-83166417D01*
X119059830Y-83414459D01*
X119053041Y-83424293D01*
X118874276Y-83652443D01*
X118866352Y-83661387D01*
X118661387Y-83866352D01*
X118652443Y-83874276D01*
X118424293Y-84053041D01*
X118414459Y-84059830D01*
X118166417Y-84209814D01*
X118155837Y-84215368D01*
X117891549Y-84334368D01*
X117880377Y-84338608D01*
X117697915Y-84395511D01*
X117668441Y-84400000D01*
X2331559Y-84400000D01*
X2302085Y-84395511D01*
X2119622Y-84338608D01*
X2108450Y-84334368D01*
X1844162Y-84215368D01*
X1833582Y-84209814D01*
X1585540Y-84059830D01*
X1575718Y-84053049D01*
X1347550Y-83874270D01*
X1338612Y-83866352D01*
X1133647Y-83661387D01*
X1125730Y-83652451D01*
X946947Y-83424278D01*
X940174Y-83414466D01*
X790184Y-83166415D01*
X784631Y-83155837D01*
X665631Y-82891549D01*
X661391Y-82880377D01*
X604489Y-82697915D01*
X600000Y-82668441D01*
X600000Y-79885265D01*
X3249500Y-79885265D01*
X3249500Y-80114734D01*
X3279452Y-80342238D01*
X3338841Y-80563885D01*
X3426653Y-80775883D01*
X3513037Y-80925506D01*
X3541389Y-80974612D01*
X3681081Y-81156661D01*
X3843339Y-81318919D01*
X4025388Y-81458611D01*
X4224112Y-81573344D01*
X4224113Y-81573344D01*
X4224116Y-81573346D01*
X4320167Y-81613131D01*
X4436113Y-81661158D01*
X4657762Y-81720548D01*
X4885266Y-81750500D01*
X4885267Y-81750500D01*
X5114733Y-81750500D01*
X5114734Y-81750500D01*
X5342238Y-81720548D01*
X5563887Y-81661158D01*
X5775888Y-81573344D01*
X5974612Y-81458611D01*
X6156661Y-81318919D01*
X6318919Y-81156661D01*
X6458611Y-80974612D01*
X6573344Y-80775888D01*
X6661158Y-80563887D01*
X6720548Y-80342238D01*
X6750500Y-80114734D01*
X6750500Y-79885266D01*
X6720548Y-79657762D01*
X6661158Y-79436113D01*
X6576522Y-79231784D01*
X6573346Y-79224116D01*
X6489595Y-79079055D01*
X6458611Y-79025388D01*
X6318919Y-78843339D01*
X6156661Y-78681081D01*
X6125798Y-78657399D01*
X16634500Y-78657399D01*
X16634500Y-78782601D01*
X16666905Y-78903536D01*
X16729505Y-79011964D01*
X16818036Y-79100495D01*
X16926464Y-79163095D01*
X17047399Y-79195500D01*
X17047401Y-79195500D01*
X17172599Y-79195500D01*
X17172601Y-79195500D01*
X17293536Y-79163095D01*
X17401964Y-79100495D01*
X17490495Y-79011964D01*
X17543045Y-78920943D01*
X21149500Y-78920943D01*
X21149500Y-79079057D01*
X21190423Y-79231784D01*
X21269480Y-79368716D01*
X21381284Y-79480520D01*
X21518216Y-79559577D01*
X21670943Y-79600500D01*
X21670945Y-79600500D01*
X21673569Y-79601203D01*
X21724000Y-79633452D01*
X22644317Y-80737833D01*
X22653997Y-80751707D01*
X22659514Y-80761262D01*
X22682308Y-80784057D01*
X22688357Y-80790681D01*
X22708983Y-80815432D01*
X22717993Y-80821786D01*
X22730931Y-80832680D01*
X22737074Y-80838822D01*
X22738737Y-80840485D01*
X22766651Y-80856601D01*
X22774206Y-80861432D01*
X22800540Y-80880005D01*
X22810883Y-80883809D01*
X22826212Y-80890988D01*
X22835763Y-80896503D01*
X22866898Y-80904845D01*
X22875440Y-80907555D01*
X22905685Y-80918680D01*
X22905688Y-80918681D01*
X22908215Y-80918910D01*
X22916672Y-80919680D01*
X22933330Y-80922646D01*
X22943982Y-80925500D01*
X22976213Y-80925500D01*
X22985177Y-80925907D01*
X23017262Y-80928824D01*
X23017264Y-80928824D01*
X23017264Y-80928823D01*
X23017265Y-80928824D01*
X23028131Y-80926945D01*
X23044991Y-80925500D01*
X25537817Y-80925500D01*
X25547702Y-80926094D01*
X25601772Y-80925506D01*
X25602849Y-80925500D01*
X25656184Y-80925500D01*
X25657745Y-80925277D01*
X25658821Y-80925130D01*
X25660469Y-80924913D01*
X25660637Y-80924866D01*
X25660638Y-80924866D01*
X25711826Y-80910551D01*
X25712772Y-80910292D01*
X25764237Y-80896503D01*
X25764238Y-80896502D01*
X25764403Y-80896458D01*
X25765915Y-80895813D01*
X25766893Y-80895401D01*
X25768389Y-80894780D01*
X25768530Y-80894696D01*
X25768535Y-80894695D01*
X25814359Y-80867568D01*
X25815108Y-80867131D01*
X25861263Y-80840485D01*
X25861265Y-80840482D01*
X25862058Y-80840025D01*
X25870240Y-80834491D01*
X27473857Y-79885265D01*
X113249500Y-79885265D01*
X113249500Y-80114734D01*
X113279452Y-80342238D01*
X113338841Y-80563885D01*
X113426653Y-80775883D01*
X113513037Y-80925506D01*
X113541389Y-80974612D01*
X113681081Y-81156661D01*
X113843339Y-81318919D01*
X114025388Y-81458611D01*
X114224112Y-81573344D01*
X114224113Y-81573344D01*
X114224116Y-81573346D01*
X114320167Y-81613131D01*
X114436113Y-81661158D01*
X114657762Y-81720548D01*
X114885266Y-81750500D01*
X114885267Y-81750500D01*
X115114733Y-81750500D01*
X115114734Y-81750500D01*
X115342238Y-81720548D01*
X115563887Y-81661158D01*
X115775888Y-81573344D01*
X115974612Y-81458611D01*
X116156661Y-81318919D01*
X116318919Y-81156661D01*
X116458611Y-80974612D01*
X116573344Y-80775888D01*
X116661158Y-80563887D01*
X116720548Y-80342238D01*
X116750500Y-80114734D01*
X116750500Y-79885266D01*
X116720548Y-79657762D01*
X116661158Y-79436113D01*
X116576522Y-79231784D01*
X116573346Y-79224116D01*
X116489595Y-79079055D01*
X116458611Y-79025388D01*
X116318919Y-78843339D01*
X116156661Y-78681081D01*
X115974612Y-78541389D01*
X115974613Y-78541389D01*
X115974611Y-78541388D01*
X115775883Y-78426653D01*
X115563885Y-78338841D01*
X115342238Y-78279452D01*
X115114734Y-78249500D01*
X114885266Y-78249500D01*
X114885265Y-78249500D01*
X114657761Y-78279452D01*
X114436114Y-78338841D01*
X114224116Y-78426653D01*
X114025388Y-78541388D01*
X113843342Y-78681078D01*
X113681078Y-78843342D01*
X113541388Y-79025388D01*
X113426653Y-79224116D01*
X113338841Y-79436114D01*
X113279452Y-79657761D01*
X113249500Y-79885265D01*
X27473857Y-79885265D01*
X30991209Y-77803245D01*
X31050914Y-77789876D01*
X31067254Y-77792812D01*
X31095943Y-77800500D01*
X31254055Y-77800500D01*
X31254057Y-77800500D01*
X31406784Y-77759577D01*
X31543716Y-77680520D01*
X31655520Y-77568716D01*
X31734577Y-77431784D01*
X31775500Y-77279057D01*
X31775500Y-77120943D01*
X31750245Y-77026689D01*
X31750245Y-77026687D01*
X31744683Y-77005931D01*
X69118500Y-77005931D01*
X69118500Y-77134069D01*
X69140242Y-77243372D01*
X69143499Y-77259742D01*
X69143500Y-77259747D01*
X69192534Y-77378125D01*
X69192538Y-77378133D01*
X69225568Y-77427565D01*
X69263724Y-77484669D01*
X69354331Y-77575276D01*
X69395262Y-77602625D01*
X69460866Y-77646461D01*
X69460870Y-77646463D01*
X69460873Y-77646465D01*
X69579256Y-77695501D01*
X69704931Y-77720500D01*
X69704932Y-77720500D01*
X69833068Y-77720500D01*
X69833069Y-77720500D01*
X69958744Y-77695501D01*
X70077127Y-77646465D01*
X70183669Y-77575276D01*
X70271514Y-77487431D01*
X72094900Y-77487431D01*
X72094900Y-77615569D01*
X72115772Y-77720499D01*
X72119899Y-77741242D01*
X72119900Y-77741247D01*
X72168934Y-77859625D01*
X72168938Y-77859633D01*
X72209274Y-77919999D01*
X72240124Y-77966169D01*
X72330731Y-78056776D01*
X72394248Y-78099217D01*
X72437266Y-78127961D01*
X72437270Y-78127963D01*
X72437273Y-78127965D01*
X72555656Y-78177001D01*
X72681331Y-78202000D01*
X72681332Y-78202000D01*
X72809468Y-78202000D01*
X72809469Y-78202000D01*
X72935144Y-78177001D01*
X73053527Y-78127965D01*
X73116435Y-78085931D01*
X87766100Y-78085931D01*
X87766100Y-78214069D01*
X87791051Y-78339505D01*
X87791099Y-78339742D01*
X87791100Y-78339747D01*
X87840134Y-78458125D01*
X87840138Y-78458133D01*
X87881130Y-78519480D01*
X87911324Y-78564669D01*
X88001931Y-78655276D01*
X88044553Y-78683755D01*
X88108466Y-78726461D01*
X88108470Y-78726463D01*
X88108473Y-78726465D01*
X88226856Y-78775501D01*
X88352531Y-78800500D01*
X88352532Y-78800500D01*
X88480668Y-78800500D01*
X88480669Y-78800500D01*
X88606344Y-78775501D01*
X88724727Y-78726465D01*
X88831269Y-78655276D01*
X88921876Y-78564669D01*
X88993065Y-78458127D01*
X89042101Y-78339744D01*
X89067100Y-78214069D01*
X89067100Y-78085931D01*
X89042101Y-77960256D01*
X88993065Y-77841873D01*
X88993063Y-77841870D01*
X88993061Y-77841866D01*
X88953084Y-77782037D01*
X88921876Y-77735331D01*
X88831269Y-77644724D01*
X88787632Y-77615567D01*
X88724733Y-77573538D01*
X88724725Y-77573534D01*
X88606347Y-77524500D01*
X88606345Y-77524499D01*
X88606344Y-77524499D01*
X88480669Y-77499500D01*
X88352531Y-77499500D01*
X88352530Y-77499500D01*
X88289693Y-77511999D01*
X88226856Y-77524499D01*
X88226855Y-77524499D01*
X88226852Y-77524500D01*
X88108474Y-77573534D01*
X88108466Y-77573538D01*
X88001931Y-77644724D01*
X88001927Y-77644727D01*
X87911327Y-77735327D01*
X87911324Y-77735331D01*
X87840138Y-77841866D01*
X87840134Y-77841874D01*
X87791100Y-77960252D01*
X87791099Y-77960255D01*
X87791099Y-77960256D01*
X87766100Y-78085931D01*
X73116435Y-78085931D01*
X73160069Y-78056776D01*
X73250676Y-77966169D01*
X73321865Y-77859627D01*
X73370901Y-77741244D01*
X73395900Y-77615569D01*
X73395900Y-77487431D01*
X73370901Y-77361756D01*
X73321865Y-77243373D01*
X73321863Y-77243370D01*
X73321861Y-77243366D01*
X73313217Y-77230430D01*
X98811400Y-77230430D01*
X98811400Y-77358569D01*
X98836399Y-77484242D01*
X98836400Y-77484247D01*
X98885434Y-77602625D01*
X98885438Y-77602633D01*
X98928265Y-77666726D01*
X98956624Y-77709169D01*
X99047231Y-77799776D01*
X99110223Y-77841866D01*
X99153766Y-77870961D01*
X99153770Y-77870963D01*
X99153773Y-77870965D01*
X99272156Y-77920001D01*
X99397831Y-77945000D01*
X99397832Y-77945000D01*
X99525968Y-77945000D01*
X99525969Y-77945000D01*
X99651644Y-77920001D01*
X99770027Y-77870965D01*
X99876569Y-77799776D01*
X99967176Y-77709169D01*
X100038365Y-77602627D01*
X100087401Y-77484244D01*
X100112400Y-77358569D01*
X100112400Y-77230431D01*
X100087401Y-77104756D01*
X100038365Y-76986373D01*
X100038363Y-76986370D01*
X100038361Y-76986366D01*
X99985250Y-76906881D01*
X99967176Y-76879831D01*
X99876569Y-76789224D01*
X99834126Y-76760865D01*
X99770033Y-76718038D01*
X99770025Y-76718034D01*
X99651647Y-76669000D01*
X99651645Y-76668999D01*
X99651644Y-76668999D01*
X99525969Y-76644000D01*
X99397831Y-76644000D01*
X99397830Y-76644000D01*
X99340888Y-76655327D01*
X99272156Y-76668999D01*
X99272155Y-76668999D01*
X99272152Y-76669000D01*
X99153774Y-76718034D01*
X99153766Y-76718038D01*
X99047231Y-76789224D01*
X99047227Y-76789227D01*
X98956627Y-76879827D01*
X98956624Y-76879831D01*
X98885438Y-76986366D01*
X98885434Y-76986374D01*
X98836400Y-77104752D01*
X98836399Y-77104757D01*
X98811400Y-77230430D01*
X73313217Y-77230430D01*
X73267111Y-77161428D01*
X73250676Y-77136831D01*
X73160069Y-77046224D01*
X73099768Y-77005932D01*
X73053533Y-76975038D01*
X73053525Y-76975034D01*
X72935147Y-76926000D01*
X72935145Y-76925999D01*
X72935144Y-76925999D01*
X72809469Y-76901000D01*
X72681331Y-76901000D01*
X72681330Y-76901000D01*
X72651781Y-76906878D01*
X72555656Y-76925999D01*
X72555655Y-76925999D01*
X72555652Y-76926000D01*
X72437274Y-76975034D01*
X72437266Y-76975038D01*
X72330731Y-77046224D01*
X72330727Y-77046227D01*
X72240127Y-77136827D01*
X72240124Y-77136831D01*
X72168938Y-77243366D01*
X72168934Y-77243374D01*
X72119900Y-77361752D01*
X72119899Y-77361757D01*
X72095450Y-77484668D01*
X72094900Y-77487431D01*
X70271514Y-77487431D01*
X70274276Y-77484669D01*
X70309613Y-77431784D01*
X70312432Y-77427565D01*
X70345461Y-77378134D01*
X70345462Y-77378130D01*
X70345465Y-77378127D01*
X70394501Y-77259744D01*
X70419500Y-77134069D01*
X70419500Y-77005931D01*
X70394501Y-76880256D01*
X70345465Y-76761873D01*
X70345463Y-76761870D01*
X70345461Y-76761866D01*
X70283409Y-76669000D01*
X70274276Y-76655331D01*
X70183669Y-76564724D01*
X70141226Y-76536365D01*
X70077133Y-76493538D01*
X70077125Y-76493534D01*
X69958747Y-76444500D01*
X69958745Y-76444499D01*
X69958744Y-76444499D01*
X69833069Y-76419500D01*
X69704931Y-76419500D01*
X69704930Y-76419500D01*
X69642093Y-76431999D01*
X69579256Y-76444499D01*
X69579255Y-76444499D01*
X69579252Y-76444500D01*
X69460874Y-76493534D01*
X69460866Y-76493538D01*
X69354331Y-76564724D01*
X69354327Y-76564727D01*
X69263727Y-76655327D01*
X69263724Y-76655331D01*
X69192538Y-76761866D01*
X69192534Y-76761874D01*
X69143500Y-76880252D01*
X69143499Y-76880255D01*
X69143499Y-76880256D01*
X69118500Y-77005931D01*
X31744683Y-77005931D01*
X31734578Y-76968219D01*
X31734578Y-76968218D01*
X31734577Y-76968216D01*
X31655520Y-76831284D01*
X31543716Y-76719480D01*
X31406784Y-76640423D01*
X31254057Y-76599500D01*
X31095943Y-76599500D01*
X30943216Y-76640423D01*
X30806284Y-76719480D01*
X30694480Y-76831284D01*
X30650835Y-76906881D01*
X30615422Y-76968218D01*
X30604040Y-77010695D01*
X30570716Y-77062008D01*
X30558843Y-77070264D01*
X26803006Y-79293451D01*
X25515449Y-80055593D01*
X25506831Y-80060694D01*
X25456402Y-80074500D01*
X23245663Y-80074500D01*
X23187472Y-80055593D01*
X23169609Y-80038878D01*
X22548420Y-79293451D01*
X22525692Y-79236644D01*
X22540696Y-79177326D01*
X22587700Y-79138156D01*
X22648750Y-79134096D01*
X22673974Y-79144337D01*
X22706461Y-79163093D01*
X22706460Y-79163093D01*
X22706464Y-79163095D01*
X22827399Y-79195500D01*
X22827401Y-79195500D01*
X22952599Y-79195500D01*
X22952601Y-79195500D01*
X23073536Y-79163095D01*
X23181964Y-79100495D01*
X23270495Y-79011964D01*
X23333095Y-78903536D01*
X23365500Y-78782601D01*
X23365500Y-78657399D01*
X23333095Y-78536464D01*
X23270495Y-78428036D01*
X23181964Y-78339505D01*
X23073536Y-78276905D01*
X22952601Y-78244500D01*
X22827399Y-78244500D01*
X22746775Y-78266103D01*
X22706463Y-78276905D01*
X22598036Y-78339505D01*
X22509505Y-78428036D01*
X22446904Y-78536466D01*
X22422818Y-78626352D01*
X22389494Y-78677665D01*
X22332372Y-78699591D01*
X22273271Y-78683755D01*
X22241457Y-78650229D01*
X22230520Y-78631284D01*
X22118716Y-78519480D01*
X21981784Y-78440423D01*
X21829057Y-78399500D01*
X21670943Y-78399500D01*
X21518216Y-78440423D01*
X21381284Y-78519480D01*
X21269480Y-78631284D01*
X21190423Y-78768216D01*
X21149500Y-78920943D01*
X17543045Y-78920943D01*
X17553095Y-78903536D01*
X17585500Y-78782601D01*
X17585500Y-78657399D01*
X17553095Y-78536464D01*
X17490495Y-78428036D01*
X17401964Y-78339505D01*
X17293536Y-78276905D01*
X17172601Y-78244500D01*
X17047399Y-78244500D01*
X16966775Y-78266103D01*
X16926463Y-78276905D01*
X16818036Y-78339505D01*
X16729505Y-78428036D01*
X16666905Y-78536463D01*
X16656103Y-78576775D01*
X16634500Y-78657399D01*
X6125798Y-78657399D01*
X5974612Y-78541389D01*
X5974613Y-78541389D01*
X5974611Y-78541388D01*
X5775883Y-78426653D01*
X5563885Y-78338841D01*
X5342238Y-78279452D01*
X5114734Y-78249500D01*
X4885266Y-78249500D01*
X4885265Y-78249500D01*
X4657761Y-78279452D01*
X4436114Y-78338841D01*
X4224116Y-78426653D01*
X4025388Y-78541388D01*
X3843342Y-78681078D01*
X3681078Y-78843342D01*
X3541388Y-79025388D01*
X3426653Y-79224116D01*
X3338841Y-79436114D01*
X3279452Y-79657761D01*
X3249500Y-79885265D01*
X600000Y-79885265D01*
X600000Y-75626081D01*
X16849500Y-75626081D01*
X16849500Y-75773918D01*
X16878342Y-75918914D01*
X16934915Y-76055493D01*
X16934916Y-76055495D01*
X17017049Y-76178416D01*
X17121584Y-76282951D01*
X17244505Y-76365084D01*
X17381087Y-76421658D01*
X17526082Y-76450500D01*
X17526083Y-76450500D01*
X17673917Y-76450500D01*
X17673918Y-76450500D01*
X17818913Y-76421658D01*
X17955495Y-76365084D01*
X18078416Y-76282951D01*
X18182951Y-76178416D01*
X18265084Y-76055495D01*
X18278705Y-76022607D01*
X18300162Y-75990493D01*
X19833731Y-74456924D01*
X19888246Y-74429149D01*
X19948678Y-74438720D01*
X19983798Y-74468701D01*
X20633155Y-75361566D01*
X21874060Y-77067811D01*
X21975431Y-77161428D01*
X22093119Y-77233470D01*
X22093120Y-77233470D01*
X22093121Y-77233471D01*
X22222593Y-77281165D01*
X22222599Y-77281167D01*
X22358898Y-77302688D01*
X22496775Y-77297205D01*
X22584100Y-77276195D01*
X22630930Y-77264929D01*
X22630934Y-77264928D01*
X22705671Y-77230430D01*
X22756217Y-77207099D01*
X22867811Y-77125940D01*
X22961428Y-77024568D01*
X23033470Y-76906881D01*
X23081167Y-76777401D01*
X23102688Y-76641102D01*
X23097205Y-76503225D01*
X23077062Y-76419500D01*
X23064929Y-76369069D01*
X23064928Y-76369065D01*
X23007100Y-76243785D01*
X23007096Y-76243779D01*
X22581800Y-75658996D01*
X22542988Y-75605630D01*
X64025100Y-75605630D01*
X64025100Y-75733769D01*
X64050099Y-75859442D01*
X64050100Y-75859447D01*
X64099134Y-75977825D01*
X64099138Y-75977833D01*
X64129058Y-76022610D01*
X64170324Y-76084369D01*
X64260931Y-76174976D01*
X64324448Y-76217417D01*
X64367466Y-76246161D01*
X64367470Y-76246163D01*
X64367473Y-76246165D01*
X64485856Y-76295201D01*
X64611531Y-76320200D01*
X64611532Y-76320200D01*
X64739668Y-76320200D01*
X64739669Y-76320200D01*
X64865344Y-76295201D01*
X64983727Y-76246165D01*
X65090269Y-76174976D01*
X65180876Y-76084369D01*
X65252065Y-75977827D01*
X65301101Y-75859444D01*
X65326100Y-75733769D01*
X65326100Y-75605631D01*
X65301101Y-75479956D01*
X65252065Y-75361573D01*
X65252063Y-75361570D01*
X65252061Y-75361566D01*
X65223317Y-75318548D01*
X65180876Y-75255031D01*
X65090269Y-75164424D01*
X65047826Y-75136065D01*
X64983733Y-75093238D01*
X64983725Y-75093234D01*
X64865347Y-75044200D01*
X64865345Y-75044199D01*
X64865344Y-75044199D01*
X64739669Y-75019200D01*
X64611531Y-75019200D01*
X64611530Y-75019200D01*
X64548693Y-75031699D01*
X64485856Y-75044199D01*
X64485855Y-75044199D01*
X64485852Y-75044200D01*
X64367474Y-75093234D01*
X64367466Y-75093238D01*
X64260931Y-75164424D01*
X64260927Y-75164427D01*
X64170327Y-75255027D01*
X64170324Y-75255031D01*
X64099138Y-75361566D01*
X64099134Y-75361574D01*
X64050100Y-75479952D01*
X64050099Y-75479955D01*
X64050099Y-75479956D01*
X64049874Y-75481087D01*
X64025100Y-75605630D01*
X22542988Y-75605630D01*
X22039909Y-74913896D01*
X22001098Y-74860531D01*
X65815400Y-74860531D01*
X65815400Y-74988669D01*
X65821889Y-75021293D01*
X65840399Y-75114342D01*
X65840400Y-75114347D01*
X65889434Y-75232725D01*
X65889438Y-75232733D01*
X65932265Y-75296826D01*
X65960624Y-75339269D01*
X66051231Y-75429876D01*
X66114748Y-75472317D01*
X66157766Y-75501061D01*
X66157770Y-75501063D01*
X66157773Y-75501065D01*
X66276156Y-75550101D01*
X66401831Y-75575100D01*
X66401832Y-75575100D01*
X66529968Y-75575100D01*
X66529969Y-75575100D01*
X66655644Y-75550101D01*
X66774027Y-75501065D01*
X66880569Y-75429876D01*
X66971176Y-75339269D01*
X67042365Y-75232727D01*
X67091401Y-75114344D01*
X67116400Y-74988669D01*
X67116400Y-74860531D01*
X67091401Y-74734856D01*
X67042365Y-74616473D01*
X67042363Y-74616470D01*
X67042361Y-74616466D01*
X67013617Y-74573448D01*
X66971176Y-74509931D01*
X66880569Y-74419324D01*
X66838126Y-74390965D01*
X66774033Y-74348138D01*
X66774025Y-74348134D01*
X66655647Y-74299100D01*
X66655645Y-74299099D01*
X66655644Y-74299099D01*
X66529969Y-74274100D01*
X66401831Y-74274100D01*
X66401830Y-74274100D01*
X66338993Y-74286599D01*
X66276156Y-74299099D01*
X66276155Y-74299099D01*
X66276152Y-74299100D01*
X66157774Y-74348134D01*
X66157766Y-74348138D01*
X66051231Y-74419324D01*
X66051227Y-74419327D01*
X65960627Y-74509927D01*
X65960624Y-74509931D01*
X65889438Y-74616466D01*
X65889434Y-74616474D01*
X65840400Y-74734852D01*
X65840399Y-74734855D01*
X65840399Y-74734856D01*
X65815400Y-74860531D01*
X22001098Y-74860531D01*
X21694326Y-74438720D01*
X21489968Y-74157728D01*
X21471034Y-74099547D01*
X21489914Y-74041348D01*
X21539396Y-74005360D01*
X21570034Y-74000500D01*
X30579656Y-74000500D01*
X30617541Y-74008036D01*
X30693536Y-74039513D01*
X30766503Y-74069737D01*
X30921158Y-74100500D01*
X30921159Y-74100500D01*
X31078841Y-74100500D01*
X31078842Y-74100500D01*
X31233497Y-74069737D01*
X31379179Y-74009394D01*
X31510289Y-73921789D01*
X31621789Y-73810289D01*
X31709394Y-73679179D01*
X31769737Y-73533497D01*
X31800500Y-73378842D01*
X31800500Y-73221158D01*
X31769737Y-73066503D01*
X31709394Y-72920821D01*
X31709393Y-72920819D01*
X31709390Y-72920814D01*
X31674017Y-72867876D01*
X31621789Y-72789711D01*
X31510289Y-72678211D01*
X31432783Y-72626423D01*
X31379185Y-72590609D01*
X31379174Y-72590603D01*
X31233497Y-72530263D01*
X31078844Y-72499500D01*
X31078842Y-72499500D01*
X30921158Y-72499500D01*
X30921155Y-72499500D01*
X30766503Y-72530263D01*
X30766501Y-72530263D01*
X30617541Y-72591964D01*
X30579656Y-72599500D01*
X20062725Y-72599500D01*
X20047284Y-72598288D01*
X20043931Y-72597758D01*
X20041103Y-72597312D01*
X20041102Y-72597312D01*
X20003409Y-72598810D01*
X19988043Y-72599422D01*
X19984110Y-72599500D01*
X19931006Y-72599500D01*
X19931003Y-72599500D01*
X19930995Y-72599501D01*
X19924852Y-72600723D01*
X19909488Y-72602545D01*
X19903230Y-72602794D01*
X19903225Y-72602795D01*
X19851602Y-72615214D01*
X19847762Y-72616057D01*
X19795679Y-72626418D01*
X19795661Y-72626423D01*
X19789866Y-72628823D01*
X19775165Y-72633604D01*
X19769064Y-72635072D01*
X19720848Y-72657327D01*
X19717262Y-72658897D01*
X19698239Y-72666777D01*
X19668190Y-72679224D01*
X19668183Y-72679228D01*
X19662962Y-72682716D01*
X19649476Y-72690272D01*
X19643786Y-72692899D01*
X19600852Y-72724123D01*
X19597626Y-72726372D01*
X19553458Y-72755884D01*
X19549021Y-72760321D01*
X19537257Y-72770374D01*
X19532189Y-72774059D01*
X19532185Y-72774063D01*
X19496172Y-72813057D01*
X19493449Y-72815892D01*
X17309507Y-74999834D01*
X17277391Y-75021293D01*
X17244506Y-75034914D01*
X17121585Y-75117048D01*
X17017048Y-75221585D01*
X16934915Y-75344506D01*
X16878342Y-75481085D01*
X16849500Y-75626081D01*
X600000Y-75626081D01*
X600000Y-68331893D01*
X79099500Y-68331893D01*
X79099500Y-69668106D01*
X79110123Y-69756565D01*
X79165637Y-69897339D01*
X79165638Y-69897341D01*
X79165639Y-69897342D01*
X79257078Y-70017922D01*
X79377658Y-70109361D01*
X79377659Y-70109361D01*
X79377660Y-70109362D01*
X79448047Y-70137119D01*
X79518436Y-70164877D01*
X79606898Y-70175500D01*
X79606900Y-70175500D01*
X80393100Y-70175500D01*
X80393102Y-70175500D01*
X80481564Y-70164877D01*
X80622342Y-70109361D01*
X80742922Y-70017922D01*
X80834361Y-69897342D01*
X80889877Y-69756564D01*
X80900500Y-69668102D01*
X80900500Y-68636306D01*
X81099500Y-68636306D01*
X81099500Y-69363693D01*
X81134106Y-69537665D01*
X81134106Y-69537667D01*
X81201985Y-69701544D01*
X81201985Y-69701545D01*
X81238748Y-69756564D01*
X81300536Y-69849035D01*
X81425965Y-69974464D01*
X81573453Y-70073013D01*
X81737334Y-70140894D01*
X81911309Y-70175500D01*
X81911310Y-70175500D01*
X82088690Y-70175500D01*
X82088691Y-70175500D01*
X82262666Y-70140894D01*
X82426547Y-70073013D01*
X82574035Y-69974464D01*
X82699464Y-69849035D01*
X82798013Y-69701547D01*
X82865894Y-69537666D01*
X82900500Y-69363691D01*
X82900500Y-68636309D01*
X82865894Y-68462334D01*
X82798014Y-68298455D01*
X82798014Y-68298454D01*
X82699464Y-68150965D01*
X82574034Y-68025535D01*
X82426544Y-67926985D01*
X82262666Y-67859106D01*
X82088693Y-67824500D01*
X82088691Y-67824500D01*
X81911309Y-67824500D01*
X81911306Y-67824500D01*
X81737334Y-67859106D01*
X81737332Y-67859106D01*
X81573455Y-67926985D01*
X81573454Y-67926985D01*
X81425965Y-68025535D01*
X81300535Y-68150965D01*
X81201985Y-68298454D01*
X81201985Y-68298455D01*
X81134106Y-68462332D01*
X81134106Y-68462334D01*
X81099500Y-68636306D01*
X80900500Y-68636306D01*
X80900500Y-68331898D01*
X80889877Y-68243436D01*
X80834361Y-68102658D01*
X80742922Y-67982078D01*
X80622342Y-67890639D01*
X80622341Y-67890638D01*
X80622339Y-67890637D01*
X80481565Y-67835123D01*
X80393106Y-67824500D01*
X80393102Y-67824500D01*
X79606898Y-67824500D01*
X79606893Y-67824500D01*
X79518434Y-67835123D01*
X79377660Y-67890637D01*
X79377656Y-67890640D01*
X79257081Y-67982075D01*
X79257075Y-67982081D01*
X79165640Y-68102656D01*
X79165637Y-68102660D01*
X79110123Y-68243434D01*
X79099500Y-68331893D01*
X600000Y-68331893D01*
X600000Y-65926082D01*
X45112000Y-65926082D01*
X45112000Y-66073918D01*
X45140842Y-66218913D01*
X45197416Y-66355495D01*
X45279549Y-66478416D01*
X45384084Y-66582951D01*
X45507005Y-66665084D01*
X45643587Y-66721658D01*
X45788582Y-66750500D01*
X45788583Y-66750500D01*
X45936417Y-66750500D01*
X45936418Y-66750500D01*
X46081413Y-66721658D01*
X46217995Y-66665084D01*
X46286172Y-66619530D01*
X93835400Y-66619530D01*
X93835400Y-66747669D01*
X93860399Y-66873342D01*
X93860400Y-66873347D01*
X93909434Y-66991725D01*
X93909438Y-66991733D01*
X93952265Y-67055826D01*
X93980624Y-67098269D01*
X94071231Y-67188876D01*
X94134748Y-67231317D01*
X94177766Y-67260061D01*
X94177770Y-67260063D01*
X94177773Y-67260065D01*
X94296156Y-67309101D01*
X94421831Y-67334100D01*
X94421832Y-67334100D01*
X94549968Y-67334100D01*
X94549969Y-67334100D01*
X94675644Y-67309101D01*
X94794027Y-67260065D01*
X94900569Y-67188876D01*
X94991176Y-67098269D01*
X95062365Y-66991727D01*
X95111401Y-66873344D01*
X95136400Y-66747669D01*
X95136400Y-66619531D01*
X95111401Y-66493856D01*
X95062365Y-66375473D01*
X95062363Y-66375470D01*
X95062361Y-66375466D01*
X95033617Y-66332448D01*
X94991176Y-66268931D01*
X94900569Y-66178324D01*
X94858126Y-66149965D01*
X94794033Y-66107138D01*
X94794025Y-66107134D01*
X94675647Y-66058100D01*
X94675645Y-66058099D01*
X94675644Y-66058099D01*
X94549969Y-66033100D01*
X94421831Y-66033100D01*
X94421830Y-66033100D01*
X94358993Y-66045599D01*
X94296156Y-66058099D01*
X94296155Y-66058099D01*
X94296152Y-66058100D01*
X94177774Y-66107134D01*
X94177766Y-66107138D01*
X94071231Y-66178324D01*
X94071227Y-66178327D01*
X93980627Y-66268927D01*
X93980624Y-66268931D01*
X93909438Y-66375466D01*
X93909434Y-66375474D01*
X93860400Y-66493852D01*
X93860399Y-66493857D01*
X93835400Y-66619530D01*
X46286172Y-66619530D01*
X46340916Y-66582951D01*
X46445451Y-66478416D01*
X46527584Y-66355495D01*
X46584158Y-66218913D01*
X46613000Y-66073918D01*
X46613000Y-65926082D01*
X46584158Y-65781087D01*
X46527584Y-65644505D01*
X46445451Y-65521584D01*
X46340916Y-65417049D01*
X46217995Y-65334916D01*
X46217993Y-65334915D01*
X46081414Y-65278342D01*
X45936418Y-65249500D01*
X45788582Y-65249500D01*
X45788581Y-65249500D01*
X45643585Y-65278342D01*
X45507006Y-65334915D01*
X45384085Y-65417048D01*
X45279548Y-65521585D01*
X45197415Y-65644506D01*
X45140842Y-65781085D01*
X45140842Y-65781087D01*
X45112000Y-65926082D01*
X600000Y-65926082D01*
X600000Y-63808930D01*
X39518200Y-63808930D01*
X39518200Y-63937069D01*
X39543199Y-64062742D01*
X39543200Y-64062747D01*
X39592234Y-64181125D01*
X39592238Y-64181133D01*
X39635065Y-64245226D01*
X39663424Y-64287669D01*
X39754031Y-64378276D01*
X39817548Y-64420717D01*
X39860566Y-64449461D01*
X39860570Y-64449463D01*
X39860573Y-64449465D01*
X39978956Y-64498501D01*
X40104631Y-64523500D01*
X40104632Y-64523500D01*
X40232768Y-64523500D01*
X40232769Y-64523500D01*
X40358444Y-64498501D01*
X40476827Y-64449465D01*
X40583369Y-64378276D01*
X40673976Y-64287669D01*
X40745165Y-64181127D01*
X40794201Y-64062744D01*
X40819200Y-63937069D01*
X40819200Y-63808931D01*
X40794201Y-63683256D01*
X40745165Y-63564873D01*
X40745163Y-63564870D01*
X40745161Y-63564866D01*
X40716417Y-63521848D01*
X40673976Y-63458331D01*
X40583369Y-63367724D01*
X40540926Y-63339365D01*
X40476833Y-63296538D01*
X40476825Y-63296534D01*
X40358447Y-63247500D01*
X40358445Y-63247499D01*
X40358444Y-63247499D01*
X40232769Y-63222500D01*
X40104631Y-63222500D01*
X40104630Y-63222500D01*
X40041793Y-63234999D01*
X39978956Y-63247499D01*
X39978955Y-63247499D01*
X39978952Y-63247500D01*
X39860574Y-63296534D01*
X39860566Y-63296538D01*
X39754031Y-63367724D01*
X39754027Y-63367727D01*
X39663427Y-63458327D01*
X39663424Y-63458331D01*
X39592238Y-63564866D01*
X39592234Y-63564874D01*
X39543200Y-63683252D01*
X39543199Y-63683257D01*
X39518200Y-63808930D01*
X600000Y-63808930D01*
X600000Y-62883931D01*
X103995700Y-62883931D01*
X103995700Y-63012069D01*
X104014518Y-63106672D01*
X104020699Y-63137742D01*
X104020700Y-63137747D01*
X104069734Y-63256125D01*
X104069738Y-63256133D01*
X104110742Y-63317499D01*
X104140924Y-63362669D01*
X104231531Y-63453276D01*
X104295048Y-63495717D01*
X104338066Y-63524461D01*
X104338070Y-63524463D01*
X104338073Y-63524465D01*
X104456456Y-63573501D01*
X104582131Y-63598500D01*
X104582132Y-63598500D01*
X104710268Y-63598500D01*
X104710269Y-63598500D01*
X104835944Y-63573501D01*
X104954327Y-63524465D01*
X105060869Y-63453276D01*
X105151476Y-63362669D01*
X105222665Y-63256127D01*
X105271701Y-63137744D01*
X105296700Y-63012069D01*
X105296700Y-62883931D01*
X105271701Y-62758256D01*
X105222665Y-62639873D01*
X105222663Y-62639870D01*
X105222661Y-62639866D01*
X105193917Y-62596848D01*
X105151476Y-62533331D01*
X105060869Y-62442724D01*
X105018426Y-62414365D01*
X104954333Y-62371538D01*
X104954325Y-62371534D01*
X104835947Y-62322500D01*
X104835945Y-62322499D01*
X104835944Y-62322499D01*
X104710269Y-62297500D01*
X104582131Y-62297500D01*
X104582130Y-62297500D01*
X104519293Y-62309999D01*
X104456456Y-62322499D01*
X104456455Y-62322499D01*
X104456452Y-62322500D01*
X104338074Y-62371534D01*
X104338066Y-62371538D01*
X104231531Y-62442724D01*
X104231527Y-62442727D01*
X104140927Y-62533327D01*
X104140924Y-62533331D01*
X104069738Y-62639866D01*
X104069734Y-62639874D01*
X104020700Y-62758252D01*
X104020699Y-62758255D01*
X104020699Y-62758256D01*
X103995700Y-62883931D01*
X600000Y-62883931D01*
X600000Y-59926631D01*
X38707600Y-59926631D01*
X38707600Y-60054769D01*
X38726604Y-60150307D01*
X38732599Y-60180442D01*
X38732600Y-60180447D01*
X38781634Y-60298825D01*
X38781638Y-60298833D01*
X38803400Y-60331401D01*
X38852824Y-60405369D01*
X38943431Y-60495976D01*
X39006948Y-60538417D01*
X39049966Y-60567161D01*
X39049970Y-60567163D01*
X39049973Y-60567165D01*
X39168356Y-60616201D01*
X39294031Y-60641200D01*
X39294032Y-60641200D01*
X39422168Y-60641200D01*
X39422169Y-60641200D01*
X39547844Y-60616201D01*
X39666227Y-60567165D01*
X39772769Y-60495976D01*
X39863376Y-60405369D01*
X39934565Y-60298827D01*
X39983601Y-60180444D01*
X40008600Y-60054769D01*
X40008600Y-59926631D01*
X39983601Y-59800956D01*
X39934565Y-59682573D01*
X39934564Y-59682571D01*
X39934563Y-59682568D01*
X39907342Y-59641830D01*
X90725200Y-59641830D01*
X90725200Y-59769969D01*
X90750199Y-59895642D01*
X90750200Y-59895647D01*
X90799234Y-60014025D01*
X90799238Y-60014033D01*
X90826458Y-60054769D01*
X90870424Y-60120569D01*
X90961031Y-60211176D01*
X91024548Y-60253617D01*
X91067566Y-60282361D01*
X91067570Y-60282363D01*
X91067573Y-60282365D01*
X91185956Y-60331401D01*
X91311631Y-60356400D01*
X91311632Y-60356400D01*
X91439768Y-60356400D01*
X91439769Y-60356400D01*
X91565444Y-60331401D01*
X91683827Y-60282365D01*
X91790369Y-60211176D01*
X91841149Y-60160396D01*
X91895666Y-60132619D01*
X91911153Y-60131400D01*
X111745744Y-60131400D01*
X111803935Y-60150307D01*
X111815748Y-60160396D01*
X114269604Y-62614252D01*
X114297381Y-62668769D01*
X114298600Y-62684256D01*
X114298600Y-62756069D01*
X114323599Y-62881742D01*
X114323600Y-62881747D01*
X114372634Y-63000125D01*
X114372638Y-63000133D01*
X114380614Y-63012069D01*
X114443824Y-63106669D01*
X114534431Y-63197276D01*
X114597948Y-63239717D01*
X114640966Y-63268461D01*
X114640970Y-63268463D01*
X114640973Y-63268465D01*
X114759356Y-63317501D01*
X114885031Y-63342500D01*
X114885032Y-63342500D01*
X115013168Y-63342500D01*
X115013169Y-63342500D01*
X115138844Y-63317501D01*
X115257227Y-63268465D01*
X115363769Y-63197276D01*
X115454376Y-63106669D01*
X115525565Y-63000127D01*
X115574601Y-62881744D01*
X115599600Y-62756069D01*
X115599600Y-62627931D01*
X115574601Y-62502256D01*
X115525565Y-62383873D01*
X115525563Y-62383870D01*
X115525561Y-62383866D01*
X115467852Y-62297500D01*
X115454376Y-62277331D01*
X115363769Y-62186724D01*
X115321326Y-62158365D01*
X115257233Y-62115538D01*
X115257225Y-62115534D01*
X115138847Y-62066500D01*
X115138845Y-62066499D01*
X115138844Y-62066499D01*
X115013169Y-62041500D01*
X114941356Y-62041500D01*
X114883165Y-62022593D01*
X114871352Y-62012504D01*
X112224263Y-59365415D01*
X112223889Y-59365199D01*
X112127240Y-59309398D01*
X112127242Y-59309398D01*
X112085251Y-59298147D01*
X112019018Y-59280400D01*
X112019016Y-59280400D01*
X91911153Y-59280400D01*
X91852962Y-59261493D01*
X91841149Y-59251404D01*
X91790372Y-59200627D01*
X91790369Y-59200624D01*
X91747926Y-59172265D01*
X91683833Y-59129438D01*
X91683825Y-59129434D01*
X91565447Y-59080400D01*
X91565445Y-59080399D01*
X91565444Y-59080399D01*
X91439769Y-59055400D01*
X91311631Y-59055400D01*
X91311630Y-59055400D01*
X91248793Y-59067899D01*
X91185956Y-59080399D01*
X91185955Y-59080399D01*
X91185952Y-59080400D01*
X91067574Y-59129434D01*
X91067566Y-59129438D01*
X90961031Y-59200624D01*
X90961027Y-59200627D01*
X90870427Y-59291227D01*
X90870424Y-59291231D01*
X90799238Y-59397766D01*
X90799234Y-59397774D01*
X90750200Y-59516152D01*
X90750199Y-59516157D01*
X90725200Y-59641830D01*
X39907342Y-59641830D01*
X39893785Y-59621542D01*
X39863376Y-59576031D01*
X39772769Y-59485424D01*
X39730326Y-59457065D01*
X39666233Y-59414238D01*
X39666225Y-59414234D01*
X39547847Y-59365200D01*
X39547845Y-59365199D01*
X39547844Y-59365199D01*
X39422169Y-59340200D01*
X39294031Y-59340200D01*
X39294030Y-59340200D01*
X39231193Y-59352699D01*
X39168356Y-59365199D01*
X39168355Y-59365199D01*
X39168352Y-59365200D01*
X39049974Y-59414234D01*
X39049966Y-59414238D01*
X38943431Y-59485424D01*
X38943427Y-59485427D01*
X38852827Y-59576027D01*
X38852824Y-59576031D01*
X38781638Y-59682566D01*
X38781634Y-59682574D01*
X38732600Y-59800952D01*
X38732599Y-59800955D01*
X38732599Y-59800956D01*
X38707600Y-59926631D01*
X600000Y-59926631D01*
X600000Y-58195931D01*
X19147900Y-58195931D01*
X19147900Y-58324069D01*
X19168202Y-58426133D01*
X19172899Y-58449742D01*
X19172900Y-58449747D01*
X19221934Y-58568125D01*
X19221938Y-58568133D01*
X19251116Y-58611800D01*
X19293124Y-58674669D01*
X19383731Y-58765276D01*
X19447248Y-58807717D01*
X19490266Y-58836461D01*
X19490270Y-58836463D01*
X19490273Y-58836465D01*
X19608656Y-58885501D01*
X19734331Y-58910500D01*
X19734332Y-58910500D01*
X19862468Y-58910500D01*
X19862469Y-58910500D01*
X19988144Y-58885501D01*
X20106527Y-58836465D01*
X20213069Y-58765276D01*
X20303676Y-58674669D01*
X20374865Y-58568127D01*
X20423901Y-58449744D01*
X20448900Y-58324069D01*
X20448900Y-58195931D01*
X20423901Y-58070256D01*
X20417139Y-58053931D01*
X68509700Y-58053931D01*
X68509700Y-58182069D01*
X68532051Y-58294433D01*
X68534699Y-58307742D01*
X68534700Y-58307747D01*
X68583734Y-58426125D01*
X68583738Y-58426133D01*
X68599515Y-58449744D01*
X68654924Y-58532669D01*
X68745531Y-58623276D01*
X68786275Y-58650500D01*
X68852066Y-58694461D01*
X68852070Y-58694463D01*
X68852073Y-58694465D01*
X68970456Y-58743501D01*
X69096131Y-58768500D01*
X69096132Y-58768500D01*
X69224268Y-58768500D01*
X69224269Y-58768500D01*
X69349944Y-58743501D01*
X69468327Y-58694465D01*
X69574869Y-58623276D01*
X69625649Y-58572496D01*
X69680166Y-58544719D01*
X69695653Y-58543500D01*
X84792106Y-58543500D01*
X84847108Y-58560185D01*
X84871473Y-58576465D01*
X84989856Y-58625501D01*
X85115531Y-58650500D01*
X85115532Y-58650500D01*
X85243668Y-58650500D01*
X85243669Y-58650500D01*
X85369344Y-58625501D01*
X85487727Y-58576465D01*
X85594269Y-58505276D01*
X85684876Y-58414669D01*
X85756065Y-58308127D01*
X85805101Y-58189744D01*
X85830100Y-58064069D01*
X85830100Y-57935931D01*
X85827375Y-57922230D01*
X93325400Y-57922230D01*
X93325400Y-58050369D01*
X93350399Y-58176042D01*
X93350400Y-58176047D01*
X93399434Y-58294425D01*
X93399438Y-58294433D01*
X93440242Y-58355499D01*
X93470624Y-58400969D01*
X93561231Y-58491576D01*
X93622730Y-58532668D01*
X93667766Y-58562761D01*
X93667770Y-58562763D01*
X93667773Y-58562765D01*
X93786156Y-58611801D01*
X93911831Y-58636800D01*
X93911832Y-58636800D01*
X94039968Y-58636800D01*
X94039969Y-58636800D01*
X94165644Y-58611801D01*
X94284027Y-58562765D01*
X94390569Y-58491576D01*
X94481176Y-58400969D01*
X94552365Y-58294427D01*
X94601401Y-58176044D01*
X94626400Y-58050369D01*
X94626400Y-57922231D01*
X94601401Y-57796556D01*
X94552365Y-57678173D01*
X94552361Y-57678166D01*
X94527480Y-57640930D01*
X104999000Y-57640930D01*
X104999000Y-57769069D01*
X105023999Y-57894742D01*
X105024000Y-57894747D01*
X105073034Y-58013125D01*
X105073038Y-58013133D01*
X105100299Y-58053931D01*
X105144224Y-58119669D01*
X105234831Y-58210276D01*
X105298348Y-58252717D01*
X105341366Y-58281461D01*
X105341370Y-58281463D01*
X105341373Y-58281465D01*
X105459756Y-58330501D01*
X105585431Y-58355500D01*
X105585432Y-58355500D01*
X105713568Y-58355500D01*
X105713569Y-58355500D01*
X105839244Y-58330501D01*
X105957627Y-58281465D01*
X106064169Y-58210276D01*
X106154776Y-58119669D01*
X106225965Y-58013127D01*
X106275001Y-57894744D01*
X106300000Y-57769069D01*
X106300000Y-57640931D01*
X106275001Y-57515256D01*
X106225965Y-57396873D01*
X106225963Y-57396870D01*
X106225961Y-57396866D01*
X106185157Y-57335800D01*
X106154776Y-57290331D01*
X106064169Y-57199724D01*
X106008910Y-57162801D01*
X105957633Y-57128538D01*
X105957625Y-57128534D01*
X105839247Y-57079500D01*
X105839245Y-57079499D01*
X105839244Y-57079499D01*
X105713569Y-57054500D01*
X105585431Y-57054500D01*
X105585430Y-57054500D01*
X105522593Y-57066999D01*
X105459756Y-57079499D01*
X105459755Y-57079499D01*
X105459752Y-57079500D01*
X105341374Y-57128534D01*
X105341366Y-57128538D01*
X105234831Y-57199724D01*
X105234827Y-57199727D01*
X105144227Y-57290327D01*
X105144224Y-57290331D01*
X105073038Y-57396866D01*
X105073034Y-57396874D01*
X105024000Y-57515252D01*
X105023999Y-57515257D01*
X104999000Y-57640930D01*
X94527480Y-57640930D01*
X94506479Y-57609500D01*
X94481176Y-57571631D01*
X94390569Y-57481024D01*
X94348126Y-57452665D01*
X94284033Y-57409838D01*
X94284025Y-57409834D01*
X94165647Y-57360800D01*
X94165645Y-57360799D01*
X94165644Y-57360799D01*
X94039969Y-57335800D01*
X93911831Y-57335800D01*
X93911830Y-57335800D01*
X93848993Y-57348299D01*
X93786156Y-57360799D01*
X93786155Y-57360799D01*
X93786152Y-57360800D01*
X93667774Y-57409834D01*
X93667766Y-57409838D01*
X93561231Y-57481024D01*
X93561227Y-57481027D01*
X93470627Y-57571627D01*
X93470624Y-57571631D01*
X93399438Y-57678166D01*
X93399434Y-57678174D01*
X93350400Y-57796552D01*
X93350399Y-57796555D01*
X93350399Y-57796556D01*
X93340698Y-57845327D01*
X93325400Y-57922230D01*
X85827375Y-57922230D01*
X85805101Y-57810256D01*
X85756065Y-57691873D01*
X85756063Y-57691870D01*
X85756061Y-57691866D01*
X85722026Y-57640930D01*
X85684876Y-57585331D01*
X85594269Y-57494724D01*
X85551279Y-57465999D01*
X85487733Y-57423538D01*
X85487725Y-57423534D01*
X85369347Y-57374500D01*
X85369345Y-57374499D01*
X85369344Y-57374499D01*
X85243669Y-57349500D01*
X85115531Y-57349500D01*
X85115530Y-57349500D01*
X85058729Y-57360799D01*
X84989856Y-57374499D01*
X84989855Y-57374499D01*
X84989852Y-57374500D01*
X84871474Y-57423534D01*
X84871466Y-57423538D01*
X84764931Y-57494724D01*
X84764927Y-57494727D01*
X84674327Y-57585327D01*
X84674320Y-57585335D01*
X84632115Y-57648501D01*
X84584066Y-57686381D01*
X84549800Y-57692500D01*
X69695653Y-57692500D01*
X69637462Y-57673593D01*
X69625649Y-57663504D01*
X69574872Y-57612727D01*
X69574869Y-57612724D01*
X69513363Y-57571627D01*
X69468333Y-57541538D01*
X69468325Y-57541534D01*
X69349947Y-57492500D01*
X69349945Y-57492499D01*
X69349944Y-57492499D01*
X69224269Y-57467500D01*
X69096131Y-57467500D01*
X69096130Y-57467500D01*
X69033293Y-57479999D01*
X68970456Y-57492499D01*
X68970455Y-57492499D01*
X68970452Y-57492500D01*
X68852074Y-57541534D01*
X68852066Y-57541538D01*
X68745531Y-57612724D01*
X68745527Y-57612727D01*
X68654927Y-57703327D01*
X68654924Y-57703331D01*
X68583738Y-57809866D01*
X68583734Y-57809874D01*
X68534700Y-57928252D01*
X68534699Y-57928257D01*
X68510409Y-58050369D01*
X68509700Y-58053931D01*
X20417139Y-58053931D01*
X20374865Y-57951873D01*
X20374863Y-57951870D01*
X20374861Y-57951866D01*
X20346117Y-57908848D01*
X20303676Y-57845331D01*
X20213069Y-57754724D01*
X20170626Y-57726365D01*
X20106533Y-57683538D01*
X20106525Y-57683534D01*
X19988147Y-57634500D01*
X19988145Y-57634499D01*
X19988144Y-57634499D01*
X19862469Y-57609500D01*
X19734331Y-57609500D01*
X19734330Y-57609500D01*
X19671493Y-57621999D01*
X19608656Y-57634499D01*
X19608655Y-57634499D01*
X19608652Y-57634500D01*
X19490274Y-57683534D01*
X19490266Y-57683538D01*
X19383731Y-57754724D01*
X19383727Y-57754727D01*
X19293127Y-57845327D01*
X19293124Y-57845331D01*
X19221938Y-57951866D01*
X19221934Y-57951874D01*
X19172900Y-58070252D01*
X19172899Y-58070255D01*
X19172899Y-58070256D01*
X19147900Y-58195931D01*
X600000Y-58195931D01*
X600000Y-56776430D01*
X10604300Y-56776430D01*
X10604300Y-56904569D01*
X10629299Y-57030242D01*
X10629300Y-57030247D01*
X10678334Y-57148625D01*
X10678338Y-57148633D01*
X10712477Y-57199724D01*
X10749524Y-57255169D01*
X10840131Y-57345776D01*
X10883120Y-57374500D01*
X10946666Y-57416961D01*
X10946670Y-57416963D01*
X10946673Y-57416965D01*
X11065056Y-57466001D01*
X11190731Y-57491000D01*
X11190732Y-57491000D01*
X11318868Y-57491000D01*
X11318869Y-57491000D01*
X11444544Y-57466001D01*
X11562927Y-57416965D01*
X11669469Y-57345776D01*
X11760076Y-57255169D01*
X11831265Y-57148627D01*
X11880301Y-57030244D01*
X11905300Y-56904569D01*
X11905300Y-56776431D01*
X11880301Y-56650756D01*
X11831265Y-56532373D01*
X11831263Y-56532370D01*
X11831261Y-56532366D01*
X11791748Y-56473232D01*
X11791747Y-56473230D01*
X93725100Y-56473230D01*
X93725100Y-56601369D01*
X93750099Y-56727042D01*
X93750100Y-56727047D01*
X93799134Y-56845425D01*
X93799138Y-56845433D01*
X93838651Y-56904567D01*
X93870324Y-56951969D01*
X93960931Y-57042576D01*
X94016190Y-57079499D01*
X94067466Y-57113761D01*
X94067470Y-57113763D01*
X94067473Y-57113765D01*
X94185856Y-57162801D01*
X94311531Y-57187800D01*
X94311532Y-57187800D01*
X94439668Y-57187800D01*
X94439669Y-57187800D01*
X94565344Y-57162801D01*
X94683727Y-57113765D01*
X94790269Y-57042576D01*
X94880876Y-56951969D01*
X94952065Y-56845427D01*
X95001101Y-56727044D01*
X95026100Y-56601369D01*
X95026100Y-56473231D01*
X95001101Y-56347556D01*
X94952065Y-56229173D01*
X94952063Y-56229170D01*
X94952061Y-56229166D01*
X94923317Y-56186148D01*
X94880876Y-56122631D01*
X94790269Y-56032024D01*
X94747826Y-56003665D01*
X94683733Y-55960838D01*
X94683725Y-55960834D01*
X94565347Y-55911800D01*
X94565345Y-55911799D01*
X94565344Y-55911799D01*
X94439669Y-55886800D01*
X94311531Y-55886800D01*
X94311530Y-55886800D01*
X94248693Y-55899299D01*
X94185856Y-55911799D01*
X94185855Y-55911799D01*
X94185852Y-55911800D01*
X94067474Y-55960834D01*
X94067466Y-55960838D01*
X93960931Y-56032024D01*
X93960927Y-56032027D01*
X93870327Y-56122627D01*
X93870324Y-56122631D01*
X93799138Y-56229166D01*
X93799134Y-56229174D01*
X93750100Y-56347552D01*
X93750099Y-56347557D01*
X93725100Y-56473230D01*
X11791747Y-56473230D01*
X11760076Y-56425831D01*
X11669469Y-56335224D01*
X11611456Y-56296461D01*
X11562933Y-56264038D01*
X11562925Y-56264034D01*
X11444547Y-56215000D01*
X11444545Y-56214999D01*
X11444544Y-56214999D01*
X11318869Y-56190000D01*
X11190731Y-56190000D01*
X11190730Y-56190000D01*
X11127893Y-56202499D01*
X11065056Y-56214999D01*
X11065055Y-56214999D01*
X11065052Y-56215000D01*
X10946674Y-56264034D01*
X10946666Y-56264038D01*
X10840131Y-56335224D01*
X10840127Y-56335227D01*
X10749527Y-56425827D01*
X10749524Y-56425831D01*
X10678338Y-56532366D01*
X10678334Y-56532374D01*
X10629300Y-56650752D01*
X10629299Y-56650757D01*
X10604300Y-56776430D01*
X600000Y-56776430D01*
X600000Y-55655930D01*
X19133800Y-55655930D01*
X19133800Y-55784069D01*
X19158799Y-55909742D01*
X19158800Y-55909747D01*
X19207834Y-56028125D01*
X19207838Y-56028133D01*
X19250665Y-56092226D01*
X19279024Y-56134669D01*
X19369631Y-56225276D01*
X19427637Y-56264034D01*
X19476166Y-56296461D01*
X19476170Y-56296463D01*
X19476173Y-56296465D01*
X19594556Y-56345501D01*
X19720231Y-56370500D01*
X19720232Y-56370500D01*
X19848368Y-56370500D01*
X19848369Y-56370500D01*
X19974044Y-56345501D01*
X20092427Y-56296465D01*
X20198969Y-56225276D01*
X20289576Y-56134669D01*
X20360765Y-56028127D01*
X20409801Y-55909744D01*
X20434800Y-55784069D01*
X20434800Y-55655931D01*
X20409801Y-55530256D01*
X20360765Y-55411873D01*
X20360763Y-55411870D01*
X20360761Y-55411866D01*
X20332017Y-55368848D01*
X20289576Y-55305331D01*
X20198969Y-55214724D01*
X20156526Y-55186365D01*
X20092433Y-55143538D01*
X20092425Y-55143534D01*
X19974047Y-55094500D01*
X19974045Y-55094499D01*
X19974044Y-55094499D01*
X19848369Y-55069500D01*
X19720231Y-55069500D01*
X19720230Y-55069500D01*
X19657393Y-55081999D01*
X19594556Y-55094499D01*
X19594555Y-55094499D01*
X19594552Y-55094500D01*
X19476174Y-55143534D01*
X19476166Y-55143538D01*
X19369631Y-55214724D01*
X19369627Y-55214727D01*
X19279027Y-55305327D01*
X19279024Y-55305331D01*
X19207838Y-55411866D01*
X19207834Y-55411874D01*
X19158800Y-55530252D01*
X19158799Y-55530257D01*
X19133800Y-55655930D01*
X600000Y-55655930D01*
X600000Y-54385931D01*
X14153000Y-54385931D01*
X14153000Y-54514069D01*
X14169044Y-54594727D01*
X14177999Y-54639742D01*
X14178000Y-54639747D01*
X14227034Y-54758125D01*
X14227038Y-54758133D01*
X14268145Y-54819652D01*
X14298224Y-54864669D01*
X14388831Y-54955276D01*
X14452348Y-54997717D01*
X14495366Y-55026461D01*
X14495370Y-55026463D01*
X14495373Y-55026465D01*
X14613756Y-55075501D01*
X14739431Y-55100500D01*
X14739432Y-55100500D01*
X14867568Y-55100500D01*
X14867569Y-55100500D01*
X14993244Y-55075501D01*
X15111627Y-55026465D01*
X15218169Y-54955276D01*
X15228114Y-54945331D01*
X97553300Y-54945331D01*
X97553300Y-55073469D01*
X97567237Y-55143535D01*
X97578299Y-55199142D01*
X97578300Y-55199147D01*
X97627334Y-55317525D01*
X97627338Y-55317533D01*
X97670165Y-55381626D01*
X97698524Y-55424069D01*
X97789131Y-55514676D01*
X97852648Y-55557117D01*
X97895666Y-55585861D01*
X97895670Y-55585863D01*
X97895673Y-55585865D01*
X98014056Y-55634901D01*
X98139731Y-55659900D01*
X98139732Y-55659900D01*
X98267868Y-55659900D01*
X98267869Y-55659900D01*
X98393544Y-55634901D01*
X98511927Y-55585865D01*
X98618469Y-55514676D01*
X98709076Y-55424069D01*
X98780265Y-55317527D01*
X98829301Y-55199144D01*
X98854300Y-55073469D01*
X98854300Y-54945331D01*
X98829301Y-54819656D01*
X98780265Y-54701273D01*
X98780263Y-54701270D01*
X98780261Y-54701266D01*
X98751517Y-54658248D01*
X98709076Y-54594731D01*
X98618469Y-54504124D01*
X98576026Y-54475765D01*
X98511933Y-54432938D01*
X98511925Y-54432934D01*
X98393547Y-54383900D01*
X98393545Y-54383899D01*
X98393544Y-54383899D01*
X98267869Y-54358900D01*
X98139731Y-54358900D01*
X98139730Y-54358900D01*
X98076893Y-54371399D01*
X98014056Y-54383899D01*
X98014055Y-54383899D01*
X98014052Y-54383900D01*
X97895674Y-54432934D01*
X97895666Y-54432938D01*
X97789131Y-54504124D01*
X97789127Y-54504127D01*
X97698527Y-54594727D01*
X97698524Y-54594731D01*
X97627338Y-54701266D01*
X97627334Y-54701274D01*
X97578300Y-54819652D01*
X97578299Y-54819655D01*
X97578299Y-54819656D01*
X97553300Y-54945331D01*
X15228114Y-54945331D01*
X15308776Y-54864669D01*
X15379965Y-54758127D01*
X15429001Y-54639744D01*
X15454000Y-54514069D01*
X15454000Y-54385931D01*
X15429001Y-54260256D01*
X15379965Y-54141873D01*
X15379963Y-54141870D01*
X15379961Y-54141866D01*
X15351217Y-54098848D01*
X15308776Y-54035331D01*
X15218169Y-53944724D01*
X15175726Y-53916365D01*
X15111633Y-53873538D01*
X15111625Y-53873534D01*
X14993247Y-53824500D01*
X14993245Y-53824499D01*
X14993244Y-53824499D01*
X14867569Y-53799500D01*
X14739431Y-53799500D01*
X14739430Y-53799500D01*
X14676593Y-53811999D01*
X14613756Y-53824499D01*
X14613755Y-53824499D01*
X14613752Y-53824500D01*
X14495374Y-53873534D01*
X14495366Y-53873538D01*
X14388831Y-53944724D01*
X14388827Y-53944727D01*
X14298227Y-54035327D01*
X14298224Y-54035331D01*
X14227038Y-54141866D01*
X14227034Y-54141874D01*
X14178000Y-54260252D01*
X14177999Y-54260255D01*
X14177999Y-54260256D01*
X14153000Y-54385931D01*
X600000Y-54385931D01*
X600000Y-52935931D01*
X85429500Y-52935931D01*
X85429500Y-53064069D01*
X85453382Y-53184131D01*
X85454499Y-53189742D01*
X85454500Y-53189747D01*
X85503534Y-53308125D01*
X85503538Y-53308133D01*
X85546365Y-53372226D01*
X85574724Y-53414669D01*
X85665331Y-53505276D01*
X85728848Y-53547717D01*
X85771866Y-53576461D01*
X85771870Y-53576463D01*
X85771873Y-53576465D01*
X85890256Y-53625501D01*
X86015931Y-53650500D01*
X86015932Y-53650500D01*
X86144068Y-53650500D01*
X86144069Y-53650500D01*
X86269744Y-53625501D01*
X86388127Y-53576465D01*
X86494669Y-53505276D01*
X86585276Y-53414669D01*
X86656465Y-53308127D01*
X86705501Y-53189744D01*
X86706618Y-53184131D01*
X96830700Y-53184131D01*
X96830700Y-53312269D01*
X96851069Y-53414669D01*
X96855699Y-53437942D01*
X96855700Y-53437947D01*
X96904734Y-53556325D01*
X96904738Y-53556333D01*
X96947565Y-53620426D01*
X96975924Y-53662869D01*
X97066531Y-53753476D01*
X97130048Y-53795917D01*
X97173066Y-53824661D01*
X97173070Y-53824663D01*
X97173073Y-53824665D01*
X97291456Y-53873701D01*
X97417131Y-53898700D01*
X97417132Y-53898700D01*
X97545268Y-53898700D01*
X97545269Y-53898700D01*
X97670944Y-53873701D01*
X97789327Y-53824665D01*
X97895869Y-53753476D01*
X97986476Y-53662869D01*
X98057665Y-53556327D01*
X98106701Y-53437944D01*
X98131700Y-53312269D01*
X98131700Y-53184131D01*
X98106701Y-53058456D01*
X98057665Y-52940073D01*
X98057663Y-52940070D01*
X98057661Y-52940066D01*
X98028917Y-52897048D01*
X97986476Y-52833531D01*
X97895869Y-52742924D01*
X97853426Y-52714565D01*
X97789333Y-52671738D01*
X97789325Y-52671734D01*
X97670947Y-52622700D01*
X97670945Y-52622699D01*
X97670944Y-52622699D01*
X97545269Y-52597700D01*
X97417131Y-52597700D01*
X97417130Y-52597700D01*
X97354293Y-52610199D01*
X97291456Y-52622699D01*
X97291455Y-52622699D01*
X97291452Y-52622700D01*
X97173074Y-52671734D01*
X97173066Y-52671738D01*
X97066531Y-52742924D01*
X97066527Y-52742927D01*
X96975927Y-52833527D01*
X96975924Y-52833531D01*
X96904738Y-52940066D01*
X96904734Y-52940074D01*
X96855700Y-53058452D01*
X96855699Y-53058455D01*
X96855699Y-53058456D01*
X96830700Y-53184131D01*
X86706618Y-53184131D01*
X86730500Y-53064069D01*
X86730500Y-52935931D01*
X86705501Y-52810256D01*
X86656465Y-52691873D01*
X86656463Y-52691870D01*
X86656461Y-52691866D01*
X86610244Y-52622699D01*
X86585276Y-52585331D01*
X86494669Y-52494724D01*
X86452226Y-52466365D01*
X86388133Y-52423538D01*
X86388125Y-52423534D01*
X86269747Y-52374500D01*
X86269745Y-52374499D01*
X86269744Y-52374499D01*
X86144069Y-52349500D01*
X86015931Y-52349500D01*
X86015930Y-52349500D01*
X86011582Y-52350365D01*
X85890256Y-52374499D01*
X85890255Y-52374499D01*
X85890252Y-52374500D01*
X85771874Y-52423534D01*
X85771866Y-52423538D01*
X85665331Y-52494724D01*
X85665327Y-52494727D01*
X85574727Y-52585327D01*
X85574724Y-52585331D01*
X85503538Y-52691866D01*
X85503534Y-52691874D01*
X85454500Y-52810252D01*
X85454499Y-52810255D01*
X85454499Y-52810256D01*
X85429500Y-52935931D01*
X600000Y-52935931D01*
X600000Y-51270330D01*
X10015900Y-51270330D01*
X10015900Y-51398469D01*
X10040899Y-51524142D01*
X10040900Y-51524147D01*
X10089934Y-51642525D01*
X10089938Y-51642533D01*
X10132765Y-51706626D01*
X10161124Y-51749069D01*
X10251731Y-51839676D01*
X10315248Y-51882117D01*
X10358266Y-51910861D01*
X10358270Y-51910863D01*
X10358273Y-51910865D01*
X10476656Y-51959901D01*
X10602331Y-51984900D01*
X10602332Y-51984900D01*
X10730468Y-51984900D01*
X10730469Y-51984900D01*
X10856144Y-51959901D01*
X10974527Y-51910865D01*
X11081069Y-51839676D01*
X11171676Y-51749069D01*
X11242865Y-51642527D01*
X11291901Y-51524144D01*
X11316900Y-51398469D01*
X11316900Y-51326656D01*
X11335807Y-51268465D01*
X11345896Y-51256652D01*
X16728418Y-45874130D01*
X48532500Y-45874130D01*
X48532500Y-46002269D01*
X48557499Y-46127942D01*
X48557500Y-46127947D01*
X48606534Y-46246325D01*
X48606538Y-46246333D01*
X48649365Y-46310426D01*
X48677724Y-46352869D01*
X48768331Y-46443476D01*
X48831848Y-46485917D01*
X48874866Y-46514661D01*
X48874870Y-46514663D01*
X48874873Y-46514665D01*
X48993256Y-46563701D01*
X49118931Y-46588700D01*
X49118932Y-46588700D01*
X49247068Y-46588700D01*
X49247069Y-46588700D01*
X49372744Y-46563701D01*
X49491127Y-46514665D01*
X49597669Y-46443476D01*
X49688276Y-46352869D01*
X49759465Y-46246327D01*
X49808501Y-46127944D01*
X49833500Y-46002269D01*
X49833500Y-45874131D01*
X49808501Y-45748456D01*
X49759465Y-45630073D01*
X49759463Y-45630070D01*
X49759461Y-45630066D01*
X49730717Y-45587048D01*
X49688276Y-45523531D01*
X49597669Y-45432924D01*
X49555226Y-45404565D01*
X49491133Y-45361738D01*
X49491125Y-45361734D01*
X49372747Y-45312700D01*
X49372745Y-45312699D01*
X49372744Y-45312699D01*
X49247069Y-45287700D01*
X49118931Y-45287700D01*
X49118930Y-45287700D01*
X49056093Y-45300199D01*
X48993256Y-45312699D01*
X48993255Y-45312699D01*
X48993252Y-45312700D01*
X48874874Y-45361734D01*
X48874866Y-45361738D01*
X48768331Y-45432924D01*
X48768327Y-45432927D01*
X48677727Y-45523527D01*
X48677724Y-45523531D01*
X48606538Y-45630066D01*
X48606534Y-45630074D01*
X48557500Y-45748452D01*
X48557499Y-45748457D01*
X48532500Y-45874130D01*
X16728418Y-45874130D01*
X20106452Y-42496096D01*
X20160969Y-42468319D01*
X20176456Y-42467100D01*
X56935711Y-42467100D01*
X56993902Y-42486007D01*
X57029866Y-42535507D01*
X57032809Y-42585415D01*
X57019100Y-42654330D01*
X57019100Y-42726144D01*
X57000193Y-42784335D01*
X56990104Y-42796148D01*
X48466848Y-51319404D01*
X48412331Y-51347181D01*
X48396844Y-51348400D01*
X14934753Y-51348400D01*
X14876562Y-51329493D01*
X14864749Y-51319404D01*
X14813972Y-51268627D01*
X14813969Y-51268624D01*
X14771526Y-51240265D01*
X14707433Y-51197438D01*
X14707425Y-51197434D01*
X14589047Y-51148400D01*
X14589045Y-51148399D01*
X14589044Y-51148399D01*
X14463369Y-51123400D01*
X14335231Y-51123400D01*
X14335230Y-51123400D01*
X14272393Y-51135899D01*
X14209556Y-51148399D01*
X14209555Y-51148399D01*
X14209552Y-51148400D01*
X14091174Y-51197434D01*
X14091166Y-51197438D01*
X13984631Y-51268624D01*
X13984627Y-51268627D01*
X13894027Y-51359227D01*
X13894024Y-51359231D01*
X13822838Y-51465766D01*
X13822834Y-51465774D01*
X13773800Y-51584152D01*
X13773799Y-51584155D01*
X13773799Y-51584156D01*
X13748800Y-51709831D01*
X13748800Y-51837969D01*
X13773054Y-51959901D01*
X13773799Y-51963642D01*
X13773800Y-51963647D01*
X13822834Y-52082025D01*
X13822838Y-52082033D01*
X13865665Y-52146126D01*
X13894024Y-52188569D01*
X13984631Y-52279176D01*
X14048148Y-52321617D01*
X14091166Y-52350361D01*
X14091170Y-52350363D01*
X14091173Y-52350365D01*
X14209556Y-52399401D01*
X14335231Y-52424400D01*
X14335232Y-52424400D01*
X14463368Y-52424400D01*
X14463369Y-52424400D01*
X14589044Y-52399401D01*
X14707427Y-52350365D01*
X14813969Y-52279176D01*
X14864749Y-52228396D01*
X14919266Y-52200619D01*
X14934753Y-52199400D01*
X48670116Y-52199400D01*
X48670118Y-52199400D01*
X48778337Y-52170403D01*
X48778339Y-52170401D01*
X48778341Y-52170401D01*
X48807164Y-52153759D01*
X48875363Y-52114385D01*
X53053818Y-47935930D01*
X81271600Y-47935930D01*
X81271600Y-48064069D01*
X81296599Y-48189742D01*
X81296600Y-48189747D01*
X81345634Y-48308125D01*
X81345638Y-48308133D01*
X81388465Y-48372226D01*
X81416824Y-48414669D01*
X81507431Y-48505276D01*
X81570948Y-48547717D01*
X81613966Y-48576461D01*
X81613970Y-48576463D01*
X81613973Y-48576465D01*
X81732356Y-48625501D01*
X81858031Y-48650500D01*
X81858032Y-48650500D01*
X81986168Y-48650500D01*
X81986169Y-48650500D01*
X82111844Y-48625501D01*
X82230227Y-48576465D01*
X82336769Y-48505276D01*
X82427376Y-48414669D01*
X82498565Y-48308127D01*
X82547601Y-48189744D01*
X82572600Y-48064069D01*
X82572600Y-47935931D01*
X82547601Y-47810256D01*
X82498565Y-47691873D01*
X82498563Y-47691870D01*
X82498561Y-47691866D01*
X82469817Y-47648848D01*
X82427376Y-47585331D01*
X82336769Y-47494724D01*
X82294326Y-47466365D01*
X82230233Y-47423538D01*
X82230225Y-47423534D01*
X82111847Y-47374500D01*
X82111845Y-47374499D01*
X82111844Y-47374499D01*
X81986169Y-47349500D01*
X81858031Y-47349500D01*
X81858030Y-47349500D01*
X81795193Y-47361999D01*
X81732356Y-47374499D01*
X81732355Y-47374499D01*
X81732352Y-47374500D01*
X81613974Y-47423534D01*
X81613966Y-47423538D01*
X81507431Y-47494724D01*
X81507427Y-47494727D01*
X81416827Y-47585327D01*
X81416824Y-47585331D01*
X81345638Y-47691866D01*
X81345634Y-47691874D01*
X81296600Y-47810252D01*
X81296599Y-47810257D01*
X81271600Y-47935930D01*
X53053818Y-47935930D01*
X54600217Y-46389531D01*
X79396800Y-46389531D01*
X79396800Y-46517669D01*
X79410929Y-46588700D01*
X79421799Y-46643342D01*
X79421800Y-46643347D01*
X79470834Y-46761725D01*
X79470838Y-46761733D01*
X79513665Y-46825826D01*
X79542024Y-46868269D01*
X79632631Y-46958876D01*
X79696148Y-47001317D01*
X79739166Y-47030061D01*
X79739170Y-47030063D01*
X79739173Y-47030065D01*
X79857556Y-47079101D01*
X79983231Y-47104100D01*
X79983232Y-47104100D01*
X80111368Y-47104100D01*
X80111369Y-47104100D01*
X80237044Y-47079101D01*
X80355427Y-47030065D01*
X80461969Y-46958876D01*
X80552576Y-46868269D01*
X80623765Y-46761727D01*
X80672801Y-46643344D01*
X80697800Y-46517669D01*
X80697800Y-46389531D01*
X80672801Y-46263856D01*
X80623765Y-46145473D01*
X80623763Y-46145470D01*
X80623761Y-46145466D01*
X80595017Y-46102448D01*
X80552576Y-46038931D01*
X80461969Y-45948324D01*
X80419526Y-45919965D01*
X80355433Y-45877138D01*
X80355425Y-45877134D01*
X80237047Y-45828100D01*
X80237045Y-45828099D01*
X80237044Y-45828099D01*
X80111369Y-45803100D01*
X79983231Y-45803100D01*
X79983230Y-45803100D01*
X79920393Y-45815599D01*
X79857556Y-45828099D01*
X79857555Y-45828099D01*
X79857552Y-45828100D01*
X79739174Y-45877134D01*
X79739166Y-45877138D01*
X79632631Y-45948324D01*
X79632627Y-45948327D01*
X79542027Y-46038927D01*
X79542024Y-46038931D01*
X79470838Y-46145466D01*
X79470834Y-46145474D01*
X79421800Y-46263852D01*
X79421799Y-46263855D01*
X79421799Y-46263856D01*
X79396800Y-46389531D01*
X54600217Y-46389531D01*
X57591852Y-43397896D01*
X57646369Y-43370119D01*
X57661856Y-43368900D01*
X57733668Y-43368900D01*
X57733669Y-43368900D01*
X57859344Y-43343901D01*
X57977727Y-43294865D01*
X58084269Y-43223676D01*
X58174876Y-43133069D01*
X58246065Y-43026527D01*
X58295101Y-42908144D01*
X58320100Y-42782469D01*
X58320100Y-42654331D01*
X58306391Y-42585413D01*
X58313582Y-42524654D01*
X58355115Y-42479723D01*
X58403489Y-42467100D01*
X58421818Y-42467100D01*
X58480009Y-42486007D01*
X58513282Y-42528214D01*
X58529234Y-42566725D01*
X58529238Y-42566733D01*
X58572065Y-42630826D01*
X58600424Y-42673269D01*
X58691031Y-42763876D01*
X58739330Y-42796148D01*
X58797566Y-42835061D01*
X58797570Y-42835063D01*
X58797573Y-42835065D01*
X58915956Y-42884101D01*
X59041631Y-42909100D01*
X59041632Y-42909100D01*
X59169768Y-42909100D01*
X59169769Y-42909100D01*
X59295444Y-42884101D01*
X59413827Y-42835065D01*
X59520369Y-42763876D01*
X59610976Y-42673269D01*
X59682165Y-42566727D01*
X59731201Y-42448344D01*
X59756200Y-42322669D01*
X59756200Y-42194531D01*
X59731201Y-42068856D01*
X59682165Y-41950473D01*
X59682163Y-41950470D01*
X59682161Y-41950466D01*
X59653417Y-41907448D01*
X59610976Y-41843931D01*
X59520369Y-41753324D01*
X59442230Y-41701113D01*
X59413833Y-41682138D01*
X59413825Y-41682134D01*
X59295447Y-41633100D01*
X59295445Y-41633099D01*
X59295444Y-41633099D01*
X59169769Y-41608100D01*
X59041631Y-41608100D01*
X59041626Y-41608100D01*
X58991510Y-41618069D01*
X58951175Y-41616748D01*
X58951149Y-41616947D01*
X58949134Y-41616681D01*
X58946576Y-41616598D01*
X58944718Y-41616100D01*
X58944716Y-41616100D01*
X51263532Y-41616100D01*
X51205341Y-41597193D01*
X51169377Y-41547693D01*
X51169377Y-41486507D01*
X51181217Y-41462097D01*
X51196364Y-41439428D01*
X51196363Y-41439428D01*
X51196365Y-41439427D01*
X51245401Y-41321044D01*
X51270400Y-41195369D01*
X51270400Y-41067231D01*
X51245401Y-40941556D01*
X51245400Y-40941553D01*
X51244971Y-40940139D01*
X51244984Y-40939462D01*
X51244452Y-40936787D01*
X51245039Y-40936670D01*
X51246172Y-40878966D01*
X51283100Y-40830181D01*
X51339708Y-40812400D01*
X63034344Y-40812400D01*
X63092535Y-40831307D01*
X63104348Y-40841396D01*
X64912204Y-42649252D01*
X64939981Y-42703769D01*
X64941200Y-42719256D01*
X64941200Y-42791069D01*
X64964678Y-42909100D01*
X64966199Y-42916742D01*
X64966200Y-42916747D01*
X65015234Y-43035125D01*
X65015238Y-43035133D01*
X65058065Y-43099226D01*
X65086424Y-43141669D01*
X65177031Y-43232276D01*
X65240548Y-43274717D01*
X65283566Y-43303461D01*
X65283570Y-43303463D01*
X65283573Y-43303465D01*
X65401956Y-43352501D01*
X65527631Y-43377500D01*
X65527632Y-43377500D01*
X65655768Y-43377500D01*
X65655769Y-43377500D01*
X65781444Y-43352501D01*
X65899827Y-43303465D01*
X66006369Y-43232276D01*
X66096976Y-43141669D01*
X66168165Y-43035127D01*
X66217201Y-42916744D01*
X66242200Y-42791069D01*
X66242200Y-42662931D01*
X66217201Y-42537256D01*
X66168165Y-42418873D01*
X66168163Y-42418870D01*
X66168161Y-42418866D01*
X66139417Y-42375848D01*
X66096976Y-42312331D01*
X66006369Y-42221724D01*
X65963926Y-42193365D01*
X65899833Y-42150538D01*
X65899825Y-42150534D01*
X65781447Y-42101500D01*
X65781445Y-42101499D01*
X65781444Y-42101499D01*
X65655769Y-42076500D01*
X65583956Y-42076500D01*
X65525765Y-42057593D01*
X65513952Y-42047504D01*
X63996152Y-40529704D01*
X63968375Y-40475187D01*
X63977946Y-40414755D01*
X64021211Y-40371490D01*
X64066156Y-40360700D01*
X93220816Y-40360700D01*
X93220818Y-40360700D01*
X93329037Y-40331703D01*
X93329039Y-40331701D01*
X93329041Y-40331701D01*
X93357864Y-40315059D01*
X93426063Y-40275685D01*
X97583779Y-36117967D01*
X97638294Y-36090192D01*
X97698726Y-36099763D01*
X97741991Y-36143028D01*
X97751562Y-36203460D01*
X97733875Y-36246161D01*
X97723245Y-36260792D01*
X97723239Y-36260801D01*
X97637453Y-36429167D01*
X97579058Y-36608886D01*
X97549500Y-36795515D01*
X97549500Y-36984484D01*
X97579058Y-37171113D01*
X97637453Y-37350832D01*
X97683411Y-37441031D01*
X97723240Y-37519199D01*
X97834310Y-37672073D01*
X97967927Y-37805690D01*
X98120801Y-37916760D01*
X98289168Y-38002547D01*
X98468882Y-38060940D01*
X98468883Y-38060940D01*
X98468886Y-38060941D01*
X98655516Y-38090500D01*
X98655519Y-38090500D01*
X98844484Y-38090500D01*
X99031113Y-38060941D01*
X99031114Y-38060940D01*
X99031118Y-38060940D01*
X99210832Y-38002547D01*
X99379199Y-37916760D01*
X99532073Y-37805690D01*
X99665690Y-37672073D01*
X99776760Y-37519199D01*
X99862547Y-37350832D01*
X99920940Y-37171118D01*
X99928297Y-37124668D01*
X99950500Y-36984484D01*
X99950500Y-36795515D01*
X99920941Y-36608886D01*
X99920940Y-36608882D01*
X99862547Y-36429168D01*
X99776760Y-36260801D01*
X99665690Y-36107927D01*
X99532073Y-35974310D01*
X99379199Y-35863240D01*
X99379198Y-35863239D01*
X99379196Y-35863238D01*
X99210832Y-35777453D01*
X99031113Y-35719058D01*
X99023046Y-35717781D01*
X98968529Y-35690004D01*
X98940751Y-35635488D01*
X98950322Y-35575056D01*
X98993586Y-35531791D01*
X99023046Y-35522219D01*
X99031113Y-35520941D01*
X99031114Y-35520940D01*
X99031118Y-35520940D01*
X99210832Y-35462547D01*
X99379199Y-35376760D01*
X99532073Y-35265690D01*
X99665690Y-35132073D01*
X99776760Y-34979199D01*
X99862547Y-34810832D01*
X99920940Y-34631118D01*
X99923186Y-34616938D01*
X99950500Y-34444484D01*
X99950500Y-34255515D01*
X99920941Y-34068886D01*
X99891530Y-33978369D01*
X99862547Y-33889168D01*
X99776760Y-33720801D01*
X99665690Y-33567927D01*
X99532073Y-33434310D01*
X99379199Y-33323240D01*
X99379198Y-33323239D01*
X99379196Y-33323238D01*
X99210832Y-33237453D01*
X99031113Y-33179058D01*
X99023046Y-33177781D01*
X98968529Y-33150004D01*
X98940751Y-33095488D01*
X98950322Y-33035056D01*
X98993586Y-32991791D01*
X99023046Y-32982219D01*
X99031113Y-32980941D01*
X99031114Y-32980940D01*
X99031118Y-32980940D01*
X99210832Y-32922547D01*
X99379199Y-32836760D01*
X99532073Y-32725690D01*
X99665690Y-32592073D01*
X99776760Y-32439199D01*
X99862547Y-32270832D01*
X99920940Y-32091118D01*
X99922444Y-32081624D01*
X99950500Y-31904484D01*
X99950500Y-31715515D01*
X99920941Y-31528886D01*
X99913700Y-31506600D01*
X99862547Y-31349168D01*
X99776760Y-31180801D01*
X99665690Y-31027927D01*
X99532073Y-30894310D01*
X99379199Y-30783240D01*
X99379198Y-30783239D01*
X99379196Y-30783238D01*
X99210832Y-30697453D01*
X99031113Y-30639058D01*
X99023046Y-30637781D01*
X98968529Y-30610004D01*
X98940751Y-30555488D01*
X98950322Y-30495056D01*
X98993586Y-30451791D01*
X99023046Y-30442219D01*
X99031113Y-30440941D01*
X99031114Y-30440940D01*
X99031118Y-30440940D01*
X99210832Y-30382547D01*
X99379199Y-30296760D01*
X99532073Y-30185690D01*
X99665690Y-30052073D01*
X99776760Y-29899199D01*
X99862547Y-29730832D01*
X99920940Y-29551118D01*
X99925308Y-29523542D01*
X99950500Y-29364484D01*
X99950500Y-29175515D01*
X99920941Y-28988886D01*
X99920940Y-28988882D01*
X99862547Y-28809168D01*
X99776760Y-28640801D01*
X99665690Y-28487927D01*
X99532073Y-28354310D01*
X99379199Y-28243240D01*
X99379198Y-28243239D01*
X99379196Y-28243238D01*
X99210832Y-28157453D01*
X99031113Y-28099058D01*
X99023046Y-28097781D01*
X98968529Y-28070004D01*
X98940751Y-28015488D01*
X98950322Y-27955056D01*
X98993586Y-27911791D01*
X99023046Y-27902219D01*
X99031113Y-27900941D01*
X99031114Y-27900940D01*
X99031118Y-27900940D01*
X99210832Y-27842547D01*
X99379199Y-27756760D01*
X99532073Y-27645690D01*
X99665690Y-27512073D01*
X99776760Y-27359199D01*
X99862547Y-27190832D01*
X99920940Y-27011118D01*
X99920941Y-27011113D01*
X99950500Y-26824484D01*
X99950500Y-26635515D01*
X99920941Y-26448886D01*
X99920940Y-26448882D01*
X99862547Y-26269168D01*
X99776760Y-26100801D01*
X99665690Y-25947927D01*
X99532073Y-25814310D01*
X99379199Y-25703240D01*
X99379198Y-25703239D01*
X99379196Y-25703238D01*
X99210832Y-25617453D01*
X99031113Y-25559058D01*
X99023046Y-25557781D01*
X98968529Y-25530004D01*
X98940751Y-25475488D01*
X98950322Y-25415056D01*
X98993586Y-25371791D01*
X99023046Y-25362219D01*
X99031113Y-25360941D01*
X99031114Y-25360940D01*
X99031118Y-25360940D01*
X99210832Y-25302547D01*
X99379199Y-25216760D01*
X99532073Y-25105690D01*
X99665690Y-24972073D01*
X99776760Y-24819199D01*
X99862547Y-24650832D01*
X99920940Y-24471118D01*
X99936349Y-24373830D01*
X99950500Y-24284484D01*
X99950500Y-24095515D01*
X99920941Y-23908886D01*
X99905523Y-23861434D01*
X99862547Y-23729168D01*
X99776760Y-23560801D01*
X99665690Y-23407927D01*
X99532073Y-23274310D01*
X99379199Y-23163240D01*
X99379198Y-23163239D01*
X99379196Y-23163238D01*
X99210832Y-23077453D01*
X99031113Y-23019058D01*
X99023046Y-23017781D01*
X98968529Y-22990004D01*
X98940751Y-22935488D01*
X98950322Y-22875056D01*
X98993586Y-22831791D01*
X99023046Y-22822219D01*
X99031113Y-22820941D01*
X99031114Y-22820940D01*
X99031118Y-22820940D01*
X99210832Y-22762547D01*
X99379199Y-22676760D01*
X99532073Y-22565690D01*
X99665690Y-22432073D01*
X99776760Y-22279199D01*
X99862547Y-22110832D01*
X99920940Y-21931118D01*
X99950500Y-21744481D01*
X99950500Y-21555519D01*
X99950500Y-21555515D01*
X99920941Y-21368886D01*
X99911369Y-21339427D01*
X99862547Y-21189168D01*
X99776760Y-21020801D01*
X99665690Y-20867927D01*
X99532073Y-20734310D01*
X99379199Y-20623240D01*
X99379198Y-20623239D01*
X99379196Y-20623238D01*
X99210832Y-20537453D01*
X99031113Y-20479058D01*
X98844484Y-20449500D01*
X98844481Y-20449500D01*
X98655519Y-20449500D01*
X98655516Y-20449500D01*
X98468886Y-20479058D01*
X98289167Y-20537453D01*
X98120803Y-20623238D01*
X97967928Y-20734309D01*
X97834309Y-20867928D01*
X97723238Y-21020803D01*
X97637453Y-21189167D01*
X97579058Y-21368886D01*
X97549500Y-21555515D01*
X97549500Y-21744484D01*
X97579058Y-21931113D01*
X97579060Y-21931118D01*
X97637453Y-22110832D01*
X97723240Y-22279199D01*
X97834310Y-22432073D01*
X97967927Y-22565690D01*
X98120801Y-22676760D01*
X98289168Y-22762547D01*
X98468882Y-22820940D01*
X98468883Y-22820940D01*
X98468886Y-22820941D01*
X98476954Y-22822219D01*
X98531471Y-22849996D01*
X98559248Y-22904513D01*
X98549677Y-22964945D01*
X98506412Y-23008210D01*
X98476954Y-23017781D01*
X98468886Y-23019058D01*
X98289167Y-23077453D01*
X98120803Y-23163238D01*
X97967928Y-23274309D01*
X97834309Y-23407928D01*
X97723238Y-23560803D01*
X97637453Y-23729167D01*
X97579058Y-23908886D01*
X97549500Y-24095515D01*
X97549500Y-24284484D01*
X97579058Y-24471113D01*
X97637453Y-24650832D01*
X97718568Y-24810031D01*
X97723240Y-24819199D01*
X97834310Y-24972073D01*
X97967927Y-25105690D01*
X98120801Y-25216760D01*
X98289168Y-25302547D01*
X98468882Y-25360940D01*
X98468883Y-25360940D01*
X98468886Y-25360941D01*
X98476954Y-25362219D01*
X98531471Y-25389996D01*
X98559248Y-25444513D01*
X98549677Y-25504945D01*
X98506412Y-25548210D01*
X98476954Y-25557781D01*
X98468886Y-25559058D01*
X98289167Y-25617453D01*
X98120803Y-25703238D01*
X97967928Y-25814309D01*
X97834309Y-25947928D01*
X97723238Y-26100803D01*
X97637453Y-26269167D01*
X97579058Y-26448886D01*
X97549500Y-26635515D01*
X97549500Y-26824484D01*
X97579058Y-27011113D01*
X97637453Y-27190832D01*
X97709270Y-27331783D01*
X97723240Y-27359199D01*
X97834310Y-27512073D01*
X97967927Y-27645690D01*
X98120801Y-27756760D01*
X98289168Y-27842547D01*
X98468882Y-27900940D01*
X98468883Y-27900940D01*
X98468886Y-27900941D01*
X98476954Y-27902219D01*
X98531471Y-27929996D01*
X98559248Y-27984513D01*
X98549677Y-28044945D01*
X98506412Y-28088210D01*
X98476954Y-28097781D01*
X98468886Y-28099058D01*
X98289167Y-28157453D01*
X98120803Y-28243238D01*
X97967928Y-28354309D01*
X97834309Y-28487928D01*
X97723238Y-28640803D01*
X97637453Y-28809167D01*
X97579058Y-28988886D01*
X97549500Y-29175515D01*
X97549500Y-29364484D01*
X97579058Y-29551113D01*
X97608565Y-29641925D01*
X97637453Y-29730832D01*
X97723240Y-29899199D01*
X97834310Y-30052073D01*
X97967927Y-30185690D01*
X98120801Y-30296760D01*
X98289168Y-30382547D01*
X98468882Y-30440940D01*
X98468883Y-30440940D01*
X98468886Y-30440941D01*
X98476954Y-30442219D01*
X98531471Y-30469996D01*
X98559248Y-30524513D01*
X98549677Y-30584945D01*
X98506412Y-30628210D01*
X98476954Y-30637781D01*
X98468886Y-30639058D01*
X98289167Y-30697453D01*
X98120803Y-30783238D01*
X97967928Y-30894309D01*
X97834309Y-31027928D01*
X97723238Y-31180803D01*
X97637453Y-31349167D01*
X97579058Y-31528886D01*
X97549500Y-31715515D01*
X97549500Y-31904484D01*
X97579058Y-32091113D01*
X97593408Y-32135276D01*
X97616537Y-32206461D01*
X97630959Y-32250845D01*
X97630959Y-32312031D01*
X97606808Y-32351442D01*
X96572748Y-33385504D01*
X96518231Y-33413281D01*
X96502744Y-33414500D01*
X76622989Y-33414500D01*
X76564798Y-33395593D01*
X76528834Y-33346093D01*
X76528834Y-33284907D01*
X76564798Y-33235407D01*
X76603674Y-33218402D01*
X76633844Y-33212401D01*
X76752227Y-33163365D01*
X76858769Y-33092176D01*
X76949376Y-33001569D01*
X77020565Y-32895027D01*
X77069601Y-32776644D01*
X77094600Y-32650969D01*
X77094600Y-32522831D01*
X77069601Y-32397156D01*
X77020565Y-32278773D01*
X77020563Y-32278770D01*
X77020561Y-32278766D01*
X76991817Y-32235748D01*
X76949376Y-32172231D01*
X76858769Y-32081624D01*
X76816326Y-32053265D01*
X76752233Y-32010438D01*
X76752225Y-32010434D01*
X76633847Y-31961400D01*
X76633845Y-31961399D01*
X76633844Y-31961399D01*
X76508169Y-31936400D01*
X76380031Y-31936400D01*
X76380030Y-31936400D01*
X76317193Y-31948899D01*
X76254356Y-31961399D01*
X76254355Y-31961399D01*
X76254352Y-31961400D01*
X76135974Y-32010434D01*
X76135966Y-32010438D01*
X76029431Y-32081624D01*
X76029427Y-32081627D01*
X75938827Y-32172227D01*
X75938824Y-32172231D01*
X75867638Y-32278766D01*
X75867634Y-32278774D01*
X75818600Y-32397152D01*
X75818599Y-32397155D01*
X75818599Y-32397156D01*
X75793600Y-32522831D01*
X75793600Y-32650969D01*
X75808463Y-32725690D01*
X75818599Y-32776642D01*
X75818600Y-32776647D01*
X75867634Y-32895025D01*
X75867638Y-32895033D01*
X75906499Y-32953191D01*
X75938824Y-33001569D01*
X76029431Y-33092176D01*
X76092948Y-33134617D01*
X76135966Y-33163361D01*
X76135970Y-33163363D01*
X76135973Y-33163365D01*
X76254356Y-33212401D01*
X76284525Y-33218402D01*
X76337909Y-33248299D01*
X76363525Y-33303864D01*
X76351588Y-33363874D01*
X76306658Y-33405406D01*
X76265211Y-33414500D01*
X70858987Y-33414500D01*
X70800796Y-33395593D01*
X70764832Y-33346093D01*
X70764832Y-33284907D01*
X70776672Y-33260498D01*
X70811661Y-33208133D01*
X70811661Y-33208132D01*
X70811665Y-33208127D01*
X70860701Y-33089744D01*
X70885700Y-32964069D01*
X70885700Y-32835931D01*
X70860701Y-32710256D01*
X70811665Y-32591873D01*
X70811663Y-32591870D01*
X70811661Y-32591866D01*
X70782917Y-32548848D01*
X70740476Y-32485331D01*
X70649869Y-32394724D01*
X70585093Y-32351442D01*
X70570560Y-32341731D01*
X73684800Y-32341731D01*
X73684800Y-32469869D01*
X73709108Y-32592071D01*
X73709799Y-32595542D01*
X73709800Y-32595547D01*
X73758834Y-32713925D01*
X73758838Y-32713933D01*
X73788016Y-32757600D01*
X73830024Y-32820469D01*
X73920631Y-32911076D01*
X73983661Y-32953191D01*
X74027166Y-32982261D01*
X74027170Y-32982263D01*
X74027173Y-32982265D01*
X74145556Y-33031301D01*
X74271231Y-33056300D01*
X74271232Y-33056300D01*
X74399368Y-33056300D01*
X74399369Y-33056300D01*
X74525044Y-33031301D01*
X74643427Y-32982265D01*
X74749969Y-32911076D01*
X74840576Y-32820469D01*
X74911765Y-32713927D01*
X74960801Y-32595544D01*
X74985800Y-32469869D01*
X74985800Y-32341731D01*
X74960801Y-32216056D01*
X74911765Y-32097673D01*
X74911763Y-32097670D01*
X74911761Y-32097666D01*
X74876348Y-32044668D01*
X74840576Y-31991131D01*
X74749969Y-31900524D01*
X74707526Y-31872165D01*
X74643433Y-31829338D01*
X74643425Y-31829334D01*
X74525047Y-31780300D01*
X74525045Y-31780299D01*
X74525044Y-31780299D01*
X74399369Y-31755300D01*
X74271231Y-31755300D01*
X74271230Y-31755300D01*
X74209401Y-31767599D01*
X74145556Y-31780299D01*
X74145555Y-31780299D01*
X74145552Y-31780300D01*
X74027174Y-31829334D01*
X74027166Y-31829338D01*
X73920631Y-31900524D01*
X73920627Y-31900527D01*
X73830027Y-31991127D01*
X73830024Y-31991131D01*
X73758838Y-32097666D01*
X73758834Y-32097674D01*
X73709800Y-32216052D01*
X73709799Y-32216057D01*
X73688420Y-32323535D01*
X73684800Y-32341731D01*
X70570560Y-32341731D01*
X70543333Y-32323538D01*
X70543325Y-32323534D01*
X70424947Y-32274500D01*
X70424945Y-32274499D01*
X70424944Y-32274499D01*
X70299269Y-32249500D01*
X70171131Y-32249500D01*
X70171130Y-32249500D01*
X70108293Y-32261999D01*
X70045456Y-32274499D01*
X70045455Y-32274499D01*
X70045452Y-32274500D01*
X69927074Y-32323534D01*
X69927066Y-32323538D01*
X69820531Y-32394724D01*
X69820527Y-32394727D01*
X69729927Y-32485327D01*
X69729924Y-32485331D01*
X69658738Y-32591866D01*
X69658734Y-32591874D01*
X69609700Y-32710252D01*
X69609699Y-32710255D01*
X69609699Y-32710256D01*
X69584700Y-32835931D01*
X69584700Y-32964069D01*
X69603046Y-33056300D01*
X69609699Y-33089742D01*
X69609700Y-33089747D01*
X69658734Y-33208125D01*
X69658738Y-33208133D01*
X69693728Y-33260498D01*
X69710337Y-33319386D01*
X69689160Y-33376790D01*
X69638286Y-33410783D01*
X69611413Y-33414500D01*
X68856718Y-33414500D01*
X68744681Y-33414500D01*
X68678448Y-33432246D01*
X68636458Y-33443498D01*
X68539437Y-33499514D01*
X68460214Y-33578736D01*
X68460215Y-33578737D01*
X68460213Y-33578739D01*
X64524577Y-37514373D01*
X64470060Y-37542150D01*
X64409628Y-37532579D01*
X64372258Y-37499371D01*
X64333276Y-37441031D01*
X64242672Y-37350427D01*
X64242669Y-37350424D01*
X64200226Y-37322065D01*
X64136133Y-37279238D01*
X64136125Y-37279234D01*
X64017747Y-37230200D01*
X64017745Y-37230199D01*
X64017744Y-37230199D01*
X63892069Y-37205200D01*
X63820256Y-37205200D01*
X63762065Y-37186293D01*
X63750253Y-37176204D01*
X63638762Y-37064714D01*
X63541740Y-37008698D01*
X63541742Y-37008698D01*
X63499751Y-36997447D01*
X63433518Y-36979700D01*
X63433516Y-36979700D01*
X56651029Y-36979700D01*
X56592838Y-36960793D01*
X56556874Y-36911293D01*
X56553931Y-36861385D01*
X56571300Y-36774069D01*
X56571300Y-36645931D01*
X56546301Y-36520256D01*
X56497265Y-36401873D01*
X56497263Y-36401870D01*
X56497261Y-36401866D01*
X56448151Y-36328369D01*
X56426076Y-36295331D01*
X56335469Y-36204724D01*
X56293026Y-36176365D01*
X56228933Y-36133538D01*
X56228925Y-36133534D01*
X56110547Y-36084500D01*
X56110545Y-36084499D01*
X56110544Y-36084499D01*
X55984869Y-36059500D01*
X55856731Y-36059500D01*
X55856730Y-36059500D01*
X55793893Y-36071999D01*
X55731056Y-36084499D01*
X55731055Y-36084499D01*
X55731052Y-36084500D01*
X55612674Y-36133534D01*
X55612666Y-36133538D01*
X55506131Y-36204724D01*
X55506127Y-36204727D01*
X55415527Y-36295327D01*
X55415524Y-36295331D01*
X55344338Y-36401866D01*
X55344334Y-36401874D01*
X55295300Y-36520252D01*
X55295299Y-36520257D01*
X55270300Y-36645930D01*
X55270300Y-36774069D01*
X55287669Y-36861385D01*
X55280478Y-36922147D01*
X55238945Y-36967077D01*
X55190571Y-36979700D01*
X42791156Y-36979700D01*
X42732965Y-36960793D01*
X42721152Y-36950704D01*
X40712778Y-34942330D01*
X54741400Y-34942330D01*
X54741400Y-35070469D01*
X54766399Y-35196142D01*
X54766400Y-35196147D01*
X54815434Y-35314525D01*
X54815438Y-35314533D01*
X54857018Y-35376760D01*
X54886624Y-35421069D01*
X54977231Y-35511676D01*
X55034581Y-35549996D01*
X55083766Y-35582861D01*
X55083770Y-35582863D01*
X55083773Y-35582865D01*
X55202156Y-35631901D01*
X55327831Y-35656900D01*
X55327832Y-35656900D01*
X55455968Y-35656900D01*
X55455969Y-35656900D01*
X55581644Y-35631901D01*
X55700027Y-35582865D01*
X55806569Y-35511676D01*
X55897176Y-35421069D01*
X55968365Y-35314527D01*
X56017401Y-35196144D01*
X56042400Y-35070469D01*
X56042400Y-34942331D01*
X56017401Y-34816656D01*
X55968365Y-34698273D01*
X55968363Y-34698270D01*
X55968361Y-34698266D01*
X55939617Y-34655248D01*
X55897176Y-34591731D01*
X55806569Y-34501124D01*
X55764126Y-34472765D01*
X55700033Y-34429938D01*
X55700025Y-34429934D01*
X55581647Y-34380900D01*
X55581645Y-34380899D01*
X55581644Y-34380899D01*
X55455969Y-34355900D01*
X55327831Y-34355900D01*
X55327830Y-34355900D01*
X55264993Y-34368399D01*
X55202156Y-34380899D01*
X55202155Y-34380899D01*
X55202152Y-34380900D01*
X55083774Y-34429934D01*
X55083766Y-34429938D01*
X54977231Y-34501124D01*
X54977227Y-34501127D01*
X54886627Y-34591727D01*
X54886624Y-34591731D01*
X54815438Y-34698266D01*
X54815434Y-34698274D01*
X54766400Y-34816652D01*
X54766399Y-34816657D01*
X54741400Y-34942330D01*
X40712778Y-34942330D01*
X39620679Y-33850231D01*
X66182900Y-33850231D01*
X66182900Y-33978369D01*
X66200905Y-34068886D01*
X66207899Y-34104042D01*
X66207900Y-34104047D01*
X66256934Y-34222425D01*
X66256938Y-34222433D01*
X66279046Y-34255519D01*
X66328124Y-34328969D01*
X66418731Y-34419576D01*
X66456009Y-34444484D01*
X66525266Y-34490761D01*
X66525270Y-34490763D01*
X66525273Y-34490765D01*
X66643656Y-34539801D01*
X66769331Y-34564800D01*
X66769332Y-34564800D01*
X66897468Y-34564800D01*
X66897469Y-34564800D01*
X67023144Y-34539801D01*
X67141527Y-34490765D01*
X67248069Y-34419576D01*
X67338676Y-34328969D01*
X67409865Y-34222427D01*
X67458901Y-34104044D01*
X67483900Y-33978369D01*
X67483900Y-33850231D01*
X67458901Y-33724556D01*
X67409865Y-33606173D01*
X67409863Y-33606170D01*
X67409861Y-33606166D01*
X67378855Y-33559763D01*
X67338676Y-33499631D01*
X67248069Y-33409024D01*
X67199827Y-33376790D01*
X67141533Y-33337838D01*
X67141525Y-33337834D01*
X67023147Y-33288800D01*
X67023145Y-33288799D01*
X67023144Y-33288799D01*
X66897469Y-33263800D01*
X66769331Y-33263800D01*
X66769330Y-33263800D01*
X66706493Y-33276299D01*
X66643656Y-33288799D01*
X66643655Y-33288799D01*
X66643652Y-33288800D01*
X66525274Y-33337834D01*
X66525266Y-33337838D01*
X66418731Y-33409024D01*
X66418727Y-33409027D01*
X66328127Y-33499627D01*
X66328124Y-33499631D01*
X66256938Y-33606166D01*
X66256934Y-33606174D01*
X66207900Y-33724552D01*
X66207899Y-33724555D01*
X66207899Y-33724556D01*
X66182900Y-33850231D01*
X39620679Y-33850231D01*
X38606379Y-32835931D01*
X46918700Y-32835931D01*
X46918700Y-32964069D01*
X46937046Y-33056300D01*
X46943699Y-33089742D01*
X46943700Y-33089747D01*
X46992734Y-33208125D01*
X46992738Y-33208133D01*
X47019577Y-33248299D01*
X47063924Y-33314669D01*
X47154531Y-33405276D01*
X47197982Y-33434309D01*
X47261066Y-33476461D01*
X47261070Y-33476463D01*
X47261073Y-33476465D01*
X47379456Y-33525501D01*
X47505131Y-33550500D01*
X47505132Y-33550500D01*
X47633268Y-33550500D01*
X47633269Y-33550500D01*
X47758944Y-33525501D01*
X47877327Y-33476465D01*
X47983869Y-33405276D01*
X48074476Y-33314669D01*
X48145665Y-33208127D01*
X48194701Y-33089744D01*
X48219700Y-32964069D01*
X48219700Y-32835931D01*
X48194701Y-32710256D01*
X48145665Y-32591873D01*
X48145663Y-32591870D01*
X48145661Y-32591866D01*
X48116917Y-32548848D01*
X48074476Y-32485331D01*
X47983869Y-32394724D01*
X47919093Y-32351442D01*
X47877333Y-32323538D01*
X47877325Y-32323534D01*
X47758947Y-32274500D01*
X47758945Y-32274499D01*
X47758944Y-32274499D01*
X47633269Y-32249500D01*
X47505131Y-32249500D01*
X47505130Y-32249500D01*
X47442293Y-32261999D01*
X47379456Y-32274499D01*
X47379455Y-32274499D01*
X47379452Y-32274500D01*
X47261074Y-32323534D01*
X47261066Y-32323538D01*
X47154531Y-32394724D01*
X47154527Y-32394727D01*
X47063927Y-32485327D01*
X47063924Y-32485331D01*
X46992738Y-32591866D01*
X46992734Y-32591874D01*
X46943700Y-32710252D01*
X46943699Y-32710255D01*
X46943699Y-32710256D01*
X46918700Y-32835931D01*
X38606379Y-32835931D01*
X36823479Y-31053031D01*
X47942800Y-31053031D01*
X47942800Y-31181169D01*
X47949595Y-31215331D01*
X47967799Y-31306842D01*
X47967800Y-31306847D01*
X48016834Y-31425225D01*
X48016838Y-31425233D01*
X48054502Y-31481600D01*
X48088024Y-31531769D01*
X48178631Y-31622376D01*
X48242148Y-31664817D01*
X48285166Y-31693561D01*
X48285170Y-31693563D01*
X48285173Y-31693565D01*
X48403556Y-31742601D01*
X48529231Y-31767600D01*
X48529232Y-31767600D01*
X48657368Y-31767600D01*
X48657369Y-31767600D01*
X48783044Y-31742601D01*
X48901427Y-31693565D01*
X49007969Y-31622376D01*
X49064414Y-31565931D01*
X66565200Y-31565931D01*
X66565200Y-31694069D01*
X66579826Y-31767599D01*
X66590199Y-31819742D01*
X66590200Y-31819747D01*
X66639234Y-31938125D01*
X66639238Y-31938133D01*
X66674648Y-31991127D01*
X66710424Y-32044669D01*
X66801031Y-32135276D01*
X66856332Y-32172227D01*
X66907566Y-32206461D01*
X66907570Y-32206463D01*
X66907573Y-32206465D01*
X67025956Y-32255501D01*
X67151631Y-32280500D01*
X67151632Y-32280500D01*
X67279768Y-32280500D01*
X67279769Y-32280500D01*
X67405444Y-32255501D01*
X67523827Y-32206465D01*
X67630369Y-32135276D01*
X67720976Y-32044669D01*
X67792165Y-31938127D01*
X67841201Y-31819744D01*
X67866200Y-31694069D01*
X67866200Y-31565931D01*
X67841201Y-31440256D01*
X67792165Y-31321873D01*
X67792163Y-31321870D01*
X67792161Y-31321866D01*
X67763417Y-31278848D01*
X67720976Y-31215331D01*
X67630369Y-31124724D01*
X67587926Y-31096365D01*
X67523833Y-31053538D01*
X67523825Y-31053534D01*
X67405447Y-31004500D01*
X67405445Y-31004499D01*
X67405444Y-31004499D01*
X67279769Y-30979500D01*
X67151631Y-30979500D01*
X67151630Y-30979500D01*
X67088793Y-30991999D01*
X67025956Y-31004499D01*
X67025955Y-31004499D01*
X67025952Y-31004500D01*
X66907574Y-31053534D01*
X66907566Y-31053538D01*
X66801031Y-31124724D01*
X66801027Y-31124727D01*
X66710427Y-31215327D01*
X66710424Y-31215331D01*
X66639238Y-31321866D01*
X66639234Y-31321874D01*
X66590200Y-31440252D01*
X66590199Y-31440255D01*
X66590199Y-31440256D01*
X66565200Y-31565931D01*
X49064414Y-31565931D01*
X49098576Y-31531769D01*
X49145762Y-31461149D01*
X49169761Y-31425234D01*
X49169762Y-31425230D01*
X49169765Y-31425227D01*
X49218801Y-31306844D01*
X49243800Y-31181169D01*
X49243800Y-31053031D01*
X49218801Y-30927356D01*
X49169765Y-30808973D01*
X49169763Y-30808970D01*
X49169761Y-30808966D01*
X49141017Y-30765948D01*
X49098576Y-30702431D01*
X49007969Y-30611824D01*
X48965526Y-30583465D01*
X48901433Y-30540638D01*
X48901425Y-30540634D01*
X48783047Y-30491600D01*
X48783045Y-30491599D01*
X48783044Y-30491599D01*
X48657369Y-30466600D01*
X48529231Y-30466600D01*
X48529230Y-30466600D01*
X48466393Y-30479099D01*
X48403556Y-30491599D01*
X48403555Y-30491599D01*
X48403552Y-30491600D01*
X48285174Y-30540634D01*
X48285166Y-30540638D01*
X48178631Y-30611824D01*
X48178627Y-30611827D01*
X48088027Y-30702427D01*
X48088024Y-30702431D01*
X48016838Y-30808966D01*
X48016834Y-30808974D01*
X47967800Y-30927352D01*
X47967799Y-30927355D01*
X47967799Y-30927356D01*
X47942800Y-31053031D01*
X36823479Y-31053031D01*
X30966644Y-25196196D01*
X30938867Y-25141679D01*
X30948438Y-25081247D01*
X30991703Y-25037982D01*
X31052135Y-25028411D01*
X31074532Y-25034727D01*
X31143756Y-25063401D01*
X31269431Y-25088400D01*
X31269432Y-25088400D01*
X31397568Y-25088400D01*
X31397569Y-25088400D01*
X31523244Y-25063401D01*
X31641627Y-25014365D01*
X31748169Y-24943176D01*
X31798949Y-24892396D01*
X31853466Y-24864619D01*
X31868953Y-24863400D01*
X62059544Y-24863400D01*
X62117735Y-24882307D01*
X62129548Y-24892396D01*
X66129604Y-28892452D01*
X66157381Y-28946969D01*
X66158600Y-28962456D01*
X66158600Y-29034269D01*
X66172305Y-29103169D01*
X66183599Y-29159942D01*
X66183600Y-29159947D01*
X66232634Y-29278325D01*
X66232638Y-29278333D01*
X66275465Y-29342426D01*
X66303824Y-29384869D01*
X66394431Y-29475476D01*
X66457948Y-29517917D01*
X66500966Y-29546661D01*
X66500970Y-29546663D01*
X66500973Y-29546665D01*
X66619356Y-29595701D01*
X66745031Y-29620700D01*
X66745032Y-29620700D01*
X66873168Y-29620700D01*
X66873169Y-29620700D01*
X66998844Y-29595701D01*
X67117227Y-29546665D01*
X67223769Y-29475476D01*
X67314376Y-29384869D01*
X67385565Y-29278327D01*
X67434601Y-29159944D01*
X67459600Y-29034269D01*
X67459600Y-28906131D01*
X67434601Y-28780456D01*
X67385565Y-28662073D01*
X67385563Y-28662070D01*
X67385561Y-28662066D01*
X67356817Y-28619048D01*
X67314376Y-28555531D01*
X67223769Y-28464924D01*
X67190594Y-28442757D01*
X67117233Y-28393738D01*
X67117225Y-28393734D01*
X67087523Y-28381431D01*
X69874600Y-28381431D01*
X69874600Y-28509569D01*
X69899443Y-28634461D01*
X69899599Y-28635242D01*
X69899600Y-28635247D01*
X69948634Y-28753625D01*
X69948638Y-28753633D01*
X69985746Y-28809168D01*
X70019824Y-28860169D01*
X70110431Y-28950776D01*
X70164032Y-28986591D01*
X70216966Y-29021961D01*
X70216970Y-29021963D01*
X70216973Y-29021965D01*
X70335356Y-29071001D01*
X70461031Y-29096000D01*
X70461032Y-29096000D01*
X70589168Y-29096000D01*
X70589169Y-29096000D01*
X70714844Y-29071001D01*
X70833227Y-29021965D01*
X70833232Y-29021961D01*
X70833235Y-29021960D01*
X70879334Y-28991157D01*
X70886168Y-28986590D01*
X70945055Y-28969981D01*
X71002459Y-28991157D01*
X71036452Y-29042030D01*
X71034052Y-29103169D01*
X71032635Y-29106789D01*
X71017200Y-29144053D01*
X71017199Y-29144056D01*
X70992200Y-29269731D01*
X70992200Y-29397869D01*
X71007637Y-29475476D01*
X71017199Y-29523542D01*
X71017200Y-29523547D01*
X71066234Y-29641925D01*
X71066238Y-29641933D01*
X71109065Y-29706026D01*
X71137424Y-29748469D01*
X71228031Y-29839076D01*
X71291548Y-29881517D01*
X71334566Y-29910261D01*
X71334570Y-29910263D01*
X71334573Y-29910265D01*
X71452956Y-29959301D01*
X71578631Y-29984300D01*
X71578632Y-29984300D01*
X71706768Y-29984300D01*
X71706769Y-29984300D01*
X71832444Y-29959301D01*
X71950827Y-29910265D01*
X72057369Y-29839076D01*
X72147976Y-29748469D01*
X72219165Y-29641927D01*
X72268201Y-29523544D01*
X72293200Y-29397869D01*
X72293200Y-29269731D01*
X72268201Y-29144056D01*
X72219165Y-29025673D01*
X72219163Y-29025670D01*
X72219161Y-29025666D01*
X72181953Y-28969981D01*
X72147976Y-28919131D01*
X72057369Y-28828524D01*
X72003768Y-28792709D01*
X71950833Y-28757338D01*
X71950825Y-28757334D01*
X71832447Y-28708300D01*
X71832445Y-28708299D01*
X71832444Y-28708299D01*
X71706769Y-28683300D01*
X71578631Y-28683300D01*
X71578630Y-28683300D01*
X71515793Y-28695799D01*
X71452956Y-28708299D01*
X71452955Y-28708299D01*
X71452952Y-28708300D01*
X71334574Y-28757334D01*
X71334565Y-28757338D01*
X71281631Y-28792709D01*
X71222742Y-28809318D01*
X71165339Y-28788141D01*
X71131346Y-28737267D01*
X71133748Y-28676129D01*
X71135146Y-28672555D01*
X71150601Y-28635244D01*
X71175600Y-28509569D01*
X71175600Y-28381431D01*
X71150601Y-28255756D01*
X71101565Y-28137373D01*
X71101563Y-28137370D01*
X71101561Y-28137366D01*
X71068715Y-28088210D01*
X71030376Y-28030831D01*
X70939769Y-27940224D01*
X70897216Y-27911791D01*
X70833233Y-27869038D01*
X70833225Y-27869034D01*
X70714847Y-27820000D01*
X70714845Y-27819999D01*
X70714844Y-27819999D01*
X70589169Y-27795000D01*
X70461031Y-27795000D01*
X70461030Y-27795000D01*
X70398193Y-27807499D01*
X70335356Y-27819999D01*
X70335355Y-27819999D01*
X70335352Y-27820000D01*
X70216974Y-27869034D01*
X70216966Y-27869038D01*
X70110431Y-27940224D01*
X70110427Y-27940227D01*
X70019827Y-28030827D01*
X70019824Y-28030831D01*
X69948638Y-28137366D01*
X69948634Y-28137374D01*
X69899600Y-28255752D01*
X69899599Y-28255757D01*
X69877645Y-28366125D01*
X69874600Y-28381431D01*
X67087523Y-28381431D01*
X66998847Y-28344700D01*
X66998845Y-28344699D01*
X66998844Y-28344699D01*
X66873169Y-28319700D01*
X66801356Y-28319700D01*
X66743165Y-28300793D01*
X66731352Y-28290704D01*
X64652378Y-26211730D01*
X62538063Y-24097415D01*
X62538060Y-24097413D01*
X62441040Y-24041398D01*
X62441042Y-24041398D01*
X62434327Y-24039599D01*
X62332818Y-24012400D01*
X62332816Y-24012400D01*
X31868953Y-24012400D01*
X31810762Y-23993493D01*
X31798949Y-23983404D01*
X31761475Y-23945930D01*
X66139100Y-23945930D01*
X66139100Y-24074069D01*
X66164099Y-24199742D01*
X66164100Y-24199747D01*
X66213134Y-24318125D01*
X66213138Y-24318133D01*
X66250355Y-24373831D01*
X66284324Y-24424669D01*
X66374931Y-24515276D01*
X66438448Y-24557717D01*
X66481466Y-24586461D01*
X66481470Y-24586463D01*
X66481473Y-24586465D01*
X66599856Y-24635501D01*
X66725531Y-24660500D01*
X66725532Y-24660500D01*
X66853668Y-24660500D01*
X66853669Y-24660500D01*
X66979344Y-24635501D01*
X67097727Y-24586465D01*
X67204269Y-24515276D01*
X67294876Y-24424669D01*
X67366065Y-24318127D01*
X67415101Y-24199744D01*
X67440100Y-24074069D01*
X67440100Y-23945931D01*
X67415101Y-23820256D01*
X67366065Y-23701873D01*
X67366063Y-23701870D01*
X67366061Y-23701866D01*
X67337317Y-23658848D01*
X67294876Y-23595331D01*
X67204269Y-23504724D01*
X67161826Y-23476365D01*
X67097733Y-23433538D01*
X67097725Y-23433534D01*
X66979347Y-23384500D01*
X66979345Y-23384499D01*
X66979344Y-23384499D01*
X66853669Y-23359500D01*
X66725531Y-23359500D01*
X66725530Y-23359500D01*
X66662693Y-23371999D01*
X66599856Y-23384499D01*
X66599855Y-23384499D01*
X66599852Y-23384500D01*
X66481474Y-23433534D01*
X66481466Y-23433538D01*
X66374931Y-23504724D01*
X66374927Y-23504727D01*
X66284327Y-23595327D01*
X66284324Y-23595331D01*
X66213138Y-23701866D01*
X66213134Y-23701874D01*
X66164100Y-23820252D01*
X66164099Y-23820257D01*
X66139100Y-23945930D01*
X31761475Y-23945930D01*
X31748172Y-23932627D01*
X31748169Y-23932624D01*
X31705726Y-23904265D01*
X31641633Y-23861438D01*
X31641625Y-23861434D01*
X31523247Y-23812400D01*
X31523245Y-23812399D01*
X31523244Y-23812399D01*
X31397569Y-23787400D01*
X31269431Y-23787400D01*
X31269430Y-23787400D01*
X31206593Y-23799899D01*
X31143756Y-23812399D01*
X31143755Y-23812399D01*
X31143752Y-23812400D01*
X31025374Y-23861434D01*
X31025366Y-23861438D01*
X30918831Y-23932624D01*
X30918827Y-23932627D01*
X30828227Y-24023227D01*
X30828224Y-24023231D01*
X30757038Y-24129766D01*
X30757034Y-24129774D01*
X30708000Y-24248152D01*
X30707999Y-24248157D01*
X30683000Y-24373830D01*
X30683000Y-24501969D01*
X30707999Y-24627642D01*
X30708001Y-24627651D01*
X30736671Y-24696866D01*
X30741472Y-24757862D01*
X30709502Y-24810031D01*
X30652974Y-24833446D01*
X30593479Y-24819162D01*
X30575203Y-24804755D01*
X27505535Y-21735087D01*
X27477758Y-21680570D01*
X27487329Y-21620138D01*
X27520538Y-21582768D01*
X27568830Y-21550500D01*
X27589669Y-21536576D01*
X27680276Y-21445969D01*
X27751465Y-21339427D01*
X27800501Y-21221044D01*
X27825500Y-21095369D01*
X27825500Y-20967231D01*
X27800501Y-20841556D01*
X27751465Y-20723173D01*
X27751463Y-20723170D01*
X27751461Y-20723166D01*
X27722717Y-20680148D01*
X27680276Y-20616631D01*
X27589669Y-20526024D01*
X27528762Y-20485327D01*
X27483133Y-20454838D01*
X27483125Y-20454834D01*
X27364747Y-20405800D01*
X27364745Y-20405799D01*
X27364744Y-20405799D01*
X27239069Y-20380800D01*
X27110931Y-20380800D01*
X27110930Y-20380800D01*
X27048093Y-20393299D01*
X26985256Y-20405799D01*
X26985255Y-20405799D01*
X26985252Y-20405800D01*
X26866874Y-20454834D01*
X26866866Y-20454838D01*
X26760331Y-20526024D01*
X26760320Y-20526033D01*
X26750215Y-20536138D01*
X26695697Y-20563914D01*
X26635266Y-20554340D01*
X26597899Y-20521135D01*
X26573976Y-20485331D01*
X26483369Y-20394724D01*
X26440926Y-20366365D01*
X26376833Y-20323538D01*
X26376825Y-20323534D01*
X26258447Y-20274500D01*
X26258445Y-20274499D01*
X26258444Y-20274499D01*
X26132769Y-20249500D01*
X26004631Y-20249500D01*
X26004630Y-20249500D01*
X25941793Y-20261999D01*
X25878956Y-20274499D01*
X25878955Y-20274499D01*
X25878952Y-20274500D01*
X25760574Y-20323534D01*
X25760566Y-20323538D01*
X25654031Y-20394724D01*
X25654027Y-20394727D01*
X25563427Y-20485327D01*
X25563424Y-20485331D01*
X25492238Y-20591866D01*
X25492234Y-20591874D01*
X25443200Y-20710252D01*
X25443199Y-20710255D01*
X25443199Y-20710256D01*
X25418200Y-20835931D01*
X25418200Y-20964069D01*
X25429485Y-21020803D01*
X25443199Y-21089742D01*
X25443200Y-21089747D01*
X25492234Y-21208125D01*
X25492238Y-21208133D01*
X25535065Y-21272226D01*
X25563424Y-21314669D01*
X25654031Y-21405276D01*
X25714937Y-21445972D01*
X25760566Y-21476461D01*
X25760570Y-21476463D01*
X25760573Y-21476465D01*
X25878956Y-21525501D01*
X26004631Y-21550500D01*
X26076444Y-21550500D01*
X26134635Y-21569407D01*
X26146448Y-21579496D01*
X42312637Y-37745685D01*
X42312639Y-37745686D01*
X42409659Y-37801701D01*
X42409657Y-37801701D01*
X42409661Y-37801702D01*
X42409663Y-37801703D01*
X42517882Y-37830700D01*
X42629919Y-37830700D01*
X52513391Y-37830700D01*
X52571582Y-37849607D01*
X52607546Y-37899107D01*
X52610488Y-37949013D01*
X52596800Y-38017831D01*
X52596800Y-38145969D01*
X52621545Y-38270369D01*
X52621799Y-38271642D01*
X52621800Y-38271647D01*
X52670834Y-38390025D01*
X52670838Y-38390033D01*
X52713143Y-38453345D01*
X52742024Y-38496569D01*
X52832631Y-38587176D01*
X52896148Y-38629617D01*
X52939166Y-38658361D01*
X52939170Y-38658363D01*
X52939173Y-38658365D01*
X53057556Y-38707401D01*
X53183231Y-38732400D01*
X53255044Y-38732400D01*
X53313235Y-38751307D01*
X53325048Y-38761396D01*
X54356048Y-39792396D01*
X54383825Y-39846913D01*
X54374254Y-39907345D01*
X54330989Y-39950610D01*
X54286044Y-39961400D01*
X50354642Y-39961400D01*
X50296451Y-39942493D01*
X50260487Y-39892993D01*
X50260487Y-39831807D01*
X50296451Y-39782307D01*
X50299640Y-39780085D01*
X50309029Y-39773811D01*
X50336769Y-39755276D01*
X50427376Y-39664669D01*
X50498565Y-39558127D01*
X50547601Y-39439744D01*
X50572600Y-39314069D01*
X50572600Y-39185931D01*
X50547601Y-39060256D01*
X50498565Y-38941873D01*
X50498563Y-38941870D01*
X50498561Y-38941866D01*
X50469817Y-38898848D01*
X50427376Y-38835331D01*
X50336769Y-38744724D01*
X50280908Y-38707399D01*
X50230233Y-38673538D01*
X50230225Y-38673534D01*
X50111847Y-38624500D01*
X50111845Y-38624499D01*
X50111844Y-38624499D01*
X49986169Y-38599500D01*
X49858031Y-38599500D01*
X49858030Y-38599500D01*
X49795193Y-38611999D01*
X49732356Y-38624499D01*
X49732355Y-38624499D01*
X49732352Y-38624500D01*
X49613974Y-38673534D01*
X49613966Y-38673538D01*
X49507431Y-38744724D01*
X49507427Y-38744727D01*
X49416827Y-38835327D01*
X49416824Y-38835331D01*
X49345638Y-38941866D01*
X49345634Y-38941874D01*
X49296600Y-39060252D01*
X49296599Y-39060257D01*
X49272636Y-39180725D01*
X49271600Y-39185931D01*
X49271600Y-39314069D01*
X49284292Y-39377876D01*
X49296599Y-39439742D01*
X49296600Y-39439747D01*
X49345634Y-39558125D01*
X49345638Y-39558133D01*
X49388465Y-39622226D01*
X49416824Y-39664669D01*
X49416827Y-39664672D01*
X49507431Y-39755276D01*
X49544560Y-39780085D01*
X49582439Y-39828136D01*
X49584841Y-39889274D01*
X49550847Y-39940147D01*
X49493443Y-39961324D01*
X49489558Y-39961400D01*
X41146656Y-39961400D01*
X41088465Y-39942493D01*
X41076652Y-39932404D01*
X27497796Y-26353548D01*
X27470019Y-26299031D01*
X27468800Y-26283544D01*
X27468800Y-26211732D01*
X27468800Y-26211731D01*
X27443801Y-26086056D01*
X27394765Y-25967673D01*
X27394763Y-25967670D01*
X27394761Y-25967666D01*
X27366017Y-25924648D01*
X27323576Y-25861131D01*
X27232969Y-25770524D01*
X27190526Y-25742165D01*
X27126433Y-25699338D01*
X27126425Y-25699334D01*
X27008047Y-25650300D01*
X27008045Y-25650299D01*
X27008044Y-25650299D01*
X26882369Y-25625300D01*
X26754231Y-25625300D01*
X26754230Y-25625300D01*
X26691393Y-25637799D01*
X26628556Y-25650299D01*
X26628555Y-25650299D01*
X26628552Y-25650300D01*
X26510174Y-25699334D01*
X26510166Y-25699338D01*
X26403631Y-25770524D01*
X26403627Y-25770527D01*
X26313027Y-25861127D01*
X26313024Y-25861131D01*
X26241838Y-25967666D01*
X26241834Y-25967674D01*
X26192800Y-26086052D01*
X26192799Y-26086055D01*
X26192799Y-26086056D01*
X26167800Y-26211731D01*
X26167800Y-26339869D01*
X26189485Y-26448886D01*
X26192799Y-26465542D01*
X26192800Y-26465547D01*
X26241834Y-26583925D01*
X26241838Y-26583933D01*
X26284665Y-26648026D01*
X26313024Y-26690469D01*
X26403631Y-26781076D01*
X26467148Y-26823517D01*
X26510166Y-26852261D01*
X26510170Y-26852263D01*
X26510173Y-26852265D01*
X26628556Y-26901301D01*
X26754231Y-26926300D01*
X26826044Y-26926300D01*
X26884235Y-26945207D01*
X26896048Y-26955296D01*
X40588915Y-40648163D01*
X40588914Y-40648163D01*
X40668137Y-40727385D01*
X40765159Y-40783401D01*
X40765157Y-40783401D01*
X40765161Y-40783402D01*
X40765163Y-40783403D01*
X40873382Y-40812400D01*
X49900092Y-40812400D01*
X49958283Y-40831307D01*
X49994247Y-40880807D01*
X49994795Y-40936677D01*
X49995348Y-40936787D01*
X49994822Y-40939430D01*
X49994829Y-40940139D01*
X49994399Y-40941553D01*
X49969400Y-41067230D01*
X49969400Y-41195369D01*
X49994399Y-41321042D01*
X49994400Y-41321047D01*
X50043434Y-41439425D01*
X50043435Y-41439428D01*
X50058583Y-41462097D01*
X50075192Y-41520985D01*
X50054015Y-41578389D01*
X50003142Y-41612383D01*
X49976268Y-41616100D01*
X20015219Y-41616100D01*
X19903182Y-41616100D01*
X19839737Y-41633100D01*
X19794958Y-41645098D01*
X19697939Y-41701113D01*
X10744148Y-50654904D01*
X10689631Y-50682681D01*
X10674144Y-50683900D01*
X10602330Y-50683900D01*
X10539493Y-50696399D01*
X10476656Y-50708899D01*
X10476655Y-50708899D01*
X10476652Y-50708900D01*
X10358274Y-50757934D01*
X10358266Y-50757938D01*
X10251731Y-50829124D01*
X10251727Y-50829127D01*
X10161127Y-50919727D01*
X10161124Y-50919731D01*
X10089938Y-51026266D01*
X10089934Y-51026274D01*
X10040900Y-51144652D01*
X10040899Y-51144655D01*
X10040899Y-51144656D01*
X10040154Y-51148400D01*
X10015900Y-51270330D01*
X600000Y-51270330D01*
X600000Y-32068031D01*
X22906200Y-32068031D01*
X22906200Y-32196169D01*
X22927636Y-32303933D01*
X22931199Y-32321842D01*
X22931200Y-32321847D01*
X22980234Y-32440225D01*
X22980238Y-32440233D01*
X23000041Y-32469869D01*
X23051424Y-32546769D01*
X23142031Y-32637376D01*
X23205548Y-32679817D01*
X23248566Y-32708561D01*
X23248570Y-32708563D01*
X23248573Y-32708565D01*
X23366956Y-32757601D01*
X23492631Y-32782600D01*
X23492632Y-32782600D01*
X23620768Y-32782600D01*
X23620769Y-32782600D01*
X23746444Y-32757601D01*
X23864827Y-32708565D01*
X23971369Y-32637376D01*
X24061976Y-32546769D01*
X24133165Y-32440227D01*
X24182201Y-32321844D01*
X24207200Y-32196169D01*
X24207200Y-32068031D01*
X24182201Y-31942356D01*
X24133165Y-31823973D01*
X24133163Y-31823970D01*
X24133161Y-31823966D01*
X24087279Y-31755300D01*
X24061976Y-31717431D01*
X23971369Y-31626824D01*
X23928926Y-31598465D01*
X23864833Y-31555638D01*
X23864825Y-31555634D01*
X23746447Y-31506600D01*
X23746445Y-31506599D01*
X23746444Y-31506599D01*
X23620769Y-31481600D01*
X23492631Y-31481600D01*
X23492630Y-31481600D01*
X23429793Y-31494099D01*
X23366956Y-31506599D01*
X23366955Y-31506599D01*
X23366952Y-31506600D01*
X23248574Y-31555634D01*
X23248566Y-31555638D01*
X23142031Y-31626824D01*
X23142027Y-31626827D01*
X23051427Y-31717427D01*
X23051424Y-31717431D01*
X22980238Y-31823966D01*
X22980234Y-31823974D01*
X22931200Y-31942352D01*
X22931199Y-31942357D01*
X22910847Y-32044672D01*
X22906200Y-32068031D01*
X600000Y-32068031D01*
X600000Y-27993930D01*
X15905700Y-27993930D01*
X15905700Y-28122069D01*
X15930699Y-28247742D01*
X15930700Y-28247747D01*
X15979734Y-28366125D01*
X15979738Y-28366133D01*
X16022565Y-28430226D01*
X16050924Y-28472669D01*
X16141531Y-28563276D01*
X16205048Y-28605717D01*
X16248066Y-28634461D01*
X16248070Y-28634463D01*
X16248073Y-28634465D01*
X16366456Y-28683501D01*
X16492131Y-28708500D01*
X16492132Y-28708500D01*
X16620268Y-28708500D01*
X16620269Y-28708500D01*
X16745944Y-28683501D01*
X16864327Y-28634465D01*
X16970869Y-28563276D01*
X17061476Y-28472669D01*
X17132665Y-28366127D01*
X17181701Y-28247744D01*
X17206700Y-28122069D01*
X17206700Y-27993931D01*
X17181701Y-27868256D01*
X17132665Y-27749873D01*
X17132663Y-27749870D01*
X17132661Y-27749866D01*
X17099675Y-27700500D01*
X17061476Y-27643331D01*
X16970869Y-27552724D01*
X16928426Y-27524365D01*
X16864333Y-27481538D01*
X16864325Y-27481534D01*
X16745947Y-27432500D01*
X16745945Y-27432499D01*
X16745944Y-27432499D01*
X16620269Y-27407500D01*
X16492131Y-27407500D01*
X16492130Y-27407500D01*
X16429293Y-27419999D01*
X16366456Y-27432499D01*
X16366455Y-27432499D01*
X16366452Y-27432500D01*
X16248074Y-27481534D01*
X16248066Y-27481538D01*
X16141531Y-27552724D01*
X16141527Y-27552727D01*
X16050927Y-27643327D01*
X16050924Y-27643331D01*
X15979738Y-27749866D01*
X15979734Y-27749874D01*
X15930700Y-27868252D01*
X15930699Y-27868255D01*
X15930699Y-27868256D01*
X15924198Y-27900940D01*
X15905700Y-27993930D01*
X600000Y-27993930D01*
X600000Y-27020943D01*
X18299500Y-27020943D01*
X18299500Y-27179057D01*
X18340423Y-27331784D01*
X18419480Y-27468716D01*
X18531284Y-27580520D01*
X18668216Y-27659577D01*
X18820943Y-27700500D01*
X18820945Y-27700500D01*
X18979055Y-27700500D01*
X18979057Y-27700500D01*
X19131784Y-27659577D01*
X19268716Y-27580520D01*
X19380520Y-27468716D01*
X19459577Y-27331784D01*
X19500500Y-27179057D01*
X19500500Y-27020943D01*
X19459577Y-26868216D01*
X19380520Y-26731284D01*
X19268716Y-26619480D01*
X19131784Y-26540423D01*
X18979057Y-26499500D01*
X18820943Y-26499500D01*
X18668216Y-26540423D01*
X18531284Y-26619480D01*
X18419480Y-26731284D01*
X18340423Y-26868216D01*
X18299500Y-27020943D01*
X600000Y-27020943D01*
X600000Y-24500000D01*
X11500000Y-24500000D01*
X11500001Y-24500000D01*
X22499999Y-24500000D01*
X22500000Y-24500000D01*
X22500000Y-17186030D01*
X26047600Y-17186030D01*
X26047600Y-17314169D01*
X26072599Y-17439842D01*
X26072600Y-17439847D01*
X26121634Y-17558225D01*
X26121638Y-17558233D01*
X26164465Y-17622326D01*
X26192824Y-17664769D01*
X26283431Y-17755376D01*
X26346948Y-17797817D01*
X26389966Y-17826561D01*
X26389970Y-17826563D01*
X26389973Y-17826565D01*
X26508356Y-17875601D01*
X26634031Y-17900600D01*
X26634032Y-17900600D01*
X26762168Y-17900600D01*
X26762169Y-17900600D01*
X26887844Y-17875601D01*
X27006227Y-17826565D01*
X27112769Y-17755376D01*
X27203376Y-17664769D01*
X27274565Y-17558227D01*
X27323601Y-17439844D01*
X27348600Y-17314169D01*
X27348600Y-17186031D01*
X27323601Y-17060356D01*
X27274565Y-16941973D01*
X27274563Y-16941970D01*
X27274561Y-16941966D01*
X27245817Y-16898948D01*
X27203376Y-16835431D01*
X27112769Y-16744824D01*
X27070326Y-16716465D01*
X27006233Y-16673638D01*
X27006225Y-16673634D01*
X26887847Y-16624600D01*
X26887845Y-16624599D01*
X26887844Y-16624599D01*
X26762169Y-16599600D01*
X26634031Y-16599600D01*
X26634030Y-16599600D01*
X26571193Y-16612099D01*
X26508356Y-16624599D01*
X26508355Y-16624599D01*
X26508352Y-16624600D01*
X26389974Y-16673634D01*
X26389966Y-16673638D01*
X26283431Y-16744824D01*
X26283427Y-16744827D01*
X26192827Y-16835427D01*
X26192824Y-16835431D01*
X26121638Y-16941966D01*
X26121634Y-16941974D01*
X26072600Y-17060352D01*
X26072599Y-17060357D01*
X26047600Y-17186030D01*
X22500000Y-17186030D01*
X22500000Y-15115030D01*
X29130800Y-15115030D01*
X29130800Y-15243169D01*
X29155799Y-15368842D01*
X29155800Y-15368847D01*
X29204834Y-15487225D01*
X29204838Y-15487233D01*
X29247665Y-15551326D01*
X29276024Y-15593769D01*
X29366631Y-15684376D01*
X29430148Y-15726817D01*
X29473166Y-15755561D01*
X29473170Y-15755563D01*
X29473173Y-15755565D01*
X29591556Y-15804601D01*
X29717231Y-15829600D01*
X29717232Y-15829600D01*
X29845368Y-15829600D01*
X29845369Y-15829600D01*
X29971044Y-15804601D01*
X30089427Y-15755565D01*
X30195969Y-15684376D01*
X30286576Y-15593769D01*
X30357765Y-15487227D01*
X30406801Y-15368844D01*
X30431800Y-15243169D01*
X30431800Y-15115031D01*
X30406801Y-14989356D01*
X30357765Y-14870973D01*
X30357763Y-14870970D01*
X30357761Y-14870966D01*
X30329017Y-14827948D01*
X30286576Y-14764431D01*
X30195969Y-14673824D01*
X30153526Y-14645465D01*
X30089433Y-14602638D01*
X30089425Y-14602634D01*
X29971047Y-14553600D01*
X29971045Y-14553599D01*
X29971044Y-14553599D01*
X29845369Y-14528600D01*
X29717231Y-14528600D01*
X29717230Y-14528600D01*
X29654393Y-14541099D01*
X29591556Y-14553599D01*
X29591555Y-14553599D01*
X29591552Y-14553600D01*
X29473174Y-14602634D01*
X29473166Y-14602638D01*
X29366631Y-14673824D01*
X29366627Y-14673827D01*
X29276027Y-14764427D01*
X29276024Y-14764431D01*
X29204838Y-14870966D01*
X29204834Y-14870974D01*
X29155800Y-14989352D01*
X29155799Y-14989357D01*
X29130800Y-15115030D01*
X22500000Y-15115030D01*
X22500000Y-13500000D01*
X11500000Y-13500000D01*
X11500000Y-24500000D01*
X600000Y-24500000D01*
X600000Y-10108330D01*
X21535700Y-10108330D01*
X21535700Y-10236469D01*
X21560699Y-10362142D01*
X21560700Y-10362147D01*
X21609734Y-10480525D01*
X21609738Y-10480533D01*
X21652565Y-10544626D01*
X21680924Y-10587069D01*
X21771531Y-10677676D01*
X21835048Y-10720117D01*
X21878066Y-10748861D01*
X21878070Y-10748863D01*
X21878073Y-10748865D01*
X21996456Y-10797901D01*
X22122131Y-10822900D01*
X22122132Y-10822900D01*
X22250268Y-10822900D01*
X22250269Y-10822900D01*
X22375944Y-10797901D01*
X22494327Y-10748865D01*
X22600869Y-10677676D01*
X22691476Y-10587069D01*
X22762665Y-10480527D01*
X22811701Y-10362144D01*
X22836700Y-10236469D01*
X22836700Y-10108331D01*
X22811701Y-9982656D01*
X22762665Y-9864273D01*
X22762663Y-9864270D01*
X22762661Y-9864266D01*
X22733917Y-9821248D01*
X22691476Y-9757731D01*
X22600869Y-9667124D01*
X22558426Y-9638765D01*
X22494333Y-9595938D01*
X22494325Y-9595934D01*
X22375947Y-9546900D01*
X22375945Y-9546899D01*
X22375944Y-9546899D01*
X22250269Y-9521900D01*
X22122131Y-9521900D01*
X22122130Y-9521900D01*
X22059293Y-9534399D01*
X21996456Y-9546899D01*
X21996455Y-9546899D01*
X21996452Y-9546900D01*
X21878074Y-9595934D01*
X21878066Y-9595938D01*
X21771531Y-9667124D01*
X21771527Y-9667127D01*
X21680927Y-9757727D01*
X21680924Y-9757731D01*
X21609738Y-9864266D01*
X21609734Y-9864274D01*
X21560700Y-9982652D01*
X21560699Y-9982657D01*
X21535700Y-10108330D01*
X600000Y-10108330D01*
X600000Y-8356030D01*
X23375000Y-8356030D01*
X23375000Y-8484169D01*
X23399999Y-8609842D01*
X23400000Y-8609847D01*
X23449034Y-8728225D01*
X23449038Y-8728233D01*
X23491865Y-8792326D01*
X23520224Y-8834769D01*
X23610831Y-8925376D01*
X23674348Y-8967817D01*
X23717366Y-8996561D01*
X23717370Y-8996563D01*
X23717373Y-8996565D01*
X23835756Y-9045601D01*
X23961431Y-9070600D01*
X23961432Y-9070600D01*
X24089568Y-9070600D01*
X24089569Y-9070600D01*
X24215244Y-9045601D01*
X24333627Y-8996565D01*
X24440169Y-8925376D01*
X24530776Y-8834769D01*
X24601965Y-8728227D01*
X24651001Y-8609844D01*
X24676000Y-8484169D01*
X24676000Y-8356031D01*
X24651001Y-8230356D01*
X24601965Y-8111973D01*
X24601963Y-8111970D01*
X24601961Y-8111966D01*
X24573217Y-8068948D01*
X24530776Y-8005431D01*
X24440169Y-7914824D01*
X24397726Y-7886465D01*
X24333633Y-7843638D01*
X24333625Y-7843634D01*
X24215247Y-7794600D01*
X24215245Y-7794599D01*
X24215244Y-7794599D01*
X24089569Y-7769600D01*
X23961431Y-7769600D01*
X23961430Y-7769600D01*
X23898593Y-7782099D01*
X23835756Y-7794599D01*
X23835755Y-7794599D01*
X23835752Y-7794600D01*
X23717374Y-7843634D01*
X23717366Y-7843638D01*
X23610831Y-7914824D01*
X23610827Y-7914827D01*
X23520227Y-8005427D01*
X23520224Y-8005431D01*
X23449038Y-8111966D01*
X23449034Y-8111974D01*
X23400000Y-8230352D01*
X23399999Y-8230357D01*
X23375000Y-8356030D01*
X600000Y-8356030D01*
X600000Y-4885265D01*
X3249500Y-4885265D01*
X3249500Y-5114734D01*
X3279452Y-5342238D01*
X3338841Y-5563885D01*
X3426653Y-5775883D01*
X3426656Y-5775888D01*
X3541389Y-5974612D01*
X3681081Y-6156661D01*
X3843339Y-6318919D01*
X4025388Y-6458611D01*
X4224112Y-6573344D01*
X4224113Y-6573344D01*
X4224116Y-6573346D01*
X4320167Y-6613131D01*
X4436113Y-6661158D01*
X4657762Y-6720548D01*
X4885266Y-6750500D01*
X4885267Y-6750500D01*
X5114733Y-6750500D01*
X5114734Y-6750500D01*
X5342238Y-6720548D01*
X5563887Y-6661158D01*
X5775888Y-6573344D01*
X5974612Y-6458611D01*
X6156661Y-6318919D01*
X6318919Y-6156661D01*
X6458611Y-5974612D01*
X6573344Y-5775888D01*
X6661158Y-5563887D01*
X6720548Y-5342238D01*
X6750500Y-5114734D01*
X6750500Y-4885266D01*
X6720548Y-4657762D01*
X6661158Y-4436113D01*
X6573344Y-4224112D01*
X6458611Y-4025388D01*
X6318919Y-3843339D01*
X6156661Y-3681081D01*
X5974612Y-3541389D01*
X5974613Y-3541389D01*
X5974611Y-3541388D01*
X5775883Y-3426653D01*
X5563885Y-3338841D01*
X5342238Y-3279452D01*
X5114734Y-3249500D01*
X4885266Y-3249500D01*
X4885265Y-3249500D01*
X4657761Y-3279452D01*
X4436114Y-3338841D01*
X4224116Y-3426653D01*
X4025388Y-3541388D01*
X3843342Y-3681078D01*
X3681078Y-3843342D01*
X3541388Y-4025388D01*
X3426653Y-4224116D01*
X3338841Y-4436114D01*
X3279452Y-4657761D01*
X3249500Y-4885265D01*
X600000Y-4885265D01*
X600000Y-2331557D01*
X604489Y-2302083D01*
X661391Y-2119622D01*
X665631Y-2108450D01*
X784635Y-1844153D01*
X790180Y-1833591D01*
X940179Y-1585525D01*
X946941Y-1575729D01*
X1125736Y-1347540D01*
X1133639Y-1338620D01*
X1338620Y-1133639D01*
X1347540Y-1125736D01*
X1575729Y-946941D01*
X1585525Y-940179D01*
X1833591Y-790180D01*
X1844153Y-784635D01*
X2108455Y-665629D01*
X2119617Y-661392D01*
X2300943Y-604845D01*
X2302085Y-604489D01*
X2331559Y-600000D01*
X35901000Y-600000D01*
X35959191Y-618907D01*
G37*
%TD.AperFunction*%
%TD*%
M02*
