%TF.GenerationSoftware,KiCad,Pcbnew,10.0.5*%
%TF.CreationDate,2026-08-13T00:09:28+03:00*%
%TF.ProjectId,skysweep32_rev_c,736b7973-7765-4657-9033-325f7265765f,rev?*%
%TF.SameCoordinates,Original*%
%TF.FileFunction,Drillmap*%
%TF.FilePolarity,Positive*%
%FSLAX45Y45*%
G04 Gerber Fmt 4.5, Leading zero omitted, Abs format (unit mm)*
G04 Created by KiCad (PCBNEW 10.0.5) date 2026-08-13 00:09:28*
%MOMM*%
%LPD*%
G01*
G04 APERTURE LIST*
%ADD10C,0.100000*%
%ADD11C,0.200000*%
%ADD12C,0.150000*%
G04 APERTURE END LIST*
D10*
X0Y-300000D02*
G75*
G02*
X300000Y0I300109J-109D01*
G01*
X0Y-9200000D02*
X0Y-300000D01*
X300000Y0D02*
X14700000Y0D01*
X300000Y-9500000D02*
G75*
G02*
X0Y-9200000I109J300109D01*
G01*
X14700000Y0D02*
G75*
G02*
X15000000Y-300000I-110J-300110D01*
G01*
X14700000Y-9500000D02*
X300000Y-9500000D01*
X15000000Y-300000D02*
X15000000Y-9200000D01*
X15000000Y-9200000D02*
G75*
G02*
X14700000Y-9500000I-300110J110D01*
G01*
D11*
D10*
X6900000Y-3066000D02*
X6920000Y-3086000D01*
X6920000Y-3066000D02*
X6900000Y-3086000D01*
X6900000Y-3206000D02*
X6920000Y-3226000D01*
X6920000Y-3206000D02*
X6900000Y-3226000D01*
X6970000Y-2996000D02*
X6990000Y-3016000D01*
X6990000Y-2996000D02*
X6970000Y-3016000D01*
X6970000Y-3136000D02*
X6990000Y-3156000D01*
X6990000Y-3136000D02*
X6970000Y-3156000D01*
X6970000Y-3276000D02*
X6990000Y-3296000D01*
X6990000Y-3276000D02*
X6970000Y-3296000D01*
X7040000Y-3066000D02*
X7060000Y-3086000D01*
X7060000Y-3066000D02*
X7040000Y-3086000D01*
X7040000Y-3206000D02*
X7060000Y-3226000D01*
X7060000Y-3206000D02*
X7040000Y-3226000D01*
X7110000Y-2996000D02*
X7130000Y-3016000D01*
X7130000Y-2996000D02*
X7110000Y-3016000D01*
X7110000Y-3136000D02*
X7130000Y-3156000D01*
X7130000Y-3136000D02*
X7110000Y-3156000D01*
X7110000Y-3276000D02*
X7130000Y-3296000D01*
X7130000Y-3276000D02*
X7110000Y-3296000D01*
X7180000Y-3066000D02*
X7200000Y-3086000D01*
X7200000Y-3066000D02*
X7180000Y-3086000D01*
X7180000Y-3206000D02*
X7200000Y-3226000D01*
X7200000Y-3206000D02*
X7180000Y-3226000D01*
X582600Y-4580000D02*
G75*
G02*
X552600Y-4580000I-15000J0D01*
G01*
X552600Y-4580000D02*
G75*
G02*
X582600Y-4580000I15000J0D01*
G01*
X582920Y-5390000D02*
G75*
G02*
X552920Y-5390000I-15000J0D01*
G01*
X552920Y-5390000D02*
G75*
G02*
X582920Y-5390000I15000J0D01*
G01*
X907720Y-1610000D02*
G75*
G02*
X877720Y-1610000I-15000J0D01*
G01*
X877720Y-1610000D02*
G75*
G02*
X907720Y-1610000I15000J0D01*
G01*
X1178750Y-2315910D02*
G75*
G02*
X1148750Y-2315910I-15000J0D01*
G01*
X1148750Y-2315910D02*
G75*
G02*
X1178750Y-2315910I15000J0D01*
G01*
X1393170Y-7939200D02*
G75*
G02*
X1363170Y-7939200I-15000J0D01*
G01*
X1363170Y-7939200D02*
G75*
G02*
X1393170Y-7939200I15000J0D01*
G01*
X1546240Y-7687020D02*
G75*
G02*
X1516240Y-7687020I-15000J0D01*
G01*
X1516240Y-7687020D02*
G75*
G02*
X1546240Y-7687020I15000J0D01*
G01*
X1608520Y-7102480D02*
G75*
G02*
X1578520Y-7102480I-15000J0D01*
G01*
X1578520Y-7102480D02*
G75*
G02*
X1608520Y-7102480I15000J0D01*
G01*
X1684750Y-5699000D02*
G75*
G02*
X1654750Y-5699000I-15000J0D01*
G01*
X1654750Y-5699000D02*
G75*
G02*
X1684750Y-5699000I15000J0D01*
G01*
X1686290Y-7028950D02*
G75*
G02*
X1656290Y-7028950I-15000J0D01*
G01*
X1656290Y-7028950D02*
G75*
G02*
X1686290Y-7028950I15000J0D01*
G01*
X1789220Y-5445000D02*
G75*
G02*
X1759220Y-5445000I-15000J0D01*
G01*
X1759220Y-5445000D02*
G75*
G02*
X1789220Y-5445000I15000J0D01*
G01*
X1870010Y-2706410D02*
G75*
G02*
X1840010Y-2706410I-15000J0D01*
G01*
X1840010Y-2706410D02*
G75*
G02*
X1870010Y-2706410I15000J0D01*
G01*
X1902470Y-5740750D02*
G75*
G02*
X1872470Y-5740750I-15000J0D01*
G01*
X1872470Y-5740750D02*
G75*
G02*
X1902470Y-5740750I15000J0D01*
G01*
X2363140Y-6108410D02*
G75*
G02*
X2333140Y-6108410I-15000J0D01*
G01*
X2333140Y-6108410D02*
G75*
G02*
X2363140Y-6108410I15000J0D01*
G01*
X2393880Y-7998960D02*
G75*
G02*
X2363880Y-7998960I-15000J0D01*
G01*
X2363880Y-7998960D02*
G75*
G02*
X2393880Y-7998960I15000J0D01*
G01*
X2488360Y-6395440D02*
G75*
G02*
X2458360Y-6395440I-15000J0D01*
G01*
X2458360Y-6395440D02*
G75*
G02*
X2488360Y-6395440I15000J0D01*
G01*
X2518310Y-6700000D02*
G75*
G02*
X2488310Y-6700000I-15000J0D01*
G01*
X2488310Y-6700000D02*
G75*
G02*
X2518310Y-6700000I15000J0D01*
G01*
X2588830Y-7075000D02*
G75*
G02*
X2558830Y-7075000I-15000J0D01*
G01*
X2558830Y-7075000D02*
G75*
G02*
X2588830Y-7075000I15000J0D01*
G01*
X2624830Y-839840D02*
G75*
G02*
X2594830Y-839840I-15000J0D01*
G01*
X2594830Y-839840D02*
G75*
G02*
X2624830Y-839840I15000J0D01*
G01*
X2757690Y-7353830D02*
G75*
G02*
X2727690Y-7353830I-15000J0D01*
G01*
X2727690Y-7353830D02*
G75*
G02*
X2757690Y-7353830I15000J0D01*
G01*
X2758710Y-2233990D02*
G75*
G02*
X2728710Y-2233990I-15000J0D01*
G01*
X2728710Y-2233990D02*
G75*
G02*
X2758710Y-2233990I15000J0D01*
G01*
X2767440Y-1828500D02*
G75*
G02*
X2737440Y-1828500I-15000J0D01*
G01*
X2737440Y-1828500D02*
G75*
G02*
X2767440Y-1828500I15000J0D01*
G01*
X2781840Y-6687660D02*
G75*
G02*
X2751840Y-6687660I-15000J0D01*
G01*
X2751840Y-6687660D02*
G75*
G02*
X2781840Y-6687660I15000J0D01*
G01*
X2875090Y-6755330D02*
G75*
G02*
X2845090Y-6755330I-15000J0D01*
G01*
X2845090Y-6755330D02*
G75*
G02*
X2875090Y-6755330I15000J0D01*
G01*
X2903660Y-7244510D02*
G75*
G02*
X2873660Y-7244510I-15000J0D01*
G01*
X2873660Y-7244510D02*
G75*
G02*
X2903660Y-7244510I15000J0D01*
G01*
X2928450Y-2605400D02*
G75*
G02*
X2898450Y-2605400I-15000J0D01*
G01*
X2898450Y-2605400D02*
G75*
G02*
X2928450Y-2605400I15000J0D01*
G01*
X3012650Y-2080150D02*
G75*
G02*
X2982650Y-2080150I-15000J0D01*
G01*
X2982650Y-2080150D02*
G75*
G02*
X3012650Y-2080150I15000J0D01*
G01*
X3049430Y-1504800D02*
G75*
G02*
X3019430Y-1504800I-15000J0D01*
G01*
X3019430Y-1504800D02*
G75*
G02*
X3049430Y-1504800I15000J0D01*
G01*
X3068770Y-2640050D02*
G75*
G02*
X3038770Y-2640050I-15000J0D01*
G01*
X3038770Y-2640050D02*
G75*
G02*
X3068770Y-2640050I15000J0D01*
G01*
X3176590Y-6902480D02*
G75*
G02*
X3146590Y-6902480I-15000J0D01*
G01*
X3146590Y-6902480D02*
G75*
G02*
X3176590Y-6902480I15000J0D01*
G01*
X3232500Y-6604590D02*
G75*
G02*
X3202500Y-6604590I-15000J0D01*
G01*
X3202500Y-6604590D02*
G75*
G02*
X3232500Y-6604590I15000J0D01*
G01*
X3511940Y-7079440D02*
G75*
G02*
X3481940Y-7079440I-15000J0D01*
G01*
X3481940Y-7079440D02*
G75*
G02*
X3511940Y-7079440I15000J0D01*
G01*
X3555210Y-8649200D02*
G75*
G02*
X3525210Y-8649200I-15000J0D01*
G01*
X3525210Y-8649200D02*
G75*
G02*
X3555210Y-8649200I15000J0D01*
G01*
X3563080Y-8878810D02*
G75*
G02*
X3533080Y-8878810I-15000J0D01*
G01*
X3533080Y-8878810D02*
G75*
G02*
X3563080Y-8878810I15000J0D01*
G01*
X3666520Y-7862550D02*
G75*
G02*
X3636520Y-7862550I-15000J0D01*
G01*
X3636520Y-7862550D02*
G75*
G02*
X3666520Y-7862550I15000J0D01*
G01*
X3765250Y-7605000D02*
G75*
G02*
X3735250Y-7605000I-15000J0D01*
G01*
X3735250Y-7605000D02*
G75*
G02*
X3765250Y-7605000I15000J0D01*
G01*
X3781720Y-1755690D02*
G75*
G02*
X3751720Y-1755690I-15000J0D01*
G01*
X3751720Y-1755690D02*
G75*
G02*
X3781720Y-1755690I15000J0D01*
G01*
X4697590Y-7848990D02*
G75*
G02*
X4667590Y-7848990I-15000J0D01*
G01*
X4667590Y-7848990D02*
G75*
G02*
X4697590Y-7848990I15000J0D01*
G01*
X4766460Y-7550000D02*
G75*
G02*
X4736460Y-7550000I-15000J0D01*
G01*
X4736460Y-7550000D02*
G75*
G02*
X4766460Y-7550000I15000J0D01*
G01*
X4965000Y-6950000D02*
G75*
G02*
X4935000Y-6950000I-15000J0D01*
G01*
X4935000Y-6950000D02*
G75*
G02*
X4965000Y-6950000I15000J0D01*
G01*
X5465000Y-6950000D02*
G75*
G02*
X5435000Y-6950000I-15000J0D01*
G01*
X5435000Y-6950000D02*
G75*
G02*
X5465000Y-6950000I15000J0D01*
G01*
X5524360Y-3898000D02*
G75*
G02*
X5494360Y-3898000I-15000J0D01*
G01*
X5494360Y-3898000D02*
G75*
G02*
X5524360Y-3898000I15000J0D01*
G01*
X5636980Y-6850000D02*
G75*
G02*
X5606980Y-6850000I-15000J0D01*
G01*
X5606980Y-6850000D02*
G75*
G02*
X5636980Y-6850000I15000J0D01*
G01*
X6092650Y-3275260D02*
G75*
G02*
X6062650Y-3275260I-15000J0D01*
G01*
X6062650Y-3275260D02*
G75*
G02*
X6092650Y-3275260I15000J0D01*
G01*
X6382040Y-4125400D02*
G75*
G02*
X6352040Y-4125400I-15000J0D01*
G01*
X6352040Y-4125400D02*
G75*
G02*
X6382040Y-4125400I15000J0D01*
G01*
X6477530Y-3061760D02*
G75*
G02*
X6447530Y-3061760I-15000J0D01*
G01*
X6447530Y-3061760D02*
G75*
G02*
X6477530Y-3061760I15000J0D01*
G01*
X6498450Y-2882000D02*
G75*
G02*
X6468450Y-2882000I-15000J0D01*
G01*
X6468450Y-2882000D02*
G75*
G02*
X6498450Y-2882000I15000J0D01*
G01*
X6693280Y-3659350D02*
G75*
G02*
X6663280Y-3659350I-15000J0D01*
G01*
X6663280Y-3659350D02*
G75*
G02*
X6693280Y-3659350I15000J0D01*
G01*
X6835950Y-4018580D02*
G75*
G02*
X6805950Y-4018580I-15000J0D01*
G01*
X6805950Y-4018580D02*
G75*
G02*
X6835950Y-4018580I15000J0D01*
G01*
X6963490Y-3837640D02*
G75*
G02*
X6933490Y-3837640I-15000J0D01*
G01*
X6933490Y-3837640D02*
G75*
G02*
X6963490Y-3837640I15000J0D01*
G01*
X7065100Y-4308000D02*
G75*
G02*
X7035100Y-4308000I-15000J0D01*
G01*
X7035100Y-4308000D02*
G75*
G02*
X7065100Y-4308000I15000J0D01*
G01*
X7124700Y-3742040D02*
G75*
G02*
X7094700Y-3742040I-15000J0D01*
G01*
X7094700Y-3742040D02*
G75*
G02*
X7124700Y-3742040I15000J0D01*
G01*
X7165860Y-2374000D02*
G75*
G02*
X7135860Y-2374000I-15000J0D01*
G01*
X7135860Y-2374000D02*
G75*
G02*
X7165860Y-2374000I15000J0D01*
G01*
X7179860Y-4490910D02*
G75*
G02*
X7149860Y-4490910I-15000J0D01*
G01*
X7149860Y-4490910D02*
G75*
G02*
X7179860Y-4490910I15000J0D01*
G01*
X7181800Y-4290770D02*
G75*
G02*
X7151800Y-4290770I-15000J0D01*
G01*
X7151800Y-4290770D02*
G75*
G02*
X7181800Y-4290770I15000J0D01*
G01*
X7215000Y-4684250D02*
G75*
G02*
X7185000Y-4684250I-15000J0D01*
G01*
X7185000Y-4684250D02*
G75*
G02*
X7215000Y-4684250I15000J0D01*
G01*
X7271700Y-3466260D02*
G75*
G02*
X7241700Y-3466260I-15000J0D01*
G01*
X7241700Y-3466260D02*
G75*
G02*
X7271700Y-3466260I15000J0D01*
G01*
X7283330Y-3559730D02*
G75*
G02*
X7253330Y-3559730I-15000J0D01*
G01*
X7253330Y-3559730D02*
G75*
G02*
X7283330Y-3559730I15000J0D01*
G01*
X7325360Y-4494900D02*
G75*
G02*
X7295360Y-4494900I-15000J0D01*
G01*
X7295360Y-4494900D02*
G75*
G02*
X7325360Y-4494900I15000J0D01*
G01*
X7339880Y-2960890D02*
G75*
G02*
X7309880Y-2960890I-15000J0D01*
G01*
X7309880Y-2960890D02*
G75*
G02*
X7339880Y-2960890I15000J0D01*
G01*
X7363060Y-3905310D02*
G75*
G02*
X7333060Y-3905310I-15000J0D01*
G01*
X7333060Y-3905310D02*
G75*
G02*
X7363060Y-3905310I15000J0D01*
G01*
X7627410Y-5155360D02*
G75*
G02*
X7597410Y-5155360I-15000J0D01*
G01*
X7597410Y-5155360D02*
G75*
G02*
X7627410Y-5155360I15000J0D01*
G01*
X7646030Y-2922490D02*
G75*
G02*
X7616030Y-2922490I-15000J0D01*
G01*
X7616030Y-2922490D02*
G75*
G02*
X7646030Y-2922490I15000J0D01*
G01*
X7647480Y-2726250D02*
G75*
G02*
X7617480Y-2726250I-15000J0D01*
G01*
X7617480Y-2726250D02*
G75*
G02*
X7647480Y-2726250I15000J0D01*
G01*
X7766870Y-2882000D02*
G75*
G02*
X7736870Y-2882000I-15000J0D01*
G01*
X7736870Y-2882000D02*
G75*
G02*
X7766870Y-2882000I15000J0D01*
G01*
X7927950Y-2793920D02*
G75*
G02*
X7897950Y-2793920I-15000J0D01*
G01*
X7897950Y-2793920D02*
G75*
G02*
X7927950Y-2793920I15000J0D01*
G01*
X7938850Y-2626430D02*
G75*
G02*
X7908850Y-2626430I-15000J0D01*
G01*
X7908850Y-2626430D02*
G75*
G02*
X7938850Y-2626430I15000J0D01*
G01*
X7965000Y-8563640D02*
G75*
G02*
X7935000Y-8563640I-15000J0D01*
G01*
X7935000Y-8563640D02*
G75*
G02*
X7965000Y-8563640I15000J0D01*
G01*
X8002770Y-8096300D02*
G75*
G02*
X7972770Y-8096300I-15000J0D01*
G01*
X7972770Y-8096300D02*
G75*
G02*
X8002770Y-8096300I15000J0D01*
G01*
X8221280Y-2628120D02*
G75*
G02*
X8191280Y-2628120I-15000J0D01*
G01*
X8191280Y-2628120D02*
G75*
G02*
X8221280Y-2628120I15000J0D01*
G01*
X8291550Y-2755000D02*
G75*
G02*
X8261550Y-2755000I-15000J0D01*
G01*
X8261550Y-2755000D02*
G75*
G02*
X8291550Y-2755000I15000J0D01*
G01*
X8291550Y-3136000D02*
G75*
G02*
X8261550Y-3136000I-15000J0D01*
G01*
X8261550Y-3136000D02*
G75*
G02*
X8291550Y-3136000I15000J0D01*
G01*
X8346140Y-3263000D02*
G75*
G02*
X8316140Y-3263000I-15000J0D01*
G01*
X8316140Y-3263000D02*
G75*
G02*
X8346140Y-3263000I15000J0D01*
G01*
X8415000Y-8100000D02*
G75*
G02*
X8385000Y-8100000I-15000J0D01*
G01*
X8385000Y-8100000D02*
G75*
G02*
X8415000Y-8100000I15000J0D01*
G01*
X8416360Y-5059420D02*
G75*
G02*
X8386360Y-5059420I-15000J0D01*
G01*
X8386360Y-5059420D02*
G75*
G02*
X8416360Y-5059420I15000J0D01*
G01*
X8485200Y-3390000D02*
G75*
G02*
X8455200Y-3390000I-15000J0D01*
G01*
X8455200Y-3390000D02*
G75*
G02*
X8485200Y-3390000I15000J0D01*
G01*
X8540430Y-7980000D02*
G75*
G02*
X8510430Y-7980000I-15000J0D01*
G01*
X8510430Y-7980000D02*
G75*
G02*
X8540430Y-7980000I15000J0D01*
G01*
X8615000Y-9000000D02*
G75*
G02*
X8585000Y-9000000I-15000J0D01*
G01*
X8585000Y-9000000D02*
G75*
G02*
X8615000Y-9000000I15000J0D01*
G01*
X8787410Y-4025000D02*
G75*
G02*
X8757410Y-4025000I-15000J0D01*
G01*
X8757410Y-4025000D02*
G75*
G02*
X8787410Y-4025000I15000J0D01*
G01*
X8906680Y-5083720D02*
G75*
G02*
X8876680Y-5083720I-15000J0D01*
G01*
X8876680Y-5083720D02*
G75*
G02*
X8906680Y-5083720I15000J0D01*
G01*
X9648190Y-6722770D02*
G75*
G02*
X9618190Y-6722770I-15000J0D01*
G01*
X9618190Y-6722770D02*
G75*
G02*
X9648190Y-6722770I15000J0D01*
G01*
X9664710Y-3009000D02*
G75*
G02*
X9634710Y-3009000I-15000J0D01*
G01*
X9634710Y-3009000D02*
G75*
G02*
X9664710Y-3009000I15000J0D01*
G01*
X9878300Y-4392650D02*
G75*
G02*
X9848300Y-4392650I-15000J0D01*
G01*
X9848300Y-4392650D02*
G75*
G02*
X9878300Y-4392650I15000J0D01*
G01*
X10016880Y-4309140D02*
G75*
G02*
X9986880Y-4309140I-15000J0D01*
G01*
X9986880Y-4309140D02*
G75*
G02*
X10016880Y-4309140I15000J0D01*
G01*
X10559320Y-4512970D02*
G75*
G02*
X10529320Y-4512970I-15000J0D01*
G01*
X10529320Y-4512970D02*
G75*
G02*
X10559320Y-4512970I15000J0D01*
G01*
X10615960Y-3517000D02*
G75*
G02*
X10585960Y-3517000I-15000J0D01*
G01*
X10585960Y-3517000D02*
G75*
G02*
X10615960Y-3517000I15000J0D01*
G01*
X10659720Y-8815000D02*
G75*
G02*
X10629720Y-8815000I-15000J0D01*
G01*
X10629720Y-8815000D02*
G75*
G02*
X10659720Y-8815000I15000J0D01*
G01*
X10691750Y-4904510D02*
G75*
G02*
X10661750Y-4904510I-15000J0D01*
G01*
X10661750Y-4904510D02*
G75*
G02*
X10691750Y-4904510I15000J0D01*
G01*
X10765840Y-8268850D02*
G75*
G02*
X10735840Y-8268850I-15000J0D01*
G01*
X10735840Y-8268850D02*
G75*
G02*
X10765840Y-8268850I15000J0D01*
G01*
X10915000Y-7600000D02*
G75*
G02*
X10885000Y-7600000I-15000J0D01*
G01*
X10885000Y-7600000D02*
G75*
G02*
X10915000Y-7600000I15000J0D01*
G01*
X11136380Y-4119900D02*
G75*
G02*
X11106380Y-4119900I-15000J0D01*
G01*
X11106380Y-4119900D02*
G75*
G02*
X11136380Y-4119900I15000J0D01*
G01*
X11615000Y-8500000D02*
G75*
G02*
X11585000Y-8500000I-15000J0D01*
G01*
X11585000Y-8500000D02*
G75*
G02*
X11615000Y-8500000I15000J0D01*
G01*
X11865000Y-7850000D02*
G75*
G02*
X11835000Y-7850000I-15000J0D01*
G01*
X11835000Y-7850000D02*
G75*
G02*
X11865000Y-7850000I15000J0D01*
G01*
X12278480Y-8419020D02*
G75*
G02*
X12248480Y-8419020I-15000J0D01*
G01*
X12248480Y-8419020D02*
G75*
G02*
X12278480Y-8419020I15000J0D01*
G01*
X12308700Y-4148750D02*
G75*
G02*
X12278700Y-4148750I-15000J0D01*
G01*
X12278700Y-4148750D02*
G75*
G02*
X12308700Y-4148750I15000J0D01*
G01*
X12339420Y-1609370D02*
G75*
G02*
X12309420Y-1609370I-15000J0D01*
G01*
X12309420Y-1609370D02*
G75*
G02*
X12339420Y-1609370I15000J0D01*
G01*
X12450680Y-4240000D02*
G75*
G02*
X12420680Y-4240000I-15000J0D01*
G01*
X12420680Y-4240000D02*
G75*
G02*
X12450680Y-4240000I15000J0D01*
G01*
X12571600Y-1549890D02*
G75*
G02*
X12541600Y-1549890I-15000J0D01*
G01*
X12541600Y-1549890D02*
G75*
G02*
X12571600Y-1549890I15000J0D01*
G01*
X12596230Y-1375450D02*
G75*
G02*
X12566230Y-1375450I-15000J0D01*
G01*
X12566230Y-1375450D02*
G75*
G02*
X12596230Y-1375450I15000J0D01*
G01*
X12719910Y-1305000D02*
G75*
G02*
X12689910Y-1305000I-15000J0D01*
G01*
X12689910Y-1305000D02*
G75*
G02*
X12719910Y-1305000I15000J0D01*
G01*
X12754820Y-1745250D02*
G75*
G02*
X12724820Y-1745250I-15000J0D01*
G01*
X12724820Y-1745250D02*
G75*
G02*
X12754820Y-1745250I15000J0D01*
G01*
X12932500Y-8200000D02*
G75*
G02*
X12902500Y-8200000I-15000J0D01*
G01*
X12902500Y-8200000D02*
G75*
G02*
X12932500Y-8200000I15000J0D01*
G01*
X13022240Y-8795000D02*
G75*
G02*
X12992240Y-8795000I-15000J0D01*
G01*
X12992240Y-8795000D02*
G75*
G02*
X13022240Y-8795000I15000J0D01*
G01*
X13292070Y-7697100D02*
G75*
G02*
X13262070Y-7697100I-15000J0D01*
G01*
X13262070Y-7697100D02*
G75*
G02*
X13292070Y-7697100I15000J0D01*
G01*
X13395120Y-7407600D02*
G75*
G02*
X13365120Y-7407600I-15000J0D01*
G01*
X13365120Y-7407600D02*
G75*
G02*
X13395120Y-7407600I15000J0D01*
G01*
X13613340Y-7090500D02*
G75*
G02*
X13583340Y-7090500I-15000J0D01*
G01*
X13583340Y-7090500D02*
G75*
G02*
X13613340Y-7090500I15000J0D01*
G01*
X13771520Y-1448250D02*
G75*
G02*
X13741520Y-1448250I-15000J0D01*
G01*
X13741520Y-1448250D02*
G75*
G02*
X13771520Y-1448250I15000J0D01*
G01*
X13857800Y-1686000D02*
G75*
G02*
X13827800Y-1686000I-15000J0D01*
G01*
X13827800Y-1686000D02*
G75*
G02*
X13857800Y-1686000I15000J0D01*
G01*
X13880780Y-6650500D02*
G75*
G02*
X13850780Y-6650500I-15000J0D01*
G01*
X13850780Y-6650500D02*
G75*
G02*
X13880780Y-6650500I15000J0D01*
G01*
X13881810Y-6858000D02*
G75*
G02*
X13851810Y-6858000I-15000J0D01*
G01*
X13851810Y-6858000D02*
G75*
G02*
X13881810Y-6858000I15000J0D01*
G01*
X14416360Y-4487000D02*
G75*
G02*
X14386360Y-4487000I-15000J0D01*
G01*
X14386360Y-4487000D02*
G75*
G02*
X14416360Y-4487000I15000J0D01*
G01*
X5150000Y-6810000D02*
X5150000Y-6840000D01*
X5135000Y-6825000D02*
X5165000Y-6825000D01*
X5150000Y-6960000D02*
X5150000Y-6990000D01*
X5135000Y-6975000D02*
X5165000Y-6975000D01*
X5200000Y-6885000D02*
X5200000Y-6915000D01*
X5185000Y-6900000D02*
X5215000Y-6900000D01*
X5250000Y-6810000D02*
X5250000Y-6840000D01*
X5235000Y-6825000D02*
X5265000Y-6825000D01*
X5250000Y-6960000D02*
X5250000Y-6990000D01*
X5235000Y-6975000D02*
X5265000Y-6975000D01*
X1342375Y-1099875D02*
X1342375Y-1075126D01*
X1317626Y-1075126D01*
X1317626Y-1099875D01*
X1342375Y-1099875D01*
X2282375Y-1099875D02*
X2282375Y-1075126D01*
X2257626Y-1075126D01*
X2257626Y-1099875D01*
X2282375Y-1099875D01*
X3332374Y-8922375D02*
X3332374Y-8897626D01*
X3307625Y-8897626D01*
X3307625Y-8922375D01*
X3332374Y-8922375D01*
X3692374Y-8922375D02*
X3692374Y-8897626D01*
X3667625Y-8897626D01*
X3667625Y-8922375D01*
X3692374Y-8922375D01*
X4022374Y-8912375D02*
X4022374Y-8887626D01*
X3997625Y-8887626D01*
X3997625Y-8912375D01*
X4022374Y-8912375D01*
X4212375Y-8626125D02*
X4212375Y-8601376D01*
X4187625Y-8601376D01*
X4187625Y-8626125D01*
X4212375Y-8626125D01*
X4626125Y-8512375D02*
X4626125Y-8487626D01*
X4601376Y-8487626D01*
X4601376Y-8512375D01*
X4626125Y-8512375D01*
X4762375Y-8912375D02*
X4762375Y-8887626D01*
X4737626Y-8887626D01*
X4737626Y-8912375D01*
X4762375Y-8912375D01*
X5062375Y-8512375D02*
X5062375Y-8487626D01*
X5037626Y-8487626D01*
X5037626Y-8512375D01*
X5062375Y-8512375D01*
X5120185Y-8704565D02*
X5120185Y-8679816D01*
X5095436Y-8679816D01*
X5095436Y-8704565D01*
X5120185Y-8704565D01*
X5312375Y-9012375D02*
X5312375Y-8987626D01*
X5287626Y-8987626D01*
X5287626Y-9012375D01*
X5312375Y-9012375D01*
X7012374Y-7826764D02*
X7012374Y-7802015D01*
X6987625Y-7802015D01*
X6987625Y-7826764D01*
X7012374Y-7826764D01*
X8012374Y-7612374D02*
X8012374Y-7587625D01*
X7987625Y-7587625D01*
X7987625Y-7612374D01*
X8012374Y-7612374D01*
X8712375Y-8412375D02*
X8712375Y-8387625D01*
X8687626Y-8387625D01*
X8687626Y-8412375D01*
X8712375Y-8412375D01*
X9094875Y-8031124D02*
X9094875Y-8006375D01*
X9070126Y-8006375D01*
X9070126Y-8031124D01*
X9094875Y-8031124D01*
X9208325Y-7664304D02*
X9208325Y-7639555D01*
X9183576Y-7639555D01*
X9183576Y-7664304D01*
X9208325Y-7664304D01*
X1584630Y-3053870D02*
X1604630Y-3033870D01*
X1584630Y-3013870D01*
X1564630Y-3033870D01*
X1584630Y-3053870D01*
X1795580Y-8128410D02*
X1815580Y-8108410D01*
X1795580Y-8088410D01*
X1775580Y-8108410D01*
X1795580Y-8128410D01*
X2495880Y-5846000D02*
X2515880Y-5826000D01*
X2495880Y-5806000D01*
X2475880Y-5826000D01*
X2495880Y-5846000D01*
X3041740Y-1305070D02*
X3061740Y-1285070D01*
X3041740Y-1265070D01*
X3021740Y-1285070D01*
X3041740Y-1305070D01*
X3284690Y-6818320D02*
X3304690Y-6798320D01*
X3284690Y-6778320D01*
X3264690Y-6798320D01*
X3284690Y-6818320D01*
X5173580Y-5393930D02*
X5193580Y-5373930D01*
X5173580Y-5353930D01*
X5153580Y-5373930D01*
X5173580Y-5393930D01*
X5228910Y-8276030D02*
X5248910Y-8256030D01*
X5228910Y-8236030D01*
X5208910Y-8256030D01*
X5228910Y-8276030D01*
X5480580Y-6061590D02*
X5500580Y-6041590D01*
X5480580Y-6021590D01*
X5460580Y-6041590D01*
X5480580Y-6061590D01*
X6118360Y-7264850D02*
X6138360Y-7244850D01*
X6118360Y-7224850D01*
X6098360Y-7244850D01*
X6118360Y-7264850D01*
X6268690Y-5664460D02*
X6288690Y-5644460D01*
X6268690Y-5624460D01*
X6248690Y-5644460D01*
X6268690Y-5664460D01*
X6752500Y-6670000D02*
X6772500Y-6650000D01*
X6752500Y-6630000D01*
X6732500Y-6650000D01*
X6752500Y-6670000D01*
X7188290Y-6867590D02*
X7208290Y-6847590D01*
X7188290Y-6827590D01*
X7168290Y-6847590D01*
X7188290Y-6867590D01*
X12022500Y-2134030D02*
X12042500Y-2114030D01*
X12022500Y-2094030D01*
X12002500Y-2114030D01*
X12022500Y-2134030D01*
X12994650Y-6620000D02*
X13014650Y-6600000D01*
X12994650Y-6580000D01*
X12974650Y-6600000D01*
X12994650Y-6620000D01*
X13274790Y-6892150D02*
X13294790Y-6872150D01*
X13274790Y-6852150D01*
X13254790Y-6872150D01*
X13274790Y-6892150D01*
X3038000Y-8792000D02*
X3098000Y-8852000D01*
X3098000Y-8792000D02*
X3038000Y-8852000D01*
X3098000Y-8822000D02*
G75*
G02*
X3038000Y-8822000I-30000J0D01*
G01*
X3038000Y-8822000D02*
G75*
G02*
X3098000Y-8822000I30000J0D01*
G01*
X3038000Y-8767000D02*
X3038000Y-8877000D01*
X3098000Y-8877000D02*
G75*
G02*
X3038000Y-8877000I-30000J0D01*
G01*
X3098000Y-8877000D02*
X3098000Y-8767000D01*
X3098000Y-8767000D02*
G75*
G03*
X3038000Y-8767000I-30000J0D01*
G01*
X3038000Y-9210000D02*
X3098000Y-9270000D01*
X3098000Y-9210000D02*
X3038000Y-9270000D01*
X3098000Y-9240000D02*
G75*
G02*
X3038000Y-9240000I-30000J0D01*
G01*
X3038000Y-9240000D02*
G75*
G02*
X3098000Y-9240000I30000J0D01*
G01*
X3038000Y-9200000D02*
X3038000Y-9280000D01*
X3098000Y-9280000D02*
G75*
G02*
X3038000Y-9280000I-30000J0D01*
G01*
X3098000Y-9280000D02*
X3098000Y-9200000D01*
X3098000Y-9200000D02*
G75*
G03*
X3038000Y-9200000I-30000J0D01*
G01*
X3902000Y-8792000D02*
X3962000Y-8852000D01*
X3962000Y-8792000D02*
X3902000Y-8852000D01*
X3962000Y-8822000D02*
G75*
G02*
X3902000Y-8822000I-30000J0D01*
G01*
X3902000Y-8822000D02*
G75*
G02*
X3962000Y-8822000I30000J0D01*
G01*
X3902000Y-8767000D02*
X3902000Y-8877000D01*
X3962000Y-8877000D02*
G75*
G02*
X3902000Y-8877000I-30000J0D01*
G01*
X3962000Y-8877000D02*
X3962000Y-8767000D01*
X3962000Y-8767000D02*
G75*
G03*
X3902000Y-8767000I-30000J0D01*
G01*
X3902000Y-9210000D02*
X3962000Y-9270000D01*
X3962000Y-9210000D02*
X3902000Y-9270000D01*
X3962000Y-9240000D02*
G75*
G02*
X3902000Y-9240000I-30000J0D01*
G01*
X3902000Y-9240000D02*
G75*
G02*
X3962000Y-9240000I30000J0D01*
G01*
X3902000Y-9200000D02*
X3902000Y-9280000D01*
X3962000Y-9280000D02*
G75*
G02*
X3902000Y-9280000I-30000J0D01*
G01*
X3962000Y-9280000D02*
X3962000Y-9200000D01*
X3962000Y-9200000D02*
G75*
G03*
X3902000Y-9200000I-30000J0D01*
G01*
X9162500Y-8762500D02*
X9237500Y-8837500D01*
X9237500Y-8762500D02*
X9162500Y-8837500D01*
X9200000Y-8762500D02*
X9200000Y-8837500D01*
X9162500Y-8800000D02*
X9237500Y-8800000D01*
X9362500Y-8762500D02*
X9437500Y-8837500D01*
X9437500Y-8762500D02*
X9362500Y-8837500D01*
X9400000Y-8762500D02*
X9400000Y-8837500D01*
X9362500Y-8800000D02*
X9437500Y-8800000D01*
X5755000Y-8855000D02*
X5845000Y-8945000D01*
X5845000Y-8855000D02*
X5755000Y-8945000D01*
X5831820Y-8931820D02*
X5831820Y-8868180D01*
X5768180Y-8868180D01*
X5768180Y-8931820D01*
X5831820Y-8931820D01*
X5955000Y-8855000D02*
X6045000Y-8945000D01*
X6045000Y-8855000D02*
X5955000Y-8945000D01*
X6031820Y-8931820D02*
X6031820Y-8868180D01*
X5968180Y-8868180D01*
X5968180Y-8931820D01*
X6031820Y-8931820D01*
X6155000Y-8855000D02*
X6245000Y-8945000D01*
X6245000Y-8855000D02*
X6155000Y-8945000D01*
X6231820Y-8931820D02*
X6231820Y-8868180D01*
X6168180Y-8868180D01*
X6168180Y-8931820D01*
X6231820Y-8931820D01*
D12*
X5515000Y-8825000D02*
X5665000Y-8975000D01*
X5665000Y-8825000D02*
X5515000Y-8975000D01*
X5590000Y-8975000D02*
X5665000Y-8900000D01*
X5590000Y-8825000D01*
X5515000Y-8900000D01*
X5590000Y-8975000D01*
X6335000Y-8825000D02*
X6485000Y-8975000D01*
X6485000Y-8825000D02*
X6335000Y-8975000D01*
X6410000Y-8975000D02*
X6485000Y-8900000D01*
X6410000Y-8825000D01*
X6335000Y-8900000D01*
X6410000Y-8975000D01*
D11*
X255777Y-9816484D02*
X255777Y-9616484D01*
X255777Y-9616484D02*
X303396Y-9616484D01*
X303396Y-9616484D02*
X331967Y-9626008D01*
X331967Y-9626008D02*
X351015Y-9645055D01*
X351015Y-9645055D02*
X360539Y-9664103D01*
X360539Y-9664103D02*
X370062Y-9702198D01*
X370062Y-9702198D02*
X370062Y-9730770D01*
X370062Y-9730770D02*
X360539Y-9768865D01*
X360539Y-9768865D02*
X351015Y-9787912D01*
X351015Y-9787912D02*
X331967Y-9806960D01*
X331967Y-9806960D02*
X303396Y-9816484D01*
X303396Y-9816484D02*
X255777Y-9816484D01*
X455777Y-9816484D02*
X455777Y-9683150D01*
X455777Y-9721246D02*
X465301Y-9702198D01*
X465301Y-9702198D02*
X474824Y-9692674D01*
X474824Y-9692674D02*
X493872Y-9683150D01*
X493872Y-9683150D02*
X512920Y-9683150D01*
X579586Y-9816484D02*
X579586Y-9683150D01*
X579586Y-9616484D02*
X570063Y-9626008D01*
X570063Y-9626008D02*
X579586Y-9635531D01*
X579586Y-9635531D02*
X589110Y-9626008D01*
X589110Y-9626008D02*
X579586Y-9616484D01*
X579586Y-9616484D02*
X579586Y-9635531D01*
X703396Y-9816484D02*
X684348Y-9806960D01*
X684348Y-9806960D02*
X674824Y-9787912D01*
X674824Y-9787912D02*
X674824Y-9616484D01*
X808158Y-9816484D02*
X789110Y-9806960D01*
X789110Y-9806960D02*
X779586Y-9787912D01*
X779586Y-9787912D02*
X779586Y-9616484D01*
X1036729Y-9816484D02*
X1036729Y-9616484D01*
X1036729Y-9616484D02*
X1103396Y-9759341D01*
X1103396Y-9759341D02*
X1170063Y-9616484D01*
X1170063Y-9616484D02*
X1170063Y-9816484D01*
X1351015Y-9816484D02*
X1351015Y-9711722D01*
X1351015Y-9711722D02*
X1341491Y-9692674D01*
X1341491Y-9692674D02*
X1322444Y-9683150D01*
X1322444Y-9683150D02*
X1284348Y-9683150D01*
X1284348Y-9683150D02*
X1265301Y-9692674D01*
X1351015Y-9806960D02*
X1331967Y-9816484D01*
X1331967Y-9816484D02*
X1284348Y-9816484D01*
X1284348Y-9816484D02*
X1265301Y-9806960D01*
X1265301Y-9806960D02*
X1255777Y-9787912D01*
X1255777Y-9787912D02*
X1255777Y-9768865D01*
X1255777Y-9768865D02*
X1265301Y-9749817D01*
X1265301Y-9749817D02*
X1284348Y-9740293D01*
X1284348Y-9740293D02*
X1331967Y-9740293D01*
X1331967Y-9740293D02*
X1351015Y-9730770D01*
X1446253Y-9683150D02*
X1446253Y-9883150D01*
X1446253Y-9692674D02*
X1465301Y-9683150D01*
X1465301Y-9683150D02*
X1503396Y-9683150D01*
X1503396Y-9683150D02*
X1522443Y-9692674D01*
X1522443Y-9692674D02*
X1531967Y-9702198D01*
X1531967Y-9702198D02*
X1541491Y-9721246D01*
X1541491Y-9721246D02*
X1541491Y-9778389D01*
X1541491Y-9778389D02*
X1531967Y-9797436D01*
X1531967Y-9797436D02*
X1522443Y-9806960D01*
X1522443Y-9806960D02*
X1503396Y-9816484D01*
X1503396Y-9816484D02*
X1465301Y-9816484D01*
X1465301Y-9816484D02*
X1446253Y-9806960D01*
X1627205Y-9797436D02*
X1636729Y-9806960D01*
X1636729Y-9806960D02*
X1627205Y-9816484D01*
X1627205Y-9816484D02*
X1617682Y-9806960D01*
X1617682Y-9806960D02*
X1627205Y-9797436D01*
X1627205Y-9797436D02*
X1627205Y-9816484D01*
X1627205Y-9692674D02*
X1636729Y-9702198D01*
X1636729Y-9702198D02*
X1627205Y-9711722D01*
X1627205Y-9711722D02*
X1617682Y-9702198D01*
X1617682Y-9702198D02*
X1627205Y-9692674D01*
X1627205Y-9692674D02*
X1627205Y-9711722D01*
D10*
X-25000Y-10135000D02*
X-5000Y-10155000D01*
X-5000Y-10135000D02*
X-25000Y-10155000D01*
D11*
X293872Y-10036484D02*
X312920Y-10036484D01*
X312920Y-10036484D02*
X331967Y-10046008D01*
X331967Y-10046008D02*
X341491Y-10055531D01*
X341491Y-10055531D02*
X351015Y-10074579D01*
X351015Y-10074579D02*
X360539Y-10112674D01*
X360539Y-10112674D02*
X360539Y-10160293D01*
X360539Y-10160293D02*
X351015Y-10198389D01*
X351015Y-10198389D02*
X341491Y-10217436D01*
X341491Y-10217436D02*
X331967Y-10226960D01*
X331967Y-10226960D02*
X312920Y-10236484D01*
X312920Y-10236484D02*
X293872Y-10236484D01*
X293872Y-10236484D02*
X274824Y-10226960D01*
X274824Y-10226960D02*
X265301Y-10217436D01*
X265301Y-10217436D02*
X255777Y-10198389D01*
X255777Y-10198389D02*
X246253Y-10160293D01*
X246253Y-10160293D02*
X246253Y-10112674D01*
X246253Y-10112674D02*
X255777Y-10074579D01*
X255777Y-10074579D02*
X265301Y-10055531D01*
X265301Y-10055531D02*
X274824Y-10046008D01*
X274824Y-10046008D02*
X293872Y-10036484D01*
X446253Y-10217436D02*
X455777Y-10226960D01*
X455777Y-10226960D02*
X446253Y-10236484D01*
X446253Y-10236484D02*
X436729Y-10226960D01*
X436729Y-10226960D02*
X446253Y-10217436D01*
X446253Y-10217436D02*
X446253Y-10236484D01*
X531967Y-10055531D02*
X541491Y-10046008D01*
X541491Y-10046008D02*
X560539Y-10036484D01*
X560539Y-10036484D02*
X608158Y-10036484D01*
X608158Y-10036484D02*
X627205Y-10046008D01*
X627205Y-10046008D02*
X636729Y-10055531D01*
X636729Y-10055531D02*
X646253Y-10074579D01*
X646253Y-10074579D02*
X646253Y-10093627D01*
X646253Y-10093627D02*
X636729Y-10122198D01*
X636729Y-10122198D02*
X522443Y-10236484D01*
X522443Y-10236484D02*
X646253Y-10236484D01*
X770062Y-10036484D02*
X789110Y-10036484D01*
X789110Y-10036484D02*
X808158Y-10046008D01*
X808158Y-10046008D02*
X817682Y-10055531D01*
X817682Y-10055531D02*
X827205Y-10074579D01*
X827205Y-10074579D02*
X836729Y-10112674D01*
X836729Y-10112674D02*
X836729Y-10160293D01*
X836729Y-10160293D02*
X827205Y-10198389D01*
X827205Y-10198389D02*
X817682Y-10217436D01*
X817682Y-10217436D02*
X808158Y-10226960D01*
X808158Y-10226960D02*
X789110Y-10236484D01*
X789110Y-10236484D02*
X770062Y-10236484D01*
X770062Y-10236484D02*
X751015Y-10226960D01*
X751015Y-10226960D02*
X741491Y-10217436D01*
X741491Y-10217436D02*
X731967Y-10198389D01*
X731967Y-10198389D02*
X722443Y-10160293D01*
X722443Y-10160293D02*
X722443Y-10112674D01*
X722443Y-10112674D02*
X731967Y-10074579D01*
X731967Y-10074579D02*
X741491Y-10055531D01*
X741491Y-10055531D02*
X751015Y-10046008D01*
X751015Y-10046008D02*
X770062Y-10036484D01*
X960539Y-10036484D02*
X979586Y-10036484D01*
X979586Y-10036484D02*
X998634Y-10046008D01*
X998634Y-10046008D02*
X1008158Y-10055531D01*
X1008158Y-10055531D02*
X1017682Y-10074579D01*
X1017682Y-10074579D02*
X1027205Y-10112674D01*
X1027205Y-10112674D02*
X1027205Y-10160293D01*
X1027205Y-10160293D02*
X1017682Y-10198389D01*
X1017682Y-10198389D02*
X1008158Y-10217436D01*
X1008158Y-10217436D02*
X998634Y-10226960D01*
X998634Y-10226960D02*
X979586Y-10236484D01*
X979586Y-10236484D02*
X960539Y-10236484D01*
X960539Y-10236484D02*
X941491Y-10226960D01*
X941491Y-10226960D02*
X931967Y-10217436D01*
X931967Y-10217436D02*
X922443Y-10198389D01*
X922443Y-10198389D02*
X912920Y-10160293D01*
X912920Y-10160293D02*
X912920Y-10112674D01*
X912920Y-10112674D02*
X922443Y-10074579D01*
X922443Y-10074579D02*
X931967Y-10055531D01*
X931967Y-10055531D02*
X941491Y-10046008D01*
X941491Y-10046008D02*
X960539Y-10036484D01*
X1112920Y-10236484D02*
X1112920Y-10103150D01*
X1112920Y-10122198D02*
X1122444Y-10112674D01*
X1122444Y-10112674D02*
X1141491Y-10103150D01*
X1141491Y-10103150D02*
X1170063Y-10103150D01*
X1170063Y-10103150D02*
X1189110Y-10112674D01*
X1189110Y-10112674D02*
X1198634Y-10131722D01*
X1198634Y-10131722D02*
X1198634Y-10236484D01*
X1198634Y-10131722D02*
X1208158Y-10112674D01*
X1208158Y-10112674D02*
X1227205Y-10103150D01*
X1227205Y-10103150D02*
X1255777Y-10103150D01*
X1255777Y-10103150D02*
X1274825Y-10112674D01*
X1274825Y-10112674D02*
X1284348Y-10131722D01*
X1284348Y-10131722D02*
X1284348Y-10236484D01*
X1379586Y-10236484D02*
X1379586Y-10103150D01*
X1379586Y-10122198D02*
X1389110Y-10112674D01*
X1389110Y-10112674D02*
X1408158Y-10103150D01*
X1408158Y-10103150D02*
X1436729Y-10103150D01*
X1436729Y-10103150D02*
X1455777Y-10112674D01*
X1455777Y-10112674D02*
X1465301Y-10131722D01*
X1465301Y-10131722D02*
X1465301Y-10236484D01*
X1465301Y-10131722D02*
X1474824Y-10112674D01*
X1474824Y-10112674D02*
X1493872Y-10103150D01*
X1493872Y-10103150D02*
X1522443Y-10103150D01*
X1522443Y-10103150D02*
X1541491Y-10112674D01*
X1541491Y-10112674D02*
X1551015Y-10131722D01*
X1551015Y-10131722D02*
X1551015Y-10236484D01*
X1941491Y-10026960D02*
X1770063Y-10284103D01*
X2198634Y-10036484D02*
X2217682Y-10036484D01*
X2217682Y-10036484D02*
X2236729Y-10046008D01*
X2236729Y-10046008D02*
X2246253Y-10055531D01*
X2246253Y-10055531D02*
X2255777Y-10074579D01*
X2255777Y-10074579D02*
X2265301Y-10112674D01*
X2265301Y-10112674D02*
X2265301Y-10160293D01*
X2265301Y-10160293D02*
X2255777Y-10198389D01*
X2255777Y-10198389D02*
X2246253Y-10217436D01*
X2246253Y-10217436D02*
X2236729Y-10226960D01*
X2236729Y-10226960D02*
X2217682Y-10236484D01*
X2217682Y-10236484D02*
X2198634Y-10236484D01*
X2198634Y-10236484D02*
X2179587Y-10226960D01*
X2179587Y-10226960D02*
X2170063Y-10217436D01*
X2170063Y-10217436D02*
X2160539Y-10198389D01*
X2160539Y-10198389D02*
X2151015Y-10160293D01*
X2151015Y-10160293D02*
X2151015Y-10112674D01*
X2151015Y-10112674D02*
X2160539Y-10074579D01*
X2160539Y-10074579D02*
X2170063Y-10055531D01*
X2170063Y-10055531D02*
X2179587Y-10046008D01*
X2179587Y-10046008D02*
X2198634Y-10036484D01*
X2351015Y-10217436D02*
X2360539Y-10226960D01*
X2360539Y-10226960D02*
X2351015Y-10236484D01*
X2351015Y-10236484D02*
X2341491Y-10226960D01*
X2341491Y-10226960D02*
X2351015Y-10217436D01*
X2351015Y-10217436D02*
X2351015Y-10236484D01*
X2484348Y-10036484D02*
X2503396Y-10036484D01*
X2503396Y-10036484D02*
X2522444Y-10046008D01*
X2522444Y-10046008D02*
X2531968Y-10055531D01*
X2531968Y-10055531D02*
X2541491Y-10074579D01*
X2541491Y-10074579D02*
X2551015Y-10112674D01*
X2551015Y-10112674D02*
X2551015Y-10160293D01*
X2551015Y-10160293D02*
X2541491Y-10198389D01*
X2541491Y-10198389D02*
X2531968Y-10217436D01*
X2531968Y-10217436D02*
X2522444Y-10226960D01*
X2522444Y-10226960D02*
X2503396Y-10236484D01*
X2503396Y-10236484D02*
X2484348Y-10236484D01*
X2484348Y-10236484D02*
X2465301Y-10226960D01*
X2465301Y-10226960D02*
X2455777Y-10217436D01*
X2455777Y-10217436D02*
X2446253Y-10198389D01*
X2446253Y-10198389D02*
X2436729Y-10160293D01*
X2436729Y-10160293D02*
X2436729Y-10112674D01*
X2436729Y-10112674D02*
X2446253Y-10074579D01*
X2446253Y-10074579D02*
X2455777Y-10055531D01*
X2455777Y-10055531D02*
X2465301Y-10046008D01*
X2465301Y-10046008D02*
X2484348Y-10036484D01*
X2674825Y-10036484D02*
X2693872Y-10036484D01*
X2693872Y-10036484D02*
X2712920Y-10046008D01*
X2712920Y-10046008D02*
X2722444Y-10055531D01*
X2722444Y-10055531D02*
X2731968Y-10074579D01*
X2731968Y-10074579D02*
X2741491Y-10112674D01*
X2741491Y-10112674D02*
X2741491Y-10160293D01*
X2741491Y-10160293D02*
X2731968Y-10198389D01*
X2731968Y-10198389D02*
X2722444Y-10217436D01*
X2722444Y-10217436D02*
X2712920Y-10226960D01*
X2712920Y-10226960D02*
X2693872Y-10236484D01*
X2693872Y-10236484D02*
X2674825Y-10236484D01*
X2674825Y-10236484D02*
X2655777Y-10226960D01*
X2655777Y-10226960D02*
X2646253Y-10217436D01*
X2646253Y-10217436D02*
X2636729Y-10198389D01*
X2636729Y-10198389D02*
X2627206Y-10160293D01*
X2627206Y-10160293D02*
X2627206Y-10112674D01*
X2627206Y-10112674D02*
X2636729Y-10074579D01*
X2636729Y-10074579D02*
X2646253Y-10055531D01*
X2646253Y-10055531D02*
X2655777Y-10046008D01*
X2655777Y-10046008D02*
X2674825Y-10036484D01*
X2808158Y-10036484D02*
X2941491Y-10036484D01*
X2941491Y-10036484D02*
X2855777Y-10236484D01*
X3027206Y-10236484D02*
X3065301Y-10236484D01*
X3065301Y-10236484D02*
X3084348Y-10226960D01*
X3084348Y-10226960D02*
X3093872Y-10217436D01*
X3093872Y-10217436D02*
X3112920Y-10188865D01*
X3112920Y-10188865D02*
X3122444Y-10150770D01*
X3122444Y-10150770D02*
X3122444Y-10074579D01*
X3122444Y-10074579D02*
X3112920Y-10055531D01*
X3112920Y-10055531D02*
X3103396Y-10046008D01*
X3103396Y-10046008D02*
X3084348Y-10036484D01*
X3084348Y-10036484D02*
X3046253Y-10036484D01*
X3046253Y-10036484D02*
X3027206Y-10046008D01*
X3027206Y-10046008D02*
X3017682Y-10055531D01*
X3017682Y-10055531D02*
X3008158Y-10074579D01*
X3008158Y-10074579D02*
X3008158Y-10122198D01*
X3008158Y-10122198D02*
X3017682Y-10141246D01*
X3017682Y-10141246D02*
X3027206Y-10150770D01*
X3027206Y-10150770D02*
X3046253Y-10160293D01*
X3046253Y-10160293D02*
X3084348Y-10160293D01*
X3084348Y-10160293D02*
X3103396Y-10150770D01*
X3103396Y-10150770D02*
X3112920Y-10141246D01*
X3112920Y-10141246D02*
X3122444Y-10122198D01*
X3198634Y-10036484D02*
X3198634Y-10074579D01*
X3274825Y-10036484D02*
X3274825Y-10074579D01*
X3570063Y-10312674D02*
X3560539Y-10303150D01*
X3560539Y-10303150D02*
X3541491Y-10274579D01*
X3541491Y-10274579D02*
X3531968Y-10255531D01*
X3531968Y-10255531D02*
X3522444Y-10226960D01*
X3522444Y-10226960D02*
X3512920Y-10179341D01*
X3512920Y-10179341D02*
X3512920Y-10141246D01*
X3512920Y-10141246D02*
X3522444Y-10093627D01*
X3522444Y-10093627D02*
X3531968Y-10065055D01*
X3531968Y-10065055D02*
X3541491Y-10046008D01*
X3541491Y-10046008D02*
X3560539Y-10017436D01*
X3560539Y-10017436D02*
X3570063Y-10007912D01*
X3751015Y-10236484D02*
X3636729Y-10236484D01*
X3693872Y-10236484D02*
X3693872Y-10036484D01*
X3693872Y-10036484D02*
X3674825Y-10065055D01*
X3674825Y-10065055D02*
X3655777Y-10084103D01*
X3655777Y-10084103D02*
X3636729Y-10093627D01*
X3827206Y-10055531D02*
X3836729Y-10046008D01*
X3836729Y-10046008D02*
X3855777Y-10036484D01*
X3855777Y-10036484D02*
X3903396Y-10036484D01*
X3903396Y-10036484D02*
X3922444Y-10046008D01*
X3922444Y-10046008D02*
X3931968Y-10055531D01*
X3931968Y-10055531D02*
X3941491Y-10074579D01*
X3941491Y-10074579D02*
X3941491Y-10093627D01*
X3941491Y-10093627D02*
X3931968Y-10122198D01*
X3931968Y-10122198D02*
X3817682Y-10236484D01*
X3817682Y-10236484D02*
X3941491Y-10236484D01*
X4179587Y-10236484D02*
X4179587Y-10036484D01*
X4265301Y-10236484D02*
X4265301Y-10131722D01*
X4265301Y-10131722D02*
X4255777Y-10112674D01*
X4255777Y-10112674D02*
X4236730Y-10103150D01*
X4236730Y-10103150D02*
X4208158Y-10103150D01*
X4208158Y-10103150D02*
X4189110Y-10112674D01*
X4189110Y-10112674D02*
X4179587Y-10122198D01*
X4389111Y-10236484D02*
X4370063Y-10226960D01*
X4370063Y-10226960D02*
X4360539Y-10217436D01*
X4360539Y-10217436D02*
X4351015Y-10198389D01*
X4351015Y-10198389D02*
X4351015Y-10141246D01*
X4351015Y-10141246D02*
X4360539Y-10122198D01*
X4360539Y-10122198D02*
X4370063Y-10112674D01*
X4370063Y-10112674D02*
X4389111Y-10103150D01*
X4389111Y-10103150D02*
X4417682Y-10103150D01*
X4417682Y-10103150D02*
X4436730Y-10112674D01*
X4436730Y-10112674D02*
X4446253Y-10122198D01*
X4446253Y-10122198D02*
X4455777Y-10141246D01*
X4455777Y-10141246D02*
X4455777Y-10198389D01*
X4455777Y-10198389D02*
X4446253Y-10217436D01*
X4446253Y-10217436D02*
X4436730Y-10226960D01*
X4436730Y-10226960D02*
X4417682Y-10236484D01*
X4417682Y-10236484D02*
X4389111Y-10236484D01*
X4570063Y-10236484D02*
X4551015Y-10226960D01*
X4551015Y-10226960D02*
X4541492Y-10207912D01*
X4541492Y-10207912D02*
X4541492Y-10036484D01*
X4722444Y-10226960D02*
X4703396Y-10236484D01*
X4703396Y-10236484D02*
X4665301Y-10236484D01*
X4665301Y-10236484D02*
X4646253Y-10226960D01*
X4646253Y-10226960D02*
X4636730Y-10207912D01*
X4636730Y-10207912D02*
X4636730Y-10131722D01*
X4636730Y-10131722D02*
X4646253Y-10112674D01*
X4646253Y-10112674D02*
X4665301Y-10103150D01*
X4665301Y-10103150D02*
X4703396Y-10103150D01*
X4703396Y-10103150D02*
X4722444Y-10112674D01*
X4722444Y-10112674D02*
X4731968Y-10131722D01*
X4731968Y-10131722D02*
X4731968Y-10150770D01*
X4731968Y-10150770D02*
X4636730Y-10169817D01*
X4808158Y-10226960D02*
X4827206Y-10236484D01*
X4827206Y-10236484D02*
X4865301Y-10236484D01*
X4865301Y-10236484D02*
X4884349Y-10226960D01*
X4884349Y-10226960D02*
X4893873Y-10207912D01*
X4893873Y-10207912D02*
X4893873Y-10198389D01*
X4893873Y-10198389D02*
X4884349Y-10179341D01*
X4884349Y-10179341D02*
X4865301Y-10169817D01*
X4865301Y-10169817D02*
X4836730Y-10169817D01*
X4836730Y-10169817D02*
X4817682Y-10160293D01*
X4817682Y-10160293D02*
X4808158Y-10141246D01*
X4808158Y-10141246D02*
X4808158Y-10131722D01*
X4808158Y-10131722D02*
X4817682Y-10112674D01*
X4817682Y-10112674D02*
X4836730Y-10103150D01*
X4836730Y-10103150D02*
X4865301Y-10103150D01*
X4865301Y-10103150D02*
X4884349Y-10112674D01*
X4960539Y-10312674D02*
X4970063Y-10303150D01*
X4970063Y-10303150D02*
X4989111Y-10274579D01*
X4989111Y-10274579D02*
X4998634Y-10255531D01*
X4998634Y-10255531D02*
X5008158Y-10226960D01*
X5008158Y-10226960D02*
X5017682Y-10179341D01*
X5017682Y-10179341D02*
X5017682Y-10141246D01*
X5017682Y-10141246D02*
X5008158Y-10093627D01*
X5008158Y-10093627D02*
X4998634Y-10065055D01*
X4998634Y-10065055D02*
X4989111Y-10046008D01*
X4989111Y-10046008D02*
X4970063Y-10017436D01*
X4970063Y-10017436D02*
X4960539Y-10007912D01*
D10*
X-5000Y-10409000D02*
G75*
G02*
X-35000Y-10409000I-15000J0D01*
G01*
X-35000Y-10409000D02*
G75*
G02*
X-5000Y-10409000I15000J0D01*
G01*
D11*
X293872Y-10300484D02*
X312920Y-10300484D01*
X312920Y-10300484D02*
X331967Y-10310008D01*
X331967Y-10310008D02*
X341491Y-10319531D01*
X341491Y-10319531D02*
X351015Y-10338579D01*
X351015Y-10338579D02*
X360539Y-10376674D01*
X360539Y-10376674D02*
X360539Y-10424293D01*
X360539Y-10424293D02*
X351015Y-10462389D01*
X351015Y-10462389D02*
X341491Y-10481436D01*
X341491Y-10481436D02*
X331967Y-10490960D01*
X331967Y-10490960D02*
X312920Y-10500484D01*
X312920Y-10500484D02*
X293872Y-10500484D01*
X293872Y-10500484D02*
X274824Y-10490960D01*
X274824Y-10490960D02*
X265301Y-10481436D01*
X265301Y-10481436D02*
X255777Y-10462389D01*
X255777Y-10462389D02*
X246253Y-10424293D01*
X246253Y-10424293D02*
X246253Y-10376674D01*
X246253Y-10376674D02*
X255777Y-10338579D01*
X255777Y-10338579D02*
X265301Y-10319531D01*
X265301Y-10319531D02*
X274824Y-10310008D01*
X274824Y-10310008D02*
X293872Y-10300484D01*
X446253Y-10481436D02*
X455777Y-10490960D01*
X455777Y-10490960D02*
X446253Y-10500484D01*
X446253Y-10500484D02*
X436729Y-10490960D01*
X436729Y-10490960D02*
X446253Y-10481436D01*
X446253Y-10481436D02*
X446253Y-10500484D01*
X522443Y-10300484D02*
X646253Y-10300484D01*
X646253Y-10300484D02*
X579586Y-10376674D01*
X579586Y-10376674D02*
X608158Y-10376674D01*
X608158Y-10376674D02*
X627205Y-10386198D01*
X627205Y-10386198D02*
X636729Y-10395722D01*
X636729Y-10395722D02*
X646253Y-10414770D01*
X646253Y-10414770D02*
X646253Y-10462389D01*
X646253Y-10462389D02*
X636729Y-10481436D01*
X636729Y-10481436D02*
X627205Y-10490960D01*
X627205Y-10490960D02*
X608158Y-10500484D01*
X608158Y-10500484D02*
X551015Y-10500484D01*
X551015Y-10500484D02*
X531967Y-10490960D01*
X531967Y-10490960D02*
X522443Y-10481436D01*
X770062Y-10300484D02*
X789110Y-10300484D01*
X789110Y-10300484D02*
X808158Y-10310008D01*
X808158Y-10310008D02*
X817682Y-10319531D01*
X817682Y-10319531D02*
X827205Y-10338579D01*
X827205Y-10338579D02*
X836729Y-10376674D01*
X836729Y-10376674D02*
X836729Y-10424293D01*
X836729Y-10424293D02*
X827205Y-10462389D01*
X827205Y-10462389D02*
X817682Y-10481436D01*
X817682Y-10481436D02*
X808158Y-10490960D01*
X808158Y-10490960D02*
X789110Y-10500484D01*
X789110Y-10500484D02*
X770062Y-10500484D01*
X770062Y-10500484D02*
X751015Y-10490960D01*
X751015Y-10490960D02*
X741491Y-10481436D01*
X741491Y-10481436D02*
X731967Y-10462389D01*
X731967Y-10462389D02*
X722443Y-10424293D01*
X722443Y-10424293D02*
X722443Y-10376674D01*
X722443Y-10376674D02*
X731967Y-10338579D01*
X731967Y-10338579D02*
X741491Y-10319531D01*
X741491Y-10319531D02*
X751015Y-10310008D01*
X751015Y-10310008D02*
X770062Y-10300484D01*
X960539Y-10300484D02*
X979586Y-10300484D01*
X979586Y-10300484D02*
X998634Y-10310008D01*
X998634Y-10310008D02*
X1008158Y-10319531D01*
X1008158Y-10319531D02*
X1017682Y-10338579D01*
X1017682Y-10338579D02*
X1027205Y-10376674D01*
X1027205Y-10376674D02*
X1027205Y-10424293D01*
X1027205Y-10424293D02*
X1017682Y-10462389D01*
X1017682Y-10462389D02*
X1008158Y-10481436D01*
X1008158Y-10481436D02*
X998634Y-10490960D01*
X998634Y-10490960D02*
X979586Y-10500484D01*
X979586Y-10500484D02*
X960539Y-10500484D01*
X960539Y-10500484D02*
X941491Y-10490960D01*
X941491Y-10490960D02*
X931967Y-10481436D01*
X931967Y-10481436D02*
X922443Y-10462389D01*
X922443Y-10462389D02*
X912920Y-10424293D01*
X912920Y-10424293D02*
X912920Y-10376674D01*
X912920Y-10376674D02*
X922443Y-10338579D01*
X922443Y-10338579D02*
X931967Y-10319531D01*
X931967Y-10319531D02*
X941491Y-10310008D01*
X941491Y-10310008D02*
X960539Y-10300484D01*
X1112920Y-10500484D02*
X1112920Y-10367150D01*
X1112920Y-10386198D02*
X1122444Y-10376674D01*
X1122444Y-10376674D02*
X1141491Y-10367150D01*
X1141491Y-10367150D02*
X1170063Y-10367150D01*
X1170063Y-10367150D02*
X1189110Y-10376674D01*
X1189110Y-10376674D02*
X1198634Y-10395722D01*
X1198634Y-10395722D02*
X1198634Y-10500484D01*
X1198634Y-10395722D02*
X1208158Y-10376674D01*
X1208158Y-10376674D02*
X1227205Y-10367150D01*
X1227205Y-10367150D02*
X1255777Y-10367150D01*
X1255777Y-10367150D02*
X1274825Y-10376674D01*
X1274825Y-10376674D02*
X1284348Y-10395722D01*
X1284348Y-10395722D02*
X1284348Y-10500484D01*
X1379586Y-10500484D02*
X1379586Y-10367150D01*
X1379586Y-10386198D02*
X1389110Y-10376674D01*
X1389110Y-10376674D02*
X1408158Y-10367150D01*
X1408158Y-10367150D02*
X1436729Y-10367150D01*
X1436729Y-10367150D02*
X1455777Y-10376674D01*
X1455777Y-10376674D02*
X1465301Y-10395722D01*
X1465301Y-10395722D02*
X1465301Y-10500484D01*
X1465301Y-10395722D02*
X1474824Y-10376674D01*
X1474824Y-10376674D02*
X1493872Y-10367150D01*
X1493872Y-10367150D02*
X1522443Y-10367150D01*
X1522443Y-10367150D02*
X1541491Y-10376674D01*
X1541491Y-10376674D02*
X1551015Y-10395722D01*
X1551015Y-10395722D02*
X1551015Y-10500484D01*
X1941491Y-10290960D02*
X1770063Y-10548103D01*
X2198634Y-10300484D02*
X2217682Y-10300484D01*
X2217682Y-10300484D02*
X2236729Y-10310008D01*
X2236729Y-10310008D02*
X2246253Y-10319531D01*
X2246253Y-10319531D02*
X2255777Y-10338579D01*
X2255777Y-10338579D02*
X2265301Y-10376674D01*
X2265301Y-10376674D02*
X2265301Y-10424293D01*
X2265301Y-10424293D02*
X2255777Y-10462389D01*
X2255777Y-10462389D02*
X2246253Y-10481436D01*
X2246253Y-10481436D02*
X2236729Y-10490960D01*
X2236729Y-10490960D02*
X2217682Y-10500484D01*
X2217682Y-10500484D02*
X2198634Y-10500484D01*
X2198634Y-10500484D02*
X2179587Y-10490960D01*
X2179587Y-10490960D02*
X2170063Y-10481436D01*
X2170063Y-10481436D02*
X2160539Y-10462389D01*
X2160539Y-10462389D02*
X2151015Y-10424293D01*
X2151015Y-10424293D02*
X2151015Y-10376674D01*
X2151015Y-10376674D02*
X2160539Y-10338579D01*
X2160539Y-10338579D02*
X2170063Y-10319531D01*
X2170063Y-10319531D02*
X2179587Y-10310008D01*
X2179587Y-10310008D02*
X2198634Y-10300484D01*
X2351015Y-10481436D02*
X2360539Y-10490960D01*
X2360539Y-10490960D02*
X2351015Y-10500484D01*
X2351015Y-10500484D02*
X2341491Y-10490960D01*
X2341491Y-10490960D02*
X2351015Y-10481436D01*
X2351015Y-10481436D02*
X2351015Y-10500484D01*
X2484348Y-10300484D02*
X2503396Y-10300484D01*
X2503396Y-10300484D02*
X2522444Y-10310008D01*
X2522444Y-10310008D02*
X2531968Y-10319531D01*
X2531968Y-10319531D02*
X2541491Y-10338579D01*
X2541491Y-10338579D02*
X2551015Y-10376674D01*
X2551015Y-10376674D02*
X2551015Y-10424293D01*
X2551015Y-10424293D02*
X2541491Y-10462389D01*
X2541491Y-10462389D02*
X2531968Y-10481436D01*
X2531968Y-10481436D02*
X2522444Y-10490960D01*
X2522444Y-10490960D02*
X2503396Y-10500484D01*
X2503396Y-10500484D02*
X2484348Y-10500484D01*
X2484348Y-10500484D02*
X2465301Y-10490960D01*
X2465301Y-10490960D02*
X2455777Y-10481436D01*
X2455777Y-10481436D02*
X2446253Y-10462389D01*
X2446253Y-10462389D02*
X2436729Y-10424293D01*
X2436729Y-10424293D02*
X2436729Y-10376674D01*
X2436729Y-10376674D02*
X2446253Y-10338579D01*
X2446253Y-10338579D02*
X2455777Y-10319531D01*
X2455777Y-10319531D02*
X2465301Y-10310008D01*
X2465301Y-10310008D02*
X2484348Y-10300484D01*
X2741491Y-10500484D02*
X2627206Y-10500484D01*
X2684348Y-10500484D02*
X2684348Y-10300484D01*
X2684348Y-10300484D02*
X2665301Y-10329055D01*
X2665301Y-10329055D02*
X2646253Y-10348103D01*
X2646253Y-10348103D02*
X2627206Y-10357627D01*
X2931967Y-10500484D02*
X2817682Y-10500484D01*
X2874825Y-10500484D02*
X2874825Y-10300484D01*
X2874825Y-10300484D02*
X2855777Y-10329055D01*
X2855777Y-10329055D02*
X2836729Y-10348103D01*
X2836729Y-10348103D02*
X2817682Y-10357627D01*
X3046253Y-10386198D02*
X3027206Y-10376674D01*
X3027206Y-10376674D02*
X3017682Y-10367150D01*
X3017682Y-10367150D02*
X3008158Y-10348103D01*
X3008158Y-10348103D02*
X3008158Y-10338579D01*
X3008158Y-10338579D02*
X3017682Y-10319531D01*
X3017682Y-10319531D02*
X3027206Y-10310008D01*
X3027206Y-10310008D02*
X3046253Y-10300484D01*
X3046253Y-10300484D02*
X3084348Y-10300484D01*
X3084348Y-10300484D02*
X3103396Y-10310008D01*
X3103396Y-10310008D02*
X3112920Y-10319531D01*
X3112920Y-10319531D02*
X3122444Y-10338579D01*
X3122444Y-10338579D02*
X3122444Y-10348103D01*
X3122444Y-10348103D02*
X3112920Y-10367150D01*
X3112920Y-10367150D02*
X3103396Y-10376674D01*
X3103396Y-10376674D02*
X3084348Y-10386198D01*
X3084348Y-10386198D02*
X3046253Y-10386198D01*
X3046253Y-10386198D02*
X3027206Y-10395722D01*
X3027206Y-10395722D02*
X3017682Y-10405246D01*
X3017682Y-10405246D02*
X3008158Y-10424293D01*
X3008158Y-10424293D02*
X3008158Y-10462389D01*
X3008158Y-10462389D02*
X3017682Y-10481436D01*
X3017682Y-10481436D02*
X3027206Y-10490960D01*
X3027206Y-10490960D02*
X3046253Y-10500484D01*
X3046253Y-10500484D02*
X3084348Y-10500484D01*
X3084348Y-10500484D02*
X3103396Y-10490960D01*
X3103396Y-10490960D02*
X3112920Y-10481436D01*
X3112920Y-10481436D02*
X3122444Y-10462389D01*
X3122444Y-10462389D02*
X3122444Y-10424293D01*
X3122444Y-10424293D02*
X3112920Y-10405246D01*
X3112920Y-10405246D02*
X3103396Y-10395722D01*
X3103396Y-10395722D02*
X3084348Y-10386198D01*
X3198634Y-10300484D02*
X3198634Y-10338579D01*
X3274825Y-10300484D02*
X3274825Y-10338579D01*
X3570063Y-10576674D02*
X3560539Y-10567150D01*
X3560539Y-10567150D02*
X3541491Y-10538579D01*
X3541491Y-10538579D02*
X3531968Y-10519531D01*
X3531968Y-10519531D02*
X3522444Y-10490960D01*
X3522444Y-10490960D02*
X3512920Y-10443341D01*
X3512920Y-10443341D02*
X3512920Y-10405246D01*
X3512920Y-10405246D02*
X3522444Y-10357627D01*
X3522444Y-10357627D02*
X3531968Y-10329055D01*
X3531968Y-10329055D02*
X3541491Y-10310008D01*
X3541491Y-10310008D02*
X3560539Y-10281436D01*
X3560539Y-10281436D02*
X3570063Y-10271912D01*
X3751015Y-10500484D02*
X3636729Y-10500484D01*
X3693872Y-10500484D02*
X3693872Y-10300484D01*
X3693872Y-10300484D02*
X3674825Y-10329055D01*
X3674825Y-10329055D02*
X3655777Y-10348103D01*
X3655777Y-10348103D02*
X3636729Y-10357627D01*
X3941491Y-10500484D02*
X3827206Y-10500484D01*
X3884348Y-10500484D02*
X3884348Y-10300484D01*
X3884348Y-10300484D02*
X3865301Y-10329055D01*
X3865301Y-10329055D02*
X3846253Y-10348103D01*
X3846253Y-10348103D02*
X3827206Y-10357627D01*
X4065301Y-10300484D02*
X4084349Y-10300484D01*
X4084349Y-10300484D02*
X4103396Y-10310008D01*
X4103396Y-10310008D02*
X4112920Y-10319531D01*
X4112920Y-10319531D02*
X4122444Y-10338579D01*
X4122444Y-10338579D02*
X4131968Y-10376674D01*
X4131968Y-10376674D02*
X4131968Y-10424293D01*
X4131968Y-10424293D02*
X4122444Y-10462389D01*
X4122444Y-10462389D02*
X4112920Y-10481436D01*
X4112920Y-10481436D02*
X4103396Y-10490960D01*
X4103396Y-10490960D02*
X4084349Y-10500484D01*
X4084349Y-10500484D02*
X4065301Y-10500484D01*
X4065301Y-10500484D02*
X4046253Y-10490960D01*
X4046253Y-10490960D02*
X4036729Y-10481436D01*
X4036729Y-10481436D02*
X4027206Y-10462389D01*
X4027206Y-10462389D02*
X4017682Y-10424293D01*
X4017682Y-10424293D02*
X4017682Y-10376674D01*
X4017682Y-10376674D02*
X4027206Y-10338579D01*
X4027206Y-10338579D02*
X4036729Y-10319531D01*
X4036729Y-10319531D02*
X4046253Y-10310008D01*
X4046253Y-10310008D02*
X4065301Y-10300484D01*
X4370063Y-10500484D02*
X4370063Y-10300484D01*
X4455777Y-10500484D02*
X4455777Y-10395722D01*
X4455777Y-10395722D02*
X4446253Y-10376674D01*
X4446253Y-10376674D02*
X4427206Y-10367150D01*
X4427206Y-10367150D02*
X4398634Y-10367150D01*
X4398634Y-10367150D02*
X4379587Y-10376674D01*
X4379587Y-10376674D02*
X4370063Y-10386198D01*
X4579587Y-10500484D02*
X4560539Y-10490960D01*
X4560539Y-10490960D02*
X4551015Y-10481436D01*
X4551015Y-10481436D02*
X4541492Y-10462389D01*
X4541492Y-10462389D02*
X4541492Y-10405246D01*
X4541492Y-10405246D02*
X4551015Y-10386198D01*
X4551015Y-10386198D02*
X4560539Y-10376674D01*
X4560539Y-10376674D02*
X4579587Y-10367150D01*
X4579587Y-10367150D02*
X4608158Y-10367150D01*
X4608158Y-10367150D02*
X4627206Y-10376674D01*
X4627206Y-10376674D02*
X4636730Y-10386198D01*
X4636730Y-10386198D02*
X4646253Y-10405246D01*
X4646253Y-10405246D02*
X4646253Y-10462389D01*
X4646253Y-10462389D02*
X4636730Y-10481436D01*
X4636730Y-10481436D02*
X4627206Y-10490960D01*
X4627206Y-10490960D02*
X4608158Y-10500484D01*
X4608158Y-10500484D02*
X4579587Y-10500484D01*
X4760539Y-10500484D02*
X4741492Y-10490960D01*
X4741492Y-10490960D02*
X4731968Y-10471912D01*
X4731968Y-10471912D02*
X4731968Y-10300484D01*
X4912920Y-10490960D02*
X4893873Y-10500484D01*
X4893873Y-10500484D02*
X4855777Y-10500484D01*
X4855777Y-10500484D02*
X4836730Y-10490960D01*
X4836730Y-10490960D02*
X4827206Y-10471912D01*
X4827206Y-10471912D02*
X4827206Y-10395722D01*
X4827206Y-10395722D02*
X4836730Y-10376674D01*
X4836730Y-10376674D02*
X4855777Y-10367150D01*
X4855777Y-10367150D02*
X4893873Y-10367150D01*
X4893873Y-10367150D02*
X4912920Y-10376674D01*
X4912920Y-10376674D02*
X4922444Y-10395722D01*
X4922444Y-10395722D02*
X4922444Y-10414770D01*
X4922444Y-10414770D02*
X4827206Y-10433817D01*
X4998634Y-10490960D02*
X5017682Y-10500484D01*
X5017682Y-10500484D02*
X5055777Y-10500484D01*
X5055777Y-10500484D02*
X5074825Y-10490960D01*
X5074825Y-10490960D02*
X5084349Y-10471912D01*
X5084349Y-10471912D02*
X5084349Y-10462389D01*
X5084349Y-10462389D02*
X5074825Y-10443341D01*
X5074825Y-10443341D02*
X5055777Y-10433817D01*
X5055777Y-10433817D02*
X5027206Y-10433817D01*
X5027206Y-10433817D02*
X5008158Y-10424293D01*
X5008158Y-10424293D02*
X4998634Y-10405246D01*
X4998634Y-10405246D02*
X4998634Y-10395722D01*
X4998634Y-10395722D02*
X5008158Y-10376674D01*
X5008158Y-10376674D02*
X5027206Y-10367150D01*
X5027206Y-10367150D02*
X5055777Y-10367150D01*
X5055777Y-10367150D02*
X5074825Y-10376674D01*
X5151015Y-10576674D02*
X5160539Y-10567150D01*
X5160539Y-10567150D02*
X5179587Y-10538579D01*
X5179587Y-10538579D02*
X5189111Y-10519531D01*
X5189111Y-10519531D02*
X5198634Y-10490960D01*
X5198634Y-10490960D02*
X5208158Y-10443341D01*
X5208158Y-10443341D02*
X5208158Y-10405246D01*
X5208158Y-10405246D02*
X5198634Y-10357627D01*
X5198634Y-10357627D02*
X5189111Y-10329055D01*
X5189111Y-10329055D02*
X5179587Y-10310008D01*
X5179587Y-10310008D02*
X5160539Y-10281436D01*
X5160539Y-10281436D02*
X5151015Y-10271912D01*
D10*
X-20000Y-10658000D02*
X-20000Y-10688000D01*
X-35000Y-10673000D02*
X-5000Y-10673000D01*
D11*
X293872Y-10564484D02*
X312920Y-10564484D01*
X312920Y-10564484D02*
X331967Y-10574008D01*
X331967Y-10574008D02*
X341491Y-10583531D01*
X341491Y-10583531D02*
X351015Y-10602579D01*
X351015Y-10602579D02*
X360539Y-10640674D01*
X360539Y-10640674D02*
X360539Y-10688293D01*
X360539Y-10688293D02*
X351015Y-10726389D01*
X351015Y-10726389D02*
X341491Y-10745436D01*
X341491Y-10745436D02*
X331967Y-10754960D01*
X331967Y-10754960D02*
X312920Y-10764484D01*
X312920Y-10764484D02*
X293872Y-10764484D01*
X293872Y-10764484D02*
X274824Y-10754960D01*
X274824Y-10754960D02*
X265301Y-10745436D01*
X265301Y-10745436D02*
X255777Y-10726389D01*
X255777Y-10726389D02*
X246253Y-10688293D01*
X246253Y-10688293D02*
X246253Y-10640674D01*
X246253Y-10640674D02*
X255777Y-10602579D01*
X255777Y-10602579D02*
X265301Y-10583531D01*
X265301Y-10583531D02*
X274824Y-10574008D01*
X274824Y-10574008D02*
X293872Y-10564484D01*
X446253Y-10745436D02*
X455777Y-10754960D01*
X455777Y-10754960D02*
X446253Y-10764484D01*
X446253Y-10764484D02*
X436729Y-10754960D01*
X436729Y-10754960D02*
X446253Y-10745436D01*
X446253Y-10745436D02*
X446253Y-10764484D01*
X522443Y-10564484D02*
X646253Y-10564484D01*
X646253Y-10564484D02*
X579586Y-10640674D01*
X579586Y-10640674D02*
X608158Y-10640674D01*
X608158Y-10640674D02*
X627205Y-10650198D01*
X627205Y-10650198D02*
X636729Y-10659722D01*
X636729Y-10659722D02*
X646253Y-10678770D01*
X646253Y-10678770D02*
X646253Y-10726389D01*
X646253Y-10726389D02*
X636729Y-10745436D01*
X636729Y-10745436D02*
X627205Y-10754960D01*
X627205Y-10754960D02*
X608158Y-10764484D01*
X608158Y-10764484D02*
X551015Y-10764484D01*
X551015Y-10764484D02*
X531967Y-10754960D01*
X531967Y-10754960D02*
X522443Y-10745436D01*
X770062Y-10564484D02*
X789110Y-10564484D01*
X789110Y-10564484D02*
X808158Y-10574008D01*
X808158Y-10574008D02*
X817682Y-10583531D01*
X817682Y-10583531D02*
X827205Y-10602579D01*
X827205Y-10602579D02*
X836729Y-10640674D01*
X836729Y-10640674D02*
X836729Y-10688293D01*
X836729Y-10688293D02*
X827205Y-10726389D01*
X827205Y-10726389D02*
X817682Y-10745436D01*
X817682Y-10745436D02*
X808158Y-10754960D01*
X808158Y-10754960D02*
X789110Y-10764484D01*
X789110Y-10764484D02*
X770062Y-10764484D01*
X770062Y-10764484D02*
X751015Y-10754960D01*
X751015Y-10754960D02*
X741491Y-10745436D01*
X741491Y-10745436D02*
X731967Y-10726389D01*
X731967Y-10726389D02*
X722443Y-10688293D01*
X722443Y-10688293D02*
X722443Y-10640674D01*
X722443Y-10640674D02*
X731967Y-10602579D01*
X731967Y-10602579D02*
X741491Y-10583531D01*
X741491Y-10583531D02*
X751015Y-10574008D01*
X751015Y-10574008D02*
X770062Y-10564484D01*
X960539Y-10564484D02*
X979586Y-10564484D01*
X979586Y-10564484D02*
X998634Y-10574008D01*
X998634Y-10574008D02*
X1008158Y-10583531D01*
X1008158Y-10583531D02*
X1017682Y-10602579D01*
X1017682Y-10602579D02*
X1027205Y-10640674D01*
X1027205Y-10640674D02*
X1027205Y-10688293D01*
X1027205Y-10688293D02*
X1017682Y-10726389D01*
X1017682Y-10726389D02*
X1008158Y-10745436D01*
X1008158Y-10745436D02*
X998634Y-10754960D01*
X998634Y-10754960D02*
X979586Y-10764484D01*
X979586Y-10764484D02*
X960539Y-10764484D01*
X960539Y-10764484D02*
X941491Y-10754960D01*
X941491Y-10754960D02*
X931967Y-10745436D01*
X931967Y-10745436D02*
X922443Y-10726389D01*
X922443Y-10726389D02*
X912920Y-10688293D01*
X912920Y-10688293D02*
X912920Y-10640674D01*
X912920Y-10640674D02*
X922443Y-10602579D01*
X922443Y-10602579D02*
X931967Y-10583531D01*
X931967Y-10583531D02*
X941491Y-10574008D01*
X941491Y-10574008D02*
X960539Y-10564484D01*
X1112920Y-10764484D02*
X1112920Y-10631150D01*
X1112920Y-10650198D02*
X1122444Y-10640674D01*
X1122444Y-10640674D02*
X1141491Y-10631150D01*
X1141491Y-10631150D02*
X1170063Y-10631150D01*
X1170063Y-10631150D02*
X1189110Y-10640674D01*
X1189110Y-10640674D02*
X1198634Y-10659722D01*
X1198634Y-10659722D02*
X1198634Y-10764484D01*
X1198634Y-10659722D02*
X1208158Y-10640674D01*
X1208158Y-10640674D02*
X1227205Y-10631150D01*
X1227205Y-10631150D02*
X1255777Y-10631150D01*
X1255777Y-10631150D02*
X1274825Y-10640674D01*
X1274825Y-10640674D02*
X1284348Y-10659722D01*
X1284348Y-10659722D02*
X1284348Y-10764484D01*
X1379586Y-10764484D02*
X1379586Y-10631150D01*
X1379586Y-10650198D02*
X1389110Y-10640674D01*
X1389110Y-10640674D02*
X1408158Y-10631150D01*
X1408158Y-10631150D02*
X1436729Y-10631150D01*
X1436729Y-10631150D02*
X1455777Y-10640674D01*
X1455777Y-10640674D02*
X1465301Y-10659722D01*
X1465301Y-10659722D02*
X1465301Y-10764484D01*
X1465301Y-10659722D02*
X1474824Y-10640674D01*
X1474824Y-10640674D02*
X1493872Y-10631150D01*
X1493872Y-10631150D02*
X1522443Y-10631150D01*
X1522443Y-10631150D02*
X1541491Y-10640674D01*
X1541491Y-10640674D02*
X1551015Y-10659722D01*
X1551015Y-10659722D02*
X1551015Y-10764484D01*
X1941491Y-10554960D02*
X1770063Y-10812103D01*
X2198634Y-10564484D02*
X2217682Y-10564484D01*
X2217682Y-10564484D02*
X2236729Y-10574008D01*
X2236729Y-10574008D02*
X2246253Y-10583531D01*
X2246253Y-10583531D02*
X2255777Y-10602579D01*
X2255777Y-10602579D02*
X2265301Y-10640674D01*
X2265301Y-10640674D02*
X2265301Y-10688293D01*
X2265301Y-10688293D02*
X2255777Y-10726389D01*
X2255777Y-10726389D02*
X2246253Y-10745436D01*
X2246253Y-10745436D02*
X2236729Y-10754960D01*
X2236729Y-10754960D02*
X2217682Y-10764484D01*
X2217682Y-10764484D02*
X2198634Y-10764484D01*
X2198634Y-10764484D02*
X2179587Y-10754960D01*
X2179587Y-10754960D02*
X2170063Y-10745436D01*
X2170063Y-10745436D02*
X2160539Y-10726389D01*
X2160539Y-10726389D02*
X2151015Y-10688293D01*
X2151015Y-10688293D02*
X2151015Y-10640674D01*
X2151015Y-10640674D02*
X2160539Y-10602579D01*
X2160539Y-10602579D02*
X2170063Y-10583531D01*
X2170063Y-10583531D02*
X2179587Y-10574008D01*
X2179587Y-10574008D02*
X2198634Y-10564484D01*
X2351015Y-10745436D02*
X2360539Y-10754960D01*
X2360539Y-10754960D02*
X2351015Y-10764484D01*
X2351015Y-10764484D02*
X2341491Y-10754960D01*
X2341491Y-10754960D02*
X2351015Y-10745436D01*
X2351015Y-10745436D02*
X2351015Y-10764484D01*
X2484348Y-10564484D02*
X2503396Y-10564484D01*
X2503396Y-10564484D02*
X2522444Y-10574008D01*
X2522444Y-10574008D02*
X2531968Y-10583531D01*
X2531968Y-10583531D02*
X2541491Y-10602579D01*
X2541491Y-10602579D02*
X2551015Y-10640674D01*
X2551015Y-10640674D02*
X2551015Y-10688293D01*
X2551015Y-10688293D02*
X2541491Y-10726389D01*
X2541491Y-10726389D02*
X2531968Y-10745436D01*
X2531968Y-10745436D02*
X2522444Y-10754960D01*
X2522444Y-10754960D02*
X2503396Y-10764484D01*
X2503396Y-10764484D02*
X2484348Y-10764484D01*
X2484348Y-10764484D02*
X2465301Y-10754960D01*
X2465301Y-10754960D02*
X2455777Y-10745436D01*
X2455777Y-10745436D02*
X2446253Y-10726389D01*
X2446253Y-10726389D02*
X2436729Y-10688293D01*
X2436729Y-10688293D02*
X2436729Y-10640674D01*
X2436729Y-10640674D02*
X2446253Y-10602579D01*
X2446253Y-10602579D02*
X2455777Y-10583531D01*
X2455777Y-10583531D02*
X2465301Y-10574008D01*
X2465301Y-10574008D02*
X2484348Y-10564484D01*
X2741491Y-10764484D02*
X2627206Y-10764484D01*
X2684348Y-10764484D02*
X2684348Y-10564484D01*
X2684348Y-10564484D02*
X2665301Y-10593055D01*
X2665301Y-10593055D02*
X2646253Y-10612103D01*
X2646253Y-10612103D02*
X2627206Y-10621627D01*
X2931967Y-10764484D02*
X2817682Y-10764484D01*
X2874825Y-10764484D02*
X2874825Y-10564484D01*
X2874825Y-10564484D02*
X2855777Y-10593055D01*
X2855777Y-10593055D02*
X2836729Y-10612103D01*
X2836729Y-10612103D02*
X2817682Y-10621627D01*
X3046253Y-10650198D02*
X3027206Y-10640674D01*
X3027206Y-10640674D02*
X3017682Y-10631150D01*
X3017682Y-10631150D02*
X3008158Y-10612103D01*
X3008158Y-10612103D02*
X3008158Y-10602579D01*
X3008158Y-10602579D02*
X3017682Y-10583531D01*
X3017682Y-10583531D02*
X3027206Y-10574008D01*
X3027206Y-10574008D02*
X3046253Y-10564484D01*
X3046253Y-10564484D02*
X3084348Y-10564484D01*
X3084348Y-10564484D02*
X3103396Y-10574008D01*
X3103396Y-10574008D02*
X3112920Y-10583531D01*
X3112920Y-10583531D02*
X3122444Y-10602579D01*
X3122444Y-10602579D02*
X3122444Y-10612103D01*
X3122444Y-10612103D02*
X3112920Y-10631150D01*
X3112920Y-10631150D02*
X3103396Y-10640674D01*
X3103396Y-10640674D02*
X3084348Y-10650198D01*
X3084348Y-10650198D02*
X3046253Y-10650198D01*
X3046253Y-10650198D02*
X3027206Y-10659722D01*
X3027206Y-10659722D02*
X3017682Y-10669246D01*
X3017682Y-10669246D02*
X3008158Y-10688293D01*
X3008158Y-10688293D02*
X3008158Y-10726389D01*
X3008158Y-10726389D02*
X3017682Y-10745436D01*
X3017682Y-10745436D02*
X3027206Y-10754960D01*
X3027206Y-10754960D02*
X3046253Y-10764484D01*
X3046253Y-10764484D02*
X3084348Y-10764484D01*
X3084348Y-10764484D02*
X3103396Y-10754960D01*
X3103396Y-10754960D02*
X3112920Y-10745436D01*
X3112920Y-10745436D02*
X3122444Y-10726389D01*
X3122444Y-10726389D02*
X3122444Y-10688293D01*
X3122444Y-10688293D02*
X3112920Y-10669246D01*
X3112920Y-10669246D02*
X3103396Y-10659722D01*
X3103396Y-10659722D02*
X3084348Y-10650198D01*
X3198634Y-10564484D02*
X3198634Y-10602579D01*
X3274825Y-10564484D02*
X3274825Y-10602579D01*
X3570063Y-10840674D02*
X3560539Y-10831150D01*
X3560539Y-10831150D02*
X3541491Y-10802579D01*
X3541491Y-10802579D02*
X3531968Y-10783531D01*
X3531968Y-10783531D02*
X3522444Y-10754960D01*
X3522444Y-10754960D02*
X3512920Y-10707341D01*
X3512920Y-10707341D02*
X3512920Y-10669246D01*
X3512920Y-10669246D02*
X3522444Y-10621627D01*
X3522444Y-10621627D02*
X3531968Y-10593055D01*
X3531968Y-10593055D02*
X3541491Y-10574008D01*
X3541491Y-10574008D02*
X3560539Y-10545436D01*
X3560539Y-10545436D02*
X3570063Y-10535912D01*
X3741491Y-10564484D02*
X3646253Y-10564484D01*
X3646253Y-10564484D02*
X3636729Y-10659722D01*
X3636729Y-10659722D02*
X3646253Y-10650198D01*
X3646253Y-10650198D02*
X3665301Y-10640674D01*
X3665301Y-10640674D02*
X3712920Y-10640674D01*
X3712920Y-10640674D02*
X3731968Y-10650198D01*
X3731968Y-10650198D02*
X3741491Y-10659722D01*
X3741491Y-10659722D02*
X3751015Y-10678770D01*
X3751015Y-10678770D02*
X3751015Y-10726389D01*
X3751015Y-10726389D02*
X3741491Y-10745436D01*
X3741491Y-10745436D02*
X3731968Y-10754960D01*
X3731968Y-10754960D02*
X3712920Y-10764484D01*
X3712920Y-10764484D02*
X3665301Y-10764484D01*
X3665301Y-10764484D02*
X3646253Y-10754960D01*
X3646253Y-10754960D02*
X3636729Y-10745436D01*
X3989110Y-10764484D02*
X3989110Y-10564484D01*
X4074825Y-10764484D02*
X4074825Y-10659722D01*
X4074825Y-10659722D02*
X4065301Y-10640674D01*
X4065301Y-10640674D02*
X4046253Y-10631150D01*
X4046253Y-10631150D02*
X4017682Y-10631150D01*
X4017682Y-10631150D02*
X3998634Y-10640674D01*
X3998634Y-10640674D02*
X3989110Y-10650198D01*
X4198634Y-10764484D02*
X4179587Y-10754960D01*
X4179587Y-10754960D02*
X4170063Y-10745436D01*
X4170063Y-10745436D02*
X4160539Y-10726389D01*
X4160539Y-10726389D02*
X4160539Y-10669246D01*
X4160539Y-10669246D02*
X4170063Y-10650198D01*
X4170063Y-10650198D02*
X4179587Y-10640674D01*
X4179587Y-10640674D02*
X4198634Y-10631150D01*
X4198634Y-10631150D02*
X4227206Y-10631150D01*
X4227206Y-10631150D02*
X4246253Y-10640674D01*
X4246253Y-10640674D02*
X4255777Y-10650198D01*
X4255777Y-10650198D02*
X4265301Y-10669246D01*
X4265301Y-10669246D02*
X4265301Y-10726389D01*
X4265301Y-10726389D02*
X4255777Y-10745436D01*
X4255777Y-10745436D02*
X4246253Y-10754960D01*
X4246253Y-10754960D02*
X4227206Y-10764484D01*
X4227206Y-10764484D02*
X4198634Y-10764484D01*
X4379587Y-10764484D02*
X4360539Y-10754960D01*
X4360539Y-10754960D02*
X4351015Y-10735912D01*
X4351015Y-10735912D02*
X4351015Y-10564484D01*
X4531968Y-10754960D02*
X4512920Y-10764484D01*
X4512920Y-10764484D02*
X4474825Y-10764484D01*
X4474825Y-10764484D02*
X4455777Y-10754960D01*
X4455777Y-10754960D02*
X4446253Y-10735912D01*
X4446253Y-10735912D02*
X4446253Y-10659722D01*
X4446253Y-10659722D02*
X4455777Y-10640674D01*
X4455777Y-10640674D02*
X4474825Y-10631150D01*
X4474825Y-10631150D02*
X4512920Y-10631150D01*
X4512920Y-10631150D02*
X4531968Y-10640674D01*
X4531968Y-10640674D02*
X4541492Y-10659722D01*
X4541492Y-10659722D02*
X4541492Y-10678770D01*
X4541492Y-10678770D02*
X4446253Y-10697817D01*
X4617682Y-10754960D02*
X4636730Y-10764484D01*
X4636730Y-10764484D02*
X4674825Y-10764484D01*
X4674825Y-10764484D02*
X4693873Y-10754960D01*
X4693873Y-10754960D02*
X4703396Y-10735912D01*
X4703396Y-10735912D02*
X4703396Y-10726389D01*
X4703396Y-10726389D02*
X4693873Y-10707341D01*
X4693873Y-10707341D02*
X4674825Y-10697817D01*
X4674825Y-10697817D02*
X4646253Y-10697817D01*
X4646253Y-10697817D02*
X4627206Y-10688293D01*
X4627206Y-10688293D02*
X4617682Y-10669246D01*
X4617682Y-10669246D02*
X4617682Y-10659722D01*
X4617682Y-10659722D02*
X4627206Y-10640674D01*
X4627206Y-10640674D02*
X4646253Y-10631150D01*
X4646253Y-10631150D02*
X4674825Y-10631150D01*
X4674825Y-10631150D02*
X4693873Y-10640674D01*
X4770063Y-10840674D02*
X4779587Y-10831150D01*
X4779587Y-10831150D02*
X4798634Y-10802579D01*
X4798634Y-10802579D02*
X4808158Y-10783531D01*
X4808158Y-10783531D02*
X4817682Y-10754960D01*
X4817682Y-10754960D02*
X4827206Y-10707341D01*
X4827206Y-10707341D02*
X4827206Y-10669246D01*
X4827206Y-10669246D02*
X4817682Y-10621627D01*
X4817682Y-10621627D02*
X4808158Y-10593055D01*
X4808158Y-10593055D02*
X4798634Y-10574008D01*
X4798634Y-10574008D02*
X4779587Y-10545436D01*
X4779587Y-10545436D02*
X4770063Y-10535912D01*
D10*
X-10126Y-10949375D02*
X-10126Y-10924626D01*
X-34875Y-10924626D01*
X-34875Y-10949375D01*
X-10126Y-10949375D01*
D11*
X293872Y-10828484D02*
X312920Y-10828484D01*
X312920Y-10828484D02*
X331967Y-10838008D01*
X331967Y-10838008D02*
X341491Y-10847531D01*
X341491Y-10847531D02*
X351015Y-10866579D01*
X351015Y-10866579D02*
X360539Y-10904674D01*
X360539Y-10904674D02*
X360539Y-10952293D01*
X360539Y-10952293D02*
X351015Y-10990389D01*
X351015Y-10990389D02*
X341491Y-11009436D01*
X341491Y-11009436D02*
X331967Y-11018960D01*
X331967Y-11018960D02*
X312920Y-11028484D01*
X312920Y-11028484D02*
X293872Y-11028484D01*
X293872Y-11028484D02*
X274824Y-11018960D01*
X274824Y-11018960D02*
X265301Y-11009436D01*
X265301Y-11009436D02*
X255777Y-10990389D01*
X255777Y-10990389D02*
X246253Y-10952293D01*
X246253Y-10952293D02*
X246253Y-10904674D01*
X246253Y-10904674D02*
X255777Y-10866579D01*
X255777Y-10866579D02*
X265301Y-10847531D01*
X265301Y-10847531D02*
X274824Y-10838008D01*
X274824Y-10838008D02*
X293872Y-10828484D01*
X446253Y-11009436D02*
X455777Y-11018960D01*
X455777Y-11018960D02*
X446253Y-11028484D01*
X446253Y-11028484D02*
X436729Y-11018960D01*
X436729Y-11018960D02*
X446253Y-11009436D01*
X446253Y-11009436D02*
X446253Y-11028484D01*
X522443Y-10828484D02*
X646253Y-10828484D01*
X646253Y-10828484D02*
X579586Y-10904674D01*
X579586Y-10904674D02*
X608158Y-10904674D01*
X608158Y-10904674D02*
X627205Y-10914198D01*
X627205Y-10914198D02*
X636729Y-10923722D01*
X636729Y-10923722D02*
X646253Y-10942770D01*
X646253Y-10942770D02*
X646253Y-10990389D01*
X646253Y-10990389D02*
X636729Y-11009436D01*
X636729Y-11009436D02*
X627205Y-11018960D01*
X627205Y-11018960D02*
X608158Y-11028484D01*
X608158Y-11028484D02*
X551015Y-11028484D01*
X551015Y-11028484D02*
X531967Y-11018960D01*
X531967Y-11018960D02*
X522443Y-11009436D01*
X827205Y-10828484D02*
X731967Y-10828484D01*
X731967Y-10828484D02*
X722443Y-10923722D01*
X722443Y-10923722D02*
X731967Y-10914198D01*
X731967Y-10914198D02*
X751015Y-10904674D01*
X751015Y-10904674D02*
X798634Y-10904674D01*
X798634Y-10904674D02*
X817682Y-10914198D01*
X817682Y-10914198D02*
X827205Y-10923722D01*
X827205Y-10923722D02*
X836729Y-10942770D01*
X836729Y-10942770D02*
X836729Y-10990389D01*
X836729Y-10990389D02*
X827205Y-11009436D01*
X827205Y-11009436D02*
X817682Y-11018960D01*
X817682Y-11018960D02*
X798634Y-11028484D01*
X798634Y-11028484D02*
X751015Y-11028484D01*
X751015Y-11028484D02*
X731967Y-11018960D01*
X731967Y-11018960D02*
X722443Y-11009436D01*
X960539Y-10828484D02*
X979586Y-10828484D01*
X979586Y-10828484D02*
X998634Y-10838008D01*
X998634Y-10838008D02*
X1008158Y-10847531D01*
X1008158Y-10847531D02*
X1017682Y-10866579D01*
X1017682Y-10866579D02*
X1027205Y-10904674D01*
X1027205Y-10904674D02*
X1027205Y-10952293D01*
X1027205Y-10952293D02*
X1017682Y-10990389D01*
X1017682Y-10990389D02*
X1008158Y-11009436D01*
X1008158Y-11009436D02*
X998634Y-11018960D01*
X998634Y-11018960D02*
X979586Y-11028484D01*
X979586Y-11028484D02*
X960539Y-11028484D01*
X960539Y-11028484D02*
X941491Y-11018960D01*
X941491Y-11018960D02*
X931967Y-11009436D01*
X931967Y-11009436D02*
X922443Y-10990389D01*
X922443Y-10990389D02*
X912920Y-10952293D01*
X912920Y-10952293D02*
X912920Y-10904674D01*
X912920Y-10904674D02*
X922443Y-10866579D01*
X922443Y-10866579D02*
X931967Y-10847531D01*
X931967Y-10847531D02*
X941491Y-10838008D01*
X941491Y-10838008D02*
X960539Y-10828484D01*
X1112920Y-11028484D02*
X1112920Y-10895150D01*
X1112920Y-10914198D02*
X1122444Y-10904674D01*
X1122444Y-10904674D02*
X1141491Y-10895150D01*
X1141491Y-10895150D02*
X1170063Y-10895150D01*
X1170063Y-10895150D02*
X1189110Y-10904674D01*
X1189110Y-10904674D02*
X1198634Y-10923722D01*
X1198634Y-10923722D02*
X1198634Y-11028484D01*
X1198634Y-10923722D02*
X1208158Y-10904674D01*
X1208158Y-10904674D02*
X1227205Y-10895150D01*
X1227205Y-10895150D02*
X1255777Y-10895150D01*
X1255777Y-10895150D02*
X1274825Y-10904674D01*
X1274825Y-10904674D02*
X1284348Y-10923722D01*
X1284348Y-10923722D02*
X1284348Y-11028484D01*
X1379586Y-11028484D02*
X1379586Y-10895150D01*
X1379586Y-10914198D02*
X1389110Y-10904674D01*
X1389110Y-10904674D02*
X1408158Y-10895150D01*
X1408158Y-10895150D02*
X1436729Y-10895150D01*
X1436729Y-10895150D02*
X1455777Y-10904674D01*
X1455777Y-10904674D02*
X1465301Y-10923722D01*
X1465301Y-10923722D02*
X1465301Y-11028484D01*
X1465301Y-10923722D02*
X1474824Y-10904674D01*
X1474824Y-10904674D02*
X1493872Y-10895150D01*
X1493872Y-10895150D02*
X1522443Y-10895150D01*
X1522443Y-10895150D02*
X1541491Y-10904674D01*
X1541491Y-10904674D02*
X1551015Y-10923722D01*
X1551015Y-10923722D02*
X1551015Y-11028484D01*
X1941491Y-10818960D02*
X1770063Y-11076103D01*
X2198634Y-10828484D02*
X2217682Y-10828484D01*
X2217682Y-10828484D02*
X2236729Y-10838008D01*
X2236729Y-10838008D02*
X2246253Y-10847531D01*
X2246253Y-10847531D02*
X2255777Y-10866579D01*
X2255777Y-10866579D02*
X2265301Y-10904674D01*
X2265301Y-10904674D02*
X2265301Y-10952293D01*
X2265301Y-10952293D02*
X2255777Y-10990389D01*
X2255777Y-10990389D02*
X2246253Y-11009436D01*
X2246253Y-11009436D02*
X2236729Y-11018960D01*
X2236729Y-11018960D02*
X2217682Y-11028484D01*
X2217682Y-11028484D02*
X2198634Y-11028484D01*
X2198634Y-11028484D02*
X2179587Y-11018960D01*
X2179587Y-11018960D02*
X2170063Y-11009436D01*
X2170063Y-11009436D02*
X2160539Y-10990389D01*
X2160539Y-10990389D02*
X2151015Y-10952293D01*
X2151015Y-10952293D02*
X2151015Y-10904674D01*
X2151015Y-10904674D02*
X2160539Y-10866579D01*
X2160539Y-10866579D02*
X2170063Y-10847531D01*
X2170063Y-10847531D02*
X2179587Y-10838008D01*
X2179587Y-10838008D02*
X2198634Y-10828484D01*
X2351015Y-11009436D02*
X2360539Y-11018960D01*
X2360539Y-11018960D02*
X2351015Y-11028484D01*
X2351015Y-11028484D02*
X2341491Y-11018960D01*
X2341491Y-11018960D02*
X2351015Y-11009436D01*
X2351015Y-11009436D02*
X2351015Y-11028484D01*
X2484348Y-10828484D02*
X2503396Y-10828484D01*
X2503396Y-10828484D02*
X2522444Y-10838008D01*
X2522444Y-10838008D02*
X2531968Y-10847531D01*
X2531968Y-10847531D02*
X2541491Y-10866579D01*
X2541491Y-10866579D02*
X2551015Y-10904674D01*
X2551015Y-10904674D02*
X2551015Y-10952293D01*
X2551015Y-10952293D02*
X2541491Y-10990389D01*
X2541491Y-10990389D02*
X2531968Y-11009436D01*
X2531968Y-11009436D02*
X2522444Y-11018960D01*
X2522444Y-11018960D02*
X2503396Y-11028484D01*
X2503396Y-11028484D02*
X2484348Y-11028484D01*
X2484348Y-11028484D02*
X2465301Y-11018960D01*
X2465301Y-11018960D02*
X2455777Y-11009436D01*
X2455777Y-11009436D02*
X2446253Y-10990389D01*
X2446253Y-10990389D02*
X2436729Y-10952293D01*
X2436729Y-10952293D02*
X2436729Y-10904674D01*
X2436729Y-10904674D02*
X2446253Y-10866579D01*
X2446253Y-10866579D02*
X2455777Y-10847531D01*
X2455777Y-10847531D02*
X2465301Y-10838008D01*
X2465301Y-10838008D02*
X2484348Y-10828484D01*
X2741491Y-11028484D02*
X2627206Y-11028484D01*
X2684348Y-11028484D02*
X2684348Y-10828484D01*
X2684348Y-10828484D02*
X2665301Y-10857055D01*
X2665301Y-10857055D02*
X2646253Y-10876103D01*
X2646253Y-10876103D02*
X2627206Y-10885627D01*
X2808158Y-10828484D02*
X2931967Y-10828484D01*
X2931967Y-10828484D02*
X2865301Y-10904674D01*
X2865301Y-10904674D02*
X2893872Y-10904674D01*
X2893872Y-10904674D02*
X2912920Y-10914198D01*
X2912920Y-10914198D02*
X2922444Y-10923722D01*
X2922444Y-10923722D02*
X2931967Y-10942770D01*
X2931967Y-10942770D02*
X2931967Y-10990389D01*
X2931967Y-10990389D02*
X2922444Y-11009436D01*
X2922444Y-11009436D02*
X2912920Y-11018960D01*
X2912920Y-11018960D02*
X2893872Y-11028484D01*
X2893872Y-11028484D02*
X2836729Y-11028484D01*
X2836729Y-11028484D02*
X2817682Y-11018960D01*
X2817682Y-11018960D02*
X2808158Y-11009436D01*
X3046253Y-10914198D02*
X3027206Y-10904674D01*
X3027206Y-10904674D02*
X3017682Y-10895150D01*
X3017682Y-10895150D02*
X3008158Y-10876103D01*
X3008158Y-10876103D02*
X3008158Y-10866579D01*
X3008158Y-10866579D02*
X3017682Y-10847531D01*
X3017682Y-10847531D02*
X3027206Y-10838008D01*
X3027206Y-10838008D02*
X3046253Y-10828484D01*
X3046253Y-10828484D02*
X3084348Y-10828484D01*
X3084348Y-10828484D02*
X3103396Y-10838008D01*
X3103396Y-10838008D02*
X3112920Y-10847531D01*
X3112920Y-10847531D02*
X3122444Y-10866579D01*
X3122444Y-10866579D02*
X3122444Y-10876103D01*
X3122444Y-10876103D02*
X3112920Y-10895150D01*
X3112920Y-10895150D02*
X3103396Y-10904674D01*
X3103396Y-10904674D02*
X3084348Y-10914198D01*
X3084348Y-10914198D02*
X3046253Y-10914198D01*
X3046253Y-10914198D02*
X3027206Y-10923722D01*
X3027206Y-10923722D02*
X3017682Y-10933246D01*
X3017682Y-10933246D02*
X3008158Y-10952293D01*
X3008158Y-10952293D02*
X3008158Y-10990389D01*
X3008158Y-10990389D02*
X3017682Y-11009436D01*
X3017682Y-11009436D02*
X3027206Y-11018960D01*
X3027206Y-11018960D02*
X3046253Y-11028484D01*
X3046253Y-11028484D02*
X3084348Y-11028484D01*
X3084348Y-11028484D02*
X3103396Y-11018960D01*
X3103396Y-11018960D02*
X3112920Y-11009436D01*
X3112920Y-11009436D02*
X3122444Y-10990389D01*
X3122444Y-10990389D02*
X3122444Y-10952293D01*
X3122444Y-10952293D02*
X3112920Y-10933246D01*
X3112920Y-10933246D02*
X3103396Y-10923722D01*
X3103396Y-10923722D02*
X3084348Y-10914198D01*
X3198634Y-10828484D02*
X3198634Y-10866579D01*
X3274825Y-10828484D02*
X3274825Y-10866579D01*
X3570063Y-11104674D02*
X3560539Y-11095150D01*
X3560539Y-11095150D02*
X3541491Y-11066579D01*
X3541491Y-11066579D02*
X3531968Y-11047531D01*
X3531968Y-11047531D02*
X3522444Y-11018960D01*
X3522444Y-11018960D02*
X3512920Y-10971341D01*
X3512920Y-10971341D02*
X3512920Y-10933246D01*
X3512920Y-10933246D02*
X3522444Y-10885627D01*
X3522444Y-10885627D02*
X3531968Y-10857055D01*
X3531968Y-10857055D02*
X3541491Y-10838008D01*
X3541491Y-10838008D02*
X3560539Y-10809436D01*
X3560539Y-10809436D02*
X3570063Y-10799912D01*
X3751015Y-11028484D02*
X3636729Y-11028484D01*
X3693872Y-11028484D02*
X3693872Y-10828484D01*
X3693872Y-10828484D02*
X3674825Y-10857055D01*
X3674825Y-10857055D02*
X3655777Y-10876103D01*
X3655777Y-10876103D02*
X3636729Y-10885627D01*
X3922444Y-10828484D02*
X3884348Y-10828484D01*
X3884348Y-10828484D02*
X3865301Y-10838008D01*
X3865301Y-10838008D02*
X3855777Y-10847531D01*
X3855777Y-10847531D02*
X3836729Y-10876103D01*
X3836729Y-10876103D02*
X3827206Y-10914198D01*
X3827206Y-10914198D02*
X3827206Y-10990389D01*
X3827206Y-10990389D02*
X3836729Y-11009436D01*
X3836729Y-11009436D02*
X3846253Y-11018960D01*
X3846253Y-11018960D02*
X3865301Y-11028484D01*
X3865301Y-11028484D02*
X3903396Y-11028484D01*
X3903396Y-11028484D02*
X3922444Y-11018960D01*
X3922444Y-11018960D02*
X3931968Y-11009436D01*
X3931968Y-11009436D02*
X3941491Y-10990389D01*
X3941491Y-10990389D02*
X3941491Y-10942770D01*
X3941491Y-10942770D02*
X3931968Y-10923722D01*
X3931968Y-10923722D02*
X3922444Y-10914198D01*
X3922444Y-10914198D02*
X3903396Y-10904674D01*
X3903396Y-10904674D02*
X3865301Y-10904674D01*
X3865301Y-10904674D02*
X3846253Y-10914198D01*
X3846253Y-10914198D02*
X3836729Y-10923722D01*
X3836729Y-10923722D02*
X3827206Y-10942770D01*
X4179587Y-11028484D02*
X4179587Y-10828484D01*
X4265301Y-11028484D02*
X4265301Y-10923722D01*
X4265301Y-10923722D02*
X4255777Y-10904674D01*
X4255777Y-10904674D02*
X4236730Y-10895150D01*
X4236730Y-10895150D02*
X4208158Y-10895150D01*
X4208158Y-10895150D02*
X4189110Y-10904674D01*
X4189110Y-10904674D02*
X4179587Y-10914198D01*
X4389111Y-11028484D02*
X4370063Y-11018960D01*
X4370063Y-11018960D02*
X4360539Y-11009436D01*
X4360539Y-11009436D02*
X4351015Y-10990389D01*
X4351015Y-10990389D02*
X4351015Y-10933246D01*
X4351015Y-10933246D02*
X4360539Y-10914198D01*
X4360539Y-10914198D02*
X4370063Y-10904674D01*
X4370063Y-10904674D02*
X4389111Y-10895150D01*
X4389111Y-10895150D02*
X4417682Y-10895150D01*
X4417682Y-10895150D02*
X4436730Y-10904674D01*
X4436730Y-10904674D02*
X4446253Y-10914198D01*
X4446253Y-10914198D02*
X4455777Y-10933246D01*
X4455777Y-10933246D02*
X4455777Y-10990389D01*
X4455777Y-10990389D02*
X4446253Y-11009436D01*
X4446253Y-11009436D02*
X4436730Y-11018960D01*
X4436730Y-11018960D02*
X4417682Y-11028484D01*
X4417682Y-11028484D02*
X4389111Y-11028484D01*
X4570063Y-11028484D02*
X4551015Y-11018960D01*
X4551015Y-11018960D02*
X4541492Y-10999912D01*
X4541492Y-10999912D02*
X4541492Y-10828484D01*
X4722444Y-11018960D02*
X4703396Y-11028484D01*
X4703396Y-11028484D02*
X4665301Y-11028484D01*
X4665301Y-11028484D02*
X4646253Y-11018960D01*
X4646253Y-11018960D02*
X4636730Y-10999912D01*
X4636730Y-10999912D02*
X4636730Y-10923722D01*
X4636730Y-10923722D02*
X4646253Y-10904674D01*
X4646253Y-10904674D02*
X4665301Y-10895150D01*
X4665301Y-10895150D02*
X4703396Y-10895150D01*
X4703396Y-10895150D02*
X4722444Y-10904674D01*
X4722444Y-10904674D02*
X4731968Y-10923722D01*
X4731968Y-10923722D02*
X4731968Y-10942770D01*
X4731968Y-10942770D02*
X4636730Y-10961817D01*
X4808158Y-11018960D02*
X4827206Y-11028484D01*
X4827206Y-11028484D02*
X4865301Y-11028484D01*
X4865301Y-11028484D02*
X4884349Y-11018960D01*
X4884349Y-11018960D02*
X4893873Y-10999912D01*
X4893873Y-10999912D02*
X4893873Y-10990389D01*
X4893873Y-10990389D02*
X4884349Y-10971341D01*
X4884349Y-10971341D02*
X4865301Y-10961817D01*
X4865301Y-10961817D02*
X4836730Y-10961817D01*
X4836730Y-10961817D02*
X4817682Y-10952293D01*
X4817682Y-10952293D02*
X4808158Y-10933246D01*
X4808158Y-10933246D02*
X4808158Y-10923722D01*
X4808158Y-10923722D02*
X4817682Y-10904674D01*
X4817682Y-10904674D02*
X4836730Y-10895150D01*
X4836730Y-10895150D02*
X4865301Y-10895150D01*
X4865301Y-10895150D02*
X4884349Y-10904674D01*
X4960539Y-11104674D02*
X4970063Y-11095150D01*
X4970063Y-11095150D02*
X4989111Y-11066579D01*
X4989111Y-11066579D02*
X4998634Y-11047531D01*
X4998634Y-11047531D02*
X5008158Y-11018960D01*
X5008158Y-11018960D02*
X5017682Y-10971341D01*
X5017682Y-10971341D02*
X5017682Y-10933246D01*
X5017682Y-10933246D02*
X5008158Y-10885627D01*
X5008158Y-10885627D02*
X4998634Y-10857055D01*
X4998634Y-10857055D02*
X4989111Y-10838008D01*
X4989111Y-10838008D02*
X4970063Y-10809436D01*
X4970063Y-10809436D02*
X4960539Y-10799912D01*
D10*
X-25000Y-11221000D02*
X-5000Y-11201000D01*
X-25000Y-11181000D01*
X-45000Y-11201000D01*
X-25000Y-11221000D01*
D11*
X293872Y-11092484D02*
X312920Y-11092484D01*
X312920Y-11092484D02*
X331967Y-11102008D01*
X331967Y-11102008D02*
X341491Y-11111531D01*
X341491Y-11111531D02*
X351015Y-11130579D01*
X351015Y-11130579D02*
X360539Y-11168674D01*
X360539Y-11168674D02*
X360539Y-11216293D01*
X360539Y-11216293D02*
X351015Y-11254388D01*
X351015Y-11254388D02*
X341491Y-11273436D01*
X341491Y-11273436D02*
X331967Y-11282960D01*
X331967Y-11282960D02*
X312920Y-11292484D01*
X312920Y-11292484D02*
X293872Y-11292484D01*
X293872Y-11292484D02*
X274824Y-11282960D01*
X274824Y-11282960D02*
X265301Y-11273436D01*
X265301Y-11273436D02*
X255777Y-11254388D01*
X255777Y-11254388D02*
X246253Y-11216293D01*
X246253Y-11216293D02*
X246253Y-11168674D01*
X246253Y-11168674D02*
X255777Y-11130579D01*
X255777Y-11130579D02*
X265301Y-11111531D01*
X265301Y-11111531D02*
X274824Y-11102008D01*
X274824Y-11102008D02*
X293872Y-11092484D01*
X446253Y-11273436D02*
X455777Y-11282960D01*
X455777Y-11282960D02*
X446253Y-11292484D01*
X446253Y-11292484D02*
X436729Y-11282960D01*
X436729Y-11282960D02*
X446253Y-11273436D01*
X446253Y-11273436D02*
X446253Y-11292484D01*
X627205Y-11159150D02*
X627205Y-11292484D01*
X579586Y-11082960D02*
X531967Y-11225817D01*
X531967Y-11225817D02*
X655777Y-11225817D01*
X770062Y-11092484D02*
X789110Y-11092484D01*
X789110Y-11092484D02*
X808158Y-11102008D01*
X808158Y-11102008D02*
X817682Y-11111531D01*
X817682Y-11111531D02*
X827205Y-11130579D01*
X827205Y-11130579D02*
X836729Y-11168674D01*
X836729Y-11168674D02*
X836729Y-11216293D01*
X836729Y-11216293D02*
X827205Y-11254388D01*
X827205Y-11254388D02*
X817682Y-11273436D01*
X817682Y-11273436D02*
X808158Y-11282960D01*
X808158Y-11282960D02*
X789110Y-11292484D01*
X789110Y-11292484D02*
X770062Y-11292484D01*
X770062Y-11292484D02*
X751015Y-11282960D01*
X751015Y-11282960D02*
X741491Y-11273436D01*
X741491Y-11273436D02*
X731967Y-11254388D01*
X731967Y-11254388D02*
X722443Y-11216293D01*
X722443Y-11216293D02*
X722443Y-11168674D01*
X722443Y-11168674D02*
X731967Y-11130579D01*
X731967Y-11130579D02*
X741491Y-11111531D01*
X741491Y-11111531D02*
X751015Y-11102008D01*
X751015Y-11102008D02*
X770062Y-11092484D01*
X960539Y-11092484D02*
X979586Y-11092484D01*
X979586Y-11092484D02*
X998634Y-11102008D01*
X998634Y-11102008D02*
X1008158Y-11111531D01*
X1008158Y-11111531D02*
X1017682Y-11130579D01*
X1017682Y-11130579D02*
X1027205Y-11168674D01*
X1027205Y-11168674D02*
X1027205Y-11216293D01*
X1027205Y-11216293D02*
X1017682Y-11254388D01*
X1017682Y-11254388D02*
X1008158Y-11273436D01*
X1008158Y-11273436D02*
X998634Y-11282960D01*
X998634Y-11282960D02*
X979586Y-11292484D01*
X979586Y-11292484D02*
X960539Y-11292484D01*
X960539Y-11292484D02*
X941491Y-11282960D01*
X941491Y-11282960D02*
X931967Y-11273436D01*
X931967Y-11273436D02*
X922443Y-11254388D01*
X922443Y-11254388D02*
X912920Y-11216293D01*
X912920Y-11216293D02*
X912920Y-11168674D01*
X912920Y-11168674D02*
X922443Y-11130579D01*
X922443Y-11130579D02*
X931967Y-11111531D01*
X931967Y-11111531D02*
X941491Y-11102008D01*
X941491Y-11102008D02*
X960539Y-11092484D01*
X1112920Y-11292484D02*
X1112920Y-11159150D01*
X1112920Y-11178198D02*
X1122444Y-11168674D01*
X1122444Y-11168674D02*
X1141491Y-11159150D01*
X1141491Y-11159150D02*
X1170063Y-11159150D01*
X1170063Y-11159150D02*
X1189110Y-11168674D01*
X1189110Y-11168674D02*
X1198634Y-11187722D01*
X1198634Y-11187722D02*
X1198634Y-11292484D01*
X1198634Y-11187722D02*
X1208158Y-11168674D01*
X1208158Y-11168674D02*
X1227205Y-11159150D01*
X1227205Y-11159150D02*
X1255777Y-11159150D01*
X1255777Y-11159150D02*
X1274825Y-11168674D01*
X1274825Y-11168674D02*
X1284348Y-11187722D01*
X1284348Y-11187722D02*
X1284348Y-11292484D01*
X1379586Y-11292484D02*
X1379586Y-11159150D01*
X1379586Y-11178198D02*
X1389110Y-11168674D01*
X1389110Y-11168674D02*
X1408158Y-11159150D01*
X1408158Y-11159150D02*
X1436729Y-11159150D01*
X1436729Y-11159150D02*
X1455777Y-11168674D01*
X1455777Y-11168674D02*
X1465301Y-11187722D01*
X1465301Y-11187722D02*
X1465301Y-11292484D01*
X1465301Y-11187722D02*
X1474824Y-11168674D01*
X1474824Y-11168674D02*
X1493872Y-11159150D01*
X1493872Y-11159150D02*
X1522443Y-11159150D01*
X1522443Y-11159150D02*
X1541491Y-11168674D01*
X1541491Y-11168674D02*
X1551015Y-11187722D01*
X1551015Y-11187722D02*
X1551015Y-11292484D01*
X1941491Y-11082960D02*
X1770063Y-11340103D01*
X2198634Y-11092484D02*
X2217682Y-11092484D01*
X2217682Y-11092484D02*
X2236729Y-11102008D01*
X2236729Y-11102008D02*
X2246253Y-11111531D01*
X2246253Y-11111531D02*
X2255777Y-11130579D01*
X2255777Y-11130579D02*
X2265301Y-11168674D01*
X2265301Y-11168674D02*
X2265301Y-11216293D01*
X2265301Y-11216293D02*
X2255777Y-11254388D01*
X2255777Y-11254388D02*
X2246253Y-11273436D01*
X2246253Y-11273436D02*
X2236729Y-11282960D01*
X2236729Y-11282960D02*
X2217682Y-11292484D01*
X2217682Y-11292484D02*
X2198634Y-11292484D01*
X2198634Y-11292484D02*
X2179587Y-11282960D01*
X2179587Y-11282960D02*
X2170063Y-11273436D01*
X2170063Y-11273436D02*
X2160539Y-11254388D01*
X2160539Y-11254388D02*
X2151015Y-11216293D01*
X2151015Y-11216293D02*
X2151015Y-11168674D01*
X2151015Y-11168674D02*
X2160539Y-11130579D01*
X2160539Y-11130579D02*
X2170063Y-11111531D01*
X2170063Y-11111531D02*
X2179587Y-11102008D01*
X2179587Y-11102008D02*
X2198634Y-11092484D01*
X2351015Y-11273436D02*
X2360539Y-11282960D01*
X2360539Y-11282960D02*
X2351015Y-11292484D01*
X2351015Y-11292484D02*
X2341491Y-11282960D01*
X2341491Y-11282960D02*
X2351015Y-11273436D01*
X2351015Y-11273436D02*
X2351015Y-11292484D01*
X2484348Y-11092484D02*
X2503396Y-11092484D01*
X2503396Y-11092484D02*
X2522444Y-11102008D01*
X2522444Y-11102008D02*
X2531968Y-11111531D01*
X2531968Y-11111531D02*
X2541491Y-11130579D01*
X2541491Y-11130579D02*
X2551015Y-11168674D01*
X2551015Y-11168674D02*
X2551015Y-11216293D01*
X2551015Y-11216293D02*
X2541491Y-11254388D01*
X2541491Y-11254388D02*
X2531968Y-11273436D01*
X2531968Y-11273436D02*
X2522444Y-11282960D01*
X2522444Y-11282960D02*
X2503396Y-11292484D01*
X2503396Y-11292484D02*
X2484348Y-11292484D01*
X2484348Y-11292484D02*
X2465301Y-11282960D01*
X2465301Y-11282960D02*
X2455777Y-11273436D01*
X2455777Y-11273436D02*
X2446253Y-11254388D01*
X2446253Y-11254388D02*
X2436729Y-11216293D01*
X2436729Y-11216293D02*
X2436729Y-11168674D01*
X2436729Y-11168674D02*
X2446253Y-11130579D01*
X2446253Y-11130579D02*
X2455777Y-11111531D01*
X2455777Y-11111531D02*
X2465301Y-11102008D01*
X2465301Y-11102008D02*
X2484348Y-11092484D01*
X2741491Y-11292484D02*
X2627206Y-11292484D01*
X2684348Y-11292484D02*
X2684348Y-11092484D01*
X2684348Y-11092484D02*
X2665301Y-11121055D01*
X2665301Y-11121055D02*
X2646253Y-11140103D01*
X2646253Y-11140103D02*
X2627206Y-11149627D01*
X2922444Y-11092484D02*
X2827206Y-11092484D01*
X2827206Y-11092484D02*
X2817682Y-11187722D01*
X2817682Y-11187722D02*
X2827206Y-11178198D01*
X2827206Y-11178198D02*
X2846253Y-11168674D01*
X2846253Y-11168674D02*
X2893872Y-11168674D01*
X2893872Y-11168674D02*
X2912920Y-11178198D01*
X2912920Y-11178198D02*
X2922444Y-11187722D01*
X2922444Y-11187722D02*
X2931967Y-11206769D01*
X2931967Y-11206769D02*
X2931967Y-11254388D01*
X2931967Y-11254388D02*
X2922444Y-11273436D01*
X2922444Y-11273436D02*
X2912920Y-11282960D01*
X2912920Y-11282960D02*
X2893872Y-11292484D01*
X2893872Y-11292484D02*
X2846253Y-11292484D01*
X2846253Y-11292484D02*
X2827206Y-11282960D01*
X2827206Y-11282960D02*
X2817682Y-11273436D01*
X2998634Y-11092484D02*
X3131967Y-11092484D01*
X3131967Y-11092484D02*
X3046253Y-11292484D01*
X3198634Y-11092484D02*
X3198634Y-11130579D01*
X3274825Y-11092484D02*
X3274825Y-11130579D01*
X3570063Y-11368674D02*
X3560539Y-11359150D01*
X3560539Y-11359150D02*
X3541491Y-11330579D01*
X3541491Y-11330579D02*
X3531968Y-11311531D01*
X3531968Y-11311531D02*
X3522444Y-11282960D01*
X3522444Y-11282960D02*
X3512920Y-11235341D01*
X3512920Y-11235341D02*
X3512920Y-11197246D01*
X3512920Y-11197246D02*
X3522444Y-11149627D01*
X3522444Y-11149627D02*
X3531968Y-11121055D01*
X3531968Y-11121055D02*
X3541491Y-11102008D01*
X3541491Y-11102008D02*
X3560539Y-11073436D01*
X3560539Y-11073436D02*
X3570063Y-11063912D01*
X3751015Y-11292484D02*
X3636729Y-11292484D01*
X3693872Y-11292484D02*
X3693872Y-11092484D01*
X3693872Y-11092484D02*
X3674825Y-11121055D01*
X3674825Y-11121055D02*
X3655777Y-11140103D01*
X3655777Y-11140103D02*
X3636729Y-11149627D01*
X3931968Y-11092484D02*
X3836729Y-11092484D01*
X3836729Y-11092484D02*
X3827206Y-11187722D01*
X3827206Y-11187722D02*
X3836729Y-11178198D01*
X3836729Y-11178198D02*
X3855777Y-11168674D01*
X3855777Y-11168674D02*
X3903396Y-11168674D01*
X3903396Y-11168674D02*
X3922444Y-11178198D01*
X3922444Y-11178198D02*
X3931968Y-11187722D01*
X3931968Y-11187722D02*
X3941491Y-11206769D01*
X3941491Y-11206769D02*
X3941491Y-11254388D01*
X3941491Y-11254388D02*
X3931968Y-11273436D01*
X3931968Y-11273436D02*
X3922444Y-11282960D01*
X3922444Y-11282960D02*
X3903396Y-11292484D01*
X3903396Y-11292484D02*
X3855777Y-11292484D01*
X3855777Y-11292484D02*
X3836729Y-11282960D01*
X3836729Y-11282960D02*
X3827206Y-11273436D01*
X4179587Y-11292484D02*
X4179587Y-11092484D01*
X4265301Y-11292484D02*
X4265301Y-11187722D01*
X4265301Y-11187722D02*
X4255777Y-11168674D01*
X4255777Y-11168674D02*
X4236730Y-11159150D01*
X4236730Y-11159150D02*
X4208158Y-11159150D01*
X4208158Y-11159150D02*
X4189110Y-11168674D01*
X4189110Y-11168674D02*
X4179587Y-11178198D01*
X4389111Y-11292484D02*
X4370063Y-11282960D01*
X4370063Y-11282960D02*
X4360539Y-11273436D01*
X4360539Y-11273436D02*
X4351015Y-11254388D01*
X4351015Y-11254388D02*
X4351015Y-11197246D01*
X4351015Y-11197246D02*
X4360539Y-11178198D01*
X4360539Y-11178198D02*
X4370063Y-11168674D01*
X4370063Y-11168674D02*
X4389111Y-11159150D01*
X4389111Y-11159150D02*
X4417682Y-11159150D01*
X4417682Y-11159150D02*
X4436730Y-11168674D01*
X4436730Y-11168674D02*
X4446253Y-11178198D01*
X4446253Y-11178198D02*
X4455777Y-11197246D01*
X4455777Y-11197246D02*
X4455777Y-11254388D01*
X4455777Y-11254388D02*
X4446253Y-11273436D01*
X4446253Y-11273436D02*
X4436730Y-11282960D01*
X4436730Y-11282960D02*
X4417682Y-11292484D01*
X4417682Y-11292484D02*
X4389111Y-11292484D01*
X4570063Y-11292484D02*
X4551015Y-11282960D01*
X4551015Y-11282960D02*
X4541492Y-11263912D01*
X4541492Y-11263912D02*
X4541492Y-11092484D01*
X4722444Y-11282960D02*
X4703396Y-11292484D01*
X4703396Y-11292484D02*
X4665301Y-11292484D01*
X4665301Y-11292484D02*
X4646253Y-11282960D01*
X4646253Y-11282960D02*
X4636730Y-11263912D01*
X4636730Y-11263912D02*
X4636730Y-11187722D01*
X4636730Y-11187722D02*
X4646253Y-11168674D01*
X4646253Y-11168674D02*
X4665301Y-11159150D01*
X4665301Y-11159150D02*
X4703396Y-11159150D01*
X4703396Y-11159150D02*
X4722444Y-11168674D01*
X4722444Y-11168674D02*
X4731968Y-11187722D01*
X4731968Y-11187722D02*
X4731968Y-11206769D01*
X4731968Y-11206769D02*
X4636730Y-11225817D01*
X4808158Y-11282960D02*
X4827206Y-11292484D01*
X4827206Y-11292484D02*
X4865301Y-11292484D01*
X4865301Y-11292484D02*
X4884349Y-11282960D01*
X4884349Y-11282960D02*
X4893873Y-11263912D01*
X4893873Y-11263912D02*
X4893873Y-11254388D01*
X4893873Y-11254388D02*
X4884349Y-11235341D01*
X4884349Y-11235341D02*
X4865301Y-11225817D01*
X4865301Y-11225817D02*
X4836730Y-11225817D01*
X4836730Y-11225817D02*
X4817682Y-11216293D01*
X4817682Y-11216293D02*
X4808158Y-11197246D01*
X4808158Y-11197246D02*
X4808158Y-11187722D01*
X4808158Y-11187722D02*
X4817682Y-11168674D01*
X4817682Y-11168674D02*
X4836730Y-11159150D01*
X4836730Y-11159150D02*
X4865301Y-11159150D01*
X4865301Y-11159150D02*
X4884349Y-11168674D01*
X4960539Y-11368674D02*
X4970063Y-11359150D01*
X4970063Y-11359150D02*
X4989111Y-11330579D01*
X4989111Y-11330579D02*
X4998634Y-11311531D01*
X4998634Y-11311531D02*
X5008158Y-11282960D01*
X5008158Y-11282960D02*
X5017682Y-11235341D01*
X5017682Y-11235341D02*
X5017682Y-11197246D01*
X5017682Y-11197246D02*
X5008158Y-11149627D01*
X5008158Y-11149627D02*
X4998634Y-11121055D01*
X4998634Y-11121055D02*
X4989111Y-11102008D01*
X4989111Y-11102008D02*
X4970063Y-11073436D01*
X4970063Y-11073436D02*
X4960539Y-11063912D01*
D10*
X-65000Y-11435000D02*
X-5000Y-11495000D01*
X-5000Y-11435000D02*
X-65000Y-11495000D01*
X-5000Y-11465000D02*
G75*
G02*
X-65000Y-11465000I-30000J0D01*
G01*
X-65000Y-11465000D02*
G75*
G02*
X-5000Y-11465000I30000J0D01*
G01*
D11*
X293872Y-11356484D02*
X312920Y-11356484D01*
X312920Y-11356484D02*
X331967Y-11366008D01*
X331967Y-11366008D02*
X341491Y-11375531D01*
X341491Y-11375531D02*
X351015Y-11394579D01*
X351015Y-11394579D02*
X360539Y-11432674D01*
X360539Y-11432674D02*
X360539Y-11480293D01*
X360539Y-11480293D02*
X351015Y-11518388D01*
X351015Y-11518388D02*
X341491Y-11537436D01*
X341491Y-11537436D02*
X331967Y-11546960D01*
X331967Y-11546960D02*
X312920Y-11556484D01*
X312920Y-11556484D02*
X293872Y-11556484D01*
X293872Y-11556484D02*
X274824Y-11546960D01*
X274824Y-11546960D02*
X265301Y-11537436D01*
X265301Y-11537436D02*
X255777Y-11518388D01*
X255777Y-11518388D02*
X246253Y-11480293D01*
X246253Y-11480293D02*
X246253Y-11432674D01*
X246253Y-11432674D02*
X255777Y-11394579D01*
X255777Y-11394579D02*
X265301Y-11375531D01*
X265301Y-11375531D02*
X274824Y-11366008D01*
X274824Y-11366008D02*
X293872Y-11356484D01*
X446253Y-11537436D02*
X455777Y-11546960D01*
X455777Y-11546960D02*
X446253Y-11556484D01*
X446253Y-11556484D02*
X436729Y-11546960D01*
X436729Y-11546960D02*
X446253Y-11537436D01*
X446253Y-11537436D02*
X446253Y-11556484D01*
X627205Y-11356484D02*
X589110Y-11356484D01*
X589110Y-11356484D02*
X570063Y-11366008D01*
X570063Y-11366008D02*
X560539Y-11375531D01*
X560539Y-11375531D02*
X541491Y-11404103D01*
X541491Y-11404103D02*
X531967Y-11442198D01*
X531967Y-11442198D02*
X531967Y-11518388D01*
X531967Y-11518388D02*
X541491Y-11537436D01*
X541491Y-11537436D02*
X551015Y-11546960D01*
X551015Y-11546960D02*
X570063Y-11556484D01*
X570063Y-11556484D02*
X608158Y-11556484D01*
X608158Y-11556484D02*
X627205Y-11546960D01*
X627205Y-11546960D02*
X636729Y-11537436D01*
X636729Y-11537436D02*
X646253Y-11518388D01*
X646253Y-11518388D02*
X646253Y-11470769D01*
X646253Y-11470769D02*
X636729Y-11451722D01*
X636729Y-11451722D02*
X627205Y-11442198D01*
X627205Y-11442198D02*
X608158Y-11432674D01*
X608158Y-11432674D02*
X570063Y-11432674D01*
X570063Y-11432674D02*
X551015Y-11442198D01*
X551015Y-11442198D02*
X541491Y-11451722D01*
X541491Y-11451722D02*
X531967Y-11470769D01*
X770062Y-11356484D02*
X789110Y-11356484D01*
X789110Y-11356484D02*
X808158Y-11366008D01*
X808158Y-11366008D02*
X817682Y-11375531D01*
X817682Y-11375531D02*
X827205Y-11394579D01*
X827205Y-11394579D02*
X836729Y-11432674D01*
X836729Y-11432674D02*
X836729Y-11480293D01*
X836729Y-11480293D02*
X827205Y-11518388D01*
X827205Y-11518388D02*
X817682Y-11537436D01*
X817682Y-11537436D02*
X808158Y-11546960D01*
X808158Y-11546960D02*
X789110Y-11556484D01*
X789110Y-11556484D02*
X770062Y-11556484D01*
X770062Y-11556484D02*
X751015Y-11546960D01*
X751015Y-11546960D02*
X741491Y-11537436D01*
X741491Y-11537436D02*
X731967Y-11518388D01*
X731967Y-11518388D02*
X722443Y-11480293D01*
X722443Y-11480293D02*
X722443Y-11432674D01*
X722443Y-11432674D02*
X731967Y-11394579D01*
X731967Y-11394579D02*
X741491Y-11375531D01*
X741491Y-11375531D02*
X751015Y-11366008D01*
X751015Y-11366008D02*
X770062Y-11356484D01*
X960539Y-11356484D02*
X979586Y-11356484D01*
X979586Y-11356484D02*
X998634Y-11366008D01*
X998634Y-11366008D02*
X1008158Y-11375531D01*
X1008158Y-11375531D02*
X1017682Y-11394579D01*
X1017682Y-11394579D02*
X1027205Y-11432674D01*
X1027205Y-11432674D02*
X1027205Y-11480293D01*
X1027205Y-11480293D02*
X1017682Y-11518388D01*
X1017682Y-11518388D02*
X1008158Y-11537436D01*
X1008158Y-11537436D02*
X998634Y-11546960D01*
X998634Y-11546960D02*
X979586Y-11556484D01*
X979586Y-11556484D02*
X960539Y-11556484D01*
X960539Y-11556484D02*
X941491Y-11546960D01*
X941491Y-11546960D02*
X931967Y-11537436D01*
X931967Y-11537436D02*
X922443Y-11518388D01*
X922443Y-11518388D02*
X912920Y-11480293D01*
X912920Y-11480293D02*
X912920Y-11432674D01*
X912920Y-11432674D02*
X922443Y-11394579D01*
X922443Y-11394579D02*
X931967Y-11375531D01*
X931967Y-11375531D02*
X941491Y-11366008D01*
X941491Y-11366008D02*
X960539Y-11356484D01*
X1112920Y-11556484D02*
X1112920Y-11423150D01*
X1112920Y-11442198D02*
X1122444Y-11432674D01*
X1122444Y-11432674D02*
X1141491Y-11423150D01*
X1141491Y-11423150D02*
X1170063Y-11423150D01*
X1170063Y-11423150D02*
X1189110Y-11432674D01*
X1189110Y-11432674D02*
X1198634Y-11451722D01*
X1198634Y-11451722D02*
X1198634Y-11556484D01*
X1198634Y-11451722D02*
X1208158Y-11432674D01*
X1208158Y-11432674D02*
X1227205Y-11423150D01*
X1227205Y-11423150D02*
X1255777Y-11423150D01*
X1255777Y-11423150D02*
X1274825Y-11432674D01*
X1274825Y-11432674D02*
X1284348Y-11451722D01*
X1284348Y-11451722D02*
X1284348Y-11556484D01*
X1379586Y-11556484D02*
X1379586Y-11423150D01*
X1379586Y-11442198D02*
X1389110Y-11432674D01*
X1389110Y-11432674D02*
X1408158Y-11423150D01*
X1408158Y-11423150D02*
X1436729Y-11423150D01*
X1436729Y-11423150D02*
X1455777Y-11432674D01*
X1455777Y-11432674D02*
X1465301Y-11451722D01*
X1465301Y-11451722D02*
X1465301Y-11556484D01*
X1465301Y-11451722D02*
X1474824Y-11432674D01*
X1474824Y-11432674D02*
X1493872Y-11423150D01*
X1493872Y-11423150D02*
X1522443Y-11423150D01*
X1522443Y-11423150D02*
X1541491Y-11432674D01*
X1541491Y-11432674D02*
X1551015Y-11451722D01*
X1551015Y-11451722D02*
X1551015Y-11556484D01*
X1941491Y-11346960D02*
X1770063Y-11604103D01*
X2198634Y-11356484D02*
X2217682Y-11356484D01*
X2217682Y-11356484D02*
X2236729Y-11366008D01*
X2236729Y-11366008D02*
X2246253Y-11375531D01*
X2246253Y-11375531D02*
X2255777Y-11394579D01*
X2255777Y-11394579D02*
X2265301Y-11432674D01*
X2265301Y-11432674D02*
X2265301Y-11480293D01*
X2265301Y-11480293D02*
X2255777Y-11518388D01*
X2255777Y-11518388D02*
X2246253Y-11537436D01*
X2246253Y-11537436D02*
X2236729Y-11546960D01*
X2236729Y-11546960D02*
X2217682Y-11556484D01*
X2217682Y-11556484D02*
X2198634Y-11556484D01*
X2198634Y-11556484D02*
X2179587Y-11546960D01*
X2179587Y-11546960D02*
X2170063Y-11537436D01*
X2170063Y-11537436D02*
X2160539Y-11518388D01*
X2160539Y-11518388D02*
X2151015Y-11480293D01*
X2151015Y-11480293D02*
X2151015Y-11432674D01*
X2151015Y-11432674D02*
X2160539Y-11394579D01*
X2160539Y-11394579D02*
X2170063Y-11375531D01*
X2170063Y-11375531D02*
X2179587Y-11366008D01*
X2179587Y-11366008D02*
X2198634Y-11356484D01*
X2351015Y-11537436D02*
X2360539Y-11546960D01*
X2360539Y-11546960D02*
X2351015Y-11556484D01*
X2351015Y-11556484D02*
X2341491Y-11546960D01*
X2341491Y-11546960D02*
X2351015Y-11537436D01*
X2351015Y-11537436D02*
X2351015Y-11556484D01*
X2484348Y-11356484D02*
X2503396Y-11356484D01*
X2503396Y-11356484D02*
X2522444Y-11366008D01*
X2522444Y-11366008D02*
X2531968Y-11375531D01*
X2531968Y-11375531D02*
X2541491Y-11394579D01*
X2541491Y-11394579D02*
X2551015Y-11432674D01*
X2551015Y-11432674D02*
X2551015Y-11480293D01*
X2551015Y-11480293D02*
X2541491Y-11518388D01*
X2541491Y-11518388D02*
X2531968Y-11537436D01*
X2531968Y-11537436D02*
X2522444Y-11546960D01*
X2522444Y-11546960D02*
X2503396Y-11556484D01*
X2503396Y-11556484D02*
X2484348Y-11556484D01*
X2484348Y-11556484D02*
X2465301Y-11546960D01*
X2465301Y-11546960D02*
X2455777Y-11537436D01*
X2455777Y-11537436D02*
X2446253Y-11518388D01*
X2446253Y-11518388D02*
X2436729Y-11480293D01*
X2436729Y-11480293D02*
X2436729Y-11432674D01*
X2436729Y-11432674D02*
X2446253Y-11394579D01*
X2446253Y-11394579D02*
X2455777Y-11375531D01*
X2455777Y-11375531D02*
X2465301Y-11366008D01*
X2465301Y-11366008D02*
X2484348Y-11356484D01*
X2627206Y-11375531D02*
X2636729Y-11366008D01*
X2636729Y-11366008D02*
X2655777Y-11356484D01*
X2655777Y-11356484D02*
X2703396Y-11356484D01*
X2703396Y-11356484D02*
X2722444Y-11366008D01*
X2722444Y-11366008D02*
X2731968Y-11375531D01*
X2731968Y-11375531D02*
X2741491Y-11394579D01*
X2741491Y-11394579D02*
X2741491Y-11413627D01*
X2741491Y-11413627D02*
X2731968Y-11442198D01*
X2731968Y-11442198D02*
X2617682Y-11556484D01*
X2617682Y-11556484D02*
X2741491Y-11556484D01*
X2808158Y-11356484D02*
X2931967Y-11356484D01*
X2931967Y-11356484D02*
X2865301Y-11432674D01*
X2865301Y-11432674D02*
X2893872Y-11432674D01*
X2893872Y-11432674D02*
X2912920Y-11442198D01*
X2912920Y-11442198D02*
X2922444Y-11451722D01*
X2922444Y-11451722D02*
X2931967Y-11470769D01*
X2931967Y-11470769D02*
X2931967Y-11518388D01*
X2931967Y-11518388D02*
X2922444Y-11537436D01*
X2922444Y-11537436D02*
X2912920Y-11546960D01*
X2912920Y-11546960D02*
X2893872Y-11556484D01*
X2893872Y-11556484D02*
X2836729Y-11556484D01*
X2836729Y-11556484D02*
X2817682Y-11546960D01*
X2817682Y-11546960D02*
X2808158Y-11537436D01*
X3103396Y-11356484D02*
X3065301Y-11356484D01*
X3065301Y-11356484D02*
X3046253Y-11366008D01*
X3046253Y-11366008D02*
X3036729Y-11375531D01*
X3036729Y-11375531D02*
X3017682Y-11404103D01*
X3017682Y-11404103D02*
X3008158Y-11442198D01*
X3008158Y-11442198D02*
X3008158Y-11518388D01*
X3008158Y-11518388D02*
X3017682Y-11537436D01*
X3017682Y-11537436D02*
X3027206Y-11546960D01*
X3027206Y-11546960D02*
X3046253Y-11556484D01*
X3046253Y-11556484D02*
X3084348Y-11556484D01*
X3084348Y-11556484D02*
X3103396Y-11546960D01*
X3103396Y-11546960D02*
X3112920Y-11537436D01*
X3112920Y-11537436D02*
X3122444Y-11518388D01*
X3122444Y-11518388D02*
X3122444Y-11470769D01*
X3122444Y-11470769D02*
X3112920Y-11451722D01*
X3112920Y-11451722D02*
X3103396Y-11442198D01*
X3103396Y-11442198D02*
X3084348Y-11432674D01*
X3084348Y-11432674D02*
X3046253Y-11432674D01*
X3046253Y-11432674D02*
X3027206Y-11442198D01*
X3027206Y-11442198D02*
X3017682Y-11451722D01*
X3017682Y-11451722D02*
X3008158Y-11470769D01*
X3198634Y-11356484D02*
X3198634Y-11394579D01*
X3274825Y-11356484D02*
X3274825Y-11394579D01*
X3570063Y-11632674D02*
X3560539Y-11623150D01*
X3560539Y-11623150D02*
X3541491Y-11594579D01*
X3541491Y-11594579D02*
X3531968Y-11575531D01*
X3531968Y-11575531D02*
X3522444Y-11546960D01*
X3522444Y-11546960D02*
X3512920Y-11499341D01*
X3512920Y-11499341D02*
X3512920Y-11461246D01*
X3512920Y-11461246D02*
X3522444Y-11413627D01*
X3522444Y-11413627D02*
X3531968Y-11385055D01*
X3531968Y-11385055D02*
X3541491Y-11366008D01*
X3541491Y-11366008D02*
X3560539Y-11337436D01*
X3560539Y-11337436D02*
X3570063Y-11327912D01*
X3684348Y-11356484D02*
X3703396Y-11356484D01*
X3703396Y-11356484D02*
X3722444Y-11366008D01*
X3722444Y-11366008D02*
X3731968Y-11375531D01*
X3731968Y-11375531D02*
X3741491Y-11394579D01*
X3741491Y-11394579D02*
X3751015Y-11432674D01*
X3751015Y-11432674D02*
X3751015Y-11480293D01*
X3751015Y-11480293D02*
X3741491Y-11518388D01*
X3741491Y-11518388D02*
X3731968Y-11537436D01*
X3731968Y-11537436D02*
X3722444Y-11546960D01*
X3722444Y-11546960D02*
X3703396Y-11556484D01*
X3703396Y-11556484D02*
X3684348Y-11556484D01*
X3684348Y-11556484D02*
X3665301Y-11546960D01*
X3665301Y-11546960D02*
X3655777Y-11537436D01*
X3655777Y-11537436D02*
X3646253Y-11518388D01*
X3646253Y-11518388D02*
X3636729Y-11480293D01*
X3636729Y-11480293D02*
X3636729Y-11432674D01*
X3636729Y-11432674D02*
X3646253Y-11394579D01*
X3646253Y-11394579D02*
X3655777Y-11375531D01*
X3655777Y-11375531D02*
X3665301Y-11366008D01*
X3665301Y-11366008D02*
X3684348Y-11356484D01*
X3989110Y-11556484D02*
X3989110Y-11356484D01*
X4074825Y-11556484D02*
X4074825Y-11451722D01*
X4074825Y-11451722D02*
X4065301Y-11432674D01*
X4065301Y-11432674D02*
X4046253Y-11423150D01*
X4046253Y-11423150D02*
X4017682Y-11423150D01*
X4017682Y-11423150D02*
X3998634Y-11432674D01*
X3998634Y-11432674D02*
X3989110Y-11442198D01*
X4198634Y-11556484D02*
X4179587Y-11546960D01*
X4179587Y-11546960D02*
X4170063Y-11537436D01*
X4170063Y-11537436D02*
X4160539Y-11518388D01*
X4160539Y-11518388D02*
X4160539Y-11461246D01*
X4160539Y-11461246D02*
X4170063Y-11442198D01*
X4170063Y-11442198D02*
X4179587Y-11432674D01*
X4179587Y-11432674D02*
X4198634Y-11423150D01*
X4198634Y-11423150D02*
X4227206Y-11423150D01*
X4227206Y-11423150D02*
X4246253Y-11432674D01*
X4246253Y-11432674D02*
X4255777Y-11442198D01*
X4255777Y-11442198D02*
X4265301Y-11461246D01*
X4265301Y-11461246D02*
X4265301Y-11518388D01*
X4265301Y-11518388D02*
X4255777Y-11537436D01*
X4255777Y-11537436D02*
X4246253Y-11546960D01*
X4246253Y-11546960D02*
X4227206Y-11556484D01*
X4227206Y-11556484D02*
X4198634Y-11556484D01*
X4379587Y-11556484D02*
X4360539Y-11546960D01*
X4360539Y-11546960D02*
X4351015Y-11527912D01*
X4351015Y-11527912D02*
X4351015Y-11356484D01*
X4531968Y-11546960D02*
X4512920Y-11556484D01*
X4512920Y-11556484D02*
X4474825Y-11556484D01*
X4474825Y-11556484D02*
X4455777Y-11546960D01*
X4455777Y-11546960D02*
X4446253Y-11527912D01*
X4446253Y-11527912D02*
X4446253Y-11451722D01*
X4446253Y-11451722D02*
X4455777Y-11432674D01*
X4455777Y-11432674D02*
X4474825Y-11423150D01*
X4474825Y-11423150D02*
X4512920Y-11423150D01*
X4512920Y-11423150D02*
X4531968Y-11432674D01*
X4531968Y-11432674D02*
X4541492Y-11451722D01*
X4541492Y-11451722D02*
X4541492Y-11470769D01*
X4541492Y-11470769D02*
X4446253Y-11489817D01*
X4617682Y-11546960D02*
X4636730Y-11556484D01*
X4636730Y-11556484D02*
X4674825Y-11556484D01*
X4674825Y-11556484D02*
X4693873Y-11546960D01*
X4693873Y-11546960D02*
X4703396Y-11527912D01*
X4703396Y-11527912D02*
X4703396Y-11518388D01*
X4703396Y-11518388D02*
X4693873Y-11499341D01*
X4693873Y-11499341D02*
X4674825Y-11489817D01*
X4674825Y-11489817D02*
X4646253Y-11489817D01*
X4646253Y-11489817D02*
X4627206Y-11480293D01*
X4627206Y-11480293D02*
X4617682Y-11461246D01*
X4617682Y-11461246D02*
X4617682Y-11451722D01*
X4617682Y-11451722D02*
X4627206Y-11432674D01*
X4627206Y-11432674D02*
X4646253Y-11423150D01*
X4646253Y-11423150D02*
X4674825Y-11423150D01*
X4674825Y-11423150D02*
X4693873Y-11432674D01*
X4941492Y-11480293D02*
X5093873Y-11480293D01*
X5017682Y-11556484D02*
X5017682Y-11404103D01*
X5427206Y-11423150D02*
X5427206Y-11556484D01*
X5379587Y-11346960D02*
X5331968Y-11489817D01*
X5331968Y-11489817D02*
X5455777Y-11489817D01*
X5674825Y-11546960D02*
X5693873Y-11556484D01*
X5693873Y-11556484D02*
X5731968Y-11556484D01*
X5731968Y-11556484D02*
X5751015Y-11546960D01*
X5751015Y-11546960D02*
X5760539Y-11527912D01*
X5760539Y-11527912D02*
X5760539Y-11518388D01*
X5760539Y-11518388D02*
X5751015Y-11499341D01*
X5751015Y-11499341D02*
X5731968Y-11489817D01*
X5731968Y-11489817D02*
X5703396Y-11489817D01*
X5703396Y-11489817D02*
X5684349Y-11480293D01*
X5684349Y-11480293D02*
X5674825Y-11461246D01*
X5674825Y-11461246D02*
X5674825Y-11451722D01*
X5674825Y-11451722D02*
X5684349Y-11432674D01*
X5684349Y-11432674D02*
X5703396Y-11423150D01*
X5703396Y-11423150D02*
X5731968Y-11423150D01*
X5731968Y-11423150D02*
X5751015Y-11432674D01*
X5874825Y-11556484D02*
X5855777Y-11546960D01*
X5855777Y-11546960D02*
X5846254Y-11527912D01*
X5846254Y-11527912D02*
X5846254Y-11356484D01*
X5979587Y-11556484D02*
X5960539Y-11546960D01*
X5960539Y-11546960D02*
X5951015Y-11537436D01*
X5951015Y-11537436D02*
X5941492Y-11518388D01*
X5941492Y-11518388D02*
X5941492Y-11461246D01*
X5941492Y-11461246D02*
X5951015Y-11442198D01*
X5951015Y-11442198D02*
X5960539Y-11432674D01*
X5960539Y-11432674D02*
X5979587Y-11423150D01*
X5979587Y-11423150D02*
X6008158Y-11423150D01*
X6008158Y-11423150D02*
X6027206Y-11432674D01*
X6027206Y-11432674D02*
X6036730Y-11442198D01*
X6036730Y-11442198D02*
X6046254Y-11461246D01*
X6046254Y-11461246D02*
X6046254Y-11518388D01*
X6046254Y-11518388D02*
X6036730Y-11537436D01*
X6036730Y-11537436D02*
X6027206Y-11546960D01*
X6027206Y-11546960D02*
X6008158Y-11556484D01*
X6008158Y-11556484D02*
X5979587Y-11556484D01*
X6103396Y-11423150D02*
X6179587Y-11423150D01*
X6131968Y-11356484D02*
X6131968Y-11527912D01*
X6131968Y-11527912D02*
X6141492Y-11546960D01*
X6141492Y-11546960D02*
X6160539Y-11556484D01*
X6160539Y-11556484D02*
X6179587Y-11556484D01*
X6236730Y-11546960D02*
X6255777Y-11556484D01*
X6255777Y-11556484D02*
X6293873Y-11556484D01*
X6293873Y-11556484D02*
X6312920Y-11546960D01*
X6312920Y-11546960D02*
X6322444Y-11527912D01*
X6322444Y-11527912D02*
X6322444Y-11518388D01*
X6322444Y-11518388D02*
X6312920Y-11499341D01*
X6312920Y-11499341D02*
X6293873Y-11489817D01*
X6293873Y-11489817D02*
X6265301Y-11489817D01*
X6265301Y-11489817D02*
X6246254Y-11480293D01*
X6246254Y-11480293D02*
X6236730Y-11461246D01*
X6236730Y-11461246D02*
X6236730Y-11451722D01*
X6236730Y-11451722D02*
X6246254Y-11432674D01*
X6246254Y-11432674D02*
X6265301Y-11423150D01*
X6265301Y-11423150D02*
X6293873Y-11423150D01*
X6293873Y-11423150D02*
X6312920Y-11432674D01*
X6389111Y-11632674D02*
X6398635Y-11623150D01*
X6398635Y-11623150D02*
X6417682Y-11594579D01*
X6417682Y-11594579D02*
X6427206Y-11575531D01*
X6427206Y-11575531D02*
X6436730Y-11546960D01*
X6436730Y-11546960D02*
X6446254Y-11499341D01*
X6446254Y-11499341D02*
X6446254Y-11461246D01*
X6446254Y-11461246D02*
X6436730Y-11413627D01*
X6436730Y-11413627D02*
X6427206Y-11385055D01*
X6427206Y-11385055D02*
X6417682Y-11366008D01*
X6417682Y-11366008D02*
X6398635Y-11337436D01*
X6398635Y-11337436D02*
X6389111Y-11327912D01*
D10*
X-80000Y-11691500D02*
X-5000Y-11766500D01*
X-5000Y-11691500D02*
X-80000Y-11766500D01*
X-42500Y-11691500D02*
X-42500Y-11766500D01*
X-80000Y-11729000D02*
X-5000Y-11729000D01*
D11*
X293872Y-11620484D02*
X312920Y-11620484D01*
X312920Y-11620484D02*
X331967Y-11630008D01*
X331967Y-11630008D02*
X341491Y-11639531D01*
X341491Y-11639531D02*
X351015Y-11658579D01*
X351015Y-11658579D02*
X360539Y-11696674D01*
X360539Y-11696674D02*
X360539Y-11744293D01*
X360539Y-11744293D02*
X351015Y-11782388D01*
X351015Y-11782388D02*
X341491Y-11801436D01*
X341491Y-11801436D02*
X331967Y-11810960D01*
X331967Y-11810960D02*
X312920Y-11820484D01*
X312920Y-11820484D02*
X293872Y-11820484D01*
X293872Y-11820484D02*
X274824Y-11810960D01*
X274824Y-11810960D02*
X265301Y-11801436D01*
X265301Y-11801436D02*
X255777Y-11782388D01*
X255777Y-11782388D02*
X246253Y-11744293D01*
X246253Y-11744293D02*
X246253Y-11696674D01*
X246253Y-11696674D02*
X255777Y-11658579D01*
X255777Y-11658579D02*
X265301Y-11639531D01*
X265301Y-11639531D02*
X274824Y-11630008D01*
X274824Y-11630008D02*
X293872Y-11620484D01*
X446253Y-11801436D02*
X455777Y-11810960D01*
X455777Y-11810960D02*
X446253Y-11820484D01*
X446253Y-11820484D02*
X436729Y-11810960D01*
X436729Y-11810960D02*
X446253Y-11801436D01*
X446253Y-11801436D02*
X446253Y-11820484D01*
X522443Y-11620484D02*
X655777Y-11620484D01*
X655777Y-11620484D02*
X570063Y-11820484D01*
X827205Y-11620484D02*
X731967Y-11620484D01*
X731967Y-11620484D02*
X722443Y-11715722D01*
X722443Y-11715722D02*
X731967Y-11706198D01*
X731967Y-11706198D02*
X751015Y-11696674D01*
X751015Y-11696674D02*
X798634Y-11696674D01*
X798634Y-11696674D02*
X817682Y-11706198D01*
X817682Y-11706198D02*
X827205Y-11715722D01*
X827205Y-11715722D02*
X836729Y-11734769D01*
X836729Y-11734769D02*
X836729Y-11782388D01*
X836729Y-11782388D02*
X827205Y-11801436D01*
X827205Y-11801436D02*
X817682Y-11810960D01*
X817682Y-11810960D02*
X798634Y-11820484D01*
X798634Y-11820484D02*
X751015Y-11820484D01*
X751015Y-11820484D02*
X731967Y-11810960D01*
X731967Y-11810960D02*
X722443Y-11801436D01*
X960539Y-11620484D02*
X979586Y-11620484D01*
X979586Y-11620484D02*
X998634Y-11630008D01*
X998634Y-11630008D02*
X1008158Y-11639531D01*
X1008158Y-11639531D02*
X1017682Y-11658579D01*
X1017682Y-11658579D02*
X1027205Y-11696674D01*
X1027205Y-11696674D02*
X1027205Y-11744293D01*
X1027205Y-11744293D02*
X1017682Y-11782388D01*
X1017682Y-11782388D02*
X1008158Y-11801436D01*
X1008158Y-11801436D02*
X998634Y-11810960D01*
X998634Y-11810960D02*
X979586Y-11820484D01*
X979586Y-11820484D02*
X960539Y-11820484D01*
X960539Y-11820484D02*
X941491Y-11810960D01*
X941491Y-11810960D02*
X931967Y-11801436D01*
X931967Y-11801436D02*
X922443Y-11782388D01*
X922443Y-11782388D02*
X912920Y-11744293D01*
X912920Y-11744293D02*
X912920Y-11696674D01*
X912920Y-11696674D02*
X922443Y-11658579D01*
X922443Y-11658579D02*
X931967Y-11639531D01*
X931967Y-11639531D02*
X941491Y-11630008D01*
X941491Y-11630008D02*
X960539Y-11620484D01*
X1112920Y-11820484D02*
X1112920Y-11687150D01*
X1112920Y-11706198D02*
X1122444Y-11696674D01*
X1122444Y-11696674D02*
X1141491Y-11687150D01*
X1141491Y-11687150D02*
X1170063Y-11687150D01*
X1170063Y-11687150D02*
X1189110Y-11696674D01*
X1189110Y-11696674D02*
X1198634Y-11715722D01*
X1198634Y-11715722D02*
X1198634Y-11820484D01*
X1198634Y-11715722D02*
X1208158Y-11696674D01*
X1208158Y-11696674D02*
X1227205Y-11687150D01*
X1227205Y-11687150D02*
X1255777Y-11687150D01*
X1255777Y-11687150D02*
X1274825Y-11696674D01*
X1274825Y-11696674D02*
X1284348Y-11715722D01*
X1284348Y-11715722D02*
X1284348Y-11820484D01*
X1379586Y-11820484D02*
X1379586Y-11687150D01*
X1379586Y-11706198D02*
X1389110Y-11696674D01*
X1389110Y-11696674D02*
X1408158Y-11687150D01*
X1408158Y-11687150D02*
X1436729Y-11687150D01*
X1436729Y-11687150D02*
X1455777Y-11696674D01*
X1455777Y-11696674D02*
X1465301Y-11715722D01*
X1465301Y-11715722D02*
X1465301Y-11820484D01*
X1465301Y-11715722D02*
X1474824Y-11696674D01*
X1474824Y-11696674D02*
X1493872Y-11687150D01*
X1493872Y-11687150D02*
X1522443Y-11687150D01*
X1522443Y-11687150D02*
X1541491Y-11696674D01*
X1541491Y-11696674D02*
X1551015Y-11715722D01*
X1551015Y-11715722D02*
X1551015Y-11820484D01*
X1941491Y-11610960D02*
X1770063Y-11868103D01*
X2198634Y-11620484D02*
X2217682Y-11620484D01*
X2217682Y-11620484D02*
X2236729Y-11630008D01*
X2236729Y-11630008D02*
X2246253Y-11639531D01*
X2246253Y-11639531D02*
X2255777Y-11658579D01*
X2255777Y-11658579D02*
X2265301Y-11696674D01*
X2265301Y-11696674D02*
X2265301Y-11744293D01*
X2265301Y-11744293D02*
X2255777Y-11782388D01*
X2255777Y-11782388D02*
X2246253Y-11801436D01*
X2246253Y-11801436D02*
X2236729Y-11810960D01*
X2236729Y-11810960D02*
X2217682Y-11820484D01*
X2217682Y-11820484D02*
X2198634Y-11820484D01*
X2198634Y-11820484D02*
X2179587Y-11810960D01*
X2179587Y-11810960D02*
X2170063Y-11801436D01*
X2170063Y-11801436D02*
X2160539Y-11782388D01*
X2160539Y-11782388D02*
X2151015Y-11744293D01*
X2151015Y-11744293D02*
X2151015Y-11696674D01*
X2151015Y-11696674D02*
X2160539Y-11658579D01*
X2160539Y-11658579D02*
X2170063Y-11639531D01*
X2170063Y-11639531D02*
X2179587Y-11630008D01*
X2179587Y-11630008D02*
X2198634Y-11620484D01*
X2351015Y-11801436D02*
X2360539Y-11810960D01*
X2360539Y-11810960D02*
X2351015Y-11820484D01*
X2351015Y-11820484D02*
X2341491Y-11810960D01*
X2341491Y-11810960D02*
X2351015Y-11801436D01*
X2351015Y-11801436D02*
X2351015Y-11820484D01*
X2484348Y-11620484D02*
X2503396Y-11620484D01*
X2503396Y-11620484D02*
X2522444Y-11630008D01*
X2522444Y-11630008D02*
X2531968Y-11639531D01*
X2531968Y-11639531D02*
X2541491Y-11658579D01*
X2541491Y-11658579D02*
X2551015Y-11696674D01*
X2551015Y-11696674D02*
X2551015Y-11744293D01*
X2551015Y-11744293D02*
X2541491Y-11782388D01*
X2541491Y-11782388D02*
X2531968Y-11801436D01*
X2531968Y-11801436D02*
X2522444Y-11810960D01*
X2522444Y-11810960D02*
X2503396Y-11820484D01*
X2503396Y-11820484D02*
X2484348Y-11820484D01*
X2484348Y-11820484D02*
X2465301Y-11810960D01*
X2465301Y-11810960D02*
X2455777Y-11801436D01*
X2455777Y-11801436D02*
X2446253Y-11782388D01*
X2446253Y-11782388D02*
X2436729Y-11744293D01*
X2436729Y-11744293D02*
X2436729Y-11696674D01*
X2436729Y-11696674D02*
X2446253Y-11658579D01*
X2446253Y-11658579D02*
X2455777Y-11639531D01*
X2455777Y-11639531D02*
X2465301Y-11630008D01*
X2465301Y-11630008D02*
X2484348Y-11620484D01*
X2627206Y-11639531D02*
X2636729Y-11630008D01*
X2636729Y-11630008D02*
X2655777Y-11620484D01*
X2655777Y-11620484D02*
X2703396Y-11620484D01*
X2703396Y-11620484D02*
X2722444Y-11630008D01*
X2722444Y-11630008D02*
X2731968Y-11639531D01*
X2731968Y-11639531D02*
X2741491Y-11658579D01*
X2741491Y-11658579D02*
X2741491Y-11677627D01*
X2741491Y-11677627D02*
X2731968Y-11706198D01*
X2731968Y-11706198D02*
X2617682Y-11820484D01*
X2617682Y-11820484D02*
X2741491Y-11820484D01*
X2836729Y-11820484D02*
X2874825Y-11820484D01*
X2874825Y-11820484D02*
X2893872Y-11810960D01*
X2893872Y-11810960D02*
X2903396Y-11801436D01*
X2903396Y-11801436D02*
X2922444Y-11772865D01*
X2922444Y-11772865D02*
X2931967Y-11734769D01*
X2931967Y-11734769D02*
X2931967Y-11658579D01*
X2931967Y-11658579D02*
X2922444Y-11639531D01*
X2922444Y-11639531D02*
X2912920Y-11630008D01*
X2912920Y-11630008D02*
X2893872Y-11620484D01*
X2893872Y-11620484D02*
X2855777Y-11620484D01*
X2855777Y-11620484D02*
X2836729Y-11630008D01*
X2836729Y-11630008D02*
X2827206Y-11639531D01*
X2827206Y-11639531D02*
X2817682Y-11658579D01*
X2817682Y-11658579D02*
X2817682Y-11706198D01*
X2817682Y-11706198D02*
X2827206Y-11725246D01*
X2827206Y-11725246D02*
X2836729Y-11734769D01*
X2836729Y-11734769D02*
X2855777Y-11744293D01*
X2855777Y-11744293D02*
X2893872Y-11744293D01*
X2893872Y-11744293D02*
X2912920Y-11734769D01*
X2912920Y-11734769D02*
X2922444Y-11725246D01*
X2922444Y-11725246D02*
X2931967Y-11706198D01*
X3112920Y-11620484D02*
X3017682Y-11620484D01*
X3017682Y-11620484D02*
X3008158Y-11715722D01*
X3008158Y-11715722D02*
X3017682Y-11706198D01*
X3017682Y-11706198D02*
X3036729Y-11696674D01*
X3036729Y-11696674D02*
X3084348Y-11696674D01*
X3084348Y-11696674D02*
X3103396Y-11706198D01*
X3103396Y-11706198D02*
X3112920Y-11715722D01*
X3112920Y-11715722D02*
X3122444Y-11734769D01*
X3122444Y-11734769D02*
X3122444Y-11782388D01*
X3122444Y-11782388D02*
X3112920Y-11801436D01*
X3112920Y-11801436D02*
X3103396Y-11810960D01*
X3103396Y-11810960D02*
X3084348Y-11820484D01*
X3084348Y-11820484D02*
X3036729Y-11820484D01*
X3036729Y-11820484D02*
X3017682Y-11810960D01*
X3017682Y-11810960D02*
X3008158Y-11801436D01*
X3198634Y-11620484D02*
X3198634Y-11658579D01*
X3274825Y-11620484D02*
X3274825Y-11658579D01*
X3570063Y-11896674D02*
X3560539Y-11887150D01*
X3560539Y-11887150D02*
X3541491Y-11858579D01*
X3541491Y-11858579D02*
X3531968Y-11839531D01*
X3531968Y-11839531D02*
X3522444Y-11810960D01*
X3522444Y-11810960D02*
X3512920Y-11763341D01*
X3512920Y-11763341D02*
X3512920Y-11725246D01*
X3512920Y-11725246D02*
X3522444Y-11677627D01*
X3522444Y-11677627D02*
X3531968Y-11649055D01*
X3531968Y-11649055D02*
X3541491Y-11630008D01*
X3541491Y-11630008D02*
X3560539Y-11601436D01*
X3560539Y-11601436D02*
X3570063Y-11591912D01*
X3636729Y-11639531D02*
X3646253Y-11630008D01*
X3646253Y-11630008D02*
X3665301Y-11620484D01*
X3665301Y-11620484D02*
X3712920Y-11620484D01*
X3712920Y-11620484D02*
X3731968Y-11630008D01*
X3731968Y-11630008D02*
X3741491Y-11639531D01*
X3741491Y-11639531D02*
X3751015Y-11658579D01*
X3751015Y-11658579D02*
X3751015Y-11677627D01*
X3751015Y-11677627D02*
X3741491Y-11706198D01*
X3741491Y-11706198D02*
X3627206Y-11820484D01*
X3627206Y-11820484D02*
X3751015Y-11820484D01*
X3989110Y-11820484D02*
X3989110Y-11620484D01*
X4074825Y-11820484D02*
X4074825Y-11715722D01*
X4074825Y-11715722D02*
X4065301Y-11696674D01*
X4065301Y-11696674D02*
X4046253Y-11687150D01*
X4046253Y-11687150D02*
X4017682Y-11687150D01*
X4017682Y-11687150D02*
X3998634Y-11696674D01*
X3998634Y-11696674D02*
X3989110Y-11706198D01*
X4198634Y-11820484D02*
X4179587Y-11810960D01*
X4179587Y-11810960D02*
X4170063Y-11801436D01*
X4170063Y-11801436D02*
X4160539Y-11782388D01*
X4160539Y-11782388D02*
X4160539Y-11725246D01*
X4160539Y-11725246D02*
X4170063Y-11706198D01*
X4170063Y-11706198D02*
X4179587Y-11696674D01*
X4179587Y-11696674D02*
X4198634Y-11687150D01*
X4198634Y-11687150D02*
X4227206Y-11687150D01*
X4227206Y-11687150D02*
X4246253Y-11696674D01*
X4246253Y-11696674D02*
X4255777Y-11706198D01*
X4255777Y-11706198D02*
X4265301Y-11725246D01*
X4265301Y-11725246D02*
X4265301Y-11782388D01*
X4265301Y-11782388D02*
X4255777Y-11801436D01*
X4255777Y-11801436D02*
X4246253Y-11810960D01*
X4246253Y-11810960D02*
X4227206Y-11820484D01*
X4227206Y-11820484D02*
X4198634Y-11820484D01*
X4379587Y-11820484D02*
X4360539Y-11810960D01*
X4360539Y-11810960D02*
X4351015Y-11791912D01*
X4351015Y-11791912D02*
X4351015Y-11620484D01*
X4531968Y-11810960D02*
X4512920Y-11820484D01*
X4512920Y-11820484D02*
X4474825Y-11820484D01*
X4474825Y-11820484D02*
X4455777Y-11810960D01*
X4455777Y-11810960D02*
X4446253Y-11791912D01*
X4446253Y-11791912D02*
X4446253Y-11715722D01*
X4446253Y-11715722D02*
X4455777Y-11696674D01*
X4455777Y-11696674D02*
X4474825Y-11687150D01*
X4474825Y-11687150D02*
X4512920Y-11687150D01*
X4512920Y-11687150D02*
X4531968Y-11696674D01*
X4531968Y-11696674D02*
X4541492Y-11715722D01*
X4541492Y-11715722D02*
X4541492Y-11734769D01*
X4541492Y-11734769D02*
X4446253Y-11753817D01*
X4617682Y-11810960D02*
X4636730Y-11820484D01*
X4636730Y-11820484D02*
X4674825Y-11820484D01*
X4674825Y-11820484D02*
X4693873Y-11810960D01*
X4693873Y-11810960D02*
X4703396Y-11791912D01*
X4703396Y-11791912D02*
X4703396Y-11782388D01*
X4703396Y-11782388D02*
X4693873Y-11763341D01*
X4693873Y-11763341D02*
X4674825Y-11753817D01*
X4674825Y-11753817D02*
X4646253Y-11753817D01*
X4646253Y-11753817D02*
X4627206Y-11744293D01*
X4627206Y-11744293D02*
X4617682Y-11725246D01*
X4617682Y-11725246D02*
X4617682Y-11715722D01*
X4617682Y-11715722D02*
X4627206Y-11696674D01*
X4627206Y-11696674D02*
X4646253Y-11687150D01*
X4646253Y-11687150D02*
X4674825Y-11687150D01*
X4674825Y-11687150D02*
X4693873Y-11696674D01*
X4770063Y-11896674D02*
X4779587Y-11887150D01*
X4779587Y-11887150D02*
X4798634Y-11858579D01*
X4798634Y-11858579D02*
X4808158Y-11839531D01*
X4808158Y-11839531D02*
X4817682Y-11810960D01*
X4817682Y-11810960D02*
X4827206Y-11763341D01*
X4827206Y-11763341D02*
X4827206Y-11725246D01*
X4827206Y-11725246D02*
X4817682Y-11677627D01*
X4817682Y-11677627D02*
X4808158Y-11649055D01*
X4808158Y-11649055D02*
X4798634Y-11630008D01*
X4798634Y-11630008D02*
X4779587Y-11601436D01*
X4779587Y-11601436D02*
X4770063Y-11591912D01*
D10*
X-95000Y-11948000D02*
X-5000Y-12038000D01*
X-5000Y-11948000D02*
X-95000Y-12038000D01*
X-18180Y-12024820D02*
X-18180Y-11961180D01*
X-81820Y-11961180D01*
X-81820Y-12024820D01*
X-18180Y-12024820D01*
D11*
X293872Y-11884484D02*
X312920Y-11884484D01*
X312920Y-11884484D02*
X331967Y-11894008D01*
X331967Y-11894008D02*
X341491Y-11903531D01*
X341491Y-11903531D02*
X351015Y-11922579D01*
X351015Y-11922579D02*
X360539Y-11960674D01*
X360539Y-11960674D02*
X360539Y-12008293D01*
X360539Y-12008293D02*
X351015Y-12046388D01*
X351015Y-12046388D02*
X341491Y-12065436D01*
X341491Y-12065436D02*
X331967Y-12074960D01*
X331967Y-12074960D02*
X312920Y-12084484D01*
X312920Y-12084484D02*
X293872Y-12084484D01*
X293872Y-12084484D02*
X274824Y-12074960D01*
X274824Y-12074960D02*
X265301Y-12065436D01*
X265301Y-12065436D02*
X255777Y-12046388D01*
X255777Y-12046388D02*
X246253Y-12008293D01*
X246253Y-12008293D02*
X246253Y-11960674D01*
X246253Y-11960674D02*
X255777Y-11922579D01*
X255777Y-11922579D02*
X265301Y-11903531D01*
X265301Y-11903531D02*
X274824Y-11894008D01*
X274824Y-11894008D02*
X293872Y-11884484D01*
X446253Y-12065436D02*
X455777Y-12074960D01*
X455777Y-12074960D02*
X446253Y-12084484D01*
X446253Y-12084484D02*
X436729Y-12074960D01*
X436729Y-12074960D02*
X446253Y-12065436D01*
X446253Y-12065436D02*
X446253Y-12084484D01*
X551015Y-12084484D02*
X589110Y-12084484D01*
X589110Y-12084484D02*
X608158Y-12074960D01*
X608158Y-12074960D02*
X617682Y-12065436D01*
X617682Y-12065436D02*
X636729Y-12036865D01*
X636729Y-12036865D02*
X646253Y-11998769D01*
X646253Y-11998769D02*
X646253Y-11922579D01*
X646253Y-11922579D02*
X636729Y-11903531D01*
X636729Y-11903531D02*
X627205Y-11894008D01*
X627205Y-11894008D02*
X608158Y-11884484D01*
X608158Y-11884484D02*
X570063Y-11884484D01*
X570063Y-11884484D02*
X551015Y-11894008D01*
X551015Y-11894008D02*
X541491Y-11903531D01*
X541491Y-11903531D02*
X531967Y-11922579D01*
X531967Y-11922579D02*
X531967Y-11970198D01*
X531967Y-11970198D02*
X541491Y-11989246D01*
X541491Y-11989246D02*
X551015Y-11998769D01*
X551015Y-11998769D02*
X570063Y-12008293D01*
X570063Y-12008293D02*
X608158Y-12008293D01*
X608158Y-12008293D02*
X627205Y-11998769D01*
X627205Y-11998769D02*
X636729Y-11989246D01*
X636729Y-11989246D02*
X646253Y-11970198D01*
X770062Y-11884484D02*
X789110Y-11884484D01*
X789110Y-11884484D02*
X808158Y-11894008D01*
X808158Y-11894008D02*
X817682Y-11903531D01*
X817682Y-11903531D02*
X827205Y-11922579D01*
X827205Y-11922579D02*
X836729Y-11960674D01*
X836729Y-11960674D02*
X836729Y-12008293D01*
X836729Y-12008293D02*
X827205Y-12046388D01*
X827205Y-12046388D02*
X817682Y-12065436D01*
X817682Y-12065436D02*
X808158Y-12074960D01*
X808158Y-12074960D02*
X789110Y-12084484D01*
X789110Y-12084484D02*
X770062Y-12084484D01*
X770062Y-12084484D02*
X751015Y-12074960D01*
X751015Y-12074960D02*
X741491Y-12065436D01*
X741491Y-12065436D02*
X731967Y-12046388D01*
X731967Y-12046388D02*
X722443Y-12008293D01*
X722443Y-12008293D02*
X722443Y-11960674D01*
X722443Y-11960674D02*
X731967Y-11922579D01*
X731967Y-11922579D02*
X741491Y-11903531D01*
X741491Y-11903531D02*
X751015Y-11894008D01*
X751015Y-11894008D02*
X770062Y-11884484D01*
X960539Y-11884484D02*
X979586Y-11884484D01*
X979586Y-11884484D02*
X998634Y-11894008D01*
X998634Y-11894008D02*
X1008158Y-11903531D01*
X1008158Y-11903531D02*
X1017682Y-11922579D01*
X1017682Y-11922579D02*
X1027205Y-11960674D01*
X1027205Y-11960674D02*
X1027205Y-12008293D01*
X1027205Y-12008293D02*
X1017682Y-12046388D01*
X1017682Y-12046388D02*
X1008158Y-12065436D01*
X1008158Y-12065436D02*
X998634Y-12074960D01*
X998634Y-12074960D02*
X979586Y-12084484D01*
X979586Y-12084484D02*
X960539Y-12084484D01*
X960539Y-12084484D02*
X941491Y-12074960D01*
X941491Y-12074960D02*
X931967Y-12065436D01*
X931967Y-12065436D02*
X922443Y-12046388D01*
X922443Y-12046388D02*
X912920Y-12008293D01*
X912920Y-12008293D02*
X912920Y-11960674D01*
X912920Y-11960674D02*
X922443Y-11922579D01*
X922443Y-11922579D02*
X931967Y-11903531D01*
X931967Y-11903531D02*
X941491Y-11894008D01*
X941491Y-11894008D02*
X960539Y-11884484D01*
X1112920Y-12084484D02*
X1112920Y-11951150D01*
X1112920Y-11970198D02*
X1122444Y-11960674D01*
X1122444Y-11960674D02*
X1141491Y-11951150D01*
X1141491Y-11951150D02*
X1170063Y-11951150D01*
X1170063Y-11951150D02*
X1189110Y-11960674D01*
X1189110Y-11960674D02*
X1198634Y-11979722D01*
X1198634Y-11979722D02*
X1198634Y-12084484D01*
X1198634Y-11979722D02*
X1208158Y-11960674D01*
X1208158Y-11960674D02*
X1227205Y-11951150D01*
X1227205Y-11951150D02*
X1255777Y-11951150D01*
X1255777Y-11951150D02*
X1274825Y-11960674D01*
X1274825Y-11960674D02*
X1284348Y-11979722D01*
X1284348Y-11979722D02*
X1284348Y-12084484D01*
X1379586Y-12084484D02*
X1379586Y-11951150D01*
X1379586Y-11970198D02*
X1389110Y-11960674D01*
X1389110Y-11960674D02*
X1408158Y-11951150D01*
X1408158Y-11951150D02*
X1436729Y-11951150D01*
X1436729Y-11951150D02*
X1455777Y-11960674D01*
X1455777Y-11960674D02*
X1465301Y-11979722D01*
X1465301Y-11979722D02*
X1465301Y-12084484D01*
X1465301Y-11979722D02*
X1474824Y-11960674D01*
X1474824Y-11960674D02*
X1493872Y-11951150D01*
X1493872Y-11951150D02*
X1522443Y-11951150D01*
X1522443Y-11951150D02*
X1541491Y-11960674D01*
X1541491Y-11960674D02*
X1551015Y-11979722D01*
X1551015Y-11979722D02*
X1551015Y-12084484D01*
X1941491Y-11874960D02*
X1770063Y-12132103D01*
X2198634Y-11884484D02*
X2217682Y-11884484D01*
X2217682Y-11884484D02*
X2236729Y-11894008D01*
X2236729Y-11894008D02*
X2246253Y-11903531D01*
X2246253Y-11903531D02*
X2255777Y-11922579D01*
X2255777Y-11922579D02*
X2265301Y-11960674D01*
X2265301Y-11960674D02*
X2265301Y-12008293D01*
X2265301Y-12008293D02*
X2255777Y-12046388D01*
X2255777Y-12046388D02*
X2246253Y-12065436D01*
X2246253Y-12065436D02*
X2236729Y-12074960D01*
X2236729Y-12074960D02*
X2217682Y-12084484D01*
X2217682Y-12084484D02*
X2198634Y-12084484D01*
X2198634Y-12084484D02*
X2179587Y-12074960D01*
X2179587Y-12074960D02*
X2170063Y-12065436D01*
X2170063Y-12065436D02*
X2160539Y-12046388D01*
X2160539Y-12046388D02*
X2151015Y-12008293D01*
X2151015Y-12008293D02*
X2151015Y-11960674D01*
X2151015Y-11960674D02*
X2160539Y-11922579D01*
X2160539Y-11922579D02*
X2170063Y-11903531D01*
X2170063Y-11903531D02*
X2179587Y-11894008D01*
X2179587Y-11894008D02*
X2198634Y-11884484D01*
X2351015Y-12065436D02*
X2360539Y-12074960D01*
X2360539Y-12074960D02*
X2351015Y-12084484D01*
X2351015Y-12084484D02*
X2341491Y-12074960D01*
X2341491Y-12074960D02*
X2351015Y-12065436D01*
X2351015Y-12065436D02*
X2351015Y-12084484D01*
X2484348Y-11884484D02*
X2503396Y-11884484D01*
X2503396Y-11884484D02*
X2522444Y-11894008D01*
X2522444Y-11894008D02*
X2531968Y-11903531D01*
X2531968Y-11903531D02*
X2541491Y-11922579D01*
X2541491Y-11922579D02*
X2551015Y-11960674D01*
X2551015Y-11960674D02*
X2551015Y-12008293D01*
X2551015Y-12008293D02*
X2541491Y-12046388D01*
X2541491Y-12046388D02*
X2531968Y-12065436D01*
X2531968Y-12065436D02*
X2522444Y-12074960D01*
X2522444Y-12074960D02*
X2503396Y-12084484D01*
X2503396Y-12084484D02*
X2484348Y-12084484D01*
X2484348Y-12084484D02*
X2465301Y-12074960D01*
X2465301Y-12074960D02*
X2455777Y-12065436D01*
X2455777Y-12065436D02*
X2446253Y-12046388D01*
X2446253Y-12046388D02*
X2436729Y-12008293D01*
X2436729Y-12008293D02*
X2436729Y-11960674D01*
X2436729Y-11960674D02*
X2446253Y-11922579D01*
X2446253Y-11922579D02*
X2455777Y-11903531D01*
X2455777Y-11903531D02*
X2465301Y-11894008D01*
X2465301Y-11894008D02*
X2484348Y-11884484D01*
X2617682Y-11884484D02*
X2741491Y-11884484D01*
X2741491Y-11884484D02*
X2674825Y-11960674D01*
X2674825Y-11960674D02*
X2703396Y-11960674D01*
X2703396Y-11960674D02*
X2722444Y-11970198D01*
X2722444Y-11970198D02*
X2731968Y-11979722D01*
X2731968Y-11979722D02*
X2741491Y-11998769D01*
X2741491Y-11998769D02*
X2741491Y-12046388D01*
X2741491Y-12046388D02*
X2731968Y-12065436D01*
X2731968Y-12065436D02*
X2722444Y-12074960D01*
X2722444Y-12074960D02*
X2703396Y-12084484D01*
X2703396Y-12084484D02*
X2646253Y-12084484D01*
X2646253Y-12084484D02*
X2627206Y-12074960D01*
X2627206Y-12074960D02*
X2617682Y-12065436D01*
X2922444Y-11884484D02*
X2827206Y-11884484D01*
X2827206Y-11884484D02*
X2817682Y-11979722D01*
X2817682Y-11979722D02*
X2827206Y-11970198D01*
X2827206Y-11970198D02*
X2846253Y-11960674D01*
X2846253Y-11960674D02*
X2893872Y-11960674D01*
X2893872Y-11960674D02*
X2912920Y-11970198D01*
X2912920Y-11970198D02*
X2922444Y-11979722D01*
X2922444Y-11979722D02*
X2931967Y-11998769D01*
X2931967Y-11998769D02*
X2931967Y-12046388D01*
X2931967Y-12046388D02*
X2922444Y-12065436D01*
X2922444Y-12065436D02*
X2912920Y-12074960D01*
X2912920Y-12074960D02*
X2893872Y-12084484D01*
X2893872Y-12084484D02*
X2846253Y-12084484D01*
X2846253Y-12084484D02*
X2827206Y-12074960D01*
X2827206Y-12074960D02*
X2817682Y-12065436D01*
X3103396Y-11951150D02*
X3103396Y-12084484D01*
X3055777Y-11874960D02*
X3008158Y-12017817D01*
X3008158Y-12017817D02*
X3131967Y-12017817D01*
X3198634Y-11884484D02*
X3198634Y-11922579D01*
X3274825Y-11884484D02*
X3274825Y-11922579D01*
X3570063Y-12160674D02*
X3560539Y-12151150D01*
X3560539Y-12151150D02*
X3541491Y-12122579D01*
X3541491Y-12122579D02*
X3531968Y-12103531D01*
X3531968Y-12103531D02*
X3522444Y-12074960D01*
X3522444Y-12074960D02*
X3512920Y-12027341D01*
X3512920Y-12027341D02*
X3512920Y-11989246D01*
X3512920Y-11989246D02*
X3522444Y-11941627D01*
X3522444Y-11941627D02*
X3531968Y-11913055D01*
X3531968Y-11913055D02*
X3541491Y-11894008D01*
X3541491Y-11894008D02*
X3560539Y-11865436D01*
X3560539Y-11865436D02*
X3570063Y-11855912D01*
X3627206Y-11884484D02*
X3751015Y-11884484D01*
X3751015Y-11884484D02*
X3684348Y-11960674D01*
X3684348Y-11960674D02*
X3712920Y-11960674D01*
X3712920Y-11960674D02*
X3731968Y-11970198D01*
X3731968Y-11970198D02*
X3741491Y-11979722D01*
X3741491Y-11979722D02*
X3751015Y-11998769D01*
X3751015Y-11998769D02*
X3751015Y-12046388D01*
X3751015Y-12046388D02*
X3741491Y-12065436D01*
X3741491Y-12065436D02*
X3731968Y-12074960D01*
X3731968Y-12074960D02*
X3712920Y-12084484D01*
X3712920Y-12084484D02*
X3655777Y-12084484D01*
X3655777Y-12084484D02*
X3636729Y-12074960D01*
X3636729Y-12074960D02*
X3627206Y-12065436D01*
X3989110Y-12084484D02*
X3989110Y-11884484D01*
X4074825Y-12084484D02*
X4074825Y-11979722D01*
X4074825Y-11979722D02*
X4065301Y-11960674D01*
X4065301Y-11960674D02*
X4046253Y-11951150D01*
X4046253Y-11951150D02*
X4017682Y-11951150D01*
X4017682Y-11951150D02*
X3998634Y-11960674D01*
X3998634Y-11960674D02*
X3989110Y-11970198D01*
X4198634Y-12084484D02*
X4179587Y-12074960D01*
X4179587Y-12074960D02*
X4170063Y-12065436D01*
X4170063Y-12065436D02*
X4160539Y-12046388D01*
X4160539Y-12046388D02*
X4160539Y-11989246D01*
X4160539Y-11989246D02*
X4170063Y-11970198D01*
X4170063Y-11970198D02*
X4179587Y-11960674D01*
X4179587Y-11960674D02*
X4198634Y-11951150D01*
X4198634Y-11951150D02*
X4227206Y-11951150D01*
X4227206Y-11951150D02*
X4246253Y-11960674D01*
X4246253Y-11960674D02*
X4255777Y-11970198D01*
X4255777Y-11970198D02*
X4265301Y-11989246D01*
X4265301Y-11989246D02*
X4265301Y-12046388D01*
X4265301Y-12046388D02*
X4255777Y-12065436D01*
X4255777Y-12065436D02*
X4246253Y-12074960D01*
X4246253Y-12074960D02*
X4227206Y-12084484D01*
X4227206Y-12084484D02*
X4198634Y-12084484D01*
X4379587Y-12084484D02*
X4360539Y-12074960D01*
X4360539Y-12074960D02*
X4351015Y-12055912D01*
X4351015Y-12055912D02*
X4351015Y-11884484D01*
X4531968Y-12074960D02*
X4512920Y-12084484D01*
X4512920Y-12084484D02*
X4474825Y-12084484D01*
X4474825Y-12084484D02*
X4455777Y-12074960D01*
X4455777Y-12074960D02*
X4446253Y-12055912D01*
X4446253Y-12055912D02*
X4446253Y-11979722D01*
X4446253Y-11979722D02*
X4455777Y-11960674D01*
X4455777Y-11960674D02*
X4474825Y-11951150D01*
X4474825Y-11951150D02*
X4512920Y-11951150D01*
X4512920Y-11951150D02*
X4531968Y-11960674D01*
X4531968Y-11960674D02*
X4541492Y-11979722D01*
X4541492Y-11979722D02*
X4541492Y-11998769D01*
X4541492Y-11998769D02*
X4446253Y-12017817D01*
X4617682Y-12074960D02*
X4636730Y-12084484D01*
X4636730Y-12084484D02*
X4674825Y-12084484D01*
X4674825Y-12084484D02*
X4693873Y-12074960D01*
X4693873Y-12074960D02*
X4703396Y-12055912D01*
X4703396Y-12055912D02*
X4703396Y-12046388D01*
X4703396Y-12046388D02*
X4693873Y-12027341D01*
X4693873Y-12027341D02*
X4674825Y-12017817D01*
X4674825Y-12017817D02*
X4646253Y-12017817D01*
X4646253Y-12017817D02*
X4627206Y-12008293D01*
X4627206Y-12008293D02*
X4617682Y-11989246D01*
X4617682Y-11989246D02*
X4617682Y-11979722D01*
X4617682Y-11979722D02*
X4627206Y-11960674D01*
X4627206Y-11960674D02*
X4646253Y-11951150D01*
X4646253Y-11951150D02*
X4674825Y-11951150D01*
X4674825Y-11951150D02*
X4693873Y-11960674D01*
X4770063Y-12160674D02*
X4779587Y-12151150D01*
X4779587Y-12151150D02*
X4798634Y-12122579D01*
X4798634Y-12122579D02*
X4808158Y-12103531D01*
X4808158Y-12103531D02*
X4817682Y-12074960D01*
X4817682Y-12074960D02*
X4827206Y-12027341D01*
X4827206Y-12027341D02*
X4827206Y-11989246D01*
X4827206Y-11989246D02*
X4817682Y-11941627D01*
X4817682Y-11941627D02*
X4808158Y-11913055D01*
X4808158Y-11913055D02*
X4798634Y-11894008D01*
X4798634Y-11894008D02*
X4779587Y-11865436D01*
X4779587Y-11865436D02*
X4770063Y-11855912D01*
D12*
X-155000Y-12182000D02*
X-5000Y-12332000D01*
X-5000Y-12182000D02*
X-155000Y-12332000D01*
X-80000Y-12332000D02*
X-5000Y-12257000D01*
X-80000Y-12182000D01*
X-155000Y-12257000D01*
X-80000Y-12332000D01*
D11*
X360539Y-12348484D02*
X246253Y-12348484D01*
X303396Y-12348484D02*
X303396Y-12148484D01*
X303396Y-12148484D02*
X284348Y-12177055D01*
X284348Y-12177055D02*
X265301Y-12196103D01*
X265301Y-12196103D02*
X246253Y-12205627D01*
X446253Y-12329436D02*
X455777Y-12338960D01*
X455777Y-12338960D02*
X446253Y-12348484D01*
X446253Y-12348484D02*
X436729Y-12338960D01*
X436729Y-12338960D02*
X446253Y-12329436D01*
X446253Y-12329436D02*
X446253Y-12348484D01*
X636729Y-12148484D02*
X541491Y-12148484D01*
X541491Y-12148484D02*
X531967Y-12243722D01*
X531967Y-12243722D02*
X541491Y-12234198D01*
X541491Y-12234198D02*
X560539Y-12224674D01*
X560539Y-12224674D02*
X608158Y-12224674D01*
X608158Y-12224674D02*
X627205Y-12234198D01*
X627205Y-12234198D02*
X636729Y-12243722D01*
X636729Y-12243722D02*
X646253Y-12262769D01*
X646253Y-12262769D02*
X646253Y-12310388D01*
X646253Y-12310388D02*
X636729Y-12329436D01*
X636729Y-12329436D02*
X627205Y-12338960D01*
X627205Y-12338960D02*
X608158Y-12348484D01*
X608158Y-12348484D02*
X560539Y-12348484D01*
X560539Y-12348484D02*
X541491Y-12338960D01*
X541491Y-12338960D02*
X531967Y-12329436D01*
X770062Y-12148484D02*
X789110Y-12148484D01*
X789110Y-12148484D02*
X808158Y-12158008D01*
X808158Y-12158008D02*
X817682Y-12167531D01*
X817682Y-12167531D02*
X827205Y-12186579D01*
X827205Y-12186579D02*
X836729Y-12224674D01*
X836729Y-12224674D02*
X836729Y-12272293D01*
X836729Y-12272293D02*
X827205Y-12310388D01*
X827205Y-12310388D02*
X817682Y-12329436D01*
X817682Y-12329436D02*
X808158Y-12338960D01*
X808158Y-12338960D02*
X789110Y-12348484D01*
X789110Y-12348484D02*
X770062Y-12348484D01*
X770062Y-12348484D02*
X751015Y-12338960D01*
X751015Y-12338960D02*
X741491Y-12329436D01*
X741491Y-12329436D02*
X731967Y-12310388D01*
X731967Y-12310388D02*
X722443Y-12272293D01*
X722443Y-12272293D02*
X722443Y-12224674D01*
X722443Y-12224674D02*
X731967Y-12186579D01*
X731967Y-12186579D02*
X741491Y-12167531D01*
X741491Y-12167531D02*
X751015Y-12158008D01*
X751015Y-12158008D02*
X770062Y-12148484D01*
X960539Y-12148484D02*
X979586Y-12148484D01*
X979586Y-12148484D02*
X998634Y-12158008D01*
X998634Y-12158008D02*
X1008158Y-12167531D01*
X1008158Y-12167531D02*
X1017682Y-12186579D01*
X1017682Y-12186579D02*
X1027205Y-12224674D01*
X1027205Y-12224674D02*
X1027205Y-12272293D01*
X1027205Y-12272293D02*
X1017682Y-12310388D01*
X1017682Y-12310388D02*
X1008158Y-12329436D01*
X1008158Y-12329436D02*
X998634Y-12338960D01*
X998634Y-12338960D02*
X979586Y-12348484D01*
X979586Y-12348484D02*
X960539Y-12348484D01*
X960539Y-12348484D02*
X941491Y-12338960D01*
X941491Y-12338960D02*
X931967Y-12329436D01*
X931967Y-12329436D02*
X922443Y-12310388D01*
X922443Y-12310388D02*
X912920Y-12272293D01*
X912920Y-12272293D02*
X912920Y-12224674D01*
X912920Y-12224674D02*
X922443Y-12186579D01*
X922443Y-12186579D02*
X931967Y-12167531D01*
X931967Y-12167531D02*
X941491Y-12158008D01*
X941491Y-12158008D02*
X960539Y-12148484D01*
X1112920Y-12348484D02*
X1112920Y-12215150D01*
X1112920Y-12234198D02*
X1122444Y-12224674D01*
X1122444Y-12224674D02*
X1141491Y-12215150D01*
X1141491Y-12215150D02*
X1170063Y-12215150D01*
X1170063Y-12215150D02*
X1189110Y-12224674D01*
X1189110Y-12224674D02*
X1198634Y-12243722D01*
X1198634Y-12243722D02*
X1198634Y-12348484D01*
X1198634Y-12243722D02*
X1208158Y-12224674D01*
X1208158Y-12224674D02*
X1227205Y-12215150D01*
X1227205Y-12215150D02*
X1255777Y-12215150D01*
X1255777Y-12215150D02*
X1274825Y-12224674D01*
X1274825Y-12224674D02*
X1284348Y-12243722D01*
X1284348Y-12243722D02*
X1284348Y-12348484D01*
X1379586Y-12348484D02*
X1379586Y-12215150D01*
X1379586Y-12234198D02*
X1389110Y-12224674D01*
X1389110Y-12224674D02*
X1408158Y-12215150D01*
X1408158Y-12215150D02*
X1436729Y-12215150D01*
X1436729Y-12215150D02*
X1455777Y-12224674D01*
X1455777Y-12224674D02*
X1465301Y-12243722D01*
X1465301Y-12243722D02*
X1465301Y-12348484D01*
X1465301Y-12243722D02*
X1474824Y-12224674D01*
X1474824Y-12224674D02*
X1493872Y-12215150D01*
X1493872Y-12215150D02*
X1522443Y-12215150D01*
X1522443Y-12215150D02*
X1541491Y-12224674D01*
X1541491Y-12224674D02*
X1551015Y-12243722D01*
X1551015Y-12243722D02*
X1551015Y-12348484D01*
X1941491Y-12138960D02*
X1770063Y-12396103D01*
X2198634Y-12148484D02*
X2217682Y-12148484D01*
X2217682Y-12148484D02*
X2236729Y-12158008D01*
X2236729Y-12158008D02*
X2246253Y-12167531D01*
X2246253Y-12167531D02*
X2255777Y-12186579D01*
X2255777Y-12186579D02*
X2265301Y-12224674D01*
X2265301Y-12224674D02*
X2265301Y-12272293D01*
X2265301Y-12272293D02*
X2255777Y-12310388D01*
X2255777Y-12310388D02*
X2246253Y-12329436D01*
X2246253Y-12329436D02*
X2236729Y-12338960D01*
X2236729Y-12338960D02*
X2217682Y-12348484D01*
X2217682Y-12348484D02*
X2198634Y-12348484D01*
X2198634Y-12348484D02*
X2179587Y-12338960D01*
X2179587Y-12338960D02*
X2170063Y-12329436D01*
X2170063Y-12329436D02*
X2160539Y-12310388D01*
X2160539Y-12310388D02*
X2151015Y-12272293D01*
X2151015Y-12272293D02*
X2151015Y-12224674D01*
X2151015Y-12224674D02*
X2160539Y-12186579D01*
X2160539Y-12186579D02*
X2170063Y-12167531D01*
X2170063Y-12167531D02*
X2179587Y-12158008D01*
X2179587Y-12158008D02*
X2198634Y-12148484D01*
X2351015Y-12329436D02*
X2360539Y-12338960D01*
X2360539Y-12338960D02*
X2351015Y-12348484D01*
X2351015Y-12348484D02*
X2341491Y-12338960D01*
X2341491Y-12338960D02*
X2351015Y-12329436D01*
X2351015Y-12329436D02*
X2351015Y-12348484D01*
X2484348Y-12148484D02*
X2503396Y-12148484D01*
X2503396Y-12148484D02*
X2522444Y-12158008D01*
X2522444Y-12158008D02*
X2531968Y-12167531D01*
X2531968Y-12167531D02*
X2541491Y-12186579D01*
X2541491Y-12186579D02*
X2551015Y-12224674D01*
X2551015Y-12224674D02*
X2551015Y-12272293D01*
X2551015Y-12272293D02*
X2541491Y-12310388D01*
X2541491Y-12310388D02*
X2531968Y-12329436D01*
X2531968Y-12329436D02*
X2522444Y-12338960D01*
X2522444Y-12338960D02*
X2503396Y-12348484D01*
X2503396Y-12348484D02*
X2484348Y-12348484D01*
X2484348Y-12348484D02*
X2465301Y-12338960D01*
X2465301Y-12338960D02*
X2455777Y-12329436D01*
X2455777Y-12329436D02*
X2446253Y-12310388D01*
X2446253Y-12310388D02*
X2436729Y-12272293D01*
X2436729Y-12272293D02*
X2436729Y-12224674D01*
X2436729Y-12224674D02*
X2446253Y-12186579D01*
X2446253Y-12186579D02*
X2455777Y-12167531D01*
X2455777Y-12167531D02*
X2465301Y-12158008D01*
X2465301Y-12158008D02*
X2484348Y-12148484D01*
X2731968Y-12148484D02*
X2636729Y-12148484D01*
X2636729Y-12148484D02*
X2627206Y-12243722D01*
X2627206Y-12243722D02*
X2636729Y-12234198D01*
X2636729Y-12234198D02*
X2655777Y-12224674D01*
X2655777Y-12224674D02*
X2703396Y-12224674D01*
X2703396Y-12224674D02*
X2722444Y-12234198D01*
X2722444Y-12234198D02*
X2731968Y-12243722D01*
X2731968Y-12243722D02*
X2741491Y-12262769D01*
X2741491Y-12262769D02*
X2741491Y-12310388D01*
X2741491Y-12310388D02*
X2731968Y-12329436D01*
X2731968Y-12329436D02*
X2722444Y-12338960D01*
X2722444Y-12338960D02*
X2703396Y-12348484D01*
X2703396Y-12348484D02*
X2655777Y-12348484D01*
X2655777Y-12348484D02*
X2636729Y-12338960D01*
X2636729Y-12338960D02*
X2627206Y-12329436D01*
X2836729Y-12348484D02*
X2874825Y-12348484D01*
X2874825Y-12348484D02*
X2893872Y-12338960D01*
X2893872Y-12338960D02*
X2903396Y-12329436D01*
X2903396Y-12329436D02*
X2922444Y-12300865D01*
X2922444Y-12300865D02*
X2931967Y-12262769D01*
X2931967Y-12262769D02*
X2931967Y-12186579D01*
X2931967Y-12186579D02*
X2922444Y-12167531D01*
X2922444Y-12167531D02*
X2912920Y-12158008D01*
X2912920Y-12158008D02*
X2893872Y-12148484D01*
X2893872Y-12148484D02*
X2855777Y-12148484D01*
X2855777Y-12148484D02*
X2836729Y-12158008D01*
X2836729Y-12158008D02*
X2827206Y-12167531D01*
X2827206Y-12167531D02*
X2817682Y-12186579D01*
X2817682Y-12186579D02*
X2817682Y-12234198D01*
X2817682Y-12234198D02*
X2827206Y-12253246D01*
X2827206Y-12253246D02*
X2836729Y-12262769D01*
X2836729Y-12262769D02*
X2855777Y-12272293D01*
X2855777Y-12272293D02*
X2893872Y-12272293D01*
X2893872Y-12272293D02*
X2912920Y-12262769D01*
X2912920Y-12262769D02*
X2922444Y-12253246D01*
X2922444Y-12253246D02*
X2931967Y-12234198D01*
X3122444Y-12348484D02*
X3008158Y-12348484D01*
X3065301Y-12348484D02*
X3065301Y-12148484D01*
X3065301Y-12148484D02*
X3046253Y-12177055D01*
X3046253Y-12177055D02*
X3027206Y-12196103D01*
X3027206Y-12196103D02*
X3008158Y-12205627D01*
X3198634Y-12148484D02*
X3198634Y-12186579D01*
X3274825Y-12148484D02*
X3274825Y-12186579D01*
X3570063Y-12424674D02*
X3560539Y-12415150D01*
X3560539Y-12415150D02*
X3541491Y-12386579D01*
X3541491Y-12386579D02*
X3531968Y-12367531D01*
X3531968Y-12367531D02*
X3522444Y-12338960D01*
X3522444Y-12338960D02*
X3512920Y-12291341D01*
X3512920Y-12291341D02*
X3512920Y-12253246D01*
X3512920Y-12253246D02*
X3522444Y-12205627D01*
X3522444Y-12205627D02*
X3531968Y-12177055D01*
X3531968Y-12177055D02*
X3541491Y-12158008D01*
X3541491Y-12158008D02*
X3560539Y-12129436D01*
X3560539Y-12129436D02*
X3570063Y-12119912D01*
X3636729Y-12167531D02*
X3646253Y-12158008D01*
X3646253Y-12158008D02*
X3665301Y-12148484D01*
X3665301Y-12148484D02*
X3712920Y-12148484D01*
X3712920Y-12148484D02*
X3731968Y-12158008D01*
X3731968Y-12158008D02*
X3741491Y-12167531D01*
X3741491Y-12167531D02*
X3751015Y-12186579D01*
X3751015Y-12186579D02*
X3751015Y-12205627D01*
X3751015Y-12205627D02*
X3741491Y-12234198D01*
X3741491Y-12234198D02*
X3627206Y-12348484D01*
X3627206Y-12348484D02*
X3751015Y-12348484D01*
X3989110Y-12348484D02*
X3989110Y-12148484D01*
X4074825Y-12348484D02*
X4074825Y-12243722D01*
X4074825Y-12243722D02*
X4065301Y-12224674D01*
X4065301Y-12224674D02*
X4046253Y-12215150D01*
X4046253Y-12215150D02*
X4017682Y-12215150D01*
X4017682Y-12215150D02*
X3998634Y-12224674D01*
X3998634Y-12224674D02*
X3989110Y-12234198D01*
X4198634Y-12348484D02*
X4179587Y-12338960D01*
X4179587Y-12338960D02*
X4170063Y-12329436D01*
X4170063Y-12329436D02*
X4160539Y-12310388D01*
X4160539Y-12310388D02*
X4160539Y-12253246D01*
X4160539Y-12253246D02*
X4170063Y-12234198D01*
X4170063Y-12234198D02*
X4179587Y-12224674D01*
X4179587Y-12224674D02*
X4198634Y-12215150D01*
X4198634Y-12215150D02*
X4227206Y-12215150D01*
X4227206Y-12215150D02*
X4246253Y-12224674D01*
X4246253Y-12224674D02*
X4255777Y-12234198D01*
X4255777Y-12234198D02*
X4265301Y-12253246D01*
X4265301Y-12253246D02*
X4265301Y-12310388D01*
X4265301Y-12310388D02*
X4255777Y-12329436D01*
X4255777Y-12329436D02*
X4246253Y-12338960D01*
X4246253Y-12338960D02*
X4227206Y-12348484D01*
X4227206Y-12348484D02*
X4198634Y-12348484D01*
X4379587Y-12348484D02*
X4360539Y-12338960D01*
X4360539Y-12338960D02*
X4351015Y-12319912D01*
X4351015Y-12319912D02*
X4351015Y-12148484D01*
X4531968Y-12338960D02*
X4512920Y-12348484D01*
X4512920Y-12348484D02*
X4474825Y-12348484D01*
X4474825Y-12348484D02*
X4455777Y-12338960D01*
X4455777Y-12338960D02*
X4446253Y-12319912D01*
X4446253Y-12319912D02*
X4446253Y-12243722D01*
X4446253Y-12243722D02*
X4455777Y-12224674D01*
X4455777Y-12224674D02*
X4474825Y-12215150D01*
X4474825Y-12215150D02*
X4512920Y-12215150D01*
X4512920Y-12215150D02*
X4531968Y-12224674D01*
X4531968Y-12224674D02*
X4541492Y-12243722D01*
X4541492Y-12243722D02*
X4541492Y-12262769D01*
X4541492Y-12262769D02*
X4446253Y-12281817D01*
X4617682Y-12338960D02*
X4636730Y-12348484D01*
X4636730Y-12348484D02*
X4674825Y-12348484D01*
X4674825Y-12348484D02*
X4693873Y-12338960D01*
X4693873Y-12338960D02*
X4703396Y-12319912D01*
X4703396Y-12319912D02*
X4703396Y-12310388D01*
X4703396Y-12310388D02*
X4693873Y-12291341D01*
X4693873Y-12291341D02*
X4674825Y-12281817D01*
X4674825Y-12281817D02*
X4646253Y-12281817D01*
X4646253Y-12281817D02*
X4627206Y-12272293D01*
X4627206Y-12272293D02*
X4617682Y-12253246D01*
X4617682Y-12253246D02*
X4617682Y-12243722D01*
X4617682Y-12243722D02*
X4627206Y-12224674D01*
X4627206Y-12224674D02*
X4646253Y-12215150D01*
X4646253Y-12215150D02*
X4674825Y-12215150D01*
X4674825Y-12215150D02*
X4693873Y-12224674D01*
X4770063Y-12424674D02*
X4779587Y-12415150D01*
X4779587Y-12415150D02*
X4798634Y-12386579D01*
X4798634Y-12386579D02*
X4808158Y-12367531D01*
X4808158Y-12367531D02*
X4817682Y-12338960D01*
X4817682Y-12338960D02*
X4827206Y-12291341D01*
X4827206Y-12291341D02*
X4827206Y-12253246D01*
X4827206Y-12253246D02*
X4817682Y-12205627D01*
X4817682Y-12205627D02*
X4808158Y-12177055D01*
X4808158Y-12177055D02*
X4798634Y-12158008D01*
X4798634Y-12158008D02*
X4779587Y-12129436D01*
X4779587Y-12129436D02*
X4770063Y-12119912D01*
M02*
