%TF.GenerationSoftware,KiCad,Pcbnew,10.0.5*%
%TF.CreationDate,2026-08-13T00:09:28+03:00*%
%TF.ProjectId,skysweep32_rev_c,736b7973-7765-4657-9033-325f7265765f,rev?*%
%TF.SameCoordinates,Original*%
%TF.FileFunction,Copper,L4,Bot*%
%TF.FilePolarity,Positive*%
%FSLAX46Y46*%
G04 Gerber Fmt 4.6, Leading zero omitted, Abs format (unit mm)*
G04 Created by KiCad (PCBNEW 10.0.5) date 2026-08-13 00:09:28*
%MOMM*%
%LPD*%
G01*
G04 APERTURE LIST*
G04 Aperture macros list*
%AMRoundRect*
0 Rectangle with rounded corners*
0 $1 Rounding radius*
0 $2 $3 $4 $5 $6 $7 $8 $9 X,Y pos of 4 corners*
0 Add a 4 corners polygon primitive as box body*
4,1,4,$2,$3,$4,$5,$6,$7,$8,$9,$2,$3,0*
0 Add four circle primitives for the rounded corners*
1,1,$1+$1,$2,$3*
1,1,$1+$1,$4,$5*
1,1,$1+$1,$6,$7*
1,1,$1+$1,$8,$9*
0 Add four rect primitives between the rounded corners*
20,1,$1+$1,$2,$3,$4,$5,0*
20,1,$1+$1,$4,$5,$6,$7,0*
20,1,$1+$1,$6,$7,$8,$9,0*
20,1,$1+$1,$8,$9,$2,$3,0*%
G04 Aperture macros list end*
%TA.AperFunction,ComponentPad*%
%ADD10O,1.000000X2.100000*%
%TD*%
%TA.AperFunction,ComponentPad*%
%ADD11O,1.000000X1.800000*%
%TD*%
%TA.AperFunction,SMDPad,CuDef*%
%ADD12R,5.080000X1.500000*%
%TD*%
%TA.AperFunction,ComponentPad*%
%ADD13RoundRect,0.250000X-0.350000X-0.625000X0.350000X-0.625000X0.350000X0.625000X-0.350000X0.625000X0*%
%TD*%
%TA.AperFunction,ComponentPad*%
%ADD14O,1.200000X1.750000*%
%TD*%
%TA.AperFunction,HeatsinkPad*%
%ADD15C,0.600000*%
%TD*%
%TA.AperFunction,ComponentPad*%
%ADD16O,2.200000X3.500000*%
%TD*%
%TA.AperFunction,ComponentPad*%
%ADD17R,1.500000X2.500000*%
%TD*%
%TA.AperFunction,ComponentPad*%
%ADD18O,1.500000X2.500000*%
%TD*%
%TA.AperFunction,ComponentPad*%
%ADD19C,0.600000*%
%TD*%
%TA.AperFunction,SMDPad,CuDef*%
%ADD20R,2.300000X2.800000*%
%TD*%
%TA.AperFunction,ViaPad*%
%ADD21C,0.900000*%
%TD*%
%TA.AperFunction,ViaPad*%
%ADD22C,0.700000*%
%TD*%
%TA.AperFunction,ViaPad*%
%ADD23C,0.800000*%
%TD*%
%TA.AperFunction,Conductor*%
%ADD24C,0.350000*%
%TD*%
%TA.AperFunction,Conductor*%
%ADD25C,0.600000*%
%TD*%
%TA.AperFunction,Conductor*%
%ADD26C,0.250000*%
%TD*%
%TA.AperFunction,Conductor*%
%ADD27C,0.800000*%
%TD*%
%TA.AperFunction,Conductor*%
%ADD28C,0.500000*%
%TD*%
G04 APERTURE END LIST*
D10*
%TO.P,J1,SH*%
%TO.N,GND*%
X30680000Y-88220000D03*
D11*
X30680000Y-92400000D03*
D10*
X39320000Y-88220000D03*
D11*
X39320000Y-92400000D03*
%TD*%
D12*
%TO.P,J7,2*%
%TO.N,GND*%
X147450000Y-36390000D03*
X147450000Y-44890000D03*
%TD*%
D13*
%TO.P,J4,1*%
%TO.N,SYS_5V*%
X92000000Y-88000000D03*
D14*
%TO.P,J4,2*%
%TO.N,VIBRATION_DRAIN*%
X94000000Y-88000000D03*
%TD*%
D12*
%TO.P,J5,2*%
%TO.N,GND*%
X2550000Y-54250000D03*
X2550000Y-45750000D03*
%TD*%
D15*
%TO.P,U1,41*%
%TO.N,GND*%
X69100000Y-30760000D03*
X69100000Y-32160000D03*
X69800000Y-30060000D03*
X69800000Y-31460000D03*
X69800000Y-32860000D03*
X70500000Y-30760000D03*
X70500000Y-32160000D03*
X71200000Y-30060000D03*
X71200000Y-31460000D03*
X71200000Y-32860000D03*
X71900000Y-30760000D03*
X71900000Y-32160000D03*
%TD*%
D16*
%TO.P,SW4,*%
%TO.N,*%
X55900000Y-89000000D03*
X64100000Y-89000000D03*
D17*
%TO.P,SW4,1*%
%TO.N,GND*%
X58000000Y-89000000D03*
D18*
%TO.P,SW4,2*%
%TO.N,BOOST_EN*%
X60000000Y-89000000D03*
%TO.P,SW4,3*%
%TO.N,VSYS_BAT*%
X62000000Y-89000000D03*
%TD*%
D19*
%TO.P,U5,11*%
%TO.N,GND*%
X51500000Y-68250000D03*
X51500000Y-69750000D03*
X52000000Y-69000000D03*
D20*
X52000000Y-69000000D03*
D19*
X52500000Y-68250000D03*
X52500000Y-69750000D03*
%TD*%
D21*
%TO.N,3V3*%
X15846300Y-30338700D03*
D22*
X116000000Y-85000000D03*
D21*
X132747900Y-68721500D03*
X71882900Y-68475900D03*
X62686900Y-56444600D03*
X120225000Y-21140300D03*
X30417400Y-12850700D03*
X129946500Y-66000000D03*
D22*
X129175000Y-82000000D03*
D21*
X17955800Y-81084100D03*
X24958800Y-58260000D03*
D23*
%TO.N,SYS_5V*%
X80000000Y-76000000D03*
D22*
X54500000Y-69500000D03*
X49500000Y-69500000D03*
D23*
X70000000Y-78143900D03*
D21*
X67525000Y-66500000D03*
D23*
X87000000Y-84000000D03*
D22*
%TO.N,GND*%
X5676000Y-45800000D03*
X11637500Y-23159100D03*
D23*
X51078100Y-86921900D03*
X50500000Y-85000000D03*
X40100000Y-89000000D03*
X91959500Y-76519300D03*
X22700000Y-10875000D03*
D22*
X28886600Y-72445100D03*
X144013600Y-44870000D03*
X71508600Y-23740000D03*
D23*
X90825000Y-80187500D03*
D22*
X8927200Y-16100000D03*
X23481400Y-61084100D03*
X72000000Y-46842500D03*
X25738300Y-70750000D03*
X5679200Y-53900000D03*
X25033100Y-67000000D03*
D23*
X13300000Y-10875000D03*
D22*
%TO.N,RX5808_CH2*%
X76310300Y-29224900D03*
X105443200Y-45129700D03*
%TO.N,I2C_SDA*%
X16712900Y-70289500D03*
X30537700Y-26400500D03*
X13781700Y-79392000D03*
X29976500Y-20801500D03*
X79238500Y-26264300D03*
X79877700Y-80963000D03*
%TO.N,RF_SPI_MISO*%
X98633000Y-43926500D03*
X127049100Y-13050000D03*
X138657800Y-66505000D03*
X68209500Y-40185800D03*
X18874700Y-57407500D03*
%TO.N,RF_SPI_MOSI*%
X135983400Y-70905000D03*
X70501000Y-43080000D03*
X17742200Y-54450000D03*
X122937000Y-41487500D03*
X125566000Y-15498900D03*
%TO.N,RF_SPI_SCK*%
X71668000Y-42907700D03*
X124356800Y-42400000D03*
X138668100Y-68580000D03*
X127398200Y-17452500D03*
%TO.N,SX1281_CSN*%
X123244200Y-16093700D03*
X73480600Y-39053100D03*
%TO.N,SX1281_RESET*%
X73248800Y-29608900D03*
X138428000Y-16860000D03*
%TO.N,SX1281_BUSY*%
X72683300Y-35597300D03*
X125812300Y-13754500D03*
%TO.N,SX1281_DIO1*%
X137565200Y-14482500D03*
X72567000Y-34662600D03*
%TO.N,GPS_RESET_N*%
X30344300Y-15048000D03*
X18550100Y-27064100D03*
D21*
%TO.N,VBUS_PROTECTED*%
X51735800Y-53739300D03*
D23*
X53000000Y-90000000D03*
D21*
X32846900Y-67983200D03*
D23*
X46137500Y-85000000D03*
X47500000Y-89000000D03*
D21*
X52289100Y-82560300D03*
D22*
%TO.N,SD_DETECT*%
X132770700Y-76971000D03*
X79129500Y-27939200D03*
D21*
%TO.N,VSYS_BAT*%
X54805800Y-60415900D03*
X61183600Y-72448500D03*
D22*
%TO.N,CHG_N*%
X23788800Y-79989600D03*
X27426900Y-73538300D03*
%TO.N,BQ_ILIM*%
X32175000Y-66045900D03*
X31615900Y-69024800D03*
%TO.N,BQ_TMR*%
X24733600Y-63954400D03*
X27668400Y-66876600D03*
%TO.N,BQ_ITERM*%
X34969400Y-70794400D03*
X28600900Y-67553300D03*
%TO.N,BOOT_N*%
X87724100Y-40250000D03*
X122634800Y-84190200D03*
%TO.N,RX5808_CH3*%
X100018800Y-43091400D03*
X106767500Y-49045100D03*
D23*
%TO.N,VBUS_RAW*%
X42000000Y-86137500D03*
X33200000Y-89100000D03*
X36800000Y-89100000D03*
D22*
%TO.N,USB_D_P_CONN*%
X37502500Y-76050000D03*
X35480800Y-88788100D03*
%TO.N,USB_D_N_CONN*%
X36515200Y-78625500D03*
X35402100Y-86492000D03*
%TO.N,USER_BUTTON_N*%
X130072400Y-87950000D03*
X96497100Y-30090000D03*
%TO.N,BUZZER_DRAIN*%
X118500000Y-78500000D03*
X109000000Y-76000000D03*
%TO.N,SD_CSN*%
X133801200Y-74076000D03*
X106009600Y-35170000D03*
%TO.N,I2C_SCL*%
X82062800Y-26281200D03*
X29134500Y-26054000D03*
X15312400Y-76870200D03*
X79500000Y-85636400D03*
X15935200Y-71024800D03*
%TO.N,VIBRATION_DRAIN*%
X86000000Y-90000000D03*
X84000000Y-81000000D03*
%TO.N,ALERT_LED*%
X107508400Y-82688500D03*
X83311400Y-32630000D03*
%TO.N,USB_D_N*%
X55093600Y-38980000D03*
X46825900Y-78489900D03*
%TO.N,RX5808_RSSI_ADC*%
X64834500Y-28820000D03*
X88916800Y-50837200D03*
X71648600Y-44909100D03*
%TO.N,RX5808_CH1*%
X64625300Y-30617600D03*
X111213800Y-41199000D03*
%TO.N,MCU_EN*%
X76324800Y-27262500D03*
X73103600Y-44949000D03*
X106447200Y-88150000D03*
%TO.N,CC1101_GDO0*%
X16697500Y-56990000D03*
X60776500Y-32752600D03*
%TO.N,USB_D_P*%
X63670400Y-41254000D03*
X47514600Y-75500000D03*
%TO.N,GPS_PPS*%
X69484900Y-38376400D03*
X26098300Y-8398400D03*
%TO.N,GPS_RX*%
X37667200Y-17556900D03*
X71097000Y-37420400D03*
X27524400Y-18285000D03*
%TO.N,GPS_TX*%
X66782800Y-36593500D03*
X27437100Y-22339900D03*
%TO.N,ALERT_BUZZER_GATE*%
X96331900Y-67227700D03*
X84702000Y-33900000D03*
%TO.N,VIBRATION_GATE*%
X85254300Y-79800000D03*
X82765500Y-31360000D03*
%TO.N,UART0_RX*%
X76124100Y-51553600D03*
X77518700Y-28820000D03*
%TO.N,UART0_TX*%
X84013600Y-50594200D03*
X82765500Y-27550000D03*
%TO.N,BOOST_EN*%
X56219800Y-68500000D03*
%TD*%
%TO.N,3V3*%
D24*
X116000000Y-87000000D02*
X130000000Y-87000000D01*
X116000000Y-85000000D02*
X116000000Y-87000000D01*
X130000000Y-87000000D02*
X129175000Y-82000000D01*
%TO.N,SYS_5V*%
D25*
X87000000Y-84000000D02*
X87000000Y-76000000D01*
X54500000Y-71600000D02*
X49500000Y-71600000D01*
X70000000Y-78000000D02*
X70000000Y-78143900D01*
X87000000Y-84000000D02*
X87000000Y-78000000D01*
X87000000Y-76000000D02*
X80000000Y-76000000D01*
X87000000Y-78000000D02*
X70000000Y-78000000D01*
X54500000Y-69500000D02*
X54500000Y-71600000D01*
X49500000Y-71600000D02*
X49500000Y-69500000D01*
%TO.N,GND*%
D26*
X5416700Y-45750000D02*
X5416700Y-45800000D01*
X144603300Y-44890000D02*
X144583300Y-44870000D01*
X144583300Y-44870000D02*
X144583300Y-36390000D01*
X147450000Y-44890000D02*
X146016700Y-44890000D01*
X5416700Y-45800000D02*
X5416700Y-53900000D01*
X2550000Y-45750000D02*
X5416700Y-45750000D01*
X5416700Y-45800000D02*
X5676000Y-45800000D01*
X5416700Y-53900000D02*
X5416700Y-54250000D01*
X5416700Y-53900000D02*
X5679200Y-53900000D01*
X147450000Y-36390000D02*
X144583300Y-36390000D01*
X2550000Y-54250000D02*
X5416700Y-54250000D01*
X146016700Y-44890000D02*
X144603300Y-44890000D01*
X144583300Y-44870000D02*
X144013600Y-44870000D01*
%TO.N,I2C_SDA*%
X79102300Y-26400500D02*
X79238500Y-26264300D01*
X30537700Y-26400500D02*
X79102300Y-26400500D01*
%TO.N,RF_SPI_MOSI*%
X71705300Y-41875700D02*
X122548800Y-41875700D01*
X122548800Y-41875700D02*
X122937000Y-41487500D01*
X70501000Y-43080000D02*
X71705300Y-41875700D01*
%TO.N,RF_SPI_SCK*%
X124356800Y-42400000D02*
X72175700Y-42400000D01*
X72175700Y-42400000D02*
X71668000Y-42907700D01*
%TO.N,VBUS_PROTECTED*%
D27*
X53000000Y-90000000D02*
X52289100Y-82560300D01*
X47500000Y-89000000D02*
X46137500Y-85000000D01*
%TO.N,VBUS_RAW*%
D28*
X36800000Y-89100000D02*
X36800000Y-90300000D01*
D27*
X42000000Y-90300000D02*
X42000000Y-86137500D01*
D28*
X33200000Y-89100000D02*
X33200000Y-90300000D01*
D27*
X33200000Y-90300000D02*
X42000000Y-90300000D01*
%TO.N,BUZZER_DRAIN*%
D26*
X118500000Y-78500000D02*
X109000000Y-76000000D01*
%TO.N,I2C_SCL*%
X81357600Y-25576000D02*
X82062800Y-26281200D01*
X29612500Y-25576000D02*
X81357600Y-25576000D01*
X29134500Y-26054000D02*
X29612500Y-25576000D01*
%TO.N,VIBRATION_DRAIN*%
X84000000Y-81000000D02*
X82000000Y-85000000D01*
X82000000Y-85000000D02*
X86000000Y-90000000D01*
%TO.N,RX5808_RSSI_ADC*%
X86543000Y-48463400D02*
X88916800Y-50837200D01*
X71648600Y-44909100D02*
X75202900Y-48463400D01*
X75202900Y-48463400D02*
X86543000Y-48463400D01*
%TO.N,RX5808_CH1*%
X82868700Y-33689300D02*
X90378400Y-41199000D01*
X64625300Y-30617600D02*
X67697000Y-33689300D01*
X90378400Y-41199000D02*
X111213800Y-41199000D01*
X67697000Y-33689300D02*
X82868700Y-33689300D01*
%TO.N,GPS_RX*%
X27524400Y-18285000D02*
X36939100Y-18285000D01*
X36939100Y-18285000D02*
X37667200Y-17556900D01*
%TD*%
M02*
