M48
; DRILL file KiCad 10.0.5 date 2026-08-11T15:36:02
; FORMAT={-:-/ absolute / metric / decimal}
; #@! TF.CreationDate,2026-08-11T15:36:02+03:00
; #@! TF.GenerationSoftware,Kicad,Pcbnew,10.0.5
; #@! TF.FileFunction,Plated,1,4,PTH
FMAT,2
METRIC
; #@! TA.AperFunction,Plated,PTH,ComponentDrill
T1C0.200
; #@! TA.AperFunction,Plated,PTH,ViaDrill
T2C0.300
; #@! TA.AperFunction,Plated,PTH,ViaDrill
T3C0.400
; #@! TA.AperFunction,Plated,PTH,ViaDrill
T4C0.500
; #@! TA.AperFunction,Plated,PTH,ComponentDrill
T5C0.600
; #@! TA.AperFunction,Plated,PTH,ComponentDrill
T6C0.750
; #@! TA.AperFunction,Plated,PTH,ComponentDrill
T7C1.000
%
G90
G05
T1
X57.1Y-29.76
X57.1Y-31.16
X57.8Y-29.06
X57.8Y-30.46
X57.8Y-31.86
X58.5Y-29.76
X58.5Y-31.16
X59.2Y-29.06
X59.2Y-30.46
X59.2Y-31.86
X59.9Y-29.76
X59.9Y-31.16
T2
X7.634Y-17.42
X9.0Y-43.0
X9.0Y-45.54
X10.666Y-51.334
X11.255Y-56.84
X11.826Y-25.502
X14.399Y-51.774
X14.803Y-54.45
X16.556Y-28.058
X18.9Y-27.1
X19.784Y-55.72
X19.798Y-58.26
X20.875Y-28.06
X21.75Y-79.0
X21.969Y-32.163
X21.969Y-41.356
X22.186Y-10.172
X22.4Y-76.6
X23.557Y-32.132
X24.025Y-8.42
X26.069Y-20.9
X26.698Y-17.25
X26.818Y-26.276
X27.175Y-21.031
X29.781Y-15.179
X31.175Y-77.2
X31.333Y-24.438
X39.358Y-59.991
X40.169Y-63.873
X47.207Y-78.497
X47.569Y-32.9
X48.593Y-31.117
X49.183Y-45.938
X49.697Y-76.007
X49.922Y-39.25
X50.62Y-41.131
X52.857Y-35.372
X53.247Y-38.082
X55.392Y-35.006
X55.824Y-45.539
X55.921Y-36.71
X56.393Y-38.873
X57.67Y-42.718
X58.272Y-38.933
X59.106Y-42.259
X59.545Y-44.84
X62.432Y-67.48
X63.828Y-37.856
X64.676Y-75.67
X65.592Y-42.727
X66.466Y-74.925
X66.79Y-24.01
X66.809Y-28.97
X66.833Y-33.914
X67.216Y-31.63
X69.16Y-58.118
X69.769Y-77.07
X70.235Y-32.9
X70.525Y-28.445
X71.009Y-39.25
X71.643Y-29.334
X72.745Y-77.551
X74.335Y-32.406
X76.444Y-32.587
X78.622Y-35.193
X80.047Y-46.454
X81.922Y-48.0
X85.18Y-58.0
X85.42Y-37.98
X86.08Y-53.0
X88.417Y-78.15
X89.962Y-35.914
X91.376Y-59.706
X92.344Y-36.71
X93.313Y-81.85
X93.864Y-72.683
X93.976Y-57.986
X94.376Y-56.537
X94.486Y-66.684
X97.481Y-53.248
X98.204Y-55.009
X99.462Y-77.294
X104.646Y-62.948
X105.649Y-57.705
X107.464Y-63.235
X114.781Y-66.532
X114.949Y-62.692
T3
X17.6Y-75.7
X45.862Y-66.0
T4
X31.0Y-73.3
T6
X80.0Y-69.0
X82.0Y-69.0
T7
X98.75Y-19.11
X98.75Y-21.65
X98.75Y-24.19
X98.75Y-26.73
X98.75Y-29.27
X98.75Y-31.81
X98.75Y-34.35
X98.75Y-36.89
T5
X15.68Y-77.67G85X15.68Y-78.77
G05
X15.68Y-82.0G85X15.68Y-82.8
G05
X24.32Y-77.67G85X24.32Y-78.77
G05
X24.32Y-82.0G85X24.32Y-82.8
G05
M30
