%TF.GenerationSoftware,KiCad,Pcbnew,10.0.5*%
%TF.CreationDate,2026-08-12T20:20:52+03:00*%
%TF.ProjectId,skysweep32_rev_c,736b7973-7765-4657-9033-325f7265765f,rev?*%
%TF.SameCoordinates,Original*%
%TF.FileFunction,Legend,Top*%
%TF.FilePolarity,Positive*%
%FSLAX46Y46*%
G04 Gerber Fmt 4.6, Leading zero omitted, Abs format (unit mm)*
G04 Created by KiCad (PCBNEW 10.0.5) date 2026-08-12 20:20:52*
%MOMM*%
%LPD*%
G01*
G04 APERTURE LIST*
G04 Aperture macros list*
%AMRoundRect*
0 Rectangle with rounded corners*
0 $1 Rounding radius*
0 $2 $3 $4 $5 $6 $7 $8 $9 X,Y pos of 4 corners*
0 Add a 4 corners polygon primitive as box body*
4,1,4,$2,$3,$4,$5,$6,$7,$8,$9,$2,$3,0*
0 Add four circle primitives for the rounded corners*
1,1,$1+$1,$2,$3*
1,1,$1+$1,$4,$5*
1,1,$1+$1,$6,$7*
1,1,$1+$1,$8,$9*
0 Add four rect primitives between the rounded corners*
20,1,$1+$1,$2,$3,$4,$5,0*
20,1,$1+$1,$4,$5,$6,$7,0*
20,1,$1+$1,$6,$7,$8,$9,0*
20,1,$1+$1,$8,$9,$2,$3,0*%
G04 Aperture macros list end*
%ADD10C,0.150000*%
%ADD11C,0.120000*%
%ADD12C,0.250000*%
%ADD13RoundRect,0.250000X-0.325000X-0.650000X0.325000X-0.650000X0.325000X0.650000X-0.325000X0.650000X0*%
%ADD14C,3.200000*%
%ADD15R,2.000000X1.600000*%
%ADD16RoundRect,0.320000X-0.680000X-0.480000X0.680000X-0.480000X0.680000X0.480000X-0.680000X0.480000X0*%
%ADD17RoundRect,0.150000X-0.587500X-0.150000X0.587500X-0.150000X0.587500X0.150000X-0.587500X0.150000X0*%
%ADD18R,1.800000X1.100000*%
%ADD19RoundRect,0.200000X-0.200000X-0.275000X0.200000X-0.275000X0.200000X0.275000X-0.200000X0.275000X0*%
%ADD20RoundRect,0.218750X-0.218750X-0.256250X0.218750X-0.256250X0.218750X0.256250X-0.218750X0.256250X0*%
%ADD21R,5.080000X1.500000*%
%ADD22RoundRect,0.250000X-0.250000X-0.475000X0.250000X-0.475000X0.250000X0.475000X-0.250000X0.475000X0*%
%ADD23RoundRect,0.250000X0.800000X-0.450000X0.800000X0.450000X-0.800000X0.450000X-0.800000X-0.450000X0*%
%ADD24R,1.000000X0.800000*%
%ADD25RoundRect,0.160000X-0.340000X-0.240000X0.340000X-0.240000X0.340000X0.240000X-0.340000X0.240000X0*%
%ADD26RoundRect,0.250000X-0.350000X-0.625000X0.350000X-0.625000X0.350000X0.625000X-0.350000X0.625000X0*%
%ADD27O,1.200000X1.750000*%
%ADD28RoundRect,0.150000X-0.512500X-0.150000X0.512500X-0.150000X0.512500X0.150000X-0.512500X0.150000X0*%
%ADD29R,1.500000X0.900000*%
%ADD30R,0.900000X1.500000*%
%ADD31C,0.600000*%
%ADD32R,3.900000X3.900000*%
%ADD33C,1.000000*%
%ADD34RoundRect,0.160000X-0.740000X-0.240000X0.740000X-0.240000X0.740000X0.240000X-0.740000X0.240000X0*%
%ADD35RoundRect,0.225000X-0.225000X-0.250000X0.225000X-0.250000X0.225000X0.250000X-0.225000X0.250000X0*%
%ADD36RoundRect,0.062500X-0.287500X-0.062500X0.287500X-0.062500X0.287500X0.062500X-0.287500X0.062500X0*%
%ADD37R,0.900000X1.300000*%
%ADD38RoundRect,0.250000X0.650000X-1.000000X0.650000X1.000000X-0.650000X1.000000X-0.650000X-1.000000X0*%
%ADD39R,1.600000X5.700000*%
%ADD40RoundRect,0.250000X1.450000X-0.312500X1.450000X0.312500X-1.450000X0.312500X-1.450000X-0.312500X0*%
%ADD41RoundRect,0.062500X-0.375000X-0.062500X0.375000X-0.062500X0.375000X0.062500X-0.375000X0.062500X0*%
%ADD42RoundRect,0.062500X-0.062500X-0.375000X0.062500X-0.375000X0.062500X0.375000X-0.062500X0.375000X0*%
%ADD43R,1.600000X1.600000*%
%ADD44RoundRect,0.250000X-0.250000X-1.500000X0.250000X-1.500000X0.250000X1.500000X-0.250000X1.500000X0*%
%ADD45RoundRect,0.250001X-0.499999X-1.449999X0.499999X-1.449999X0.499999X1.449999X-0.499999X1.449999X0*%
%ADD46O,2.200000X3.500000*%
%ADD47R,1.500000X2.500000*%
%ADD48O,1.500000X2.500000*%
%ADD49R,2.200000X3.000000*%
%ADD50RoundRect,0.440000X-0.660000X-1.060000X0.660000X-1.060000X0.660000X1.060000X-0.660000X1.060000X0*%
%ADD51RoundRect,0.150000X-0.150000X-0.625000X0.150000X-0.625000X0.150000X0.625000X-0.150000X0.625000X0*%
%ADD52RoundRect,0.250000X-0.350000X-0.650000X0.350000X-0.650000X0.350000X0.650000X-0.350000X0.650000X0*%
%ADD53R,2.750000X1.600000*%
%ADD54RoundRect,0.240000X-1.135000X-0.560000X1.135000X-0.560000X1.135000X0.560000X-1.135000X0.560000X0*%
%ADD55RoundRect,0.240000X0.560000X-1.135000X0.560000X1.135000X-0.560000X1.135000X-0.560000X-1.135000X0*%
%ADD56C,0.650000*%
%ADD57RoundRect,0.150000X-0.150000X-0.425000X0.150000X-0.425000X0.150000X0.425000X-0.150000X0.425000X0*%
%ADD58RoundRect,0.075000X-0.075000X-0.500000X0.075000X-0.500000X0.075000X0.500000X-0.075000X0.500000X0*%
%ADD59O,1.000000X2.100000*%
%ADD60O,1.000000X1.800000*%
%ADD61RoundRect,0.250000X-1.750000X-1.000000X1.750000X-1.000000X1.750000X1.000000X-1.750000X1.000000X0*%
%ADD62RoundRect,0.250000X-0.450000X-0.800000X0.450000X-0.800000X0.450000X0.800000X-0.450000X0.800000X0*%
%ADD63R,0.280000X0.280000*%
%ADD64O,0.850000X0.280000*%
%ADD65R,0.680000X1.050000*%
%ADD66R,0.260000X0.500000*%
%ADD67R,0.280000X0.700000*%
%ADD68R,1.650000X2.400000*%
%ADD69R,1.100000X0.850000*%
%ADD70R,1.100000X0.750000*%
%ADD71R,1.000000X1.200000*%
%ADD72R,1.350000X1.550000*%
%ADD73R,1.350000X1.900000*%
%ADD74R,1.800000X1.170000*%
G04 APERTURE END LIST*
D10*
X4333333Y-37562295D02*
X4333333Y-38133723D01*
X4333333Y-38133723D02*
X4295238Y-38248009D01*
X4295238Y-38248009D02*
X4219047Y-38324200D01*
X4219047Y-38324200D02*
X4104762Y-38362295D01*
X4104762Y-38362295D02*
X4028571Y-38362295D01*
X5095238Y-37562295D02*
X4714286Y-37562295D01*
X4714286Y-37562295D02*
X4676190Y-37943247D01*
X4676190Y-37943247D02*
X4714286Y-37905152D01*
X4714286Y-37905152D02*
X4790476Y-37867057D01*
X4790476Y-37867057D02*
X4980952Y-37867057D01*
X4980952Y-37867057D02*
X5057143Y-37905152D01*
X5057143Y-37905152D02*
X5095238Y-37943247D01*
X5095238Y-37943247D02*
X5133333Y-38019438D01*
X5133333Y-38019438D02*
X5133333Y-38209914D01*
X5133333Y-38209914D02*
X5095238Y-38286104D01*
X5095238Y-38286104D02*
X5057143Y-38324200D01*
X5057143Y-38324200D02*
X4980952Y-38362295D01*
X4980952Y-38362295D02*
X4790476Y-38362295D01*
X4790476Y-38362295D02*
X4714286Y-38324200D01*
X4714286Y-38324200D02*
X4676190Y-38286104D01*
X6047619Y-38324200D02*
X6161905Y-38362295D01*
X6161905Y-38362295D02*
X6352381Y-38362295D01*
X6352381Y-38362295D02*
X6428572Y-38324200D01*
X6428572Y-38324200D02*
X6466667Y-38286104D01*
X6466667Y-38286104D02*
X6504762Y-38209914D01*
X6504762Y-38209914D02*
X6504762Y-38133723D01*
X6504762Y-38133723D02*
X6466667Y-38057533D01*
X6466667Y-38057533D02*
X6428572Y-38019438D01*
X6428572Y-38019438D02*
X6352381Y-37981342D01*
X6352381Y-37981342D02*
X6200000Y-37943247D01*
X6200000Y-37943247D02*
X6123810Y-37905152D01*
X6123810Y-37905152D02*
X6085715Y-37867057D01*
X6085715Y-37867057D02*
X6047619Y-37790866D01*
X6047619Y-37790866D02*
X6047619Y-37714676D01*
X6047619Y-37714676D02*
X6085715Y-37638485D01*
X6085715Y-37638485D02*
X6123810Y-37600390D01*
X6123810Y-37600390D02*
X6200000Y-37562295D01*
X6200000Y-37562295D02*
X6390477Y-37562295D01*
X6390477Y-37562295D02*
X6504762Y-37600390D01*
X6847620Y-37562295D02*
X6847620Y-38209914D01*
X6847620Y-38209914D02*
X6885715Y-38286104D01*
X6885715Y-38286104D02*
X6923810Y-38324200D01*
X6923810Y-38324200D02*
X7000001Y-38362295D01*
X7000001Y-38362295D02*
X7152382Y-38362295D01*
X7152382Y-38362295D02*
X7228572Y-38324200D01*
X7228572Y-38324200D02*
X7266667Y-38286104D01*
X7266667Y-38286104D02*
X7304763Y-38209914D01*
X7304763Y-38209914D02*
X7304763Y-37562295D01*
X7952381Y-37943247D02*
X8066667Y-37981342D01*
X8066667Y-37981342D02*
X8104762Y-38019438D01*
X8104762Y-38019438D02*
X8142858Y-38095628D01*
X8142858Y-38095628D02*
X8142858Y-38209914D01*
X8142858Y-38209914D02*
X8104762Y-38286104D01*
X8104762Y-38286104D02*
X8066667Y-38324200D01*
X8066667Y-38324200D02*
X7990477Y-38362295D01*
X7990477Y-38362295D02*
X7685715Y-38362295D01*
X7685715Y-38362295D02*
X7685715Y-37562295D01*
X7685715Y-37562295D02*
X7952381Y-37562295D01*
X7952381Y-37562295D02*
X8028572Y-37600390D01*
X8028572Y-37600390D02*
X8066667Y-37638485D01*
X8066667Y-37638485D02*
X8104762Y-37714676D01*
X8104762Y-37714676D02*
X8104762Y-37790866D01*
X8104762Y-37790866D02*
X8066667Y-37867057D01*
X8066667Y-37867057D02*
X8028572Y-37905152D01*
X8028572Y-37905152D02*
X7952381Y-37943247D01*
X7952381Y-37943247D02*
X7685715Y-37943247D01*
X8485715Y-38057533D02*
X9095239Y-38057533D01*
X9895238Y-37600390D02*
X9819048Y-37562295D01*
X9819048Y-37562295D02*
X9704762Y-37562295D01*
X9704762Y-37562295D02*
X9590476Y-37600390D01*
X9590476Y-37600390D02*
X9514286Y-37676580D01*
X9514286Y-37676580D02*
X9476191Y-37752771D01*
X9476191Y-37752771D02*
X9438095Y-37905152D01*
X9438095Y-37905152D02*
X9438095Y-38019438D01*
X9438095Y-38019438D02*
X9476191Y-38171819D01*
X9476191Y-38171819D02*
X9514286Y-38248009D01*
X9514286Y-38248009D02*
X9590476Y-38324200D01*
X9590476Y-38324200D02*
X9704762Y-38362295D01*
X9704762Y-38362295D02*
X9780953Y-38362295D01*
X9780953Y-38362295D02*
X9895238Y-38324200D01*
X9895238Y-38324200D02*
X9933334Y-38286104D01*
X9933334Y-38286104D02*
X9933334Y-38019438D01*
X9933334Y-38019438D02*
X9780953Y-38019438D01*
X4123810Y-64362295D02*
X3857143Y-63981342D01*
X3666667Y-64362295D02*
X3666667Y-63562295D01*
X3666667Y-63562295D02*
X3971429Y-63562295D01*
X3971429Y-63562295D02*
X4047619Y-63600390D01*
X4047619Y-63600390D02*
X4085714Y-63638485D01*
X4085714Y-63638485D02*
X4123810Y-63714676D01*
X4123810Y-63714676D02*
X4123810Y-63828961D01*
X4123810Y-63828961D02*
X4085714Y-63905152D01*
X4085714Y-63905152D02*
X4047619Y-63943247D01*
X4047619Y-63943247D02*
X3971429Y-63981342D01*
X3971429Y-63981342D02*
X3666667Y-63981342D01*
X4733333Y-63943247D02*
X4466667Y-63943247D01*
X4466667Y-64362295D02*
X4466667Y-63562295D01*
X4466667Y-63562295D02*
X4847619Y-63562295D01*
X5114285Y-63638485D02*
X5152381Y-63600390D01*
X5152381Y-63600390D02*
X5228571Y-63562295D01*
X5228571Y-63562295D02*
X5419047Y-63562295D01*
X5419047Y-63562295D02*
X5495238Y-63600390D01*
X5495238Y-63600390D02*
X5533333Y-63638485D01*
X5533333Y-63638485D02*
X5571428Y-63714676D01*
X5571428Y-63714676D02*
X5571428Y-63790866D01*
X5571428Y-63790866D02*
X5533333Y-63905152D01*
X5533333Y-63905152D02*
X5076190Y-64362295D01*
X5076190Y-64362295D02*
X5571428Y-64362295D01*
X6485714Y-64324200D02*
X6600000Y-64362295D01*
X6600000Y-64362295D02*
X6790476Y-64362295D01*
X6790476Y-64362295D02*
X6866667Y-64324200D01*
X6866667Y-64324200D02*
X6904762Y-64286104D01*
X6904762Y-64286104D02*
X6942857Y-64209914D01*
X6942857Y-64209914D02*
X6942857Y-64133723D01*
X6942857Y-64133723D02*
X6904762Y-64057533D01*
X6904762Y-64057533D02*
X6866667Y-64019438D01*
X6866667Y-64019438D02*
X6790476Y-63981342D01*
X6790476Y-63981342D02*
X6638095Y-63943247D01*
X6638095Y-63943247D02*
X6561905Y-63905152D01*
X6561905Y-63905152D02*
X6523810Y-63867057D01*
X6523810Y-63867057D02*
X6485714Y-63790866D01*
X6485714Y-63790866D02*
X6485714Y-63714676D01*
X6485714Y-63714676D02*
X6523810Y-63638485D01*
X6523810Y-63638485D02*
X6561905Y-63600390D01*
X6561905Y-63600390D02*
X6638095Y-63562295D01*
X6638095Y-63562295D02*
X6828572Y-63562295D01*
X6828572Y-63562295D02*
X6942857Y-63600390D01*
X7285715Y-63562295D02*
X7285715Y-64209914D01*
X7285715Y-64209914D02*
X7323810Y-64286104D01*
X7323810Y-64286104D02*
X7361905Y-64324200D01*
X7361905Y-64324200D02*
X7438096Y-64362295D01*
X7438096Y-64362295D02*
X7590477Y-64362295D01*
X7590477Y-64362295D02*
X7666667Y-64324200D01*
X7666667Y-64324200D02*
X7704762Y-64286104D01*
X7704762Y-64286104D02*
X7742858Y-64209914D01*
X7742858Y-64209914D02*
X7742858Y-63562295D01*
X8390476Y-63943247D02*
X8504762Y-63981342D01*
X8504762Y-63981342D02*
X8542857Y-64019438D01*
X8542857Y-64019438D02*
X8580953Y-64095628D01*
X8580953Y-64095628D02*
X8580953Y-64209914D01*
X8580953Y-64209914D02*
X8542857Y-64286104D01*
X8542857Y-64286104D02*
X8504762Y-64324200D01*
X8504762Y-64324200D02*
X8428572Y-64362295D01*
X8428572Y-64362295D02*
X8123810Y-64362295D01*
X8123810Y-64362295D02*
X8123810Y-63562295D01*
X8123810Y-63562295D02*
X8390476Y-63562295D01*
X8390476Y-63562295D02*
X8466667Y-63600390D01*
X8466667Y-63600390D02*
X8504762Y-63638485D01*
X8504762Y-63638485D02*
X8542857Y-63714676D01*
X8542857Y-63714676D02*
X8542857Y-63790866D01*
X8542857Y-63790866D02*
X8504762Y-63867057D01*
X8504762Y-63867057D02*
X8466667Y-63905152D01*
X8466667Y-63905152D02*
X8390476Y-63943247D01*
X8390476Y-63943247D02*
X8123810Y-63943247D01*
X8923810Y-64057533D02*
X9533334Y-64057533D01*
X10333333Y-63600390D02*
X10257143Y-63562295D01*
X10257143Y-63562295D02*
X10142857Y-63562295D01*
X10142857Y-63562295D02*
X10028571Y-63600390D01*
X10028571Y-63600390D02*
X9952381Y-63676580D01*
X9952381Y-63676580D02*
X9914286Y-63752771D01*
X9914286Y-63752771D02*
X9876190Y-63905152D01*
X9876190Y-63905152D02*
X9876190Y-64019438D01*
X9876190Y-64019438D02*
X9914286Y-64171819D01*
X9914286Y-64171819D02*
X9952381Y-64248009D01*
X9952381Y-64248009D02*
X10028571Y-64324200D01*
X10028571Y-64324200D02*
X10142857Y-64362295D01*
X10142857Y-64362295D02*
X10219048Y-64362295D01*
X10219048Y-64362295D02*
X10333333Y-64324200D01*
X10333333Y-64324200D02*
X10371429Y-64286104D01*
X10371429Y-64286104D02*
X10371429Y-64019438D01*
X10371429Y-64019438D02*
X10219048Y-64019438D01*
X17047618Y-7100390D02*
X16971428Y-7062295D01*
X16971428Y-7062295D02*
X16857142Y-7062295D01*
X16857142Y-7062295D02*
X16742856Y-7100390D01*
X16742856Y-7100390D02*
X16666666Y-7176580D01*
X16666666Y-7176580D02*
X16628571Y-7252771D01*
X16628571Y-7252771D02*
X16590475Y-7405152D01*
X16590475Y-7405152D02*
X16590475Y-7519438D01*
X16590475Y-7519438D02*
X16628571Y-7671819D01*
X16628571Y-7671819D02*
X16666666Y-7748009D01*
X16666666Y-7748009D02*
X16742856Y-7824200D01*
X16742856Y-7824200D02*
X16857142Y-7862295D01*
X16857142Y-7862295D02*
X16933333Y-7862295D01*
X16933333Y-7862295D02*
X17047618Y-7824200D01*
X17047618Y-7824200D02*
X17085714Y-7786104D01*
X17085714Y-7786104D02*
X17085714Y-7519438D01*
X17085714Y-7519438D02*
X16933333Y-7519438D01*
X17428571Y-7862295D02*
X17428571Y-7062295D01*
X17428571Y-7062295D02*
X17733333Y-7062295D01*
X17733333Y-7062295D02*
X17809523Y-7100390D01*
X17809523Y-7100390D02*
X17847618Y-7138485D01*
X17847618Y-7138485D02*
X17885714Y-7214676D01*
X17885714Y-7214676D02*
X17885714Y-7328961D01*
X17885714Y-7328961D02*
X17847618Y-7405152D01*
X17847618Y-7405152D02*
X17809523Y-7443247D01*
X17809523Y-7443247D02*
X17733333Y-7481342D01*
X17733333Y-7481342D02*
X17428571Y-7481342D01*
X18190475Y-7824200D02*
X18304761Y-7862295D01*
X18304761Y-7862295D02*
X18495237Y-7862295D01*
X18495237Y-7862295D02*
X18571428Y-7824200D01*
X18571428Y-7824200D02*
X18609523Y-7786104D01*
X18609523Y-7786104D02*
X18647618Y-7709914D01*
X18647618Y-7709914D02*
X18647618Y-7633723D01*
X18647618Y-7633723D02*
X18609523Y-7557533D01*
X18609523Y-7557533D02*
X18571428Y-7519438D01*
X18571428Y-7519438D02*
X18495237Y-7481342D01*
X18495237Y-7481342D02*
X18342856Y-7443247D01*
X18342856Y-7443247D02*
X18266666Y-7405152D01*
X18266666Y-7405152D02*
X18228571Y-7367057D01*
X18228571Y-7367057D02*
X18190475Y-7290866D01*
X18190475Y-7290866D02*
X18190475Y-7214676D01*
X18190475Y-7214676D02*
X18228571Y-7138485D01*
X18228571Y-7138485D02*
X18266666Y-7100390D01*
X18266666Y-7100390D02*
X18342856Y-7062295D01*
X18342856Y-7062295D02*
X18533333Y-7062295D01*
X18533333Y-7062295D02*
X18647618Y-7100390D01*
X19409523Y-7862295D02*
X18952380Y-7862295D01*
X19180952Y-7862295D02*
X19180952Y-7062295D01*
X19180952Y-7062295D02*
X19104761Y-7176580D01*
X19104761Y-7176580D02*
X19028571Y-7252771D01*
X19028571Y-7252771D02*
X18952380Y-7290866D01*
X32333333Y-93062295D02*
X32333333Y-93633723D01*
X32333333Y-93633723D02*
X32295238Y-93748009D01*
X32295238Y-93748009D02*
X32219047Y-93824200D01*
X32219047Y-93824200D02*
X32104762Y-93862295D01*
X32104762Y-93862295D02*
X32028571Y-93862295D01*
X33133333Y-93862295D02*
X32676190Y-93862295D01*
X32904762Y-93862295D02*
X32904762Y-93062295D01*
X32904762Y-93062295D02*
X32828571Y-93176580D01*
X32828571Y-93176580D02*
X32752381Y-93252771D01*
X32752381Y-93252771D02*
X32676190Y-93290866D01*
X34085715Y-93062295D02*
X34085715Y-93709914D01*
X34085715Y-93709914D02*
X34123810Y-93786104D01*
X34123810Y-93786104D02*
X34161905Y-93824200D01*
X34161905Y-93824200D02*
X34238096Y-93862295D01*
X34238096Y-93862295D02*
X34390477Y-93862295D01*
X34390477Y-93862295D02*
X34466667Y-93824200D01*
X34466667Y-93824200D02*
X34504762Y-93786104D01*
X34504762Y-93786104D02*
X34542858Y-93709914D01*
X34542858Y-93709914D02*
X34542858Y-93062295D01*
X34885714Y-93824200D02*
X35000000Y-93862295D01*
X35000000Y-93862295D02*
X35190476Y-93862295D01*
X35190476Y-93862295D02*
X35266667Y-93824200D01*
X35266667Y-93824200D02*
X35304762Y-93786104D01*
X35304762Y-93786104D02*
X35342857Y-93709914D01*
X35342857Y-93709914D02*
X35342857Y-93633723D01*
X35342857Y-93633723D02*
X35304762Y-93557533D01*
X35304762Y-93557533D02*
X35266667Y-93519438D01*
X35266667Y-93519438D02*
X35190476Y-93481342D01*
X35190476Y-93481342D02*
X35038095Y-93443247D01*
X35038095Y-93443247D02*
X34961905Y-93405152D01*
X34961905Y-93405152D02*
X34923810Y-93367057D01*
X34923810Y-93367057D02*
X34885714Y-93290866D01*
X34885714Y-93290866D02*
X34885714Y-93214676D01*
X34885714Y-93214676D02*
X34923810Y-93138485D01*
X34923810Y-93138485D02*
X34961905Y-93100390D01*
X34961905Y-93100390D02*
X35038095Y-93062295D01*
X35038095Y-93062295D02*
X35228572Y-93062295D01*
X35228572Y-93062295D02*
X35342857Y-93100390D01*
X35952381Y-93443247D02*
X36066667Y-93481342D01*
X36066667Y-93481342D02*
X36104762Y-93519438D01*
X36104762Y-93519438D02*
X36142858Y-93595628D01*
X36142858Y-93595628D02*
X36142858Y-93709914D01*
X36142858Y-93709914D02*
X36104762Y-93786104D01*
X36104762Y-93786104D02*
X36066667Y-93824200D01*
X36066667Y-93824200D02*
X35990477Y-93862295D01*
X35990477Y-93862295D02*
X35685715Y-93862295D01*
X35685715Y-93862295D02*
X35685715Y-93062295D01*
X35685715Y-93062295D02*
X35952381Y-93062295D01*
X35952381Y-93062295D02*
X36028572Y-93100390D01*
X36028572Y-93100390D02*
X36066667Y-93138485D01*
X36066667Y-93138485D02*
X36104762Y-93214676D01*
X36104762Y-93214676D02*
X36104762Y-93290866D01*
X36104762Y-93290866D02*
X36066667Y-93367057D01*
X36066667Y-93367057D02*
X36028572Y-93405152D01*
X36028572Y-93405152D02*
X35952381Y-93443247D01*
X35952381Y-93443247D02*
X35685715Y-93443247D01*
X36485715Y-93557533D02*
X37095239Y-93557533D01*
X37933334Y-93786104D02*
X37895238Y-93824200D01*
X37895238Y-93824200D02*
X37780953Y-93862295D01*
X37780953Y-93862295D02*
X37704762Y-93862295D01*
X37704762Y-93862295D02*
X37590476Y-93824200D01*
X37590476Y-93824200D02*
X37514286Y-93748009D01*
X37514286Y-93748009D02*
X37476191Y-93671819D01*
X37476191Y-93671819D02*
X37438095Y-93519438D01*
X37438095Y-93519438D02*
X37438095Y-93405152D01*
X37438095Y-93405152D02*
X37476191Y-93252771D01*
X37476191Y-93252771D02*
X37514286Y-93176580D01*
X37514286Y-93176580D02*
X37590476Y-93100390D01*
X37590476Y-93100390D02*
X37704762Y-93062295D01*
X37704762Y-93062295D02*
X37780953Y-93062295D01*
X37780953Y-93062295D02*
X37895238Y-93100390D01*
X37895238Y-93100390D02*
X37933334Y-93138485D01*
X56152381Y-84362295D02*
X56152381Y-83562295D01*
X56152381Y-83562295D02*
X56457143Y-83562295D01*
X56457143Y-83562295D02*
X56533333Y-83600390D01*
X56533333Y-83600390D02*
X56571428Y-83638485D01*
X56571428Y-83638485D02*
X56609524Y-83714676D01*
X56609524Y-83714676D02*
X56609524Y-83828961D01*
X56609524Y-83828961D02*
X56571428Y-83905152D01*
X56571428Y-83905152D02*
X56533333Y-83943247D01*
X56533333Y-83943247D02*
X56457143Y-83981342D01*
X56457143Y-83981342D02*
X56152381Y-83981342D01*
X57104762Y-83562295D02*
X57257143Y-83562295D01*
X57257143Y-83562295D02*
X57333333Y-83600390D01*
X57333333Y-83600390D02*
X57409524Y-83676580D01*
X57409524Y-83676580D02*
X57447619Y-83828961D01*
X57447619Y-83828961D02*
X57447619Y-84095628D01*
X57447619Y-84095628D02*
X57409524Y-84248009D01*
X57409524Y-84248009D02*
X57333333Y-84324200D01*
X57333333Y-84324200D02*
X57257143Y-84362295D01*
X57257143Y-84362295D02*
X57104762Y-84362295D01*
X57104762Y-84362295D02*
X57028571Y-84324200D01*
X57028571Y-84324200D02*
X56952381Y-84248009D01*
X56952381Y-84248009D02*
X56914285Y-84095628D01*
X56914285Y-84095628D02*
X56914285Y-83828961D01*
X56914285Y-83828961D02*
X56952381Y-83676580D01*
X56952381Y-83676580D02*
X57028571Y-83600390D01*
X57028571Y-83600390D02*
X57104762Y-83562295D01*
X57714285Y-83562295D02*
X57904761Y-84362295D01*
X57904761Y-84362295D02*
X58057142Y-83790866D01*
X58057142Y-83790866D02*
X58209523Y-84362295D01*
X58209523Y-84362295D02*
X58400000Y-83562295D01*
X58704762Y-83943247D02*
X58971428Y-83943247D01*
X59085714Y-84362295D02*
X58704762Y-84362295D01*
X58704762Y-84362295D02*
X58704762Y-83562295D01*
X58704762Y-83562295D02*
X59085714Y-83562295D01*
X59885715Y-84362295D02*
X59619048Y-83981342D01*
X59428572Y-84362295D02*
X59428572Y-83562295D01*
X59428572Y-83562295D02*
X59733334Y-83562295D01*
X59733334Y-83562295D02*
X59809524Y-83600390D01*
X59809524Y-83600390D02*
X59847619Y-83638485D01*
X59847619Y-83638485D02*
X59885715Y-83714676D01*
X59885715Y-83714676D02*
X59885715Y-83828961D01*
X59885715Y-83828961D02*
X59847619Y-83905152D01*
X59847619Y-83905152D02*
X59809524Y-83943247D01*
X59809524Y-83943247D02*
X59733334Y-83981342D01*
X59733334Y-83981342D02*
X59428572Y-83981342D01*
X109838095Y-86362295D02*
X109571428Y-85981342D01*
X109380952Y-86362295D02*
X109380952Y-85562295D01*
X109380952Y-85562295D02*
X109685714Y-85562295D01*
X109685714Y-85562295D02*
X109761904Y-85600390D01*
X109761904Y-85600390D02*
X109799999Y-85638485D01*
X109799999Y-85638485D02*
X109838095Y-85714676D01*
X109838095Y-85714676D02*
X109838095Y-85828961D01*
X109838095Y-85828961D02*
X109799999Y-85905152D01*
X109799999Y-85905152D02*
X109761904Y-85943247D01*
X109761904Y-85943247D02*
X109685714Y-85981342D01*
X109685714Y-85981342D02*
X109380952Y-85981342D01*
X110180952Y-85943247D02*
X110447618Y-85943247D01*
X110561904Y-86362295D02*
X110180952Y-86362295D01*
X110180952Y-86362295D02*
X110180952Y-85562295D01*
X110180952Y-85562295D02*
X110561904Y-85562295D01*
X110866666Y-86324200D02*
X110980952Y-86362295D01*
X110980952Y-86362295D02*
X111171428Y-86362295D01*
X111171428Y-86362295D02*
X111247619Y-86324200D01*
X111247619Y-86324200D02*
X111285714Y-86286104D01*
X111285714Y-86286104D02*
X111323809Y-86209914D01*
X111323809Y-86209914D02*
X111323809Y-86133723D01*
X111323809Y-86133723D02*
X111285714Y-86057533D01*
X111285714Y-86057533D02*
X111247619Y-86019438D01*
X111247619Y-86019438D02*
X111171428Y-85981342D01*
X111171428Y-85981342D02*
X111019047Y-85943247D01*
X111019047Y-85943247D02*
X110942857Y-85905152D01*
X110942857Y-85905152D02*
X110904762Y-85867057D01*
X110904762Y-85867057D02*
X110866666Y-85790866D01*
X110866666Y-85790866D02*
X110866666Y-85714676D01*
X110866666Y-85714676D02*
X110904762Y-85638485D01*
X110904762Y-85638485D02*
X110942857Y-85600390D01*
X110942857Y-85600390D02*
X111019047Y-85562295D01*
X111019047Y-85562295D02*
X111209524Y-85562295D01*
X111209524Y-85562295D02*
X111323809Y-85600390D01*
X111666667Y-85943247D02*
X111933333Y-85943247D01*
X112047619Y-86362295D02*
X111666667Y-86362295D01*
X111666667Y-86362295D02*
X111666667Y-85562295D01*
X111666667Y-85562295D02*
X112047619Y-85562295D01*
X112276191Y-85562295D02*
X112733334Y-85562295D01*
X112504762Y-86362295D02*
X112504762Y-85562295D01*
X121914285Y-85943247D02*
X122028571Y-85981342D01*
X122028571Y-85981342D02*
X122066666Y-86019438D01*
X122066666Y-86019438D02*
X122104762Y-86095628D01*
X122104762Y-86095628D02*
X122104762Y-86209914D01*
X122104762Y-86209914D02*
X122066666Y-86286104D01*
X122066666Y-86286104D02*
X122028571Y-86324200D01*
X122028571Y-86324200D02*
X121952381Y-86362295D01*
X121952381Y-86362295D02*
X121647619Y-86362295D01*
X121647619Y-86362295D02*
X121647619Y-85562295D01*
X121647619Y-85562295D02*
X121914285Y-85562295D01*
X121914285Y-85562295D02*
X121990476Y-85600390D01*
X121990476Y-85600390D02*
X122028571Y-85638485D01*
X122028571Y-85638485D02*
X122066666Y-85714676D01*
X122066666Y-85714676D02*
X122066666Y-85790866D01*
X122066666Y-85790866D02*
X122028571Y-85867057D01*
X122028571Y-85867057D02*
X121990476Y-85905152D01*
X121990476Y-85905152D02*
X121914285Y-85943247D01*
X121914285Y-85943247D02*
X121647619Y-85943247D01*
X122600000Y-85562295D02*
X122752381Y-85562295D01*
X122752381Y-85562295D02*
X122828571Y-85600390D01*
X122828571Y-85600390D02*
X122904762Y-85676580D01*
X122904762Y-85676580D02*
X122942857Y-85828961D01*
X122942857Y-85828961D02*
X122942857Y-86095628D01*
X122942857Y-86095628D02*
X122904762Y-86248009D01*
X122904762Y-86248009D02*
X122828571Y-86324200D01*
X122828571Y-86324200D02*
X122752381Y-86362295D01*
X122752381Y-86362295D02*
X122600000Y-86362295D01*
X122600000Y-86362295D02*
X122523809Y-86324200D01*
X122523809Y-86324200D02*
X122447619Y-86248009D01*
X122447619Y-86248009D02*
X122409523Y-86095628D01*
X122409523Y-86095628D02*
X122409523Y-85828961D01*
X122409523Y-85828961D02*
X122447619Y-85676580D01*
X122447619Y-85676580D02*
X122523809Y-85600390D01*
X122523809Y-85600390D02*
X122600000Y-85562295D01*
X123438095Y-85562295D02*
X123590476Y-85562295D01*
X123590476Y-85562295D02*
X123666666Y-85600390D01*
X123666666Y-85600390D02*
X123742857Y-85676580D01*
X123742857Y-85676580D02*
X123780952Y-85828961D01*
X123780952Y-85828961D02*
X123780952Y-86095628D01*
X123780952Y-86095628D02*
X123742857Y-86248009D01*
X123742857Y-86248009D02*
X123666666Y-86324200D01*
X123666666Y-86324200D02*
X123590476Y-86362295D01*
X123590476Y-86362295D02*
X123438095Y-86362295D01*
X123438095Y-86362295D02*
X123361904Y-86324200D01*
X123361904Y-86324200D02*
X123285714Y-86248009D01*
X123285714Y-86248009D02*
X123247618Y-86095628D01*
X123247618Y-86095628D02*
X123247618Y-85828961D01*
X123247618Y-85828961D02*
X123285714Y-85676580D01*
X123285714Y-85676580D02*
X123361904Y-85600390D01*
X123361904Y-85600390D02*
X123438095Y-85562295D01*
X124009523Y-85562295D02*
X124466666Y-85562295D01*
X124238094Y-86362295D02*
X124238094Y-85562295D01*
X124209524Y-34362295D02*
X123942857Y-33981342D01*
X123752381Y-34362295D02*
X123752381Y-33562295D01*
X123752381Y-33562295D02*
X124057143Y-33562295D01*
X124057143Y-33562295D02*
X124133333Y-33600390D01*
X124133333Y-33600390D02*
X124171428Y-33638485D01*
X124171428Y-33638485D02*
X124209524Y-33714676D01*
X124209524Y-33714676D02*
X124209524Y-33828961D01*
X124209524Y-33828961D02*
X124171428Y-33905152D01*
X124171428Y-33905152D02*
X124133333Y-33943247D01*
X124133333Y-33943247D02*
X124057143Y-33981342D01*
X124057143Y-33981342D02*
X123752381Y-33981342D01*
X124819047Y-33943247D02*
X124552381Y-33943247D01*
X124552381Y-34362295D02*
X124552381Y-33562295D01*
X124552381Y-33562295D02*
X124933333Y-33562295D01*
X125161904Y-33562295D02*
X125657142Y-33562295D01*
X125657142Y-33562295D02*
X125390476Y-33867057D01*
X125390476Y-33867057D02*
X125504761Y-33867057D01*
X125504761Y-33867057D02*
X125580952Y-33905152D01*
X125580952Y-33905152D02*
X125619047Y-33943247D01*
X125619047Y-33943247D02*
X125657142Y-34019438D01*
X125657142Y-34019438D02*
X125657142Y-34209914D01*
X125657142Y-34209914D02*
X125619047Y-34286104D01*
X125619047Y-34286104D02*
X125580952Y-34324200D01*
X125580952Y-34324200D02*
X125504761Y-34362295D01*
X125504761Y-34362295D02*
X125276190Y-34362295D01*
X125276190Y-34362295D02*
X125199999Y-34324200D01*
X125199999Y-34324200D02*
X125161904Y-34286104D01*
X126990476Y-33562295D02*
X126609524Y-33562295D01*
X126609524Y-33562295D02*
X126571428Y-33943247D01*
X126571428Y-33943247D02*
X126609524Y-33905152D01*
X126609524Y-33905152D02*
X126685714Y-33867057D01*
X126685714Y-33867057D02*
X126876190Y-33867057D01*
X126876190Y-33867057D02*
X126952381Y-33905152D01*
X126952381Y-33905152D02*
X126990476Y-33943247D01*
X126990476Y-33943247D02*
X127028571Y-34019438D01*
X127028571Y-34019438D02*
X127028571Y-34209914D01*
X127028571Y-34209914D02*
X126990476Y-34286104D01*
X126990476Y-34286104D02*
X126952381Y-34324200D01*
X126952381Y-34324200D02*
X126876190Y-34362295D01*
X126876190Y-34362295D02*
X126685714Y-34362295D01*
X126685714Y-34362295D02*
X126609524Y-34324200D01*
X126609524Y-34324200D02*
X126571428Y-34286104D01*
X127371429Y-34286104D02*
X127409524Y-34324200D01*
X127409524Y-34324200D02*
X127371429Y-34362295D01*
X127371429Y-34362295D02*
X127333333Y-34324200D01*
X127333333Y-34324200D02*
X127371429Y-34286104D01*
X127371429Y-34286104D02*
X127371429Y-34362295D01*
X127866666Y-33905152D02*
X127790476Y-33867057D01*
X127790476Y-33867057D02*
X127752381Y-33828961D01*
X127752381Y-33828961D02*
X127714285Y-33752771D01*
X127714285Y-33752771D02*
X127714285Y-33714676D01*
X127714285Y-33714676D02*
X127752381Y-33638485D01*
X127752381Y-33638485D02*
X127790476Y-33600390D01*
X127790476Y-33600390D02*
X127866666Y-33562295D01*
X127866666Y-33562295D02*
X128019047Y-33562295D01*
X128019047Y-33562295D02*
X128095238Y-33600390D01*
X128095238Y-33600390D02*
X128133333Y-33638485D01*
X128133333Y-33638485D02*
X128171428Y-33714676D01*
X128171428Y-33714676D02*
X128171428Y-33752771D01*
X128171428Y-33752771D02*
X128133333Y-33828961D01*
X128133333Y-33828961D02*
X128095238Y-33867057D01*
X128095238Y-33867057D02*
X128019047Y-33905152D01*
X128019047Y-33905152D02*
X127866666Y-33905152D01*
X127866666Y-33905152D02*
X127790476Y-33943247D01*
X127790476Y-33943247D02*
X127752381Y-33981342D01*
X127752381Y-33981342D02*
X127714285Y-34057533D01*
X127714285Y-34057533D02*
X127714285Y-34209914D01*
X127714285Y-34209914D02*
X127752381Y-34286104D01*
X127752381Y-34286104D02*
X127790476Y-34324200D01*
X127790476Y-34324200D02*
X127866666Y-34362295D01*
X127866666Y-34362295D02*
X128019047Y-34362295D01*
X128019047Y-34362295D02*
X128095238Y-34324200D01*
X128095238Y-34324200D02*
X128133333Y-34286104D01*
X128133333Y-34286104D02*
X128171428Y-34209914D01*
X128171428Y-34209914D02*
X128171428Y-34057533D01*
X128171428Y-34057533D02*
X128133333Y-33981342D01*
X128133333Y-33981342D02*
X128095238Y-33943247D01*
X128095238Y-33943247D02*
X128019047Y-33905152D01*
X128933333Y-33600390D02*
X128857143Y-33562295D01*
X128857143Y-33562295D02*
X128742857Y-33562295D01*
X128742857Y-33562295D02*
X128628571Y-33600390D01*
X128628571Y-33600390D02*
X128552381Y-33676580D01*
X128552381Y-33676580D02*
X128514286Y-33752771D01*
X128514286Y-33752771D02*
X128476190Y-33905152D01*
X128476190Y-33905152D02*
X128476190Y-34019438D01*
X128476190Y-34019438D02*
X128514286Y-34171819D01*
X128514286Y-34171819D02*
X128552381Y-34248009D01*
X128552381Y-34248009D02*
X128628571Y-34324200D01*
X128628571Y-34324200D02*
X128742857Y-34362295D01*
X128742857Y-34362295D02*
X128819048Y-34362295D01*
X128819048Y-34362295D02*
X128933333Y-34324200D01*
X128933333Y-34324200D02*
X128971429Y-34286104D01*
X128971429Y-34286104D02*
X128971429Y-34019438D01*
X128971429Y-34019438D02*
X128819048Y-34019438D01*
X130380953Y-34362295D02*
X130114286Y-33981342D01*
X129923810Y-34362295D02*
X129923810Y-33562295D01*
X129923810Y-33562295D02*
X130228572Y-33562295D01*
X130228572Y-33562295D02*
X130304762Y-33600390D01*
X130304762Y-33600390D02*
X130342857Y-33638485D01*
X130342857Y-33638485D02*
X130380953Y-33714676D01*
X130380953Y-33714676D02*
X130380953Y-33828961D01*
X130380953Y-33828961D02*
X130342857Y-33905152D01*
X130342857Y-33905152D02*
X130304762Y-33943247D01*
X130304762Y-33943247D02*
X130228572Y-33981342D01*
X130228572Y-33981342D02*
X129923810Y-33981342D01*
X130685714Y-34324200D02*
X130800000Y-34362295D01*
X130800000Y-34362295D02*
X130990476Y-34362295D01*
X130990476Y-34362295D02*
X131066667Y-34324200D01*
X131066667Y-34324200D02*
X131104762Y-34286104D01*
X131104762Y-34286104D02*
X131142857Y-34209914D01*
X131142857Y-34209914D02*
X131142857Y-34133723D01*
X131142857Y-34133723D02*
X131104762Y-34057533D01*
X131104762Y-34057533D02*
X131066667Y-34019438D01*
X131066667Y-34019438D02*
X130990476Y-33981342D01*
X130990476Y-33981342D02*
X130838095Y-33943247D01*
X130838095Y-33943247D02*
X130761905Y-33905152D01*
X130761905Y-33905152D02*
X130723810Y-33867057D01*
X130723810Y-33867057D02*
X130685714Y-33790866D01*
X130685714Y-33790866D02*
X130685714Y-33714676D01*
X130685714Y-33714676D02*
X130723810Y-33638485D01*
X130723810Y-33638485D02*
X130761905Y-33600390D01*
X130761905Y-33600390D02*
X130838095Y-33562295D01*
X130838095Y-33562295D02*
X131028572Y-33562295D01*
X131028572Y-33562295D02*
X131142857Y-33600390D01*
X131447619Y-34324200D02*
X131561905Y-34362295D01*
X131561905Y-34362295D02*
X131752381Y-34362295D01*
X131752381Y-34362295D02*
X131828572Y-34324200D01*
X131828572Y-34324200D02*
X131866667Y-34286104D01*
X131866667Y-34286104D02*
X131904762Y-34209914D01*
X131904762Y-34209914D02*
X131904762Y-34133723D01*
X131904762Y-34133723D02*
X131866667Y-34057533D01*
X131866667Y-34057533D02*
X131828572Y-34019438D01*
X131828572Y-34019438D02*
X131752381Y-33981342D01*
X131752381Y-33981342D02*
X131600000Y-33943247D01*
X131600000Y-33943247D02*
X131523810Y-33905152D01*
X131523810Y-33905152D02*
X131485715Y-33867057D01*
X131485715Y-33867057D02*
X131447619Y-33790866D01*
X131447619Y-33790866D02*
X131447619Y-33714676D01*
X131447619Y-33714676D02*
X131485715Y-33638485D01*
X131485715Y-33638485D02*
X131523810Y-33600390D01*
X131523810Y-33600390D02*
X131600000Y-33562295D01*
X131600000Y-33562295D02*
X131790477Y-33562295D01*
X131790477Y-33562295D02*
X131904762Y-33600390D01*
X132247620Y-34362295D02*
X132247620Y-33562295D01*
X128209524Y-29362295D02*
X127942857Y-28981342D01*
X127752381Y-29362295D02*
X127752381Y-28562295D01*
X127752381Y-28562295D02*
X128057143Y-28562295D01*
X128057143Y-28562295D02*
X128133333Y-28600390D01*
X128133333Y-28600390D02*
X128171428Y-28638485D01*
X128171428Y-28638485D02*
X128209524Y-28714676D01*
X128209524Y-28714676D02*
X128209524Y-28828961D01*
X128209524Y-28828961D02*
X128171428Y-28905152D01*
X128171428Y-28905152D02*
X128133333Y-28943247D01*
X128133333Y-28943247D02*
X128057143Y-28981342D01*
X128057143Y-28981342D02*
X127752381Y-28981342D01*
X128819047Y-28943247D02*
X128552381Y-28943247D01*
X128552381Y-29362295D02*
X128552381Y-28562295D01*
X128552381Y-28562295D02*
X128933333Y-28562295D01*
X129657142Y-29362295D02*
X129199999Y-29362295D01*
X129428571Y-29362295D02*
X129428571Y-28562295D01*
X129428571Y-28562295D02*
X129352380Y-28676580D01*
X129352380Y-28676580D02*
X129276190Y-28752771D01*
X129276190Y-28752771D02*
X129199999Y-28790866D01*
X130571428Y-28638485D02*
X130609524Y-28600390D01*
X130609524Y-28600390D02*
X130685714Y-28562295D01*
X130685714Y-28562295D02*
X130876190Y-28562295D01*
X130876190Y-28562295D02*
X130952381Y-28600390D01*
X130952381Y-28600390D02*
X130990476Y-28638485D01*
X130990476Y-28638485D02*
X131028571Y-28714676D01*
X131028571Y-28714676D02*
X131028571Y-28790866D01*
X131028571Y-28790866D02*
X130990476Y-28905152D01*
X130990476Y-28905152D02*
X130533333Y-29362295D01*
X130533333Y-29362295D02*
X131028571Y-29362295D01*
X131371429Y-29286104D02*
X131409524Y-29324200D01*
X131409524Y-29324200D02*
X131371429Y-29362295D01*
X131371429Y-29362295D02*
X131333333Y-29324200D01*
X131333333Y-29324200D02*
X131371429Y-29286104D01*
X131371429Y-29286104D02*
X131371429Y-29362295D01*
X132095238Y-28828961D02*
X132095238Y-29362295D01*
X131904762Y-28524200D02*
X131714285Y-29095628D01*
X131714285Y-29095628D02*
X132209524Y-29095628D01*
X132933333Y-28600390D02*
X132857143Y-28562295D01*
X132857143Y-28562295D02*
X132742857Y-28562295D01*
X132742857Y-28562295D02*
X132628571Y-28600390D01*
X132628571Y-28600390D02*
X132552381Y-28676580D01*
X132552381Y-28676580D02*
X132514286Y-28752771D01*
X132514286Y-28752771D02*
X132476190Y-28905152D01*
X132476190Y-28905152D02*
X132476190Y-29019438D01*
X132476190Y-29019438D02*
X132514286Y-29171819D01*
X132514286Y-29171819D02*
X132552381Y-29248009D01*
X132552381Y-29248009D02*
X132628571Y-29324200D01*
X132628571Y-29324200D02*
X132742857Y-29362295D01*
X132742857Y-29362295D02*
X132819048Y-29362295D01*
X132819048Y-29362295D02*
X132933333Y-29324200D01*
X132933333Y-29324200D02*
X132971429Y-29286104D01*
X132971429Y-29286104D02*
X132971429Y-29019438D01*
X132971429Y-29019438D02*
X132819048Y-29019438D01*
X134380953Y-29362295D02*
X134114286Y-28981342D01*
X133923810Y-29362295D02*
X133923810Y-28562295D01*
X133923810Y-28562295D02*
X134228572Y-28562295D01*
X134228572Y-28562295D02*
X134304762Y-28600390D01*
X134304762Y-28600390D02*
X134342857Y-28638485D01*
X134342857Y-28638485D02*
X134380953Y-28714676D01*
X134380953Y-28714676D02*
X134380953Y-28828961D01*
X134380953Y-28828961D02*
X134342857Y-28905152D01*
X134342857Y-28905152D02*
X134304762Y-28943247D01*
X134304762Y-28943247D02*
X134228572Y-28981342D01*
X134228572Y-28981342D02*
X133923810Y-28981342D01*
X134685714Y-29324200D02*
X134800000Y-29362295D01*
X134800000Y-29362295D02*
X134990476Y-29362295D01*
X134990476Y-29362295D02*
X135066667Y-29324200D01*
X135066667Y-29324200D02*
X135104762Y-29286104D01*
X135104762Y-29286104D02*
X135142857Y-29209914D01*
X135142857Y-29209914D02*
X135142857Y-29133723D01*
X135142857Y-29133723D02*
X135104762Y-29057533D01*
X135104762Y-29057533D02*
X135066667Y-29019438D01*
X135066667Y-29019438D02*
X134990476Y-28981342D01*
X134990476Y-28981342D02*
X134838095Y-28943247D01*
X134838095Y-28943247D02*
X134761905Y-28905152D01*
X134761905Y-28905152D02*
X134723810Y-28867057D01*
X134723810Y-28867057D02*
X134685714Y-28790866D01*
X134685714Y-28790866D02*
X134685714Y-28714676D01*
X134685714Y-28714676D02*
X134723810Y-28638485D01*
X134723810Y-28638485D02*
X134761905Y-28600390D01*
X134761905Y-28600390D02*
X134838095Y-28562295D01*
X134838095Y-28562295D02*
X135028572Y-28562295D01*
X135028572Y-28562295D02*
X135142857Y-28600390D01*
X135447619Y-29324200D02*
X135561905Y-29362295D01*
X135561905Y-29362295D02*
X135752381Y-29362295D01*
X135752381Y-29362295D02*
X135828572Y-29324200D01*
X135828572Y-29324200D02*
X135866667Y-29286104D01*
X135866667Y-29286104D02*
X135904762Y-29209914D01*
X135904762Y-29209914D02*
X135904762Y-29133723D01*
X135904762Y-29133723D02*
X135866667Y-29057533D01*
X135866667Y-29057533D02*
X135828572Y-29019438D01*
X135828572Y-29019438D02*
X135752381Y-28981342D01*
X135752381Y-28981342D02*
X135600000Y-28943247D01*
X135600000Y-28943247D02*
X135523810Y-28905152D01*
X135523810Y-28905152D02*
X135485715Y-28867057D01*
X135485715Y-28867057D02*
X135447619Y-28790866D01*
X135447619Y-28790866D02*
X135447619Y-28714676D01*
X135447619Y-28714676D02*
X135485715Y-28638485D01*
X135485715Y-28638485D02*
X135523810Y-28600390D01*
X135523810Y-28600390D02*
X135600000Y-28562295D01*
X135600000Y-28562295D02*
X135790477Y-28562295D01*
X135790477Y-28562295D02*
X135904762Y-28600390D01*
X136247620Y-29362295D02*
X136247620Y-28562295D01*
X133628571Y-85562295D02*
X133628571Y-86209914D01*
X133628571Y-86209914D02*
X133666666Y-86286104D01*
X133666666Y-86286104D02*
X133704761Y-86324200D01*
X133704761Y-86324200D02*
X133780952Y-86362295D01*
X133780952Y-86362295D02*
X133933333Y-86362295D01*
X133933333Y-86362295D02*
X134009523Y-86324200D01*
X134009523Y-86324200D02*
X134047618Y-86286104D01*
X134047618Y-86286104D02*
X134085714Y-86209914D01*
X134085714Y-86209914D02*
X134085714Y-85562295D01*
X134428570Y-86324200D02*
X134542856Y-86362295D01*
X134542856Y-86362295D02*
X134733332Y-86362295D01*
X134733332Y-86362295D02*
X134809523Y-86324200D01*
X134809523Y-86324200D02*
X134847618Y-86286104D01*
X134847618Y-86286104D02*
X134885713Y-86209914D01*
X134885713Y-86209914D02*
X134885713Y-86133723D01*
X134885713Y-86133723D02*
X134847618Y-86057533D01*
X134847618Y-86057533D02*
X134809523Y-86019438D01*
X134809523Y-86019438D02*
X134733332Y-85981342D01*
X134733332Y-85981342D02*
X134580951Y-85943247D01*
X134580951Y-85943247D02*
X134504761Y-85905152D01*
X134504761Y-85905152D02*
X134466666Y-85867057D01*
X134466666Y-85867057D02*
X134428570Y-85790866D01*
X134428570Y-85790866D02*
X134428570Y-85714676D01*
X134428570Y-85714676D02*
X134466666Y-85638485D01*
X134466666Y-85638485D02*
X134504761Y-85600390D01*
X134504761Y-85600390D02*
X134580951Y-85562295D01*
X134580951Y-85562295D02*
X134771428Y-85562295D01*
X134771428Y-85562295D02*
X134885713Y-85600390D01*
X135228571Y-85943247D02*
X135495237Y-85943247D01*
X135609523Y-86362295D02*
X135228571Y-86362295D01*
X135228571Y-86362295D02*
X135228571Y-85562295D01*
X135228571Y-85562295D02*
X135609523Y-85562295D01*
X136409524Y-86362295D02*
X136142857Y-85981342D01*
X135952381Y-86362295D02*
X135952381Y-85562295D01*
X135952381Y-85562295D02*
X136257143Y-85562295D01*
X136257143Y-85562295D02*
X136333333Y-85600390D01*
X136333333Y-85600390D02*
X136371428Y-85638485D01*
X136371428Y-85638485D02*
X136409524Y-85714676D01*
X136409524Y-85714676D02*
X136409524Y-85828961D01*
X136409524Y-85828961D02*
X136371428Y-85905152D01*
X136371428Y-85905152D02*
X136333333Y-85943247D01*
X136333333Y-85943247D02*
X136257143Y-85981342D01*
X136257143Y-85981342D02*
X135952381Y-85981342D01*
X141076190Y-32562295D02*
X141076190Y-33133723D01*
X141076190Y-33133723D02*
X141038095Y-33248009D01*
X141038095Y-33248009D02*
X140961904Y-33324200D01*
X140961904Y-33324200D02*
X140847619Y-33362295D01*
X140847619Y-33362295D02*
X140771428Y-33362295D01*
X141380952Y-32562295D02*
X141914286Y-32562295D01*
X141914286Y-32562295D02*
X141571428Y-33362295D01*
X143209524Y-32562295D02*
X142828572Y-32562295D01*
X142828572Y-32562295D02*
X142790476Y-32943247D01*
X142790476Y-32943247D02*
X142828572Y-32905152D01*
X142828572Y-32905152D02*
X142904762Y-32867057D01*
X142904762Y-32867057D02*
X143095238Y-32867057D01*
X143095238Y-32867057D02*
X143171429Y-32905152D01*
X143171429Y-32905152D02*
X143209524Y-32943247D01*
X143209524Y-32943247D02*
X143247619Y-33019438D01*
X143247619Y-33019438D02*
X143247619Y-33209914D01*
X143247619Y-33209914D02*
X143209524Y-33286104D01*
X143209524Y-33286104D02*
X143171429Y-33324200D01*
X143171429Y-33324200D02*
X143095238Y-33362295D01*
X143095238Y-33362295D02*
X142904762Y-33362295D01*
X142904762Y-33362295D02*
X142828572Y-33324200D01*
X142828572Y-33324200D02*
X142790476Y-33286104D01*
X143590477Y-33286104D02*
X143628572Y-33324200D01*
X143628572Y-33324200D02*
X143590477Y-33362295D01*
X143590477Y-33362295D02*
X143552381Y-33324200D01*
X143552381Y-33324200D02*
X143590477Y-33286104D01*
X143590477Y-33286104D02*
X143590477Y-33362295D01*
X144085714Y-32905152D02*
X144009524Y-32867057D01*
X144009524Y-32867057D02*
X143971429Y-32828961D01*
X143971429Y-32828961D02*
X143933333Y-32752771D01*
X143933333Y-32752771D02*
X143933333Y-32714676D01*
X143933333Y-32714676D02*
X143971429Y-32638485D01*
X143971429Y-32638485D02*
X144009524Y-32600390D01*
X144009524Y-32600390D02*
X144085714Y-32562295D01*
X144085714Y-32562295D02*
X144238095Y-32562295D01*
X144238095Y-32562295D02*
X144314286Y-32600390D01*
X144314286Y-32600390D02*
X144352381Y-32638485D01*
X144352381Y-32638485D02*
X144390476Y-32714676D01*
X144390476Y-32714676D02*
X144390476Y-32752771D01*
X144390476Y-32752771D02*
X144352381Y-32828961D01*
X144352381Y-32828961D02*
X144314286Y-32867057D01*
X144314286Y-32867057D02*
X144238095Y-32905152D01*
X144238095Y-32905152D02*
X144085714Y-32905152D01*
X144085714Y-32905152D02*
X144009524Y-32943247D01*
X144009524Y-32943247D02*
X143971429Y-32981342D01*
X143971429Y-32981342D02*
X143933333Y-33057533D01*
X143933333Y-33057533D02*
X143933333Y-33209914D01*
X143933333Y-33209914D02*
X143971429Y-33286104D01*
X143971429Y-33286104D02*
X144009524Y-33324200D01*
X144009524Y-33324200D02*
X144085714Y-33362295D01*
X144085714Y-33362295D02*
X144238095Y-33362295D01*
X144238095Y-33362295D02*
X144314286Y-33324200D01*
X144314286Y-33324200D02*
X144352381Y-33286104D01*
X144352381Y-33286104D02*
X144390476Y-33209914D01*
X144390476Y-33209914D02*
X144390476Y-33057533D01*
X144390476Y-33057533D02*
X144352381Y-32981342D01*
X144352381Y-32981342D02*
X144314286Y-32943247D01*
X144314286Y-32943247D02*
X144238095Y-32905152D01*
X145152381Y-32600390D02*
X145076191Y-32562295D01*
X145076191Y-32562295D02*
X144961905Y-32562295D01*
X144961905Y-32562295D02*
X144847619Y-32600390D01*
X144847619Y-32600390D02*
X144771429Y-32676580D01*
X144771429Y-32676580D02*
X144733334Y-32752771D01*
X144733334Y-32752771D02*
X144695238Y-32905152D01*
X144695238Y-32905152D02*
X144695238Y-33019438D01*
X144695238Y-33019438D02*
X144733334Y-33171819D01*
X144733334Y-33171819D02*
X144771429Y-33248009D01*
X144771429Y-33248009D02*
X144847619Y-33324200D01*
X144847619Y-33324200D02*
X144961905Y-33362295D01*
X144961905Y-33362295D02*
X145038096Y-33362295D01*
X145038096Y-33362295D02*
X145152381Y-33324200D01*
X145152381Y-33324200D02*
X145190477Y-33286104D01*
X145190477Y-33286104D02*
X145190477Y-33019438D01*
X145190477Y-33019438D02*
X145038096Y-33019438D01*
X143647618Y-61562295D02*
X143647618Y-62133723D01*
X143647618Y-62133723D02*
X143609523Y-62248009D01*
X143609523Y-62248009D02*
X143533332Y-62324200D01*
X143533332Y-62324200D02*
X143419047Y-62362295D01*
X143419047Y-62362295D02*
X143342856Y-62362295D01*
X143990475Y-61638485D02*
X144028571Y-61600390D01*
X144028571Y-61600390D02*
X144104761Y-61562295D01*
X144104761Y-61562295D02*
X144295237Y-61562295D01*
X144295237Y-61562295D02*
X144371428Y-61600390D01*
X144371428Y-61600390D02*
X144409523Y-61638485D01*
X144409523Y-61638485D02*
X144447618Y-61714676D01*
X144447618Y-61714676D02*
X144447618Y-61790866D01*
X144447618Y-61790866D02*
X144409523Y-61905152D01*
X144409523Y-61905152D02*
X143952380Y-62362295D01*
X143952380Y-62362295D02*
X144447618Y-62362295D01*
X145361904Y-62324200D02*
X145476190Y-62362295D01*
X145476190Y-62362295D02*
X145666666Y-62362295D01*
X145666666Y-62362295D02*
X145742857Y-62324200D01*
X145742857Y-62324200D02*
X145780952Y-62286104D01*
X145780952Y-62286104D02*
X145819047Y-62209914D01*
X145819047Y-62209914D02*
X145819047Y-62133723D01*
X145819047Y-62133723D02*
X145780952Y-62057533D01*
X145780952Y-62057533D02*
X145742857Y-62019438D01*
X145742857Y-62019438D02*
X145666666Y-61981342D01*
X145666666Y-61981342D02*
X145514285Y-61943247D01*
X145514285Y-61943247D02*
X145438095Y-61905152D01*
X145438095Y-61905152D02*
X145400000Y-61867057D01*
X145400000Y-61867057D02*
X145361904Y-61790866D01*
X145361904Y-61790866D02*
X145361904Y-61714676D01*
X145361904Y-61714676D02*
X145400000Y-61638485D01*
X145400000Y-61638485D02*
X145438095Y-61600390D01*
X145438095Y-61600390D02*
X145514285Y-61562295D01*
X145514285Y-61562295D02*
X145704762Y-61562295D01*
X145704762Y-61562295D02*
X145819047Y-61600390D01*
X146161905Y-62362295D02*
X146161905Y-61562295D01*
X146161905Y-61562295D02*
X146352381Y-61562295D01*
X146352381Y-61562295D02*
X146466667Y-61600390D01*
X146466667Y-61600390D02*
X146542857Y-61676580D01*
X146542857Y-61676580D02*
X146580952Y-61752771D01*
X146580952Y-61752771D02*
X146619048Y-61905152D01*
X146619048Y-61905152D02*
X146619048Y-62019438D01*
X146619048Y-62019438D02*
X146580952Y-62171819D01*
X146580952Y-62171819D02*
X146542857Y-62248009D01*
X146542857Y-62248009D02*
X146466667Y-62324200D01*
X146466667Y-62324200D02*
X146352381Y-62362295D01*
X146352381Y-62362295D02*
X146161905Y-62362295D01*
X68057143Y-5408557D02*
X68057143Y-4508557D01*
X68057143Y-4508557D02*
X68400000Y-4508557D01*
X68400000Y-4508557D02*
X68485715Y-4551414D01*
X68485715Y-4551414D02*
X68528572Y-4594271D01*
X68528572Y-4594271D02*
X68571429Y-4679985D01*
X68571429Y-4679985D02*
X68571429Y-4808557D01*
X68571429Y-4808557D02*
X68528572Y-4894271D01*
X68528572Y-4894271D02*
X68485715Y-4937128D01*
X68485715Y-4937128D02*
X68400000Y-4979985D01*
X68400000Y-4979985D02*
X68057143Y-4979985D01*
X68914286Y-5151414D02*
X69342858Y-5151414D01*
X68828572Y-5408557D02*
X69128572Y-4508557D01*
X69128572Y-4508557D02*
X69428572Y-5408557D01*
X69685715Y-5365700D02*
X69814287Y-5408557D01*
X69814287Y-5408557D02*
X70028572Y-5408557D01*
X70028572Y-5408557D02*
X70114287Y-5365700D01*
X70114287Y-5365700D02*
X70157144Y-5322842D01*
X70157144Y-5322842D02*
X70200001Y-5237128D01*
X70200001Y-5237128D02*
X70200001Y-5151414D01*
X70200001Y-5151414D02*
X70157144Y-5065700D01*
X70157144Y-5065700D02*
X70114287Y-5022842D01*
X70114287Y-5022842D02*
X70028572Y-4979985D01*
X70028572Y-4979985D02*
X69857144Y-4937128D01*
X69857144Y-4937128D02*
X69771429Y-4894271D01*
X69771429Y-4894271D02*
X69728572Y-4851414D01*
X69728572Y-4851414D02*
X69685715Y-4765700D01*
X69685715Y-4765700D02*
X69685715Y-4679985D01*
X69685715Y-4679985D02*
X69728572Y-4594271D01*
X69728572Y-4594271D02*
X69771429Y-4551414D01*
X69771429Y-4551414D02*
X69857144Y-4508557D01*
X69857144Y-4508557D02*
X70071429Y-4508557D01*
X70071429Y-4508557D02*
X70200001Y-4551414D01*
X70542858Y-5365700D02*
X70671430Y-5408557D01*
X70671430Y-5408557D02*
X70885715Y-5408557D01*
X70885715Y-5408557D02*
X70971430Y-5365700D01*
X70971430Y-5365700D02*
X71014287Y-5322842D01*
X71014287Y-5322842D02*
X71057144Y-5237128D01*
X71057144Y-5237128D02*
X71057144Y-5151414D01*
X71057144Y-5151414D02*
X71014287Y-5065700D01*
X71014287Y-5065700D02*
X70971430Y-5022842D01*
X70971430Y-5022842D02*
X70885715Y-4979985D01*
X70885715Y-4979985D02*
X70714287Y-4937128D01*
X70714287Y-4937128D02*
X70628572Y-4894271D01*
X70628572Y-4894271D02*
X70585715Y-4851414D01*
X70585715Y-4851414D02*
X70542858Y-4765700D01*
X70542858Y-4765700D02*
X70542858Y-4679985D01*
X70542858Y-4679985D02*
X70585715Y-4594271D01*
X70585715Y-4594271D02*
X70628572Y-4551414D01*
X70628572Y-4551414D02*
X70714287Y-4508557D01*
X70714287Y-4508557D02*
X70928572Y-4508557D01*
X70928572Y-4508557D02*
X71057144Y-4551414D01*
X71442858Y-5408557D02*
X71442858Y-4508557D01*
X71742858Y-4508557D02*
X72042858Y-5408557D01*
X72042858Y-5408557D02*
X72342858Y-4508557D01*
X72642858Y-4937128D02*
X72942858Y-4937128D01*
X73071430Y-5408557D02*
X72642858Y-5408557D01*
X72642858Y-5408557D02*
X72642858Y-4508557D01*
X72642858Y-4508557D02*
X73071430Y-4508557D01*
X74657144Y-5408557D02*
X74357144Y-4979985D01*
X74142858Y-5408557D02*
X74142858Y-4508557D01*
X74142858Y-4508557D02*
X74485715Y-4508557D01*
X74485715Y-4508557D02*
X74571430Y-4551414D01*
X74571430Y-4551414D02*
X74614287Y-4594271D01*
X74614287Y-4594271D02*
X74657144Y-4679985D01*
X74657144Y-4679985D02*
X74657144Y-4808557D01*
X74657144Y-4808557D02*
X74614287Y-4894271D01*
X74614287Y-4894271D02*
X74571430Y-4937128D01*
X74571430Y-4937128D02*
X74485715Y-4979985D01*
X74485715Y-4979985D02*
X74142858Y-4979985D01*
X75342858Y-4937128D02*
X75042858Y-4937128D01*
X75042858Y-5408557D02*
X75042858Y-4508557D01*
X75042858Y-4508557D02*
X75471430Y-4508557D01*
X76500001Y-5408557D02*
X76500001Y-4508557D01*
X76500001Y-4508557D02*
X76800001Y-5151414D01*
X76800001Y-5151414D02*
X77100001Y-4508557D01*
X77100001Y-4508557D02*
X77100001Y-5408557D01*
X77700001Y-4508557D02*
X77871429Y-4508557D01*
X77871429Y-4508557D02*
X77957144Y-4551414D01*
X77957144Y-4551414D02*
X78042858Y-4637128D01*
X78042858Y-4637128D02*
X78085715Y-4808557D01*
X78085715Y-4808557D02*
X78085715Y-5108557D01*
X78085715Y-5108557D02*
X78042858Y-5279985D01*
X78042858Y-5279985D02*
X77957144Y-5365700D01*
X77957144Y-5365700D02*
X77871429Y-5408557D01*
X77871429Y-5408557D02*
X77700001Y-5408557D01*
X77700001Y-5408557D02*
X77614287Y-5365700D01*
X77614287Y-5365700D02*
X77528572Y-5279985D01*
X77528572Y-5279985D02*
X77485715Y-5108557D01*
X77485715Y-5108557D02*
X77485715Y-4808557D01*
X77485715Y-4808557D02*
X77528572Y-4637128D01*
X77528572Y-4637128D02*
X77614287Y-4551414D01*
X77614287Y-4551414D02*
X77700001Y-4508557D01*
X78471429Y-5408557D02*
X78471429Y-4508557D01*
X78471429Y-4508557D02*
X78985715Y-5408557D01*
X78985715Y-5408557D02*
X78985715Y-4508557D01*
X79414286Y-5408557D02*
X79414286Y-4508557D01*
X79714286Y-4508557D02*
X80228572Y-4508557D01*
X79971429Y-5408557D02*
X79971429Y-4508557D01*
X80700000Y-4508557D02*
X80871428Y-4508557D01*
X80871428Y-4508557D02*
X80957143Y-4551414D01*
X80957143Y-4551414D02*
X81042857Y-4637128D01*
X81042857Y-4637128D02*
X81085714Y-4808557D01*
X81085714Y-4808557D02*
X81085714Y-5108557D01*
X81085714Y-5108557D02*
X81042857Y-5279985D01*
X81042857Y-5279985D02*
X80957143Y-5365700D01*
X80957143Y-5365700D02*
X80871428Y-5408557D01*
X80871428Y-5408557D02*
X80700000Y-5408557D01*
X80700000Y-5408557D02*
X80614286Y-5365700D01*
X80614286Y-5365700D02*
X80528571Y-5279985D01*
X80528571Y-5279985D02*
X80485714Y-5108557D01*
X80485714Y-5108557D02*
X80485714Y-4808557D01*
X80485714Y-4808557D02*
X80528571Y-4637128D01*
X80528571Y-4637128D02*
X80614286Y-4551414D01*
X80614286Y-4551414D02*
X80700000Y-4508557D01*
X81985714Y-5408557D02*
X81685714Y-4979985D01*
X81471428Y-5408557D02*
X81471428Y-4508557D01*
X81471428Y-4508557D02*
X81814285Y-4508557D01*
X81814285Y-4508557D02*
X81900000Y-4551414D01*
X81900000Y-4551414D02*
X81942857Y-4594271D01*
X81942857Y-4594271D02*
X81985714Y-4679985D01*
X81985714Y-4679985D02*
X81985714Y-4808557D01*
X81985714Y-4808557D02*
X81942857Y-4894271D01*
X81942857Y-4894271D02*
X81900000Y-4937128D01*
X81900000Y-4937128D02*
X81814285Y-4979985D01*
X81814285Y-4979985D02*
X81471428Y-4979985D01*
X62357142Y-3454819D02*
X62357142Y-2454819D01*
X62357142Y-2454819D02*
X62738094Y-2454819D01*
X62738094Y-2454819D02*
X62833332Y-2502438D01*
X62833332Y-2502438D02*
X62880951Y-2550057D01*
X62880951Y-2550057D02*
X62928570Y-2645295D01*
X62928570Y-2645295D02*
X62928570Y-2788152D01*
X62928570Y-2788152D02*
X62880951Y-2883390D01*
X62880951Y-2883390D02*
X62833332Y-2931009D01*
X62833332Y-2931009D02*
X62738094Y-2978628D01*
X62738094Y-2978628D02*
X62357142Y-2978628D01*
X63928570Y-3454819D02*
X63595237Y-2978628D01*
X63357142Y-3454819D02*
X63357142Y-2454819D01*
X63357142Y-2454819D02*
X63738094Y-2454819D01*
X63738094Y-2454819D02*
X63833332Y-2502438D01*
X63833332Y-2502438D02*
X63880951Y-2550057D01*
X63880951Y-2550057D02*
X63928570Y-2645295D01*
X63928570Y-2645295D02*
X63928570Y-2788152D01*
X63928570Y-2788152D02*
X63880951Y-2883390D01*
X63880951Y-2883390D02*
X63833332Y-2931009D01*
X63833332Y-2931009D02*
X63738094Y-2978628D01*
X63738094Y-2978628D02*
X63357142Y-2978628D01*
X64547618Y-2454819D02*
X64738094Y-2454819D01*
X64738094Y-2454819D02*
X64833332Y-2502438D01*
X64833332Y-2502438D02*
X64928570Y-2597676D01*
X64928570Y-2597676D02*
X64976189Y-2788152D01*
X64976189Y-2788152D02*
X64976189Y-3121485D01*
X64976189Y-3121485D02*
X64928570Y-3311961D01*
X64928570Y-3311961D02*
X64833332Y-3407200D01*
X64833332Y-3407200D02*
X64738094Y-3454819D01*
X64738094Y-3454819D02*
X64547618Y-3454819D01*
X64547618Y-3454819D02*
X64452380Y-3407200D01*
X64452380Y-3407200D02*
X64357142Y-3311961D01*
X64357142Y-3311961D02*
X64309523Y-3121485D01*
X64309523Y-3121485D02*
X64309523Y-2788152D01*
X64309523Y-2788152D02*
X64357142Y-2597676D01*
X64357142Y-2597676D02*
X64452380Y-2502438D01*
X64452380Y-2502438D02*
X64547618Y-2454819D01*
X65261904Y-2454819D02*
X65833332Y-2454819D01*
X65547618Y-3454819D02*
X65547618Y-2454819D01*
X66357142Y-2454819D02*
X66547618Y-2454819D01*
X66547618Y-2454819D02*
X66642856Y-2502438D01*
X66642856Y-2502438D02*
X66738094Y-2597676D01*
X66738094Y-2597676D02*
X66785713Y-2788152D01*
X66785713Y-2788152D02*
X66785713Y-3121485D01*
X66785713Y-3121485D02*
X66738094Y-3311961D01*
X66738094Y-3311961D02*
X66642856Y-3407200D01*
X66642856Y-3407200D02*
X66547618Y-3454819D01*
X66547618Y-3454819D02*
X66357142Y-3454819D01*
X66357142Y-3454819D02*
X66261904Y-3407200D01*
X66261904Y-3407200D02*
X66166666Y-3311961D01*
X66166666Y-3311961D02*
X66119047Y-3121485D01*
X66119047Y-3121485D02*
X66119047Y-2788152D01*
X66119047Y-2788152D02*
X66166666Y-2597676D01*
X66166666Y-2597676D02*
X66261904Y-2502438D01*
X66261904Y-2502438D02*
X66357142Y-2454819D01*
X67071428Y-2454819D02*
X67642856Y-2454819D01*
X67357142Y-3454819D02*
X67357142Y-2454819D01*
X68166666Y-2978628D02*
X68166666Y-3454819D01*
X67833333Y-2454819D02*
X68166666Y-2978628D01*
X68166666Y-2978628D02*
X68499999Y-2454819D01*
X68833333Y-3454819D02*
X68833333Y-2454819D01*
X68833333Y-2454819D02*
X69214285Y-2454819D01*
X69214285Y-2454819D02*
X69309523Y-2502438D01*
X69309523Y-2502438D02*
X69357142Y-2550057D01*
X69357142Y-2550057D02*
X69404761Y-2645295D01*
X69404761Y-2645295D02*
X69404761Y-2788152D01*
X69404761Y-2788152D02*
X69357142Y-2883390D01*
X69357142Y-2883390D02*
X69309523Y-2931009D01*
X69309523Y-2931009D02*
X69214285Y-2978628D01*
X69214285Y-2978628D02*
X68833333Y-2978628D01*
X69833333Y-2931009D02*
X70166666Y-2931009D01*
X70309523Y-3454819D02*
X69833333Y-3454819D01*
X69833333Y-3454819D02*
X69833333Y-2454819D01*
X69833333Y-2454819D02*
X70309523Y-2454819D01*
X72071428Y-3359580D02*
X72023809Y-3407200D01*
X72023809Y-3407200D02*
X71880952Y-3454819D01*
X71880952Y-3454819D02*
X71785714Y-3454819D01*
X71785714Y-3454819D02*
X71642857Y-3407200D01*
X71642857Y-3407200D02*
X71547619Y-3311961D01*
X71547619Y-3311961D02*
X71500000Y-3216723D01*
X71500000Y-3216723D02*
X71452381Y-3026247D01*
X71452381Y-3026247D02*
X71452381Y-2883390D01*
X71452381Y-2883390D02*
X71500000Y-2692914D01*
X71500000Y-2692914D02*
X71547619Y-2597676D01*
X71547619Y-2597676D02*
X71642857Y-2502438D01*
X71642857Y-2502438D02*
X71785714Y-2454819D01*
X71785714Y-2454819D02*
X71880952Y-2454819D01*
X71880952Y-2454819D02*
X72023809Y-2502438D01*
X72023809Y-2502438D02*
X72071428Y-2550057D01*
X73976190Y-2407200D02*
X73119048Y-3692914D01*
X75071429Y-3454819D02*
X75071429Y-2454819D01*
X75071429Y-2454819D02*
X75642857Y-3454819D01*
X75642857Y-3454819D02*
X75642857Y-2454819D01*
X76309524Y-2454819D02*
X76500000Y-2454819D01*
X76500000Y-2454819D02*
X76595238Y-2502438D01*
X76595238Y-2502438D02*
X76690476Y-2597676D01*
X76690476Y-2597676D02*
X76738095Y-2788152D01*
X76738095Y-2788152D02*
X76738095Y-3121485D01*
X76738095Y-3121485D02*
X76690476Y-3311961D01*
X76690476Y-3311961D02*
X76595238Y-3407200D01*
X76595238Y-3407200D02*
X76500000Y-3454819D01*
X76500000Y-3454819D02*
X76309524Y-3454819D01*
X76309524Y-3454819D02*
X76214286Y-3407200D01*
X76214286Y-3407200D02*
X76119048Y-3311961D01*
X76119048Y-3311961D02*
X76071429Y-3121485D01*
X76071429Y-3121485D02*
X76071429Y-2788152D01*
X76071429Y-2788152D02*
X76119048Y-2597676D01*
X76119048Y-2597676D02*
X76214286Y-2502438D01*
X76214286Y-2502438D02*
X76309524Y-2454819D01*
X77023810Y-2454819D02*
X77595238Y-2454819D01*
X77309524Y-3454819D02*
X77309524Y-2454819D01*
X78690477Y-3454819D02*
X78690477Y-2454819D01*
X78690477Y-2454819D02*
X79071429Y-2454819D01*
X79071429Y-2454819D02*
X79166667Y-2502438D01*
X79166667Y-2502438D02*
X79214286Y-2550057D01*
X79214286Y-2550057D02*
X79261905Y-2645295D01*
X79261905Y-2645295D02*
X79261905Y-2788152D01*
X79261905Y-2788152D02*
X79214286Y-2883390D01*
X79214286Y-2883390D02*
X79166667Y-2931009D01*
X79166667Y-2931009D02*
X79071429Y-2978628D01*
X79071429Y-2978628D02*
X78690477Y-2978628D01*
X80261905Y-3454819D02*
X79928572Y-2978628D01*
X79690477Y-3454819D02*
X79690477Y-2454819D01*
X79690477Y-2454819D02*
X80071429Y-2454819D01*
X80071429Y-2454819D02*
X80166667Y-2502438D01*
X80166667Y-2502438D02*
X80214286Y-2550057D01*
X80214286Y-2550057D02*
X80261905Y-2645295D01*
X80261905Y-2645295D02*
X80261905Y-2788152D01*
X80261905Y-2788152D02*
X80214286Y-2883390D01*
X80214286Y-2883390D02*
X80166667Y-2931009D01*
X80166667Y-2931009D02*
X80071429Y-2978628D01*
X80071429Y-2978628D02*
X79690477Y-2978628D01*
X80880953Y-2454819D02*
X81071429Y-2454819D01*
X81071429Y-2454819D02*
X81166667Y-2502438D01*
X81166667Y-2502438D02*
X81261905Y-2597676D01*
X81261905Y-2597676D02*
X81309524Y-2788152D01*
X81309524Y-2788152D02*
X81309524Y-3121485D01*
X81309524Y-3121485D02*
X81261905Y-3311961D01*
X81261905Y-3311961D02*
X81166667Y-3407200D01*
X81166667Y-3407200D02*
X81071429Y-3454819D01*
X81071429Y-3454819D02*
X80880953Y-3454819D01*
X80880953Y-3454819D02*
X80785715Y-3407200D01*
X80785715Y-3407200D02*
X80690477Y-3311961D01*
X80690477Y-3311961D02*
X80642858Y-3121485D01*
X80642858Y-3121485D02*
X80642858Y-2788152D01*
X80642858Y-2788152D02*
X80690477Y-2597676D01*
X80690477Y-2597676D02*
X80785715Y-2502438D01*
X80785715Y-2502438D02*
X80880953Y-2454819D01*
X81738096Y-3454819D02*
X81738096Y-2454819D01*
X81738096Y-2454819D02*
X81976191Y-2454819D01*
X81976191Y-2454819D02*
X82119048Y-2502438D01*
X82119048Y-2502438D02*
X82214286Y-2597676D01*
X82214286Y-2597676D02*
X82261905Y-2692914D01*
X82261905Y-2692914D02*
X82309524Y-2883390D01*
X82309524Y-2883390D02*
X82309524Y-3026247D01*
X82309524Y-3026247D02*
X82261905Y-3216723D01*
X82261905Y-3216723D02*
X82214286Y-3311961D01*
X82214286Y-3311961D02*
X82119048Y-3407200D01*
X82119048Y-3407200D02*
X81976191Y-3454819D01*
X81976191Y-3454819D02*
X81738096Y-3454819D01*
X82738096Y-2454819D02*
X82738096Y-3264342D01*
X82738096Y-3264342D02*
X82785715Y-3359580D01*
X82785715Y-3359580D02*
X82833334Y-3407200D01*
X82833334Y-3407200D02*
X82928572Y-3454819D01*
X82928572Y-3454819D02*
X83119048Y-3454819D01*
X83119048Y-3454819D02*
X83214286Y-3407200D01*
X83214286Y-3407200D02*
X83261905Y-3359580D01*
X83261905Y-3359580D02*
X83309524Y-3264342D01*
X83309524Y-3264342D02*
X83309524Y-2454819D01*
X84357143Y-3359580D02*
X84309524Y-3407200D01*
X84309524Y-3407200D02*
X84166667Y-3454819D01*
X84166667Y-3454819D02*
X84071429Y-3454819D01*
X84071429Y-3454819D02*
X83928572Y-3407200D01*
X83928572Y-3407200D02*
X83833334Y-3311961D01*
X83833334Y-3311961D02*
X83785715Y-3216723D01*
X83785715Y-3216723D02*
X83738096Y-3026247D01*
X83738096Y-3026247D02*
X83738096Y-2883390D01*
X83738096Y-2883390D02*
X83785715Y-2692914D01*
X83785715Y-2692914D02*
X83833334Y-2597676D01*
X83833334Y-2597676D02*
X83928572Y-2502438D01*
X83928572Y-2502438D02*
X84071429Y-2454819D01*
X84071429Y-2454819D02*
X84166667Y-2454819D01*
X84166667Y-2454819D02*
X84309524Y-2502438D01*
X84309524Y-2502438D02*
X84357143Y-2550057D01*
X84642858Y-2454819D02*
X85214286Y-2454819D01*
X84928572Y-3454819D02*
X84928572Y-2454819D01*
X85547620Y-3454819D02*
X85547620Y-2454819D01*
X86214286Y-2454819D02*
X86404762Y-2454819D01*
X86404762Y-2454819D02*
X86500000Y-2502438D01*
X86500000Y-2502438D02*
X86595238Y-2597676D01*
X86595238Y-2597676D02*
X86642857Y-2788152D01*
X86642857Y-2788152D02*
X86642857Y-3121485D01*
X86642857Y-3121485D02*
X86595238Y-3311961D01*
X86595238Y-3311961D02*
X86500000Y-3407200D01*
X86500000Y-3407200D02*
X86404762Y-3454819D01*
X86404762Y-3454819D02*
X86214286Y-3454819D01*
X86214286Y-3454819D02*
X86119048Y-3407200D01*
X86119048Y-3407200D02*
X86023810Y-3311961D01*
X86023810Y-3311961D02*
X85976191Y-3121485D01*
X85976191Y-3121485D02*
X85976191Y-2788152D01*
X85976191Y-2788152D02*
X86023810Y-2597676D01*
X86023810Y-2597676D02*
X86119048Y-2502438D01*
X86119048Y-2502438D02*
X86214286Y-2454819D01*
X87071429Y-3454819D02*
X87071429Y-2454819D01*
X87071429Y-2454819D02*
X87642857Y-3454819D01*
X87642857Y-3454819D02*
X87642857Y-2454819D01*
X65922620Y-93510950D02*
X66101191Y-93570473D01*
X66101191Y-93570473D02*
X66398810Y-93570473D01*
X66398810Y-93570473D02*
X66517858Y-93510950D01*
X66517858Y-93510950D02*
X66577382Y-93451426D01*
X66577382Y-93451426D02*
X66636905Y-93332378D01*
X66636905Y-93332378D02*
X66636905Y-93213330D01*
X66636905Y-93213330D02*
X66577382Y-93094283D01*
X66577382Y-93094283D02*
X66517858Y-93034759D01*
X66517858Y-93034759D02*
X66398810Y-92975235D01*
X66398810Y-92975235D02*
X66160715Y-92915711D01*
X66160715Y-92915711D02*
X66041667Y-92856188D01*
X66041667Y-92856188D02*
X65982144Y-92796664D01*
X65982144Y-92796664D02*
X65922620Y-92677616D01*
X65922620Y-92677616D02*
X65922620Y-92558569D01*
X65922620Y-92558569D02*
X65982144Y-92439521D01*
X65982144Y-92439521D02*
X66041667Y-92379997D01*
X66041667Y-92379997D02*
X66160715Y-92320473D01*
X66160715Y-92320473D02*
X66458334Y-92320473D01*
X66458334Y-92320473D02*
X66636905Y-92379997D01*
X67172620Y-93570473D02*
X67172620Y-92320473D01*
X67886905Y-93570473D02*
X67351191Y-92856188D01*
X67886905Y-92320473D02*
X67172620Y-93034759D01*
X68660715Y-92975235D02*
X68660715Y-93570473D01*
X68244048Y-92320473D02*
X68660715Y-92975235D01*
X68660715Y-92975235D02*
X69077381Y-92320473D01*
X69434525Y-93510950D02*
X69613096Y-93570473D01*
X69613096Y-93570473D02*
X69910715Y-93570473D01*
X69910715Y-93570473D02*
X70029763Y-93510950D01*
X70029763Y-93510950D02*
X70089287Y-93451426D01*
X70089287Y-93451426D02*
X70148810Y-93332378D01*
X70148810Y-93332378D02*
X70148810Y-93213330D01*
X70148810Y-93213330D02*
X70089287Y-93094283D01*
X70089287Y-93094283D02*
X70029763Y-93034759D01*
X70029763Y-93034759D02*
X69910715Y-92975235D01*
X69910715Y-92975235D02*
X69672620Y-92915711D01*
X69672620Y-92915711D02*
X69553572Y-92856188D01*
X69553572Y-92856188D02*
X69494049Y-92796664D01*
X69494049Y-92796664D02*
X69434525Y-92677616D01*
X69434525Y-92677616D02*
X69434525Y-92558569D01*
X69434525Y-92558569D02*
X69494049Y-92439521D01*
X69494049Y-92439521D02*
X69553572Y-92379997D01*
X69553572Y-92379997D02*
X69672620Y-92320473D01*
X69672620Y-92320473D02*
X69970239Y-92320473D01*
X69970239Y-92320473D02*
X70148810Y-92379997D01*
X70565477Y-92320473D02*
X70863096Y-93570473D01*
X70863096Y-93570473D02*
X71101191Y-92677616D01*
X71101191Y-92677616D02*
X71339286Y-93570473D01*
X71339286Y-93570473D02*
X71636906Y-92320473D01*
X72113096Y-92915711D02*
X72529762Y-92915711D01*
X72708334Y-93570473D02*
X72113096Y-93570473D01*
X72113096Y-93570473D02*
X72113096Y-92320473D01*
X72113096Y-92320473D02*
X72708334Y-92320473D01*
X73244048Y-92915711D02*
X73660714Y-92915711D01*
X73839286Y-93570473D02*
X73244048Y-93570473D01*
X73244048Y-93570473D02*
X73244048Y-92320473D01*
X73244048Y-92320473D02*
X73839286Y-92320473D01*
X74375000Y-93570473D02*
X74375000Y-92320473D01*
X74375000Y-92320473D02*
X74851190Y-92320473D01*
X74851190Y-92320473D02*
X74970238Y-92379997D01*
X74970238Y-92379997D02*
X75029761Y-92439521D01*
X75029761Y-92439521D02*
X75089285Y-92558569D01*
X75089285Y-92558569D02*
X75089285Y-92737140D01*
X75089285Y-92737140D02*
X75029761Y-92856188D01*
X75029761Y-92856188D02*
X74970238Y-92915711D01*
X74970238Y-92915711D02*
X74851190Y-92975235D01*
X74851190Y-92975235D02*
X74375000Y-92975235D01*
X75505952Y-92320473D02*
X76279761Y-92320473D01*
X76279761Y-92320473D02*
X75863095Y-92796664D01*
X75863095Y-92796664D02*
X76041666Y-92796664D01*
X76041666Y-92796664D02*
X76160714Y-92856188D01*
X76160714Y-92856188D02*
X76220238Y-92915711D01*
X76220238Y-92915711D02*
X76279761Y-93034759D01*
X76279761Y-93034759D02*
X76279761Y-93332378D01*
X76279761Y-93332378D02*
X76220238Y-93451426D01*
X76220238Y-93451426D02*
X76160714Y-93510950D01*
X76160714Y-93510950D02*
X76041666Y-93570473D01*
X76041666Y-93570473D02*
X75684523Y-93570473D01*
X75684523Y-93570473D02*
X75565476Y-93510950D01*
X75565476Y-93510950D02*
X75505952Y-93451426D01*
X76755952Y-92439521D02*
X76815476Y-92379997D01*
X76815476Y-92379997D02*
X76934523Y-92320473D01*
X76934523Y-92320473D02*
X77232142Y-92320473D01*
X77232142Y-92320473D02*
X77351190Y-92379997D01*
X77351190Y-92379997D02*
X77410714Y-92439521D01*
X77410714Y-92439521D02*
X77470237Y-92558569D01*
X77470237Y-92558569D02*
X77470237Y-92677616D01*
X77470237Y-92677616D02*
X77410714Y-92856188D01*
X77410714Y-92856188D02*
X76696428Y-93570473D01*
X76696428Y-93570473D02*
X77470237Y-93570473D01*
X79672618Y-93570473D02*
X79255952Y-92975235D01*
X78958333Y-93570473D02*
X78958333Y-92320473D01*
X78958333Y-92320473D02*
X79434523Y-92320473D01*
X79434523Y-92320473D02*
X79553571Y-92379997D01*
X79553571Y-92379997D02*
X79613094Y-92439521D01*
X79613094Y-92439521D02*
X79672618Y-92558569D01*
X79672618Y-92558569D02*
X79672618Y-92737140D01*
X79672618Y-92737140D02*
X79613094Y-92856188D01*
X79613094Y-92856188D02*
X79553571Y-92915711D01*
X79553571Y-92915711D02*
X79434523Y-92975235D01*
X79434523Y-92975235D02*
X78958333Y-92975235D01*
X80208333Y-92915711D02*
X80624999Y-92915711D01*
X80803571Y-93570473D02*
X80208333Y-93570473D01*
X80208333Y-93570473D02*
X80208333Y-92320473D01*
X80208333Y-92320473D02*
X80803571Y-92320473D01*
X81160713Y-92320473D02*
X81577380Y-93570473D01*
X81577380Y-93570473D02*
X81994046Y-92320473D01*
X84077380Y-93451426D02*
X84017856Y-93510950D01*
X84017856Y-93510950D02*
X83839285Y-93570473D01*
X83839285Y-93570473D02*
X83720237Y-93570473D01*
X83720237Y-93570473D02*
X83541666Y-93510950D01*
X83541666Y-93510950D02*
X83422618Y-93391902D01*
X83422618Y-93391902D02*
X83363095Y-93272854D01*
X83363095Y-93272854D02*
X83303571Y-93034759D01*
X83303571Y-93034759D02*
X83303571Y-92856188D01*
X83303571Y-92856188D02*
X83363095Y-92618092D01*
X83363095Y-92618092D02*
X83422618Y-92499045D01*
X83422618Y-92499045D02*
X83541666Y-92379997D01*
X83541666Y-92379997D02*
X83720237Y-92320473D01*
X83720237Y-92320473D02*
X83839285Y-92320473D01*
X83839285Y-92320473D02*
X84017856Y-92379997D01*
X84017856Y-92379997D02*
X84077380Y-92439521D01*
X144238095Y-87454819D02*
X144238095Y-86454819D01*
X144238095Y-86931009D02*
X144809523Y-86931009D01*
X144809523Y-87454819D02*
X144809523Y-86454819D01*
X145190476Y-86454819D02*
X145809523Y-86454819D01*
X145809523Y-86454819D02*
X145476190Y-86835771D01*
X145476190Y-86835771D02*
X145619047Y-86835771D01*
X145619047Y-86835771D02*
X145714285Y-86883390D01*
X145714285Y-86883390D02*
X145761904Y-86931009D01*
X145761904Y-86931009D02*
X145809523Y-87026247D01*
X145809523Y-87026247D02*
X145809523Y-87264342D01*
X145809523Y-87264342D02*
X145761904Y-87359580D01*
X145761904Y-87359580D02*
X145714285Y-87407200D01*
X145714285Y-87407200D02*
X145619047Y-87454819D01*
X145619047Y-87454819D02*
X145333333Y-87454819D01*
X145333333Y-87454819D02*
X145238095Y-87407200D01*
X145238095Y-87407200D02*
X145190476Y-87359580D01*
X4238095Y-2454819D02*
X4238095Y-1454819D01*
X4238095Y-1931009D02*
X4809523Y-1931009D01*
X4809523Y-2454819D02*
X4809523Y-1454819D01*
X5809523Y-2454819D02*
X5238095Y-2454819D01*
X5523809Y-2454819D02*
X5523809Y-1454819D01*
X5523809Y-1454819D02*
X5428571Y-1597676D01*
X5428571Y-1597676D02*
X5333333Y-1692914D01*
X5333333Y-1692914D02*
X5238095Y-1740533D01*
X144238095Y-2454819D02*
X144238095Y-1454819D01*
X144238095Y-1931009D02*
X144809523Y-1931009D01*
X144809523Y-2454819D02*
X144809523Y-1454819D01*
X145238095Y-1550057D02*
X145285714Y-1502438D01*
X145285714Y-1502438D02*
X145380952Y-1454819D01*
X145380952Y-1454819D02*
X145619047Y-1454819D01*
X145619047Y-1454819D02*
X145714285Y-1502438D01*
X145714285Y-1502438D02*
X145761904Y-1550057D01*
X145761904Y-1550057D02*
X145809523Y-1645295D01*
X145809523Y-1645295D02*
X145809523Y-1740533D01*
X145809523Y-1740533D02*
X145761904Y-1883390D01*
X145761904Y-1883390D02*
X145190476Y-2454819D01*
X145190476Y-2454819D02*
X145809523Y-2454819D01*
X4238095Y-87454819D02*
X4238095Y-86454819D01*
X4238095Y-86931009D02*
X4809523Y-86931009D01*
X4809523Y-87454819D02*
X4809523Y-86454819D01*
X5714285Y-86788152D02*
X5714285Y-87454819D01*
X5476190Y-86407200D02*
X5238095Y-87121485D01*
X5238095Y-87121485D02*
X5857142Y-87121485D01*
%TO.C,C18*%
D11*
X26288748Y-61090000D02*
X27711252Y-61090000D01*
X26288748Y-62910000D02*
X27711252Y-62910000D01*
%TO.C,H3*%
D12*
X147200000Y-90000000D02*
G75*
G02*
X142800000Y-90000000I-2200000J0D01*
G01*
X142800000Y-90000000D02*
G75*
G02*
X147200000Y-90000000I2200000J0D01*
G01*
%TO.C,Q2*%
D11*
X91240000Y-77440000D02*
X92760000Y-77440000D01*
X91240000Y-77490000D02*
X91240000Y-77440000D01*
X91240000Y-79390000D02*
X91240000Y-78610000D01*
X91240000Y-80560000D02*
X91240000Y-80510000D01*
X92760000Y-77440000D02*
X92760000Y-78440000D01*
X92760000Y-79560000D02*
X92760000Y-80560000D01*
X92760000Y-80560000D02*
X91240000Y-80560000D01*
X90700000Y-78620000D02*
X90940000Y-78950000D01*
X90460000Y-78950000D01*
X90700000Y-78620000D01*
G36*
X90940000Y-78950000D02*
G01*
X90460000Y-78950000D01*
X90700000Y-78620000D01*
X90940000Y-78950000D01*
G37*
%TO.C,SW2*%
X120280000Y-91040000D02*
X120280000Y-88960000D01*
X121550000Y-87280000D02*
X121060000Y-87770000D01*
X121550000Y-87280000D02*
X124450000Y-87280000D01*
X121550000Y-92720000D02*
X121060000Y-92230000D01*
X121550000Y-92720000D02*
X124450000Y-92720000D01*
X124450000Y-87280000D02*
X124940000Y-87770000D01*
X124450000Y-92720000D02*
X124940000Y-92230000D01*
X125720000Y-91040000D02*
X125720000Y-88960000D01*
%TO.C,R17*%
X109762742Y-83477500D02*
X110237258Y-83477500D01*
X109762742Y-84522500D02*
X110237258Y-84522500D01*
%TO.C,D5*%
X20515000Y-80265000D02*
X20515000Y-81735000D01*
X20515000Y-81735000D02*
X22800000Y-81735000D01*
X22800000Y-80265000D02*
X20515000Y-80265000D01*
%TO.C,R26*%
X11762742Y-79477500D02*
X12237258Y-79477500D01*
X11762742Y-80522500D02*
X12237258Y-80522500D01*
%TO.C,J7*%
X143740000Y-40390000D02*
X143740000Y-40890000D01*
X143740000Y-40890000D02*
X144240000Y-40640000D01*
X144240000Y-40640000D02*
X143740000Y-40390000D01*
%TO.C,R12*%
X131762742Y-69477500D02*
X132237258Y-69477500D01*
X131762742Y-70522500D02*
X132237258Y-70522500D01*
%TO.C,J5*%
X5760000Y-50000000D02*
X6260000Y-50250000D01*
X6260000Y-49750000D02*
X5760000Y-50000000D01*
X6260000Y-50250000D02*
X6260000Y-49750000D01*
%TO.C,R9*%
X29762742Y-19477500D02*
X30237258Y-19477500D01*
X29762742Y-20522500D02*
X30237258Y-20522500D01*
%TO.C,C3*%
X95288748Y-61090000D02*
X96711252Y-61090000D01*
X95288748Y-62910000D02*
X96711252Y-62910000D01*
%TO.C,C12*%
X17738748Y-30265000D02*
X18261252Y-30265000D01*
X17738748Y-31735000D02*
X18261252Y-31735000D01*
%TO.C,D4*%
X82640000Y-89160000D02*
X82640000Y-84100000D01*
X82640000Y-89160000D02*
X85360000Y-89160000D01*
X85360000Y-89160000D02*
X85360000Y-84100000D01*
%TO.C,C14*%
X139738748Y-81265000D02*
X140261252Y-81265000D01*
X139738748Y-82735000D02*
X140261252Y-82735000D01*
%TO.C,J4*%
X89640000Y-85890000D02*
X89640000Y-87140000D01*
X89940000Y-87500000D02*
X90550000Y-87500000D01*
X89940000Y-88800000D02*
X90550000Y-88800000D01*
X90550000Y-86800000D02*
X90550000Y-90300000D01*
X90550000Y-90300000D02*
X95450000Y-90300000D01*
X90890000Y-85890000D02*
X89640000Y-85890000D01*
X91400000Y-85990000D02*
X91400000Y-86190000D01*
X91700000Y-85990000D02*
X91400000Y-85990000D01*
X91700000Y-86090000D02*
X91400000Y-86090000D01*
X91700000Y-86190000D02*
X91700000Y-85990000D01*
X92500000Y-86190000D02*
X92500000Y-86800000D01*
X92500000Y-86800000D02*
X90550000Y-86800000D01*
X92900000Y-89800000D02*
X93100000Y-89800000D01*
X92900000Y-90300000D02*
X92900000Y-89800000D01*
X93000000Y-90300000D02*
X93000000Y-89800000D01*
X93100000Y-89800000D02*
X93100000Y-90300000D01*
X93500000Y-86800000D02*
X93500000Y-86190000D01*
X95450000Y-86800000D02*
X93500000Y-86800000D01*
X95450000Y-90300000D02*
X95450000Y-86800000D01*
X96060000Y-87500000D02*
X95450000Y-87500000D01*
X96060000Y-88800000D02*
X95450000Y-88800000D01*
X89940000Y-86190000D02*
X96060000Y-86190000D01*
X96060000Y-90910000D01*
X89940000Y-90910000D01*
X89940000Y-86190000D01*
%TO.C,U3*%
X78090000Y-67440000D02*
X79910000Y-67440000D01*
X78090000Y-67490000D02*
X78090000Y-67440000D01*
X78090000Y-70560000D02*
X78090000Y-70510000D01*
X79910000Y-67440000D02*
X79910000Y-67490000D01*
X79910000Y-70510000D02*
X79910000Y-70560000D01*
X79910000Y-70560000D02*
X78090000Y-70560000D01*
X77550000Y-67490000D02*
X77310000Y-67160000D01*
X77790000Y-67160000D01*
X77550000Y-67490000D01*
G36*
X77550000Y-67490000D02*
G01*
X77310000Y-67160000D01*
X77790000Y-67160000D01*
X77550000Y-67490000D01*
G37*
%TO.C,U1*%
X62800000Y-16100000D02*
X62800000Y-22300000D01*
X62800000Y-16100000D02*
X81200000Y-16100000D01*
X62800000Y-40950000D02*
X62800000Y-41950000D01*
X62800000Y-41950000D02*
X64300000Y-41950000D01*
X81200000Y-16100000D02*
X81200000Y-22300000D01*
X81200000Y-41950000D02*
X79700000Y-41950000D01*
X81200000Y-41950000D02*
X81200000Y-40950000D01*
X62800000Y-22975000D02*
X62300000Y-22975000D01*
X62800000Y-22475000D01*
X62800000Y-22975000D01*
G36*
X62800000Y-22975000D02*
G01*
X62300000Y-22975000D01*
X62800000Y-22475000D01*
X62800000Y-22975000D01*
G37*
%TO.C,C8*%
X120738748Y-15265000D02*
X121261252Y-15265000D01*
X120738748Y-16735000D02*
X121261252Y-16735000D01*
%TO.C,TP8*%
X93700000Y-52000000D02*
G75*
G02*
X92300000Y-52000000I-700000J0D01*
G01*
X92300000Y-52000000D02*
G75*
G02*
X93700000Y-52000000I700000J0D01*
G01*
%TO.C,R1*%
X26762742Y-81477500D02*
X27237258Y-81477500D01*
X26762742Y-82522500D02*
X27237258Y-82522500D01*
%TO.C,R24*%
X34762742Y-69477500D02*
X35237258Y-69477500D01*
X34762742Y-70522500D02*
X35237258Y-70522500D01*
%TO.C,C13*%
X22859420Y-30490000D02*
X23140580Y-30490000D01*
X22859420Y-31510000D02*
X23140580Y-31510000D01*
%TO.C,U6*%
X13294432Y-69865000D02*
X15110000Y-69865000D01*
X15110000Y-72135000D02*
X12890000Y-72135000D01*
X13000000Y-69860000D02*
X12860000Y-69670000D01*
X13140000Y-69670000D01*
X13000000Y-69860000D01*
G36*
X13000000Y-69860000D02*
G01*
X12860000Y-69670000D01*
X13140000Y-69670000D01*
X13000000Y-69860000D01*
G37*
%TO.C,C17*%
X24288748Y-76090000D02*
X25711252Y-76090000D01*
X24288748Y-77910000D02*
X25711252Y-77910000D01*
%TO.C,D1*%
X47350000Y-90510000D02*
X47350000Y-85000000D01*
X47350000Y-90510000D02*
X50650000Y-90510000D01*
X50650000Y-90510000D02*
X50650000Y-85000000D01*
%TO.C,R2*%
X30762742Y-81477500D02*
X31237258Y-81477500D01*
X30762742Y-82522500D02*
X31237258Y-82522500D01*
%TO.C,TP5*%
X75700000Y-52000000D02*
G75*
G02*
X74300000Y-52000000I-700000J0D01*
G01*
X74300000Y-52000000D02*
G75*
G02*
X75700000Y-52000000I700000J0D01*
G01*
%TO.C,R31*%
X104762742Y-52477500D02*
X105237258Y-52477500D01*
X104762742Y-53522500D02*
X105237258Y-53522500D01*
%TO.C,SW3*%
X132280000Y-91040000D02*
X132280000Y-88960000D01*
X133550000Y-87280000D02*
X133060000Y-87770000D01*
X133550000Y-87280000D02*
X136450000Y-87280000D01*
X133550000Y-92720000D02*
X133060000Y-92230000D01*
X133550000Y-92720000D02*
X136450000Y-92720000D01*
X136450000Y-87280000D02*
X136940000Y-87770000D01*
X136450000Y-92720000D02*
X136940000Y-92230000D01*
X137720000Y-91040000D02*
X137720000Y-88960000D01*
%TO.C,C16*%
X79738748Y-81265000D02*
X80261252Y-81265000D01*
X79738748Y-82735000D02*
X80261252Y-82735000D01*
%TO.C,C2*%
X82859420Y-63490000D02*
X83140580Y-63490000D01*
X82859420Y-64510000D02*
X83140580Y-64510000D01*
%TO.C,C22*%
X68288748Y-63090000D02*
X69711252Y-63090000D01*
X68288748Y-64910000D02*
X69711252Y-64910000D01*
%TO.C,R16*%
X119762742Y-74477500D02*
X120237258Y-74477500D01*
X119762742Y-75522500D02*
X120237258Y-75522500D01*
%TO.C,Q1*%
X114240000Y-70440000D02*
X115760000Y-70440000D01*
X114240000Y-70490000D02*
X114240000Y-70440000D01*
X114240000Y-72390000D02*
X114240000Y-71610000D01*
X114240000Y-73560000D02*
X114240000Y-73510000D01*
X115760000Y-70440000D02*
X115760000Y-71440000D01*
X115760000Y-72560000D02*
X115760000Y-73560000D01*
X115760000Y-73560000D02*
X114240000Y-73560000D01*
X113700000Y-71620000D02*
X113940000Y-71950000D01*
X113460000Y-71950000D01*
X113700000Y-71620000D01*
G36*
X113940000Y-71950000D02*
G01*
X113460000Y-71950000D01*
X113700000Y-71620000D01*
X113940000Y-71950000D01*
G37*
%TO.C,L1*%
X85600000Y-65800000D02*
X85600000Y-67000000D01*
X85600000Y-65800000D02*
X87000000Y-65800000D01*
X85600000Y-72200000D02*
X85600000Y-71000000D01*
X85600000Y-72200000D02*
X87000000Y-72200000D01*
X92400000Y-65800000D02*
X91000000Y-65800000D01*
X92400000Y-65800000D02*
X92400000Y-67000000D01*
X92400000Y-72200000D02*
X91000000Y-72200000D01*
X92400000Y-72200000D02*
X92400000Y-71000000D01*
%TO.C,F1*%
X41290000Y-85386252D02*
X41290000Y-82613748D01*
X44710000Y-85386252D02*
X44710000Y-82613748D01*
%TO.C,U4*%
X27390000Y-68390000D02*
X27865000Y-68390000D01*
X27390000Y-68865000D02*
X27390000Y-68390000D01*
X27390000Y-71610000D02*
X27390000Y-71135000D01*
X27865000Y-71610000D02*
X27390000Y-71610000D01*
X30135000Y-68390000D02*
X30610000Y-68390000D01*
X30610000Y-68390000D02*
X30610000Y-68865000D01*
X30610000Y-71135000D02*
X30610000Y-71610000D01*
X30610000Y-71610000D02*
X30135000Y-71610000D01*
X26860000Y-69250000D02*
X26530000Y-69490000D01*
X26530000Y-69010000D01*
X26860000Y-69250000D01*
G36*
X26860000Y-69250000D02*
G01*
X26530000Y-69490000D01*
X26530000Y-69010000D01*
X26860000Y-69250000D01*
G37*
%TO.C,R29*%
X108762742Y-45477500D02*
X109237258Y-45477500D01*
X108762742Y-46522500D02*
X109237258Y-46522500D01*
%TO.C,R19*%
X89762742Y-82477500D02*
X90237258Y-82477500D01*
X89762742Y-83522500D02*
X90237258Y-83522500D01*
%TO.C,R14*%
X131762742Y-77477500D02*
X132237258Y-77477500D01*
X131762742Y-78522500D02*
X132237258Y-78522500D01*
%TO.C,C29*%
X13859420Y-74490000D02*
X14140580Y-74490000D01*
X13859420Y-75510000D02*
X14140580Y-75510000D01*
%TO.C,C7*%
X75859420Y-45490000D02*
X76140580Y-45490000D01*
X75859420Y-46510000D02*
X76140580Y-46510000D01*
%TO.C,C21*%
X43288748Y-68090000D02*
X44711252Y-68090000D01*
X43288748Y-69910000D02*
X44711252Y-69910000D01*
%TO.C,C23*%
X68288748Y-68090000D02*
X69711252Y-68090000D01*
X68288748Y-69910000D02*
X69711252Y-69910000D01*
%TO.C,C19*%
X35288748Y-62090000D02*
X36711252Y-62090000D01*
X35288748Y-63910000D02*
X36711252Y-63910000D01*
%TO.C,R4*%
X44762742Y-77977500D02*
X45237258Y-77977500D01*
X44762742Y-79022500D02*
X45237258Y-79022500D01*
%TO.C,C10*%
X26738748Y-48265000D02*
X27261252Y-48265000D01*
X26738748Y-49735000D02*
X27261252Y-49735000D01*
%TO.C,R15*%
X114762742Y-66477500D02*
X115237258Y-66477500D01*
X114762742Y-67522500D02*
X115237258Y-67522500D01*
%TO.C,R27*%
X15762742Y-79477500D02*
X16237258Y-79477500D01*
X15762742Y-80522500D02*
X16237258Y-80522500D01*
%TO.C,J6*%
X13940000Y-86490000D02*
X14960000Y-86490000D01*
X13940000Y-90740000D02*
X13940000Y-86490000D01*
X14960000Y-86490000D02*
X14960000Y-88090000D01*
X14960000Y-88090000D02*
X16240000Y-88090000D01*
X15660000Y-94310000D02*
X20340000Y-94310000D01*
X16240000Y-88090000D02*
X16240000Y-85200000D01*
X21040000Y-86490000D02*
X21040000Y-88090000D01*
X21040000Y-88090000D02*
X19760000Y-88090000D01*
X22060000Y-86490000D02*
X21040000Y-86490000D01*
X22060000Y-90740000D02*
X22060000Y-86490000D01*
%TO.C,R25*%
X25762742Y-85477500D02*
X26237258Y-85477500D01*
X25762742Y-86522500D02*
X26237258Y-86522500D01*
%TO.C,C30*%
X100859420Y-52490000D02*
X101140580Y-52490000D01*
X100859420Y-53510000D02*
X101140580Y-53510000D01*
%TO.C,R3*%
X44762742Y-74977500D02*
X45237258Y-74977500D01*
X44762742Y-76022500D02*
X45237258Y-76022500D01*
%TO.C,R6*%
X120762742Y-84477500D02*
X121237258Y-84477500D01*
X120762742Y-85522500D02*
X121237258Y-85522500D01*
%TO.C,R28*%
X108762742Y-41477500D02*
X109237258Y-41477500D01*
X108762742Y-42522500D02*
X109237258Y-42522500D01*
%TO.C,D3*%
X104515000Y-83265000D02*
X104515000Y-84735000D01*
X104515000Y-84735000D02*
X106800000Y-84735000D01*
X106800000Y-83265000D02*
X104515000Y-83265000D01*
%TO.C,R13*%
X131762742Y-73477500D02*
X132237258Y-73477500D01*
X131762742Y-74522500D02*
X132237258Y-74522500D01*
%TO.C,SW4*%
X55700000Y-86700000D02*
X64300000Y-86700000D01*
X55700000Y-91300000D02*
X57900000Y-91300000D01*
X62000000Y-91300000D02*
X64300000Y-91300000D01*
%TO.C,TP4*%
X69700000Y-52000000D02*
G75*
G02*
X68300000Y-52000000I-700000J0D01*
G01*
X68300000Y-52000000D02*
G75*
G02*
X69700000Y-52000000I700000J0D01*
G01*
%TO.C,C1*%
X54288748Y-81090000D02*
X55711252Y-81090000D01*
X54288748Y-82910000D02*
X55711252Y-82910000D01*
%TO.C,H1*%
D12*
X7200000Y-5000000D02*
G75*
G02*
X2800000Y-5000000I-2200000J0D01*
G01*
X2800000Y-5000000D02*
G75*
G02*
X7200000Y-5000000I2200000J0D01*
G01*
%TO.C,R10*%
D11*
X29762742Y-24477500D02*
X30237258Y-24477500D01*
X29762742Y-25522500D02*
X30237258Y-25522500D01*
%TO.C,R5*%
X71762742Y-45477500D02*
X72237258Y-45477500D01*
X71762742Y-46522500D02*
X72237258Y-46522500D01*
%TO.C,R20*%
X20762742Y-66477500D02*
X21237258Y-66477500D01*
X20762742Y-67522500D02*
X21237258Y-67522500D01*
%TO.C,R7*%
X132762742Y-84477500D02*
X133237258Y-84477500D01*
X132762742Y-85522500D02*
X133237258Y-85522500D01*
%TO.C,TP6*%
X81700000Y-52000000D02*
G75*
G02*
X80300000Y-52000000I-700000J0D01*
G01*
X80300000Y-52000000D02*
G75*
G02*
X81700000Y-52000000I700000J0D01*
G01*
%TO.C,TP7*%
X87700000Y-52000000D02*
G75*
G02*
X86300000Y-52000000I-700000J0D01*
G01*
X86300000Y-52000000D02*
G75*
G02*
X87700000Y-52000000I700000J0D01*
G01*
%TO.C,C20*%
X43288748Y-63090000D02*
X44711252Y-63090000D01*
X43288748Y-64910000D02*
X44711252Y-64910000D01*
%TO.C,BZ1*%
D12*
X110000000Y-76000000D02*
G75*
G02*
X98000000Y-76000000I-6000000J0D01*
G01*
X98000000Y-76000000D02*
G75*
G02*
X110000000Y-76000000I6000000J0D01*
G01*
%TO.C,J3*%
D11*
X74890000Y-87215000D02*
X75940000Y-87215000D01*
X74890000Y-89715000D02*
X74890000Y-87215000D01*
X75940000Y-87215000D02*
X75940000Y-86225000D01*
X76060000Y-91685000D02*
X79940000Y-91685000D01*
X81110000Y-87215000D02*
X80060000Y-87215000D01*
X81110000Y-89715000D02*
X81110000Y-87215000D01*
%TO.C,C5*%
X61738748Y-45265000D02*
X62261252Y-45265000D01*
X61738748Y-46735000D02*
X62261252Y-46735000D01*
%TO.C,U2*%
X39090000Y-75440000D02*
X40910000Y-75440000D01*
X39090000Y-75490000D02*
X39090000Y-75440000D01*
X39090000Y-78560000D02*
X39090000Y-78510000D01*
X40910000Y-75440000D02*
X40910000Y-75490000D01*
X40910000Y-78510000D02*
X40910000Y-78560000D01*
X40910000Y-78560000D02*
X39090000Y-78560000D01*
X38550000Y-75490000D02*
X38310000Y-75160000D01*
X38790000Y-75160000D01*
X38550000Y-75490000D01*
G36*
X38550000Y-75490000D02*
G01*
X38310000Y-75160000D01*
X38790000Y-75160000D01*
X38550000Y-75490000D01*
G37*
%TO.C,R18*%
X87762742Y-78477500D02*
X88237258Y-78477500D01*
X87762742Y-79522500D02*
X88237258Y-79522500D01*
%TO.C,SW1*%
X108280000Y-91040000D02*
X108280000Y-88960000D01*
X109550000Y-87280000D02*
X109060000Y-87770000D01*
X109550000Y-87280000D02*
X112450000Y-87280000D01*
X109550000Y-92720000D02*
X109060000Y-92230000D01*
X109550000Y-92720000D02*
X112450000Y-92720000D01*
X112450000Y-87280000D02*
X112940000Y-87770000D01*
X112450000Y-92720000D02*
X112940000Y-92230000D01*
X113720000Y-91040000D02*
X113720000Y-88960000D01*
%TO.C,R21*%
X24762742Y-64477500D02*
X25237258Y-64477500D01*
X24762742Y-65522500D02*
X25237258Y-65522500D01*
%TO.C,R11*%
X131762742Y-65477500D02*
X132237258Y-65477500D01*
X131762742Y-66522500D02*
X132237258Y-66522500D01*
%TO.C,L2*%
X58600000Y-65800000D02*
X58600000Y-67000000D01*
X58600000Y-65800000D02*
X60000000Y-65800000D01*
X58600000Y-72200000D02*
X58600000Y-71000000D01*
X58600000Y-72200000D02*
X60000000Y-72200000D01*
X65400000Y-65800000D02*
X64000000Y-65800000D01*
X65400000Y-65800000D02*
X65400000Y-67000000D01*
X65400000Y-72200000D02*
X64000000Y-72200000D01*
X65400000Y-72200000D02*
X65400000Y-71000000D01*
%TO.C,J1*%
X30330000Y-91225000D02*
X30330000Y-89525000D01*
X39670000Y-91225000D02*
X39670000Y-89525000D01*
%TO.C,R22*%
X27762742Y-63477500D02*
X28237258Y-63477500D01*
X27762742Y-64522500D02*
X28237258Y-64522500D01*
%TO.C,C25*%
X103738748Y-46265000D02*
X104261252Y-46265000D01*
X103738748Y-47735000D02*
X104261252Y-47735000D01*
%TO.C,H2*%
D12*
X147200000Y-5000000D02*
G75*
G02*
X142800000Y-5000000I-2200000J0D01*
G01*
X142800000Y-5000000D02*
G75*
G02*
X147200000Y-5000000I2200000J0D01*
G01*
%TO.C,C26*%
D11*
X100750000Y-58740000D02*
X102000000Y-58740000D01*
X101375000Y-58115000D02*
X101375000Y-59365000D01*
X102240000Y-57304437D02*
X102240000Y-59990000D01*
X102240000Y-57304437D02*
X103304437Y-56240000D01*
X102240000Y-65695563D02*
X102240000Y-63010000D01*
X102240000Y-65695563D02*
X103304437Y-66760000D01*
X103304437Y-56240000D02*
X112760000Y-56240000D01*
X103304437Y-66760000D02*
X112760000Y-66760000D01*
X112760000Y-56240000D02*
X112760000Y-59990000D01*
X112760000Y-66760000D02*
X112760000Y-63010000D01*
%TO.C,R30*%
X108762742Y-49477500D02*
X109237258Y-49477500D01*
X108762742Y-50522500D02*
X109237258Y-50522500D01*
%TO.C,C6*%
X65859420Y-45490000D02*
X66140580Y-45490000D01*
X65859420Y-46510000D02*
X66140580Y-46510000D01*
%TO.C,D2*%
X112840000Y-80640000D02*
X112840000Y-83360000D01*
X112840000Y-80640000D02*
X117900000Y-80640000D01*
X112840000Y-83360000D02*
X117900000Y-83360000D01*
%TO.C,C4*%
X95288748Y-65090000D02*
X96711252Y-65090000D01*
X95288748Y-66910000D02*
X96711252Y-66910000D01*
%TO.C,C24*%
X103859420Y-42490000D02*
X104140580Y-42490000D01*
X103859420Y-43510000D02*
X104140580Y-43510000D01*
%TO.C,C9*%
X120859420Y-19490000D02*
X121140580Y-19490000D01*
X120859420Y-20510000D02*
X121140580Y-20510000D01*
%TO.C,R23*%
X32762742Y-64477500D02*
X33237258Y-64477500D01*
X32762742Y-65522500D02*
X33237258Y-65522500D01*
%TO.C,TP3*%
X63700000Y-52000000D02*
G75*
G02*
X62300000Y-52000000I-700000J0D01*
G01*
X62300000Y-52000000D02*
G75*
G02*
X63700000Y-52000000I700000J0D01*
G01*
%TO.C,C11*%
X26859420Y-52490000D02*
X27140580Y-52490000D01*
X26859420Y-53510000D02*
X27140580Y-53510000D01*
%TO.C,C15*%
X144859420Y-81490000D02*
X145140580Y-81490000D01*
X144859420Y-82510000D02*
X145140580Y-82510000D01*
%TO.C,R8*%
X29762742Y-13477500D02*
X30237258Y-13477500D01*
X29762742Y-14522500D02*
X30237258Y-14522500D01*
%TO.C,U5*%
X50375000Y-70625000D02*
X50375000Y-70400000D01*
X50375000Y-70625000D02*
X51350000Y-70625000D01*
X50680000Y-67375000D02*
X51350000Y-67375000D01*
X52650000Y-67375000D02*
X53625000Y-67375000D01*
X52650000Y-70625000D02*
X53625000Y-70625000D01*
X53625000Y-67600000D02*
X53625000Y-67375000D01*
X53625000Y-70400000D02*
X53625000Y-70625000D01*
X50160000Y-67580000D02*
X49920000Y-67250000D01*
X50400000Y-67250000D01*
X50160000Y-67580000D01*
G36*
X50160000Y-67580000D02*
G01*
X49920000Y-67250000D01*
X50400000Y-67250000D01*
X50160000Y-67580000D01*
G37*
%TO.C,J2*%
X137180000Y-74590000D02*
X137180000Y-73730000D01*
X138550000Y-76070000D02*
X143000000Y-76070000D01*
X144400000Y-76070000D02*
X146700000Y-76070000D01*
X148100000Y-76070000D02*
X148820000Y-76070000D01*
X148820000Y-63890000D02*
X139000000Y-63890000D01*
X148820000Y-65120000D02*
X148820000Y-63890000D01*
X148820000Y-71090000D02*
X148820000Y-67420000D01*
X148820000Y-76070000D02*
X148820000Y-73390000D01*
%TO.C,TP2*%
X57700000Y-52000000D02*
G75*
G02*
X56300000Y-52000000I-700000J0D01*
G01*
X56300000Y-52000000D02*
G75*
G02*
X57700000Y-52000000I700000J0D01*
G01*
%TO.C,H4*%
D12*
X7200000Y-90000000D02*
G75*
G02*
X2800000Y-90000000I-2200000J0D01*
G01*
X2800000Y-90000000D02*
G75*
G02*
X7200000Y-90000000I2200000J0D01*
G01*
%TO.C,TP1*%
D11*
X51700000Y-52000000D02*
G75*
G02*
X50300000Y-52000000I-700000J0D01*
G01*
X50300000Y-52000000D02*
G75*
G02*
X51700000Y-52000000I700000J0D01*
G01*
%TD*%
%LPC*%
D13*
%TO.C,C18*%
X25525000Y-62000000D03*
X28475000Y-62000000D03*
%TD*%
D14*
%TO.C,H3*%
X145000000Y-90000000D03*
%TD*%
D15*
%TO.C,RF3*%
X141800000Y-38100000D03*
D16*
X141800000Y-40640000D03*
X141800000Y-43180000D03*
X141800000Y-45720000D03*
X141800000Y-48260000D03*
X141800000Y-50800000D03*
X141800000Y-53340000D03*
X141800000Y-55880000D03*
X141800000Y-58420000D03*
X114200000Y-53320000D03*
X114200000Y-55860000D03*
X114200000Y-58400000D03*
%TD*%
D17*
%TO.C,Q2*%
X91062500Y-78050000D03*
X91062500Y-79950000D03*
X92937500Y-79000000D03*
%TD*%
D18*
%TO.C,SW2*%
X119900000Y-88150000D03*
X126100000Y-88150000D03*
X119900000Y-91850000D03*
X126100000Y-91850000D03*
%TD*%
D19*
%TO.C,R17*%
X109175000Y-84000000D03*
X110825000Y-84000000D03*
%TD*%
D20*
%TO.C,D5*%
X21212500Y-81000000D03*
X22787500Y-81000000D03*
%TD*%
D19*
%TO.C,R26*%
X11175000Y-80000000D03*
X12825000Y-80000000D03*
%TD*%
D21*
%TO.C,J7*%
X147450000Y-40640000D03*
X147450000Y-36390000D03*
X147450000Y-44890000D03*
%TD*%
D19*
%TO.C,R12*%
X131175000Y-70000000D03*
X132825000Y-70000000D03*
%TD*%
D21*
%TO.C,J5*%
X2550000Y-50000000D03*
X2550000Y-54250000D03*
X2550000Y-45750000D03*
%TD*%
D19*
%TO.C,R9*%
X29175000Y-20000000D03*
X30825000Y-20000000D03*
%TD*%
D13*
%TO.C,C3*%
X94525000Y-62000000D03*
X97475000Y-62000000D03*
%TD*%
D22*
%TO.C,C12*%
X17050000Y-31000000D03*
X18950000Y-31000000D03*
%TD*%
D23*
%TO.C,D4*%
X84000000Y-88200000D03*
X84000000Y-83800000D03*
%TD*%
D24*
%TO.C,RF1*%
X124500000Y-10510000D03*
D25*
X124500000Y-11780000D03*
X124500000Y-13050000D03*
X124500000Y-14320000D03*
X124500000Y-15590000D03*
X124500000Y-16860000D03*
X124500000Y-18130000D03*
X139500000Y-18130000D03*
X139500000Y-16860000D03*
X139500000Y-15590000D03*
X139500000Y-14320000D03*
X139500000Y-13050000D03*
X139500000Y-11780000D03*
X139500000Y-10510000D03*
%TD*%
D22*
%TO.C,C14*%
X139050000Y-82000000D03*
X140950000Y-82000000D03*
%TD*%
D26*
%TO.C,J4*%
X92000000Y-88000000D03*
D27*
X94000000Y-88000000D03*
%TD*%
D28*
%TO.C,U3*%
X77862500Y-68050000D03*
X77862500Y-69000000D03*
X77862500Y-69950000D03*
X80137500Y-69950000D03*
X80137500Y-69000000D03*
X80137500Y-68050000D03*
%TD*%
D29*
%TO.C,U1*%
X63250000Y-23740000D03*
X63250000Y-25010000D03*
X63250000Y-26280000D03*
X63250000Y-27550000D03*
X63250000Y-28820000D03*
X63250000Y-30090000D03*
X63250000Y-31360000D03*
X63250000Y-32630000D03*
X63250000Y-33900000D03*
X63250000Y-35170000D03*
X63250000Y-36440000D03*
X63250000Y-37710000D03*
X63250000Y-38980000D03*
X63250000Y-40250000D03*
D30*
X65015000Y-41500000D03*
X66285000Y-41500000D03*
X67555000Y-41500000D03*
X68825000Y-41500000D03*
X70095000Y-41500000D03*
X71365000Y-41500000D03*
X72635000Y-41500000D03*
X73905000Y-41500000D03*
X75175000Y-41500000D03*
X76445000Y-41500000D03*
X77715000Y-41500000D03*
X78985000Y-41500000D03*
D29*
X80750000Y-40250000D03*
X80750000Y-38980000D03*
X80750000Y-37710000D03*
X80750000Y-36440000D03*
X80750000Y-35170000D03*
X80750000Y-33900000D03*
X80750000Y-32630000D03*
X80750000Y-31360000D03*
X80750000Y-30090000D03*
X80750000Y-28820000D03*
X80750000Y-27550000D03*
X80750000Y-26280000D03*
X80750000Y-25010000D03*
X80750000Y-23740000D03*
D31*
X69100000Y-30760000D03*
X69100000Y-32160000D03*
X69800000Y-30060000D03*
X69800000Y-31460000D03*
X69800000Y-32860000D03*
X70500000Y-30760000D03*
D32*
X70500000Y-31460000D03*
D31*
X70500000Y-32160000D03*
X71200000Y-30060000D03*
X71200000Y-31460000D03*
X71200000Y-32860000D03*
X71900000Y-30760000D03*
X71900000Y-32160000D03*
%TD*%
D22*
%TO.C,C8*%
X120050000Y-16000000D03*
X121950000Y-16000000D03*
%TD*%
D33*
%TO.C,TP8*%
X93000000Y-52000000D03*
%TD*%
D19*
%TO.C,R1*%
X26175000Y-82000000D03*
X27825000Y-82000000D03*
%TD*%
%TO.C,R24*%
X34175000Y-70000000D03*
X35825000Y-70000000D03*
%TD*%
D34*
%TO.C,RF2*%
X21750000Y-43000000D03*
X21750000Y-44270000D03*
X21750000Y-45540000D03*
X21750000Y-51910000D03*
X21750000Y-53180000D03*
X21750000Y-54450000D03*
X21750000Y-55720000D03*
X21750000Y-56990000D03*
X21750000Y-58260000D03*
X21750000Y-59530000D03*
X21750000Y-60800000D03*
X8250000Y-60800000D03*
X8250000Y-59530000D03*
X8250000Y-58260000D03*
X8250000Y-56990000D03*
X8250000Y-55720000D03*
X8250000Y-54450000D03*
X8250000Y-53180000D03*
X8250000Y-51910000D03*
X8250000Y-45540000D03*
X8250000Y-44270000D03*
X8250000Y-43000000D03*
%TD*%
D35*
%TO.C,C13*%
X22225000Y-31000000D03*
X23775000Y-31000000D03*
%TD*%
D36*
%TO.C,U6*%
X13000000Y-70250000D03*
X13000000Y-70750000D03*
X13000000Y-71250000D03*
X13000000Y-71750000D03*
X15000000Y-71750000D03*
X15000000Y-71250000D03*
X15000000Y-70750000D03*
X15000000Y-70250000D03*
D37*
X14000000Y-71000000D03*
%TD*%
D13*
%TO.C,C17*%
X23525000Y-77000000D03*
X26475000Y-77000000D03*
%TD*%
D38*
%TO.C,D1*%
X49000000Y-89000000D03*
X49000000Y-85000000D03*
%TD*%
D19*
%TO.C,R2*%
X30175000Y-82000000D03*
X31825000Y-82000000D03*
%TD*%
D33*
%TO.C,TP5*%
X75000000Y-52000000D03*
%TD*%
D19*
%TO.C,R31*%
X104175000Y-53000000D03*
X105825000Y-53000000D03*
%TD*%
D18*
%TO.C,SW3*%
X131900000Y-88150000D03*
X138100000Y-88150000D03*
X131900000Y-91850000D03*
X138100000Y-91850000D03*
%TD*%
D22*
%TO.C,C16*%
X79050000Y-82000000D03*
X80950000Y-82000000D03*
%TD*%
D35*
%TO.C,C2*%
X82225000Y-64000000D03*
X83775000Y-64000000D03*
%TD*%
D13*
%TO.C,C22*%
X67525000Y-64000000D03*
X70475000Y-64000000D03*
%TD*%
D19*
%TO.C,R16*%
X119175000Y-75000000D03*
X120825000Y-75000000D03*
%TD*%
D17*
%TO.C,Q1*%
X114062500Y-71050000D03*
X114062500Y-72950000D03*
X115937500Y-72000000D03*
%TD*%
D39*
%TO.C,L1*%
X86650000Y-69000000D03*
X91350000Y-69000000D03*
%TD*%
D40*
%TO.C,F1*%
X43000000Y-86137500D03*
X43000000Y-81862500D03*
%TD*%
D41*
%TO.C,U4*%
X27562500Y-69250000D03*
X27562500Y-69750000D03*
X27562500Y-70250000D03*
X27562500Y-70750000D03*
D42*
X28250000Y-71437500D03*
X28750000Y-71437500D03*
X29250000Y-71437500D03*
X29750000Y-71437500D03*
D41*
X30437500Y-70750000D03*
X30437500Y-70250000D03*
X30437500Y-69750000D03*
X30437500Y-69250000D03*
D42*
X29750000Y-68562500D03*
X29250000Y-68562500D03*
X28750000Y-68562500D03*
X28250000Y-68562500D03*
D43*
X29000000Y-70000000D03*
%TD*%
D19*
%TO.C,R29*%
X108175000Y-46000000D03*
X109825000Y-46000000D03*
%TD*%
%TO.C,R19*%
X89175000Y-83000000D03*
X90825000Y-83000000D03*
%TD*%
%TO.C,R14*%
X131175000Y-78000000D03*
X132825000Y-78000000D03*
%TD*%
D35*
%TO.C,C29*%
X13225000Y-75000000D03*
X14775000Y-75000000D03*
%TD*%
%TO.C,C7*%
X75225000Y-46000000D03*
X76775000Y-46000000D03*
%TD*%
D13*
%TO.C,C21*%
X42525000Y-69000000D03*
X45475000Y-69000000D03*
%TD*%
%TO.C,C23*%
X67525000Y-69000000D03*
X70475000Y-69000000D03*
%TD*%
%TO.C,C19*%
X34525000Y-63000000D03*
X37475000Y-63000000D03*
%TD*%
D19*
%TO.C,R4*%
X44175000Y-78500000D03*
X45825000Y-78500000D03*
%TD*%
D22*
%TO.C,C10*%
X26050000Y-49000000D03*
X27950000Y-49000000D03*
%TD*%
D19*
%TO.C,R15*%
X114175000Y-67000000D03*
X115825000Y-67000000D03*
%TD*%
%TO.C,R27*%
X15175000Y-80000000D03*
X16825000Y-80000000D03*
%TD*%
D44*
%TO.C,J6*%
X17000000Y-86950000D03*
X19000000Y-86950000D03*
D45*
X14650000Y-92700000D03*
X21350000Y-92700000D03*
%TD*%
D19*
%TO.C,R25*%
X25175000Y-86000000D03*
X26825000Y-86000000D03*
%TD*%
D35*
%TO.C,C30*%
X100225000Y-53000000D03*
X101775000Y-53000000D03*
%TD*%
D19*
%TO.C,R3*%
X44175000Y-75500000D03*
X45825000Y-75500000D03*
%TD*%
%TO.C,R6*%
X120175000Y-85000000D03*
X121825000Y-85000000D03*
%TD*%
%TO.C,R28*%
X108175000Y-42000000D03*
X109825000Y-42000000D03*
%TD*%
D20*
%TO.C,D3*%
X105212500Y-84000000D03*
X106787500Y-84000000D03*
%TD*%
D19*
%TO.C,R13*%
X131175000Y-74000000D03*
X132825000Y-74000000D03*
%TD*%
D46*
%TO.C,SW4*%
X55900000Y-89000000D03*
X64100000Y-89000000D03*
D47*
X58000000Y-89000000D03*
D48*
X60000000Y-89000000D03*
X62000000Y-89000000D03*
%TD*%
D33*
%TO.C,TP4*%
X69000000Y-52000000D03*
%TD*%
D13*
%TO.C,C1*%
X53525000Y-82000000D03*
X56475000Y-82000000D03*
%TD*%
D14*
%TO.C,H1*%
X5000000Y-5000000D03*
%TD*%
D19*
%TO.C,R10*%
X29175000Y-25000000D03*
X30825000Y-25000000D03*
%TD*%
%TO.C,R5*%
X71175000Y-46000000D03*
X72825000Y-46000000D03*
%TD*%
%TO.C,R20*%
X20175000Y-67000000D03*
X21825000Y-67000000D03*
%TD*%
%TO.C,R7*%
X132175000Y-85000000D03*
X133825000Y-85000000D03*
%TD*%
D33*
%TO.C,TP6*%
X81000000Y-52000000D03*
%TD*%
%TO.C,TP7*%
X87000000Y-52000000D03*
%TD*%
D13*
%TO.C,C20*%
X42525000Y-64000000D03*
X45475000Y-64000000D03*
%TD*%
D49*
%TO.C,BZ1*%
X99500000Y-76000000D03*
D50*
X108500000Y-76000000D03*
%TD*%
D51*
%TO.C,J3*%
X76500000Y-87000000D03*
X77500000Y-87000000D03*
X78500000Y-87000000D03*
X79500000Y-87000000D03*
D52*
X75200000Y-90875000D03*
X80800000Y-90875000D03*
%TD*%
D22*
%TO.C,C5*%
X61050000Y-46000000D03*
X62950000Y-46000000D03*
%TD*%
D28*
%TO.C,U2*%
X38862500Y-76050000D03*
X38862500Y-77000000D03*
X38862500Y-77950000D03*
X41137500Y-77950000D03*
X41137500Y-77000000D03*
X41137500Y-76050000D03*
%TD*%
D53*
%TO.C,GPS1*%
X10875000Y-21800000D03*
D54*
X10875000Y-19900000D03*
X10875000Y-18000000D03*
X10875000Y-16100000D03*
X10875000Y-14200000D03*
D55*
X14200000Y-10875000D03*
X16100000Y-10875000D03*
X18000000Y-10875000D03*
X19900000Y-10875000D03*
X21800000Y-10875000D03*
D54*
X25125000Y-14200000D03*
X25125000Y-16100000D03*
X25125000Y-18000000D03*
X25125000Y-19900000D03*
X25125000Y-21800000D03*
D55*
X21800000Y-25125000D03*
X19900000Y-25125000D03*
X18000000Y-25125000D03*
X16100000Y-25125000D03*
X14200000Y-25125000D03*
%TD*%
D19*
%TO.C,R18*%
X87175000Y-79000000D03*
X88825000Y-79000000D03*
%TD*%
D18*
%TO.C,SW1*%
X107900000Y-88150000D03*
X114100000Y-88150000D03*
X107900000Y-91850000D03*
X114100000Y-91850000D03*
%TD*%
D19*
%TO.C,R21*%
X24175000Y-65000000D03*
X25825000Y-65000000D03*
%TD*%
%TO.C,R11*%
X131175000Y-66000000D03*
X132825000Y-66000000D03*
%TD*%
D39*
%TO.C,L2*%
X59650000Y-69000000D03*
X64350000Y-69000000D03*
%TD*%
D56*
%TO.C,J1*%
X32110000Y-88720000D03*
X37890000Y-88720000D03*
D57*
X31800000Y-87645000D03*
X32600000Y-87645000D03*
D58*
X33750000Y-87645000D03*
X34750000Y-87645000D03*
X35250000Y-87645000D03*
X36250000Y-87645000D03*
D57*
X37400000Y-87645000D03*
X38200000Y-87645000D03*
X38200000Y-87645000D03*
X37400000Y-87645000D03*
D58*
X36750000Y-87645000D03*
X35750000Y-87645000D03*
X34250000Y-87645000D03*
X33250000Y-87645000D03*
D57*
X32600000Y-87645000D03*
X31800000Y-87645000D03*
D59*
X30680000Y-88220000D03*
D60*
X30680000Y-92400000D03*
D59*
X39320000Y-88220000D03*
D60*
X39320000Y-92400000D03*
%TD*%
D19*
%TO.C,R22*%
X27175000Y-64000000D03*
X28825000Y-64000000D03*
%TD*%
D22*
%TO.C,C25*%
X103050000Y-47000000D03*
X104950000Y-47000000D03*
%TD*%
D14*
%TO.C,H2*%
X145000000Y-5000000D03*
%TD*%
D61*
%TO.C,C26*%
X103500000Y-61500000D03*
X111500000Y-61500000D03*
%TD*%
D19*
%TO.C,R30*%
X108175000Y-50000000D03*
X109825000Y-50000000D03*
%TD*%
D35*
%TO.C,C6*%
X65225000Y-46000000D03*
X66775000Y-46000000D03*
%TD*%
D62*
%TO.C,D2*%
X113800000Y-82000000D03*
X118200000Y-82000000D03*
%TD*%
D13*
%TO.C,C4*%
X94525000Y-66000000D03*
X97475000Y-66000000D03*
%TD*%
D35*
%TO.C,C24*%
X103225000Y-43000000D03*
X104775000Y-43000000D03*
%TD*%
%TO.C,C9*%
X120225000Y-20000000D03*
X121775000Y-20000000D03*
%TD*%
D19*
%TO.C,R23*%
X32175000Y-65000000D03*
X33825000Y-65000000D03*
%TD*%
D33*
%TO.C,TP3*%
X63000000Y-52000000D03*
%TD*%
D35*
%TO.C,C11*%
X26225000Y-53000000D03*
X27775000Y-53000000D03*
%TD*%
%TO.C,C15*%
X144225000Y-82000000D03*
X145775000Y-82000000D03*
%TD*%
D19*
%TO.C,R8*%
X29175000Y-14000000D03*
X30825000Y-14000000D03*
%TD*%
D63*
%TO.C,U5*%
X50240000Y-68000000D03*
D64*
X50525000Y-68000000D03*
D63*
X50240000Y-68500000D03*
D64*
X50525000Y-68500000D03*
D63*
X50240000Y-69000000D03*
D64*
X50525000Y-69000000D03*
D63*
X50240000Y-69500000D03*
D64*
X50525000Y-69500000D03*
D63*
X50240000Y-70000000D03*
D64*
X50525000Y-70000000D03*
X53475000Y-70000000D03*
D63*
X53760000Y-70000000D03*
D64*
X53475000Y-69500000D03*
D63*
X53760000Y-69500000D03*
D64*
X53475000Y-69000000D03*
D63*
X53760000Y-69000000D03*
D64*
X53475000Y-68500000D03*
D63*
X53760000Y-68500000D03*
D64*
X53475000Y-68000000D03*
D63*
X53760000Y-68000000D03*
D31*
X51500000Y-68250000D03*
X51500000Y-69750000D03*
D65*
X51550000Y-68365000D03*
X51550000Y-69635000D03*
D66*
X51750000Y-67370000D03*
D67*
X51750000Y-67450000D03*
X51750000Y-70550000D03*
D66*
X51750000Y-70630000D03*
D31*
X52000000Y-69000000D03*
D68*
X52000000Y-69000000D03*
D66*
X52250000Y-67370000D03*
D67*
X52250000Y-67450000D03*
X52250000Y-70550000D03*
D66*
X52250000Y-70630000D03*
D65*
X52450000Y-68365000D03*
X52450000Y-69635000D03*
D31*
X52500000Y-68250000D03*
X52500000Y-69750000D03*
%TD*%
D69*
%TO.C,J2*%
X137550000Y-73105000D03*
X137550000Y-72005000D03*
X137550000Y-70905000D03*
X137550000Y-69805000D03*
X137550000Y-68705000D03*
X137550000Y-67605000D03*
X137550000Y-66505000D03*
D70*
X137550000Y-65455000D03*
D71*
X143700000Y-75740000D03*
X147400000Y-75740000D03*
D72*
X137675000Y-75565000D03*
D73*
X148375000Y-72240000D03*
X148375000Y-66270000D03*
D74*
X137900000Y-64245000D03*
%TD*%
D33*
%TO.C,TP2*%
X57000000Y-52000000D03*
%TD*%
D14*
%TO.C,H4*%
X5000000Y-90000000D03*
%TD*%
D33*
%TO.C,TP1*%
X51000000Y-52000000D03*
%TD*%
%LPD*%
M02*
