%TF.GenerationSoftware,KiCad,Pcbnew,10.0.5*%
%TF.CreationDate,2026-08-13T00:09:28+03:00*%
%TF.ProjectId,skysweep32_rev_c,736b7973-7765-4657-9033-325f7265765f,rev?*%
%TF.SameCoordinates,Original*%
%TF.FileFunction,Soldermask,Top*%
%TF.FilePolarity,Negative*%
%FSLAX46Y46*%
G04 Gerber Fmt 4.6, Leading zero omitted, Abs format (unit mm)*
G04 Created by KiCad (PCBNEW 10.0.5) date 2026-08-13 00:09:28*
%MOMM*%
%LPD*%
G01*
G04 APERTURE LIST*
G04 Aperture macros list*
%AMRoundRect*
0 Rectangle with rounded corners*
0 $1 Rounding radius*
0 $2 $3 $4 $5 $6 $7 $8 $9 X,Y pos of 4 corners*
0 Add a 4 corners polygon primitive as box body*
4,1,4,$2,$3,$4,$5,$6,$7,$8,$9,$2,$3,0*
0 Add four circle primitives for the rounded corners*
1,1,$1+$1,$2,$3*
1,1,$1+$1,$4,$5*
1,1,$1+$1,$6,$7*
1,1,$1+$1,$8,$9*
0 Add four rect primitives between the rounded corners*
20,1,$1+$1,$2,$3,$4,$5,0*
20,1,$1+$1,$4,$5,$6,$7,0*
20,1,$1+$1,$6,$7,$8,$9,0*
20,1,$1+$1,$8,$9,$2,$3,0*%
G04 Aperture macros list end*
%ADD10RoundRect,0.150000X-0.512500X-0.150000X0.512500X-0.150000X0.512500X0.150000X-0.512500X0.150000X0*%
%ADD11C,3.200000*%
%ADD12RoundRect,0.200000X-0.200000X-0.275000X0.200000X-0.275000X0.200000X0.275000X-0.200000X0.275000X0*%
%ADD13R,1.000000X0.800000*%
%ADD14RoundRect,0.160000X-0.340000X-0.240000X0.340000X-0.240000X0.340000X0.240000X-0.340000X0.240000X0*%
%ADD15RoundRect,0.250000X-0.325000X-0.650000X0.325000X-0.650000X0.325000X0.650000X-0.325000X0.650000X0*%
%ADD16RoundRect,0.250000X0.650000X-1.000000X0.650000X1.000000X-0.650000X1.000000X-0.650000X-1.000000X0*%
%ADD17RoundRect,0.225000X-0.225000X-0.250000X0.225000X-0.250000X0.225000X0.250000X-0.225000X0.250000X0*%
%ADD18RoundRect,0.062500X-0.375000X-0.062500X0.375000X-0.062500X0.375000X0.062500X-0.375000X0.062500X0*%
%ADD19RoundRect,0.062500X-0.062500X-0.375000X0.062500X-0.375000X0.062500X0.375000X-0.062500X0.375000X0*%
%ADD20R,1.600000X1.600000*%
%ADD21R,1.600000X5.700000*%
%ADD22C,1.000000*%
%ADD23C,0.650000*%
%ADD24RoundRect,0.150000X-0.150000X-0.425000X0.150000X-0.425000X0.150000X0.425000X-0.150000X0.425000X0*%
%ADD25RoundRect,0.075000X-0.075000X-0.500000X0.075000X-0.500000X0.075000X0.500000X-0.075000X0.500000X0*%
%ADD26O,1.000000X2.100000*%
%ADD27O,1.000000X1.800000*%
%ADD28RoundRect,0.250000X-0.250000X-0.475000X0.250000X-0.475000X0.250000X0.475000X-0.250000X0.475000X0*%
%ADD29RoundRect,0.218750X-0.218750X-0.256250X0.218750X-0.256250X0.218750X0.256250X-0.218750X0.256250X0*%
%ADD30RoundRect,0.250000X-1.750000X-1.000000X1.750000X-1.000000X1.750000X1.000000X-1.750000X1.000000X0*%
%ADD31RoundRect,0.250000X-0.450000X-0.800000X0.450000X-0.800000X0.450000X0.800000X-0.450000X0.800000X0*%
%ADD32R,5.080000X1.500000*%
%ADD33RoundRect,0.150000X-0.150000X-0.625000X0.150000X-0.625000X0.150000X0.625000X-0.150000X0.625000X0*%
%ADD34RoundRect,0.250000X-0.350000X-0.650000X0.350000X-0.650000X0.350000X0.650000X-0.350000X0.650000X0*%
%ADD35RoundRect,0.250000X0.800000X-0.450000X0.800000X0.450000X-0.800000X0.450000X-0.800000X-0.450000X0*%
%ADD36RoundRect,0.062500X-0.287500X-0.062500X0.287500X-0.062500X0.287500X0.062500X-0.287500X0.062500X0*%
%ADD37R,0.900000X1.300000*%
%ADD38RoundRect,0.150000X-0.587500X-0.150000X0.587500X-0.150000X0.587500X0.150000X-0.587500X0.150000X0*%
%ADD39RoundRect,0.250000X-0.350000X-0.625000X0.350000X-0.625000X0.350000X0.625000X-0.350000X0.625000X0*%
%ADD40O,1.200000X1.750000*%
%ADD41R,1.500000X0.900000*%
%ADD42R,0.900000X1.500000*%
%ADD43C,0.600000*%
%ADD44R,3.900000X3.900000*%
%ADD45O,2.200000X3.500000*%
%ADD46R,1.500000X2.500000*%
%ADD47O,1.500000X2.500000*%
%ADD48R,2.000000X1.600000*%
%ADD49RoundRect,0.320000X-0.680000X-0.480000X0.680000X-0.480000X0.680000X0.480000X-0.680000X0.480000X0*%
%ADD50RoundRect,0.250000X-0.250000X-1.500000X0.250000X-1.500000X0.250000X1.500000X-0.250000X1.500000X0*%
%ADD51RoundRect,0.250001X-0.499999X-1.449999X0.499999X-1.449999X0.499999X1.449999X-0.499999X1.449999X0*%
%ADD52RoundRect,0.250000X1.450000X-0.312500X1.450000X0.312500X-1.450000X0.312500X-1.450000X-0.312500X0*%
%ADD53R,1.800000X1.100000*%
%ADD54RoundRect,0.160000X-0.740000X-0.240000X0.740000X-0.240000X0.740000X0.240000X-0.740000X0.240000X0*%
%ADD55R,1.100000X0.850000*%
%ADD56R,1.100000X0.750000*%
%ADD57R,1.000000X1.200000*%
%ADD58R,1.350000X1.550000*%
%ADD59R,1.350000X1.900000*%
%ADD60R,1.800000X1.170000*%
%ADD61R,0.280000X0.280000*%
%ADD62O,0.850000X0.280000*%
%ADD63R,0.680000X1.050000*%
%ADD64R,0.260000X0.500000*%
%ADD65R,0.280000X0.700000*%
%ADD66R,1.650000X2.400000*%
%ADD67R,2.200000X3.000000*%
%ADD68RoundRect,0.440000X-0.660000X-1.060000X0.660000X-1.060000X0.660000X1.060000X-0.660000X1.060000X0*%
%ADD69R,2.750000X1.600000*%
%ADD70RoundRect,0.240000X-1.135000X-0.560000X1.135000X-0.560000X1.135000X0.560000X-1.135000X0.560000X0*%
%ADD71RoundRect,0.240000X0.560000X-1.135000X0.560000X1.135000X-0.560000X1.135000X-0.560000X-1.135000X0*%
G04 APERTURE END LIST*
D10*
%TO.C,U3*%
X77862500Y-68050000D03*
X77862500Y-69000000D03*
X77862500Y-69950000D03*
X80137500Y-69950000D03*
X80137500Y-69000000D03*
X80137500Y-68050000D03*
%TD*%
D11*
%TO.C,H4*%
X5000000Y-90000000D03*
%TD*%
D12*
%TO.C,R29*%
X108175000Y-46000000D03*
X109825000Y-46000000D03*
%TD*%
%TO.C,R9*%
X29175000Y-20000000D03*
X30825000Y-20000000D03*
%TD*%
D13*
%TO.C,RF1*%
X124500000Y-10510000D03*
D14*
X124500000Y-11780000D03*
X124500000Y-13050000D03*
X124500000Y-14320000D03*
X124500000Y-15590000D03*
X124500000Y-16860000D03*
X124500000Y-18130000D03*
X139500000Y-18130000D03*
X139500000Y-16860000D03*
X139500000Y-15590000D03*
X139500000Y-14320000D03*
X139500000Y-13050000D03*
X139500000Y-11780000D03*
X139500000Y-10510000D03*
%TD*%
D12*
%TO.C,R8*%
X29175000Y-14000000D03*
X30825000Y-14000000D03*
%TD*%
D15*
%TO.C,C17*%
X23525000Y-77000000D03*
X26475000Y-77000000D03*
%TD*%
D16*
%TO.C,D1*%
X49000000Y-89000000D03*
X49000000Y-85000000D03*
%TD*%
D12*
%TO.C,R14*%
X131175000Y-78000000D03*
X132825000Y-78000000D03*
%TD*%
D17*
%TO.C,C29*%
X13225000Y-75000000D03*
X14775000Y-75000000D03*
%TD*%
D18*
%TO.C,U4*%
X27562500Y-69250000D03*
X27562500Y-69750000D03*
X27562500Y-70250000D03*
X27562500Y-70750000D03*
D19*
X28250000Y-71437500D03*
X28750000Y-71437500D03*
X29250000Y-71437500D03*
X29750000Y-71437500D03*
D18*
X30437500Y-70750000D03*
X30437500Y-70250000D03*
X30437500Y-69750000D03*
X30437500Y-69250000D03*
D19*
X29750000Y-68562500D03*
X29250000Y-68562500D03*
X28750000Y-68562500D03*
X28250000Y-68562500D03*
D20*
X29000000Y-70000000D03*
%TD*%
D17*
%TO.C,C2*%
X82225000Y-64000000D03*
X83775000Y-64000000D03*
%TD*%
D12*
%TO.C,R12*%
X131175000Y-70000000D03*
X132825000Y-70000000D03*
%TD*%
D17*
%TO.C,C15*%
X144225000Y-82000000D03*
X145775000Y-82000000D03*
%TD*%
D12*
%TO.C,R6*%
X120175000Y-85000000D03*
X121825000Y-85000000D03*
%TD*%
%TO.C,R24*%
X34175000Y-70000000D03*
X35825000Y-70000000D03*
%TD*%
D21*
%TO.C,L1*%
X86650000Y-69000000D03*
X91350000Y-69000000D03*
%TD*%
D12*
%TO.C,R21*%
X24175000Y-65000000D03*
X25825000Y-65000000D03*
%TD*%
%TO.C,R30*%
X108175000Y-50000000D03*
X109825000Y-50000000D03*
%TD*%
D22*
%TO.C,TP2*%
X57000000Y-52000000D03*
%TD*%
D12*
%TO.C,R20*%
X20175000Y-67000000D03*
X21825000Y-67000000D03*
%TD*%
D23*
%TO.C,J1*%
X32110000Y-88720000D03*
X37890000Y-88720000D03*
D24*
X31800000Y-87645000D03*
X32600000Y-87645000D03*
D25*
X33750000Y-87645000D03*
X34750000Y-87645000D03*
X35250000Y-87645000D03*
X36250000Y-87645000D03*
D24*
X37400000Y-87645000D03*
X38200000Y-87645000D03*
X38200000Y-87645000D03*
X37400000Y-87645000D03*
D25*
X36750000Y-87645000D03*
X35750000Y-87645000D03*
X34250000Y-87645000D03*
X33250000Y-87645000D03*
D24*
X32600000Y-87645000D03*
X31800000Y-87645000D03*
D26*
X30680000Y-88220000D03*
D27*
X30680000Y-92400000D03*
D26*
X39320000Y-88220000D03*
D27*
X39320000Y-92400000D03*
%TD*%
D28*
%TO.C,C8*%
X120050000Y-16000000D03*
X121950000Y-16000000D03*
%TD*%
D29*
%TO.C,D3*%
X105212500Y-84000000D03*
X106787500Y-84000000D03*
%TD*%
D12*
%TO.C,R7*%
X132175000Y-85000000D03*
X133825000Y-85000000D03*
%TD*%
%TO.C,R19*%
X89175000Y-83000000D03*
X90825000Y-83000000D03*
%TD*%
D30*
%TO.C,C26*%
X103500000Y-61500000D03*
X111500000Y-61500000D03*
%TD*%
D31*
%TO.C,D2*%
X113800000Y-82000000D03*
X118200000Y-82000000D03*
%TD*%
D12*
%TO.C,R13*%
X131175000Y-74000000D03*
X132825000Y-74000000D03*
%TD*%
D32*
%TO.C,J7*%
X147450000Y-40640000D03*
X147450000Y-36390000D03*
X147450000Y-44890000D03*
%TD*%
D28*
%TO.C,C16*%
X79050000Y-82000000D03*
X80950000Y-82000000D03*
%TD*%
D33*
%TO.C,J3*%
X76500000Y-87000000D03*
X77500000Y-87000000D03*
X78500000Y-87000000D03*
X79500000Y-87000000D03*
D34*
X75200000Y-90875000D03*
X80800000Y-90875000D03*
%TD*%
D11*
%TO.C,H3*%
X145000000Y-90000000D03*
%TD*%
D22*
%TO.C,TP6*%
X81000000Y-52000000D03*
%TD*%
D17*
%TO.C,C13*%
X22225000Y-31000000D03*
X23775000Y-31000000D03*
%TD*%
D35*
%TO.C,D4*%
X84000000Y-88200000D03*
X84000000Y-83800000D03*
%TD*%
D12*
%TO.C,R11*%
X131175000Y-66000000D03*
X132825000Y-66000000D03*
%TD*%
D22*
%TO.C,TP3*%
X63000000Y-52000000D03*
%TD*%
D15*
%TO.C,C23*%
X67525000Y-69000000D03*
X70475000Y-69000000D03*
%TD*%
D12*
%TO.C,R17*%
X109175000Y-84000000D03*
X110825000Y-84000000D03*
%TD*%
%TO.C,R4*%
X44175000Y-78500000D03*
X45825000Y-78500000D03*
%TD*%
D36*
%TO.C,U6*%
X13000000Y-70250000D03*
X13000000Y-70750000D03*
X13000000Y-71250000D03*
X13000000Y-71750000D03*
X15000000Y-71750000D03*
X15000000Y-71250000D03*
X15000000Y-70750000D03*
X15000000Y-70250000D03*
D37*
X14000000Y-71000000D03*
%TD*%
D15*
%TO.C,C18*%
X25525000Y-62000000D03*
X28475000Y-62000000D03*
%TD*%
D22*
%TO.C,TP8*%
X93000000Y-52000000D03*
%TD*%
D38*
%TO.C,Q1*%
X114062500Y-71050000D03*
X114062500Y-72950000D03*
X115937500Y-72000000D03*
%TD*%
D39*
%TO.C,J4*%
X92000000Y-88000000D03*
D40*
X94000000Y-88000000D03*
%TD*%
D28*
%TO.C,C14*%
X139050000Y-82000000D03*
X140950000Y-82000000D03*
%TD*%
D22*
%TO.C,TP1*%
X51000000Y-52000000D03*
%TD*%
D32*
%TO.C,J5*%
X2550000Y-50000000D03*
X2550000Y-54250000D03*
X2550000Y-45750000D03*
%TD*%
D11*
%TO.C,H2*%
X145000000Y-5000000D03*
%TD*%
D15*
%TO.C,C3*%
X94525000Y-62000000D03*
X97475000Y-62000000D03*
%TD*%
D28*
%TO.C,C10*%
X26050000Y-49000000D03*
X27950000Y-49000000D03*
%TD*%
D12*
%TO.C,R28*%
X108175000Y-42000000D03*
X109825000Y-42000000D03*
%TD*%
D10*
%TO.C,U2*%
X38862500Y-76050000D03*
X38862500Y-77000000D03*
X38862500Y-77950000D03*
X41137500Y-77950000D03*
X41137500Y-77000000D03*
X41137500Y-76050000D03*
%TD*%
D12*
%TO.C,R10*%
X29175000Y-25000000D03*
X30825000Y-25000000D03*
%TD*%
D22*
%TO.C,TP7*%
X87000000Y-52000000D03*
%TD*%
D12*
%TO.C,R2*%
X30175000Y-82000000D03*
X31825000Y-82000000D03*
%TD*%
D15*
%TO.C,C22*%
X67525000Y-64000000D03*
X70475000Y-64000000D03*
%TD*%
D28*
%TO.C,C5*%
X61050000Y-46000000D03*
X62950000Y-46000000D03*
%TD*%
D41*
%TO.C,U1*%
X63250000Y-23740000D03*
X63250000Y-25010000D03*
X63250000Y-26280000D03*
X63250000Y-27550000D03*
X63250000Y-28820000D03*
X63250000Y-30090000D03*
X63250000Y-31360000D03*
X63250000Y-32630000D03*
X63250000Y-33900000D03*
X63250000Y-35170000D03*
X63250000Y-36440000D03*
X63250000Y-37710000D03*
X63250000Y-38980000D03*
X63250000Y-40250000D03*
D42*
X65015000Y-41500000D03*
X66285000Y-41500000D03*
X67555000Y-41500000D03*
X68825000Y-41500000D03*
X70095000Y-41500000D03*
X71365000Y-41500000D03*
X72635000Y-41500000D03*
X73905000Y-41500000D03*
X75175000Y-41500000D03*
X76445000Y-41500000D03*
X77715000Y-41500000D03*
X78985000Y-41500000D03*
D41*
X80750000Y-40250000D03*
X80750000Y-38980000D03*
X80750000Y-37710000D03*
X80750000Y-36440000D03*
X80750000Y-35170000D03*
X80750000Y-33900000D03*
X80750000Y-32630000D03*
X80750000Y-31360000D03*
X80750000Y-30090000D03*
X80750000Y-28820000D03*
X80750000Y-27550000D03*
X80750000Y-26280000D03*
X80750000Y-25010000D03*
X80750000Y-23740000D03*
D43*
X69100000Y-30760000D03*
X69100000Y-32160000D03*
X69800000Y-30060000D03*
X69800000Y-31460000D03*
X69800000Y-32860000D03*
X70500000Y-30760000D03*
D44*
X70500000Y-31460000D03*
D43*
X70500000Y-32160000D03*
X71200000Y-30060000D03*
X71200000Y-31460000D03*
X71200000Y-32860000D03*
X71900000Y-30760000D03*
X71900000Y-32160000D03*
%TD*%
D12*
%TO.C,R3*%
X44175000Y-75500000D03*
X45825000Y-75500000D03*
%TD*%
D45*
%TO.C,SW4*%
X55900000Y-89000000D03*
X64100000Y-89000000D03*
D46*
X58000000Y-89000000D03*
D47*
X60000000Y-89000000D03*
X62000000Y-89000000D03*
%TD*%
D48*
%TO.C,RF3*%
X141800000Y-38100000D03*
D49*
X141800000Y-40640000D03*
X141800000Y-43180000D03*
X141800000Y-45720000D03*
X141800000Y-48260000D03*
X141800000Y-50800000D03*
X141800000Y-53340000D03*
X141800000Y-55880000D03*
X141800000Y-58420000D03*
X114200000Y-53320000D03*
X114200000Y-55860000D03*
X114200000Y-58400000D03*
%TD*%
D12*
%TO.C,R31*%
X104175000Y-53000000D03*
X105825000Y-53000000D03*
%TD*%
D17*
%TO.C,C11*%
X26225000Y-53000000D03*
X27775000Y-53000000D03*
%TD*%
%TO.C,C9*%
X120225000Y-20000000D03*
X121775000Y-20000000D03*
%TD*%
D50*
%TO.C,J6*%
X17000000Y-86950000D03*
X19000000Y-86950000D03*
D51*
X14650000Y-92700000D03*
X21350000Y-92700000D03*
%TD*%
D22*
%TO.C,TP4*%
X69000000Y-52000000D03*
%TD*%
D52*
%TO.C,F1*%
X43000000Y-86137500D03*
X43000000Y-81862500D03*
%TD*%
D12*
%TO.C,R26*%
X11175000Y-80000000D03*
X12825000Y-80000000D03*
%TD*%
D38*
%TO.C,Q2*%
X91062500Y-78050000D03*
X91062500Y-79950000D03*
X92937500Y-79000000D03*
%TD*%
D17*
%TO.C,C6*%
X65225000Y-46000000D03*
X66775000Y-46000000D03*
%TD*%
D15*
%TO.C,C21*%
X42525000Y-69000000D03*
X45475000Y-69000000D03*
%TD*%
D53*
%TO.C,SW3*%
X131900000Y-88150000D03*
X138100000Y-88150000D03*
X131900000Y-91850000D03*
X138100000Y-91850000D03*
%TD*%
D54*
%TO.C,RF2*%
X21750000Y-43000000D03*
X21750000Y-44270000D03*
X21750000Y-45540000D03*
X21750000Y-51910000D03*
X21750000Y-53180000D03*
X21750000Y-54450000D03*
X21750000Y-55720000D03*
X21750000Y-56990000D03*
X21750000Y-58260000D03*
X21750000Y-59530000D03*
X21750000Y-60800000D03*
X8250000Y-60800000D03*
X8250000Y-59530000D03*
X8250000Y-58260000D03*
X8250000Y-56990000D03*
X8250000Y-55720000D03*
X8250000Y-54450000D03*
X8250000Y-53180000D03*
X8250000Y-51910000D03*
X8250000Y-45540000D03*
X8250000Y-44270000D03*
X8250000Y-43000000D03*
%TD*%
D15*
%TO.C,C20*%
X42525000Y-64000000D03*
X45475000Y-64000000D03*
%TD*%
D12*
%TO.C,R25*%
X25175000Y-86000000D03*
X26825000Y-86000000D03*
%TD*%
D15*
%TO.C,C1*%
X53525000Y-82000000D03*
X56475000Y-82000000D03*
%TD*%
D55*
%TO.C,J2*%
X137550000Y-73105000D03*
X137550000Y-72005000D03*
X137550000Y-70905000D03*
X137550000Y-69805000D03*
X137550000Y-68705000D03*
X137550000Y-67605000D03*
X137550000Y-66505000D03*
D56*
X137550000Y-65455000D03*
D57*
X143700000Y-75740000D03*
X147400000Y-75740000D03*
D58*
X137675000Y-75565000D03*
D59*
X148375000Y-72240000D03*
X148375000Y-66270000D03*
D60*
X137900000Y-64245000D03*
%TD*%
D29*
%TO.C,D5*%
X21212500Y-81000000D03*
X22787500Y-81000000D03*
%TD*%
D21*
%TO.C,L2*%
X59650000Y-69000000D03*
X64350000Y-69000000D03*
%TD*%
D12*
%TO.C,R15*%
X114175000Y-67000000D03*
X115825000Y-67000000D03*
%TD*%
D53*
%TO.C,SW2*%
X119900000Y-88150000D03*
X126100000Y-88150000D03*
X119900000Y-91850000D03*
X126100000Y-91850000D03*
%TD*%
D17*
%TO.C,C30*%
X100225000Y-53000000D03*
X101775000Y-53000000D03*
%TD*%
D12*
%TO.C,R22*%
X27175000Y-64000000D03*
X28825000Y-64000000D03*
%TD*%
%TO.C,R5*%
X71175000Y-46000000D03*
X72825000Y-46000000D03*
%TD*%
D61*
%TO.C,U5*%
X50240000Y-68000000D03*
D62*
X50525000Y-68000000D03*
D61*
X50240000Y-68500000D03*
D62*
X50525000Y-68500000D03*
D61*
X50240000Y-69000000D03*
D62*
X50525000Y-69000000D03*
D61*
X50240000Y-69500000D03*
D62*
X50525000Y-69500000D03*
D61*
X50240000Y-70000000D03*
D62*
X50525000Y-70000000D03*
X53475000Y-70000000D03*
D61*
X53760000Y-70000000D03*
D62*
X53475000Y-69500000D03*
D61*
X53760000Y-69500000D03*
D62*
X53475000Y-69000000D03*
D61*
X53760000Y-69000000D03*
D62*
X53475000Y-68500000D03*
D61*
X53760000Y-68500000D03*
D62*
X53475000Y-68000000D03*
D61*
X53760000Y-68000000D03*
D43*
X51500000Y-68250000D03*
X51500000Y-69750000D03*
D63*
X51550000Y-68365000D03*
X51550000Y-69635000D03*
D64*
X51750000Y-67370000D03*
D65*
X51750000Y-67450000D03*
X51750000Y-70550000D03*
D64*
X51750000Y-70630000D03*
D43*
X52000000Y-69000000D03*
D66*
X52000000Y-69000000D03*
D64*
X52250000Y-67370000D03*
D65*
X52250000Y-67450000D03*
X52250000Y-70550000D03*
D64*
X52250000Y-70630000D03*
D63*
X52450000Y-68365000D03*
X52450000Y-69635000D03*
D43*
X52500000Y-68250000D03*
X52500000Y-69750000D03*
%TD*%
D12*
%TO.C,R27*%
X15175000Y-80000000D03*
X16825000Y-80000000D03*
%TD*%
D67*
%TO.C,BZ1*%
X99500000Y-76000000D03*
D68*
X108500000Y-76000000D03*
%TD*%
D22*
%TO.C,TP5*%
X75000000Y-52000000D03*
%TD*%
D11*
%TO.C,H1*%
X5000000Y-5000000D03*
%TD*%
D28*
%TO.C,C25*%
X103050000Y-47000000D03*
X104950000Y-47000000D03*
%TD*%
D15*
%TO.C,C19*%
X34525000Y-63000000D03*
X37475000Y-63000000D03*
%TD*%
D17*
%TO.C,C24*%
X103225000Y-43000000D03*
X104775000Y-43000000D03*
%TD*%
D12*
%TO.C,R1*%
X26175000Y-82000000D03*
X27825000Y-82000000D03*
%TD*%
%TO.C,R23*%
X32175000Y-65000000D03*
X33825000Y-65000000D03*
%TD*%
%TO.C,R16*%
X119175000Y-75000000D03*
X120825000Y-75000000D03*
%TD*%
D17*
%TO.C,C7*%
X75225000Y-46000000D03*
X76775000Y-46000000D03*
%TD*%
D69*
%TO.C,GPS1*%
X10875000Y-21800000D03*
D70*
X10875000Y-19900000D03*
X10875000Y-18000000D03*
X10875000Y-16100000D03*
X10875000Y-14200000D03*
D71*
X14200000Y-10875000D03*
X16100000Y-10875000D03*
X18000000Y-10875000D03*
X19900000Y-10875000D03*
X21800000Y-10875000D03*
D70*
X25125000Y-14200000D03*
X25125000Y-16100000D03*
X25125000Y-18000000D03*
X25125000Y-19900000D03*
X25125000Y-21800000D03*
D71*
X21800000Y-25125000D03*
X19900000Y-25125000D03*
X18000000Y-25125000D03*
X16100000Y-25125000D03*
X14200000Y-25125000D03*
%TD*%
D12*
%TO.C,R18*%
X87175000Y-79000000D03*
X88825000Y-79000000D03*
%TD*%
D28*
%TO.C,C12*%
X17050000Y-31000000D03*
X18950000Y-31000000D03*
%TD*%
D15*
%TO.C,C4*%
X94525000Y-66000000D03*
X97475000Y-66000000D03*
%TD*%
D53*
%TO.C,SW1*%
X107900000Y-88150000D03*
X114100000Y-88150000D03*
X107900000Y-91850000D03*
X114100000Y-91850000D03*
%TD*%
M02*
