%TF.GenerationSoftware,KiCad,Pcbnew,10.0.5*%
%TF.CreationDate,2026-08-12T23:59:53+03:00*%
%TF.ProjectId,skysweep32_rev_c,736b7973-7765-4657-9033-325f7265765f,rev?*%
%TF.SameCoordinates,Original*%
%TF.FileFunction,Copper,L1,Top*%
%TF.FilePolarity,Positive*%
%FSLAX46Y46*%
G04 Gerber Fmt 4.6, Leading zero omitted, Abs format (unit mm)*
G04 Created by KiCad (PCBNEW 10.0.5) date 2026-08-12 23:59:53*
%MOMM*%
%LPD*%
G01*
G04 APERTURE LIST*
G04 Aperture macros list*
%AMRoundRect*
0 Rectangle with rounded corners*
0 $1 Rounding radius*
0 $2 $3 $4 $5 $6 $7 $8 $9 X,Y pos of 4 corners*
0 Add a 4 corners polygon primitive as box body*
4,1,4,$2,$3,$4,$5,$6,$7,$8,$9,$2,$3,0*
0 Add four circle primitives for the rounded corners*
1,1,$1+$1,$2,$3*
1,1,$1+$1,$4,$5*
1,1,$1+$1,$6,$7*
1,1,$1+$1,$8,$9*
0 Add four rect primitives between the rounded corners*
20,1,$1+$1,$2,$3,$4,$5,0*
20,1,$1+$1,$4,$5,$6,$7,0*
20,1,$1+$1,$6,$7,$8,$9,0*
20,1,$1+$1,$8,$9,$2,$3,0*%
G04 Aperture macros list end*
%TA.AperFunction,SMDPad,CuDef*%
%ADD10RoundRect,0.150000X-0.512500X-0.150000X0.512500X-0.150000X0.512500X0.150000X-0.512500X0.150000X0*%
%TD*%
%TA.AperFunction,SMDPad,CuDef*%
%ADD11RoundRect,0.200000X-0.200000X-0.275000X0.200000X-0.275000X0.200000X0.275000X-0.200000X0.275000X0*%
%TD*%
%TA.AperFunction,SMDPad,CuDef*%
%ADD12R,1.000000X0.800000*%
%TD*%
%TA.AperFunction,SMDPad,CuDef*%
%ADD13RoundRect,0.160000X-0.340000X-0.240000X0.340000X-0.240000X0.340000X0.240000X-0.340000X0.240000X0*%
%TD*%
%TA.AperFunction,SMDPad,CuDef*%
%ADD14RoundRect,0.250000X-0.325000X-0.650000X0.325000X-0.650000X0.325000X0.650000X-0.325000X0.650000X0*%
%TD*%
%TA.AperFunction,SMDPad,CuDef*%
%ADD15RoundRect,0.250000X0.650000X-1.000000X0.650000X1.000000X-0.650000X1.000000X-0.650000X-1.000000X0*%
%TD*%
%TA.AperFunction,SMDPad,CuDef*%
%ADD16RoundRect,0.225000X-0.225000X-0.250000X0.225000X-0.250000X0.225000X0.250000X-0.225000X0.250000X0*%
%TD*%
%TA.AperFunction,SMDPad,CuDef*%
%ADD17RoundRect,0.062500X-0.375000X-0.062500X0.375000X-0.062500X0.375000X0.062500X-0.375000X0.062500X0*%
%TD*%
%TA.AperFunction,SMDPad,CuDef*%
%ADD18RoundRect,0.062500X-0.062500X-0.375000X0.062500X-0.375000X0.062500X0.375000X-0.062500X0.375000X0*%
%TD*%
%TA.AperFunction,HeatsinkPad*%
%ADD19R,1.600000X1.600000*%
%TD*%
%TA.AperFunction,SMDPad,CuDef*%
%ADD20R,1.600000X5.700000*%
%TD*%
%TA.AperFunction,SMDPad,CuDef*%
%ADD21C,1.000000*%
%TD*%
%TA.AperFunction,SMDPad,CuDef*%
%ADD22RoundRect,0.150000X-0.150000X-0.425000X0.150000X-0.425000X0.150000X0.425000X-0.150000X0.425000X0*%
%TD*%
%TA.AperFunction,SMDPad,CuDef*%
%ADD23RoundRect,0.075000X-0.075000X-0.500000X0.075000X-0.500000X0.075000X0.500000X-0.075000X0.500000X0*%
%TD*%
%TA.AperFunction,ComponentPad*%
%ADD24O,1.000000X2.100000*%
%TD*%
%TA.AperFunction,ComponentPad*%
%ADD25O,1.000000X1.800000*%
%TD*%
%TA.AperFunction,SMDPad,CuDef*%
%ADD26RoundRect,0.250000X-0.250000X-0.475000X0.250000X-0.475000X0.250000X0.475000X-0.250000X0.475000X0*%
%TD*%
%TA.AperFunction,SMDPad,CuDef*%
%ADD27RoundRect,0.218750X-0.218750X-0.256250X0.218750X-0.256250X0.218750X0.256250X-0.218750X0.256250X0*%
%TD*%
%TA.AperFunction,SMDPad,CuDef*%
%ADD28RoundRect,0.250000X-1.750000X-1.000000X1.750000X-1.000000X1.750000X1.000000X-1.750000X1.000000X0*%
%TD*%
%TA.AperFunction,SMDPad,CuDef*%
%ADD29RoundRect,0.250000X-0.450000X-0.800000X0.450000X-0.800000X0.450000X0.800000X-0.450000X0.800000X0*%
%TD*%
%TA.AperFunction,SMDPad,CuDef*%
%ADD30R,5.080000X1.500000*%
%TD*%
%TA.AperFunction,SMDPad,CuDef*%
%ADD31RoundRect,0.150000X-0.150000X-0.625000X0.150000X-0.625000X0.150000X0.625000X-0.150000X0.625000X0*%
%TD*%
%TA.AperFunction,SMDPad,CuDef*%
%ADD32RoundRect,0.250000X-0.350000X-0.650000X0.350000X-0.650000X0.350000X0.650000X-0.350000X0.650000X0*%
%TD*%
%TA.AperFunction,SMDPad,CuDef*%
%ADD33RoundRect,0.250000X0.800000X-0.450000X0.800000X0.450000X-0.800000X0.450000X-0.800000X-0.450000X0*%
%TD*%
%TA.AperFunction,SMDPad,CuDef*%
%ADD34RoundRect,0.062500X-0.287500X-0.062500X0.287500X-0.062500X0.287500X0.062500X-0.287500X0.062500X0*%
%TD*%
%TA.AperFunction,HeatsinkPad*%
%ADD35R,0.900000X1.300000*%
%TD*%
%TA.AperFunction,SMDPad,CuDef*%
%ADD36RoundRect,0.150000X-0.587500X-0.150000X0.587500X-0.150000X0.587500X0.150000X-0.587500X0.150000X0*%
%TD*%
%TA.AperFunction,ComponentPad*%
%ADD37RoundRect,0.250000X-0.350000X-0.625000X0.350000X-0.625000X0.350000X0.625000X-0.350000X0.625000X0*%
%TD*%
%TA.AperFunction,ComponentPad*%
%ADD38O,1.200000X1.750000*%
%TD*%
%TA.AperFunction,SMDPad,CuDef*%
%ADD39R,1.500000X0.900000*%
%TD*%
%TA.AperFunction,SMDPad,CuDef*%
%ADD40R,0.900000X1.500000*%
%TD*%
%TA.AperFunction,HeatsinkPad*%
%ADD41C,0.600000*%
%TD*%
%TA.AperFunction,HeatsinkPad*%
%ADD42R,3.900000X3.900000*%
%TD*%
%TA.AperFunction,ComponentPad*%
%ADD43O,2.200000X3.500000*%
%TD*%
%TA.AperFunction,ComponentPad*%
%ADD44R,1.500000X2.500000*%
%TD*%
%TA.AperFunction,ComponentPad*%
%ADD45O,1.500000X2.500000*%
%TD*%
%TA.AperFunction,SMDPad,CuDef*%
%ADD46R,2.000000X1.600000*%
%TD*%
%TA.AperFunction,SMDPad,CuDef*%
%ADD47RoundRect,0.320000X-0.680000X-0.480000X0.680000X-0.480000X0.680000X0.480000X-0.680000X0.480000X0*%
%TD*%
%TA.AperFunction,SMDPad,CuDef*%
%ADD48RoundRect,0.250000X-0.250000X-1.500000X0.250000X-1.500000X0.250000X1.500000X-0.250000X1.500000X0*%
%TD*%
%TA.AperFunction,SMDPad,CuDef*%
%ADD49RoundRect,0.250001X-0.499999X-1.449999X0.499999X-1.449999X0.499999X1.449999X-0.499999X1.449999X0*%
%TD*%
%TA.AperFunction,SMDPad,CuDef*%
%ADD50RoundRect,0.250000X1.450000X-0.312500X1.450000X0.312500X-1.450000X0.312500X-1.450000X-0.312500X0*%
%TD*%
%TA.AperFunction,SMDPad,CuDef*%
%ADD51R,1.800000X1.100000*%
%TD*%
%TA.AperFunction,SMDPad,CuDef*%
%ADD52RoundRect,0.160000X-0.740000X-0.240000X0.740000X-0.240000X0.740000X0.240000X-0.740000X0.240000X0*%
%TD*%
%TA.AperFunction,SMDPad,CuDef*%
%ADD53R,1.100000X0.850000*%
%TD*%
%TA.AperFunction,SMDPad,CuDef*%
%ADD54R,1.100000X0.750000*%
%TD*%
%TA.AperFunction,SMDPad,CuDef*%
%ADD55R,1.000000X1.200000*%
%TD*%
%TA.AperFunction,SMDPad,CuDef*%
%ADD56R,1.350000X1.550000*%
%TD*%
%TA.AperFunction,SMDPad,CuDef*%
%ADD57R,1.350000X1.900000*%
%TD*%
%TA.AperFunction,SMDPad,CuDef*%
%ADD58R,1.800000X1.170000*%
%TD*%
%TA.AperFunction,SMDPad,CuDef*%
%ADD59R,0.280000X0.280000*%
%TD*%
%TA.AperFunction,SMDPad,CuDef*%
%ADD60O,0.850000X0.280000*%
%TD*%
%TA.AperFunction,ComponentPad*%
%ADD61C,0.600000*%
%TD*%
%TA.AperFunction,SMDPad,CuDef*%
%ADD62R,0.680000X1.050000*%
%TD*%
%TA.AperFunction,SMDPad,CuDef*%
%ADD63R,0.260000X0.500000*%
%TD*%
%TA.AperFunction,SMDPad,CuDef*%
%ADD64R,0.280000X0.700000*%
%TD*%
%TA.AperFunction,SMDPad,CuDef*%
%ADD65R,1.650000X2.400000*%
%TD*%
%TA.AperFunction,SMDPad,CuDef*%
%ADD66R,2.200000X3.000000*%
%TD*%
%TA.AperFunction,SMDPad,CuDef*%
%ADD67RoundRect,0.440000X-0.660000X-1.060000X0.660000X-1.060000X0.660000X1.060000X-0.660000X1.060000X0*%
%TD*%
%TA.AperFunction,SMDPad,CuDef*%
%ADD68R,2.750000X1.600000*%
%TD*%
%TA.AperFunction,SMDPad,CuDef*%
%ADD69RoundRect,0.240000X-1.135000X-0.560000X1.135000X-0.560000X1.135000X0.560000X-1.135000X0.560000X0*%
%TD*%
%TA.AperFunction,SMDPad,CuDef*%
%ADD70RoundRect,0.240000X0.560000X-1.135000X0.560000X1.135000X-0.560000X1.135000X-0.560000X-1.135000X0*%
%TD*%
%TA.AperFunction,ViaPad*%
%ADD71C,0.900000*%
%TD*%
%TA.AperFunction,ViaPad*%
%ADD72C,0.700000*%
%TD*%
%TA.AperFunction,ViaPad*%
%ADD73C,0.800000*%
%TD*%
%TA.AperFunction,Conductor*%
%ADD74C,0.800000*%
%TD*%
%TA.AperFunction,Conductor*%
%ADD75C,0.601000*%
%TD*%
%TA.AperFunction,Conductor*%
%ADD76C,0.250000*%
%TD*%
%TA.AperFunction,Conductor*%
%ADD77C,0.279800*%
%TD*%
%TA.AperFunction,Conductor*%
%ADD78C,0.400000*%
%TD*%
%TA.AperFunction,Conductor*%
%ADD79C,0.280000*%
%TD*%
%TA.AperFunction,Conductor*%
%ADD80C,0.600000*%
%TD*%
%TA.AperFunction,Conductor*%
%ADD81C,0.500000*%
%TD*%
%TA.AperFunction,Conductor*%
%ADD82C,0.250200*%
%TD*%
%TA.AperFunction,Conductor*%
%ADD83C,0.300000*%
%TD*%
G04 APERTURE END LIST*
D10*
%TO.P,U3,1*%
%TO.N,3V3*%
X77862500Y-68050000D03*
%TO.P,U3,2*%
%TO.N,SYS_5V*%
X77862500Y-69000000D03*
%TO.P,U3,3*%
X77862500Y-69950000D03*
%TO.P,U3,4*%
%TO.N,GND*%
X80137500Y-69950000D03*
%TO.P,U3,5*%
%TO.N,BUCK_SW*%
X80137500Y-69000000D03*
%TO.P,U3,6*%
%TO.N,BUCK_BST*%
X80137500Y-68050000D03*
%TD*%
D11*
%TO.P,R29,1*%
%TO.N,RX5808_CH2*%
X108175000Y-46000000D03*
%TO.P,R29,2*%
%TO.N,GND*%
X109825000Y-46000000D03*
%TD*%
%TO.P,R9,1*%
%TO.N,I2C_SDA*%
X29175000Y-20000000D03*
%TO.P,R9,2*%
%TO.N,GPS_I2C_SDA*%
X30825000Y-20000000D03*
%TD*%
D12*
%TO.P,RF1,1*%
%TO.N,3V3*%
X124500000Y-10510000D03*
D13*
%TO.P,RF1,2*%
%TO.N,GND*%
X124500000Y-11780000D03*
%TO.P,RF1,3*%
%TO.N,RF_SPI_MISO*%
X124500000Y-13050000D03*
%TO.P,RF1,4*%
%TO.N,RF_SPI_MOSI*%
X124500000Y-14320000D03*
%TO.P,RF1,5*%
%TO.N,RF_SPI_SCK*%
X124500000Y-15590000D03*
%TO.P,RF1,6*%
%TO.N,SX1281_CSN*%
X124500000Y-16860000D03*
%TO.P,RF1,7*%
%TO.N,GND*%
X124500000Y-18130000D03*
%TO.P,RF1,8*%
X139500000Y-18130000D03*
%TO.P,RF1,9*%
%TO.N,SX1281_RESET*%
X139500000Y-16860000D03*
%TO.P,RF1,10*%
%TO.N,SX1281_BUSY*%
X139500000Y-15590000D03*
%TO.P,RF1,11*%
%TO.N,SX1281_DIO1*%
X139500000Y-14320000D03*
%TO.P,RF1,12*%
%TO.N,unconnected-(RF1-Pin_12-Pad12)*%
X139500000Y-13050000D03*
%TO.P,RF1,13*%
%TO.N,unconnected-(RF1-Pin_13-Pad13)*%
X139500000Y-11780000D03*
%TO.P,RF1,14*%
%TO.N,GND*%
X139500000Y-10510000D03*
%TD*%
D11*
%TO.P,R8,1*%
%TO.N,3V3*%
X29175000Y-14000000D03*
%TO.P,R8,2*%
%TO.N,GPS_RESET_N*%
X30825000Y-14000000D03*
%TD*%
D14*
%TO.P,C17,1*%
%TO.N,VBUS_PROTECTED*%
X23525000Y-77000000D03*
%TO.P,C17,2*%
%TO.N,GND*%
X26475000Y-77000000D03*
%TD*%
D15*
%TO.P,D1,1*%
%TO.N,VBUS_PROTECTED*%
X49000000Y-89000000D03*
%TO.P,D1,2*%
%TO.N,GND*%
X49000000Y-85000000D03*
%TD*%
D11*
%TO.P,R14,1*%
%TO.N,3V3*%
X131175000Y-78000000D03*
%TO.P,R14,2*%
%TO.N,SD_DETECT*%
X132825000Y-78000000D03*
%TD*%
D16*
%TO.P,C29,1*%
%TO.N,BAT_CELL*%
X13225000Y-75000000D03*
%TO.P,C29,2*%
%TO.N,GND*%
X14775000Y-75000000D03*
%TD*%
D17*
%TO.P,U4,1*%
%TO.N,BQ_TS*%
X27562500Y-69250000D03*
%TO.P,U4,2*%
%TO.N,BAT_CELL*%
X27562500Y-69750000D03*
%TO.P,U4,3*%
X27562500Y-70250000D03*
%TO.P,U4,4*%
%TO.N,GND*%
X27562500Y-70750000D03*
D18*
%TO.P,U4,5*%
%TO.N,VSYS_BAT*%
X28250000Y-71437500D03*
%TO.P,U4,6*%
%TO.N,GND*%
X28750000Y-71437500D03*
%TO.P,U4,7*%
%TO.N,unconnected-(U4-~{PGOOD}-Pad7)*%
X29250000Y-71437500D03*
%TO.P,U4,8*%
%TO.N,GND*%
X29750000Y-71437500D03*
D17*
%TO.P,U4,9*%
%TO.N,CHG_N*%
X30437500Y-70750000D03*
%TO.P,U4,10*%
%TO.N,VSYS_BAT*%
X30437500Y-70250000D03*
%TO.P,U4,11*%
X30437500Y-69750000D03*
%TO.P,U4,12*%
%TO.N,BQ_ILIM*%
X30437500Y-69250000D03*
D18*
%TO.P,U4,13*%
%TO.N,VBUS_PROTECTED*%
X29750000Y-68562500D03*
%TO.P,U4,14*%
%TO.N,BQ_TMR*%
X29250000Y-68562500D03*
%TO.P,U4,15*%
%TO.N,BQ_ITERM*%
X28750000Y-68562500D03*
%TO.P,U4,16*%
%TO.N,BQ_ISET*%
X28250000Y-68562500D03*
D19*
%TO.P,U4,17*%
%TO.N,GND*%
X29000000Y-70000000D03*
%TD*%
D16*
%TO.P,C2,1*%
%TO.N,BUCK_BST*%
X82225000Y-64000000D03*
%TO.P,C2,2*%
%TO.N,BUCK_SW*%
X83775000Y-64000000D03*
%TD*%
D11*
%TO.P,R12,1*%
%TO.N,3V3*%
X131175000Y-70000000D03*
%TO.P,R12,2*%
%TO.N,SD_DAT2*%
X132825000Y-70000000D03*
%TD*%
D16*
%TO.P,C15,1*%
%TO.N,3V3*%
X144225000Y-82000000D03*
%TO.P,C15,2*%
%TO.N,GND*%
X145775000Y-82000000D03*
%TD*%
D11*
%TO.P,R6,1*%
%TO.N,3V3*%
X120175000Y-85000000D03*
%TO.P,R6,2*%
%TO.N,BOOT_N*%
X121825000Y-85000000D03*
%TD*%
%TO.P,R24,1*%
%TO.N,BQ_ITERM*%
X34175000Y-70000000D03*
%TO.P,R24,2*%
%TO.N,GND*%
X35825000Y-70000000D03*
%TD*%
D20*
%TO.P,L1,1*%
%TO.N,BUCK_SW*%
X86650000Y-69000000D03*
%TO.P,L1,2*%
%TO.N,3V3*%
X91350000Y-69000000D03*
%TD*%
D11*
%TO.P,R21,1*%
%TO.N,BQ_TMR*%
X24175000Y-65000000D03*
%TO.P,R21,2*%
%TO.N,GND*%
X25825000Y-65000000D03*
%TD*%
%TO.P,R30,1*%
%TO.N,RX5808_CH3*%
X108175000Y-50000000D03*
%TO.P,R30,2*%
%TO.N,GND*%
X109825000Y-50000000D03*
%TD*%
D21*
%TO.P,TP2,1*%
%TO.N,3V3*%
X57000000Y-52000000D03*
%TD*%
D11*
%TO.P,R20,1*%
%TO.N,BQ_TS*%
X20175000Y-67000000D03*
%TO.P,R20,2*%
%TO.N,GND*%
X21825000Y-67000000D03*
%TD*%
D22*
%TO.P,J1,A1*%
%TO.N,GND*%
X31800000Y-87645000D03*
%TO.P,J1,A4*%
%TO.N,VBUS_RAW*%
X32600000Y-87645000D03*
D23*
%TO.P,J1,A5*%
%TO.N,USB_CC1*%
X33750000Y-87645000D03*
%TO.P,J1,A6*%
%TO.N,USB_D_P_CONN*%
X34750000Y-87645000D03*
%TO.P,J1,A7*%
%TO.N,USB_D_N_CONN*%
X35250000Y-87645000D03*
%TO.P,J1,A8*%
%TO.N,unconnected-(J1-SBU1-PadA8)*%
X36250000Y-87645000D03*
D22*
%TO.P,J1,A9*%
%TO.N,VBUS_RAW*%
X37400000Y-87645000D03*
%TO.P,J1,A12*%
%TO.N,GND*%
X38200000Y-87645000D03*
%TO.P,J1,B1*%
X38200000Y-87645000D03*
%TO.P,J1,B4*%
%TO.N,VBUS_RAW*%
X37400000Y-87645000D03*
D23*
%TO.P,J1,B5*%
%TO.N,USB_CC2*%
X36750000Y-87645000D03*
%TO.P,J1,B6*%
%TO.N,USB_D_P_CONN*%
X35750000Y-87645000D03*
%TO.P,J1,B7*%
%TO.N,USB_D_N_CONN*%
X34250000Y-87645000D03*
%TO.P,J1,B8*%
%TO.N,unconnected-(J1-SBU2-PadB8)*%
X33250000Y-87645000D03*
D22*
%TO.P,J1,B9*%
%TO.N,VBUS_RAW*%
X32600000Y-87645000D03*
%TO.P,J1,B12*%
%TO.N,GND*%
X31800000Y-87645000D03*
D24*
%TO.P,J1,SH*%
X30680000Y-88220000D03*
D25*
X30680000Y-92400000D03*
D24*
X39320000Y-88220000D03*
D25*
X39320000Y-92400000D03*
%TD*%
D26*
%TO.P,C8,1*%
%TO.N,3V3*%
X120050000Y-16000000D03*
%TO.P,C8,2*%
%TO.N,GND*%
X121950000Y-16000000D03*
%TD*%
D27*
%TO.P,D3,1*%
%TO.N,GND*%
X105212500Y-84000000D03*
%TO.P,D3,2*%
%TO.N,STATUS_LED_A*%
X106787500Y-84000000D03*
%TD*%
D11*
%TO.P,R7,1*%
%TO.N,3V3*%
X132175000Y-85000000D03*
%TO.P,R7,2*%
%TO.N,USER_BUTTON_N*%
X133825000Y-85000000D03*
%TD*%
%TO.P,R19,1*%
%TO.N,VIBRATION_GATE_R*%
X89175000Y-83000000D03*
%TO.P,R19,2*%
%TO.N,GND*%
X90825000Y-83000000D03*
%TD*%
D28*
%TO.P,C26,1*%
%TO.N,SYS_5V*%
X103500000Y-61500000D03*
%TO.P,C26,2*%
%TO.N,GND*%
X111500000Y-61500000D03*
%TD*%
D29*
%TO.P,D2,1*%
%TO.N,3V3*%
X113800000Y-82000000D03*
%TO.P,D2,2*%
%TO.N,BUZZER_DRAIN*%
X118200000Y-82000000D03*
%TD*%
D11*
%TO.P,R13,1*%
%TO.N,3V3*%
X131175000Y-74000000D03*
%TO.P,R13,2*%
%TO.N,SD_CSN*%
X132825000Y-74000000D03*
%TD*%
D30*
%TO.P,J7,1*%
%TO.N,RX5808_RF_IN*%
X147450000Y-40640000D03*
%TO.P,J7,2*%
%TO.N,GND*%
X147450000Y-36390000D03*
X147450000Y-44890000D03*
%TD*%
D26*
%TO.P,C16,1*%
%TO.N,3V3*%
X79050000Y-82000000D03*
%TO.P,C16,2*%
%TO.N,GND*%
X80950000Y-82000000D03*
%TD*%
D31*
%TO.P,J3,1*%
%TO.N,GND*%
X76500000Y-87000000D03*
%TO.P,J3,2*%
%TO.N,3V3*%
X77500000Y-87000000D03*
%TO.P,J3,3*%
%TO.N,I2C_SDA*%
X78500000Y-87000000D03*
%TO.P,J3,4*%
%TO.N,I2C_SCL*%
X79500000Y-87000000D03*
D32*
%TO.P,J3,MP*%
%TO.N,N/C*%
X75200000Y-90875000D03*
X80800000Y-90875000D03*
%TD*%
D21*
%TO.P,TP6,1*%
%TO.N,BAT_CELL*%
X81000000Y-52000000D03*
%TD*%
D16*
%TO.P,C13,1*%
%TO.N,3V3*%
X22225000Y-31000000D03*
%TO.P,C13,2*%
%TO.N,GND*%
X23775000Y-31000000D03*
%TD*%
D33*
%TO.P,D4,1*%
%TO.N,SYS_5V*%
X84000000Y-88200000D03*
%TO.P,D4,2*%
%TO.N,VIBRATION_DRAIN*%
X84000000Y-83800000D03*
%TD*%
D11*
%TO.P,R11,1*%
%TO.N,3V3*%
X131175000Y-66000000D03*
%TO.P,R11,2*%
%TO.N,SD_DAT1*%
X132825000Y-66000000D03*
%TD*%
D21*
%TO.P,TP3,1*%
%TO.N,GND*%
X63000000Y-52000000D03*
%TD*%
D14*
%TO.P,C23,1*%
%TO.N,SYS_5V*%
X67525000Y-69000000D03*
%TO.P,C23,2*%
%TO.N,GND*%
X70475000Y-69000000D03*
%TD*%
D11*
%TO.P,R17,1*%
%TO.N,ALERT_LED*%
X109175000Y-84000000D03*
%TO.P,R17,2*%
%TO.N,STATUS_LED_A*%
X110825000Y-84000000D03*
%TD*%
%TO.P,R4,1*%
%TO.N,USB_D_N_ESD*%
X44175000Y-78500000D03*
%TO.P,R4,2*%
%TO.N,USB_D_N*%
X45825000Y-78500000D03*
%TD*%
D34*
%TO.P,U6,1*%
%TO.N,GND*%
X13000000Y-70250000D03*
%TO.P,U6,2*%
%TO.N,BAT_CELL*%
X13000000Y-70750000D03*
%TO.P,U6,3*%
X13000000Y-71250000D03*
%TO.P,U6,4*%
%TO.N,GND*%
X13000000Y-71750000D03*
%TO.P,U6,5*%
%TO.N,unconnected-(U6-Pin_5-Pad5)*%
X15000000Y-71750000D03*
%TO.P,U6,6*%
%TO.N,unconnected-(U6-Pin_6-Pad6)*%
X15000000Y-71250000D03*
%TO.P,U6,7*%
%TO.N,I2C_SCL*%
X15000000Y-70750000D03*
%TO.P,U6,8*%
%TO.N,I2C_SDA*%
X15000000Y-70250000D03*
D35*
%TO.P,U6,9*%
%TO.N,GND*%
X14000000Y-71000000D03*
%TD*%
D14*
%TO.P,C18,1*%
%TO.N,BAT_CELL*%
X25525000Y-62000000D03*
%TO.P,C18,2*%
%TO.N,GND*%
X28475000Y-62000000D03*
%TD*%
D21*
%TO.P,TP8,1*%
%TO.N,RX5808_RSSI_ADC*%
X93000000Y-52000000D03*
%TD*%
D36*
%TO.P,Q1,1*%
%TO.N,ALERT_BUZZER_GATE_R*%
X114062500Y-71050000D03*
%TO.P,Q1,2*%
%TO.N,GND*%
X114062500Y-72950000D03*
%TO.P,Q1,3*%
%TO.N,BUZZER_DRAIN*%
X115937500Y-72000000D03*
%TD*%
D37*
%TO.P,J4,1*%
%TO.N,SYS_5V*%
X92000000Y-88000000D03*
D38*
%TO.P,J4,2*%
%TO.N,VIBRATION_DRAIN*%
X94000000Y-88000000D03*
%TD*%
D26*
%TO.P,C14,1*%
%TO.N,3V3*%
X139050000Y-82000000D03*
%TO.P,C14,2*%
%TO.N,GND*%
X140950000Y-82000000D03*
%TD*%
D21*
%TO.P,TP1,1*%
%TO.N,VBUS_PROTECTED*%
X51000000Y-52000000D03*
%TD*%
D30*
%TO.P,J5,1*%
%TO.N,SUBGHZ_ANT*%
X2550000Y-50000000D03*
%TO.P,J5,2*%
%TO.N,GND*%
X2550000Y-54250000D03*
X2550000Y-45750000D03*
%TD*%
D14*
%TO.P,C3,1*%
%TO.N,3V3*%
X94525000Y-62000000D03*
%TO.P,C3,2*%
%TO.N,GND*%
X97475000Y-62000000D03*
%TD*%
D26*
%TO.P,C10,1*%
%TO.N,3V3*%
X26050000Y-49000000D03*
%TO.P,C10,2*%
%TO.N,GND*%
X27950000Y-49000000D03*
%TD*%
D11*
%TO.P,R28,1*%
%TO.N,RX5808_CH1*%
X108175000Y-42000000D03*
%TO.P,R28,2*%
%TO.N,GND*%
X109825000Y-42000000D03*
%TD*%
D10*
%TO.P,U2,1*%
%TO.N,USB_D_P_CONN*%
X38862500Y-76050000D03*
%TO.P,U2,2*%
%TO.N,GND*%
X38862500Y-77000000D03*
%TO.P,U2,3*%
%TO.N,USB_D_N_CONN*%
X38862500Y-77950000D03*
%TO.P,U2,4*%
%TO.N,USB_D_N_ESD*%
X41137500Y-77950000D03*
%TO.P,U2,5*%
%TO.N,VBUS_PROTECTED*%
X41137500Y-77000000D03*
%TO.P,U2,6*%
%TO.N,USB_D_P_ESD*%
X41137500Y-76050000D03*
%TD*%
D11*
%TO.P,R10,1*%
%TO.N,I2C_SCL*%
X29175000Y-25000000D03*
%TO.P,R10,2*%
%TO.N,GPS_I2C_SCL*%
X30825000Y-25000000D03*
%TD*%
D21*
%TO.P,TP7,1*%
%TO.N,SYS_5V*%
X87000000Y-52000000D03*
%TD*%
D11*
%TO.P,R2,1*%
%TO.N,USB_CC2*%
X30175000Y-82000000D03*
%TO.P,R2,2*%
%TO.N,GND*%
X31825000Y-82000000D03*
%TD*%
D14*
%TO.P,C22,1*%
%TO.N,SYS_5V*%
X67525000Y-64000000D03*
%TO.P,C22,2*%
%TO.N,GND*%
X70475000Y-64000000D03*
%TD*%
D26*
%TO.P,C5,1*%
%TO.N,3V3*%
X61050000Y-46000000D03*
%TO.P,C5,2*%
%TO.N,GND*%
X62950000Y-46000000D03*
%TD*%
D39*
%TO.P,U1,1*%
%TO.N,GND*%
X63250000Y-23740000D03*
%TO.P,U1,2*%
%TO.N,3V3*%
X63250000Y-25010000D03*
%TO.P,U1,3*%
%TO.N,MCU_EN*%
X63250000Y-26280000D03*
%TO.P,U1,4*%
%TO.N,SD_DETECT*%
X63250000Y-27550000D03*
%TO.P,U1,5*%
%TO.N,RX5808_RSSI_ADC*%
X63250000Y-28820000D03*
%TO.P,U1,6*%
%TO.N,RX5808_CH1*%
X63250000Y-30090000D03*
%TO.P,U1,7*%
%TO.N,RX5808_CH2*%
X63250000Y-31360000D03*
%TO.P,U1,8*%
%TO.N,CC1101_GDO0*%
X63250000Y-32630000D03*
%TO.P,U1,9*%
%TO.N,CC1101_GDO2*%
X63250000Y-33900000D03*
%TO.P,U1,10*%
%TO.N,SX1281_RESET*%
X63250000Y-35170000D03*
%TO.P,U1,11*%
%TO.N,SX1281_DIO1*%
X63250000Y-36440000D03*
%TO.P,U1,12*%
%TO.N,SX1281_BUSY*%
X63250000Y-37710000D03*
%TO.P,U1,13*%
%TO.N,USB_D_N*%
X63250000Y-38980000D03*
%TO.P,U1,14*%
%TO.N,USB_D_P*%
X63250000Y-40250000D03*
D40*
%TO.P,U1,15*%
%TO.N,unconnected-(U1-IO3-Pad15)*%
X65015000Y-41500000D03*
%TO.P,U1,16*%
%TO.N,unconnected-(U1-IO46-Pad16)*%
X66285000Y-41500000D03*
%TO.P,U1,17*%
%TO.N,SX1281_CSN*%
X67555000Y-41500000D03*
%TO.P,U1,18*%
%TO.N,CC1101_CSN*%
X68825000Y-41500000D03*
%TO.P,U1,19*%
%TO.N,RF_SPI_MOSI*%
X70095000Y-41500000D03*
%TO.P,U1,20*%
%TO.N,RF_SPI_SCK*%
X71365000Y-41500000D03*
%TO.P,U1,21*%
%TO.N,RF_SPI_MISO*%
X72635000Y-41500000D03*
%TO.P,U1,22*%
%TO.N,RX5808_CH3*%
X73905000Y-41500000D03*
%TO.P,U1,23*%
%TO.N,GPS_PPS*%
X75175000Y-41500000D03*
%TO.P,U1,24*%
%TO.N,GPS_RX*%
X76445000Y-41500000D03*
%TO.P,U1,25*%
%TO.N,GPS_TX*%
X77715000Y-41500000D03*
%TO.P,U1,26*%
%TO.N,unconnected-(U1-IO45-Pad26)*%
X78985000Y-41500000D03*
D39*
%TO.P,U1,27*%
%TO.N,BOOT_N*%
X80750000Y-40250000D03*
%TO.P,U1,28*%
%TO.N,unconnected-(U1-IO35-Pad28)*%
X80750000Y-38980000D03*
%TO.P,U1,29*%
%TO.N,unconnected-(U1-IO36-Pad29)*%
X80750000Y-37710000D03*
%TO.P,U1,30*%
%TO.N,unconnected-(U1-IO37-Pad30)*%
X80750000Y-36440000D03*
%TO.P,U1,31*%
%TO.N,SD_CSN*%
X80750000Y-35170000D03*
%TO.P,U1,32*%
%TO.N,ALERT_BUZZER_GATE*%
X80750000Y-33900000D03*
%TO.P,U1,33*%
%TO.N,ALERT_LED*%
X80750000Y-32630000D03*
%TO.P,U1,34*%
%TO.N,VIBRATION_GATE*%
X80750000Y-31360000D03*
%TO.P,U1,35*%
%TO.N,USER_BUTTON_N*%
X80750000Y-30090000D03*
%TO.P,U1,36*%
%TO.N,UART0_RX*%
X80750000Y-28820000D03*
%TO.P,U1,37*%
%TO.N,UART0_TX*%
X80750000Y-27550000D03*
%TO.P,U1,38*%
%TO.N,I2C_SCL*%
X80750000Y-26280000D03*
%TO.P,U1,39*%
%TO.N,I2C_SDA*%
X80750000Y-25010000D03*
%TO.P,U1,40*%
%TO.N,GND*%
X80750000Y-23740000D03*
D41*
%TO.P,U1,41*%
X69100000Y-30760000D03*
X69100000Y-32160000D03*
X69800000Y-30060000D03*
X69800000Y-31460000D03*
X69800000Y-32860000D03*
X70500000Y-30760000D03*
D42*
X70500000Y-31460000D03*
D41*
X70500000Y-32160000D03*
X71200000Y-30060000D03*
X71200000Y-31460000D03*
X71200000Y-32860000D03*
X71900000Y-30760000D03*
X71900000Y-32160000D03*
%TD*%
D11*
%TO.P,R3,1*%
%TO.N,USB_D_P_ESD*%
X44175000Y-75500000D03*
%TO.P,R3,2*%
%TO.N,USB_D_P*%
X45825000Y-75500000D03*
%TD*%
D43*
%TO.P,SW4,*%
%TO.N,*%
X55900000Y-89000000D03*
X64100000Y-89000000D03*
D44*
%TO.P,SW4,1*%
%TO.N,GND*%
X58000000Y-89000000D03*
D45*
%TO.P,SW4,2*%
%TO.N,BOOST_EN*%
X60000000Y-89000000D03*
%TO.P,SW4,3*%
%TO.N,VSYS_BAT*%
X62000000Y-89000000D03*
%TD*%
D46*
%TO.P,RF3,1*%
%TO.N,GND*%
X141800000Y-38100000D03*
D47*
%TO.P,RF3,2*%
%TO.N,RX5808_RF_IN*%
X141800000Y-40640000D03*
%TO.P,RF3,3*%
%TO.N,GND*%
X141800000Y-43180000D03*
%TO.P,RF3,4*%
%TO.N,RX5808_CH1*%
X141800000Y-45720000D03*
%TO.P,RF3,5*%
%TO.N,RX5808_CH2*%
X141800000Y-48260000D03*
%TO.P,RF3,6*%
%TO.N,RX5808_CH3*%
X141800000Y-50800000D03*
%TO.P,RF3,7*%
%TO.N,GND*%
X141800000Y-53340000D03*
%TO.P,RF3,8*%
%TO.N,SYS_5V*%
X141800000Y-55880000D03*
%TO.P,RF3,9*%
%TO.N,RX5808_RSSI_RAW*%
X141800000Y-58420000D03*
%TO.P,RF3,10*%
%TO.N,unconnected-(RF3-Pin_10-Pad10)*%
X114200000Y-53320000D03*
%TO.P,RF3,11*%
%TO.N,unconnected-(RF3-Pin_11-Pad11)*%
X114200000Y-55860000D03*
%TO.P,RF3,12*%
%TO.N,GND*%
X114200000Y-58400000D03*
%TD*%
D11*
%TO.P,R31,1*%
%TO.N,RX5808_RSSI_RAW*%
X104175000Y-53000000D03*
%TO.P,R31,2*%
%TO.N,RX5808_RSSI_ADC*%
X105825000Y-53000000D03*
%TD*%
D16*
%TO.P,C11,1*%
%TO.N,3V3*%
X26225000Y-53000000D03*
%TO.P,C11,2*%
%TO.N,GND*%
X27775000Y-53000000D03*
%TD*%
%TO.P,C9,1*%
%TO.N,3V3*%
X120225000Y-20000000D03*
%TO.P,C9,2*%
%TO.N,GND*%
X121775000Y-20000000D03*
%TD*%
D48*
%TO.P,J6,1*%
%TO.N,BAT_CELL*%
X17000000Y-86950000D03*
%TO.P,J6,2*%
%TO.N,GND*%
X19000000Y-86950000D03*
D49*
%TO.P,J6,MP*%
%TO.N,N/C*%
X14650000Y-92700000D03*
X21350000Y-92700000D03*
%TD*%
D21*
%TO.P,TP4,1*%
%TO.N,UART0_TX*%
X69000000Y-52000000D03*
%TD*%
D50*
%TO.P,F1,1*%
%TO.N,VBUS_RAW*%
X43000000Y-86137500D03*
%TO.P,F1,2*%
%TO.N,VBUS_PROTECTED*%
X43000000Y-81862500D03*
%TD*%
D11*
%TO.P,R26,1*%
%TO.N,3V3*%
X11175000Y-80000000D03*
%TO.P,R26,2*%
%TO.N,I2C_SDA*%
X12825000Y-80000000D03*
%TD*%
D36*
%TO.P,Q2,1*%
%TO.N,VIBRATION_GATE_R*%
X91062500Y-78050000D03*
%TO.P,Q2,2*%
%TO.N,GND*%
X91062500Y-79950000D03*
%TO.P,Q2,3*%
%TO.N,VIBRATION_DRAIN*%
X92937500Y-79000000D03*
%TD*%
D16*
%TO.P,C6,1*%
%TO.N,3V3*%
X65225000Y-46000000D03*
%TO.P,C6,2*%
%TO.N,GND*%
X66775000Y-46000000D03*
%TD*%
D14*
%TO.P,C21,1*%
%TO.N,SYS_5V*%
X42525000Y-69000000D03*
%TO.P,C21,2*%
%TO.N,GND*%
X45475000Y-69000000D03*
%TD*%
D51*
%TO.P,SW3,1*%
%TO.N,USER_BUTTON_N*%
X131900000Y-88150000D03*
X138100000Y-88150000D03*
%TO.P,SW3,2*%
%TO.N,GND*%
X131900000Y-91850000D03*
X138100000Y-91850000D03*
%TD*%
D52*
%TO.P,RF2,1*%
%TO.N,GND*%
X21750000Y-43000000D03*
%TO.P,RF2,2*%
X21750000Y-44270000D03*
%TO.P,RF2,3*%
X21750000Y-45540000D03*
%TO.P,RF2,4*%
X21750000Y-51910000D03*
%TO.P,RF2,5*%
X21750000Y-53180000D03*
%TO.P,RF2,6*%
%TO.N,unconnected-(RF2-Pin_6-Pad6)*%
X21750000Y-54450000D03*
%TO.P,RF2,7*%
%TO.N,unconnected-(RF2-Pin_7-Pad7)*%
X21750000Y-55720000D03*
%TO.P,RF2,8*%
%TO.N,unconnected-(RF2-Pin_8-Pad8)*%
X21750000Y-56990000D03*
%TO.P,RF2,9*%
%TO.N,3V3*%
X21750000Y-58260000D03*
%TO.P,RF2,10*%
%TO.N,unconnected-(RF2-Pin_10-Pad10)*%
X21750000Y-59530000D03*
%TO.P,RF2,11*%
%TO.N,GND*%
X21750000Y-60800000D03*
%TO.P,RF2,12*%
X8250000Y-60800000D03*
%TO.P,RF2,13*%
%TO.N,unconnected-(RF2-Pin_13-Pad13)*%
X8250000Y-59530000D03*
%TO.P,RF2,14*%
%TO.N,CC1101_GDO2*%
X8250000Y-58260000D03*
%TO.P,RF2,15*%
%TO.N,CC1101_GDO0*%
X8250000Y-56990000D03*
%TO.P,RF2,16*%
%TO.N,RF_SPI_MISO*%
X8250000Y-55720000D03*
%TO.P,RF2,17*%
%TO.N,RF_SPI_MOSI*%
X8250000Y-54450000D03*
%TO.P,RF2,18*%
%TO.N,RF_SPI_SCK*%
X8250000Y-53180000D03*
%TO.P,RF2,19*%
%TO.N,CC1101_CSN*%
X8250000Y-51910000D03*
%TO.P,RF2,20*%
%TO.N,GND*%
X8250000Y-45540000D03*
%TO.P,RF2,21*%
%TO.N,SUBGHZ_ANT*%
X8250000Y-44270000D03*
%TO.P,RF2,22*%
%TO.N,GND*%
X8250000Y-43000000D03*
%TD*%
D14*
%TO.P,C20,1*%
%TO.N,VSYS_BAT*%
X42525000Y-64000000D03*
%TO.P,C20,2*%
%TO.N,GND*%
X45475000Y-64000000D03*
%TD*%
D11*
%TO.P,R25,1*%
%TO.N,VSYS_BAT*%
X25175000Y-86000000D03*
%TO.P,R25,2*%
%TO.N,CHG_LED_A*%
X26825000Y-86000000D03*
%TD*%
D14*
%TO.P,C1,1*%
%TO.N,VBUS_PROTECTED*%
X53525000Y-82000000D03*
%TO.P,C1,2*%
%TO.N,GND*%
X56475000Y-82000000D03*
%TD*%
D53*
%TO.P,J2,1*%
%TO.N,SD_DAT2*%
X137550000Y-73105000D03*
%TO.P,J2,2*%
%TO.N,SD_CSN*%
X137550000Y-72005000D03*
%TO.P,J2,3*%
%TO.N,RF_SPI_MOSI*%
X137550000Y-70905000D03*
%TO.P,J2,4*%
%TO.N,3V3*%
X137550000Y-69805000D03*
%TO.P,J2,5*%
%TO.N,RF_SPI_SCK*%
X137550000Y-68705000D03*
%TO.P,J2,6*%
%TO.N,GND*%
X137550000Y-67605000D03*
%TO.P,J2,7*%
%TO.N,RF_SPI_MISO*%
X137550000Y-66505000D03*
D54*
%TO.P,J2,8*%
%TO.N,SD_DAT1*%
X137550000Y-65455000D03*
D55*
%TO.P,J2,9*%
%TO.N,SD_DETECT*%
X143700000Y-75740000D03*
%TO.P,J2,10*%
%TO.N,GND*%
X147400000Y-75740000D03*
D56*
%TO.P,J2,SH*%
X137675000Y-75565000D03*
D57*
X148375000Y-72240000D03*
X148375000Y-66270000D03*
D58*
X137900000Y-64245000D03*
%TD*%
D27*
%TO.P,D5,1*%
%TO.N,CHG_N*%
X21212500Y-81000000D03*
%TO.P,D5,2*%
%TO.N,CHG_LED_A*%
X22787500Y-81000000D03*
%TD*%
D20*
%TO.P,L2,1*%
%TO.N,VSYS_BAT*%
X59650000Y-69000000D03*
%TO.P,L2,2*%
%TO.N,BOOST_SW*%
X64350000Y-69000000D03*
%TD*%
D11*
%TO.P,R15,1*%
%TO.N,ALERT_BUZZER_GATE*%
X114175000Y-67000000D03*
%TO.P,R15,2*%
%TO.N,ALERT_BUZZER_GATE_R*%
X115825000Y-67000000D03*
%TD*%
D51*
%TO.P,SW2,1*%
%TO.N,BOOT_N*%
X119900000Y-88150000D03*
X126100000Y-88150000D03*
%TO.P,SW2,2*%
%TO.N,GND*%
X119900000Y-91850000D03*
X126100000Y-91850000D03*
%TD*%
D16*
%TO.P,C30,1*%
%TO.N,RX5808_RSSI_ADC*%
X100225000Y-53000000D03*
%TO.P,C30,2*%
%TO.N,GND*%
X101775000Y-53000000D03*
%TD*%
D11*
%TO.P,R22,1*%
%TO.N,BQ_ISET*%
X27175000Y-64000000D03*
%TO.P,R22,2*%
%TO.N,GND*%
X28825000Y-64000000D03*
%TD*%
%TO.P,R5,1*%
%TO.N,3V3*%
X71175000Y-46000000D03*
%TO.P,R5,2*%
%TO.N,MCU_EN*%
X72825000Y-46000000D03*
%TD*%
D59*
%TO.P,U5,1*%
%TO.N,BOOST_SW*%
X50240000Y-68000000D03*
D60*
X50525000Y-68000000D03*
D59*
%TO.P,U5,2*%
X50240000Y-68500000D03*
D60*
X50525000Y-68500000D03*
D59*
%TO.P,U5,3*%
%TO.N,SYS_5V*%
X50240000Y-69000000D03*
D60*
X50525000Y-69000000D03*
D59*
%TO.P,U5,4*%
X50240000Y-69500000D03*
D60*
X50525000Y-69500000D03*
D59*
%TO.P,U5,5*%
%TO.N,unconnected-(U5-PG-Pad5)*%
X50240000Y-70000000D03*
D60*
X50525000Y-70000000D03*
%TO.P,U5,6*%
%TO.N,unconnected-(U5-SS-Pad6)*%
X53475000Y-70000000D03*
D59*
X53760000Y-70000000D03*
D60*
%TO.P,U5,7*%
%TO.N,SYS_5V*%
X53475000Y-69500000D03*
D59*
X53760000Y-69500000D03*
D60*
%TO.P,U5,8*%
%TO.N,unconnected-(U5-HYS-Pad8)*%
X53475000Y-69000000D03*
D59*
X53760000Y-69000000D03*
D60*
%TO.P,U5,9*%
%TO.N,BOOST_EN*%
X53475000Y-68500000D03*
D59*
X53760000Y-68500000D03*
D60*
%TO.P,U5,10*%
%TO.N,VSYS_BAT*%
X53475000Y-68000000D03*
D59*
X53760000Y-68000000D03*
D61*
%TO.P,U5,11*%
%TO.N,GND*%
X51500000Y-68250000D03*
X51500000Y-69750000D03*
D62*
X51550000Y-68365000D03*
X51550000Y-69635000D03*
D63*
X51750000Y-67370000D03*
D64*
X51750000Y-67450000D03*
X51750000Y-70550000D03*
D63*
X51750000Y-70630000D03*
D61*
X52000000Y-69000000D03*
D65*
X52000000Y-69000000D03*
D63*
X52250000Y-67370000D03*
D64*
X52250000Y-67450000D03*
X52250000Y-70550000D03*
D63*
X52250000Y-70630000D03*
D62*
X52450000Y-68365000D03*
X52450000Y-69635000D03*
D61*
X52500000Y-68250000D03*
X52500000Y-69750000D03*
%TD*%
D11*
%TO.P,R27,1*%
%TO.N,3V3*%
X15175000Y-80000000D03*
%TO.P,R27,2*%
%TO.N,I2C_SCL*%
X16825000Y-80000000D03*
%TD*%
D66*
%TO.P,BZ1,1*%
%TO.N,3V3*%
X99500000Y-76000000D03*
D67*
%TO.P,BZ1,2*%
%TO.N,BUZZER_DRAIN*%
X108500000Y-76000000D03*
%TD*%
D21*
%TO.P,TP5,1*%
%TO.N,UART0_RX*%
X75000000Y-52000000D03*
%TD*%
D26*
%TO.P,C25,1*%
%TO.N,SYS_5V*%
X103050000Y-47000000D03*
%TO.P,C25,2*%
%TO.N,GND*%
X104950000Y-47000000D03*
%TD*%
D14*
%TO.P,C19,1*%
%TO.N,VSYS_BAT*%
X34525000Y-63000000D03*
%TO.P,C19,2*%
%TO.N,GND*%
X37475000Y-63000000D03*
%TD*%
D16*
%TO.P,C24,1*%
%TO.N,SYS_5V*%
X103225000Y-43000000D03*
%TO.P,C24,2*%
%TO.N,GND*%
X104775000Y-43000000D03*
%TD*%
D11*
%TO.P,R1,1*%
%TO.N,USB_CC1*%
X26175000Y-82000000D03*
%TO.P,R1,2*%
%TO.N,GND*%
X27825000Y-82000000D03*
%TD*%
%TO.P,R23,1*%
%TO.N,BQ_ILIM*%
X32175000Y-65000000D03*
%TO.P,R23,2*%
%TO.N,GND*%
X33825000Y-65000000D03*
%TD*%
%TO.P,R16,1*%
%TO.N,ALERT_BUZZER_GATE_R*%
X119175000Y-75000000D03*
%TO.P,R16,2*%
%TO.N,GND*%
X120825000Y-75000000D03*
%TD*%
D16*
%TO.P,C7,1*%
%TO.N,MCU_EN*%
X75225000Y-46000000D03*
%TO.P,C7,2*%
%TO.N,GND*%
X76775000Y-46000000D03*
%TD*%
D68*
%TO.P,GPS1,1*%
%TO.N,GND*%
X10875000Y-21800000D03*
D69*
%TO.P,GPS1,2*%
%TO.N,3V3*%
X10875000Y-19900000D03*
%TO.P,GPS1,3*%
X10875000Y-18000000D03*
%TO.P,GPS1,4*%
%TO.N,GND*%
X10875000Y-16100000D03*
%TO.P,GPS1,5*%
X10875000Y-14200000D03*
D70*
%TO.P,GPS1,6*%
X14200000Y-10875000D03*
%TO.P,GPS1,7*%
%TO.N,GPS_PPS*%
X16100000Y-10875000D03*
%TO.P,GPS1,8*%
%TO.N,unconnected-(GPS1-Pin_8-Pad8)*%
X18000000Y-10875000D03*
%TO.P,GPS1,9*%
%TO.N,GPS_I2C_SDA*%
X19900000Y-10875000D03*
%TO.P,GPS1,10*%
%TO.N,GND*%
X21800000Y-10875000D03*
D69*
%TO.P,GPS1,11*%
X25125000Y-14200000D03*
%TO.P,GPS1,12*%
%TO.N,GPS_I2C_SCL*%
X25125000Y-16100000D03*
%TO.P,GPS1,13*%
%TO.N,GPS_RX*%
X25125000Y-18000000D03*
%TO.P,GPS1,14*%
%TO.N,GPS_TX*%
X25125000Y-19900000D03*
%TO.P,GPS1,15*%
%TO.N,GND*%
X25125000Y-21800000D03*
D70*
%TO.P,GPS1,16*%
X21800000Y-25125000D03*
%TO.P,GPS1,17*%
%TO.N,3V3*%
X19900000Y-25125000D03*
%TO.P,GPS1,18*%
%TO.N,GPS_RESET_N*%
X18000000Y-25125000D03*
%TO.P,GPS1,19*%
%TO.N,unconnected-(GPS1-Pin_19-Pad19)*%
X16100000Y-25125000D03*
%TO.P,GPS1,20*%
%TO.N,GND*%
X14200000Y-25125000D03*
%TD*%
D11*
%TO.P,R18,1*%
%TO.N,VIBRATION_GATE*%
X87175000Y-79000000D03*
%TO.P,R18,2*%
%TO.N,VIBRATION_GATE_R*%
X88825000Y-79000000D03*
%TD*%
D26*
%TO.P,C12,1*%
%TO.N,3V3*%
X17050000Y-31000000D03*
%TO.P,C12,2*%
%TO.N,GND*%
X18950000Y-31000000D03*
%TD*%
D14*
%TO.P,C4,1*%
%TO.N,3V3*%
X94525000Y-66000000D03*
%TO.P,C4,2*%
%TO.N,GND*%
X97475000Y-66000000D03*
%TD*%
D51*
%TO.P,SW1,1*%
%TO.N,MCU_EN*%
X107900000Y-88150000D03*
X114100000Y-88150000D03*
%TO.P,SW1,2*%
%TO.N,GND*%
X107900000Y-91850000D03*
X114100000Y-91850000D03*
%TD*%
D71*
%TO.N,3V3*%
X15846300Y-30338700D03*
D72*
X116000000Y-85000000D03*
D71*
X132747900Y-68721500D03*
X71882900Y-68475900D03*
X62686900Y-56444600D03*
X120225000Y-21140300D03*
X30417400Y-12850700D03*
X129946500Y-66000000D03*
D72*
X129175000Y-82000000D03*
D71*
X17955800Y-81084100D03*
X24958800Y-58260000D03*
D73*
%TO.N,SYS_5V*%
X80000000Y-76000000D03*
D72*
X54500000Y-69500000D03*
X49500000Y-69500000D03*
D73*
X70000000Y-78143900D03*
D71*
X67525000Y-66500000D03*
D73*
X87000000Y-84000000D03*
D72*
%TO.N,GND*%
X5676000Y-45800000D03*
X11637500Y-23159100D03*
D73*
X51078100Y-86921900D03*
X50500000Y-85000000D03*
X40100000Y-89000000D03*
X91959500Y-76519300D03*
X22700000Y-10875000D03*
D72*
X28886600Y-72445100D03*
X144013600Y-44870000D03*
X71508600Y-23740000D03*
D73*
X90825000Y-80187500D03*
D72*
X8927200Y-16100000D03*
X23481400Y-61084100D03*
X72000000Y-46842500D03*
X25738300Y-70750000D03*
X5679200Y-53900000D03*
X25033100Y-67000000D03*
D73*
X13300000Y-10875000D03*
D72*
%TO.N,RX5808_CH2*%
X76310300Y-29224900D03*
X105443200Y-45129700D03*
%TO.N,I2C_SDA*%
X16712900Y-70289500D03*
X30537700Y-26400500D03*
X13781700Y-79392000D03*
X29976500Y-20801500D03*
X79238500Y-26264300D03*
X79877700Y-80963000D03*
%TO.N,RF_SPI_MISO*%
X98633000Y-43926500D03*
X127049100Y-13050000D03*
X138657800Y-66505000D03*
X68209500Y-40185800D03*
X18874700Y-57407500D03*
%TO.N,RF_SPI_MOSI*%
X135983400Y-70905000D03*
X70501000Y-43080000D03*
X17742200Y-54450000D03*
X122937000Y-41487500D03*
X125566000Y-15498900D03*
%TO.N,RF_SPI_SCK*%
X71668000Y-42907700D03*
X124356800Y-42400000D03*
X138668100Y-68580000D03*
X127398200Y-17452500D03*
%TO.N,SX1281_CSN*%
X123244200Y-16093700D03*
X73480600Y-39053100D03*
%TO.N,SX1281_RESET*%
X73248800Y-29608900D03*
X138428000Y-16860000D03*
%TO.N,SX1281_BUSY*%
X72683300Y-35597300D03*
X125812300Y-13754500D03*
%TO.N,SX1281_DIO1*%
X137565200Y-14482500D03*
X72567000Y-34662600D03*
%TO.N,GPS_RESET_N*%
X30344300Y-15048000D03*
X18550100Y-27064100D03*
D71*
%TO.N,VBUS_PROTECTED*%
X51735800Y-53739300D03*
D73*
X53000000Y-90000000D03*
D71*
X32846900Y-67983200D03*
D73*
X46137500Y-85000000D03*
X47500000Y-89000000D03*
D71*
X52289100Y-82560300D03*
D72*
%TO.N,SD_DETECT*%
X132770700Y-76971000D03*
X79129500Y-27939200D03*
D71*
%TO.N,VSYS_BAT*%
X54805800Y-60415900D03*
X61183600Y-72448500D03*
D72*
%TO.N,CHG_N*%
X23788800Y-79989600D03*
X27426900Y-73538300D03*
%TO.N,BQ_ILIM*%
X32175000Y-66045900D03*
X31615900Y-69024800D03*
%TO.N,BQ_TMR*%
X24733600Y-63954400D03*
X27668400Y-66876600D03*
%TO.N,BQ_ITERM*%
X34969400Y-70794400D03*
X28600900Y-67553300D03*
%TO.N,BOOT_N*%
X87724100Y-40250000D03*
X122634800Y-84190200D03*
%TO.N,RX5808_CH3*%
X100018800Y-43091400D03*
X106767500Y-49045100D03*
D73*
%TO.N,VBUS_RAW*%
X42000000Y-86137500D03*
X33200000Y-89100000D03*
X36800000Y-89100000D03*
D72*
%TO.N,USB_D_P_CONN*%
X37502500Y-76050000D03*
X35480800Y-88788100D03*
%TO.N,USB_D_N_CONN*%
X36515200Y-78625500D03*
X35402100Y-86492000D03*
%TO.N,USER_BUTTON_N*%
X130072400Y-87950000D03*
X96497100Y-30090000D03*
%TO.N,BUZZER_DRAIN*%
X118500000Y-78500000D03*
X109000000Y-76000000D03*
%TO.N,SD_CSN*%
X133801200Y-74076000D03*
X106009600Y-35170000D03*
%TO.N,I2C_SCL*%
X82062800Y-26281200D03*
X29134500Y-26054000D03*
X15312400Y-76870200D03*
X79500000Y-85636400D03*
X15935200Y-71024800D03*
%TO.N,VIBRATION_DRAIN*%
X86000000Y-90000000D03*
X84000000Y-81000000D03*
%TO.N,ALERT_LED*%
X107508400Y-82688500D03*
X83311400Y-32630000D03*
%TO.N,USB_D_N*%
X55093600Y-38980000D03*
X46825900Y-78489900D03*
%TO.N,RX5808_RSSI_ADC*%
X64834500Y-28820000D03*
X88916800Y-50837200D03*
X71648600Y-44909100D03*
%TO.N,RX5808_CH1*%
X64625300Y-30617600D03*
X111213800Y-41199000D03*
%TO.N,MCU_EN*%
X76324800Y-27262500D03*
X73103600Y-44949000D03*
X106447200Y-88150000D03*
%TO.N,CC1101_GDO0*%
X16697500Y-56990000D03*
X60776500Y-32752600D03*
%TO.N,USB_D_P*%
X63670400Y-41254000D03*
X47514600Y-75500000D03*
%TO.N,GPS_PPS*%
X69484900Y-38376400D03*
X26098300Y-8398400D03*
%TO.N,GPS_RX*%
X37667200Y-17556900D03*
X71097000Y-37420400D03*
X27524400Y-18285000D03*
%TO.N,GPS_TX*%
X66782800Y-36593500D03*
X27437100Y-22339900D03*
%TO.N,ALERT_BUZZER_GATE*%
X96331900Y-67227700D03*
X84702000Y-33900000D03*
%TO.N,VIBRATION_GATE*%
X85254300Y-79800000D03*
X82765500Y-31360000D03*
%TO.N,UART0_RX*%
X76124100Y-51553600D03*
X77518700Y-28820000D03*
%TO.N,UART0_TX*%
X84013600Y-50594200D03*
X82765500Y-27550000D03*
%TO.N,BOOST_EN*%
X56219800Y-68500000D03*
%TD*%
%TO.N,3V3*%
D74*
X61050000Y-46000000D02*
X61050000Y-45887100D01*
D75*
X77401900Y-85797900D02*
X77401900Y-86065100D01*
D74*
X57000000Y-52000000D02*
X57000000Y-50050000D01*
X120050000Y-13858300D02*
X120050000Y-16000000D01*
X34950400Y-12916500D02*
X30417400Y-12916500D01*
X140327900Y-83361700D02*
X142863300Y-83361700D01*
X30258500Y-12916500D02*
X29175000Y-14000000D01*
X8869100Y-20757200D02*
X8869100Y-23361500D01*
X124500000Y-10510000D02*
X123398300Y-10510000D01*
X70087200Y-44912200D02*
X71175000Y-46000000D01*
X94525000Y-62917500D02*
X81618700Y-62917500D01*
X77401900Y-83648100D02*
X79050000Y-82000000D01*
X77862500Y-66673700D02*
X77862500Y-68050000D01*
X120225000Y-20000000D02*
X120225000Y-21140300D01*
X19900000Y-28675000D02*
X19900000Y-25125000D01*
X24958800Y-58260000D02*
X24958800Y-57710800D01*
X76528800Y-68475900D02*
X76528800Y-68254700D01*
X94525000Y-67550800D02*
X94525000Y-66000000D01*
X77401900Y-85797900D02*
X77401900Y-83648100D01*
X30417400Y-12916500D02*
X30258500Y-12916500D01*
X94525000Y-62000000D02*
X94525000Y-62917500D01*
X19900000Y-28675000D02*
X19247000Y-28675000D01*
X77500000Y-87000000D02*
X77500000Y-86714400D01*
X12259100Y-81084100D02*
X14090900Y-81084100D01*
X132747900Y-68921800D02*
X132253200Y-68921800D01*
X131175000Y-66000000D02*
X129946500Y-66000000D01*
D75*
X77401900Y-86065100D02*
X77549800Y-86213000D01*
D74*
X64974000Y-44661200D02*
X65225000Y-44912200D01*
X77549800Y-86419600D02*
X77549800Y-86213000D01*
X11175000Y-80000000D02*
X12259100Y-81084100D01*
X26050000Y-52825000D02*
X26225000Y-53000000D01*
X113947200Y-85000000D02*
X120175000Y-85000000D01*
X137550000Y-69805000D02*
X135022200Y-69805000D01*
X30417400Y-12916500D02*
X30417400Y-12850700D01*
X120225000Y-16175000D02*
X120225000Y-20000000D01*
X17050000Y-31000000D02*
X16507600Y-31000000D01*
X8869100Y-23361500D02*
X15846300Y-30338700D01*
X57000000Y-56444600D02*
X57000000Y-52000000D01*
X99500000Y-76000000D02*
X104947200Y-76000000D01*
X120050000Y-16000000D02*
X120225000Y-16175000D01*
X71882900Y-68475900D02*
X76528800Y-68475900D01*
X16507600Y-31000000D02*
X15846300Y-30338700D01*
X61050000Y-45887100D02*
X62275900Y-44661200D01*
X26050000Y-49000000D02*
X26050000Y-52825000D01*
X134139000Y-68921800D02*
X132747900Y-68921800D01*
X76528800Y-68254700D02*
X76684300Y-68099200D01*
X62275900Y-44661200D02*
X64974000Y-44661200D01*
X123398300Y-10510000D02*
X120050000Y-13858300D01*
D75*
X76684300Y-68099200D02*
X77813300Y-68099200D01*
D74*
X9726300Y-19900000D02*
X8869100Y-20757200D01*
X19247000Y-28675000D02*
X17050000Y-30872000D01*
X94898300Y-76000000D02*
X91350000Y-72451700D01*
X104947200Y-76000000D02*
X113947200Y-85000000D01*
X24958800Y-58260000D02*
X21750000Y-58260000D01*
X142863300Y-83361700D02*
X144225000Y-82000000D01*
X65225000Y-44912200D02*
X65225000Y-46000000D01*
X91350000Y-70725800D02*
X91350000Y-72451700D01*
X79050000Y-82000000D02*
X76528800Y-79478800D01*
X14090900Y-81084100D02*
X17955800Y-81084100D01*
X24958800Y-57710800D02*
X26225000Y-56444600D01*
X98649200Y-76000000D02*
X97798300Y-76000000D01*
X139050000Y-82000000D02*
X135175000Y-82000000D01*
X26225000Y-56444600D02*
X57000000Y-56444600D01*
X91350000Y-70725800D02*
X94525000Y-67550800D01*
X131175000Y-78000000D02*
X131175000Y-74000000D01*
X132253200Y-68921800D02*
X131175000Y-70000000D01*
X26225000Y-56444600D02*
X26225000Y-53000000D01*
X91350000Y-69000000D02*
X91350000Y-70725800D01*
X131175000Y-74000000D02*
X131175000Y-70000000D01*
X129175000Y-82000000D02*
X132175000Y-85000000D01*
X57000000Y-50050000D02*
X61050000Y-46000000D01*
X14090900Y-81084100D02*
X15175000Y-80000000D01*
X98649200Y-76000000D02*
X99500000Y-76000000D01*
X19900000Y-28675000D02*
X22225000Y-31000000D01*
X97798300Y-76000000D02*
X94898300Y-76000000D01*
X139050000Y-82083800D02*
X140327900Y-83361700D01*
X65225000Y-44912200D02*
X70087200Y-44912200D01*
X94525000Y-62917500D02*
X94525000Y-66000000D01*
X135175000Y-82000000D02*
X131175000Y-78000000D01*
X10875000Y-18000000D02*
X10875000Y-19900000D01*
D75*
X77549800Y-86419600D02*
X77549800Y-86664600D01*
D74*
X63250000Y-25010000D02*
X47043900Y-25010000D01*
X47043900Y-25010000D02*
X34950400Y-12916500D01*
D75*
X77549800Y-86664600D02*
X77500000Y-86714400D01*
D74*
X139050000Y-82000000D02*
X139050000Y-82083800D01*
X135022200Y-69805000D02*
X134139000Y-68921800D01*
D75*
X77813300Y-68099200D02*
X77862500Y-68050000D01*
D74*
X76528800Y-79478800D02*
X76528800Y-68475900D01*
X17050000Y-30872000D02*
X17050000Y-31000000D01*
X135175000Y-82000000D02*
X132175000Y-85000000D01*
D76*
X113800000Y-82000000D02*
X113947200Y-85000000D01*
D74*
X10875000Y-19900000D02*
X9726300Y-19900000D01*
X81618700Y-62917500D02*
X77862500Y-66673700D01*
X132747900Y-68721500D02*
X132747900Y-68921800D01*
X57000000Y-56444600D02*
X62686900Y-56444600D01*
%TO.N,SYS_5V*%
D77*
X50525000Y-69304600D02*
X50525000Y-69500000D01*
D74*
X103500000Y-61500000D02*
X98328100Y-56328100D01*
X87000000Y-51408200D02*
X87000000Y-52000000D01*
D77*
X50524900Y-69304500D02*
X50525000Y-69304600D01*
D74*
X87000000Y-52000000D02*
X76965800Y-62034200D01*
X47747900Y-67490000D02*
X48117600Y-67859700D01*
D77*
X53475000Y-69500000D02*
X53760000Y-69500000D01*
D74*
X141800000Y-55880000D02*
X137742000Y-51822000D01*
D78*
X77862500Y-69000000D02*
X77862500Y-69950000D01*
D74*
X48117600Y-67859700D02*
X52034100Y-63943200D01*
D77*
X49498100Y-69240200D02*
X49518200Y-69240200D01*
D74*
X91328100Y-56328100D02*
X87000000Y-52000000D01*
D77*
X50240000Y-69500000D02*
X50435500Y-69304500D01*
X50240000Y-69000000D02*
X49758400Y-69000000D01*
D74*
X67525000Y-69000000D02*
X67525000Y-66500000D01*
X69490800Y-62034200D02*
X67525000Y-64000000D01*
D79*
X50240000Y-69500000D02*
X49500000Y-69500000D01*
D74*
X137742000Y-51822000D02*
X107772000Y-51822000D01*
X67468200Y-63943200D02*
X67525000Y-64000000D01*
D80*
X80000000Y-76000000D02*
X84000000Y-76087500D01*
D74*
X103050000Y-47100000D02*
X103050000Y-47000000D01*
D77*
X50435500Y-69304500D02*
X50524900Y-69304500D01*
D74*
X103225000Y-43000000D02*
X103225000Y-46825000D01*
D77*
X50240100Y-69000100D02*
X50240000Y-69000000D01*
X49518200Y-69240200D02*
X49758400Y-69000000D01*
D74*
X67525000Y-66500000D02*
X67525000Y-64000000D01*
X107772000Y-51822000D02*
X103050000Y-47100000D01*
X98328100Y-56328100D02*
X91328100Y-56328100D01*
X44035000Y-67490000D02*
X47747900Y-67490000D01*
X42525000Y-69000000D02*
X44035000Y-67490000D01*
D77*
X50524900Y-69000100D02*
X50524900Y-69304500D01*
X50524900Y-69000100D02*
X50240100Y-69000100D01*
D74*
X103050000Y-47000000D02*
X91408200Y-47000000D01*
D79*
X53475000Y-69500000D02*
X54500000Y-69500000D01*
D74*
X48117600Y-67859700D02*
X49498100Y-69240200D01*
X84000000Y-76087500D02*
X77862500Y-69950000D01*
D80*
X84000000Y-88200000D02*
X87000000Y-84000000D01*
D74*
X91408200Y-47000000D02*
X87000000Y-51408200D01*
D77*
X50525000Y-69000000D02*
X50524900Y-69000100D01*
D74*
X76965800Y-62034200D02*
X69490800Y-62034200D01*
X103225000Y-46825000D02*
X103050000Y-47000000D01*
X52034100Y-63943200D02*
X67468200Y-63943200D01*
%TO.N,GND*%
D76*
X19600000Y-31650000D02*
X18950000Y-31000000D01*
X32825000Y-64000000D02*
X33825000Y-65000000D01*
X137900000Y-64245000D02*
X139126700Y-64245000D01*
X13645000Y-10875000D02*
X10875000Y-13645000D01*
X19776000Y-31826000D02*
X19600000Y-31650000D01*
X111500000Y-61500000D02*
X111522000Y-61478000D01*
X111604600Y-61478000D02*
X122975800Y-72849200D01*
X2550000Y-54250000D02*
X3007700Y-54250000D01*
X142323600Y-43180000D02*
X141800000Y-43180000D01*
X99958500Y-84518300D02*
X105730800Y-84518300D01*
X25825000Y-65000000D02*
X25033100Y-65791900D01*
X22949000Y-31826000D02*
X19776000Y-31826000D01*
X63250000Y-23740000D02*
X71508600Y-23740000D01*
X105551900Y-41163200D02*
X108988200Y-41163200D01*
X52230000Y-66773300D02*
X52250000Y-66793300D01*
X147400000Y-75740000D02*
X146573300Y-75740000D01*
X141800000Y-43180000D02*
X140458100Y-41838100D01*
X10875000Y-14200000D02*
X10875000Y-16100000D01*
X140458100Y-41838100D02*
X140458100Y-40801400D01*
X104766500Y-43008500D02*
X104766500Y-46737700D01*
X143146600Y-53340000D02*
X143146600Y-60225100D01*
X29026000Y-72201900D02*
X28886600Y-72341300D01*
X21800000Y-25125000D02*
X22353800Y-25125000D01*
X14200000Y-10875000D02*
X13645000Y-10875000D01*
X25125000Y-22353800D02*
X25125000Y-21800000D01*
X3007700Y-54250000D02*
X3007700Y-55958800D01*
X10875000Y-21800000D02*
X10875000Y-22396600D01*
X52500000Y-68250000D02*
X52450000Y-68300000D01*
X28475000Y-63165300D02*
X28475000Y-62000000D01*
X35825000Y-70000000D02*
X36065000Y-70240000D01*
X77146300Y-88145800D02*
X76500100Y-87499600D01*
X21750000Y-44270000D02*
X21750000Y-43000000D01*
X141800000Y-53340000D02*
X143146600Y-53340000D01*
X111773200Y-40801400D02*
X111494100Y-40522300D01*
X21750000Y-45540000D02*
X21750000Y-44270000D01*
X29985000Y-86950000D02*
X30680000Y-87645000D01*
X148375000Y-73516700D02*
X147400000Y-74491700D01*
X30969500Y-81144500D02*
X31825000Y-82000000D01*
X121950000Y-14330000D02*
X121950000Y-16000000D01*
X51500000Y-69685000D02*
X51500000Y-69750000D01*
X139500000Y-18130000D02*
X139500000Y-33506700D01*
X144944000Y-81169000D02*
X145775000Y-82000000D01*
X66249700Y-73225300D02*
X54268600Y-73225300D01*
X10875000Y-22396600D02*
X11637500Y-23159100D01*
X6996700Y-44691800D02*
X6784200Y-44691800D01*
X5303400Y-45750000D02*
X5626000Y-45750000D01*
X52250000Y-67450000D02*
X52250000Y-67370000D01*
X51750000Y-66773300D02*
X52230000Y-66773300D01*
X111522000Y-61478000D02*
X111604600Y-61478000D01*
X131900000Y-91850000D02*
X138100000Y-91850000D01*
X71508600Y-23740000D02*
X80750000Y-23740000D01*
X38200000Y-87179600D02*
X38200000Y-87645000D01*
X146016700Y-36390000D02*
X142383300Y-36390000D01*
X120008300Y-75816700D02*
X120825000Y-75000000D01*
X122630000Y-20000000D02*
X121775000Y-20000000D01*
X54268600Y-73225300D02*
X52250000Y-71206700D01*
X51750000Y-67370000D02*
X51750000Y-66773300D01*
X21750000Y-45540000D02*
X24851600Y-48641500D01*
X97475000Y-62000000D02*
X97475000Y-63131200D01*
X147450000Y-44890000D02*
X144583300Y-44890000D01*
X51500000Y-68315000D02*
X51500000Y-68250000D01*
X28475000Y-63165300D02*
X26788600Y-63165300D01*
X41619600Y-70240000D02*
X44235000Y-70240000D01*
X80137500Y-69950000D02*
X86706800Y-76519300D01*
X26788600Y-63165300D02*
X25825000Y-64128900D01*
X138676700Y-75565000D02*
X139778400Y-76666700D01*
X51018200Y-70472600D02*
X51437500Y-70053300D01*
X51750000Y-70550000D02*
X51750000Y-70053300D01*
X109825000Y-46921200D02*
X109825000Y-50000000D01*
X5679200Y-53987500D02*
X5679200Y-53900000D01*
X148375000Y-72878300D02*
X148375000Y-72240000D01*
X138100000Y-91850000D02*
X139326700Y-91850000D01*
X40100000Y-89000000D02*
X39320000Y-88220000D01*
X143146600Y-60225100D02*
X139126700Y-64245000D01*
X21750000Y-51743100D02*
X21750000Y-51910000D01*
X115368700Y-91850000D02*
X119900000Y-91850000D01*
X52250000Y-69873300D02*
X52376700Y-69873300D01*
X20508900Y-60800000D02*
X20508900Y-53940300D01*
X148375000Y-72878300D02*
X148375000Y-73516700D01*
X114062500Y-72950000D02*
X116929200Y-75816700D01*
X14200000Y-25125000D02*
X13603400Y-25125000D01*
X122975800Y-72849200D02*
X128220000Y-67605000D01*
X111604600Y-60995400D02*
X114200000Y-58400000D01*
X140500800Y-65619100D02*
X139126700Y-64245000D01*
X46947600Y-70472600D02*
X51018200Y-70472600D01*
X44235000Y-70240000D02*
X45475000Y-69000000D01*
X22353800Y-29578800D02*
X23775000Y-31000000D01*
X26820900Y-47870900D02*
X25622200Y-47870900D01*
D81*
X21800000Y-10875000D02*
X22700000Y-10875000D01*
D76*
X29750000Y-71925900D02*
X29750000Y-71437500D01*
X104950000Y-46921200D02*
X109825000Y-46921200D01*
X139500000Y-10510000D02*
X138230000Y-11780000D01*
X37475000Y-63000000D02*
X35475000Y-65000000D01*
X56475000Y-82000000D02*
X56475000Y-86921900D01*
X137550000Y-67605000D02*
X138514900Y-67605000D01*
X21269200Y-53180000D02*
X21750000Y-53180000D01*
X29026000Y-72201900D02*
X29474000Y-72201900D01*
X124080000Y-18130000D02*
X124500000Y-18130000D01*
X104098300Y-42616800D02*
X105551900Y-41163200D01*
X22355000Y-10875000D02*
X25125000Y-13645000D01*
X97475000Y-63131200D02*
X109868800Y-63131200D01*
X139326700Y-91850000D02*
X139326700Y-88448300D01*
X102424200Y-42166700D02*
X103648200Y-42166700D01*
X21800000Y-10875000D02*
X22355000Y-10875000D01*
X97475000Y-63131200D02*
X97475000Y-66000000D01*
X28798100Y-71974000D02*
X29026000Y-72201900D01*
X52250000Y-67370000D02*
X52250000Y-66793300D01*
X107900000Y-91850000D02*
X114100000Y-91850000D01*
X13000000Y-70250000D02*
X14000000Y-70250000D01*
X51750000Y-70630000D02*
X51750000Y-70550000D01*
X140950000Y-76666700D02*
X145646600Y-76666700D01*
X22353800Y-25125000D02*
X22353800Y-29578800D01*
X148375000Y-66270000D02*
X141151700Y-66270000D01*
X105730800Y-84518300D02*
X105212500Y-84000000D01*
X51500000Y-70053300D02*
X51750000Y-70053300D01*
X104950000Y-46921200D02*
X104950000Y-47000000D01*
X52250000Y-70630000D02*
X52250000Y-70550000D01*
X72000000Y-46842500D02*
X75932500Y-46842500D01*
X52450000Y-69700000D02*
X52450000Y-69635000D01*
X79831400Y-88145800D02*
X77146300Y-88145800D01*
X28680500Y-81144500D02*
X30969500Y-81144500D01*
X41619600Y-67855400D02*
X41619600Y-70240000D01*
X28825000Y-63515300D02*
X28475000Y-63165300D01*
X51437500Y-70053300D02*
X51500000Y-70053300D01*
X52250000Y-68126700D02*
X52376700Y-68126700D01*
X66508400Y-47109100D02*
X66775000Y-46842500D01*
X27950000Y-52825000D02*
X27775000Y-53000000D01*
X30680000Y-87645000D02*
X31800000Y-87645000D01*
X28886600Y-72341300D02*
X28886600Y-72445100D01*
X106557800Y-85345300D02*
X105730800Y-84518300D01*
X28825000Y-64000000D02*
X28825000Y-63515300D01*
X21750000Y-53180000D02*
X21750000Y-51910000D01*
X138230000Y-11780000D02*
X124500000Y-11780000D01*
X12559200Y-71750000D02*
X13000000Y-71750000D01*
X14775000Y-73107600D02*
X13417400Y-71750000D01*
X144013600Y-44870000D02*
X144563300Y-44870000D01*
X14775000Y-75000000D02*
X14775000Y-73107600D01*
X39320000Y-88220000D02*
X38745000Y-87645000D01*
X21750000Y-60800000D02*
X23197300Y-60800000D01*
X141151700Y-66270000D02*
X140500800Y-65619100D01*
X109868800Y-63131200D02*
X111500000Y-61500000D01*
X7844900Y-45540000D02*
X8250000Y-45540000D01*
X33020400Y-82000000D02*
X38200000Y-87179600D01*
X66775000Y-46842500D02*
X72000000Y-46842500D01*
X62950000Y-47059100D02*
X63000000Y-47109100D01*
X70475000Y-69000000D02*
X66249700Y-73225300D01*
X13000000Y-71750000D02*
X14000000Y-71750000D01*
X63000000Y-52000000D02*
X63000000Y-47109100D01*
X52250000Y-70630000D02*
X52250000Y-71206700D01*
X28750000Y-70250000D02*
X29000000Y-70000000D01*
X10875000Y-16100000D02*
X8927200Y-16100000D01*
X8250000Y-60800000D02*
X20508900Y-60800000D01*
D81*
X14200000Y-10875000D02*
X13300000Y-10875000D01*
D76*
X25033100Y-65791900D02*
X25033100Y-67000000D01*
X14775000Y-73107600D02*
X23380700Y-73107600D01*
X25622200Y-47870900D02*
X24851600Y-48641500D01*
X140458100Y-39864400D02*
X141095800Y-39226700D01*
X2550000Y-45750000D02*
X5303400Y-45750000D01*
X30680000Y-87645000D02*
X30680000Y-88220000D01*
X76500100Y-87499600D02*
X76500100Y-87000000D01*
X10875000Y-13645000D02*
X10875000Y-14200000D01*
X52250000Y-70630000D02*
X51750000Y-70630000D01*
X110933600Y-40522300D02*
X110537100Y-40918800D01*
X28750000Y-71437500D02*
X28750000Y-70250000D01*
X20508900Y-53940300D02*
X21269200Y-53180000D01*
X147450000Y-36390000D02*
X146016700Y-36390000D01*
X21825000Y-67000000D02*
X25033100Y-67000000D01*
X27950000Y-49000000D02*
X26820900Y-47870900D01*
X52376700Y-69873300D02*
X52500000Y-69750000D01*
X3007700Y-55958800D02*
X7848900Y-60800000D01*
X29474000Y-72201900D02*
X29750000Y-71925900D01*
X140458100Y-40801400D02*
X140458100Y-39864400D01*
X139778400Y-76666700D02*
X140950000Y-76666700D01*
X25825000Y-64128900D02*
X25825000Y-65000000D01*
X51550000Y-68365000D02*
X51500000Y-68315000D01*
X113210900Y-85345300D02*
X106557800Y-85345300D01*
X52500000Y-69750000D02*
X52450000Y-69700000D01*
X142383300Y-36390000D02*
X141800000Y-36973300D01*
X28798100Y-70901000D02*
X28798100Y-71974000D01*
X63000000Y-47109100D02*
X66508400Y-47109100D01*
X31825000Y-82000000D02*
X33020400Y-82000000D01*
X104775000Y-43000000D02*
X104766500Y-43008500D01*
X52376700Y-68126700D02*
X52500000Y-68250000D01*
X71200000Y-31460000D02*
X70500000Y-31460000D01*
X110537100Y-40918800D02*
X110537100Y-41287900D01*
X36065000Y-70240000D02*
X41619600Y-70240000D01*
X66775000Y-46842500D02*
X66775000Y-46000000D01*
X76500100Y-87000000D02*
X76500000Y-87000000D01*
X144013600Y-52473000D02*
X144013600Y-44870000D01*
X45475000Y-69000000D02*
X46947600Y-70472600D01*
X140458100Y-40801400D02*
X111773200Y-40801400D01*
X14083700Y-71083700D02*
X13417400Y-71750000D01*
X143146600Y-53340000D02*
X144013600Y-52473000D01*
X23380700Y-73107600D02*
X25738300Y-70750000D01*
X22353800Y-25125000D02*
X25125000Y-22353800D01*
X98590900Y-46000000D02*
X102424200Y-42166700D01*
X110537100Y-41287900D02*
X109825000Y-42000000D01*
X28825000Y-64000000D02*
X32825000Y-64000000D01*
X141095800Y-39226700D02*
X141800000Y-39226700D01*
X121950000Y-16000000D02*
X124080000Y-18130000D01*
X128220000Y-67605000D02*
X137550000Y-67605000D01*
X58000000Y-89000000D02*
X58000000Y-87423300D01*
X120825000Y-75000000D02*
X122975800Y-72849200D01*
X140950000Y-81169000D02*
X144944000Y-81169000D01*
X52250000Y-67450000D02*
X52250000Y-68126700D01*
X58000000Y-86921900D02*
X58000000Y-87423300D01*
X107175000Y-58400000D02*
X101775000Y-53000000D01*
X52450000Y-68300000D02*
X52450000Y-68365000D01*
X124500000Y-18130000D02*
X122630000Y-20000000D01*
X91959500Y-76519300D02*
X99958500Y-84518300D01*
X140950000Y-76666700D02*
X140950000Y-81169000D01*
X52250000Y-70550000D02*
X52250000Y-69873300D01*
X90825000Y-83000000D02*
X90825000Y-80187500D01*
X111604600Y-61478000D02*
X111604600Y-60995400D01*
X20508900Y-60800000D02*
X21750000Y-60800000D01*
X115368700Y-91850000D02*
X115368700Y-87503100D01*
X104391900Y-42616900D02*
X104775000Y-43000000D01*
X56475000Y-86921900D02*
X51078100Y-86921900D01*
X6996700Y-44691800D02*
X7844900Y-45540000D01*
X115368700Y-87503100D02*
X113210900Y-85345300D01*
X51500000Y-70053300D02*
X51500000Y-69750000D01*
X76421900Y-86921900D02*
X58000000Y-86921900D01*
X25738300Y-70750000D02*
X27562500Y-70750000D01*
X14000000Y-71000000D02*
X14083700Y-71083700D01*
X8250000Y-43000000D02*
X19600000Y-31650000D01*
X126100000Y-91850000D02*
X119900000Y-91850000D01*
X29000000Y-70699100D02*
X28798100Y-70901000D01*
X103648200Y-42166700D02*
X104098300Y-42616800D01*
X38745000Y-87645000D02*
X38200000Y-87645000D01*
X104098300Y-42616900D02*
X104391900Y-42616900D01*
X90825000Y-80187500D02*
X91062500Y-79950000D01*
X23775000Y-31000000D02*
X22949000Y-31826000D01*
X75932500Y-46842500D02*
X76775000Y-46000000D01*
X147400000Y-74491700D02*
X147400000Y-75740000D01*
X3007700Y-54250000D02*
X5416700Y-54250000D01*
X23197300Y-60800000D02*
X23481400Y-61084100D01*
X13417400Y-71750000D02*
X13000000Y-71750000D01*
X29000000Y-70000000D02*
X29000000Y-70699100D01*
X139500000Y-33506700D02*
X142383300Y-36390000D01*
X6996700Y-43843200D02*
X7839900Y-43000000D01*
X70475000Y-64000000D02*
X70475000Y-69000000D01*
X140950000Y-81169000D02*
X140950000Y-82000000D01*
X27825000Y-82000000D02*
X28680500Y-81144500D01*
X26475000Y-77000000D02*
X36065000Y-77000000D01*
X137675000Y-75565000D02*
X138676700Y-75565000D01*
X114200000Y-58400000D02*
X107175000Y-58400000D01*
X27950000Y-49000000D02*
X27950000Y-52825000D01*
X7848900Y-60800000D02*
X8250000Y-60800000D01*
X148375000Y-72240000D02*
X148375000Y-66270000D01*
X116929200Y-75816700D02*
X120008300Y-75816700D01*
X144563300Y-44870000D02*
X144583300Y-44890000D01*
X62950000Y-46000000D02*
X62950000Y-47059100D01*
X141800000Y-38100000D02*
X141800000Y-39226700D01*
X25125000Y-13645000D02*
X25125000Y-14200000D01*
X70500000Y-31460000D02*
X69800000Y-31460000D01*
X76500000Y-87000000D02*
X76421900Y-86921900D01*
X104766500Y-46737700D02*
X104950000Y-46921200D01*
X114100000Y-91850000D02*
X115368700Y-91850000D01*
X49000000Y-85000000D02*
X50500000Y-85000000D01*
X80950000Y-87027200D02*
X79831400Y-88145800D01*
X109825000Y-46000000D02*
X109825000Y-46921200D01*
X7839900Y-43000000D02*
X8250000Y-43000000D01*
X139326700Y-88448300D02*
X145775000Y-82000000D01*
X36065000Y-77000000D02*
X38862500Y-77000000D01*
X58000000Y-86921900D02*
X56475000Y-86921900D01*
X141800000Y-38100000D02*
X141800000Y-36973300D01*
X108988200Y-41163200D02*
X109825000Y-42000000D01*
X144013600Y-44870000D02*
X142323600Y-43180000D01*
X19000000Y-86950000D02*
X29985000Y-86950000D01*
X45475000Y-64000000D02*
X41619600Y-67855400D01*
X124500000Y-18130000D02*
X139500000Y-18130000D01*
X6784200Y-44691800D02*
X5676000Y-45800000D01*
X76775000Y-46000000D02*
X98590900Y-46000000D01*
X80950000Y-82000000D02*
X80950000Y-87027200D01*
X13603400Y-25125000D02*
X11637500Y-23159100D01*
X6996700Y-44691800D02*
X6996700Y-43843200D01*
X86706800Y-76519300D02*
X91959500Y-76519300D01*
X51750000Y-67450000D02*
X51750000Y-67370000D01*
X5416700Y-54250000D02*
X5679200Y-53987500D01*
X36065000Y-77000000D02*
X36065000Y-70240000D01*
X145646600Y-76666700D02*
X146573300Y-75740000D01*
X138514900Y-67605000D02*
X140500800Y-65619100D01*
X111494100Y-40522300D02*
X110933600Y-40522300D01*
X5626000Y-45750000D02*
X5676000Y-45800000D01*
X51550000Y-69635000D02*
X51500000Y-69685000D01*
X24851600Y-48641500D02*
X21750000Y-51743100D01*
X131900000Y-91850000D02*
X126100000Y-91850000D01*
X104098300Y-42616800D02*
X104098300Y-42616900D01*
X35475000Y-65000000D02*
X33825000Y-65000000D01*
X124500000Y-11780000D02*
X121950000Y-14330000D01*
%TO.N,BUCK_SW*%
D74*
X86650000Y-69000000D02*
X86650000Y-68775000D01*
X81316200Y-69000000D02*
X81541200Y-68775000D01*
X81541200Y-68775000D02*
X86650000Y-68775000D01*
D75*
X81316200Y-69000000D02*
X80137500Y-69000000D01*
D74*
X85323300Y-65548300D02*
X86650000Y-65548300D01*
X83775000Y-64000000D02*
X85323300Y-65548300D01*
X86650000Y-68775000D02*
X86650000Y-65548300D01*
%TO.N,BUCK_BST*%
X80137500Y-66087500D02*
X80137500Y-68050000D01*
X82225000Y-64000000D02*
X80137500Y-66087500D01*
%TO.N,RX5808_CH2*%
D76*
X109025300Y-45149700D02*
X138689700Y-45149700D01*
X105443200Y-45129700D02*
X107304700Y-45129700D01*
X108175000Y-46000000D02*
X109025300Y-45149700D01*
X75739400Y-28654000D02*
X76310300Y-29224900D01*
X138689700Y-45149700D02*
X141800000Y-48260000D01*
X67545900Y-28654000D02*
X75739400Y-28654000D01*
X64839900Y-31360000D02*
X67545900Y-28654000D01*
X107304700Y-45129700D02*
X108175000Y-46000000D01*
X63250000Y-31360000D02*
X64839900Y-31360000D01*
%TO.N,I2C_SDA*%
X29976500Y-20801500D02*
X29175000Y-20000000D01*
X13433000Y-79392000D02*
X13781700Y-79392000D01*
X12825000Y-80000000D02*
X13433000Y-79392000D01*
X78500000Y-87000000D02*
X78500000Y-84091900D01*
X80750000Y-25010000D02*
X79673300Y-25010000D01*
X79673300Y-25010000D02*
X79238500Y-25444800D01*
X15039500Y-70289500D02*
X15000000Y-70250000D01*
X16712900Y-70289500D02*
X15039500Y-70289500D01*
X78500000Y-84091900D02*
X79877700Y-82714200D01*
X79238500Y-25444800D02*
X79238500Y-26264300D01*
X79877700Y-82714200D02*
X79877700Y-80963000D01*
%TO.N,GPS_I2C_SDA*%
X19900000Y-10237100D02*
X20990800Y-9146300D01*
X20990800Y-9146300D02*
X22623500Y-9146300D01*
X30825000Y-17347800D02*
X30825000Y-20000000D01*
X22623500Y-9146300D02*
X30825000Y-17347800D01*
X19900000Y-10875000D02*
X19900000Y-10237100D01*
%TO.N,RF_SPI_MISO*%
X17187200Y-55720000D02*
X18874700Y-57407500D01*
X72635000Y-42576700D02*
X73984800Y-43926500D01*
X73984800Y-43926500D02*
X98633000Y-43926500D01*
X68209500Y-40185800D02*
X68447000Y-40423300D01*
X8250000Y-55720000D02*
X17187200Y-55720000D01*
X72635000Y-41500000D02*
X72635000Y-40423300D01*
X137550000Y-66505000D02*
X138657800Y-66505000D01*
X72635000Y-41500000D02*
X72635000Y-42576700D01*
X127049100Y-13050000D02*
X124500000Y-13050000D01*
X68447000Y-40423300D02*
X72635000Y-40423300D01*
%TO.N,RF_SPI_MOSI*%
X70095000Y-42576700D02*
X70095000Y-42674000D01*
X8250000Y-54450000D02*
X17742200Y-54450000D01*
X124500000Y-14320000D02*
X125566000Y-15386000D01*
X70095000Y-42674000D02*
X70501000Y-43080000D01*
X125566000Y-15386000D02*
X125566000Y-15498900D01*
X135983400Y-70905000D02*
X137550000Y-70905000D01*
X70095000Y-41500000D02*
X70095000Y-42576700D01*
%TO.N,RF_SPI_SCK*%
X127398200Y-17452500D02*
X126362500Y-17452500D01*
X137550000Y-68705000D02*
X138426700Y-68705000D01*
X71365000Y-41500000D02*
X71365000Y-42624500D01*
X71668000Y-42907700D02*
X71648200Y-42907700D01*
X138551700Y-68580000D02*
X138426700Y-68705000D01*
X62251700Y-43762000D02*
X60736000Y-42246300D01*
X126362500Y-17452500D02*
X124500000Y-15590000D01*
X70793900Y-43762000D02*
X62251700Y-43762000D01*
X9415800Y-53180000D02*
X8250000Y-53180000D01*
X20349500Y-42246300D02*
X9415800Y-53180000D01*
X71648200Y-42907700D02*
X70793900Y-43762000D01*
X138668100Y-68580000D02*
X138551700Y-68580000D01*
X60736000Y-42246300D02*
X20349500Y-42246300D01*
X71365000Y-42624500D02*
X71648200Y-42907700D01*
%TO.N,SX1281_CSN*%
X67469100Y-39935000D02*
X68351000Y-39053100D01*
X124010500Y-16860000D02*
X123244200Y-16093700D01*
X124500000Y-16860000D02*
X124010500Y-16860000D01*
X67469100Y-41414100D02*
X67469100Y-39935000D01*
X68351000Y-39053100D02*
X73480600Y-39053100D01*
X67555000Y-41500000D02*
X67469100Y-41414100D01*
%TO.N,SX1281_RESET*%
X68413700Y-29146300D02*
X72786200Y-29146300D01*
X72786200Y-29146300D02*
X73248800Y-29608900D01*
X139500000Y-16860000D02*
X138428000Y-16860000D01*
X64326700Y-35170000D02*
X64326700Y-33233300D01*
X63250000Y-35170000D02*
X64326700Y-35170000D01*
X64326700Y-33233300D02*
X68413700Y-29146300D01*
%TO.N,SX1281_BUSY*%
X127647800Y-15590000D02*
X139500000Y-15590000D01*
X72683300Y-35597300D02*
X66822100Y-35597300D01*
X64709400Y-37710000D02*
X63250000Y-37710000D01*
X66822100Y-35597300D02*
X64709400Y-37710000D01*
X125812300Y-13754500D02*
X127647800Y-15590000D01*
%TO.N,SX1281_DIO1*%
X64945500Y-36440000D02*
X66722900Y-34662600D01*
X137565200Y-14482500D02*
X139337500Y-14482500D01*
X66722900Y-34662600D02*
X72567000Y-34662600D01*
X63250000Y-36440000D02*
X64945500Y-36440000D01*
X139337500Y-14482500D02*
X139500000Y-14320000D01*
%TO.N,GPS_RESET_N*%
X30825000Y-14000000D02*
X30825000Y-14567300D01*
X30825000Y-14567300D02*
X30344300Y-15048000D01*
X18000000Y-26514000D02*
X18550100Y-27064100D01*
X18000000Y-25125000D02*
X18000000Y-26514000D01*
%TO.N,VBUS_PROTECTED*%
D74*
X52964700Y-82560300D02*
X52289100Y-82560300D01*
X30048300Y-67983200D02*
X32846900Y-67983200D01*
X46137500Y-85000000D02*
X43000000Y-81862500D01*
D75*
X41186700Y-76950800D02*
X41137500Y-77000000D01*
D74*
X48475800Y-76950800D02*
X42315700Y-76950800D01*
X53525000Y-82000000D02*
X52964700Y-82560300D01*
D75*
X42315700Y-76950800D02*
X41186700Y-76950800D01*
D74*
X40714700Y-79577200D02*
X43000000Y-81862500D01*
X53525000Y-82000000D02*
X48475800Y-76950800D01*
X23525000Y-77000000D02*
X26102200Y-79577200D01*
D82*
X29750000Y-68281500D02*
X29750000Y-68562500D01*
D74*
X51735700Y-53739300D02*
X51735800Y-53739300D01*
X51735700Y-52735700D02*
X51735700Y-53739300D01*
D82*
X30048300Y-67983200D02*
X29750000Y-68281500D01*
D74*
X49000000Y-89000000D02*
X53000000Y-90000000D01*
X49000000Y-89000000D02*
X47500000Y-89000000D01*
X26102200Y-79577200D02*
X40714700Y-79577200D01*
X51000000Y-52000000D02*
X51735700Y-52735700D01*
%TO.N,SD_DETECT*%
D76*
X132770700Y-76971000D02*
X135278400Y-74463300D01*
X132825000Y-77025300D02*
X132825000Y-78000000D01*
X135278400Y-74463300D02*
X141596600Y-74463300D01*
X132770700Y-76971000D02*
X132825000Y-77025300D01*
X141596600Y-74463300D02*
X142873300Y-75740000D01*
X64715900Y-27939200D02*
X79129500Y-27939200D01*
X143700000Y-75740000D02*
X142873300Y-75740000D01*
X64326700Y-27550000D02*
X64715900Y-27939200D01*
X63250000Y-27550000D02*
X64326700Y-27550000D01*
%TO.N,BAT_CELL*%
D74*
X25223300Y-62301700D02*
X25525000Y-62000000D01*
X11531500Y-70212700D02*
X11531500Y-75000000D01*
D76*
X11500000Y-70212700D02*
X11531500Y-70212700D01*
D74*
X16486500Y-86950000D02*
X17000000Y-86950000D01*
X73668200Y-59331800D02*
X81000000Y-52000000D01*
X12406400Y-69337800D02*
X11531500Y-70212700D01*
X25920500Y-69337800D02*
X19172200Y-69337800D01*
D82*
X27337100Y-69975400D02*
X27337100Y-70024600D01*
X27337100Y-70024600D02*
X27562500Y-70250000D01*
D74*
X10159400Y-80622900D02*
X16486500Y-86950000D01*
X11531500Y-75000000D02*
X13225000Y-75000000D01*
D82*
X26558100Y-69975400D02*
X27337100Y-69975400D01*
D74*
X26558100Y-69975400D02*
X25920500Y-69337800D01*
X28193200Y-59331800D02*
X73668200Y-59331800D01*
X25525000Y-62000000D02*
X28193200Y-59331800D01*
D76*
X11500000Y-70750000D02*
X11500000Y-70212700D01*
D74*
X19172200Y-69337800D02*
X19172200Y-66370700D01*
X10159400Y-76372100D02*
X10159400Y-80622900D01*
X11531500Y-75000000D02*
X10159400Y-76372100D01*
X19172200Y-69337800D02*
X12406400Y-69337800D01*
D76*
X13000000Y-70750000D02*
X11500000Y-70750000D01*
D74*
X23241200Y-62301700D02*
X25223300Y-62301700D01*
X19172200Y-66370700D02*
X23241200Y-62301700D01*
D82*
X27337100Y-69975400D02*
X27562500Y-69750000D01*
X13000000Y-70750000D02*
X13000000Y-71250000D01*
%TO.N,BQ_TS*%
D76*
X26656900Y-68344400D02*
X27562500Y-69250000D01*
X20175000Y-67000000D02*
X21519400Y-68344400D01*
X21519400Y-68344400D02*
X26656900Y-68344400D01*
%TO.N,VSYS_BAT*%
D74*
X26452900Y-73133300D02*
X26452900Y-74524000D01*
X23816700Y-74524000D02*
X20155600Y-78185100D01*
X20155600Y-81630000D02*
X24525600Y-86000000D01*
X59650000Y-70725800D02*
X59650000Y-69000000D01*
X61180400Y-72451700D02*
X61183600Y-72448500D01*
D82*
X30437500Y-70000000D02*
X30437500Y-69750000D01*
D74*
X54075600Y-67684400D02*
X55796800Y-65963200D01*
X59650000Y-69000000D02*
X59650000Y-65963200D01*
D82*
X30437500Y-70250000D02*
X30437500Y-70000000D01*
D74*
X36071300Y-61453700D02*
X39978700Y-61453700D01*
X30437500Y-70000000D02*
X31105800Y-70000000D01*
X24525600Y-86000000D02*
X25175000Y-86000000D01*
D77*
X53475000Y-68000000D02*
X53760000Y-68000000D01*
D74*
X35349000Y-67033900D02*
X39491100Y-67033900D01*
X54805800Y-60415900D02*
X46109100Y-60415900D01*
X31982000Y-70400900D02*
X35349000Y-67033900D01*
D77*
X54075600Y-67684400D02*
X53760000Y-68000000D01*
D74*
X31506700Y-70400900D02*
X31982000Y-70400900D01*
D82*
X27709700Y-71977800D02*
X28250000Y-71437500D01*
D74*
X26452900Y-74524000D02*
X23816700Y-74524000D01*
X59650000Y-70725800D02*
X59650000Y-72451700D01*
X34525000Y-63000000D02*
X36071300Y-61453700D01*
X46109100Y-60415900D02*
X42525000Y-64000000D01*
X31105800Y-70000000D02*
X31506700Y-70400900D01*
X31506700Y-71914700D02*
X28897400Y-74524000D01*
X59650000Y-72451700D02*
X61180400Y-72451700D01*
X39978700Y-61453700D02*
X42525000Y-64000000D01*
X31506700Y-70400900D02*
X31506700Y-71914700D01*
X27709700Y-71977800D02*
X27608400Y-71977800D01*
X27608400Y-71977800D02*
X26452900Y-73133300D01*
X28897400Y-74524000D02*
X26452900Y-74524000D01*
X20155600Y-78185100D02*
X20155600Y-81630000D01*
X39491100Y-67033900D02*
X42525000Y-64000000D01*
X55796800Y-65963200D02*
X59650000Y-65963200D01*
%TO.N,CHG_N*%
D76*
X22222900Y-79989600D02*
X23788800Y-79989600D01*
X30437500Y-71899000D02*
X30437500Y-70750000D01*
X28798200Y-73538300D02*
X30437500Y-71899000D01*
X27426900Y-73538300D02*
X28798200Y-73538300D01*
X21212500Y-81000000D02*
X22222900Y-79989600D01*
%TO.N,BQ_ILIM*%
X32175000Y-66045900D02*
X32175000Y-65000000D01*
X30662700Y-69024800D02*
X31615900Y-69024800D01*
X30437500Y-69250000D02*
X30662700Y-69024800D01*
%TO.N,BQ_TMR*%
X29287900Y-68524600D02*
X29287900Y-67274400D01*
X29287900Y-67274400D02*
X28890100Y-66876600D01*
X24733600Y-63954400D02*
X24175000Y-64513000D01*
X28890100Y-66876600D02*
X27668400Y-66876600D01*
X29250000Y-68562500D02*
X29287900Y-68524600D01*
X24175000Y-64513000D02*
X24175000Y-65000000D01*
%TO.N,BQ_ITERM*%
X28750000Y-68562500D02*
X28750000Y-67702400D01*
X28750000Y-67702400D02*
X28600900Y-67553300D01*
X34175000Y-70000000D02*
X34969400Y-70794400D01*
%TO.N,BQ_ISET*%
X26953700Y-64221300D02*
X26953700Y-67266200D01*
X27175000Y-64000000D02*
X26953700Y-64221300D01*
X26953700Y-67266200D02*
X28250000Y-68562500D01*
%TO.N,SD_DAT2*%
X137550000Y-73105000D02*
X135930000Y-73105000D01*
X135930000Y-73105000D02*
X132825000Y-70000000D01*
%TO.N,BOOT_N*%
X126100000Y-88150000D02*
X121825000Y-88150000D01*
X80750000Y-40250000D02*
X87724100Y-40250000D01*
X121825000Y-88150000D02*
X119900000Y-88150000D01*
X121825000Y-88150000D02*
X121825000Y-85000000D01*
X122634800Y-84190200D02*
X121825000Y-85000000D01*
%TO.N,RX5808_CH3*%
X108175000Y-50000000D02*
X107220100Y-49045100D01*
X74419700Y-43091400D02*
X100018800Y-43091400D01*
X73905000Y-41500000D02*
X73905000Y-42576700D01*
X141793200Y-50806800D02*
X108981800Y-50806800D01*
X108981800Y-50806800D02*
X108175000Y-50000000D01*
X107220100Y-49045100D02*
X106767500Y-49045100D01*
X141800000Y-50800000D02*
X141793200Y-50806800D01*
X73905000Y-42576700D02*
X74419700Y-43091400D01*
%TO.N,VBUS_RAW*%
D83*
X37400000Y-88200000D02*
X36800000Y-89100000D01*
X32600000Y-88200000D02*
X33200000Y-89100000D01*
D74*
X42000000Y-86137500D02*
X43000000Y-86137500D01*
D83*
X37400000Y-87645000D02*
X37400000Y-88200000D01*
X32600000Y-87645000D02*
X32600000Y-88200000D01*
%TO.N,USB_CC1*%
D76*
X30917700Y-86742700D02*
X26175000Y-82000000D01*
X33750000Y-86936200D02*
X33556500Y-86742700D01*
X33556500Y-86742700D02*
X30917700Y-86742700D01*
X33750000Y-87645000D02*
X33750000Y-86936200D01*
%TO.N,USB_D_P_CONN*%
X35480800Y-88788100D02*
X35480800Y-88601500D01*
X35750000Y-88332300D02*
X35750000Y-87645000D01*
X38862500Y-76050000D02*
X37502500Y-76050000D01*
X34750000Y-87645000D02*
X34750000Y-88348100D01*
X34750000Y-88348100D02*
X35003400Y-88601500D01*
X35003400Y-88601500D02*
X35480800Y-88601500D01*
X35480800Y-88601500D02*
X35750000Y-88332300D01*
%TO.N,USB_D_N_CONN*%
X34495100Y-86690000D02*
X35005400Y-86690000D01*
X34250000Y-87645000D02*
X34250000Y-86935100D01*
X35104800Y-86789300D02*
X35250000Y-86934600D01*
X34250000Y-86935100D02*
X34495100Y-86690000D01*
X35005400Y-86690000D02*
X35104800Y-86789300D01*
X38862500Y-77950000D02*
X38187000Y-78625500D01*
X35250000Y-86934600D02*
X35250000Y-87645000D01*
X38187000Y-78625500D02*
X36515200Y-78625500D01*
X35402100Y-86492000D02*
X35104800Y-86789300D01*
%TO.N,USB_CC2*%
X35480600Y-85575800D02*
X36750000Y-86845200D01*
X30175000Y-82000000D02*
X33750800Y-85575800D01*
X36750000Y-86845200D02*
X36750000Y-87645000D01*
X33750800Y-85575800D02*
X35480600Y-85575800D01*
%TO.N,STATUS_LED_A*%
X106787500Y-84000000D02*
X107592700Y-84805200D01*
X110019800Y-84805200D02*
X110825000Y-84000000D01*
X107592700Y-84805200D02*
X110019800Y-84805200D01*
%TO.N,USER_BUTTON_N*%
X133825000Y-88150000D02*
X133825000Y-85000000D01*
X138100000Y-88150000D02*
X133825000Y-88150000D01*
X133825000Y-88150000D02*
X131900000Y-88150000D01*
X80750000Y-30090000D02*
X96497100Y-30090000D01*
X131900000Y-88150000D02*
X130673300Y-88150000D01*
X130473300Y-87950000D02*
X130673300Y-88150000D01*
X130072400Y-87950000D02*
X130473300Y-87950000D01*
%TO.N,VIBRATION_GATE_R*%
X89775000Y-78050000D02*
X88825000Y-79000000D01*
X89175000Y-79350000D02*
X88825000Y-79000000D01*
X89175000Y-83000000D02*
X89175000Y-79350000D01*
X91062500Y-78050000D02*
X89775000Y-78050000D01*
%TO.N,BUZZER_DRAIN*%
X118200000Y-82000000D02*
X118500000Y-78500000D01*
X109000000Y-76000000D02*
X108500000Y-76000000D01*
X115937500Y-72000000D02*
X112500000Y-72000000D01*
X112500000Y-72000000D02*
X108500000Y-76000000D01*
%TO.N,SD_CSN*%
X134020500Y-73856700D02*
X133801200Y-74076000D01*
X133801200Y-74076000D02*
X132901000Y-74076000D01*
X138426700Y-73685100D02*
X138255100Y-73856700D01*
X80750000Y-35170000D02*
X106009600Y-35170000D01*
X132901000Y-74076000D02*
X132825000Y-74000000D01*
X137550000Y-72005000D02*
X138426700Y-72005000D01*
X138255100Y-73856700D02*
X134020500Y-73856700D01*
X138426700Y-72005000D02*
X138426700Y-73685100D01*
%TO.N,RX5808_RF_IN*%
D83*
X147450000Y-40640000D02*
X141800000Y-40640000D01*
%TO.N,I2C_SCL*%
D76*
X82061600Y-26280000D02*
X82062800Y-26281200D01*
X29134500Y-25040500D02*
X29134500Y-26054000D01*
X16825000Y-78382800D02*
X16825000Y-80000000D01*
X15312400Y-76870200D02*
X16825000Y-78382800D01*
X15935200Y-71024800D02*
X15660400Y-70750000D01*
X79500000Y-87000000D02*
X79500000Y-85636400D01*
X15660400Y-70750000D02*
X15000000Y-70750000D01*
X29175000Y-25000000D02*
X29134500Y-25040500D01*
X80750000Y-26280000D02*
X82061600Y-26280000D01*
%TO.N,VIBRATION_DRAIN*%
X93073300Y-88810900D02*
X92680000Y-89204200D01*
X94000000Y-88000000D02*
X93073300Y-88000000D01*
X84000000Y-83800000D02*
X84000000Y-81000000D01*
X86000000Y-90000000D02*
X85004200Y-89204200D01*
X92680000Y-89204200D02*
X85004200Y-89204200D01*
X92680000Y-89204200D02*
X85004200Y-89204200D01*
X94000000Y-88000000D02*
X93073300Y-88000000D01*
X92937500Y-79000000D02*
X92937500Y-87864200D01*
X92937500Y-87864200D02*
X93073300Y-88000000D01*
X93073300Y-88810900D02*
X92680000Y-89204200D01*
X93073300Y-88000000D02*
X93073300Y-88810900D01*
X93073300Y-88000000D02*
X93073300Y-88810900D01*
%TO.N,SD_DAT1*%
X133370000Y-65455000D02*
X132825000Y-66000000D01*
X137550000Y-65455000D02*
X133370000Y-65455000D01*
%TO.N,ALERT_LED*%
X107863500Y-82688500D02*
X109175000Y-84000000D01*
X107508400Y-82688500D02*
X107863500Y-82688500D01*
X80750000Y-32630000D02*
X83311400Y-32630000D01*
%TO.N,USB_D_N_ESD*%
X44175000Y-78500000D02*
X41687500Y-78500000D01*
X41687500Y-78500000D02*
X41137500Y-77950000D01*
%TO.N,USB_D_N*%
X45835100Y-78489900D02*
X46825900Y-78489900D01*
X63250000Y-38980000D02*
X55093600Y-38980000D01*
X45825000Y-78500000D02*
X45835100Y-78489900D01*
%TO.N,RX5808_RSSI_ADC*%
X63250000Y-28820000D02*
X64834500Y-28820000D01*
X93000000Y-52000000D02*
X100037500Y-52000000D01*
X100225000Y-52187500D02*
X100225000Y-53000000D01*
X88916800Y-50837200D02*
X91837200Y-50837200D01*
X91837200Y-50837200D02*
X93000000Y-52000000D01*
X105012500Y-52187500D02*
X105825000Y-53000000D01*
X100225000Y-52187500D02*
X105012500Y-52187500D01*
X100037500Y-52000000D02*
X100225000Y-52187500D01*
%TO.N,ALERT_BUZZER_GATE_R*%
X119175000Y-73758800D02*
X119175000Y-75000000D01*
X114062500Y-71050000D02*
X116466200Y-71050000D01*
X116466200Y-71050000D02*
X119175000Y-73758800D01*
X114062500Y-71050000D02*
X115825000Y-69287500D01*
X115825000Y-69287500D02*
X115825000Y-67000000D01*
%TO.N,SUBGHZ_ANT*%
D83*
X5561400Y-50000000D02*
X2550000Y-50000000D01*
X9505700Y-45044300D02*
X9505700Y-46055700D01*
X8731400Y-44270000D02*
X9505700Y-45044300D01*
X9505700Y-46055700D02*
X5561400Y-50000000D01*
X8250000Y-44270000D02*
X8731400Y-44270000D01*
%TO.N,RX5808_CH1*%
D76*
X111213800Y-41199000D02*
X111213800Y-42831000D01*
X139742100Y-43662100D02*
X141800000Y-45720000D01*
X111213800Y-42831000D02*
X109006000Y-42831000D01*
X64326700Y-30090000D02*
X64326700Y-30319000D01*
X63250000Y-30090000D02*
X64326700Y-30090000D01*
X112044900Y-43662100D02*
X139742100Y-43662100D01*
X111213800Y-42831000D02*
X112044900Y-43662100D01*
X109006000Y-42831000D02*
X108175000Y-42000000D01*
X64326700Y-30319000D02*
X64625300Y-30617600D01*
%TO.N,USB_D_P_ESD*%
X44175000Y-75500000D02*
X43625000Y-76050000D01*
X43625000Y-76050000D02*
X41137500Y-76050000D01*
%TO.N,GPS_I2C_SCL*%
X30825000Y-25000000D02*
X28201100Y-22376100D01*
X26296400Y-16100000D02*
X25125000Y-16100000D01*
X28201100Y-18004700D02*
X26296400Y-16100000D01*
X28201100Y-22376100D02*
X28201100Y-18004700D01*
%TO.N,MCU_EN*%
X72825000Y-45227600D02*
X72825000Y-46000000D01*
X114100000Y-88150000D02*
X107900000Y-88150000D01*
X107900000Y-88150000D02*
X106673300Y-88150000D01*
X73103600Y-44949000D02*
X72825000Y-45227600D01*
X75225000Y-46000000D02*
X72825000Y-46000000D01*
X75342300Y-26280000D02*
X76324800Y-27262500D01*
X106673300Y-88150000D02*
X106447200Y-88150000D01*
X63250000Y-26280000D02*
X75342300Y-26280000D01*
%TO.N,CC1101_GDO0*%
X62173300Y-32630000D02*
X60899100Y-32630000D01*
X63250000Y-32630000D02*
X62173300Y-32630000D01*
X60899100Y-32630000D02*
X60776500Y-32752600D01*
X8250000Y-56990000D02*
X16697500Y-56990000D01*
%TO.N,CC1101_GDO2*%
X8250000Y-58260000D02*
X7793600Y-58260000D01*
X7007100Y-57473500D02*
X7007100Y-51404900D01*
X7793600Y-58260000D02*
X7007100Y-57473500D01*
X7007100Y-51404900D02*
X24512000Y-33900000D01*
X24512000Y-33900000D02*
X63250000Y-33900000D01*
%TO.N,USB_D_P*%
X45825000Y-75500000D02*
X47514600Y-75500000D01*
X63250000Y-40250000D02*
X63670400Y-40670400D01*
X63670400Y-40670400D02*
X63670400Y-41254000D01*
%TO.N,CC1101_CSN*%
X62594000Y-42576700D02*
X61760600Y-41743300D01*
X68825000Y-41500000D02*
X68825000Y-42576700D01*
X18416700Y-41743300D02*
X8250000Y-51910000D01*
X68825000Y-42576700D02*
X62594000Y-42576700D01*
X61760600Y-41743300D02*
X18416700Y-41743300D01*
%TO.N,GPS_PPS*%
X73760900Y-38376400D02*
X69484900Y-38376400D01*
X16100000Y-10239600D02*
X17941200Y-8398400D01*
X74157300Y-39405600D02*
X74157300Y-38772800D01*
X17941200Y-8398400D02*
X26098300Y-8398400D01*
X75175000Y-40423300D02*
X74157300Y-39405600D01*
X74157300Y-38772800D02*
X73760900Y-38376400D01*
X75175000Y-41500000D02*
X75175000Y-40423300D01*
X16100000Y-10875000D02*
X16100000Y-10239600D01*
%TO.N,GPS_RX*%
X76445000Y-40421700D02*
X73443700Y-37420400D01*
X76445000Y-40423300D02*
X76445000Y-40421700D01*
X25410000Y-18285000D02*
X27524400Y-18285000D01*
X76445000Y-41500000D02*
X76445000Y-40423300D01*
X73443700Y-37420400D02*
X71097000Y-37420400D01*
X25125000Y-18000000D02*
X25410000Y-18285000D01*
%TO.N,GPS_TX*%
X77715000Y-40423300D02*
X73885200Y-36593500D01*
X27437000Y-22339900D02*
X27437100Y-22339900D01*
X73885200Y-36593500D02*
X66782800Y-36593500D01*
X77715000Y-41500000D02*
X77715000Y-40423300D01*
X25762900Y-19900000D02*
X27437000Y-21574100D01*
X25125000Y-19900000D02*
X25762900Y-19900000D01*
X27437000Y-21574100D02*
X27437000Y-22339900D01*
%TO.N,ALERT_BUZZER_GATE*%
X113947300Y-67227700D02*
X96331900Y-67227700D01*
X80750000Y-33900000D02*
X84702000Y-33900000D01*
X114175000Y-67000000D02*
X113947300Y-67227700D01*
%TO.N,VIBRATION_GATE*%
X87175000Y-79000000D02*
X86375000Y-79800000D01*
X80750000Y-31360000D02*
X82765500Y-31360000D01*
X86375000Y-79800000D02*
X85254300Y-79800000D01*
%TO.N,UART0_RX*%
X80750000Y-28820000D02*
X77518700Y-28820000D01*
X75446400Y-51553600D02*
X75000000Y-52000000D01*
X76124100Y-51553600D02*
X75446400Y-51553600D01*
%TO.N,UART0_TX*%
X69000000Y-52000000D02*
X70405800Y-50594200D01*
X80750000Y-27550000D02*
X82765500Y-27550000D01*
X70405800Y-50594200D02*
X84013600Y-50594200D01*
%TO.N,BOOST_EN*%
X53760000Y-68500000D02*
X53475000Y-68500000D01*
X56219800Y-68500000D02*
X53760000Y-68500000D01*
%TO.N,RX5808_RSSI_RAW*%
X141800000Y-58420000D02*
X140384900Y-57004900D01*
X140384900Y-57004900D02*
X108179900Y-57004900D01*
X108179900Y-57004900D02*
X104175000Y-53000000D01*
%TO.N,CHG_LED_A*%
X22787500Y-81000000D02*
X26825000Y-85037500D01*
X26825000Y-85037500D02*
X26825000Y-86000000D01*
%TO.N,BOOST_SW*%
D74*
X64350000Y-69000000D02*
X64350000Y-65548300D01*
X50240000Y-68000000D02*
X50240000Y-67218300D01*
X63752400Y-64950700D02*
X64350000Y-65548300D01*
X50240000Y-67218300D02*
X52507600Y-64950700D01*
X52507600Y-64950700D02*
X63752400Y-64950700D01*
D77*
X50525000Y-68304600D02*
X50525000Y-68500000D01*
X50524900Y-68215100D02*
X50525000Y-68215000D01*
X50240000Y-68500000D02*
X50435500Y-68304500D01*
X50524900Y-68304500D02*
X50525000Y-68304600D01*
D74*
X50525000Y-68000000D02*
X50240000Y-68000000D01*
D77*
X50435500Y-68304500D02*
X50524900Y-68304500D01*
D74*
X50525000Y-68215000D02*
X50525000Y-68000000D01*
D77*
X50524900Y-68304500D02*
X50524900Y-68215100D01*
%TO.N,unconnected-(U5-PG-Pad5)*%
D76*
X50525000Y-70000000D02*
X50240000Y-70000000D01*
%TO.N,unconnected-(U5-SS-Pad6)*%
X53760000Y-70000000D02*
X53475000Y-70000000D01*
%TO.N,unconnected-(U5-HYS-Pad8)*%
X53760000Y-69000000D02*
X53475000Y-69000000D01*
%TD*%
M02*
