%TF.GenerationSoftware,KiCad,Pcbnew,10.0.5*%
%TF.CreationDate,2026-08-11T15:36:02+03:00*%
%TF.ProjectId,skysweep32_rev_c,736b7973-7765-4657-9033-325f7265765f,rev?*%
%TF.SameCoordinates,Original*%
%TF.FileFunction,Paste,Top*%
%TF.FilePolarity,Positive*%
%FSLAX46Y46*%
G04 Gerber Fmt 4.6, Leading zero omitted, Abs format (unit mm)*
G04 Created by KiCad (PCBNEW 10.0.5) date 2026-08-11 15:36:02*
%MOMM*%
%LPD*%
G01*
G04 APERTURE LIST*
G04 Aperture macros list*
%AMRoundRect*
0 Rectangle with rounded corners*
0 $1 Rounding radius*
0 $2 $3 $4 $5 $6 $7 $8 $9 X,Y pos of 4 corners*
0 Add a 4 corners polygon primitive as box body*
4,1,4,$2,$3,$4,$5,$6,$7,$8,$9,$2,$3,0*
0 Add four circle primitives for the rounded corners*
1,1,$1+$1,$2,$3*
1,1,$1+$1,$4,$5*
1,1,$1+$1,$6,$7*
1,1,$1+$1,$8,$9*
0 Add four rect primitives between the rounded corners*
20,1,$1+$1,$2,$3,$4,$5,0*
20,1,$1+$1,$4,$5,$6,$7,0*
20,1,$1+$1,$6,$7,$8,$9,0*
20,1,$1+$1,$8,$9,$2,$3,0*%
G04 Aperture macros list end*
%ADD10RoundRect,0.200000X-0.200000X-0.275000X0.200000X-0.275000X0.200000X0.275000X-0.200000X0.275000X0*%
%ADD11R,1.100000X0.850000*%
%ADD12R,1.100000X0.750000*%
%ADD13R,1.000000X1.200000*%
%ADD14R,1.350000X1.550000*%
%ADD15R,1.350000X1.900000*%
%ADD16R,1.800000X1.170000*%
%ADD17R,2.750000X1.600000*%
%ADD18RoundRect,0.240000X-1.135000X-0.560000X1.135000X-0.560000X1.135000X0.560000X-1.135000X0.560000X0*%
%ADD19RoundRect,0.240000X0.560000X-1.135000X0.560000X1.135000X-0.560000X1.135000X-0.560000X-1.135000X0*%
%ADD20RoundRect,0.250000X0.650000X-1.000000X0.650000X1.000000X-0.650000X1.000000X-0.650000X-1.000000X0*%
%ADD21R,2.200000X3.000000*%
%ADD22RoundRect,0.440000X-0.660000X-1.060000X0.660000X-1.060000X0.660000X1.060000X-0.660000X1.060000X0*%
%ADD23R,5.080000X1.500000*%
%ADD24RoundRect,0.225000X-0.225000X-0.250000X0.225000X-0.250000X0.225000X0.250000X-0.225000X0.250000X0*%
%ADD25RoundRect,0.250000X-0.250000X-0.475000X0.250000X-0.475000X0.250000X0.475000X-0.250000X0.475000X0*%
%ADD26RoundRect,0.218750X-0.218750X-0.256250X0.218750X-0.256250X0.218750X0.256250X-0.218750X0.256250X0*%
%ADD27RoundRect,0.150000X-0.150000X-0.425000X0.150000X-0.425000X0.150000X0.425000X-0.150000X0.425000X0*%
%ADD28RoundRect,0.075000X-0.075000X-0.500000X0.075000X-0.500000X0.075000X0.500000X-0.075000X0.500000X0*%
%ADD29O,1.000000X2.100000*%
%ADD30O,1.000000X1.800000*%
%ADD31R,1.600000X5.700000*%
%ADD32RoundRect,0.250000X1.450000X-0.312500X1.450000X0.312500X-1.450000X0.312500X-1.450000X-0.312500X0*%
%ADD33R,1.800000X1.100000*%
%ADD34RoundRect,0.150000X-0.587500X-0.150000X0.587500X-0.150000X0.587500X0.150000X-0.587500X0.150000X0*%
%ADD35RoundRect,0.150000X-0.150000X-0.625000X0.150000X-0.625000X0.150000X0.625000X-0.150000X0.625000X0*%
%ADD36RoundRect,0.250000X-0.350000X-0.650000X0.350000X-0.650000X0.350000X0.650000X-0.350000X0.650000X0*%
%ADD37R,0.900000X0.900000*%
%ADD38R,1.500000X0.900000*%
%ADD39R,0.900000X1.500000*%
%ADD40RoundRect,0.250000X-0.325000X-0.650000X0.325000X-0.650000X0.325000X0.650000X-0.325000X0.650000X0*%
%ADD41RoundRect,0.250000X-0.450000X-0.800000X0.450000X-0.800000X0.450000X0.800000X-0.450000X0.800000X0*%
%ADD42RoundRect,0.150000X-0.512500X-0.150000X0.512500X-0.150000X0.512500X0.150000X-0.512500X0.150000X0*%
%ADD43RoundRect,0.250000X0.800000X-0.450000X0.800000X0.450000X-0.800000X0.450000X-0.800000X-0.450000X0*%
%ADD44RoundRect,0.160000X-0.740000X-0.240000X0.740000X-0.240000X0.740000X0.240000X-0.740000X0.240000X0*%
G04 APERTURE END LIST*
D10*
%TO.C,R9*%
X27175000Y-20000000D03*
X28825000Y-20000000D03*
%TD*%
D11*
%TO.C,J2*%
X107550000Y-62105000D03*
X107550000Y-61005000D03*
X107550000Y-59905000D03*
X107550000Y-58805000D03*
X107550000Y-57705000D03*
X107550000Y-56605000D03*
X107550000Y-55505000D03*
D12*
X107550000Y-54455000D03*
D13*
X113700000Y-64740000D03*
X117400000Y-64740000D03*
D14*
X107675000Y-64565000D03*
D15*
X118375000Y-61240000D03*
X118375000Y-55270000D03*
D16*
X107900000Y-53245000D03*
%TD*%
D17*
%TO.C,GPS1*%
X9875000Y-22800000D03*
D18*
X9875000Y-20900000D03*
X9875000Y-19000000D03*
X9875000Y-17100000D03*
X9875000Y-15200000D03*
D19*
X13200000Y-11875000D03*
X15100000Y-11875000D03*
X17000000Y-11875000D03*
X18900000Y-11875000D03*
X20800000Y-11875000D03*
D18*
X24125000Y-15200000D03*
X24125000Y-17100000D03*
X24125000Y-19000000D03*
X24125000Y-20900000D03*
X24125000Y-22800000D03*
D19*
X20800000Y-26125000D03*
X18900000Y-26125000D03*
X17000000Y-26125000D03*
X15100000Y-26125000D03*
X13200000Y-26125000D03*
%TD*%
D20*
%TO.C,D1*%
X39000000Y-78000000D03*
X39000000Y-74000000D03*
%TD*%
D21*
%TO.C,BZ1*%
X74500000Y-58000000D03*
D22*
X83500000Y-58000000D03*
%TD*%
D23*
%TO.C,J5*%
X2550000Y-44270000D03*
X2550000Y-48520000D03*
X2550000Y-40020000D03*
%TD*%
D24*
%TO.C,C15*%
X108225000Y-68000000D03*
X109775000Y-68000000D03*
%TD*%
%TO.C,C6*%
X57225000Y-44000000D03*
X58775000Y-44000000D03*
%TD*%
D10*
%TO.C,R3*%
X37175000Y-61000000D03*
X38825000Y-61000000D03*
%TD*%
D25*
%TO.C,C8*%
X93050000Y-25000000D03*
X94950000Y-25000000D03*
%TD*%
D10*
%TO.C,R17*%
X66175000Y-76000000D03*
X67825000Y-76000000D03*
%TD*%
D25*
%TO.C,C16*%
X67050000Y-72000000D03*
X68950000Y-72000000D03*
%TD*%
D10*
%TO.C,R8*%
X27175000Y-15000000D03*
X28825000Y-15000000D03*
%TD*%
D24*
%TO.C,C7*%
X49225000Y-47000000D03*
X50775000Y-47000000D03*
%TD*%
D26*
%TO.C,D3*%
X70212500Y-76000000D03*
X71787500Y-76000000D03*
%TD*%
D27*
%TO.C,J1*%
X16800000Y-77645000D03*
X17600000Y-77645000D03*
D28*
X18750000Y-77645000D03*
X19750000Y-77645000D03*
X20250000Y-77645000D03*
X21250000Y-77645000D03*
D27*
X22400000Y-77645000D03*
X23200000Y-77645000D03*
X23200000Y-77645000D03*
X22400000Y-77645000D03*
D28*
X21750000Y-77645000D03*
X20750000Y-77645000D03*
X19250000Y-77645000D03*
X18250000Y-77645000D03*
D27*
X17600000Y-77645000D03*
X16800000Y-77645000D03*
D29*
X15680000Y-78220000D03*
D30*
X15680000Y-82400000D03*
D29*
X24320000Y-78220000D03*
D30*
X24320000Y-82400000D03*
%TD*%
D31*
%TO.C,L1*%
X54650000Y-69000000D03*
X59350000Y-69000000D03*
%TD*%
D10*
%TO.C,R18*%
X96175000Y-66000000D03*
X97825000Y-66000000D03*
%TD*%
D24*
%TO.C,C11*%
X25225000Y-53000000D03*
X26775000Y-53000000D03*
%TD*%
D10*
%TO.C,R4*%
X37175000Y-64000000D03*
X38825000Y-64000000D03*
%TD*%
%TO.C,R6*%
X92175000Y-75000000D03*
X93825000Y-75000000D03*
%TD*%
D32*
%TO.C,F1*%
X33000000Y-74137500D03*
X33000000Y-69862500D03*
%TD*%
D33*
%TO.C,SW3*%
X100900000Y-78150000D03*
X107100000Y-78150000D03*
X100900000Y-81850000D03*
X107100000Y-81850000D03*
%TD*%
D34*
%TO.C,Q2*%
X93062500Y-69050000D03*
X93062500Y-70950000D03*
X94937500Y-70000000D03*
%TD*%
D25*
%TO.C,C14*%
X103050000Y-68000000D03*
X104950000Y-68000000D03*
%TD*%
D10*
%TO.C,R16*%
X89175000Y-62000000D03*
X90825000Y-62000000D03*
%TD*%
D25*
%TO.C,C10*%
X25050000Y-48000000D03*
X26950000Y-48000000D03*
%TD*%
D35*
%TO.C,J3*%
X61500000Y-77000000D03*
X62500000Y-77000000D03*
X63500000Y-77000000D03*
X64500000Y-77000000D03*
D36*
X60200000Y-80875000D03*
X65800000Y-80875000D03*
%TD*%
D10*
%TO.C,R14*%
X95175000Y-63000000D03*
X96825000Y-63000000D03*
%TD*%
D37*
%TO.C,U1*%
X57100000Y-29060000D03*
X57100000Y-30460000D03*
X57100000Y-31860000D03*
X58500000Y-29060000D03*
X58500000Y-30460000D03*
X58500000Y-31860000D03*
X59900000Y-29060000D03*
X59900000Y-30460000D03*
X59900000Y-31860000D03*
D38*
X51250000Y-22740000D03*
X51250000Y-24010000D03*
X51250000Y-25280000D03*
X51250000Y-26550000D03*
X51250000Y-27820000D03*
X51250000Y-29090000D03*
X51250000Y-30360000D03*
X51250000Y-31630000D03*
X51250000Y-32900000D03*
X51250000Y-34170000D03*
X51250000Y-35440000D03*
X51250000Y-36710000D03*
X51250000Y-37980000D03*
X51250000Y-39250000D03*
D39*
X53015000Y-40500000D03*
X54285000Y-40500000D03*
X55555000Y-40500000D03*
X56825000Y-40500000D03*
X58095000Y-40500000D03*
X59365000Y-40500000D03*
X60635000Y-40500000D03*
X61905000Y-40500000D03*
X63175000Y-40500000D03*
X64445000Y-40500000D03*
X65715000Y-40500000D03*
X66985000Y-40500000D03*
D38*
X68750000Y-39250000D03*
X68750000Y-37980000D03*
X68750000Y-36710000D03*
X68750000Y-35440000D03*
X68750000Y-34170000D03*
X68750000Y-32900000D03*
X68750000Y-31630000D03*
X68750000Y-30360000D03*
X68750000Y-29090000D03*
X68750000Y-27820000D03*
X68750000Y-26550000D03*
X68750000Y-25280000D03*
X68750000Y-24010000D03*
X68750000Y-22740000D03*
%TD*%
D40*
%TO.C,C4*%
X62525000Y-72000000D03*
X65475000Y-72000000D03*
%TD*%
D10*
%TO.C,R5*%
X45175000Y-47000000D03*
X46825000Y-47000000D03*
%TD*%
%TO.C,R10*%
X27175000Y-25000000D03*
X28825000Y-25000000D03*
%TD*%
D41*
%TO.C,D2*%
X66300000Y-58000000D03*
X70700000Y-58000000D03*
%TD*%
D40*
%TO.C,C1*%
X43525000Y-76000000D03*
X46475000Y-76000000D03*
%TD*%
D25*
%TO.C,C5*%
X53050000Y-44000000D03*
X54950000Y-44000000D03*
%TD*%
D42*
%TO.C,U3*%
X45862500Y-68050000D03*
X45862500Y-69000000D03*
X45862500Y-69950000D03*
X48137500Y-69950000D03*
X48137500Y-69000000D03*
X48137500Y-68050000D03*
%TD*%
D33*
%TO.C,SW1*%
X78900000Y-78150000D03*
X85100000Y-78150000D03*
X78900000Y-81850000D03*
X85100000Y-81850000D03*
%TD*%
D43*
%TO.C,D4*%
X74000000Y-72200000D03*
X74000000Y-67800000D03*
%TD*%
D40*
%TO.C,C3*%
X62525000Y-66000000D03*
X65475000Y-66000000D03*
%TD*%
D24*
%TO.C,C2*%
X50225000Y-64000000D03*
X51775000Y-64000000D03*
%TD*%
D10*
%TO.C,R13*%
X95175000Y-59000000D03*
X96825000Y-59000000D03*
%TD*%
D34*
%TO.C,Q1*%
X88062500Y-57050000D03*
X88062500Y-58950000D03*
X89937500Y-58000000D03*
%TD*%
D44*
%TO.C,RF2*%
X21750000Y-43000000D03*
X21750000Y-44270000D03*
X21750000Y-45540000D03*
X21750000Y-51910000D03*
X21750000Y-53180000D03*
X21750000Y-54450000D03*
X21750000Y-55720000D03*
X21750000Y-56990000D03*
X21750000Y-58260000D03*
X21750000Y-59530000D03*
X21750000Y-60800000D03*
X8250000Y-60800000D03*
X8250000Y-59530000D03*
X8250000Y-58260000D03*
X8250000Y-56990000D03*
X8250000Y-55720000D03*
X8250000Y-54450000D03*
X8250000Y-53180000D03*
X8250000Y-51910000D03*
X8250000Y-45540000D03*
X8250000Y-44270000D03*
X8250000Y-43000000D03*
%TD*%
D10*
%TO.C,R1*%
X28175000Y-78000000D03*
X29825000Y-78000000D03*
%TD*%
%TO.C,R19*%
X97175000Y-70000000D03*
X98825000Y-70000000D03*
%TD*%
D42*
%TO.C,U2*%
X30862500Y-62050000D03*
X30862500Y-63000000D03*
X30862500Y-63950000D03*
X33137500Y-63950000D03*
X33137500Y-63000000D03*
X33137500Y-62050000D03*
%TD*%
D10*
%TO.C,R11*%
X95175000Y-51000000D03*
X96825000Y-51000000D03*
%TD*%
D25*
%TO.C,C12*%
X16050000Y-30000000D03*
X17950000Y-30000000D03*
%TD*%
D10*
%TO.C,R15*%
X88175000Y-53000000D03*
X89825000Y-53000000D03*
%TD*%
%TO.C,R7*%
X100175000Y-75000000D03*
X101825000Y-75000000D03*
%TD*%
%TO.C,R12*%
X95175000Y-55000000D03*
X96825000Y-55000000D03*
%TD*%
%TO.C,R2*%
X31175000Y-78000000D03*
X32825000Y-78000000D03*
%TD*%
D33*
%TO.C,SW2*%
X89900000Y-78150000D03*
X96100000Y-78150000D03*
X89900000Y-81850000D03*
X96100000Y-81850000D03*
%TD*%
D24*
%TO.C,C13*%
X21225000Y-30000000D03*
X22775000Y-30000000D03*
%TD*%
%TO.C,C9*%
X93225000Y-29000000D03*
X94775000Y-29000000D03*
%TD*%
M02*
