%TF.GenerationSoftware,KiCad,Pcbnew,10.0.5*%
%TF.CreationDate,2026-08-13T12:02:17+03:00*%
%TF.ProjectId,skysweep32_rev_c,736b7973-7765-4657-9033-325f7265765f,rev?*%
%TF.SameCoordinates,Original*%
%TF.FileFunction,Drillmap*%
%TF.FilePolarity,Positive*%
%FSLAX45Y45*%
G04 Gerber Fmt 4.5, Leading zero omitted, Abs format (unit mm)*
G04 Created by KiCad (PCBNEW 10.0.5) date 2026-08-13 12:02:17*
%MOMM*%
%LPD*%
G01*
G04 APERTURE LIST*
%ADD10C,0.100000*%
%ADD11C,0.200000*%
%ADD12C,0.320000*%
G04 APERTURE END LIST*
D10*
X0Y-300000D02*
G75*
G02*
X300000Y0I300109J-109D01*
G01*
X0Y-9200000D02*
X0Y-300000D01*
X300000Y0D02*
X14700000Y0D01*
X300000Y-9500000D02*
G75*
G02*
X0Y-9200000I109J300109D01*
G01*
X14700000Y0D02*
G75*
G02*
X15000000Y-300000I-110J-300110D01*
G01*
X14700000Y-9500000D02*
X300000Y-9500000D01*
X15000000Y-300000D02*
X15000000Y-9200000D01*
X15000000Y-9200000D02*
G75*
G02*
X14700000Y-9500000I-300110J110D01*
G01*
D11*
D10*
X3178500Y-8839500D02*
X3243500Y-8904500D01*
X3243500Y-8839500D02*
X3178500Y-8904500D01*
X3756500Y-8839500D02*
X3821500Y-8904500D01*
X3821500Y-8839500D02*
X3756500Y-8904500D01*
D12*
X660000Y-500000D02*
G75*
G02*
X340000Y-500000I-160000J0D01*
G01*
X340000Y-500000D02*
G75*
G02*
X660000Y-500000I160000J0D01*
G01*
X660000Y-9000000D02*
G75*
G02*
X340000Y-9000000I-160000J0D01*
G01*
X340000Y-9000000D02*
G75*
G02*
X660000Y-9000000I160000J0D01*
G01*
X14660000Y-500000D02*
G75*
G02*
X14340000Y-500000I-160000J0D01*
G01*
X14340000Y-500000D02*
G75*
G02*
X14660000Y-500000I160000J0D01*
G01*
X14660000Y-9000000D02*
G75*
G02*
X14340000Y-9000000I-160000J0D01*
G01*
X14340000Y-9000000D02*
G75*
G02*
X14660000Y-9000000I160000J0D01*
G01*
D11*
X255777Y-9816484D02*
X255777Y-9616484D01*
X255777Y-9616484D02*
X303396Y-9616484D01*
X303396Y-9616484D02*
X331967Y-9626008D01*
X331967Y-9626008D02*
X351015Y-9645055D01*
X351015Y-9645055D02*
X360539Y-9664103D01*
X360539Y-9664103D02*
X370062Y-9702198D01*
X370062Y-9702198D02*
X370062Y-9730770D01*
X370062Y-9730770D02*
X360539Y-9768865D01*
X360539Y-9768865D02*
X351015Y-9787912D01*
X351015Y-9787912D02*
X331967Y-9806960D01*
X331967Y-9806960D02*
X303396Y-9816484D01*
X303396Y-9816484D02*
X255777Y-9816484D01*
X455777Y-9816484D02*
X455777Y-9683150D01*
X455777Y-9721246D02*
X465301Y-9702198D01*
X465301Y-9702198D02*
X474824Y-9692674D01*
X474824Y-9692674D02*
X493872Y-9683150D01*
X493872Y-9683150D02*
X512920Y-9683150D01*
X579586Y-9816484D02*
X579586Y-9683150D01*
X579586Y-9616484D02*
X570063Y-9626008D01*
X570063Y-9626008D02*
X579586Y-9635531D01*
X579586Y-9635531D02*
X589110Y-9626008D01*
X589110Y-9626008D02*
X579586Y-9616484D01*
X579586Y-9616484D02*
X579586Y-9635531D01*
X703396Y-9816484D02*
X684348Y-9806960D01*
X684348Y-9806960D02*
X674824Y-9787912D01*
X674824Y-9787912D02*
X674824Y-9616484D01*
X808158Y-9816484D02*
X789110Y-9806960D01*
X789110Y-9806960D02*
X779586Y-9787912D01*
X779586Y-9787912D02*
X779586Y-9616484D01*
X1036729Y-9816484D02*
X1036729Y-9616484D01*
X1036729Y-9616484D02*
X1103396Y-9759341D01*
X1103396Y-9759341D02*
X1170063Y-9616484D01*
X1170063Y-9616484D02*
X1170063Y-9816484D01*
X1351015Y-9816484D02*
X1351015Y-9711722D01*
X1351015Y-9711722D02*
X1341491Y-9692674D01*
X1341491Y-9692674D02*
X1322444Y-9683150D01*
X1322444Y-9683150D02*
X1284348Y-9683150D01*
X1284348Y-9683150D02*
X1265301Y-9692674D01*
X1351015Y-9806960D02*
X1331967Y-9816484D01*
X1331967Y-9816484D02*
X1284348Y-9816484D01*
X1284348Y-9816484D02*
X1265301Y-9806960D01*
X1265301Y-9806960D02*
X1255777Y-9787912D01*
X1255777Y-9787912D02*
X1255777Y-9768865D01*
X1255777Y-9768865D02*
X1265301Y-9749817D01*
X1265301Y-9749817D02*
X1284348Y-9740293D01*
X1284348Y-9740293D02*
X1331967Y-9740293D01*
X1331967Y-9740293D02*
X1351015Y-9730770D01*
X1446253Y-9683150D02*
X1446253Y-9883150D01*
X1446253Y-9692674D02*
X1465301Y-9683150D01*
X1465301Y-9683150D02*
X1503396Y-9683150D01*
X1503396Y-9683150D02*
X1522443Y-9692674D01*
X1522443Y-9692674D02*
X1531967Y-9702198D01*
X1531967Y-9702198D02*
X1541491Y-9721246D01*
X1541491Y-9721246D02*
X1541491Y-9778389D01*
X1541491Y-9778389D02*
X1531967Y-9797436D01*
X1531967Y-9797436D02*
X1522443Y-9806960D01*
X1522443Y-9806960D02*
X1503396Y-9816484D01*
X1503396Y-9816484D02*
X1465301Y-9816484D01*
X1465301Y-9816484D02*
X1446253Y-9806960D01*
X1627205Y-9797436D02*
X1636729Y-9806960D01*
X1636729Y-9806960D02*
X1627205Y-9816484D01*
X1627205Y-9816484D02*
X1617682Y-9806960D01*
X1617682Y-9806960D02*
X1627205Y-9797436D01*
X1627205Y-9797436D02*
X1627205Y-9816484D01*
X1627205Y-9692674D02*
X1636729Y-9702198D01*
X1636729Y-9702198D02*
X1627205Y-9711722D01*
X1627205Y-9711722D02*
X1617682Y-9702198D01*
X1617682Y-9702198D02*
X1627205Y-9692674D01*
X1627205Y-9692674D02*
X1627205Y-9711722D01*
D10*
X-70000Y-10112500D02*
X-5000Y-10177500D01*
X-5000Y-10112500D02*
X-70000Y-10177500D01*
D11*
X293872Y-10036484D02*
X312920Y-10036484D01*
X312920Y-10036484D02*
X331967Y-10046008D01*
X331967Y-10046008D02*
X341491Y-10055531D01*
X341491Y-10055531D02*
X351015Y-10074579D01*
X351015Y-10074579D02*
X360539Y-10112674D01*
X360539Y-10112674D02*
X360539Y-10160293D01*
X360539Y-10160293D02*
X351015Y-10198389D01*
X351015Y-10198389D02*
X341491Y-10217436D01*
X341491Y-10217436D02*
X331967Y-10226960D01*
X331967Y-10226960D02*
X312920Y-10236484D01*
X312920Y-10236484D02*
X293872Y-10236484D01*
X293872Y-10236484D02*
X274824Y-10226960D01*
X274824Y-10226960D02*
X265301Y-10217436D01*
X265301Y-10217436D02*
X255777Y-10198389D01*
X255777Y-10198389D02*
X246253Y-10160293D01*
X246253Y-10160293D02*
X246253Y-10112674D01*
X246253Y-10112674D02*
X255777Y-10074579D01*
X255777Y-10074579D02*
X265301Y-10055531D01*
X265301Y-10055531D02*
X274824Y-10046008D01*
X274824Y-10046008D02*
X293872Y-10036484D01*
X446253Y-10217436D02*
X455777Y-10226960D01*
X455777Y-10226960D02*
X446253Y-10236484D01*
X446253Y-10236484D02*
X436729Y-10226960D01*
X436729Y-10226960D02*
X446253Y-10217436D01*
X446253Y-10217436D02*
X446253Y-10236484D01*
X627205Y-10036484D02*
X589110Y-10036484D01*
X589110Y-10036484D02*
X570063Y-10046008D01*
X570063Y-10046008D02*
X560539Y-10055531D01*
X560539Y-10055531D02*
X541491Y-10084103D01*
X541491Y-10084103D02*
X531967Y-10122198D01*
X531967Y-10122198D02*
X531967Y-10198389D01*
X531967Y-10198389D02*
X541491Y-10217436D01*
X541491Y-10217436D02*
X551015Y-10226960D01*
X551015Y-10226960D02*
X570063Y-10236484D01*
X570063Y-10236484D02*
X608158Y-10236484D01*
X608158Y-10236484D02*
X627205Y-10226960D01*
X627205Y-10226960D02*
X636729Y-10217436D01*
X636729Y-10217436D02*
X646253Y-10198389D01*
X646253Y-10198389D02*
X646253Y-10150770D01*
X646253Y-10150770D02*
X636729Y-10131722D01*
X636729Y-10131722D02*
X627205Y-10122198D01*
X627205Y-10122198D02*
X608158Y-10112674D01*
X608158Y-10112674D02*
X570063Y-10112674D01*
X570063Y-10112674D02*
X551015Y-10122198D01*
X551015Y-10122198D02*
X541491Y-10131722D01*
X541491Y-10131722D02*
X531967Y-10150770D01*
X827205Y-10036484D02*
X731967Y-10036484D01*
X731967Y-10036484D02*
X722443Y-10131722D01*
X722443Y-10131722D02*
X731967Y-10122198D01*
X731967Y-10122198D02*
X751015Y-10112674D01*
X751015Y-10112674D02*
X798634Y-10112674D01*
X798634Y-10112674D02*
X817682Y-10122198D01*
X817682Y-10122198D02*
X827205Y-10131722D01*
X827205Y-10131722D02*
X836729Y-10150770D01*
X836729Y-10150770D02*
X836729Y-10198389D01*
X836729Y-10198389D02*
X827205Y-10217436D01*
X827205Y-10217436D02*
X817682Y-10226960D01*
X817682Y-10226960D02*
X798634Y-10236484D01*
X798634Y-10236484D02*
X751015Y-10236484D01*
X751015Y-10236484D02*
X731967Y-10226960D01*
X731967Y-10226960D02*
X722443Y-10217436D01*
X960539Y-10036484D02*
X979586Y-10036484D01*
X979586Y-10036484D02*
X998634Y-10046008D01*
X998634Y-10046008D02*
X1008158Y-10055531D01*
X1008158Y-10055531D02*
X1017682Y-10074579D01*
X1017682Y-10074579D02*
X1027205Y-10112674D01*
X1027205Y-10112674D02*
X1027205Y-10160293D01*
X1027205Y-10160293D02*
X1017682Y-10198389D01*
X1017682Y-10198389D02*
X1008158Y-10217436D01*
X1008158Y-10217436D02*
X998634Y-10226960D01*
X998634Y-10226960D02*
X979586Y-10236484D01*
X979586Y-10236484D02*
X960539Y-10236484D01*
X960539Y-10236484D02*
X941491Y-10226960D01*
X941491Y-10226960D02*
X931967Y-10217436D01*
X931967Y-10217436D02*
X922443Y-10198389D01*
X922443Y-10198389D02*
X912920Y-10160293D01*
X912920Y-10160293D02*
X912920Y-10112674D01*
X912920Y-10112674D02*
X922443Y-10074579D01*
X922443Y-10074579D02*
X931967Y-10055531D01*
X931967Y-10055531D02*
X941491Y-10046008D01*
X941491Y-10046008D02*
X960539Y-10036484D01*
X1112920Y-10236484D02*
X1112920Y-10103150D01*
X1112920Y-10122198D02*
X1122444Y-10112674D01*
X1122444Y-10112674D02*
X1141491Y-10103150D01*
X1141491Y-10103150D02*
X1170063Y-10103150D01*
X1170063Y-10103150D02*
X1189110Y-10112674D01*
X1189110Y-10112674D02*
X1198634Y-10131722D01*
X1198634Y-10131722D02*
X1198634Y-10236484D01*
X1198634Y-10131722D02*
X1208158Y-10112674D01*
X1208158Y-10112674D02*
X1227205Y-10103150D01*
X1227205Y-10103150D02*
X1255777Y-10103150D01*
X1255777Y-10103150D02*
X1274825Y-10112674D01*
X1274825Y-10112674D02*
X1284348Y-10131722D01*
X1284348Y-10131722D02*
X1284348Y-10236484D01*
X1379586Y-10236484D02*
X1379586Y-10103150D01*
X1379586Y-10122198D02*
X1389110Y-10112674D01*
X1389110Y-10112674D02*
X1408158Y-10103150D01*
X1408158Y-10103150D02*
X1436729Y-10103150D01*
X1436729Y-10103150D02*
X1455777Y-10112674D01*
X1455777Y-10112674D02*
X1465301Y-10131722D01*
X1465301Y-10131722D02*
X1465301Y-10236484D01*
X1465301Y-10131722D02*
X1474824Y-10112674D01*
X1474824Y-10112674D02*
X1493872Y-10103150D01*
X1493872Y-10103150D02*
X1522443Y-10103150D01*
X1522443Y-10103150D02*
X1541491Y-10112674D01*
X1541491Y-10112674D02*
X1551015Y-10131722D01*
X1551015Y-10131722D02*
X1551015Y-10236484D01*
X1941491Y-10026960D02*
X1770063Y-10284103D01*
X2198634Y-10036484D02*
X2217682Y-10036484D01*
X2217682Y-10036484D02*
X2236729Y-10046008D01*
X2236729Y-10046008D02*
X2246253Y-10055531D01*
X2246253Y-10055531D02*
X2255777Y-10074579D01*
X2255777Y-10074579D02*
X2265301Y-10112674D01*
X2265301Y-10112674D02*
X2265301Y-10160293D01*
X2265301Y-10160293D02*
X2255777Y-10198389D01*
X2255777Y-10198389D02*
X2246253Y-10217436D01*
X2246253Y-10217436D02*
X2236729Y-10226960D01*
X2236729Y-10226960D02*
X2217682Y-10236484D01*
X2217682Y-10236484D02*
X2198634Y-10236484D01*
X2198634Y-10236484D02*
X2179587Y-10226960D01*
X2179587Y-10226960D02*
X2170063Y-10217436D01*
X2170063Y-10217436D02*
X2160539Y-10198389D01*
X2160539Y-10198389D02*
X2151015Y-10160293D01*
X2151015Y-10160293D02*
X2151015Y-10112674D01*
X2151015Y-10112674D02*
X2160539Y-10074579D01*
X2160539Y-10074579D02*
X2170063Y-10055531D01*
X2170063Y-10055531D02*
X2179587Y-10046008D01*
X2179587Y-10046008D02*
X2198634Y-10036484D01*
X2351015Y-10217436D02*
X2360539Y-10226960D01*
X2360539Y-10226960D02*
X2351015Y-10236484D01*
X2351015Y-10236484D02*
X2341491Y-10226960D01*
X2341491Y-10226960D02*
X2351015Y-10217436D01*
X2351015Y-10217436D02*
X2351015Y-10236484D01*
X2484348Y-10036484D02*
X2503396Y-10036484D01*
X2503396Y-10036484D02*
X2522444Y-10046008D01*
X2522444Y-10046008D02*
X2531968Y-10055531D01*
X2531968Y-10055531D02*
X2541491Y-10074579D01*
X2541491Y-10074579D02*
X2551015Y-10112674D01*
X2551015Y-10112674D02*
X2551015Y-10160293D01*
X2551015Y-10160293D02*
X2541491Y-10198389D01*
X2541491Y-10198389D02*
X2531968Y-10217436D01*
X2531968Y-10217436D02*
X2522444Y-10226960D01*
X2522444Y-10226960D02*
X2503396Y-10236484D01*
X2503396Y-10236484D02*
X2484348Y-10236484D01*
X2484348Y-10236484D02*
X2465301Y-10226960D01*
X2465301Y-10226960D02*
X2455777Y-10217436D01*
X2455777Y-10217436D02*
X2446253Y-10198389D01*
X2446253Y-10198389D02*
X2436729Y-10160293D01*
X2436729Y-10160293D02*
X2436729Y-10112674D01*
X2436729Y-10112674D02*
X2446253Y-10074579D01*
X2446253Y-10074579D02*
X2455777Y-10055531D01*
X2455777Y-10055531D02*
X2465301Y-10046008D01*
X2465301Y-10046008D02*
X2484348Y-10036484D01*
X2627206Y-10055531D02*
X2636729Y-10046008D01*
X2636729Y-10046008D02*
X2655777Y-10036484D01*
X2655777Y-10036484D02*
X2703396Y-10036484D01*
X2703396Y-10036484D02*
X2722444Y-10046008D01*
X2722444Y-10046008D02*
X2731968Y-10055531D01*
X2731968Y-10055531D02*
X2741491Y-10074579D01*
X2741491Y-10074579D02*
X2741491Y-10093627D01*
X2741491Y-10093627D02*
X2731968Y-10122198D01*
X2731968Y-10122198D02*
X2617682Y-10236484D01*
X2617682Y-10236484D02*
X2741491Y-10236484D01*
X2922444Y-10036484D02*
X2827206Y-10036484D01*
X2827206Y-10036484D02*
X2817682Y-10131722D01*
X2817682Y-10131722D02*
X2827206Y-10122198D01*
X2827206Y-10122198D02*
X2846253Y-10112674D01*
X2846253Y-10112674D02*
X2893872Y-10112674D01*
X2893872Y-10112674D02*
X2912920Y-10122198D01*
X2912920Y-10122198D02*
X2922444Y-10131722D01*
X2922444Y-10131722D02*
X2931967Y-10150770D01*
X2931967Y-10150770D02*
X2931967Y-10198389D01*
X2931967Y-10198389D02*
X2922444Y-10217436D01*
X2922444Y-10217436D02*
X2912920Y-10226960D01*
X2912920Y-10226960D02*
X2893872Y-10236484D01*
X2893872Y-10236484D02*
X2846253Y-10236484D01*
X2846253Y-10236484D02*
X2827206Y-10226960D01*
X2827206Y-10226960D02*
X2817682Y-10217436D01*
X3103396Y-10036484D02*
X3065301Y-10036484D01*
X3065301Y-10036484D02*
X3046253Y-10046008D01*
X3046253Y-10046008D02*
X3036729Y-10055531D01*
X3036729Y-10055531D02*
X3017682Y-10084103D01*
X3017682Y-10084103D02*
X3008158Y-10122198D01*
X3008158Y-10122198D02*
X3008158Y-10198389D01*
X3008158Y-10198389D02*
X3017682Y-10217436D01*
X3017682Y-10217436D02*
X3027206Y-10226960D01*
X3027206Y-10226960D02*
X3046253Y-10236484D01*
X3046253Y-10236484D02*
X3084348Y-10236484D01*
X3084348Y-10236484D02*
X3103396Y-10226960D01*
X3103396Y-10226960D02*
X3112920Y-10217436D01*
X3112920Y-10217436D02*
X3122444Y-10198389D01*
X3122444Y-10198389D02*
X3122444Y-10150770D01*
X3122444Y-10150770D02*
X3112920Y-10131722D01*
X3112920Y-10131722D02*
X3103396Y-10122198D01*
X3103396Y-10122198D02*
X3084348Y-10112674D01*
X3084348Y-10112674D02*
X3046253Y-10112674D01*
X3046253Y-10112674D02*
X3027206Y-10122198D01*
X3027206Y-10122198D02*
X3017682Y-10131722D01*
X3017682Y-10131722D02*
X3008158Y-10150770D01*
X3198634Y-10036484D02*
X3198634Y-10074579D01*
X3274825Y-10036484D02*
X3274825Y-10074579D01*
X3570063Y-10312674D02*
X3560539Y-10303150D01*
X3560539Y-10303150D02*
X3541491Y-10274579D01*
X3541491Y-10274579D02*
X3531968Y-10255531D01*
X3531968Y-10255531D02*
X3522444Y-10226960D01*
X3522444Y-10226960D02*
X3512920Y-10179341D01*
X3512920Y-10179341D02*
X3512920Y-10141246D01*
X3512920Y-10141246D02*
X3522444Y-10093627D01*
X3522444Y-10093627D02*
X3531968Y-10065055D01*
X3531968Y-10065055D02*
X3541491Y-10046008D01*
X3541491Y-10046008D02*
X3560539Y-10017436D01*
X3560539Y-10017436D02*
X3570063Y-10007912D01*
X3636729Y-10055531D02*
X3646253Y-10046008D01*
X3646253Y-10046008D02*
X3665301Y-10036484D01*
X3665301Y-10036484D02*
X3712920Y-10036484D01*
X3712920Y-10036484D02*
X3731968Y-10046008D01*
X3731968Y-10046008D02*
X3741491Y-10055531D01*
X3741491Y-10055531D02*
X3751015Y-10074579D01*
X3751015Y-10074579D02*
X3751015Y-10093627D01*
X3751015Y-10093627D02*
X3741491Y-10122198D01*
X3741491Y-10122198D02*
X3627206Y-10236484D01*
X3627206Y-10236484D02*
X3751015Y-10236484D01*
X3989110Y-10236484D02*
X3989110Y-10036484D01*
X4074825Y-10236484D02*
X4074825Y-10131722D01*
X4074825Y-10131722D02*
X4065301Y-10112674D01*
X4065301Y-10112674D02*
X4046253Y-10103150D01*
X4046253Y-10103150D02*
X4017682Y-10103150D01*
X4017682Y-10103150D02*
X3998634Y-10112674D01*
X3998634Y-10112674D02*
X3989110Y-10122198D01*
X4198634Y-10236484D02*
X4179587Y-10226960D01*
X4179587Y-10226960D02*
X4170063Y-10217436D01*
X4170063Y-10217436D02*
X4160539Y-10198389D01*
X4160539Y-10198389D02*
X4160539Y-10141246D01*
X4160539Y-10141246D02*
X4170063Y-10122198D01*
X4170063Y-10122198D02*
X4179587Y-10112674D01*
X4179587Y-10112674D02*
X4198634Y-10103150D01*
X4198634Y-10103150D02*
X4227206Y-10103150D01*
X4227206Y-10103150D02*
X4246253Y-10112674D01*
X4246253Y-10112674D02*
X4255777Y-10122198D01*
X4255777Y-10122198D02*
X4265301Y-10141246D01*
X4265301Y-10141246D02*
X4265301Y-10198389D01*
X4265301Y-10198389D02*
X4255777Y-10217436D01*
X4255777Y-10217436D02*
X4246253Y-10226960D01*
X4246253Y-10226960D02*
X4227206Y-10236484D01*
X4227206Y-10236484D02*
X4198634Y-10236484D01*
X4379587Y-10236484D02*
X4360539Y-10226960D01*
X4360539Y-10226960D02*
X4351015Y-10207912D01*
X4351015Y-10207912D02*
X4351015Y-10036484D01*
X4531968Y-10226960D02*
X4512920Y-10236484D01*
X4512920Y-10236484D02*
X4474825Y-10236484D01*
X4474825Y-10236484D02*
X4455777Y-10226960D01*
X4455777Y-10226960D02*
X4446253Y-10207912D01*
X4446253Y-10207912D02*
X4446253Y-10131722D01*
X4446253Y-10131722D02*
X4455777Y-10112674D01*
X4455777Y-10112674D02*
X4474825Y-10103150D01*
X4474825Y-10103150D02*
X4512920Y-10103150D01*
X4512920Y-10103150D02*
X4531968Y-10112674D01*
X4531968Y-10112674D02*
X4541492Y-10131722D01*
X4541492Y-10131722D02*
X4541492Y-10150770D01*
X4541492Y-10150770D02*
X4446253Y-10169817D01*
X4617682Y-10226960D02*
X4636730Y-10236484D01*
X4636730Y-10236484D02*
X4674825Y-10236484D01*
X4674825Y-10236484D02*
X4693873Y-10226960D01*
X4693873Y-10226960D02*
X4703396Y-10207912D01*
X4703396Y-10207912D02*
X4703396Y-10198389D01*
X4703396Y-10198389D02*
X4693873Y-10179341D01*
X4693873Y-10179341D02*
X4674825Y-10169817D01*
X4674825Y-10169817D02*
X4646253Y-10169817D01*
X4646253Y-10169817D02*
X4627206Y-10160293D01*
X4627206Y-10160293D02*
X4617682Y-10141246D01*
X4617682Y-10141246D02*
X4617682Y-10131722D01*
X4617682Y-10131722D02*
X4627206Y-10112674D01*
X4627206Y-10112674D02*
X4646253Y-10103150D01*
X4646253Y-10103150D02*
X4674825Y-10103150D01*
X4674825Y-10103150D02*
X4693873Y-10112674D01*
X4770063Y-10312674D02*
X4779587Y-10303150D01*
X4779587Y-10303150D02*
X4798634Y-10274579D01*
X4798634Y-10274579D02*
X4808158Y-10255531D01*
X4808158Y-10255531D02*
X4817682Y-10226960D01*
X4817682Y-10226960D02*
X4827206Y-10179341D01*
X4827206Y-10179341D02*
X4827206Y-10141246D01*
X4827206Y-10141246D02*
X4817682Y-10093627D01*
X4817682Y-10093627D02*
X4808158Y-10065055D01*
X4808158Y-10065055D02*
X4798634Y-10046008D01*
X4798634Y-10046008D02*
X4779587Y-10017436D01*
X4779587Y-10017436D02*
X4770063Y-10007912D01*
X5131968Y-10312674D02*
X5122444Y-10303150D01*
X5122444Y-10303150D02*
X5103396Y-10274579D01*
X5103396Y-10274579D02*
X5093873Y-10255531D01*
X5093873Y-10255531D02*
X5084349Y-10226960D01*
X5084349Y-10226960D02*
X5074825Y-10179341D01*
X5074825Y-10179341D02*
X5074825Y-10141246D01*
X5074825Y-10141246D02*
X5084349Y-10093627D01*
X5084349Y-10093627D02*
X5093873Y-10065055D01*
X5093873Y-10065055D02*
X5103396Y-10046008D01*
X5103396Y-10046008D02*
X5122444Y-10017436D01*
X5122444Y-10017436D02*
X5131968Y-10007912D01*
X5208158Y-10103150D02*
X5208158Y-10236484D01*
X5208158Y-10122198D02*
X5217682Y-10112674D01*
X5217682Y-10112674D02*
X5236730Y-10103150D01*
X5236730Y-10103150D02*
X5265301Y-10103150D01*
X5265301Y-10103150D02*
X5284349Y-10112674D01*
X5284349Y-10112674D02*
X5293873Y-10131722D01*
X5293873Y-10131722D02*
X5293873Y-10236484D01*
X5417682Y-10236484D02*
X5398634Y-10226960D01*
X5398634Y-10226960D02*
X5389111Y-10217436D01*
X5389111Y-10217436D02*
X5379587Y-10198389D01*
X5379587Y-10198389D02*
X5379587Y-10141246D01*
X5379587Y-10141246D02*
X5389111Y-10122198D01*
X5389111Y-10122198D02*
X5398634Y-10112674D01*
X5398634Y-10112674D02*
X5417682Y-10103150D01*
X5417682Y-10103150D02*
X5446254Y-10103150D01*
X5446254Y-10103150D02*
X5465301Y-10112674D01*
X5465301Y-10112674D02*
X5474825Y-10122198D01*
X5474825Y-10122198D02*
X5484349Y-10141246D01*
X5484349Y-10141246D02*
X5484349Y-10198389D01*
X5484349Y-10198389D02*
X5474825Y-10217436D01*
X5474825Y-10217436D02*
X5465301Y-10226960D01*
X5465301Y-10226960D02*
X5446254Y-10236484D01*
X5446254Y-10236484D02*
X5417682Y-10236484D01*
X5541492Y-10103150D02*
X5617682Y-10103150D01*
X5570063Y-10036484D02*
X5570063Y-10207912D01*
X5570063Y-10207912D02*
X5579587Y-10226960D01*
X5579587Y-10226960D02*
X5598634Y-10236484D01*
X5598634Y-10236484D02*
X5617682Y-10236484D01*
X5836730Y-10103150D02*
X5836730Y-10303150D01*
X5836730Y-10112674D02*
X5855777Y-10103150D01*
X5855777Y-10103150D02*
X5893873Y-10103150D01*
X5893873Y-10103150D02*
X5912920Y-10112674D01*
X5912920Y-10112674D02*
X5922444Y-10122198D01*
X5922444Y-10122198D02*
X5931968Y-10141246D01*
X5931968Y-10141246D02*
X5931968Y-10198389D01*
X5931968Y-10198389D02*
X5922444Y-10217436D01*
X5922444Y-10217436D02*
X5912920Y-10226960D01*
X5912920Y-10226960D02*
X5893873Y-10236484D01*
X5893873Y-10236484D02*
X5855777Y-10236484D01*
X5855777Y-10236484D02*
X5836730Y-10226960D01*
X6046253Y-10236484D02*
X6027206Y-10226960D01*
X6027206Y-10226960D02*
X6017682Y-10207912D01*
X6017682Y-10207912D02*
X6017682Y-10036484D01*
X6208158Y-10236484D02*
X6208158Y-10131722D01*
X6208158Y-10131722D02*
X6198634Y-10112674D01*
X6198634Y-10112674D02*
X6179587Y-10103150D01*
X6179587Y-10103150D02*
X6141492Y-10103150D01*
X6141492Y-10103150D02*
X6122444Y-10112674D01*
X6208158Y-10226960D02*
X6189111Y-10236484D01*
X6189111Y-10236484D02*
X6141492Y-10236484D01*
X6141492Y-10236484D02*
X6122444Y-10226960D01*
X6122444Y-10226960D02*
X6112920Y-10207912D01*
X6112920Y-10207912D02*
X6112920Y-10188865D01*
X6112920Y-10188865D02*
X6122444Y-10169817D01*
X6122444Y-10169817D02*
X6141492Y-10160293D01*
X6141492Y-10160293D02*
X6189111Y-10160293D01*
X6189111Y-10160293D02*
X6208158Y-10150770D01*
X6274825Y-10103150D02*
X6351015Y-10103150D01*
X6303396Y-10036484D02*
X6303396Y-10207912D01*
X6303396Y-10207912D02*
X6312920Y-10226960D01*
X6312920Y-10226960D02*
X6331968Y-10236484D01*
X6331968Y-10236484D02*
X6351015Y-10236484D01*
X6493873Y-10226960D02*
X6474825Y-10236484D01*
X6474825Y-10236484D02*
X6436730Y-10236484D01*
X6436730Y-10236484D02*
X6417682Y-10226960D01*
X6417682Y-10226960D02*
X6408158Y-10207912D01*
X6408158Y-10207912D02*
X6408158Y-10131722D01*
X6408158Y-10131722D02*
X6417682Y-10112674D01*
X6417682Y-10112674D02*
X6436730Y-10103150D01*
X6436730Y-10103150D02*
X6474825Y-10103150D01*
X6474825Y-10103150D02*
X6493873Y-10112674D01*
X6493873Y-10112674D02*
X6503396Y-10131722D01*
X6503396Y-10131722D02*
X6503396Y-10150770D01*
X6503396Y-10150770D02*
X6408158Y-10169817D01*
X6674825Y-10236484D02*
X6674825Y-10036484D01*
X6674825Y-10226960D02*
X6655777Y-10236484D01*
X6655777Y-10236484D02*
X6617682Y-10236484D01*
X6617682Y-10236484D02*
X6598634Y-10226960D01*
X6598634Y-10226960D02*
X6589111Y-10217436D01*
X6589111Y-10217436D02*
X6579587Y-10198389D01*
X6579587Y-10198389D02*
X6579587Y-10141246D01*
X6579587Y-10141246D02*
X6589111Y-10122198D01*
X6589111Y-10122198D02*
X6598634Y-10112674D01*
X6598634Y-10112674D02*
X6617682Y-10103150D01*
X6617682Y-10103150D02*
X6655777Y-10103150D01*
X6655777Y-10103150D02*
X6674825Y-10112674D01*
X6751015Y-10312674D02*
X6760539Y-10303150D01*
X6760539Y-10303150D02*
X6779587Y-10274579D01*
X6779587Y-10274579D02*
X6789111Y-10255531D01*
X6789111Y-10255531D02*
X6798634Y-10226960D01*
X6798634Y-10226960D02*
X6808158Y-10179341D01*
X6808158Y-10179341D02*
X6808158Y-10141246D01*
X6808158Y-10141246D02*
X6798634Y-10093627D01*
X6798634Y-10093627D02*
X6789111Y-10065055D01*
X6789111Y-10065055D02*
X6779587Y-10046008D01*
X6779587Y-10046008D02*
X6760539Y-10017436D01*
X6760539Y-10017436D02*
X6751015Y-10007912D01*
X-5000Y-10409000D02*
G75*
G02*
X-205000Y-10409000I-100000J0D01*
G01*
X-205000Y-10409000D02*
G75*
G02*
X-5000Y-10409000I100000J0D01*
G01*
X236729Y-10300484D02*
X360539Y-10300484D01*
X360539Y-10300484D02*
X293872Y-10376674D01*
X293872Y-10376674D02*
X322444Y-10376674D01*
X322444Y-10376674D02*
X341491Y-10386198D01*
X341491Y-10386198D02*
X351015Y-10395722D01*
X351015Y-10395722D02*
X360539Y-10414770D01*
X360539Y-10414770D02*
X360539Y-10462389D01*
X360539Y-10462389D02*
X351015Y-10481436D01*
X351015Y-10481436D02*
X341491Y-10490960D01*
X341491Y-10490960D02*
X322444Y-10500484D01*
X322444Y-10500484D02*
X265301Y-10500484D01*
X265301Y-10500484D02*
X246253Y-10490960D01*
X246253Y-10490960D02*
X236729Y-10481436D01*
X446253Y-10481436D02*
X455777Y-10490960D01*
X455777Y-10490960D02*
X446253Y-10500484D01*
X446253Y-10500484D02*
X436729Y-10490960D01*
X436729Y-10490960D02*
X446253Y-10481436D01*
X446253Y-10481436D02*
X446253Y-10500484D01*
X531967Y-10319531D02*
X541491Y-10310008D01*
X541491Y-10310008D02*
X560539Y-10300484D01*
X560539Y-10300484D02*
X608158Y-10300484D01*
X608158Y-10300484D02*
X627205Y-10310008D01*
X627205Y-10310008D02*
X636729Y-10319531D01*
X636729Y-10319531D02*
X646253Y-10338579D01*
X646253Y-10338579D02*
X646253Y-10357627D01*
X646253Y-10357627D02*
X636729Y-10386198D01*
X636729Y-10386198D02*
X522443Y-10500484D01*
X522443Y-10500484D02*
X646253Y-10500484D01*
X770062Y-10300484D02*
X789110Y-10300484D01*
X789110Y-10300484D02*
X808158Y-10310008D01*
X808158Y-10310008D02*
X817682Y-10319531D01*
X817682Y-10319531D02*
X827205Y-10338579D01*
X827205Y-10338579D02*
X836729Y-10376674D01*
X836729Y-10376674D02*
X836729Y-10424293D01*
X836729Y-10424293D02*
X827205Y-10462389D01*
X827205Y-10462389D02*
X817682Y-10481436D01*
X817682Y-10481436D02*
X808158Y-10490960D01*
X808158Y-10490960D02*
X789110Y-10500484D01*
X789110Y-10500484D02*
X770062Y-10500484D01*
X770062Y-10500484D02*
X751015Y-10490960D01*
X751015Y-10490960D02*
X741491Y-10481436D01*
X741491Y-10481436D02*
X731967Y-10462389D01*
X731967Y-10462389D02*
X722443Y-10424293D01*
X722443Y-10424293D02*
X722443Y-10376674D01*
X722443Y-10376674D02*
X731967Y-10338579D01*
X731967Y-10338579D02*
X741491Y-10319531D01*
X741491Y-10319531D02*
X751015Y-10310008D01*
X751015Y-10310008D02*
X770062Y-10300484D01*
X960539Y-10300484D02*
X979586Y-10300484D01*
X979586Y-10300484D02*
X998634Y-10310008D01*
X998634Y-10310008D02*
X1008158Y-10319531D01*
X1008158Y-10319531D02*
X1017682Y-10338579D01*
X1017682Y-10338579D02*
X1027205Y-10376674D01*
X1027205Y-10376674D02*
X1027205Y-10424293D01*
X1027205Y-10424293D02*
X1017682Y-10462389D01*
X1017682Y-10462389D02*
X1008158Y-10481436D01*
X1008158Y-10481436D02*
X998634Y-10490960D01*
X998634Y-10490960D02*
X979586Y-10500484D01*
X979586Y-10500484D02*
X960539Y-10500484D01*
X960539Y-10500484D02*
X941491Y-10490960D01*
X941491Y-10490960D02*
X931967Y-10481436D01*
X931967Y-10481436D02*
X922443Y-10462389D01*
X922443Y-10462389D02*
X912920Y-10424293D01*
X912920Y-10424293D02*
X912920Y-10376674D01*
X912920Y-10376674D02*
X922443Y-10338579D01*
X922443Y-10338579D02*
X931967Y-10319531D01*
X931967Y-10319531D02*
X941491Y-10310008D01*
X941491Y-10310008D02*
X960539Y-10300484D01*
X1112920Y-10500484D02*
X1112920Y-10367150D01*
X1112920Y-10386198D02*
X1122444Y-10376674D01*
X1122444Y-10376674D02*
X1141491Y-10367150D01*
X1141491Y-10367150D02*
X1170063Y-10367150D01*
X1170063Y-10367150D02*
X1189110Y-10376674D01*
X1189110Y-10376674D02*
X1198634Y-10395722D01*
X1198634Y-10395722D02*
X1198634Y-10500484D01*
X1198634Y-10395722D02*
X1208158Y-10376674D01*
X1208158Y-10376674D02*
X1227205Y-10367150D01*
X1227205Y-10367150D02*
X1255777Y-10367150D01*
X1255777Y-10367150D02*
X1274825Y-10376674D01*
X1274825Y-10376674D02*
X1284348Y-10395722D01*
X1284348Y-10395722D02*
X1284348Y-10500484D01*
X1379586Y-10500484D02*
X1379586Y-10367150D01*
X1379586Y-10386198D02*
X1389110Y-10376674D01*
X1389110Y-10376674D02*
X1408158Y-10367150D01*
X1408158Y-10367150D02*
X1436729Y-10367150D01*
X1436729Y-10367150D02*
X1455777Y-10376674D01*
X1455777Y-10376674D02*
X1465301Y-10395722D01*
X1465301Y-10395722D02*
X1465301Y-10500484D01*
X1465301Y-10395722D02*
X1474824Y-10376674D01*
X1474824Y-10376674D02*
X1493872Y-10367150D01*
X1493872Y-10367150D02*
X1522443Y-10367150D01*
X1522443Y-10367150D02*
X1541491Y-10376674D01*
X1541491Y-10376674D02*
X1551015Y-10395722D01*
X1551015Y-10395722D02*
X1551015Y-10500484D01*
X1941491Y-10290960D02*
X1770063Y-10548103D01*
X2198634Y-10300484D02*
X2217682Y-10300484D01*
X2217682Y-10300484D02*
X2236729Y-10310008D01*
X2236729Y-10310008D02*
X2246253Y-10319531D01*
X2246253Y-10319531D02*
X2255777Y-10338579D01*
X2255777Y-10338579D02*
X2265301Y-10376674D01*
X2265301Y-10376674D02*
X2265301Y-10424293D01*
X2265301Y-10424293D02*
X2255777Y-10462389D01*
X2255777Y-10462389D02*
X2246253Y-10481436D01*
X2246253Y-10481436D02*
X2236729Y-10490960D01*
X2236729Y-10490960D02*
X2217682Y-10500484D01*
X2217682Y-10500484D02*
X2198634Y-10500484D01*
X2198634Y-10500484D02*
X2179587Y-10490960D01*
X2179587Y-10490960D02*
X2170063Y-10481436D01*
X2170063Y-10481436D02*
X2160539Y-10462389D01*
X2160539Y-10462389D02*
X2151015Y-10424293D01*
X2151015Y-10424293D02*
X2151015Y-10376674D01*
X2151015Y-10376674D02*
X2160539Y-10338579D01*
X2160539Y-10338579D02*
X2170063Y-10319531D01*
X2170063Y-10319531D02*
X2179587Y-10310008D01*
X2179587Y-10310008D02*
X2198634Y-10300484D01*
X2351015Y-10481436D02*
X2360539Y-10490960D01*
X2360539Y-10490960D02*
X2351015Y-10500484D01*
X2351015Y-10500484D02*
X2341491Y-10490960D01*
X2341491Y-10490960D02*
X2351015Y-10481436D01*
X2351015Y-10481436D02*
X2351015Y-10500484D01*
X2551015Y-10500484D02*
X2436729Y-10500484D01*
X2493872Y-10500484D02*
X2493872Y-10300484D01*
X2493872Y-10300484D02*
X2474825Y-10329055D01*
X2474825Y-10329055D02*
X2455777Y-10348103D01*
X2455777Y-10348103D02*
X2436729Y-10357627D01*
X2627206Y-10319531D02*
X2636729Y-10310008D01*
X2636729Y-10310008D02*
X2655777Y-10300484D01*
X2655777Y-10300484D02*
X2703396Y-10300484D01*
X2703396Y-10300484D02*
X2722444Y-10310008D01*
X2722444Y-10310008D02*
X2731968Y-10319531D01*
X2731968Y-10319531D02*
X2741491Y-10338579D01*
X2741491Y-10338579D02*
X2741491Y-10357627D01*
X2741491Y-10357627D02*
X2731968Y-10386198D01*
X2731968Y-10386198D02*
X2617682Y-10500484D01*
X2617682Y-10500484D02*
X2741491Y-10500484D01*
X2912920Y-10300484D02*
X2874825Y-10300484D01*
X2874825Y-10300484D02*
X2855777Y-10310008D01*
X2855777Y-10310008D02*
X2846253Y-10319531D01*
X2846253Y-10319531D02*
X2827206Y-10348103D01*
X2827206Y-10348103D02*
X2817682Y-10386198D01*
X2817682Y-10386198D02*
X2817682Y-10462389D01*
X2817682Y-10462389D02*
X2827206Y-10481436D01*
X2827206Y-10481436D02*
X2836729Y-10490960D01*
X2836729Y-10490960D02*
X2855777Y-10500484D01*
X2855777Y-10500484D02*
X2893872Y-10500484D01*
X2893872Y-10500484D02*
X2912920Y-10490960D01*
X2912920Y-10490960D02*
X2922444Y-10481436D01*
X2922444Y-10481436D02*
X2931967Y-10462389D01*
X2931967Y-10462389D02*
X2931967Y-10414770D01*
X2931967Y-10414770D02*
X2922444Y-10395722D01*
X2922444Y-10395722D02*
X2912920Y-10386198D01*
X2912920Y-10386198D02*
X2893872Y-10376674D01*
X2893872Y-10376674D02*
X2855777Y-10376674D01*
X2855777Y-10376674D02*
X2836729Y-10386198D01*
X2836729Y-10386198D02*
X2827206Y-10395722D01*
X2827206Y-10395722D02*
X2817682Y-10414770D01*
X3055777Y-10300484D02*
X3074825Y-10300484D01*
X3074825Y-10300484D02*
X3093872Y-10310008D01*
X3093872Y-10310008D02*
X3103396Y-10319531D01*
X3103396Y-10319531D02*
X3112920Y-10338579D01*
X3112920Y-10338579D02*
X3122444Y-10376674D01*
X3122444Y-10376674D02*
X3122444Y-10424293D01*
X3122444Y-10424293D02*
X3112920Y-10462389D01*
X3112920Y-10462389D02*
X3103396Y-10481436D01*
X3103396Y-10481436D02*
X3093872Y-10490960D01*
X3093872Y-10490960D02*
X3074825Y-10500484D01*
X3074825Y-10500484D02*
X3055777Y-10500484D01*
X3055777Y-10500484D02*
X3036729Y-10490960D01*
X3036729Y-10490960D02*
X3027206Y-10481436D01*
X3027206Y-10481436D02*
X3017682Y-10462389D01*
X3017682Y-10462389D02*
X3008158Y-10424293D01*
X3008158Y-10424293D02*
X3008158Y-10376674D01*
X3008158Y-10376674D02*
X3017682Y-10338579D01*
X3017682Y-10338579D02*
X3027206Y-10319531D01*
X3027206Y-10319531D02*
X3036729Y-10310008D01*
X3036729Y-10310008D02*
X3055777Y-10300484D01*
X3198634Y-10300484D02*
X3198634Y-10338579D01*
X3274825Y-10300484D02*
X3274825Y-10338579D01*
X3570063Y-10576674D02*
X3560539Y-10567150D01*
X3560539Y-10567150D02*
X3541491Y-10538579D01*
X3541491Y-10538579D02*
X3531968Y-10519531D01*
X3531968Y-10519531D02*
X3522444Y-10490960D01*
X3522444Y-10490960D02*
X3512920Y-10443341D01*
X3512920Y-10443341D02*
X3512920Y-10405246D01*
X3512920Y-10405246D02*
X3522444Y-10357627D01*
X3522444Y-10357627D02*
X3531968Y-10329055D01*
X3531968Y-10329055D02*
X3541491Y-10310008D01*
X3541491Y-10310008D02*
X3560539Y-10281436D01*
X3560539Y-10281436D02*
X3570063Y-10271912D01*
X3731968Y-10367150D02*
X3731968Y-10500484D01*
X3684348Y-10290960D02*
X3636729Y-10433817D01*
X3636729Y-10433817D02*
X3760539Y-10433817D01*
X3989110Y-10500484D02*
X3989110Y-10300484D01*
X4074825Y-10500484D02*
X4074825Y-10395722D01*
X4074825Y-10395722D02*
X4065301Y-10376674D01*
X4065301Y-10376674D02*
X4046253Y-10367150D01*
X4046253Y-10367150D02*
X4017682Y-10367150D01*
X4017682Y-10367150D02*
X3998634Y-10376674D01*
X3998634Y-10376674D02*
X3989110Y-10386198D01*
X4198634Y-10500484D02*
X4179587Y-10490960D01*
X4179587Y-10490960D02*
X4170063Y-10481436D01*
X4170063Y-10481436D02*
X4160539Y-10462389D01*
X4160539Y-10462389D02*
X4160539Y-10405246D01*
X4160539Y-10405246D02*
X4170063Y-10386198D01*
X4170063Y-10386198D02*
X4179587Y-10376674D01*
X4179587Y-10376674D02*
X4198634Y-10367150D01*
X4198634Y-10367150D02*
X4227206Y-10367150D01*
X4227206Y-10367150D02*
X4246253Y-10376674D01*
X4246253Y-10376674D02*
X4255777Y-10386198D01*
X4255777Y-10386198D02*
X4265301Y-10405246D01*
X4265301Y-10405246D02*
X4265301Y-10462389D01*
X4265301Y-10462389D02*
X4255777Y-10481436D01*
X4255777Y-10481436D02*
X4246253Y-10490960D01*
X4246253Y-10490960D02*
X4227206Y-10500484D01*
X4227206Y-10500484D02*
X4198634Y-10500484D01*
X4379587Y-10500484D02*
X4360539Y-10490960D01*
X4360539Y-10490960D02*
X4351015Y-10471912D01*
X4351015Y-10471912D02*
X4351015Y-10300484D01*
X4531968Y-10490960D02*
X4512920Y-10500484D01*
X4512920Y-10500484D02*
X4474825Y-10500484D01*
X4474825Y-10500484D02*
X4455777Y-10490960D01*
X4455777Y-10490960D02*
X4446253Y-10471912D01*
X4446253Y-10471912D02*
X4446253Y-10395722D01*
X4446253Y-10395722D02*
X4455777Y-10376674D01*
X4455777Y-10376674D02*
X4474825Y-10367150D01*
X4474825Y-10367150D02*
X4512920Y-10367150D01*
X4512920Y-10367150D02*
X4531968Y-10376674D01*
X4531968Y-10376674D02*
X4541492Y-10395722D01*
X4541492Y-10395722D02*
X4541492Y-10414770D01*
X4541492Y-10414770D02*
X4446253Y-10433817D01*
X4617682Y-10490960D02*
X4636730Y-10500484D01*
X4636730Y-10500484D02*
X4674825Y-10500484D01*
X4674825Y-10500484D02*
X4693873Y-10490960D01*
X4693873Y-10490960D02*
X4703396Y-10471912D01*
X4703396Y-10471912D02*
X4703396Y-10462389D01*
X4703396Y-10462389D02*
X4693873Y-10443341D01*
X4693873Y-10443341D02*
X4674825Y-10433817D01*
X4674825Y-10433817D02*
X4646253Y-10433817D01*
X4646253Y-10433817D02*
X4627206Y-10424293D01*
X4627206Y-10424293D02*
X4617682Y-10405246D01*
X4617682Y-10405246D02*
X4617682Y-10395722D01*
X4617682Y-10395722D02*
X4627206Y-10376674D01*
X4627206Y-10376674D02*
X4646253Y-10367150D01*
X4646253Y-10367150D02*
X4674825Y-10367150D01*
X4674825Y-10367150D02*
X4693873Y-10376674D01*
X4770063Y-10576674D02*
X4779587Y-10567150D01*
X4779587Y-10567150D02*
X4798634Y-10538579D01*
X4798634Y-10538579D02*
X4808158Y-10519531D01*
X4808158Y-10519531D02*
X4817682Y-10490960D01*
X4817682Y-10490960D02*
X4827206Y-10443341D01*
X4827206Y-10443341D02*
X4827206Y-10405246D01*
X4827206Y-10405246D02*
X4817682Y-10357627D01*
X4817682Y-10357627D02*
X4808158Y-10329055D01*
X4808158Y-10329055D02*
X4798634Y-10310008D01*
X4798634Y-10310008D02*
X4779587Y-10281436D01*
X4779587Y-10281436D02*
X4770063Y-10271912D01*
X5131968Y-10576674D02*
X5122444Y-10567150D01*
X5122444Y-10567150D02*
X5103396Y-10538579D01*
X5103396Y-10538579D02*
X5093873Y-10519531D01*
X5093873Y-10519531D02*
X5084349Y-10490960D01*
X5084349Y-10490960D02*
X5074825Y-10443341D01*
X5074825Y-10443341D02*
X5074825Y-10405246D01*
X5074825Y-10405246D02*
X5084349Y-10357627D01*
X5084349Y-10357627D02*
X5093873Y-10329055D01*
X5093873Y-10329055D02*
X5103396Y-10310008D01*
X5103396Y-10310008D02*
X5122444Y-10281436D01*
X5122444Y-10281436D02*
X5131968Y-10271912D01*
X5208158Y-10367150D02*
X5208158Y-10500484D01*
X5208158Y-10386198D02*
X5217682Y-10376674D01*
X5217682Y-10376674D02*
X5236730Y-10367150D01*
X5236730Y-10367150D02*
X5265301Y-10367150D01*
X5265301Y-10367150D02*
X5284349Y-10376674D01*
X5284349Y-10376674D02*
X5293873Y-10395722D01*
X5293873Y-10395722D02*
X5293873Y-10500484D01*
X5417682Y-10500484D02*
X5398634Y-10490960D01*
X5398634Y-10490960D02*
X5389111Y-10481436D01*
X5389111Y-10481436D02*
X5379587Y-10462389D01*
X5379587Y-10462389D02*
X5379587Y-10405246D01*
X5379587Y-10405246D02*
X5389111Y-10386198D01*
X5389111Y-10386198D02*
X5398634Y-10376674D01*
X5398634Y-10376674D02*
X5417682Y-10367150D01*
X5417682Y-10367150D02*
X5446254Y-10367150D01*
X5446254Y-10367150D02*
X5465301Y-10376674D01*
X5465301Y-10376674D02*
X5474825Y-10386198D01*
X5474825Y-10386198D02*
X5484349Y-10405246D01*
X5484349Y-10405246D02*
X5484349Y-10462389D01*
X5484349Y-10462389D02*
X5474825Y-10481436D01*
X5474825Y-10481436D02*
X5465301Y-10490960D01*
X5465301Y-10490960D02*
X5446254Y-10500484D01*
X5446254Y-10500484D02*
X5417682Y-10500484D01*
X5541492Y-10367150D02*
X5617682Y-10367150D01*
X5570063Y-10300484D02*
X5570063Y-10471912D01*
X5570063Y-10471912D02*
X5579587Y-10490960D01*
X5579587Y-10490960D02*
X5598634Y-10500484D01*
X5598634Y-10500484D02*
X5617682Y-10500484D01*
X5836730Y-10367150D02*
X5836730Y-10567150D01*
X5836730Y-10376674D02*
X5855777Y-10367150D01*
X5855777Y-10367150D02*
X5893873Y-10367150D01*
X5893873Y-10367150D02*
X5912920Y-10376674D01*
X5912920Y-10376674D02*
X5922444Y-10386198D01*
X5922444Y-10386198D02*
X5931968Y-10405246D01*
X5931968Y-10405246D02*
X5931968Y-10462389D01*
X5931968Y-10462389D02*
X5922444Y-10481436D01*
X5922444Y-10481436D02*
X5912920Y-10490960D01*
X5912920Y-10490960D02*
X5893873Y-10500484D01*
X5893873Y-10500484D02*
X5855777Y-10500484D01*
X5855777Y-10500484D02*
X5836730Y-10490960D01*
X6046253Y-10500484D02*
X6027206Y-10490960D01*
X6027206Y-10490960D02*
X6017682Y-10471912D01*
X6017682Y-10471912D02*
X6017682Y-10300484D01*
X6208158Y-10500484D02*
X6208158Y-10395722D01*
X6208158Y-10395722D02*
X6198634Y-10376674D01*
X6198634Y-10376674D02*
X6179587Y-10367150D01*
X6179587Y-10367150D02*
X6141492Y-10367150D01*
X6141492Y-10367150D02*
X6122444Y-10376674D01*
X6208158Y-10490960D02*
X6189111Y-10500484D01*
X6189111Y-10500484D02*
X6141492Y-10500484D01*
X6141492Y-10500484D02*
X6122444Y-10490960D01*
X6122444Y-10490960D02*
X6112920Y-10471912D01*
X6112920Y-10471912D02*
X6112920Y-10452865D01*
X6112920Y-10452865D02*
X6122444Y-10433817D01*
X6122444Y-10433817D02*
X6141492Y-10424293D01*
X6141492Y-10424293D02*
X6189111Y-10424293D01*
X6189111Y-10424293D02*
X6208158Y-10414770D01*
X6274825Y-10367150D02*
X6351015Y-10367150D01*
X6303396Y-10300484D02*
X6303396Y-10471912D01*
X6303396Y-10471912D02*
X6312920Y-10490960D01*
X6312920Y-10490960D02*
X6331968Y-10500484D01*
X6331968Y-10500484D02*
X6351015Y-10500484D01*
X6493873Y-10490960D02*
X6474825Y-10500484D01*
X6474825Y-10500484D02*
X6436730Y-10500484D01*
X6436730Y-10500484D02*
X6417682Y-10490960D01*
X6417682Y-10490960D02*
X6408158Y-10471912D01*
X6408158Y-10471912D02*
X6408158Y-10395722D01*
X6408158Y-10395722D02*
X6417682Y-10376674D01*
X6417682Y-10376674D02*
X6436730Y-10367150D01*
X6436730Y-10367150D02*
X6474825Y-10367150D01*
X6474825Y-10367150D02*
X6493873Y-10376674D01*
X6493873Y-10376674D02*
X6503396Y-10395722D01*
X6503396Y-10395722D02*
X6503396Y-10414770D01*
X6503396Y-10414770D02*
X6408158Y-10433817D01*
X6674825Y-10500484D02*
X6674825Y-10300484D01*
X6674825Y-10490960D02*
X6655777Y-10500484D01*
X6655777Y-10500484D02*
X6617682Y-10500484D01*
X6617682Y-10500484D02*
X6598634Y-10490960D01*
X6598634Y-10490960D02*
X6589111Y-10481436D01*
X6589111Y-10481436D02*
X6579587Y-10462389D01*
X6579587Y-10462389D02*
X6579587Y-10405246D01*
X6579587Y-10405246D02*
X6589111Y-10386198D01*
X6589111Y-10386198D02*
X6598634Y-10376674D01*
X6598634Y-10376674D02*
X6617682Y-10367150D01*
X6617682Y-10367150D02*
X6655777Y-10367150D01*
X6655777Y-10367150D02*
X6674825Y-10376674D01*
X6751015Y-10576674D02*
X6760539Y-10567150D01*
X6760539Y-10567150D02*
X6779587Y-10538579D01*
X6779587Y-10538579D02*
X6789111Y-10519531D01*
X6789111Y-10519531D02*
X6798634Y-10490960D01*
X6798634Y-10490960D02*
X6808158Y-10443341D01*
X6808158Y-10443341D02*
X6808158Y-10405246D01*
X6808158Y-10405246D02*
X6798634Y-10357627D01*
X6798634Y-10357627D02*
X6789111Y-10329055D01*
X6789111Y-10329055D02*
X6779587Y-10310008D01*
X6779587Y-10310008D02*
X6760539Y-10281436D01*
X6760539Y-10281436D02*
X6751015Y-10271912D01*
M02*
