M48
; DRILL file KiCad 10.0.5 date 2026-08-12T23:59:53
; FORMAT={-:-/ absolute / metric / decimal}
; #@! TF.CreationDate,2026-08-12T23:59:53+03:00
; #@! TF.GenerationSoftware,Kicad,Pcbnew,10.0.5
; #@! TF.FileFunction,Plated,1,4,PTH
FMAT,2
METRIC
; #@! TA.AperFunction,Plated,PTH,ComponentDrill
T1C0.200
; #@! TA.AperFunction,Plated,PTH,ViaDrill
T2C0.300
; #@! TA.AperFunction,Plated,PTH,ComponentDrill
T3C0.300
; #@! TA.AperFunction,Plated,PTH,ViaDrill
T4C0.350
; #@! TA.AperFunction,Plated,PTH,ViaDrill
T5C0.400
; #@! TA.AperFunction,Plated,PTH,ComponentDrill
T6C0.600
; #@! TA.AperFunction,Plated,PTH,ComponentDrill
T7C0.750
; #@! TA.AperFunction,Plated,PTH,ComponentDrill
T8C0.900
; #@! TA.AperFunction,Plated,PTH,ComponentDrill
T9C1.500
%
G90
G05
T1
X69.1Y-30.76
X69.1Y-32.16
X69.8Y-30.06
X69.8Y-31.46
X69.8Y-32.86
X70.5Y-30.76
X70.5Y-32.16
X71.2Y-30.06
X71.2Y-31.46
X71.2Y-32.86
X71.9Y-30.76
X71.9Y-32.16
T2
X5.676Y-45.8
X5.679Y-53.9
X8.927Y-16.1
X11.637Y-23.159
X13.782Y-79.392
X15.312Y-76.87
X15.935Y-71.025
X16.697Y-56.99
X16.713Y-70.29
X17.742Y-54.45
X18.55Y-27.064
X18.875Y-57.407
X23.481Y-61.084
X23.789Y-79.99
X24.734Y-63.954
X25.033Y-67.0
X25.738Y-70.75
X26.098Y-8.398
X27.427Y-73.538
X27.437Y-22.34
X27.524Y-18.285
X27.668Y-66.877
X28.601Y-67.553
X28.887Y-72.445
X29.134Y-26.054
X29.976Y-20.802
X30.344Y-15.048
X30.538Y-26.4
X31.616Y-69.025
X32.175Y-66.046
X34.969Y-70.794
X35.402Y-86.492
X35.481Y-88.788
X36.515Y-78.626
X37.502Y-76.05
X37.667Y-17.557
X46.826Y-78.49
X47.515Y-75.5
X49.5Y-69.5
X54.5Y-69.5
X55.094Y-38.98
X56.22Y-68.5
X60.776Y-32.753
X63.67Y-41.254
X64.625Y-30.618
X64.834Y-28.82
X66.783Y-36.593
X68.209Y-40.186
X69.485Y-38.376
X70.501Y-43.08
X71.097Y-37.42
X71.509Y-23.74
X71.649Y-44.909
X71.668Y-42.908
X72.0Y-46.843
X72.567Y-34.663
X72.683Y-35.597
X73.104Y-44.949
X73.249Y-29.609
X73.481Y-39.053
X76.124Y-51.554
X76.31Y-29.225
X76.325Y-27.262
X77.519Y-28.82
X79.129Y-27.939
X79.239Y-26.264
X79.5Y-85.636
X79.878Y-80.963
X82.063Y-26.281
X82.766Y-27.55
X82.766Y-31.36
X83.311Y-32.63
X84.0Y-81.0
X84.014Y-50.594
X84.702Y-33.9
X85.254Y-79.8
X86.0Y-90.0
X87.724Y-40.25
X88.917Y-50.837
X96.332Y-67.228
X96.497Y-30.09
X98.633Y-43.926
X100.019Y-43.091
X105.443Y-45.13
X106.01Y-35.17
X106.447Y-88.15
X106.767Y-49.045
X107.508Y-82.688
X109.0Y-76.0
X111.214Y-41.199
X116.0Y-85.0
X118.5Y-78.5
X122.635Y-84.19
X122.937Y-41.487
X123.244Y-16.094
X124.357Y-42.4
X125.566Y-15.499
X125.812Y-13.755
X127.049Y-13.05
X127.398Y-17.453
X129.175Y-82.0
X130.072Y-87.95
X132.771Y-76.971
X133.801Y-74.076
X135.983Y-70.905
X137.565Y-14.482
X138.428Y-16.86
X138.658Y-66.505
X138.668Y-68.58
X144.014Y-44.87
T3
X51.5Y-68.25
X51.5Y-69.75
X52.0Y-69.0
X52.5Y-68.25
X52.5Y-69.75
T4
X13.3Y-10.875
X22.7Y-10.875
X33.2Y-89.1
X36.8Y-89.1
X40.1Y-89.0
X42.0Y-86.138
X46.137Y-85.0
X47.5Y-89.0
X50.5Y-85.0
X51.078Y-86.922
X53.0Y-90.0
X70.0Y-78.144
X80.0Y-76.0
X87.0Y-84.0
X90.825Y-80.188
X91.959Y-76.519
T5
X15.846Y-30.339
X17.956Y-81.084
X24.959Y-58.26
X30.417Y-12.851
X32.847Y-67.983
X51.736Y-53.739
X52.289Y-82.56
X54.806Y-60.416
X61.184Y-72.448
X62.687Y-56.445
X67.525Y-66.5
X71.883Y-68.476
X120.225Y-21.14
X129.946Y-66.0
X132.748Y-68.721
T7
X92.0Y-88.0
X94.0Y-88.0
T8
X58.0Y-89.0
X60.0Y-89.0
X62.0Y-89.0
T9
X55.9Y-89.0
X64.1Y-89.0
T6
X30.68Y-87.67G85X30.68Y-88.77
G05
X30.68Y-92.0G85X30.68Y-92.8
G05
X39.32Y-87.67G85X39.32Y-88.77
G05
X39.32Y-92.0G85X39.32Y-92.8
G05
M30
