solid 
 facet normal -1.000000e+00  0.000000e+00  0.000000e+00
   outer loop
     vertex  6.000000e+00  6.000000e+00  2.800000e+01
     vertex  6.000000e+00  9.400000e+01  1.750000e+01
     vertex  6.000000e+00  6.000000e+00  1.750000e+01
   endloop
 endfacet
 facet normal -1.000000e+00  0.000000e+00  0.000000e+00
   outer loop
     vertex  6.000000e+00  6.000000e+00  2.800000e+01
     vertex  6.000000e+00  9.400000e+01  2.800000e+01
     vertex  6.000000e+00  9.400000e+01  1.750000e+01
   endloop
 endfacet
 facet normal  0.000000e+00 -1.000000e+00 -0.000000e+00
   outer loop
     vertex  1.340000e+02  6.000000e+00  2.800000e+01
     vertex  6.000000e+00  6.000000e+00  1.750000e+01
     vertex  1.340000e+02  6.000000e+00  1.750000e+01
   endloop
 endfacet
 facet normal -0.000000e+00 -1.000000e+00  0.000000e+00
   outer loop
     vertex  1.340000e+02  6.000000e+00  2.800000e+01
     vertex  6.000000e+00  6.000000e+00  2.800000e+01
     vertex  6.000000e+00  6.000000e+00  1.750000e+01
   endloop
 endfacet
 facet normal  0.000000e+00  0.000000e+00  1.000000e+00
   outer loop
     vertex  6.000000e+00  9.400000e+01  2.800000e+01
     vertex  6.000000e+00  6.000000e+00  2.800000e+01
     vertex  4.800000e+01  4.000000e+01  2.800000e+01
   endloop
 endfacet
 facet normal  0.000000e+00  0.000000e+00  1.000000e+00
   outer loop
     vertex  4.800000e+01  6.500000e+01  2.800000e+01
     vertex  6.000000e+00  9.400000e+01  2.800000e+01
     vertex  4.800000e+01  4.000000e+01  2.800000e+01
   endloop
 endfacet
 facet normal  0.000000e+00  0.000000e+00  1.000000e+00
   outer loop
     vertex  7.800000e+01  4.000000e+01  2.800000e+01
     vertex  4.800000e+01  4.000000e+01  2.800000e+01
     vertex  6.000000e+00  6.000000e+00  2.800000e+01
   endloop
 endfacet
 facet normal  0.000000e+00  0.000000e+00  1.000000e+00
   outer loop
     vertex  1.340000e+02  6.000000e+00  2.800000e+01
     vertex  7.800000e+01  4.000000e+01  2.800000e+01
     vertex  6.000000e+00  6.000000e+00  2.800000e+01
   endloop
 endfacet
 facet normal  0.000000e+00  0.000000e+00  1.000000e+00
   outer loop
     vertex  7.800000e+01  6.500000e+01  2.800000e+01
     vertex  6.000000e+00  9.400000e+01  2.800000e+01
     vertex  4.800000e+01  6.500000e+01  2.800000e+01
   endloop
 endfacet
 facet normal  0.000000e+00  0.000000e+00  1.000000e+00
   outer loop
     vertex  1.340000e+02  9.400000e+01  2.800000e+01
     vertex  7.800000e+01  6.500000e+01  2.800000e+01
     vertex  7.800000e+01  4.000000e+01  2.800000e+01
   endloop
 endfacet
 facet normal  0.000000e+00  0.000000e+00  1.000000e+00
   outer loop
     vertex  1.340000e+02  9.400000e+01  2.800000e+01
     vertex  7.800000e+01  4.000000e+01  2.800000e+01
     vertex  1.340000e+02  6.000000e+00  2.800000e+01
   endloop
 endfacet
 facet normal  0.000000e+00  0.000000e+00  1.000000e+00
   outer loop
     vertex  1.340000e+02  9.400000e+01  2.800000e+01
     vertex  6.000000e+00  9.400000e+01  2.800000e+01
     vertex  7.800000e+01  6.500000e+01  2.800000e+01
   endloop
 endfacet
 facet normal  0.000000e+00  1.000000e+00  0.000000e+00
   outer loop
     vertex  1.340000e+02  9.400000e+01  2.800000e+01
     vertex  1.340000e+02  9.400000e+01  1.750000e+01
     vertex  6.000000e+00  9.400000e+01  1.750000e+01
   endloop
 endfacet
 facet normal  0.000000e+00  1.000000e+00  0.000000e+00
   outer loop
     vertex  1.340000e+02  9.400000e+01  2.800000e+01
     vertex  6.000000e+00  9.400000e+01  1.750000e+01
     vertex  6.000000e+00  9.400000e+01  2.800000e+01
   endloop
 endfacet
 facet normal -0.000000e+00  0.000000e+00 -1.000000e+00
   outer loop
     vertex  8.500000e+00  9.150000e+01  1.750000e+01
     vertex  6.000000e+00  6.000000e+00  1.750000e+01
     vertex  6.000000e+00  9.400000e+01  1.750000e+01
   endloop
 endfacet
 facet normal  0.000000e+00 -0.000000e+00 -1.000000e+00
   outer loop
     vertex  8.500000e+00  9.150000e+01  1.750000e+01
     vertex  8.500000e+00  8.500000e+00  1.750000e+01
     vertex  6.000000e+00  6.000000e+00  1.750000e+01
   endloop
 endfacet
 facet normal  0.000000e+00 -0.000000e+00 -1.000000e+00
   outer loop
     vertex  1.315000e+02  8.500000e+00  1.750000e+01
     vertex  1.340000e+02  6.000000e+00  1.750000e+01
     vertex  6.000000e+00  6.000000e+00  1.750000e+01
   endloop
 endfacet
 facet normal -0.000000e+00  0.000000e+00 -1.000000e+00
   outer loop
     vertex  1.315000e+02  8.500000e+00  1.750000e+01
     vertex  6.000000e+00  6.000000e+00  1.750000e+01
     vertex  8.500000e+00  8.500000e+00  1.750000e+01
   endloop
 endfacet
 facet normal  0.000000e+00  0.000000e+00 -1.000000e+00
   outer loop
     vertex  1.340000e+02  9.400000e+01  1.750000e+01
     vertex  1.315000e+02  8.500000e+00  1.750000e+01
     vertex  1.315000e+02  9.150000e+01  1.750000e+01
   endloop
 endfacet
 facet normal  0.000000e+00 -0.000000e+00 -1.000000e+00
   outer loop
     vertex  1.340000e+02  9.400000e+01  1.750000e+01
     vertex  1.340000e+02  6.000000e+00  1.750000e+01
     vertex  1.315000e+02  8.500000e+00  1.750000e+01
   endloop
 endfacet
 facet normal -0.000000e+00  0.000000e+00 -1.000000e+00
   outer loop
     vertex  1.340000e+02  9.400000e+01  1.750000e+01
     vertex  8.500000e+00  9.150000e+01  1.750000e+01
     vertex  6.000000e+00  9.400000e+01  1.750000e+01
   endloop
 endfacet
 facet normal  0.000000e+00  0.000000e+00 -1.000000e+00
   outer loop
     vertex  1.340000e+02  9.400000e+01  1.750000e+01
     vertex  1.315000e+02  9.150000e+01  1.750000e+01
     vertex  8.500000e+00  9.150000e+01  1.750000e+01
   endloop
 endfacet
 facet normal  1.000000e+00  0.000000e+00  0.000000e+00
   outer loop
     vertex  1.340000e+02  6.000000e+00  2.800000e+01
     vertex  1.340000e+02  6.000000e+00  1.750000e+01
     vertex  1.340000e+02  9.400000e+01  1.750000e+01
   endloop
 endfacet
 facet normal  1.000000e+00 -0.000000e+00  0.000000e+00
   outer loop
     vertex  1.340000e+02  6.000000e+00  2.800000e+01
     vertex  1.340000e+02  9.400000e+01  1.750000e+01
     vertex  1.340000e+02  9.400000e+01  2.800000e+01
   endloop
 endfacet
 facet normal  0.000000e+00  1.000000e+00  0.000000e+00
   outer loop
     vertex  7.800000e+01  4.000000e+01  2.800000e+01
     vertex  7.800000e+01  4.000000e+01  2.550000e+01
     vertex  4.800000e+01  4.000000e+01  2.550000e+01
   endloop
 endfacet
 facet normal  0.000000e+00  1.000000e+00  0.000000e+00
   outer loop
     vertex  7.800000e+01  4.000000e+01  2.800000e+01
     vertex  4.800000e+01  4.000000e+01  2.550000e+01
     vertex  4.800000e+01  4.000000e+01  2.800000e+01
   endloop
 endfacet
 facet normal -1.000000e+00  0.000000e+00  0.000000e+00
   outer loop
     vertex  7.800000e+01  4.000000e+01  2.800000e+01
     vertex  7.800000e+01  6.500000e+01  2.550000e+01
     vertex  7.800000e+01  4.000000e+01  2.550000e+01
   endloop
 endfacet
 facet normal -1.000000e+00  0.000000e+00  0.000000e+00
   outer loop
     vertex  7.800000e+01  4.000000e+01  2.800000e+01
     vertex  7.800000e+01  6.500000e+01  2.800000e+01
     vertex  7.800000e+01  6.500000e+01  2.550000e+01
   endloop
 endfacet
 facet normal  0.000000e+00 -1.000000e+00 -0.000000e+00
   outer loop
     vertex  7.800000e+01  6.500000e+01  2.800000e+01
     vertex  4.800000e+01  6.500000e+01  2.550000e+01
     vertex  7.800000e+01  6.500000e+01  2.550000e+01
   endloop
 endfacet
 facet normal -0.000000e+00 -1.000000e+00  0.000000e+00
   outer loop
     vertex  7.800000e+01  6.500000e+01  2.800000e+01
     vertex  4.800000e+01  6.500000e+01  2.800000e+01
     vertex  4.800000e+01  6.500000e+01  2.550000e+01
   endloop
 endfacet
 facet normal  1.000000e+00  0.000000e+00  0.000000e+00
   outer loop
     vertex  4.800000e+01  4.000000e+01  2.800000e+01
     vertex  4.800000e+01  4.000000e+01  2.550000e+01
     vertex  4.800000e+01  6.500000e+01  2.550000e+01
   endloop
 endfacet
 facet normal  1.000000e+00 -0.000000e+00  0.000000e+00
   outer loop
     vertex  4.800000e+01  4.000000e+01  2.800000e+01
     vertex  4.800000e+01  6.500000e+01  2.550000e+01
     vertex  4.800000e+01  6.500000e+01  2.800000e+01
   endloop
 endfacet
 facet normal  0.000000e+00  1.000000e+00  0.000000e+00
   outer loop
     vertex  1.315000e+02  8.500000e+00  2.550000e+01
     vertex  1.315000e+02  8.500000e+00  1.750000e+01
     vertex  8.500000e+00  8.500000e+00  1.750000e+01
   endloop
 endfacet
 facet normal  0.000000e+00  1.000000e+00  0.000000e+00
   outer loop
     vertex  1.315000e+02  8.500000e+00  2.550000e+01
     vertex  8.500000e+00  8.500000e+00  1.750000e+01
     vertex  8.500000e+00  8.500000e+00  2.550000e+01
   endloop
 endfacet
 facet normal -1.000000e+00  0.000000e+00  0.000000e+00
   outer loop
     vertex  1.315000e+02  8.500000e+00  1.750000e+01
     vertex  1.315000e+02  9.150000e+01  2.550000e+01
     vertex  1.315000e+02  9.150000e+01  1.750000e+01
   endloop
 endfacet
 facet normal -1.000000e+00  0.000000e+00  0.000000e+00
   outer loop
     vertex  1.315000e+02  8.500000e+00  2.550000e+01
     vertex  1.315000e+02  9.150000e+01  2.550000e+01
     vertex  1.315000e+02  8.500000e+00  1.750000e+01
   endloop
 endfacet
 facet normal  0.000000e+00 -1.000000e+00 -0.000000e+00
   outer loop
     vertex  1.315000e+02  9.150000e+01  2.550000e+01
     vertex  8.500000e+00  9.150000e+01  1.750000e+01
     vertex  1.315000e+02  9.150000e+01  1.750000e+01
   endloop
 endfacet
 facet normal -0.000000e+00 -1.000000e+00  0.000000e+00
   outer loop
     vertex  1.315000e+02  9.150000e+01  2.550000e+01
     vertex  8.500000e+00  9.150000e+01  2.550000e+01
     vertex  8.500000e+00  9.150000e+01  1.750000e+01
   endloop
 endfacet
 facet normal  1.000000e+00  0.000000e+00  0.000000e+00
   outer loop
     vertex  8.500000e+00  8.500000e+00  1.750000e+01
     vertex  8.500000e+00  9.150000e+01  1.750000e+01
     vertex  8.500000e+00  9.150000e+01  2.550000e+01
   endloop
 endfacet
 facet normal  1.000000e+00 -0.000000e+00  0.000000e+00
   outer loop
     vertex  8.500000e+00  8.500000e+00  2.550000e+01
     vertex  8.500000e+00  8.500000e+00  1.750000e+01
     vertex  8.500000e+00  9.150000e+01  2.550000e+01
   endloop
 endfacet
 facet normal  0.000000e+00  0.000000e+00 -1.000000e+00
   outer loop
     vertex  8.500000e+00  9.150000e+01  2.550000e+01
     vertex  4.800000e+01  4.000000e+01  2.550000e+01
     vertex  8.500000e+00  8.500000e+00  2.550000e+01
   endloop
 endfacet
 facet normal -0.000000e+00 -0.000000e+00 -1.000000e+00
   outer loop
     vertex  4.800000e+01  6.500000e+01  2.550000e+01
     vertex  4.800000e+01  4.000000e+01  2.550000e+01
     vertex  8.500000e+00  9.150000e+01  2.550000e+01
   endloop
 endfacet
 facet normal -0.000000e+00  0.000000e+00 -1.000000e+00
   outer loop
     vertex  7.800000e+01  4.000000e+01  2.550000e+01
     vertex  8.500000e+00  8.500000e+00  2.550000e+01
     vertex  4.800000e+01  4.000000e+01  2.550000e+01
   endloop
 endfacet
 facet normal  0.000000e+00  0.000000e+00 -1.000000e+00
   outer loop
     vertex  1.315000e+02  8.500000e+00  2.550000e+01
     vertex  8.500000e+00  8.500000e+00  2.550000e+01
     vertex  7.800000e+01  4.000000e+01  2.550000e+01
   endloop
 endfacet
 facet normal  0.000000e+00  0.000000e+00 -1.000000e+00
   outer loop
     vertex  7.800000e+01  6.500000e+01  2.550000e+01
     vertex  4.800000e+01  6.500000e+01  2.550000e+01
     vertex  8.500000e+00  9.150000e+01  2.550000e+01
   endloop
 endfacet
 facet normal  0.000000e+00  0.000000e+00 -1.000000e+00
   outer loop
     vertex  1.315000e+02  9.150000e+01  2.550000e+01
     vertex  7.800000e+01  4.000000e+01  2.550000e+01
     vertex  7.800000e+01  6.500000e+01  2.550000e+01
   endloop
 endfacet
 facet normal  0.000000e+00 -0.000000e+00 -1.000000e+00
   outer loop
     vertex  1.315000e+02  9.150000e+01  2.550000e+01
     vertex  1.315000e+02  8.500000e+00  2.550000e+01
     vertex  7.800000e+01  4.000000e+01  2.550000e+01
   endloop
 endfacet
 facet normal -0.000000e+00  0.000000e+00 -1.000000e+00
   outer loop
     vertex  1.315000e+02  9.150000e+01  2.550000e+01
     vertex  7.800000e+01  6.500000e+01  2.550000e+01
     vertex  8.500000e+00  9.150000e+01  2.550000e+01
   endloop
 endfacet
endsolid
